<svg xmlns="http://www.w3.org/2000/svg" width="612" height="86.004" viewBox="0 352.997 612 86.004"><path fill="none" d="M0 352.997h612v86.004H0z"/><g fill="#FFF"><path d="M120.081 362.421l-7.484 16.296h14.919l-7.435-16.296zm16.806 30.606h-2.802l-5.5-12.02h-16.958l-5.499 12.02h-2.801l15.94-34.985h1.578l16.042 34.985m10.031-32.49v30.3h8.149c3.921 0 6.619-.101 10.592-2.392 4.175-2.446 6.672-7.59 6.672-12.884 0-4.025-1.478-9.27-6.672-12.578-3.566-2.294-6.112-2.446-10.592-2.446h-8.149zm7.843-2.24c5.092 0 8.302 0 12.426 2.343 5.398 3.107 8.15 8.758 8.15 14.87 0 5.345-2.345 12.068-8.15 15.123-4.533 2.394-7.334 2.394-12.426 2.394h-10.543v-34.73h10.543m58.208 17.518c0 4.94-.306 8.097-2.446 11.406-2.037 3.21-6.01 6.264-11.917 6.264-4.428 0-9.624-1.781-12.12-6.161-2.495-4.279-2.546-7.232-2.546-11.51v-17.517h2.65v18.028c0 4.786.813 7.331 1.882 9.166 1.63 2.801 4.838 5.499 9.932 5.499 4.073 0 8.248-1.885 9.98-5.398 1.578-3.054 1.935-5.806 1.935-9.267v-18.028h2.65v17.518m13.544-15.278v13.546h3.719c3.97 0 5.907-.204 7.79-1.12 1.884-.917 3.157-3.31 3.157-5.704s-1.273-4.634-3.206-5.601c-1.123-.56-2.75-1.122-7.08-1.122h-4.38zm4.177-2.24c4.022 0 6.06.153 8.3 1.018 2.751 1.12 5.244 4.023 5.244 7.945 0 4.227-2.444 6.924-6.62 8.454 1.986 1.272 2.903 2.648 10.898 14.919l1.63 2.394h-3.209l-6.67-10.49c-1.068-1.682-2.902-4.126-4.277-5.093-1.53-1.07-3.21-1.07-5.754-1.07h-3.72v16.653h-2.698v-34.73h6.876m57.694 8.046c0-2.394-1.832-4.94-5.244-4.94-3.259 0-5.501 2.343-5.501 4.991 0 1.424.664 3.768 4.227 7.078 5.196-2.138 6.518-5.042 6.518-7.129zm-7.23 10.184c-2.699 1.172-7.434 3.412-7.434 8.149 0 3.411 2.444 6.365 6.823 6.365 2.85 0 6.06-1.273 9.423-5.348l-8.812-9.166zm19.3 16.5h-3.413l-5.243-5.449c-1.526 1.68-5.347 5.907-11.56 5.907-5.347 0-9.472-3.666-9.472-8.25 0-2.495 1.07-7.333 8.606-10.593-2.497-2.85-4.329-4.887-4.329-8.095 0-3.87 3.207-7.588 8.252-7.588 4.734 0 7.586 3.413 7.586 7.18 0 5.55-5.347 8.25-7.28 9.217l7.891 8.199c.764-1.07 2.342-3.412 3.82-7.841h2.851c-1.171 3.461-2.65 6.823-4.787 9.827l7.079 7.486m58.817.254h-.815l-11.661-29.23-11.562 29.23h-.813l-13.904-34.984h2.75l11.509 28.823 11.612-28.823h.866l11.56 28.823 11.61-28.823h2.698l-13.85 34.984m35.953-32.845c-8.863 0-15.432 6.772-15.432 15.278 0 8.198 6.365 15.224 15.279 15.224 7.993 0 15.48-5.956 15.48-15.429 0-7.944-6.265-15.073-15.327-15.073zm-.104 33.05c-10.389 0-18.382-7.894-18.382-17.875 0-9.42 7.28-17.772 18.431-17.772 11.05 0 18.387 8.3 18.387 17.67 0 10.44-8.353 17.976-18.436 17.976m30.504-32.948v13.546h3.717c3.972 0 5.907-.204 7.791-1.12 1.886-.917 3.158-3.31 3.158-5.704s-1.271-4.634-3.208-5.601c-1.119-.56-2.75-1.122-7.079-1.122h-4.38zm4.175-2.24c4.023 0 6.06.153 8.303 1.018 2.748 1.12 5.243 4.023 5.243 7.945 0 4.227-2.444 6.924-6.618 8.454 1.986 1.272 2.902 2.648 10.896 14.919l1.63 2.394h-3.209l-6.67-10.49c-1.07-1.682-2.903-4.126-4.278-5.093-1.526-1.07-3.207-1.07-5.755-1.07h-3.717v16.653h-2.697v-34.73h6.872m48.99 2.24h-12.988v32.49h-2.748v-32.49h-13.037v-2.24h28.772v2.24m35.902 32.49h-2.699v-16.449h-23.221v16.45h-2.65v-34.73h2.65v15.99h23.221v-15.99h2.7v34.73m11.406 0h2.748v-34.73h-2.748v34.73zm45.372 0h-2.24l-26.38-30.555v30.554h-2.697v-34.73h2.494l26.124 30.35v-30.35h2.699v34.73m39.873-29.18c-3.717-2.342-8.046-3.463-12.425-3.463-7.588 0-15.126 5.552-15.126 15.33 0 9.521 7.538 15.327 15.024 15.327 3.614 0 7.13-.866 10.492-2.19v-9.37h-7.336v-2.291h10.034v13.342c-4.127 1.884-8.607 2.954-13.088 2.954-8.963 0-18.129-6.977-18.129-17.925 0-9.93 7.639-17.722 18.638-17.722 5.245 0 9.116 1.732 11.917 2.954v3.054m-489.124 71.22c-2.728 1.446-4.938 1.855-7.31 1.855-7.23 0-10.831-4.72-10.831-9.494 0-4.693 3.683-9.602 11.239-9.602 3.381 0 5.73 1.065 6.683 1.636v4.284c-.764-.574-3.137-2.02-6.356-2.02-3.872 0-6.739 2.239-6.739 5.647 0 3.657 3.112 5.703 6.604 5.703 1.744 0 3.381-.492 4.937-1.282l1.773-1.01v4.283m27.636-13.285c-3.329 0-5.84 2.018-5.84 5.701 0 4.446 3.656 5.675 5.866 5.675 2.973 0 5.865-1.965 5.865-5.648 0-3.464-2.265-5.728-5.891-5.728zm-.056 15.14c-6.438 0-10.612-4.664-10.612-9.52 0-4.337 3.602-9.576 10.694-9.576 6.574 0 10.666 4.72 10.666 9.576 0 4.31-3.52 9.52-10.748 9.52m46.706-8.73c0 1.474-.028 3.792-1.612 5.73-1.908 2.29-4.963 3-7.83 3-1.443 0-5.316-.054-7.827-3.3-.736-.983-1.418-2.292-1.418-5.293V418.07h4.693v9.22c0 .764 0 1.856.326 2.892.6 2.075 2.482 3.002 4.308 3.002 2.703 0 3.958-1.773 4.338-2.729.33-.819.33-1.527.33-3.165v-9.22h4.692v10.12m37.182 8.486h-3.872l-10.285-11.513v11.512h-4.609V418.07h4.227l9.957 10.966V418.07h4.582v18.605m35.576-1.609c-2.729 1.446-4.938 1.855-7.312 1.855-7.227 0-10.83-4.72-10.83-9.494 0-4.693 3.685-9.602 11.24-9.602 3.38 0 5.729 1.065 6.683 1.636v4.284c-.764-.574-3.137-2.02-6.356-2.02-3.872 0-6.74 2.239-6.74 5.647 0 3.657 3.111 5.703 6.603 5.703 1.744 0 3.383-.492 4.938-1.282l1.773-1.01v4.283m18.088 1.61h4.692V418.07h-4.692v18.605zm37.427 0h-14.186V418.07h4.693v15.14h9.494v3.465m29.435-13.585c-1.28-.627-3.599-1.801-5.972-1.801-2.728 0-2.81 1.338-2.81 1.527 0 1.12 1.828 1.775 4.501 2.728 2.345.848 5.129 2.265 5.129 5.867 0 4.309-4.503 5.51-7.284 5.51-3.137 0-6.11-1.473-6.576-1.8v-4.01c1.609 1.008 3.737 2.318 6.465 2.318.6 0 2.783-.027 2.783-1.691 0-1.228-1.064-1.61-3.518-2.455-2.675-.929-6.056-2.237-6.056-6.166 0-2.837 2.372-5.292 7.037-5.292 1.473 0 3.328.164 6.302 1.446v3.819M43.002 356.636c-21.706 0-39.365 17.659-39.365 39.365 0 21.705 17.66 39.363 39.365 39.363 21.705 0 39.365-17.658 39.365-39.363 0-21.706-17.66-39.365-39.365-39.365zm0 82.366C19.29 439.002 0 419.712 0 396c0-23.713 19.29-43.003 43.002-43.003 23.712 0 43.002 19.29 43.002 43.003 0 23.71-19.29 43-43.002 43"/><path d="M46.026 405.804c-1.023-.784-.988-.756-1.062-.823-.505-.452-3.774-3.402-4.676-4.438-2.126-2.365-4.41-4.49-4.41-6.988 0-2.258 1.726-3.03 2.842-3.03 1.487 0 2.418.559 2.949 1.196.584.692.679 1.23.987 2.11.017.05.035.093.05.136l4.2 12.58c-.273-.236-.56-.481-.88-.743zm-7.6 2.71c-2.762 0-5.1-2.125-5.1-5.446 0-2.126.93-3.375 1.834-4.039.45.664 2.151 2.578 2.842 3.321.691.744 3.242 3.242 4.783 4.57-.558.532-2.311 1.595-4.358 1.595zm-13.188-9.323h-6.514c-.142 0-.177-.106-.142-.248l3.257-8.708c.036-.141.106-.319.212-.319.107 0 .142.178.177.32l3.187 8.742c.036.107 0 .213-.177.213zm51.145-16.294c-1.169 0-2.69.107-2.938.107-.32 0-1.806-.107-3.681-.107-.532 0-.815.072-.815.32 0 .212.248.317.602.317 1.381 0 1.699.496 1.699 1.064 0 .494-.106 1.237-.354 2.051-1.238 4.142-4.071 13.488-4.708 15.86h-.107l-7.363-17.806c-.46-1.133-.637-1.664-1.027-1.664-.283 0-.494.284-.884 1.275l-6.868 18.443h-.106c-.638-1.983-3.929-12.709-4.531-15.046-.424-1.592-.779-2.796-.779-3.255 0-.39.07-.638.389-.78.248-.142.602-.142.886-.142.354 0 .636-.035.636-.318 0-.212-.248-.319-.743-.319-2.053 0-3.611.107-3.929.107-.32 0-2.266-.107-4.107-.107-.496 0-.78.072-.78.32 0 .282.213.318.568.318.317 0 1.026.07 1.416.318.496.355.884 1.205 1.309 2.514l1.047 3.134a9.954 9.954 0 0 0-1.646-.143c-4.623 0-6.482 2.789-6.456 4.888.026 1.195.238 2.285 1.355 3.773-1.06.512-2.621 1.756-3.552 3.443-2.637-6.515-6.413-16.109-7.095-17.67-.354-.814-.566-1.133-.885-1.133-.354 0-.567.39-.99 1.417l-8.887 22.23c-.707 1.77-1.38 2.974-3.008 3.187-.283.035-.78.07-1.097.07-.284 0-.425.072-.425.284 0 .283.212.353.672.353 1.842 0 3.789-.106 4.177-.106 1.098 0 2.62.106 3.753.106.389 0 .601-.07.601-.353 0-.212-.106-.283-.53-.283h-.531c-1.098 0-1.417-.46-1.417-1.098 0-.425.177-1.275.531-2.16l1.913-5.061c.07-.213.141-.284.318-.284h7.894c.177 0 .283.071.354.248l2.832 7.505c.177.424-.071.744-.318.814-.354.036-.496.107-.496.319 0 .247.424.247 1.062.283 2.832.07 7.32.07 7.32.07l.86-.01c3.64 0 5.42-1.622 6.297-2.42 2.286 1.755 3.058 2.405 6.088 2.405h2.045c.586 0 .798-.079.798-.239 0-.212-.133-.238-.372-.238-.531 0-1.993-.426-2.843-.931l-.002-.001.227-.487c1.522-3.256 6.23-15.788 6.903-17.593h.071l7.363 17.735c.53 1.31.742 1.735 1.097 1.735.46 0 .637-.426 1.026-1.665 1.735-5.31 5.453-16.567 7.08-21.027.744-2.017 1.134-3.434 1.983-3.753.39-.141.885-.177 1.24-.177.318 0 .495-.105.495-.353 0-.212-.247-.284-.637-.284"/></g></svg>