<svg id="Layer_1" data-name="Layer 1" xmlns="http://www.w3.org/2000/svg" viewBox="0 0 443.22 96.98"><defs><style>.cls-1{fill:#fff;}</style></defs><path class="cls-1" d="M33.26,26.33c.34.22.07,1-.37.9-.21-.37.13-.75.37-.9" transform="translate(-18.77 -18.35)"/><path class="cls-1" d="M37.32,28c.24,0,.31.08.38.22a2.08,2.08,0,0,1-1.2.75.61.61,0,0,1,.07-.46.5.5,0,0,0,.75-.51" transform="translate(-18.77 -18.35)"/><path class="cls-1" d="M33.19,28.43c.2,0,.32,0,.3.23-.19,0-.32,0-.3-.23" transform="translate(-18.77 -18.35)"/><path class="cls-1" d="M105.73,32.41a8.55,8.55,0,0,1-2.17,3.68,4.53,4.53,0,0,1-1.5,1.13c1-1.83,1.93-3.72,3.67-4.81" transform="translate(-18.77 -18.35)"/><path class="cls-1" d="M38.9,34.67c-.07.36-.64.43-1,.3-.15-.59.93-.84,1-.3" transform="translate(-18.77 -18.35)"/><path class="cls-1" d="M35.37,35a1.23,1.23,0,0,1,.6.22c0,.22-.27.24-.23.53-.3.05-.43-.08-.67-.08a1,1,0,0,1,.3-.67" transform="translate(-18.77 -18.35)"/><path class="cls-1" d="M33,36.54c.16.63-.83.9-1.05.46,0-.51.74-.71,1.05-.46" transform="translate(-18.77 -18.35)"/><path class="cls-1" d="M40.47,38.88c0,.27,0,.62.23.67s.1-.51.23-.67a.36.36,0,0,0-.46,0m-1,.21c.66.13,1.69-.77,1.5-1.27a4.75,4.75,0,0,0-1.5,1.27m1.79-1.5c-.12,1.17.08,2.68-1,2.93-.16.26-.25.61-.52.75-.21-1-.43-2-1.73-2,.29-.54,1-.49,1.43-.75s1-1,1.79-1" transform="translate(-18.77 -18.35)"/><path class="cls-1" d="M34.62,41.72a.62.62,0,0,0-.53-.52c-.24.3.24.75.53.52m2.18.68c-.24.09-.39-.19-.68-.22-.51-.06-1,.24-1.5.14-.79-.15-1-.79-1.43-1.42a2.72,2.72,0,0,0,2.18-.15c-.46-.51-2,.15-2.63-.08,1-.4,2.39-.41,3.31-.9a.12.12,0,0,1,.15.08,2.53,2.53,0,0,0,.6,2.55" transform="translate(-18.77 -18.35)"/><path class="cls-1" d="M43.26,41.57c1.37.55,1.73,2.12,2.17,3.61a24.69,24.69,0,0,1-1.35-2.48c-.27-.4-.7-.65-.82-1.13" transform="translate(-18.77 -18.35)"/><path class="cls-1" d="M93.64,42.85c-.3.39-.7,1-1.12,1,.08-.18.25-.53.07-.75-.34.06-.44.36-.83.38,0-1.06,1.58-2.07,1.88-.68" transform="translate(-18.77 -18.35)"/><path class="cls-1" d="M31.69,42.32c.68,1.23,2.23,1.58,3.08,2.63a7.09,7.09,0,0,1-2.85-1.8,1.15,1.15,0,0,1-.23-.83" transform="translate(-18.77 -18.35)"/><path class="cls-1" d="M71.56,45.63A5.09,5.09,0,0,1,69.84,47,5.92,5.92,0,0,1,68,45.56c.46-.63,1.22-1,1.73-1.51a6.67,6.67,0,0,1,1.8,1.58" transform="translate(-18.77 -18.35)"/><path class="cls-1" d="M64.58,45.78c.76,1.36-3,1.93-3.68,1.13.06-1.46,2.54-1.48,3.68-1.13" transform="translate(-18.77 -18.35)"/><path class="cls-1" d="M75.54,45.63c.82-.3,3.15.12,3.23.9.15,1.4-3.73.83-3.82-.15a.74.74,0,0,1,.59-.75" transform="translate(-18.77 -18.35)"/><path class="cls-1" d="M42.58,46.23c.1,0,.12.13.22.15.53,2.52,3,3.07,3.61,5.56-.88-2.3-3.35-3-3.83-5.71" transform="translate(-18.77 -18.35)"/><path class="cls-1" d="M36.65,47.35c1.47,1.61.61,4.53-.6,5.86.15-1.11,1.15-2.24,1.12-3.67,0-.78-.54-1.35-.52-2.19" transform="translate(-18.77 -18.35)"/><path class="cls-1" d="M74.42,48.56c-.78.69-2.62.15-3.46-.08a4,4,0,0,1,3.46.08" transform="translate(-18.77 -18.35)"/><path class="cls-1" d="M67.66,48.41c-.42.69-2,.24-2.93.37a3.43,3.43,0,0,1,2.93-.37" transform="translate(-18.77 -18.35)"/><path class="cls-1" d="M61.43,49.31c-.48.55-1.86.59-2.71.53.72-.26,2.05-1.19,2.71-.53" transform="translate(-18.77 -18.35)"/><path class="cls-1" d="M78.1,49.08c1.27,0,2.61-.06,3.08.76-1.12.4-2.25-.38-3.08-.76" transform="translate(-18.77 -18.35)"/><path class="cls-1" d="M73.07,50.21c-.07.34-.53.27-.68.53a24.83,24.83,0,0,0-.15,3.52c0,.4.51.3.53.69a6.16,6.16,0,0,1-2.18-.16c0-.29.36-.18.53-.45A7.49,7.49,0,0,0,71.27,51c-.15-.42-.54-.53-.76-.75a6.43,6.43,0,0,1,2.56,0" transform="translate(-18.77 -18.35)"/><path class="cls-1" d="M97.62,51.19c-.24.23-.72.08-1.05,0V51c.28-.12,1.06-.18,1.05.23" transform="translate(-18.77 -18.35)"/><path class="cls-1" d="M100.85,51.11c.06.16.2.26.15.53-.37.18-.75.16-.75-.38a.84.84,0,0,1,.6-.15" transform="translate(-18.77 -18.35)"/><path class="cls-1" d="M104.61,52.84c-.25.19-1.07.13-1-.38.37-.17,1,0,1,.38" transform="translate(-18.77 -18.35)"/><path class="cls-1" d="M65.93,57c-.6.77-1.8.58-2.85.6.84,1.09,3.11-.64,4.8-.45,1.87.21,1,2.16-.82,1.57,0,.62,1.15.69,2,.53.22.55-.15,1.25.15,1.73A2.06,2.06,0,0,1,68,61.1a4,4,0,0,1-.15-.83c.14-.14.57,0,.61-.22-.15-.58-.71-.17-1.13-.15-.76,0-1.55-.43-2.18-.3,0,.4.64.26.82.52a3.55,3.55,0,0,1-3.22.83.8.8,0,0,1,.37-.75c.55.06.58.37,1.21.22,0-.4-.43-.28-.38-.68s.34-.25.52-.37c-.73,0-1.71.39-2.62.45-.14.21-.18.52-.31.75-1,.75-2.57.14-3.67.38-.16-.27-.4-.46-.45-.83.7-1.27,1.47,1,2.48.08a16.83,16.83,0,0,0-2.26-2c.24-.25,0-.58.15-.83.34,0,.47.13.83.07-.11.95.52,1.45,1.35,1.66a6.69,6.69,0,0,0,.15-1.66c.58-.19,1.12-.33,1.58.08,0,.28-.07.66.07.82,2,.61,4.42-.34,6.61-.22-.29-1.58-3.24.17-4.51.15-.37,0-1.19-.16-1.27-.53-.3-1.28,2.48-.74,3.3-.82" transform="translate(-18.77 -18.35)"/><path class="cls-1" d="M76.22,58.62c-.6-.91-2.68-.72-4-.6-.06.28.12.32.07.6-.23,0-.42-.18-.6,0,.11,1.37-.33,3.28.53,3.9.1.23,0,.27,0,.61.22,0,.43.11.52.3-.18.24-.5.35-.37.9-1,.37-.3,2.28-.45,3.38a1.09,1.09,0,0,1,.9.52c1-.07,2.34.26,2.7-.44h.45c.23-.1.2-.46.52-.46a.53.53,0,0,1,.31.46c.59-.29.75.21,1,.44a15.76,15.76,0,0,0,3-.23c.07-.46.17-.63.61-.59a28.43,28.43,0,0,1-.08-3.23c-.38-.23-.34-.87-.68-1.13.37-.11.44-.4.23-.75.8-.71.14-2.58.3-3.83-.1-.13-.43,0-.53-.15a.37.37,0,0,0,0-.45c-1.78.07-3.5-.21-4.43.75m5.11-1c.6,3.26.25,7,.37,10.81-3.34.18-6.41.15-10.06.22-.16-3.58-.2-7.18-.37-10.89,3.55-.22,7.27-.2,10.06-.14" transform="translate(-18.77 -18.35)"/><path class="cls-1" d="M78,61.62c.07,1.07.3,2,1.28,2.11.54-.23.24-.77.3-1.21.11-.73.68-1.16.83-1.8-.43-.24-.36.44-.53.68a7.51,7.51,0,0,1-1,.38c.16-.88.79-2.62,2-1.43.26.82-.37,1.22-.53,1.73-.24.75.22,1.84-.45,2.25-.2,0-.43,0-.53.07,0,.82.68,1,1.13,1.36a2.43,2.43,0,0,1-1.35,2.17c-.36,0-.54-.26-.9-.3a1,1,0,0,1,.37-.9c.41-.1.4.21.68.23,1.1-1.21-1.15-1.32-1.5-2a1.15,1.15,0,0,1-1.13.23c-.1.49.26.53.38.82-.23,1-1.8.66-2.41,1.28a4,4,0,0,1-.75-.45c0-.43.29-.52.45-.76.56.15,1.22.36,1.58-.14-.25-.59-.91-1-.6-1.88.34-.43,1.39-.32,2-.23.06-.62-1-.79-1.19-1.35-.48.08-.48.53-.91.6-.75.14-1.61-.76-2.25-.45-.32-.11-.24-.61-.6-.67.09-.42.46-.55.83-.68.41.34.84,1.28,1.57.83a7.79,7.79,0,0,0-1.57-2.71c.14-.26.33-.47.45-.75a1.83,1.83,0,0,1,.9.45c-.49.72.11,1.43.6,1.8a11.23,11.23,0,0,1,2.1-1c-.21-.78-1.55,0-1.65-.83a15.94,15.94,0,0,0,2.18.3c-.12-.41-.9,0-.83-.6s2.17-.66,2.4.23c.36,1.35-.82,1.83-1.35,2.62" transform="translate(-18.77 -18.35)"/><path class="cls-1" d="M111.52,59.82a10.22,10.22,0,0,0,1,3.23c-.88-.5-1.19-2-1-3.23" transform="translate(-18.77 -18.35)"/><path class="cls-1" d="M39.8,63.66c0-.1.13-.07.22-.08,2.83,2.18,6.9,3.11,11.42,3.6A16.71,16.71,0,0,1,39.8,63.66" transform="translate(-18.77 -18.35)"/><path class="cls-1" d="M75.62,71.23c0,.36-.16.5-.23.76,1,1.06,2.72.07,4.21.14.46,0,1.21.1,1.81.08a.64.64,0,0,0,.22-.75c-1.71-.47-3.63,1.38-5.19.22a1.74,1.74,0,0,1,.08-.67,16.39,16.39,0,0,1,2.78-.07c-.43.69-1.61.2-2.25.45.06.48.63.3.82.29,1.11,0,2.68-1.2,4.13-.59.59,1.07-.51,1.6-1.5,1.57.37.57,1.18.07,1.5.08.58.33-.07,1.33.15,1.8-.47.16-1.07.2-1.27-.23,0-.43.58-.21.6-.59-.14-.25-.61,0-.83.07-.68.17-1.29-.42-1.65-.07,0,.36.63.12.6.52-.49.69-2.17.18-2.85.68-.36,0-.48-.28-.68-.45.13-.2.34-.31.45-.53.48,0,.78.44,1.28.15,0-.22-.3-.25-.38-.45s.32-.23.38-.45c-.86.1-1.53.37-2.41.45-.46,1.32-2.57.52-3.67.75a1.07,1.07,0,0,1-.6-.75c.2-.15.33-.36.52-.53.59.14.73.73,1.58.61-.13-.48-1-.85-1.28-1.43a1.37,1.37,0,0,1-.67-.23c.14-.3-.13-.66.07-1a1.31,1.31,0,0,1,.83,0c.22.57.42,1.53,1.12,1.5.52,0,.8-.66.45-1.36a1.71,1.71,0,0,1,1.88,0" transform="translate(-18.77 -18.35)"/><path class="cls-1" d="M67.73,75.67c.39-1.48.73-3.32-1-3.38-1.42-.06-3.17,1.36-4.88.6.06,4.44,1.13,7.88,4.27,9.23.58-2,1-4.35,1.58-6.45m.68,8.78a9,9,0,0,1-2.48-.3c-.25-.44.21-1,0-1.42-.78-.45-1.81-.12-1.43.75a.84.84,0,0,1-.45-1.5c-.5-.8-2.17-.76-1.8.37-.55-.15-.84-.55-.75-1.35.18-.32.56-.44.83-.67-.06-.88-1.67-.9-1.73,0-.82-.45-.19-1.84.83-1.58-.06-1.12-1.46-1.77-2.1-.83-.7-.84.45-1.85,1.35-1.35.14-.64-.22-1.58-.83-1.65-.44-.06-.54.37-1,.29a1,1,0,0,1,1.87-.59c.34-.93.27-2.65-.9-2.56-.26.35.42.31.3.75a3.86,3.86,0,0,0-.3.38c-1.49-.06-.81-1.77.67-1.65,1.06.08,1.79.89,3.31.75s3.32-1.34,4.58-.45a2.08,2.08,0,0,1,.68,1.35c.29,2.22-.2,4-.3,6.16a49.21,49.21,0,0,1-.38,5.1" transform="translate(-18.77 -18.35)"/><path class="cls-1" d="M66.16,72.59c.81.53,1,1.67,1.43,2.63a7.59,7.59,0,0,1-1.43-2.63" transform="translate(-18.77 -18.35)"/><path class="cls-1" d="M65.63,72.74a9.66,9.66,0,0,1,1.73,3.45,13.13,13.13,0,0,1-1.73-3.45" transform="translate(-18.77 -18.35)"/><path class="cls-1" d="M62.25,73c.12,0,.13.07.23.07,1.07,2.79,2.81,5.3,3.67,8-1.61-2.34-2.64-5.26-4-7.89,0-.13.07-.13.07-.22" transform="translate(-18.77 -18.35)"/><path class="cls-1" d="M65,73a15,15,0,0,1,2.1,4.13A18.42,18.42,0,0,1,65,73" transform="translate(-18.77 -18.35)"/><path class="cls-1" d="M63,73.19c.11,0,.12.07.22.07.57,1.12,1.07,2.31,1.65,3.46a11.85,11.85,0,0,1,1.5,3.38A73.14,73.14,0,0,1,63,73.49a.2.2,0,0,1,0-.3" transform="translate(-18.77 -18.35)"/><path class="cls-1" d="M64.36,73.19h.22c.69,1.69,1.85,3.31,2.25,5a43.49,43.49,0,0,1-2.47-5" transform="translate(-18.77 -18.35)"/><path class="cls-1" d="M63.76,73.26H64c.82,2,2,3.7,2.7,5.78-1.24-1.58-1.91-3.74-2.92-5.55Z" transform="translate(-18.77 -18.35)"/><path class="cls-1" d="M53.62,73.56a11.21,11.21,0,0,1,.82,2.71c-.36,0-.38-.44-.75-.53-1-.27-2.73.69-3.53.9-.12.2,0,.65-.15.83a5.37,5.37,0,0,1-.82-2.93c.67,1.53,3.2.37,4.28-.15a3.06,3.06,0,0,1,.15-.83" transform="translate(-18.77 -18.35)"/><path class="cls-1" d="M97.92,74.09c.14,0,.16.07.08.07a6.71,6.71,0,0,0-1.5,6.54c-1.7-2-.65-5.82,1.42-6.61" transform="translate(-18.77 -18.35)"/><path class="cls-1" d="M79.22,75.14c-.21.36-.87.28-1,.68-.55.07-.91-.27-1.35-.08-.06.26.08.32.15.45,1,0,2.12-.68,3.23-.9.7-.13,1.65-.18,2,.3a2.15,2.15,0,0,1-.07.83c-.43.25-1.09.25-1.5.52.43.48,1.15.17,1.5.08.57.55-.24,1.46-.23,2.18a7.49,7.49,0,0,1-1.13-.08,1.27,1.27,0,0,1,0-.9c.31,0,.44.07.68.08,0-.09,0-.14.08-.15-.34-.45-1.41,0-2-.23-.07.33.37.13.38.38-.29.94-2,.44-2.78.9-.38-.08-.51-.4-.75-.6.34-.68,1-.43,1.57-.23.23-.19-.3-.25-.15-.6.17-.16.45-.2.6-.38-1.14-.09-2,.74-3.15.91-.21,1-1.49.55-2.7.6-.63,0-1.14.28-1.36-.38.09-.39.47-.48.76-.67a1.6,1.6,0,0,0,1.65.37,10.66,10.66,0,0,0-2.25-1.8,2.84,2.84,0,0,1,.22-1c.38.19.7,0,1,.23a1.35,1.35,0,0,0,1.12,1.43c.29-.46,0-1,.08-1.66a1.82,1.82,0,0,1,1.8.15c-.19.34-.56,1.13,0,1.35a27.54,27.54,0,0,0,3.83-.52c.85-.1,2,.34,2.26-.6-1.77-.63-3.72,1.42-5.19.37-.14-1.49,1.87-.9,2.85-1" transform="translate(-18.77 -18.35)"/><path class="cls-1" d="M34.69,76.79c1,2.06.42,5.56-.08,7.82-.22-2.19,1.09-6.38-.67-8,.24-.18.45.16.75.15" transform="translate(-18.77 -18.35)"/><path class="cls-1" d="M53.84,80.92a7.12,7.12,0,0,0,1.73-.75c.24-.53-.28-.9-.08-1.35A9.83,9.83,0,0,1,57,81.15c-.43.07-.4-.31-.68-.38-1.64.36-3.91,1-3.3,2.93-.31-.5-.92-1-1-1.5-.1-1,1.44-2.81,1.43-3.91-.89.28-2.83.67-2.33,2.11A4.84,4.84,0,0,1,50,78c1.49,1.17,3.35-.85,4.81-.89.2,1.25-.92,2.34-1,3.82" transform="translate(-18.77 -18.35)"/><path class="cls-1" d="M78.4,79.42a3.09,3.09,0,0,1-1.73.75c1.15.85,2.9-1.39,4-.75a.94.94,0,0,1,.38.75c0,1-1.52,1-2.33,1.43,0,.27.62-.09.76.23-.1.88-1.12.84-1.43,1.5-.34-.19-.57,0-.9-.16,0-.42.28-.51.3-.89-.56,0-.75.67-.6,1.2-.67.29-.94.82-2,.6a.72.72,0,0,1,1-.91c.36-.1.28-.67.38-1-.53.13-.84.47-1.43.54-.32,1.26-1.94,1.2-2.4,2.32a9.37,9.37,0,0,0-1-.23c-.18-.36.12-.67.15-1,.31,0,.64,0,.75.23.41-.17.82-.33,1-.76,0-.22-.21-.14-.15-.37-.28-.06-.36.09-.61.07-.63-.63-.91-1.63-1.57-2.25,0-.39.37-.48.45-.82.3-.17.43.4.82.37.2.25-.1.51-.14.75.32,1.57,1.78.74,1.12-.82a1.57,1.57,0,0,1,1.8.07c0,.33-.3.45-.22.9.51.43,1.22.06,2-.07,1.35-.22,3,.24,3.6-.67-.67-1.45-3.21,1.52-4.5.07v-.6a3.87,3.87,0,0,1,2.4-.38" transform="translate(-18.77 -18.35)"/><path class="cls-1" d="M30.79,80.25c.09,0,.13,0,.15.08a17.06,17.06,0,0,0-.83,3.53c-.16,1.89,0,4.37.83,5.18a1.08,1.08,0,0,0,.75,0c-.52.76-1.61,1.15-2.33,2-1.37,1.66-2.65,3.7-2,6.46-.33-.78-1.22-1.87-.91-3.08.47-1.82,2.93-3,3.23-5a20.84,20.84,0,0,0-.15-3.53,14.73,14.73,0,0,1,1.28-5.63" transform="translate(-18.77 -18.35)"/><path class="cls-1" d="M85.08,81.15c-.73-.31-1.71,0-1.65.68.1,1.27,3.4-.4,3.68,1,.13,1.33-.66,1.75-1.21,2.41-.41-.2-.83-.41-1-.9.71.24,1.73,0,1.35-.83-1.1-.56-2.79.73-3.37-.6a2.3,2.3,0,0,1,1-2.62,1.6,1.6,0,0,1,1.2.82" transform="translate(-18.77 -18.35)"/><path class="cls-1" d="M58.5,84.3a1.14,1.14,0,0,0-1.28-1.57c-1.14.12-2.7,2.28-1.5,3.22A2.52,2.52,0,0,0,58.5,84.3M56.25,82a2.51,2.51,0,0,1,3.08,1.72,2.77,2.77,0,0,1-.91,2.7c-1.23.89-3.46.28-3.9-1.05A2.47,2.47,0,0,1,56.25,82" transform="translate(-18.77 -18.35)"/><path class="cls-1" d="M60.07,84A12.31,12.31,0,0,1,62,85.35c-1-.14-1,.7-1.43,1.13a3.12,3.12,0,0,0,1.66,1c.43-.25.51-.83.75-1.27,0-.36-.38-.38-.38-.76a4.91,4.91,0,0,1,2.1,1.06c-1.35.52-1.73,2-2.32,3.3-.1.4.21.38.15.75a5.25,5.25,0,0,1-1.8-.9c.46-.42,1.32-1,1.2-1.65s-1.09-.62-1.58-1a1.64,1.64,0,0,0-.6,2.18,5.67,5.67,0,0,1-2.25-1.36c1.49-.24,2.11-1.91,2.85-3.15.06-.37-.45-.45-.23-.75" transform="translate(-18.77 -18.35)"/><path class="cls-1" d="M74.72,92.49c0-.19.29-.16.23-.45-.75-.79-1.51.46-.23.45m.67-.45c.13.13.44.06.68.07.5-.8-.68-.94-.68-.07m-2-.9a.84.84,0,0,0,.67.23,6.4,6.4,0,0,0,.15-.91c-.47-.25-1,0-.82.68m2.17-.61c.1.16.21.3.3.46.28-.06.48-.18.53-.46-.14-.36-.74-.52-.83,0m-1.12-.22c.3,0,.42-.13.75-.08.22-1-1.24-.71-.75.08m1.88.83c0,.25.26.33.29.6a1.24,1.24,0,0,1-.52.75,1.33,1.33,0,0,0-1.35.3c-.71,0-1.36-.38-1-1.13a1.52,1.52,0,0,1-.6-.52,1.16,1.16,0,0,1,.22-1h.53c.33-.12.25-.65.52-.82a1.06,1.06,0,0,1,1.28.52c.84-.41,1.63,1,.68,1.28" transform="translate(-18.77 -18.35)"/><path class="cls-1" d="M34.84,97.89a1.35,1.35,0,0,0,1.81.83c1.43-.53,1.51-3.35,0-3.68-.36.43-1.9,2.14-1.81,2.85M35.29,93h.15c.87,1.19,3.32,2.11,3.46,4a2.35,2.35,0,0,1-2.85,2.63c-1.44-.28-2.19-1.77-3.16-2.71.07-.39.39-.07.75-.15.77-1,2.43-2.2,1.65-3.82" transform="translate(-18.77 -18.35)"/><path class="cls-1" d="M102.35,96.77a2.9,2.9,0,0,0,2.56,1.73c1.8-.4-.49-3-1.28-3.16a1.61,1.61,0,0,0-.68.08c-.59.18-.77.6-.6,1.35m1.13-2.18a2.36,2.36,0,0,1,2.7,1.5,2.53,2.53,0,0,1-1.87,3.23,2.57,2.57,0,0,1-2.33-3.9,2.37,2.37,0,0,1,1.5-.83" transform="translate(-18.77 -18.35)"/><path class="cls-1" d="M39.58,96.84a12,12,0,0,1,2.32,1.28c-.14.3-.41,0-.68.15-.39.71-2.49,3-1.42,4-.55.08-1-.39-1.51-.67s-1-.52-1.27-1c.36-.07.59.21,1,.15.82-.13,2.47-3,1.58-3.91" transform="translate(-18.77 -18.35)"/><path class="cls-1" d="M99,98a3.32,3.32,0,0,0,.9,1.5c1.18-.27.07-2.24-.9-1.5m2.26,1.13a2.93,2.93,0,0,0,2.7.6,2,2,0,0,1-1.2,1.13c-.81.11-1.68-.84-2.55-.75.22.71.7,1.43,1.57,1.28a4.44,4.44,0,0,1-2.55,1.2c1.2-.84-.77-3.11-1.2-4-.19-.12-.58,0-.75-.15.64-.67,3.58-2.34,4.13-.61.15.49-.06.74-.15,1.28" transform="translate(-18.77 -18.35)"/><path class="cls-1" d="M42.28,98.42a23.31,23.31,0,0,1,2.93,1.2,2,2,0,0,1-.31,1c-.36-.31-.49-.86-1.12-.9-.41.19-.52.68-.68,1.12.23.56.91.58,1.43.31-.14.59-.5,1-.68,1.5a1.51,1.51,0,0,0-1-1c-1.39.69-.06,2.49,1.27,1.65a3.1,3.1,0,0,1-.6,1c-.65-.15-1-.57-1.73-.68-.32-.57-1.41-.38-1.57-1.12h.53c.75-1,2-2.57,1.5-4.06" transform="translate(-18.77 -18.35)"/><path class="cls-1" d="M96.42,103.3c.66.08,1.08-.64,1.13-1.28.09-1.34-1.11-2.92-2.63-2,.49,1,.41,3.1,1.5,3.23m-2.48,1.2c.26-.33.8-.4.91-.9a9.16,9.16,0,0,0-.91-2.4c-.21-.48-.23-1.2-1-1a4.75,4.75,0,0,1,1.8-.83A5.25,5.25,0,0,1,96.8,99a2.32,2.32,0,0,1,1.87,2.25c.07,2.47-2.82,3-4.73,3.23" transform="translate(-18.77 -18.35)"/><path class="cls-1" d="M45.73,100a5.85,5.85,0,0,1,2.18.75c0,.28-.5.1-.6.3-.77,1-1.63,4.26.45,3.76a1.85,1.85,0,0,0,.75-.68c.33-.67.75-2.84,0-3.23a13.22,13.22,0,0,1,2.4.3c0,.37-.54.15-.67.38-.25,1.21-1.36,3.63.07,4.27-.53-.1-2.06.17-2.1-.67-1.08.3-2.33.28-2.78-.53-.7-1.24.56-2.81.6-4.05,0-.32-.37-.23-.3-.6" transform="translate(-18.77 -18.35)"/><path class="cls-1" d="M61.73,100.07a2.8,2.8,0,0,1,.37,1.51c-.36,0-.29-.41-.6-.45a2.45,2.45,0,0,0-1,.14,9,9,0,0,0,.83,3.54c.24,0,.55-.06.68.07a8.62,8.62,0,0,1-2.7.75c.05-.45.5-.41.6-.82.2-.92-.68-2.32-.68-3.23a1.24,1.24,0,0,0-1.35.82c-.41-.14-.32-1-.3-1.35,1.4-.36,2.72-.52,4.13-1" transform="translate(-18.77 -18.35)"/><path class="cls-1" d="M91.84,100.22c.16.3-.45.38-.52.68-.09,1.42.2,2.85.07,4-1-.87-1.8-2-2.85-2.85-.14.89-.13,2.28.37,2.78.24.12.76-.06.75.3a10.84,10.84,0,0,1-2.47.08c0-.39.5-.21.6-.45,0-1.39.34-3.64-.83-4.06.27-.28.92-.18,1.43-.22a27.7,27.7,0,0,1,2.32,2.4,6.1,6.1,0,0,0-.15-1.88c-.11-.36-.77-.18-.9-.52.71-.13,1.48-.18,2.18-.31" transform="translate(-18.77 -18.35)"/><path class="cls-1" d="M84.86,105c1.43-.1,1.56-4.53-.38-4-1.51.38-1.19,4.17.38,4m-.76-4.42a2.45,2.45,0,0,1,2.94,3.3,2.85,2.85,0,0,1-1.73,1.43c-3,.57-4-4.11-1.21-4.73" transform="translate(-18.77 -18.35)"/><path class="cls-1" d="M56.62,101.13a2.36,2.36,0,0,1,.15,1,1.55,1.55,0,0,0-1.58-.15,3.7,3.7,0,0,0,.15,1.43c.85.16,1-.36,1.28-.75a7.71,7.71,0,0,1,.15,1.8,1.34,1.34,0,0,0-1.35-.45c-.21.43,0,1,.07,1.43a1.14,1.14,0,0,0,1.66-.53c.2.29-.09.63,0,1.05a15.36,15.36,0,0,1-3.83.15c1.44-.41.77-3,.45-4.2-.12-.24-.62-.09-.6-.45,1.09-.17,2.4-.1,3.45-.3" transform="translate(-18.77 -18.35)"/><path class="cls-1" d="M28.91,33.61c.46-.22.83-.84,1.58-.53.11-.86,1.24-.7,1.8-1.12-1.31,0-4.15-.18-3.38,1.65m-1.13-.07a1.1,1.1,0,0,0,.91.82c.06-.58-.52-.76-.38-1.5s1.27-1,2.18-1.12c.6-.07,1.48.15,1.8-.38-1.88-.16-5,0-4.51,2.18m4.73-2.33c.13.45.15,1,.75,1a1.2,1.2,0,0,0-.52-1.2l-.23.22m-1,74a1.79,1.79,0,0,0,.53-2.25,1.92,1.92,0,0,0-.75-.08c-.25,1,.47,1.4.22,2.33M74,102.25c-.37.77.07,1.52-.23,2.18-.49,1.08-3.46,1.13-4.88.9a1.94,1.94,0,0,1-1.42-1.5c-.13-.55.28-1.1-.46-1.5a3.56,3.56,0,0,0,0,2.17c.73,2,5,2.53,6.61,1.28.87-.67.82-2.25.6-3.53Zm-40.78-.82a6.67,6.67,0,0,0,1.36,2.17v.45a1.5,1.5,0,0,0-1.36-2.62M113,99.54c-.16.64.44.52.37,1.06-.31.14-.45-.54-.52-.15-.22.06,0,.24,0,.37a1.09,1.09,0,0,0,1-.07c.13-.55-.28-.57-.3-1,.14,0,.45.11.38-.15s-.74-.22-.9-.08m-80.13-.07c.23.38.63.57.75,1.06.44,0,.6.24,1,.29.28-1-.87-1.7-1.72-1.35m76.82-.3a29.26,29.26,0,0,0-2.18,3.08c2.38-.2,4.27-.89,4.89-2.85a23.41,23.41,0,0,1-2.71-.23m-1-.22c-.71.94-1.68,1.62-2.41,2.55h.83a9.29,9.29,0,0,0,2-2.55ZM50.31,97c-.46-.07-.85.38-.67,1.05.1.41.88.77,1,1.06.48-.53.34-2-.3-2.11m41.3-1.57c-1.17.77-1.73,2.17-2.85,3,2.21,0,4.71-.3,5-2.4-.53-.39-1.59-.26-2.18-.6m-1.12-.08c-.65.87-1.88,1.18-2.48,2.11,1.64,0,2.07-1.24,2.86-2.11Zm-39.35-.22a2.79,2.79,0,0,0-.23,1.2A1.37,1.37,0,0,1,52,97.67c.77-.64.63-2.82-.83-2.55m16.67-.68c0,.1-.1.1-.08.23.26,2.29-.55,8.22.61,8.93s2.55-1.37.82-1.42c-.38.06-.14.52-.37.6-1.5-.58.06-3,1.19-1.65-.58-.88-.39-2.4.53-2.78a2,2,0,0,1,.68,2.62,1.08,1.08,0,1,1,1.28,1.73.72.72,0,0,0-1.35-.07c-.25.93,1.21,1.38,2,.83.79-2.17,0-5.56.15-8.64a24.81,24.81,0,0,1-5.48-.38m-17,.15c.53-.31,1.13.09,1.42.15.24-1.29-2.51-1.53-1.42-.15M99,91.21a2.05,2.05,0,0,0,2,3.38c.92-.18,2.57-1.92,1.21-2.85-.48.2-.08.74-.15,1.05-.4,1.78-3.74,1.09-2.55-1.05.31-.36,1.13-.22,1.35-.68-.61-.7-1.52-.13-1.81.15m-33.56-.75c0,.51.71.42.67-.07-.18-.16-.48,0-.67.07m-1-.75c-1.23,1.27-.92,4.84,1.42,4.06-.49-.4-1.14-.34-1.42-.83-.57-1,.38-2.17.22-3.15-.1,0-.1-.1-.22-.08m2,.45c.65.67,1.48-.74.53-.82,0,.45-.34.56-.53.82m36.05-1.42a10.37,10.37,0,0,0-1.28,2.85c.29.23.6-.16.75-.38a11,11,0,0,0,.9-2.47Zm-36.57.89a.64.64,0,0,0,.22-.67c-.29-.33-1-.2-1.65-.22a1.34,1.34,0,0,0,1.43.89m1.27-.89c.05-.28-.08-.37-.15-.53-1-.15-.42,1.11.15.53m.6-1.59c-.25-.17-.44.36-.6.53.09.5.49.75.15,1.28.65.34.37,1.55-.22,1.73-.6-.13-.77.2-1.13.52s-.44.16-.45.53c0,.62,1.37.92,2.4,1.13s2.34.44,3.08.52a27.46,27.46,0,0,0,6.54.07,13.72,13.72,0,0,0,4.35-1.95,24.43,24.43,0,0,0,3.68-2.63,46.31,46.31,0,0,1-17.8-1.73m35.38.31c.44.11.54-.42.37-.68-.36,0-.52.44-.37.68m.22,1.58c1-.17,1.66-2.18.9-2.86a21.24,21.24,0,0,0-.9,2.86m-38.3-1c1,.23,1-1.28,1.58-1.73-.86-.32-1.23,1-1.58,1.73m7.36-1.13c.48.07.92.19,1.43.22A4.27,4.27,0,0,0,74.34,86c-.72.23-1.61.29-2,.9m29.81-.6c-.21.37-.67,2.26-.14,2.41.34-.94.64-1.91,1-2.86a1,1,0,0,0-.83.45M37.77,90.46c.6-.49,1.87-.88,2-1.5a3.57,3.57,0,0,0-.53-2,5.52,5.52,0,0,0-1.65-1.88h-.15a3.41,3.41,0,0,0-.9,1.06,15.83,15.83,0,0,0-2,3.45,19.41,19.41,0,0,0-1.73,5.93c-.06.52-.24,1.07-.23,1.43,0,1.48,1.52,2.39,2.63,3.23a36.68,36.68,0,0,0,9.46,5.4c4.32,1.53,11.38,1.55,16,.3,1.56-.41,3.88-.93,4.28-2.1a12.27,12.27,0,0,0,.15-3.08,8.52,8.52,0,0,0-.3-3.08c-.6-.89-2.68-.2-3.38-1.12A2.22,2.22,0,0,1,63,95.79c.06.39-.54.12-.46.53,1.05.6,2.56.25,3,1.42.36,1-.09,2.37.3,3.53.32.1.37,0,.75,0a54.71,54.71,0,0,0-.23-6.3c-2.11-.14-4.6,0-5.48,1.35a7.81,7.81,0,0,0,.3,2.25,1.65,1.65,0,0,0,1.5-.3c.17-.63-.85-.42-.67-.82.82-.12,2.34-.14,2.33.59,0,.44-1.58,1-2.26,1.21-5.3,1.62-11.31,1.77-16.22-.08a25,25,0,0,1-3.82-1.65c-2.22-1.27-5.38-3.69-6.46-5.93a3.78,3.78,0,0,1,.82-4.36c-.7,1.19-.67,3.48.45,4.2.42-.27.49-.63.9-1m71.19-.3c-.37-.84-.81-2.1-1.27-3.15s-1.33-3.05-2.48-2.56a4.34,4.34,0,0,0-.15,2.18c0,.79-.51,1.44-.38,2.18,1.35.64,1.57-2.53,1.28-3.68.84.32.92,2.07.67,2.85-1.49,4.64-5.44,8.13-10.21,10a24.47,24.47,0,0,1-5.1,1.65A31.77,31.77,0,0,1,79,98.87c-.93-.22-2.11-.39-2.48-1.2.34-.51,1.48-.22,2.25-.3,0,.33-.42.18-.3.6.54,0,1,.53,1.58.3s.09-1.41.3-2C79.49,94.85,76.92,95,74.79,95a25.37,25.37,0,0,0,.08,6c.31.09.37,0,.67-.08.25-1.31-.3-2.6.08-3.67s1.78-.81,2.93-1.21c-.37-.39-1-.11-1.35-.45,1-.16,2.25,0,2.48.83-1.07,1.17-3.4-.41-3.69,1.42-.21,1.43.24,3.66.31,5.26.91-.52.89-2.33.82-3.61-.17-.27-.61-.29-.6-.74a6.56,6.56,0,0,1,2,.6,8.78,8.78,0,0,0,1,2.78c.52-.74.94-1.57,1.5-2.25.64,0,1.38,0,1.66.36-.19.18-.57.14-.68.38-.15,1.34-.56,3.68.45,4.36a5.27,5.27,0,0,1-2.48-.45c.14-.16.6,0,.68-.23.13-1,.06-2,.14-2.92-.79.65-1.06,1.83-1.87,2.47a15.92,15.92,0,0,1-1-3.15,6.54,6.54,0,0,0-.52,2.85c.1.3.57.23.6.6-.59-.06-.89-.4-1.51-.45.24.93,1.17,1.12,2,1.35a35.81,35.81,0,0,0,10.59.91,25.28,25.28,0,0,0,9.54-2.26,34.76,34.76,0,0,0,4.73-2.32,21.71,21.71,0,0,0,3.76-3.31c1.11-1.17,2.91-3.07,3-5-.62.22-.61,1.09-1.2,1.35-.07-1.5-1.3-2.39-2.48-3-.45.39.13.74,0,1.13-.33,0-.54-.53-.83-.38-.22.42.14.9.38,1.13A14.74,14.74,0,0,0,108,95c.37.1.51-.27.75-.08a5.39,5.39,0,0,1-1.8,2.1c0-.33.21-.44.15-.82-.8-1-1.53-2.3-3.08-2.25a19.51,19.51,0,0,1,1.72-2.41c.59-.84.92-1.81,1.5-2.7.3.26.76.34.83.82-2.24.5,1.11,2.66,1.73,2.86a4.86,4.86,0,0,0-.83-2.33M59.33,92.72a11.19,11.19,0,0,1-1.81-1.21c-2.31-1.85-4.27-3.47-6.61-5.25a10.35,10.35,0,0,0-4.43-2.18c-.95.87-.56,3.09-1.35,4.13v1.28A20.65,20.65,0,0,0,48,91.21a18,18,0,0,1,2.47,2.1,1.84,1.84,0,0,1,2.26,1.89,12,12,0,0,0,6.45,2c-.25-.4-.75-.27-1.13-.45a10.13,10.13,0,0,1-1.79-1.35,32.15,32.15,0,0,1-3.91-4.36,17,17,0,0,0,5,2.48,7.39,7.39,0,0,0,5.11.38,8.77,8.77,0,0,1-3.15-1.2M90,93.31c1-.85,1.8-1.8,2.85-2.78,1.34-1.23,4.14-2.76,3-5.78-.24-.63-1-1.74-1.35-1.8a3,3,0,0,0-1.36.53c-2.19,1.36-4,3.48-5.86,5.4a18.08,18.08,0,0,1-6.61,4.74c3.06.29,5.31-.86,7.29-1.88-1.31,1.43-2.58,3.67-4.28,4.66-.42.23-1,.18-1.28.67A19.54,19.54,0,0,0,90,93.31m10.14-10.73c-.57,1.48,1,2.12,1.2,2.85s-.45,1.4-.23,1.95c.65-.37.43-1.16.83-1.73.2-.28.61-.39.82-.67.61-.79.35-1.69.31-2.78-1,.08-2.46-.25-2.93.38m4.95-.53a1.29,1.29,0,0,0,.38-.83c-.11,0-.13-.12-.23-.15-.21.13-.48.79-.15,1m.15,1.5a2.09,2.09,0,0,0,.9-2.7,9.32,9.32,0,0,0-.9,2.7m-.67-3.22a4.63,4.63,0,0,0-.91,2.7c.08.18.42.09.53.22-.09.91-1.16,2.19-.53,2.86a5.71,5.71,0,0,0,1.06-2.94c-.07-.16-.48,0-.53-.14.27-.89.53-1.78.83-2.63-.09-.09-.27-.08-.45-.07m1.12.07c.51,0,.68-.71.83-1.13a2.61,2.61,0,0,0,.23-1.57c-.1,0-.11-.1-.23-.08a4.39,4.39,0,0,0-.83,2.78M86.36,77.32c-.75.09-1.2,1.33-1.8,1.72a10.46,10.46,0,0,0,3.83-.67c-.68-.28-1.33-1.14-2-1.05m-44.23.83a11.21,11.21,0,0,1,1.8,6.38,13.23,13.23,0,0,0-2.78-6.91c-.5.3-.54-.31-1-.3-.25.16-.13.67-.16,1.05-.28.07-.35-.25-.52-.07,0,.45.36.59.3,1.12a2.4,2.4,0,0,0-.45.45,3.86,3.86,0,0,0-.15,2A17.85,17.85,0,0,0,40.93,85a10,10,0,0,1,1.2,3.61,24.38,24.38,0,0,0,.07,3.3c.43,1.7,2.21,2.51,2.93,3.45A16.56,16.56,0,0,1,41.82,93,2.39,2.39,0,0,1,41.15,92c-.09-.8.46-1.8.53-2.62a6.34,6.34,0,0,0-1.06-4.21A8.13,8.13,0,0,0,38.82,83c-.66,1,.45,2,1,3.08s1.34,2,1.28,3.23c-.11,2.3-2,4.62.74,5.63.07-.13,0-.37.16-.45.22.55.46,1.09,1.05,1.28,0-.16-.09-.5.07-.52.47.56.8,1.25,1.51,1.57.13-.27-.17-.65-.15-1a4.28,4.28,0,0,0,2.32,2c.15-.08-.15-.6.08-.75.68.39.94,1.72,2,1.43.66-.2.58-1.36.38-1.81.26-.05.56.23.75,0-.44-.61-2.08,0-2.56-.6,1.19,0,2.29-.18,3,.38.29-.31.1-.63.22-1-.63-.77-1.76.25-2.55,0a16.78,16.78,0,0,1,2.1-.75c.05-.52-.37-.58-.67-.75-.75.19-.81.86-1.5,1-.91.14-1.42-.46-1.88-.75a4.41,4.41,0,0,1-2.48-3.53c-.1-1.83,1-3.2,1.36-5,.73-4.29-.49-8-3.09-9.39-.18.1.05.6-.15.68-.4-.1-.35-.65-.67-.83-.38,1.22.57,1.51,1.05,2.26m65-1.05c.69,0,.56-.9.82-1.36-.15,0-.1-.2-.3-.15-.21.43-.65,1-.52,1.51m.44.75c1-.33,1.44-1.59,1.43-2.71-.1,0-.1-.1-.22-.07a17.9,17.9,0,0,0-1.21,2.78m-1.42-.46a5.53,5.53,0,0,0,1.2-2.85,2.5,2.5,0,0,0-1.2,2.85m-22-2.62c-.13,1,0,2.3-.15,3.3a3.48,3.48,0,0,0,2-4.2,5.38,5.38,0,0,0-1.88.9m12.32-1.36a6.52,6.52,0,0,0-2.1,4.06,8.58,8.58,0,0,0,.3,2.86c.59,1.72,2.54,3.42,2.63,5.4a7.68,7.68,0,0,1-1.13,3.83c-1.21,2.13-2.91,3.34-4.36,5a2.39,2.39,0,0,0,1.88.83c.31-.45.31-1.19,1-1.28a8.42,8.42,0,0,1-.07,2.26c1.16-.36.8-2.25,1.42-3.16.21.85-.4,2.22-.3,2.7,1-.51.92-2.13,1.35-3.22.22.37-.17.89.15,1.12a12.36,12.36,0,0,1,2-5.56c.53-.77,1.27-1.49,1.2-2.33a7.84,7.84,0,0,0-.82-1.72,6.8,6.8,0,0,1-.68-2c-.13-2.24,2.18-.71,3.3-1.58a.35.35,0,0,1-.14-.37,6.89,6.89,0,0,0-3.46.22c-.75,1.2,0,3.28.67,4.5.27.5.61.67.6,1.13,0,1-1.38,1.82-1.8,2.48a7.25,7.25,0,0,0,.83-2.1c.18-1.66-.87-3.66-.9-5.18a2.29,2.29,0,0,1,.67-1.73c.67-.45,2.1,0,2.86-.45,0-2.7-.68-4.78-2.33-5.86.09-.44-.16-.54-.3-.75a4.06,4.06,0,0,0-2.48.82m12.69-1.65c-.27.92-1.13,1.92-.9,2.86.64.1.68-.9.9-1.43s.67-.84.3-1.43Zm-38.6-1.05c.1,4.15,0,8.19.15,12.16,0,.56.08,1.11.08,1.66s.24,1.17-.3,1.5c-.53-.29-.3-1-.3-1.5,0-4.52-.08-9.18-.3-13.74-2.52,0-6-.21-8.49,0a2.16,2.16,0,0,0-1.28.44c-.17-.42-1.19-.3-1.57-.29a6.56,6.56,0,0,1-.08,2.47c-.44-.11-.48-1-1.05-.75.09,2.54.05,4.94.9,6.91,1.59,3.66,5.93,5.33,10.29,6.24a14,14,0,0,0,2,.45,7.29,7.29,0,0,0,1-.38c1.23-.35,2.43-.72,3.46-1a17.29,17.29,0,0,0,4.2-1.73,8.57,8.57,0,0,0,3.83-8.26,12.25,12.25,0,0,1-.29-1.73,6,6,0,0,0,.07-2.55c-3.61-.09-8.11,0-12.32.15m-14,.15a7.93,7.93,0,0,0,1.57,1.43c.17-1.09-.91-2.36-1.57-1.43m-.23,1c.26-.39-.26-.57-.15-1s.57-.28.53-.75c-2.08-1-1.81,1.7-.38,1.8m-10.21-.9c-.27-.23-.15-.85-.45-1.06a19.4,19.4,0,0,1-.3,2.78c-.51-.21-.44-1-1-1.12-.26.87.42,1.81.22,2.62-.49-.3-.72-.88-1.27-1.12-.24.52,0,1.47-.23,1.8-.57-.06-.5-.75-1-.9.16,1.52,1.53,2,2.25,2.78,1.27,1.47,1.85,3.54,2,6.15,3.29,1,5.48,3,8,4.81-4.41-4.22-7.52-9.75-7.66-18.24,0-.09-.08-.12-.15-.16-.37.31,0,1.31-.37,1.66m2.1-1.81c0,.1-.09.11-.07.23A11.86,11.86,0,0,0,48,72.22a22.8,22.8,0,0,0,4.88,12.31,22.14,22.14,0,0,0,10.21,7c.12-1.24,1.18-2.37.53-3.3,1.25,0,1.4-1.15,1.8-2-5.67-2.22-9.83-5.94-11-12.39-.12-.66,0-1.45-.22-2.25,0-.23,0-.59-.45-.6a6.71,6.71,0,0,1-.08,1.65c-.26.09-1.13.2-1.27-.08.22-.3.74-.3.9-.67.09-.82-.28-1.16-.75-1.13-1,.07-1.24,2.46-2.93,1.88a2.19,2.19,0,0,1-.83-2.48A1.87,1.87,0,0,1,50.09,70c-.9,0-1.22,1.41-.53,1.64,1.06.37,1.49-1.39,2-1.87a9.35,9.35,0,0,0-3.38-.68m60.45,2.71a18,18,0,0,0,.53-2.93,2.17,2.17,0,0,0-.53,2.93m1.8-3a21.54,21.54,0,0,0-.75,3.23c1-.34,1.24-2.11,1-3.23ZM58,69c.6.4,1.57.43,1.88,1.12C60.27,69,58.29,67,58,69m-.07.52a1.19,1.19,0,0,1,.3-1.58c-1.68-1.55-2,2.65-.3,1.58M41.75,68.23c.61.16.61-1,0-.82Zm-1.42-1a4.57,4.57,0,0,1-.15,1.35c.83,0,1.27-1.85.15-1.35m-1.21,1.2c.84.06,1.52-1.75.23-1.65a3.44,3.44,0,0,1-.23,1.65M110,69c.12-.9,0-2.24-.75-2.48-.06.85.06,2.13.75,2.48M54.59,67.18c-.05.3.08.43.08.68-.47,0-.66.39-.83.75a22.43,22.43,0,0,0,2.63.75c.11-.28-.19-.81,0-1.2-.33-.2-1,0-1.2-.37.76,0,1.43,0,1.73-.46a5.19,5.19,0,0,1-.23-.82,7.05,7.05,0,0,0-2.18.67m-17.42.68A1.79,1.79,0,0,0,39,66.51a1.21,1.21,0,0,0-.83-.46,3.06,3.06,0,0,1-1,1.81m21.25-1c.6.07,1.19.16,1.43.6.8-1.24-2-2.48-1.43-.6M57,66.2a.92.92,0,0,0,1.27,1.06A2.28,2.28,0,0,1,58,65.68a1.51,1.51,0,0,0-1,.52M35.9,67.33c.89-.24,1.79-.85,1.65-1.87-1,.18-1.33,1-1.65,1.87M55.42,66c-.33.19-1.12.2-.9.75.91,0,2.16-.4,2-1.43-.47-.06-.75.46-1.13.68m53.69-.37c.25-.18,0-.49-.07-.76h-.23c0,.39.06.64.3.76m-74,.9c.77-.39,1.14-1.17,1.81-1.66a1.44,1.44,0,0,0-1.81,1.66m73.82.22a18.14,18.14,0,0,0-.75-2.33H108c-.15,1,.15,2.09,1,2.33m-58.27-2.4c-.06,0-.09.06-.08.15a6.79,6.79,0,0,0,3.53,1,3.27,3.27,0,0,0-3.45-1.2m59.32,2c.64-.7,0-2.17-.82-2.4a6.29,6.29,0,0,0,.82,2.4m-2.4-1.64c0-.36.06-.82-.22-.91a3,3,0,0,0,.22.91m-14.2,8.18a20,20,0,0,1-3.07,9.53c-.66,1.09-2.43,2.52-2,3.76,1.12-.51,1.57-1.48,2.55-2.32a12.54,12.54,0,0,1,1.35-1.13c.5-.36,1.34-.65,1.43-1.06s-.39-1.24-.45-1.8a10.76,10.76,0,0,1,1.12-6,10.13,10.13,0,0,1,3.23-2.41c-.82-1.19-1.67-2.34-2.55-3.67s-1.6-3.11-2.63-4.06a33.85,33.85,0,0,1,1,9.16m-58.34-8a2.72,2.72,0,0,0,1.58-1.27c-.92-.27-1.46.49-1.58,1.27m55.34-1.42c.06.71.56,1.39.38,2.1-.29,0-.09-.41-.45-.3a1.33,1.33,0,0,0-.9.9,1.79,1.79,0,0,0,1.27.52c.29,0,.1-.55.45-.52a5.36,5.36,0,0,1,.23,2.1c-1-1-2.89-2-4.51-1-.17,1.11.53,2,.91,2.78a7.11,7.11,0,0,0,3.37-.31c.2-.2.06-.74.38-.82.49,1.56.65,4.68-1.43,4.2a1.33,1.33,0,0,1-.75-1.8.9.9,0,0,0,1.8-.15,10.39,10.39,0,0,0-3,0c-.36.46-.36,1.29-.6,1.88-.26,0-.18-.27-.45-.23.42,1.51,3.12,1,4.58,1.2a16.39,16.39,0,0,1-.6,2.63,1.53,1.53,0,0,1-1-.3,1,1,0,0,0,.83-1.12,5.3,5.3,0,0,0-1.73-.3,1.06,1.06,0,0,0,.3,1.35,4,4,0,0,1-1.81-.38c.15-.1.43-.07.61-.15a1.68,1.68,0,0,0,.15-1A4.91,4.91,0,0,0,87,74.62c-.3.47.05.94.15,1.42-.31,0-.54.06-.6.3.84.32,2.25,2,3.45,1.65.4-.1.29-.58.83-.6a4.62,4.62,0,0,1-.9,2,10.89,10.89,0,0,0-3.38.68c.49.27,1.12,1,1.8.9.42,0,.48-.46.9-.38-.38.82-.82,2-1.58,2.18,0-.32.24-.42.16-.82a12.83,12.83,0,0,0-4-2.56,15.62,15.62,0,0,1-4.8,5c-1.2.87-3.32,1.32-3.16,3.16a33,33,0,0,0,6.61.52c.11-.42-.43-.47-.22-.75.6.05,1-.12,1.13-.52a1.91,1.91,0,0,0-.91-.91c-.61.18-.41.77-.75,1.13a3.6,3.6,0,0,1-1.12-1.27c1.5.56,1.6-1.56.22-1.28-.68.14-.67,1.29-.75,1.73A2.7,2.7,0,0,1,79.3,85c.32-.52,1-.78,1.42-1.2s.81-1.11,1.43-1.12c0,.32-.17.47-.14.82.92.91,1.71,2.63,3.3,2.4-.45,1-1.55,1.31-2.11,2.18,1.11,0,1.94-1,2.7-1.73a25.62,25.62,0,0,0,5.34-8.18c1.67-4.26,1.39-10.43-.23-14.72-.17-.06-.45-.15-.6,0m-3.9,2.48c1.95-.07,2.82-1.23,3.6-2.48-1.74-.3-4.07.33-3.6,2.48m22-1.73a1.82,1.82,0,0,0-1.13-1.73c.25.7.48,1.42,1.13,1.73M35.29,62.75c.06.17.4.06.31.38-.38-.12-.45.09-.68,0a3.77,3.77,0,0,0-.31.67c.86-.1,1.15-.76,1.66-1.2-.17-.62-.81-.25-1,.15m9.84-1.13a.55.55,0,0,0,.45.31c.17-.23.62-.83.3-1-.19.3-.6.4-.75.74M35,62.23c.51,0,.59-.47,1-.61.06-1.61-1.19.09-1,.61m-.22-1.13a1.51,1.51,0,0,0,.9-1.5c-.73-.26-1.1.84-.9,1.5m-.53-1.43c.66-.24,1.29-.78.9-1.65-.61.24-.78.91-.9,1.65M70.89,57.2c-.18,3.79.28,8.15.23,11.86,3.62.14,7.77,0,11.11-.15-.06-3.83,0-8.23-.38-11.71-3.52-.2-7.18.15-11,0M34.24,58.77c.26-.7,1.1-1.2,1-2-.65.26-1.36,1.48-1,2m56.32-.52c.62-.33,0-1.14-.15-1.58-1,0-.14,1.32.15,1.58M56.92,56.59c-.06,2.91.07,5.93.23,8.94.79,0,.54-.82.89-1,.48.1,1.51.5,1.89,0-.91-.38-1.23-1.33-2.26-1.58.12-.43-.1-.42-.07-.9a3,3,0,0,1,.9-.15,2.76,2.76,0,0,0,1.57,1.73,2.66,2.66,0,0,0,0-1.58c.61-.24,1.28-.45,1.73.08a3.13,3.13,0,0,0-.07.9c1.2.79,3.18,0,5-.08.84,0,1.53.16,1.65-.52-1.13-.68-2.53.44-4,.6a5.24,5.24,0,0,1-1.65-.15c-1-1.86,2.82-1.1,3.68-1.58-.28.67-1.19.71-1.88,1-.33-.12-1.31-.36-1.5.07,1,1.12,4-1.1,5.41-.52s-.47,1.57-1.21,1.65c.41.48,1,.15,1.73.15.31.42,0,1.12.08,1.8-.33,0-.5.25-.83.3-.16-.29-.6-.3-.75-.6.22-.32,1.16-.28,1-.75-.92,0-2.09-.21-2.78-.23.08.42.79.22.82.68-.33.89-1.92.53-2.77.9-.14-.27-.61-.2-.68-.52a.53.53,0,0,1,.53-.61c.32.21,1.41,1,1.72.23-.41-.17-1.14,0-1.2-.53,0-.29.48-.16.52-.45-.8.25-1.76.34-2.62.53-.21,1-1.67.78-2.63,1,.13.4.46.58.67.9.28,0,.31-.3.68-.23a5.09,5.09,0,0,0,.83.53c.14.18,0,.6.07.9,1.59.49,3.43-.1,5.11-.22.53,0,1.19.17,1.58-.23-.2-.74-1.11-.31-1.73-.15-1,.26-3.69,1-4.13.08-.63-1.34,2.66-1.11,3.45-.91-.59,1.09-2.13.08-2.92.53,0,.56.66.45,1,.45,1.74,0,3.32-1.23,4.66-.6.52.91-.65,1.13-1.13,1.5.59.09.85-.15,1.28-.22.64.36.18,1.06.52,1.65-.26.47-1.22.67-1.28-.15,0-.33.76-.25.46-.68-.61-.25-1.66.54-2.56.08-.06.51.68.22.68.67-.82.44-2.33,1-3.31.6.06-.26,0-.69.38-.75s.78.52,1.35.23c0-.42-.71-.14-.67-.6.06-.24.43-.17.45-.45A26.16,26.16,0,0,1,62.1,69c0,.92-1.36.53-1.58,1.27a1.13,1.13,0,0,0,.68.22c2.54.17,6.12-.27,8.56-.15.09-4.74-.05-9.44-.3-14.11-4,.05-8.26.25-12.54.37m-1.28,0c.11.2.18.43.46.46.14-.21,0-.66.07-1-.35,0-.41.3-.53.52m28.09.3a2.24,2.24,0,0,0,.45-.9h-.6c-.06.22-.11.78.15.9M70,56.22c0,4.55.23,9.88.38,14,3,.12,6.57-.05,9.84-.15a6,6,0,0,0,2.63-.23c0-.3-.32-.23-.38-.44-1.44.13-5-.56-6.08.37-.89-.67-3.37-.41-4.36,0-.52-.29-.74.07-1.35.07-.06-1.85.51-4.57-.3-6.45.73-1.73-.1-5.23,0-6.84a23.61,23.61,0,0,0,5.41.3c.35,0,.33-.42.67-.45.82.79,3,.19,4.44.38.33,0,.41-.33.75-.38.34.18.68.06,1,.15-.19,2-.49,4.65.15,6.39-.45.6-.21,1.63-.15,2.7.06,1.51-.15,2.62.52,3.23,0-4,0-8.63-.22-12.77-3.86-.33-8.55,0-12.93.08m-8.18-.45c.28,0,.67.06.83-.08,0-.36-.78-.2-.83.08m-23,1.88c-1.26-.13-1.38-1.38-2.17-2,0,.93.36,2.42-.75,2.4a2.92,2.92,0,0,0-.3-1.57c-.4,3.15,1.54,5.26,2.17,7.88,4.87,2.9,12.36,3.17,17.12,6.16-.09-.48.35-.65.6-1-1.05-.77-2.91-.74-4.13-1.35,1.06.18,2.86.24,2.86-1,0-1-1.66-1.16-2.56-1.43a28.59,28.59,0,0,1-5.4-2.17c-1.15-.63-2.2-1.87-3.16-2.11-.65-.16-1.85.23-2.17.15.72-1,2.54-1,3.68-.38a1,1,0,0,0,.44-.9c-.2-.15-1,.35-1.19-.07.65-.68,0-1.31-.08-2.1-.05-.41.16-.68-.08-1-.37.73-.25,2.34-1.2,2.25.66-1-.45-1.79-.3-3-1,.2-.64,1.58-.6,2.25-1.06-.44-1-2.06-1.2-3-.41.38-.31,1.27-.38,1.8-1-.45-1.16-1.64-1.64-2.55-.46.94.4,2,.44,2.63m5.41-2.34c.89,1.22.4,3.19.15,4.66a1.26,1.26,0,0,0,.67-.52c-.25-1.25.6-2.07.45-3.08-.1-.72-.64-1.12-.75-1.95-.09,0-.1-.1-.22-.08-.05.38-.23.62-.3,1m46.26,1.28c1-.16,1-1.4,1.27-2.33-.09,0-.1-.09-.22-.07a9.33,9.33,0,0,0-1.05,2.4M46.78,54.42c.19.82,1,1.38,1.06,2.47,0,.57-.43,1.11-.46,1.73,0,1,.56,2,.46,2.85-.06.44-.5.81-.38,1.21,1.21-.5,1.14-3,.6-4.06a4.26,4.26,0,0,0,.46-2.33,20.51,20.51,0,0,0-1.59-2.17c0,.14-.2.09-.15.3m42.58,1.87c.36-.2.37-.75.53-1.13s.53-.73.38-1.12c-.84.11-1.46,1.72-.91,2.25M78.1,55.62a1.8,1.8,0,0,0,2.17-1.5c0-.06-.06-.09-.14-.08-.54.63-1.83.88-2,1.58m-28.69,1c0,.42-.3.78-.3,1.2a4.2,4.2,0,0,0,.45,1.51c-.08.6-.86.87-.52,1.65.34,0,.2-.45.29-.68a2,2,0,0,0,.83-1.42c0-.49-.38-.93-.37-1.36,0-.68.43-1.12.3-1.72-.26-1.18-1.81-1.12-2.48-2.18,0,1.43,1.79,1.53,1.8,3m35.37-3.53c1.52,1.41,2.89,3,4.43,4.36.07-.42-.44-.55-.52-1.05s.27-1.09.22-1.73a26.49,26.49,0,0,0-4.13-1.58m-38.37,3c.26,1.24-.46,1.58-.53,2.4-.08,1.06,1.1,2.19.3,3.23,1.76-.55.24-2.35.45-3.53.09-.48.4-.65.45-1,.3-1.8-1.07-2.1-1.65-3.46-.08-.2,0-.61-.3-.75-.37,1.46,1,1.92,1.28,3.08m-5-1.88c0,1-1.09,2.31-.22,3.15,0-.89.88-1.51.91-2.47A2.56,2.56,0,0,0,41.15,53a9.41,9.41,0,0,1,.22,1.2m34.32,1.43a2.42,2.42,0,0,0,1.13-.08c-.06-1-.13-2-.23-2.93h-.22c-.21,1-1.15,1.86-.68,3m-49.48-.08c1,1.78.59,4.77.9,7.06-1.8-1.75,0-6.62-2.1-7.73.89,2.09-.13,5.09.9,6.68-2-1.63.16-7-2.4-8,1.25,1.65.22,5.58,1.12,7.37a3.72,3.72,0,0,1-.9-2.86c0-.89.41-2.46-.15-3.07-.32,2.24-1,4,0,5.7.78,1.32,2.64,1.49,3.53,3.08,1.18,2.11-.19,4.74-1.2,6-1.52,1.9-4.11,3.66-5,6.09-1.19,3.12.78,6.37,3.67,6.38,2.2,0,3.18-1.6,4.06-2.85.33-.47.8-1.27,1.58-1.13-.4,1.52-1.06,2.59-1.13,4.2a39.52,39.52,0,0,1-.23,5.79,13,13,0,0,1-2.4,5.18c-.31.44-1,.93-1.12,1.43-.26.77.11,1.89.07,2.63.5,0,.39-.91.83-.68a4.58,4.58,0,0,0,.22,2.93c.31,0,.11-.54.45-.53a3.84,3.84,0,0,0,.23,2.1c.45,0,.32-.68.67-.82-.18,1.21,0,3.1,1.2,3.15a10.36,10.36,0,0,1,0-2.55c.39,1,.28,3.23,2,2.63.08-.79-.47-.94-.53-1.58.91-.22,1.06.68,1.65.53-.1-1.12-1.5-.95-2-1.66a3.65,3.65,0,0,1,2.55,1.36c-.31.69.58,1.47,1,.74.1-1-.93-1-1-1.8h.75c0-1-1.47-.26-1.8-.52a4.32,4.32,0,0,1,1.58-.37c-.62-1.47-1.56.2-2.56-.23-.59-.26-.85-1.07-1-1.5a6.26,6.26,0,0,1-.68-2C28.4,93,31.33,91.1,33,89.34c.4-.43.93-.8,1.2-1.13A12.22,12.22,0,0,0,35,86.26c.28-.57.85-.89,1.13-1.36A10.09,10.09,0,0,0,37,82.58a13.56,13.56,0,0,0,.6-1.8c.36-2.36.22-5.59-1.65-6.16,1.44-.76,2.19,1,2.77,1.87,1.51-3.2,3.7-5.72,5.56-8.56a6.92,6.92,0,0,0-1.35-.22,1.51,1.51,0,0,1-1.73,1.12c0-.18.14-.16.07-.37-1.33,1.09-2.35,2.9-3.82,3.6.73-1.09,1.85-1.79,2.25-3.23-.62-.19-1.16.16-1.73-.07,0-.3.6-.3.3-.6a2.92,2.92,0,0,1-2,0c-.08-.22.47-.38.07-.45-.69.06-.8.71-1.28,1,.11,0,.07.18.08.31-1,1.72-1.72,4.13-2.78,5.55.86-2.32,2.06-4.3,2.63-6.91,0-.3-.52,0-.45-.3s.32-.68.3-1.2c-.14-.28-.35.4-.53.07.09-.63.33-1.12.45-1.72-.27,0-.25.35-.45.15-.11-.81.25-1.16.37-1.73-.13,0-.3.23-.37,0a3.94,3.94,0,0,1,.23-1c-.19,0-.37,0-.38-.15.38-1-.33-1.45-.07-2.56-.44.1-.44.7-.45,1.05,0,1,.12,2.08.14,3.08.13,3.94-1.11,7.23-1.95,10.52A17.29,17.29,0,0,0,29,77.17c-.69,1.08-1.15,2.34-1.95,2.93a4,4,0,0,1-3.38,1,3.59,3.59,0,0,1-2.1-3c-.18-3.67,3.27-5.4,5.11-8a7.78,7.78,0,0,0,1.58-4.73,16.82,16.82,0,0,1-.31-2.1c.14-1.67,1.64-2.84,1.36-5.11s-2.1-2.6-2.26-4.73c-.37.23-.36.62-.3,1.05.12.84,1.09,1.49,1.43,2.56a7.66,7.66,0,0,1-.45,5.25c-.52-1,0-2.25.07-3.23.12-3-1.88-4.46-3.3-6.46.2,1.39,1.13,1.93,1.73,2.93m82,12.25a33.25,33.25,0,0,0-1.35-3.08,18.62,18.62,0,0,1-1.13-4.89c-.09-1.21.3-2.58.08-3.83a3.82,3.82,0,0,0-1.43-1.73,13.35,13.35,0,0,0-4.58-1.42c-2.09-.4-4.15-.87-5.56,0a8.13,8.13,0,0,0-1.95,2.62,2.17,2.17,0,0,0,0,1.88c.26.26.52-.12.75-.14-.28-3.15,2.57-4.73,5.78-3.91-2.32-.18-4.85,1.32-4.73,3.3.08,1.27,2,0,2.56.83-.2.52-.88.5-1.28.6a85.11,85.11,0,0,0-8.56,2.7c-.5.19-1,.26-1.5.46a3.44,3.44,0,0,0-1.36,2c-.39,2.91.08,7.83-.15,10.74.88-.06,1.44-.43,1.51-1s-.9-1.4-.68-2.1a7,7,0,0,0,1.8,1.87c-.07-1.4-1.09-1.86-1.35-3.08A13.51,13.51,0,0,0,87.19,72c.13-1.69-1.26-1.85-1.58-3.08.5,0,.77,1.06,1,.9.09-.59-.5-.88-.75-1.43-.52-1.18-.26-2.72-.3-4.2.6-.45.81-1.4,1.51-1.66a6.06,6.06,0,0,1,1.65-.07,62,62,0,0,0,7.28-.6c2.85-.46,4.61-1.18,5.71-3A10,10,0,0,0,103,55.39a5.66,5.66,0,0,1-.82,3.76,8,8,0,0,1-2.1,2.63,9.27,9.27,0,0,1-2,.6,28.29,28.29,0,0,0-3.38.6c-.11.84.35,1.1.37,1.8a34.66,34.66,0,0,0,2.41,3.9,22,22,0,0,0,3,3.38,6.26,6.26,0,0,0,.9.68c1.57.75,2.51-.56,3.08-1.28a3,3,0,0,0,.9-2.47c-.08-2.66-1.63-4.11-1.87-6.39a16.1,16.1,0,0,1,.52-5.26,25.9,25.9,0,0,0,.08,4.44c.33,2.44,1.7,4.26,2,6.45.45,3.12-2.31,3.7-3.23,5.78s-.66,5.2,1,6.69a2.19,2.19,0,0,1,1.35-1.13c.09-.81.49-1.32.53-1.95,0-.34-.18-.67-.15-1.05a4.06,4.06,0,0,1,1-2.26c.22-.19.6-.19.83-.44a2.51,2.51,0,0,0,.3-2.78c-1.33,0-1.74,1-2.41,1.65a2.69,2.69,0,0,1,2.48-2.56c.24-.81.73-1.35.45-2.39m7.89-15.63c-.38.24-.68.34-.9.68-.7,1,0,2.22.15,3.53a8.81,8.81,0,0,1-.75,3.68c-.34.88-.77,1.63-1.06,2.4-.46-2.1,1-3.53,1.28-5.56a6.68,6.68,0,0,0,.07-1.2c0-.8-.52-1.57-.37-2.4.06-.32.51-.69.37-.83-1.7.16-.79,2-.82,3.46,0,1.86-1.15,3.72-1.13,5.18,0,.41.24.9.08,1.28-2.18-2.64,2.33-7.45-.6-8.87.89,1.38-.24,3.74-.76,5.11.16-1.24,1.69-4.69-.6-4.73.42.41.68.54.76,1.06.25,1.76-1.36,3.33-1.06,5.62a7.05,7.05,0,0,0,.3,1.28c.44,1.21,1.68,1.4,2.26,2.63.13.28.15.93.3,1.43a12.26,12.26,0,0,0,3,4.73c1.3,1.44,2.74,2.78,3,4.73a3.27,3.27,0,0,1-4.2,3.38,3.11,3.11,0,0,1-1.2-1c-1.22-1.72-1.87-4.17-3.76-5.34-.56.42-.65,1.3-.9,2a6.55,6.55,0,0,1,1.35,3.46c.36,2.55-1,5.3.08,7.05a5,5,0,0,0,3.23,2,4.15,4.15,0,0,1,.07,3.45c-.44-.94-.23-1.63-.67-2.41-.65-1.12-3-2.08-3.38-3s.22-2.41.22-3.61c0-1.93-.27-3.88-1.12-4.87-.4.9-.67,1.93-1.88,2,0,.5-.57,1.09-.6,1.8,0,.21.15.52.15.75,0,.86-.59,1.64-.53,2.1s1.92,2.06,2.33,2.4c1.52,1.29,3.33,2,3.91,3.91a8.83,8.83,0,0,1-.23,5c-.52,1.7-2,2.72-3,4a3.24,3.24,0,0,0,2.7.3c0-.66.22-2,.83-2-.08,1,.62,1.48.52,2.25,1-.42.19-1.86.38-2.78a18.13,18.13,0,0,1,1.28,2.78c.93-1.28.08-2.89-.45-4,.39,0,.24.51.67.45-.09-.91-.64-1.49-.75-2.47-.24-2.22,1.32-5.08-.38-6.54h-.82a4.78,4.78,0,0,1-2-2.47c-.42-2,.57-4.83.15-7.14-.22-1.25-.88-1.82-1-2.93a4.8,4.8,0,0,1,1.65,2c.75,1.33,1.21,2.86,2.55,3.45a4.72,4.72,0,0,0,4.28-.75c1.71-1.42,1.43-4.33.15-5.93s-3.43-3.48-4.43-5.33a5.46,5.46,0,0,1-.83-3.08c.32-2.54,3.32-3.35,3.53-5.86.09-1-.5-1.93-.37-2.93-.6.54-.21,1.92-.3,2.63-.25,1.89-1.66,3-2.56,4.21.59-2,2-3.57,1.81-5.79-.09-1-1-2.2-.46-3.45.14-.3.62-.49.68-.83h-.22Zm-55.88.45a2.46,2.46,0,0,0,1,3.23A4,4,0,0,1,63.3,55c.72-1.94-2-3.89-3.08-2.34M51,55.92c.08.64-.27.93-.15,1.5,1.09-.75.48-2.85-.23-3.53A4.51,4.51,0,0,1,48.14,52h-.23c-.13,2.25,2.83,2.12,3.08,3.91m3.15-2.33c-1.18,1-2.45,1.47-2.17,3.08.86-.71,1.61-1.54,2.4-2.33A24.78,24.78,0,0,0,56.85,52c-1.26-.54-1.77.82-2.71,1.58m36.5.53c1-.3,1.08-1.52,1.57-2.33-.95.05-1.34,1.3-1.57,2.33m-39.28-2c.33.24.42.7.83.83,0-1-.69-1.41-1.73-1.43.11.43.62.4.9.6m41.83-2c-.64-.5-2,0-1.72.91.58,0,.39-.55.9-.6s.79.52.75,1.2c.76-.22.45-1.21.07-1.51M49.41,52.84c.42,0,.6.31,1.05.29.16.3.61.37.9.61s.48.79.68.6c.05-1.61-1.51-1.92-2.33-2.63-.63-.55-.92-1.79-1.72-2,.39,1.13.59,2.46,1.42,3.16m24.11-3.08A26.13,26.13,0,0,0,59.1,52a26.39,26.39,0,0,0-6.61,6.38c-1.18,1.69-2.64,3.45-2.93,5.64.79-.05,1.08-.79,1.73-1,2.11-.6,3.35,1,3.68,2.48.82-.38,1-1.37,1.2-2.4-.5.06-.45,1-.9.9a6.75,6.75,0,0,1,.07-.75,7.57,7.57,0,0,0-3.52-1.88c-.32,0-.23.43-.61.38-.09-.51.41-.91.68-1.36s.39-1.1.9-1.27c.13.18-.11.57.08.82a7,7,0,0,0,3.3,2,10.18,10.18,0,0,0-.07-3,2.53,2.53,0,0,0-1.36-1.2c-.25,0-.67.57-.67,1s.44.46.22.76a2.1,2.1,0,0,1-1.2-1,24.52,24.52,0,0,1,3.38-3.6,13.12,13.12,0,0,0,1.13,1,8,8,0,0,0,1.73-.07c-1.17-1.72.29-3.89,2-4.13a2.71,2.71,0,0,1,3,3.52c.51.28,2.22,1,2.62.15-2,0-1.72-2.38-2.17-4-.19-.27-.59-.31-.83-.53a7.39,7.39,0,0,1,2.33-.37c-.84,1.4.1,5.26,2,3.53A7.63,7.63,0,0,0,68,50.66c-.16-.16-.61,0-.59-.37a6.27,6.27,0,0,1,2.25,0c-.07.1-.29.21-.38.45a8.52,8.52,0,0,0,.23,3.52c.19.37.56.32.67.61a7.6,7.6,0,0,1-1.65.15c-.26-.15,0-.42-.15-.6a2.25,2.25,0,0,0-1.13,1.2,51.85,51.85,0,0,1,6.91-.08c-.21-.16-.62-.12-.67-.45.36-.1.93.07,1.35-.3a7.1,7.1,0,0,0,1.28-3.3c-.12-.5-.71-.43-.83-.83a5.27,5.27,0,0,1,2.33.83c.16,1,.09,2.26.22,3.3A11.6,11.6,0,0,0,81,52.84c.58.43,1.34.67,1.74,1.28-.4,0-.51-.25-.91-.23a2.8,2.8,0,0,0-.83,1.5c1.6.47,3.83-.86,4.36.68-.69,1.3-2,2.69-1.5,4.65a11.77,11.77,0,0,0,2.7-1.8c.44-.7-.19-1.15-.07-1.72.87.43,1.07,2.24,2.25,1.87a22.34,22.34,0,0,0-15.24-9.31m36.57,2.93c.8-1.77-1.38-2.4-2-3.46-.29,1.85,2.21,1.49,2,3.46M42.58,49c0,.11-.17.09-.23.15-.13.39.29.61.08.82a.62.62,0,0,0-1.06-.22c0,.21.29.46.08.6-.24-.3-.69-.74-1.05-.3,0,2.25,2.65,3.22,2.7,5.25,0,.83-.82,2.22.08,2.94-.27-1.38.48-2.31.3-3.53-.25-1.65-1.46-2.81-1.95-4.21a10.51,10.51,0,0,1,2.17,4.28c.32-.45,0-1.5.16-1.95.22.1,0,.64.37.6A6.28,6.28,0,0,0,42.58,49m68.86,2.48c-.18-1.26-1-1.34-1.88-2.26-.39-.43-.6-1.06-1-1,.27,1.79,1.71,2.43,2.92,3.3m-71-2.63c.18.33.74.21,1.13.15.19-.23.42-.59.29-.9a2.74,2.74,0,0,0-1.42.75M59,50.51A54.64,54.64,0,0,1,68,49a40,40,0,0,1,11.79,1.05c.52.12,3,1.23,3.3.3.21-.71-1.12-1-1.72-1.2a42.54,42.54,0,0,0-12.92-1.28,74.23,74.23,0,0,0-7.66.68c-1.69.26-3.66.62-4.5,1.8.72.82,1.84.35,2.7.15M50.76,49a3.58,3.58,0,0,0-2.1-1.28A3.24,3.24,0,0,0,50.76,49m46.11-1.2a2.13,2.13,0,0,1-.15.75c-.65-.6-1.74.54-.9,1,.14-.14.1-.45.45-.38,1.71,1.43-2,2.2-2,.52.57,0,.59.46,1.12.45-.22-.62-.15-1.54-.59-1.94-.25.25-.26.75-.68.82-.24,0,0-.59-.38-.53-1,.75.77,2,.15,3a31.31,31.31,0,0,1,12.62,2.85.67.67,0,0,0,.15-.6c1-.32,1.2-1.45,1.88-2.1a2,2,0,0,0-1.13-1c0,.36.27,1-.07,1.2-.35,0-.06-.64-.38-.68a7.2,7.2,0,0,0-.9,1.43c.25,0,.73-.36.9,0a1,1,0,0,1-.83.75c-1,.1-2-1.66-.52-1.88.1.1.07.33.07.53.64.05.86-.82.53-1.28-.21-.18-.65.05-.75-.07a2.75,2.75,0,0,0,.07-1.51c-.66,0-.85.55-1.2.9a.82.82,0,0,0-.6-.14.93.93,0,0,0-.45,1.12c.23.22.15-.29.53-.15,1.35,1.94-3.4,1.48-2.41-.68.78-.1.68.68,1,1a12,12,0,0,0,.38-2.25c-.31.22-.95,1-1.35.37,0-.7,1-.4,1.27-.82-.78-.22-2.24-.86-2.93-.45.43.18,1.1.73.76,1.2-.49-.09-.68-.47-1-.75a6,6,0,0,0-.45,2c.32-.25.83-.9,1.35-.46,0,1.81-4,1-2.7-.44.45-.14.33.32.6.37.82-.41,0-1.42-.68-1.13.31-1-.24-1.7-.9-1M48.66,49.38c.37.44.56,1.13,1.05,1.36a4.12,4.12,0,0,0,1.43.22c-.7-.62-1.91-.74-1.88-2.1-.92-.39-1.31-1.29-2.48-1.43.13.8,1.26,1.22,1.88,2M112,50.59c.15-1.08-.74-1.44-1.35-2s-1.16-1.66-2-2c.12,2,2.25,2.64,3.3,4M40.1,45.78c0,.53.3.85.37,1.35-.55-.16-.56-.88-1-1.12-1.69.4.25,1.74.67,2.32a1.56,1.56,0,0,0,1.5-.6c-.14-.94-.43-3.12-1.5-1.95m-2.93-.22a2.46,2.46,0,0,0,1,.82c.14-.7-.66-1.06-1-.82m71.72.15c.35.41.82.72,1.2,1.12.58,1.35,2.12,1.73,3.07,2.71.08-1.1-1.08-1.41-1.79-2s-1.12-2-2.41-2.17a.54.54,0,0,1-.07.38m-17.5,1c-.15-.16-.14-.46-.52-.38-.13.25.09.53-.08.83,1.22.53,1.62-.69,2.1-1.35.26-.36.67-.57.52-.83a12.39,12.39,0,0,0-2,1.73M50,46.91c-.59-1.19-2.2-1.35-3.08-2.26A3.72,3.72,0,0,0,50,46.91M41.3,45.4c.33-.07.31-.49.3-.9-.54,0-.48.58-.3.9m70.81.61c-1.12-.8-1.39-2.25-2.85-2.26-.16,0,0,.27-.07.38a11.92,11.92,0,0,0,1,.6c.71,1.76,2.72,2.23,4.28,3.15-.1-1.4-1.65-1.35-2.41-1.87m-2.7-3.08c2,.35,2.63,2.72,5.11,2.1.19,0,.23.22.45.22-.29-1-1.29-.7-2-1-.42-.16-.71-.62-1.12-.91a11,11,0,0,0-2.56-1c-.09.31.16.29.15.53M76.3,42.32c-.07.87,1.94,1.14,2.25.46-.26-.6-1.59-.75-2.25-.46m-12.92.23c-.08-.76-2-.25-2.4.15-.06.23.07.28.07.45.58.25,2.39,0,2.33-.6m49.64.38c-1.19-.72-2-2.18-3.83-2-.06,0-.09.06-.08.15.48.65,1.66.84,2.41,1.43.25.19.4.57.67.67a2.59,2.59,0,0,0,1.88-.22c-.27-.18-.63.09-1,0m.45-2c-.7-.11-1.12-.71-1.81-1.06a4.53,4.53,0,0,0-3.14-.37c.55.81,2,.63,2.92,1.13.6.32.91.78,1.58.75s.93-.49,1.5-.23c-.19-.56-.68-.16-1-.22M98.6,39c-.13-.19-.5-.14-.83-.14-.3.57.89,1,.83.14M109.41,38c-.49,0-1.29-.08-1.5.45.52.46,1.32.15,2,.22a8,8,0,0,1,2.41.91c.41-.16,1.14,0,1.35-.38C112.14,39,111,38,109.41,38m-.6-1.35c-.49,0-1.43,0-1.72.6.53.39,1,0,1.57,0,1.32,0,2.44.8,3.53.52-1.14-.25-2.08-1.08-3.38-1.12M51.66,38c.36,1.35,2.52.45,2.26-.75-.08-.34-.36-.46-.68-.83-1.1-.12-1.83.61-1.58,1.58m35.07,0c1.16,0,1.48-2.3-.22-1.88A1,1,0,0,0,86.73,38m-20.5-1.88c0,.1-.09.11-.07.23,1.47.42,2.71,1.09,2.63,3.08-1.17,0-1.9-.17-2.33-.83-.2-.31-.1-.83-.6-.9,0,.9.07,2.15.07,3.3,0,.62-.18,1.37.23,1.73a2.4,2.4,0,0,1,2.7-1.65c.35,3.18-2.92,5.14-5.1,3.45-.74-.57-.68-1.45-1.81-.9a5,5,0,0,1-1,1.65,3.12,3.12,0,0,1-5-2.32,1.76,1.76,0,0,1,1.43-.08c.58.23.71,1.06,1.35,1-.32-1.25-.93-2.8-1.35-4.13-.14-.44-.24-1.07-.68-1.27-.26,1,0,2.58-1.13,2.92a4.13,4.13,0,0,1-.45-2.33c.11-.85.93-1.32.83-2-.46-.17-.86.36-1.2.68s-.92.7-1,1.13a7,7,0,0,0,.53,1.72c.19.65.35,1.24.52,1.81.33,1.06.56,2.91,1.06,3.6s1.46.74,1.72,1.2c-.14.64-.89,1-.82,1.65a58.69,58.69,0,0,1,14.94-1.5,62.53,62.53,0,0,1,10.74,1.43c-.12-.66-.68-.87-.83-1.51a19.81,19.81,0,0,1,1.73-1c.67-2.69,1.47-5.25,2.18-7.89a4.79,4.79,0,0,0-2-1.42c0,.52.55,1,.68,1.72A4.27,4.27,0,0,1,84,41.05c-1.1-.3-1.35-1.53-1.42-2.48-.58.65-.53,1.66-.83,2.48s-1,1.67-.9,2.55c.61-.49,1.51-1.94,2.63-1-.59,1.31-1.19,3-2.78,3.15s-2.3-1.08-3-2.18c-.16-.19-.56-.14-.9-.15-1.59,2.72-7,1.26-6.16-2.48a2.79,2.79,0,0,1,2.1.6c.29.3.26.87.75.91,0-1.24-.06-2.45,0-3.76,0-.34.32-1-.15-1.28-.44.6-.51,1.41-1.28,1.73a3.16,3.16,0,0,1-1.57.15,2.61,2.61,0,0,1,.9-2.1c.5-.44,1.2-.48,1.65-1-2-.14-4.59,0-6.76-.15m43.63-.37c-1.15-.38-3.19-.42-3.6.6a19.4,19.4,0,0,1,4.58-.15c-.33,0-.59-.32-1-.45M77,37.44c-.06,1.07.56,2.18.3,3.31,0-1.26-.86-2.62-2.25-2.25-.87.22-1.24,2-.23,2.47.15-.23.11-.64.38-.75,1.31-.47,1.25,1.05,1.8,1.58.36,0,0-.76.38-.83.06.32-.18.93.22.91s.42-1.34.83-1.36c0,.55-.56,1-.38,1.51.72,0,1-1.59,1.88-1.2.34.14.33.53.23,1.05.88-.15,1.23-.83,1.2-1.88-.63-1.26-2.43-.51-2.93.38.83-1.36,2.1-4.15.37-5.49A3.32,3.32,0,0,0,77,37.44M61.58,41.12c-.25-1.39-3.69-3-3.46,0,.34.39.47,1,1.13,1.06,0-.3-.17-.38-.15-.68A1.06,1.06,0,0,1,60.52,41c.55.2.61,1,1.06,1.13.2,0,.07-.28.22-.3a.37.37,0,0,0,.45.15c.21-.26-.11-.58.15-.75,0,.33.06.65.38.68.19-.74.47-2,1.42-1.66.39.13.2.54.61.75a1.82,1.82,0,0,0,.45-1.2c-.06-1.78-2.57-1.52-2.86.07.55-2.23,0-4.38-1.8-5-1.84,2.17.09,4.49,1,6.23M40.7,36.54c.11-.37.41-.54.45-1-.8,0-.88,1.22-1.35,1.35,0-.57.64-.79.45-1.28-.81.22-.77,1.29-1.43,1.65-.14-.51.56-.78.53-1.42-1,.14-.93,1.32-1.58,1.8-.09-.79.58-1.16.52-1.66-.81.14-.89,1-1.27,1.58-.09-.49.17-1,.08-1.2-.63.08-.45,1-.6,1.5-.51-.21-.66-.79-1.36-.82-.29.23.35.4.15.52s-.56-.28-.82-.07c.18.5,1.13.61,1.05,1.12-.52-.26-.84-.71-1.58-.75-.24,0-.06.35-.23.38-.33.08-.69-.33-.82,0,.26.32.88.28,1,.75-.66-.17-1.73-.71-2.47-.3.47.4,1.33.42,1.73.9-1.12-.14-4.3-1.19-4.43.6a.84.84,0,0,0,.44.83c.34,0,.37-.34.61-.45,0-.33-.41-.25-.3-.68.71-.67,2.19-.22,2.7.38-1.93.3-3.71,1.73-3.53,3.68a4.54,4.54,0,0,1,1.73-2.18c-1.32,1-1.2,3.45-1.8,5,1.39-.94.78-4.27,2.62-4.51.05.38-.38.44-.6.75-.62.88-.56,2.11-.75,3.61-.17,1.29-1.18,1.8-.6,3,.24-.94,1.24-1.54,1.35-2.78.14-1.48-.37-3.15,1.05-3.68-.06.84-.59,1.47-.67,2.41s.14,2,0,2.85c-.25,1.5-1.31,2.52-1.28,3.9.33,0,.25-.44.38-.67a5,5,0,0,0,1.8-3.45c.16-1.54-.72-3.61.45-4.29.43.24,0,.77-.07,1.21a5.62,5.62,0,0,0,.37,3c-.25.26,0,.4,0,.75-.14,1.59-1.5,2.46-1.57,4,0,.31.07.59.07.9s-.18.74,0,.91c.64-.48.34-1,.45-1.66.21-1.24,1.21-2,1.58-3,.64-1.7-.55-3.66.29-5.26.18,0,.33.08.38.23-.64,1.75.28,2.64.15,4.28s-1.82,3-1.65,4.5c.05.44.34.73.3,1.14s-.87,1.28-.15,1.79c-.06-.58.64-1,.75-1.58s-.2-1.22-.15-1.8c.12-1.51,1.6-2.7,1.57-4.43,0-1.33-.9-2.87.16-3.37-.18,1.41.59,2.5.6,3.67C35.38,51,34,52,33.86,53.51a16.24,16.24,0,0,1,.16,1.8c-.12.66-1.3,1.87-.38,2.71a2.36,2.36,0,0,1,0-.75,4.61,4.61,0,0,0,1-2,18.08,18.08,0,0,0-.14-2c0-1,.94-1.81,1.27-2.78.57-1.7-.87-3.19,0-4.2,0,1.29.49,2,.6,2.92.22,2-1.27,3.27-1.2,4.81,0,1,.79,1.82,1.05,2.85.12-.91-.38-1.77-.22-2.63.23-1.29,1.75-2.26,2-3.9a6.77,6.77,0,0,1,.07-1.58c.29,1.34.62,2.5.08,3.76-.31.71-.87,1.1-1,1.8a1.65,1.65,0,0,0,.6,1.73c-.37-1.61.64-2.28,1-3.38s.06-2.1.23-3c.39.26.17.69.22,1.06a9.69,9.69,0,0,1,.38,1.87c0,1.37-1.33,2.94.08,3.83-.32-1,.47-1.69.74-2.4.57-1.47-.06-2.79-.37-4.28-.12-.12-.44-.06-.67-.08C38.5,48.76,38,47.46,37,46.61c-.67-.59-1.6-.79-2.1-1.58.43-.18.65.43,1.13.45,0-.6-.75-.51-.68-1.2.71-.2,1.29.58,2.1.67a4.19,4.19,0,0,0,1.65-.22c-.26-1.09-2.46-.64-2.55-1.65,1.79.32,3.1-.85,4-1.43.13,1.31-1.12,1.62-.9,2.78a2,2,0,0,0,2-2.11c.13-.1.48,0,.46-.22a7.26,7.26,0,0,0,.44-4c1.1,1.58-.34,4,0,5.7,0,.15-.29.07-.22.31A7.89,7.89,0,0,0,43.7,50c1,1.17,2.52,2.08,2.71,4,2.57-3.59-2.52-5.56-3.31-8.34.64.63,1,1.44,1.65,2a18.86,18.86,0,0,1,2,1.42c.51.56.46,1.26,1,1.88-.25-4.11-4.6-4.51-5-8.26,1.49,1.44,1.87,4.4,4.89,4.06-2-1.58-2.47-5-4.36-6.38,2.71.72,2.41,4.45,5.93,4.35-2.74-1.07-3.3-4.31-5.93-5.48,1.1-.36,1.78.89,2.55,1.35.54.62,1.63,1.65,2.4,1.5C46.41,40.87,45.59,38.59,43,38c1.63-.47,2.83,1.31,4,.68-1.75-.28-3-2.21-5.11-1.35a4,4,0,0,1-.68-.45c.34-.64,1.32-2.27,2-1.35,0,.52-.69.42-.76.9.22.11.73,0,1-.08a2.83,2.83,0,0,0,.31-1.12c-1.29-1.37-2.5.85-3.16,1.27m68-2.1c-1.21-.15-3,.19-3.23,1.2,1.17-.06,1.95-1.16,3.61-1,0-.29-.29-.22-.38-.23m-38.75-.37a1,1,0,0,0-.82,1.87,1,1,0,1,0,.82-1.87m25.08.6A2,2,0,0,0,93.41,34a1.87,1.87,0,0,0,1.58.68M51.51,35.94a1.13,1.13,0,0,0-.07-2.25c-1.66.09-1.11,2.28.07,2.25m44.83-2.1c-.47-.45-2,.08-2.7-.3.44.57,2.09,1,2.7.3m-8.63,1.58c1.31,0,1.57-2.58-.3-2-1.22.36-.63,2,.3,2m12.16-2.11c-2,.31-3.38,1.73-5,1.88-1.22.11-2-1-2.93-.38h.53c2,2.08,4.9-.2,7.06-.74-.62.54-1.33,1-1.51,1.94.83-.71,1.76-1.74,2.93-1.87-.6.45-1.67,1.46-1,2.4a3.63,3.63,0,0,1,2.11-2.33c-.06-.3.07-.42.07-.67a3.32,3.32,0,0,0-2.26-.23m.08-1.12c.21,1,1.6.75,2.4,1.12-.16-1-1.4-1.24-2.4-1.12m-31.46.6a1.06,1.06,0,1,0,2.1-.3c-.49-.78-2.1-.72-2.1.3M106,31.59c-.71,1.16-2.33,1.05-3.08,2.17s-.42,2.71-2,2.93c-.06-.42.59-.42.3-.82-.86-.23-1.16,1-1.27,1.5a1.81,1.81,0,0,1-.76-1.28,1.35,1.35,0,0,0-1.42,1.2c.21.15.66,0,.82.23-.62.2-1.42.22-1.5,1,.7.08,1.91-.34,2.56-.31a7.26,7.26,0,0,1-1.28,1.88c-.69.53-1.9.19-2.7.76-.07-.14-.19-.23-.23-.38.88-.79.82-2.53,2.1-2.93a2.55,2.55,0,0,0-.3-.83c-.54.06-.64.56-1.12.68-1.18,1.88-2.4,3.71-4.44,4.73a13.19,13.19,0,0,0-1.27,2.55c1.18,2.17,3.27-2.17,4.8-.9-.34.79-1.16,1.09-1.57,1.81.69,0,1.39-1.06,2-1.13-.65.51-.59,1.64-.83,2.25-.42,1.06-2.24.77-2.4,2.1.35.13.48-.55.82-.67,2.31.06,2.19-2.32,3.23-3.53-.29,1-.23,2.27-.82,2.92,1.81-.35.71-3.17,2.1-3.9a2.74,2.74,0,0,0-.15,2.18c.57-1.18.53-2.41,1.73-2.85s2.32-.44,3.07-1.28a4.27,4.27,0,0,0,.61-2.77c1.78,2.42-.51,4.29-2.41,5.55-.8.54-2.47,1.44-2.63,2.25-.1.52.22,1.64.9,1.73a23.12,23.12,0,0,0,1.13-2.1c1.24-1.76,3.59-2.62,4.28-4.81,0,3.35-3.07,3.64-4.28,5.78.81.5,2.28.32,3.08.83.19.26-.09.57,0,1,.34.09.72.14,1,.23a4.34,4.34,0,0,1,1.5-1c.49.5.12,2.22,1.13,2a21.09,21.09,0,0,0,2-6.24,7.53,7.53,0,0,0-4.28-7.73c-.27-.06-.57.22-.75,0,1.55-.78,2.37-2.67,2.4-4.73Zm-8,1.65c1.14.08,1.1-1.73.3-2a8.84,8.84,0,0,1-.3,2M51.36,33a1.16,1.16,0,0,0-.6-2.25c-1.5.37-.79,2.5.6,2.25m17.13-1.27a2.64,2.64,0,0,1,2,.07c.52-1.43-2.29-1.66-2-.07M67,30.31c-.44,1.41-.16,3.57-.15,5.26.28,0,.67.06.83-.08,0-1.2,0-3.68,0-5.11-.12-.12-.44-.05-.68-.07m21.48,2.1c1.05-.3.8-2.75-.83-2.17-1.31.45-.41,2.53.83,2.17m-16.9-2a29.79,29.79,0,0,0-.22,5.19c.3,0,.72.06.9-.08-.15-1.67.13-3.68,0-5.25-.14-.1-.75-.2-.68.14M97,33.24c1-.23,1.17-2.73.23-3.15,0,1.1-.88,2.13-.23,3.15M68.49,30.53c.44-.54,1.43-.36,2-.07.62-1.69-2.71-1.62-2,.07m-6.24-.07a12.18,12.18,0,0,0-4-1.35c-3.82-.24-4.94,4.2-3,6.76A2.8,2.8,0,0,1,58,35c.82-1.32,4-2,5.41-.75.52-.5,1.83-.34,2.48-.3A11.09,11.09,0,0,0,66,32a25,25,0,0,1-3.75-1.5M81.7,29c-3.68-.34-5.4,2.56-8.48,2.78A8.1,8.1,0,0,0,73.07,34c.75-.16,2.46-1,3.45-.23a4.21,4.21,0,0,1,4.66.75c1.16-.42,2.28.41,2.92,1C86,33,84.75,29.24,81.7,29M35.9,30.53c.59.11,1.1-.34,1.72,0a1.37,1.37,0,0,1,1.81-.37c-.33-2.33-2.87-.44-3.53.37m-.83-1.72c-.71.17,0,1.42.6.68,0-.53-.25-.77-.6-.68m61.2,3.45c.5-.86,1-2.78.15-3.68.14,1.09-1.18,2.65-.15,3.68m-25.61-4c.2.58,0,.95.08,1.42a1.35,1.35,0,0,0,1.2-1.13c-.33-.15-.84-.48-1.28-.29m-2.1,1A2.21,2.21,0,0,1,70.44,29c.44-1.23-2.54-1.39-1.88.15m-1.5-.82a1.27,1.27,0,0,0,1.28,1.13,3.59,3.59,0,0,1,.07-1.36,2.37,2.37,0,0,0-1.35.23M52.57,28a1.25,1.25,0,0,0-1.36,2c1.59,1.06,2.77-1.58,1.36-2m42.87,2.84c.36-.87,1.19-2.43.23-3.3.09,1.19-1,2.39-.23,3.3M64,29.63c-1.91-.77-4.47-2.41-6.83-2.1a5,5,0,0,0-4.43,4.88,7.24,7.24,0,0,0,.82,3.6c.21.4.42,1.06.9,1,.4-.52-.15-1.17-.37-1.73a7.12,7.12,0,0,1-.53-2,4.28,4.28,0,0,1,2.18-4.43c3.92-2.07,6.81,2.22,10.14,2,0-1-1.22-.86-1.88-1.13m22.75,0c1.78.29,1.7-2.63-.07-2.1a1.11,1.11,0,0,0,.07,2.1m-.45,4.73a5.3,5.3,0,0,0-4.65-7c-3.32-.38-4.69,1.65-7,2.41-.63.2-1.47.06-1.35,1,2.39.13,3.9-1.75,5.93-2.33,4.63-1.31,8.06,2.87,5.93,6.91-.2.39-1.09,1-.29,1.5a4.7,4.7,0,0,0,1.42-2.48m-49-6.6a.64.64,0,0,0-.68-.08c-.18.09,0,.59-.15.68-.24-.21-.4-.09-.68,0a1.55,1.55,0,0,0-.07.6c.09.21.46.13.53.37-.22.35-1,.5-.91.91,1.19,0,2.09-2,3.69-1.58.75.19.56,1.14,1.2,1.58.42-1.21-.64-2.21-2-2.18a.69.69,0,0,0,.07-.75c-.45-.4-.91.06-1,.45m1.27-.3c-.05.53.53.64,1,.3.11.28.19.6.68.52.32.67.08,1,.44,1.58-.45.41.28,1.07.68.6-.29-.69.08-1.13-.37-1.65.44-.41-.19-.74-.46-.9,0-.69-.68-.65-1-.3,0-.83-.93-.68-1-.15m56,2.17A2.23,2.23,0,0,0,95,26.86c-.06,1-.75,1.64-.44,2.77m-30-.45c1.92.48,1.89-2.86,0-2.25a1.21,1.21,0,0,0,0,2.25m8.57-1.8c-.66,1.57,2,2.56,2.17.75a1.12,1.12,0,0,0-1.5-1.27,1,1,0,0,0-.67.52m-20-.68a1.16,1.16,0,0,0,2.18.76A1.08,1.08,0,0,0,53.92,26a1,1,0,0,0-.83.67m8,.23a1.17,1.17,0,0,0,2.33.15A1.06,1.06,0,0,0,62.1,25.8a1.09,1.09,0,0,0-1,1.13m15.78,1c1.4-.1,1.3-2.76-.46-2.25-1.3.37-.8,2.33.46,2.25m8.63-.3c1-.63.16-2.3-.9-2.11-1.74.32-.6,3.1.9,2.11m7.81,0c.17.2.38-.11.53.07a1.33,1.33,0,0,0,.15.82c.61-.43,1-2,.22-2.54-.15.52-.14,1.21-.67,1.35.23-.55.67-1.65.15-2.25,0,.7-.7,1.71-.38,2.55m-36.27-.38c1.14-.2,1.14-2.46-.52-2.1s-.65,2.31.52,2.1m9.76-.68a2.37,2.37,0,0,0,1.51-.3c.08-.36.22-1.28-.23-1.35-.7.28-1.3.65-1.28,1.65M58.88,27c1.72,1.21,2.71-2.65.45-2a1.22,1.22,0,0,0-.45,2m23.05-.07c1.59.18,1.47-2.48-.15-2.1a1.08,1.08,0,0,0,.15,2.1m-11.57-2c0,.56-.06,1,0,1.35a9.46,9.46,0,0,0,1.65.3c-.15-.88-.78-2-1.65-1.65m8,1.58a1.17,1.17,0,0,0,1.95-1.27,1.17,1.17,0,1,0-1.95,1.27m-9.61.15c-.66.12-1.41.14-2,.3a1.92,1.92,0,0,0,.07.75,35.27,35.27,0,0,1,5-.07c0-.16.18-.22.14-.45-.35-.56-1.42-.38-2.1-.61a8.75,8.75,0,0,0-.07-1.8c-1.34-.59-1,.87-1,1.88m24.1-.23c.48-.25.61-1.23.52-1.8-.09,0-.1-.1-.22-.07,0,.73-.42,1-.3,1.87m-.3-.74c.31-.3.67-1.53.08-1.81,0,.67-.55,1.36-.08,1.81m-.38-1c.21-.15.39-.94.08-1.13,0,.34-.6,1-.08,1.13m-23.72-.83c.48.15,1.2-.09,1.87,0-.11-.42-.06-1-.45-1.13-.22.14-.19.51-.52.53s-.27-.44-.53-.53c-.13.37-.26.75-.37,1.13m1.2-1.58a.81.81,0,0,0,.22-1c-1-1.1-1.78,1.21-.22,1M91.76,24c.66-1.45-1-2.25-1.72-3.08A9.12,9.12,0,0,0,91.76,24m-25-1.12a3.88,3.88,0,0,1,1-.83c0-.26-.26-.19-.22-.45.14-.09.36-.09.3-.38-.53,0-.7-.4-1.2-.45.17.75-.37,1.74.15,2.11M71,21.15c0,.29.31.19.38.37s-.23.23-.22.45c.48.14.67.58,1.27.61a9.49,9.49,0,0,0-.07-1.88c-.53.07-.76.44-1.36.45m-2.62-2.1a10.23,10.23,0,0,0,.52,1.27c.37,0,.26-.48.53-.6.14.16.11.5.37.53a5.81,5.81,0,0,0,.6-1.2,6.82,6.82,0,0,0-2,0M28.24,35.57c.48.66,1,1.29,1.5,2,.39,0,.78,0,.9.3a1.09,1.09,0,0,0-.15.6c.75.21,1.07-.63,2-.45.18-.74,1-.61,1.58-.9.19-.09.26-.37.46-.45.5-.23.88,0,1.5,0,.37-1.24,1.91-1.17,3.15-1.28.34-.41,1.06-.44,1.65-.6.1-.42-.3-.35-.3-.67.67-.52.53-1.83.6-2.94a2.86,2.86,0,0,0-1.27-.52c-.11.27.9.74.37,1.2-.41,0-.28-.56-.67-.6a8.66,8.66,0,0,0-.08,1.87c.45,0,.33-.56.9-.44.33,1.41-2.09,1.53-1.8.3.24-.23.26.17.52.14.27-.21.16-.88-.07-1s-.36.09-.6.07c-.14-.51-.35-.95-.9-1.05a1.28,1.28,0,0,0-.23,1.2,1.88,1.88,0,0,0-.75.45c0,.56.11.89.6.9.09-.14-.09-.46.23-.53,1.21,1.16-1.85,2.19-2,.61.56-.33.77.27,1.21.3a5.82,5.82,0,0,0-.91-2.1c-.08.49-.21.93-.67,1-.46-.56.23-.92.45-1.28-.4-.3-.12-1.28-.83-1.28-.21.49.21.86.3,1.28-.1.08-.27.08-.38.15-.48-.68-.41-1.3-1-1.95-.42-.07-.48.49-.75.15a1.49,1.49,0,0,1,1-.45.49.49,0,0,0,.38.68,1,1,0,0,1,.23-.3,10,10,0,0,0-.23-1.21c-.44-.26-1.06-.34-1.13-1,.57-.09.54.41,1,.45-.2-.87-.28-1.83-1-2.18-.64.36-1.64.37-2.1.9.27.19,1.13-.05,1.13.6-.43.26-.72-.16-.9-.37a2,2,0,0,0,.6,1.87c.15-.29,0-.89.44-.9,0,.75-.19,1.46-.22,2.11-.43-.11-.5.15-.68.29a1,1,0,0,0-.6-.29c-.16.06-.16.28-.37.29-.19-.14-.27-.38-.6-.37s-.29.36-.53.45c-.08-.28-.57-.26-.82-.15s0,.48-.15.53c-.14-.2-.53-.18-.76-.08s-.08.52-.15.68a.56.56,0,0,0-.6.9c-.07.25-.41.24-.37.59s.32.28.37.53c-.28.24-.18.54,0,.83s.47,0,.6.07,0,.5.08.61a.87.87,0,0,0,.83,0c.15-.69-.32-.74-.76-.83.26-.45-.2-.59-.29-.9.21-.24.1-.48,0-.75.42-.11.42-.59.44-.9.46.25.63-.22.83-.46.44.24.69-.14.9-.37.21.1.27.34.6.3s.18-.32.45-.3a.53.53,0,0,0,.9-.08c.2.1.27.34.6.3s.2-.61.3-.89c.61.49,1.39.81,1.35,1.95-.22.19-.79.05-.82.45.38.29,1.35,0,1.28.75-.49.26-.85-.19-1.2-.31A2.75,2.75,0,0,0,33.64,35c.3-.26.2-.9.75-.9.94,1.62-2,2.69-2.25,1,.2-.36.49-.14.75,0a2,2,0,0,0,.23-.6.88.88,0,0,0-1.2-.3c-.34-.2-.65-.79-1.06-.68-.26.25-.11.83-.07,1.21-.74.08-.6,1.22.07,1.27.17-.16-.06-.25,0-.52,2-.1-.73,2.69-1.2.82a3,3,0,0,1,.83.08,3.86,3.86,0,0,0-1-1.58c-.08.27.15,1-.45,1-.14-.68.32-1.13.23-1.51a2.53,2.53,0,0,0-1.05,1.36m44.08-17c-.12.55-.77.39-1.13.67s-.41.59-.53,1.13c1.09.28,1.47-.79,2.11-1.21a16.24,16.24,0,0,1-.08,5c-.46.08-.41-.49-.6-.76-.3-.43-.79-.84-1.43-.45.38,1.48,1.83,1.88,2.25,3.3a2.3,2.3,0,0,1,2,.08c.36-1,1.26-2,2.7-1.43.49-.88,2.39-1.29,3-.22.77-1,3-1,3.22.45a1.79,1.79,0,0,1,2.86,1.57,1.84,1.84,0,0,1,2,2.86c1.41.21,1.57,2.77.45,3.45a1.85,1.85,0,0,1-.75,3,1.8,1.8,0,0,1-1.58,2.56,12.06,12.06,0,0,0-1.35,3.83c-.55,1.92-1.58,3.89-.52,5.56-.25.45-.9.5-1.21.9a1.64,1.64,0,0,1,0,2.33,51.78,51.78,0,0,0,5.56,2.17c.37,0,.42-.33.9-.23.3-.4.44-1,.76-1.34a1.88,1.88,0,0,1,1-2.41c-.17-1.75,1.28-1.88,2-2.77-.87.15-3.31,2.6-4.06.74-.16-.39,0-.85-.07-1.2-.12-.61-.44-1-.3-1.65a8.39,8.39,0,0,1,.75-1.5,5.62,5.62,0,0,1,1.72-2.17,10,10,0,0,0,2.48-2.71c-1.37,0-2.7,0-3.45.52-.07-1.64,1.76-1.39,2.78-2-.75-.43-2.16.07-2.78,0,.13-.76.84-1,1.58-1.12-.23-.56-1.19-.35-1.73-.23.15-1,1-1.23,1.88-1.42.39-1,2.08-.6,3.08-.84a27.17,27.17,0,0,0-2.18-4.5,36.25,36.25,0,0,0-3.16-5.86,19.79,19.79,0,0,1-2-3.67c.93-.49,1.41.52,1.73,1.12,2.15,2.16,3.79,4.82,5.93,7,1,1.61,2.2,2.95,3.23,4.5a6.58,6.58,0,0,1,2,0c.37-.15.42-.62.9-.67.33.49.46,1.19,1,1.5a13.68,13.68,0,0,0,2-.68,2.61,2.61,0,0,1,1-1c.7.22.33,1.83.23,2.41.91.71,2.61.64,3.23,1.65-.26.08-.62,0-.75.23,1.33.34,2.94.8,3.53,1.65a5,5,0,0,0-1.13.07c.56.67,2,.43,2.55,1.13-.27.2-.91,0-1,.38,1,.45,2.21.59,2.41,1.8-.14.13-.43-.24-.9-.31a2.37,2.37,0,0,0-1.29.23A3.54,3.54,0,0,1,115.8,42a2.82,2.82,0,0,0-2.56,0c.35.68,1.37.48,2,.9a2,2,0,0,1,.67,1,1.88,1.88,0,0,0-1.88-.23c1,.57,2.5,2,1.43,3.38a1.47,1.47,0,0,0-2-1.42c1.06.53,2.06,2.76.9,3.91a1.33,1.33,0,0,0-1.05-1.73c-.09.32.32.36.45.75a2.87,2.87,0,0,1-.37,2.18c-.32-.09-.12-.69-.53-.68a7.51,7.51,0,0,1-.3,1.58c-.38.08-.06-.54-.45-.45-.18.39-.12,1-.38,1.35-.37.08-.26-.34-.45-.45-.77.48-1.17,1.33-2.17,1.58,0-.31.68-.89.07-1.28-.94.48-1,1.88-1.8,2.48,0,.24.13.26.08.52s-.33.24-.38.45a16.52,16.52,0,0,0,.08,5.48c.79.42,1.17,1.23,1.72,1.88.11.12.39.07.6.08a4.22,4.22,0,0,1,1.35,2.7,10.26,10.26,0,0,0,.23,2.55c.16.54.67,1,.38,2,1.32,1.36,2,3.71,2.85,5.56.54,1.17,2.14,2.56,3.75,1.35s.68-3.49-.37-4.8c-.59-.73-1.42-1.36-2.11-2.18a13.24,13.24,0,0,1-2.92-5.93,12.86,12.86,0,0,1-1.51-1.28,7.54,7.54,0,0,1-1.35-3.15c-.13-1.26,1-4-.82-4.06.22-1,1.47-.45,2-.07.23-.77.08-1.78-.9-1.58.19-.89,1.48-1.32,2.78-1.35.5-.67.72-1.53,1.8-1.5.27,0,.53.22.83.22.54,0,1-.43,1.65-.3s.94.75,1.2,1.28c-1.36-1.07-2.08.8-1.43,2,.61-.43,1.53-1.24,2.4-.53-.73.34-1.36.52-1.27,1.65.06.74.67,1.34.67,2.1,0,3.89-5.77,4.91-2.93,9-.34-2.76,2.33-2.87,2-5.34.45,0,.87.51,1,.9.56,2.11-2.49,3.72-1.28,6.16.18-1.74,1-2.8,1.58-4.2,1.78,1-.47,2.45-.53,4.2a3.73,3.73,0,0,0,.3,1.73c.23-.19,0-.53,0-.83A4.58,4.58,0,0,1,119.93,67c1,1.51-1.15,3.1-.08,4.72a5.62,5.62,0,0,1,.75-2.77c1.25,1.34-.4,2.82,0,4.65.23,1,.78,1.7.53,2.93a5,5,0,0,1-5.86,4.06A3.63,3.63,0,0,1,113,79.12c0,1.4-.59,2.85-.38,4.13a3.38,3.38,0,0,0,3.08,2.48c1.37,1,.14,3-.08,5a13.37,13.37,0,0,0,.08,2.77c.07.55.4,1,.53,1.66.44,2.13,0,4.12-1.13,5.1-.26,0-.06-.48-.37-.45-.36.43-.39,1.36-.83,1.81-1,1-3.8,2-5.56,2.47A50.58,50.58,0,0,1,99,105.18a31.54,31.54,0,0,0-4.5,1,42.76,42.76,0,0,1-16.3-.22,8.44,8.44,0,0,0-3.3-.6,4.84,4.84,0,0,1-2.48,2,6.06,6.06,0,0,1-5.71-1.57c-5.81.64-11.23,2.41-17.12,1.72a39.26,39.26,0,0,1-4.66-1.2,14.31,14.31,0,0,0-2.62,0c-2.39-.06-5.17.27-7.73,0-3.37-.35-6.41-.78-7.52-3.45a.81.81,0,0,0-.45-.38c-.29-.58-.37-1.23-.67-1.8-.18-.34-.51-.5-.68-.83s-.14-.82-.3-1.2-.39-.51-.53-.83A6.8,6.8,0,0,1,24,95.12c.1-.93,1.36-1.9,2-2.86a14,14,0,0,0,1.87-9.46c-1.13,0-1.86.69-2.85.75a5.25,5.25,0,0,1-5.48-4.13c-.32-1.44-.18-3.36-.68-4.8.44.08.44.61,1,.6.57-1.24-.22-3.15-.6-3.91a2.14,2.14,0,0,1,1.73,1.88c1.15-1,.16-3.14-.75-3.68a2.11,2.11,0,0,1,2.55,1c.57-1.49-.44-2.65-1.05-3.45,1.59,0,2.17.93,2.48,2.18,1.21-1.42-.2-3.68-1.66-4,1.48-.83,3.06.5,3.46,1.72.25-.2.17-.69.15-.9-.13-1.13-1.18-1.9-1.58-2.48.9-.1,1.12.48,1.65.75-.74-2.52-4-2.09-4.13-5.4a8,8,0,0,1,.76-2.78c.43-1.38.06-2.94-1.73-2.78.35-.94,2-.89,2.62-.23.31-.74.34-1.76,1.2-2a1.87,1.87,0,0,0,.75,2.1c0-.59,0-1.58.46-2,.28.49.16,1.39.67,1.65.4-.3.29-1.11,1-1.12-.49,2.4,1.59,3.59,2.33,5a5.82,5.82,0,0,1,.6,3.53c-.3,1.35-1.58,1.74-1.81,3.15a19.67,19.67,0,0,0,.08,2.41,9,9,0,0,1-2.48,5.71c-1.2,1.5-2.91,2.72-3.75,4.57C22,77.73,22.82,80,24.63,80c2.64,0,3.42-3.82,4.66-5.4a11.48,11.48,0,0,0,1.65-2c1.66-3.67,2-9.83,1-14.8a1.94,1.94,0,0,1-.67-1.87c-.5-.07-.47.38-.91.37.51-.9-.23-2.09-.07-3.53-.44.1-.29.77-.45,1.13-1.52-1.43.2-3.6.22-5-.63.47-.62,1.58-1.28,2-.86-1.18.12-2.94.3-3.91a4,4,0,0,0-1,1.21c-.41-.87.07-2,.23-2.78-.3-.18-.55.67-1,.38.7-1.13.42-3.24,1.28-4.21a1.72,1.72,0,0,1,1.2-3c-.32-.1-.4-.45-.45-.82-.81-1.4-2.15-2.26-3.16-3.46.2-.53-.22-.83-.22-1.28s.42-.83.22-1.42c.47-.38,1.11-.6,1.28-1.28.69.15.89-.21,1.13-.52a1,1,0,0,0,1.2-.15c.36-.07.34.25.6.3.32-.13.38-.51.83-.52-.27-1-1-1.92-.53-3.16.82-.28,1.59-.61,2.47-.83.25.17.3.49.76.61.42.68.24,1.95,1.12,2.17,1-.5,1.62-1.28,2.78-1.58a2.09,2.09,0,0,0,1.2-.15c.46.1.67.44,1.35.31.19.55.76.72,1,1.2.81,1.77-.83,4.61.53,5.93,0,.39-.41.39-.38.82.65.14,1.43-.59,2.33-.22a1.94,1.94,0,0,1,.15,1.73c.33.38.77.3,1.13.6.78.66,1,1.88,2.63,1.72a1.68,1.68,0,0,1-1.51.68A5.73,5.73,0,0,0,49.49,42c-.25.5-1,.55-1.73.52.63,1.37,2.54,1.46,3,3-.44-.07-.69-.31-1.2-.31.43.7,1.51,1.39,1.58,2.71-.35.12-.71-.33-1.13-.38.53.85,1.53,1.23,1.81,2.33-.48-.06-.87-.57-1.43-.3a3.89,3.89,0,0,1,2.33,3.75c1.15-.42,1.77-1.38,2.62-2.1a1.65,1.65,0,0,1,.45-2.18c-.27-.5-.87-.67-1.27-1,.75-.94.72-1.85.3-3.38a41.54,41.54,0,0,0-2-5.48,1.63,1.63,0,0,1-1.73-2.33c-1-.48-2.1-1.88-1-3.08-1-.77-1.31-2.85.14-3.6-.45-1.68.38-3.05,2.19-2.93a1.75,1.75,0,0,1,2.7-1.73,1.74,1.74,0,0,1,3-.6c.48-.07.63-.55,1.05-.67a1.74,1.74,0,0,1,2.11,1.2,1.7,1.7,0,0,1,2.77,1,1.83,1.83,0,0,1,1.88.08c.1-1.81,2.4-1.81,2.18-3.68-.73,0-1,.42-1.43.75-.06.34-.05.75-.45.75-.4-.39-.23-1.22-.23-1.95,0-1.31-.17-2.81.16-3.3.74.45.7,1.69,2.1,1.5.09-1.17-1.22-1.34-1.5-1.88.57-.48,1.73-.23,2.78-.23s2.2-.29,2.78.16" transform="translate(-18.77 -18.35)"/><path class="cls-1" d="M43.18,51.26c.3,0,.52.77.6,1.28-.28-.35-.33-.92-.6-1.28" transform="translate(-18.77 -18.35)"/><path class="cls-1" d="M161.44,44.28c0,3.56-1.1,6.32-3.32,8.26s-5.21,2.92-9,2.92H133.38V20.82h15.88q5.1,0,8.05,2.37A8.23,8.23,0,0,1,160.25,30a7.34,7.34,0,0,1-3.66,6.73A7.69,7.69,0,0,1,161.44,44.28Zm-8.22-13.76c0-2.21-1.41-3.32-4.25-3.32h-8.81v6.58h9.15Q153.22,33.78,153.22,30.52Zm1.09,13.86q0-4.46-4.95-4.46h-9.2v9h9.2Q154.31,48.88,154.31,44.38Z" transform="translate(-18.77 -18.35)"/><path class="cls-1" d="M182.38,30.76l-1.78,6.69a5.79,5.79,0,0,0-4-1.69,4.14,4.14,0,0,0-3.22,1.14c-.79.89-1.19,2.39-1.19,4.51V55.46H165.4v-26h6.83v1.73a7.1,7.1,0,0,1,5.35-2.28A6.31,6.31,0,0,1,182.38,30.76Z" transform="translate(-18.77 -18.35)"/><path class="cls-1" d="M192.18,23.44A4,4,0,1,1,191,20.69,3.78,3.78,0,0,1,192.18,23.44Zm-.5,32h-6.83v-26h6.83Z" transform="translate(-18.77 -18.35)"/><path class="cls-1" d="M212.13,47.5l-1,6.92a8.36,8.36,0,0,1-5.3,1.59,6.35,6.35,0,0,1-5-2.18,8.2,8.2,0,0,1-1.91-5.64V35.91h-4.36V29.48h4.36V22.83l6.83-3.4V29.48H212v6.43h-6.24V46.36c0,2.08.84,3.11,2.53,3.11C209.29,49.47,210.58,48.81,212.13,47.5Z" transform="translate(-18.77 -18.35)"/><path class="cls-1" d="M224.05,23.44a4,4,0,1,1-1.16-2.75A3.74,3.74,0,0,1,224.05,23.44Zm-.49,32h-6.83v-26h6.83Z" transform="translate(-18.77 -18.35)"/><path class="cls-1" d="M249.05,47.89q0,8.11-10.59,8.12a19.25,19.25,0,0,1-10.89-3l2.28-5.2a18.31,18.31,0,0,0,9,2.38c2.31,0,3.47-.66,3.47-2a1.66,1.66,0,0,0-.82-1.44,12.25,12.25,0,0,0-3-1.19Q233,43.94,231,42.45a6.79,6.79,0,0,1-2.77-5.8,6.67,6.67,0,0,1,2.92-5.89c1.78-1.22,4.28-1.83,7.48-1.83a19.47,19.47,0,0,1,9.6,2.53l-2.18,5.39a16,16,0,0,0-7.57-2.08c-2.34,0-3.52.56-3.52,1.69a1.58,1.58,0,0,0,1,1.33,30.16,30.16,0,0,0,4.43,1.69,19.8,19.8,0,0,1,6.09,2.82A6.82,6.82,0,0,1,249.05,47.89Z" transform="translate(-18.77 -18.35)"/><path class="cls-1" d="M275.58,55.46h-6.83V41.41c0-2.25-.36-3.82-1.09-4.71a4,4,0,0,0-3.32-1.33c-3,0-4.45,2-4.45,5.89v14.2h-6.83V22.84l6.83-3.41V31.21A8,8,0,0,1,266,28.93q9.6,0,9.6,11.88Z" transform="translate(-18.77 -18.35)"/><path class="cls-1" d="M160.45,82.12q0,5.75-3.56,8.71-3.27,2.67-9,2.67h-7.62v12.28h-6.93V71.13h15.14a12.62,12.62,0,0,1,8.42,2.72A10.25,10.25,0,0,1,160.45,82.12Zm-7.13.15q0-4.41-5-4.41h-8v8.91h8.06Q153.32,86.77,153.32,82.27Z" transform="translate(-18.77 -18.35)"/><path class="cls-1" d="M186.44,105.78h-6.83V91.72c0-2.24-.37-3.81-1.09-4.7a4,4,0,0,0-3.32-1.34c-3,0-4.45,2-4.45,5.89v14.21h-6.83V73.16l6.83-3.41V81.53a8,8,0,0,1,6.09-2.28q9.6,0,9.6,11.88Z" transform="translate(-18.77 -18.35)"/><path class="cls-1" d="M212,105.78H205.2v-1.73a7.7,7.7,0,0,1-5.84,2.28,10.09,10.09,0,0,1-6.69-2.28,8.6,8.6,0,0,1-3-7,7.71,7.71,0,0,1,3.06-6.49,12.18,12.18,0,0,1,7.48-2.12,11,11,0,0,1,5,1V88.21a3.17,3.17,0,0,0-1-2.38,3.8,3.8,0,0,0-2.75-.94,14.82,14.82,0,0,0-7.12,1.73l-2.63-4.75a19.22,19.22,0,0,1,9.75-2.62,11.59,11.59,0,0,1,7.68,2.4A8.28,8.28,0,0,1,212,88.36Zm-6.83-7.62V94.89a9,9,0,0,0-4.75-1.09c-2.65,0-4,1.09-4,3.27s1.31,3.46,4,3.46A5.12,5.12,0,0,0,205.2,98.16Z" transform="translate(-18.77 -18.35)"/><path class="cls-1" d="M233.36,81.08l-1.78,6.68a5.76,5.76,0,0,0-4-1.68,4.17,4.17,0,0,0-3.22,1.14c-.79.89-1.19,2.39-1.19,4.5v14.06h-6.83v-26h6.83v1.74a7.13,7.13,0,0,1,5.35-2.28A6.28,6.28,0,0,1,233.36,81.08Z" transform="translate(-18.77 -18.35)"/><path class="cls-1" d="M272.81,105.78H266V91.72c0-2.24-.33-3.81-1-4.7a3.69,3.69,0,0,0-3.17-1.34,3.81,3.81,0,0,0-3.16,1.24c-.7.93-1,2.48-1,4.65v14.21h-6.83V91.72c0-2.24-.34-3.81-1-4.7a3.67,3.67,0,0,0-3.16-1.34,3.83,3.83,0,0,0-3.17,1.24,8,8,0,0,0-1,4.65v14.21h-6.83v-26h6.83v1.74a7.51,7.51,0,0,1,5.69-2.28,8.75,8.75,0,0,1,7.18,3.32,11,11,0,0,1,8.27-3.32q9.26,0,9.25,11.88Z" transform="translate(-18.77 -18.35)"/><path class="cls-1" d="M298.4,105.78h-6.83v-1.73a7.7,7.7,0,0,1-5.84,2.28,10,10,0,0,1-6.68-2.28,8.61,8.61,0,0,1-3-7,7.69,7.69,0,0,1,3.07-6.49,12.15,12.15,0,0,1,7.47-2.12,11,11,0,0,1,5,1V88.21a3.2,3.2,0,0,0-1-2.38,3.82,3.82,0,0,0-2.75-.94,14.86,14.86,0,0,0-7.13,1.73l-2.62-4.75a19.17,19.17,0,0,1,9.75-2.62,11.57,11.57,0,0,1,7.67,2.4,8.28,8.28,0,0,1,2.87,6.71Zm-6.83-7.62V94.89a8.93,8.93,0,0,0-4.75-1.09q-4,0-4,3.27,0,3.47,4,3.46A5.12,5.12,0,0,0,291.57,98.16Z" transform="translate(-18.77 -18.35)"/><path class="cls-1" d="M324.24,100.53q-4.35,5.79-10.64,5.8a11.31,11.31,0,0,1-8.66-3.82,13.71,13.71,0,0,1-3.52-9.7,13.79,13.79,0,0,1,3.52-9.75A12.24,12.24,0,0,1,324.19,85l-4.5,4.55q-2.62-3.71-5.94-3.71a4.71,4.71,0,0,0-3.94,1.91,8.14,8.14,0,0,0-1.46,5.07,8,8,0,0,0,1.49,5,4.71,4.71,0,0,0,3.91,1.9c2.24,0,4.29-1.1,6.13-3.32Z" transform="translate(-18.77 -18.35)"/><path class="cls-1" d="M349.53,92.81a14.16,14.16,0,0,1-3.34,9.73,11.26,11.26,0,0,1-16.85,0A14.25,14.25,0,0,1,326,92.81a14.32,14.32,0,0,1,3.32-9.75,11.22,11.22,0,0,1,16.85,0A14.23,14.23,0,0,1,349.53,92.81Zm-6.93,0a9.28,9.28,0,0,0-1.23-5,4.05,4.05,0,0,0-3.62-1.93,4,4,0,0,0-3.59,1.91A9.33,9.33,0,0,0,333,92.81a9,9,0,0,0,1.19,5,4,4,0,0,0,3.61,2,4.12,4.12,0,0,0,3.66-2.13A8.76,8.76,0,0,0,342.6,92.81Z" transform="translate(-18.77 -18.35)"/><path class="cls-1" d="M375.27,93.11q0,5.94-2.62,9.5a8.77,8.77,0,0,1-7.48,3.72,7.83,7.83,0,0,1-5.49-2v7.63l-6.83,3.41V79.79h6.83v1.64a8.13,8.13,0,0,1,5.49-2.18,8.74,8.74,0,0,1,7.13,3.27Q375.27,86.18,375.27,93.11Zm-6.93.15q0-7.58-4.45-7.58a5.12,5.12,0,0,0-4.21,2.18v9.8a5.36,5.36,0,0,0,4.6,2.23Q368.35,99.89,368.34,93.26Z" transform="translate(-18.77 -18.35)"/><path class="cls-1" d="M400.86,92.81a14.16,14.16,0,0,1-3.34,9.73,11.26,11.26,0,0,1-16.85,0,14.25,14.25,0,0,1-3.32-9.73,14.32,14.32,0,0,1,3.32-9.75,11.22,11.22,0,0,1,16.85,0A14.23,14.23,0,0,1,400.86,92.81Zm-6.93,0a9.19,9.19,0,0,0-1.24-5,4.34,4.34,0,0,0-7.2,0,9.33,9.33,0,0,0-1.21,5.07,9,9,0,0,0,1.19,5,4,4,0,0,0,3.61,2,4.12,4.12,0,0,0,3.66-2.13A8.76,8.76,0,0,0,393.93,92.81Z" transform="translate(-18.77 -18.35)"/><path class="cls-1" d="M425.41,92.81a20.89,20.89,0,0,1-.1,2.18H409.77a4.84,4.84,0,0,0,1.83,3.76,5.49,5.49,0,0,0,3.52,1.14,5.56,5.56,0,0,0,4.45-1.83l4.85,4.06a10.16,10.16,0,0,1-4.08,3.09,13,13,0,0,1-5.22,1.12,11.44,11.44,0,0,1-8.91-3.67q-3.31-3.66-3.32-9.85a14.4,14.4,0,0,1,3.29-9.75,10.5,10.5,0,0,1,8.29-3.81,9.6,9.6,0,0,1,8.07,4A15.26,15.26,0,0,1,425.41,92.81Zm-6.63-3a5.49,5.49,0,0,0-1.25-3.22,4.46,4.46,0,0,0-3.45-1.43,3.77,3.77,0,0,0-3,1.31,5.76,5.76,0,0,0-1.35,3.34Z" transform="translate(-18.77 -18.35)"/><path class="cls-1" d="M436.4,73.75A4,4,0,1,1,435.24,71,3.77,3.77,0,0,1,436.4,73.75Zm-.49,32h-6.84v-26h6.84Z" transform="translate(-18.77 -18.35)"/><path class="cls-1" d="M462,105.78h-6.83v-1.73a7.7,7.7,0,0,1-5.84,2.28,10,10,0,0,1-6.68-2.28,8.58,8.58,0,0,1-3-7,7.69,7.69,0,0,1,3.07-6.49,12.15,12.15,0,0,1,7.47-2.12,11,11,0,0,1,5,1V88.21a3.2,3.2,0,0,0-1-2.38,3.82,3.82,0,0,0-2.75-.94,14.83,14.83,0,0,0-7.13,1.73l-2.62-4.75a19.17,19.17,0,0,1,9.75-2.62,11.57,11.57,0,0,1,7.67,2.4A8.28,8.28,0,0,1,462,88.36Zm-6.83-7.62V94.89a9,9,0,0,0-4.75-1.09q-4,0-4,3.27,0,3.47,4,3.46A5.12,5.12,0,0,0,455.16,98.16Z" transform="translate(-18.77 -18.35)"/></svg>