<?xml version="1.0" standalone="no"?>
<!DOCTYPE svg PUBLIC "-//W3C//DTD SVG 1.0//EN" "http://www.w3.org/TR/2001/REC-SVG-20010904/DTD/svg10.dtd">
<svg xmlns="http://www.w3.org/2000/svg" xmlns:xlink="http://www.w3.org/1999/xlink" id="body_1" width="250" height="320" viewBox="210 45 180 160">

<defs>
                <clipPath  id="1">

                    <path clip-rule="evenodd" d="M1497.6 857.42C 1531.12 857.42 1564.1799 859.299 1596.65 862.928L1596.65 862.928L1596.48 2088.8281L911.87 2088.8281C 778.06 1957.8882 694.33 1782.1382 694.33 1590.1082C 694.33 1185.4282 1053.96 857.3882 1497.6001 857.3882L1497.6001 857.3882L1497.6 857.42z" />                </clipPath>
    <radialGradient cx="0%" cy="0%" r="127.080574%" gradientUnits="objectBoundingBox" id="373">
        <stop offset="0%" stop-color="#1A2B69" stop-opacity="1"/>
        <stop offset="32.047%" stop-color="#1A2B69" stop-opacity="1"/>
        <stop offset="90.184%" stop-color="#1FB6DE" stop-opacity="1"/>
        <stop offset="100%" stop-color="#1FB6DE" stop-opacity="1"/>
    </radialGradient>
<mask id="767">
<path  transform="matrix(1572.6 2050.9 2050.9 -1572.6 22.885 17.36)"   d="M1 0C 1 0.26511478 0.89457124 0.5196423 0.70710677 0.70710677C 0.5196423 0.89457124 0.26511478 1 6.123234E-17 1C -0.26511478 1 -0.5196423 0.89457124 -0.70710677 0.70710677C -0.89457124 0.5196423 -1 0.26511478 -1 1.2246469E-16C -1 -0.26511478 -0.89457124 -0.5196423 -0.70710677 -0.70710677C -0.5196423 -0.89457124 -0.26511478 -1 -1.6081226E-16 -1C 0.26511478 -1 0.5196423 -0.89457124 0.70710677 -0.70710677C 0.89457124 -0.5196423 1 -0.26511478 1 -2.4492937E-16z" fill="white"/>
</mask>
                <clipPath  id="2">

                    <path clip-rule="evenodd" d="M1003.2 399.57C 1003.2 391.93 1007.98004 378.80902 1028.03 378.80902C 1039.48 378.80902 1048.0701 383.35202 1053.5701 391.69904C 1058.5801 399.80902 1058.81 406.48004 1059.28 423.19904C 1055.23 423.67203 1051.89 423.91003 1046.4 423.91003C 1037.34 423.91003 1003.2 423.91003 1003.2 399.57004L1003.2 399.57004L1003.2 399.57z" />                </clipPath>
    <radialGradient cx="0%" cy="0%" r="127.080574%" gradientUnits="objectBoundingBox" id="1782">
        <stop offset="0%" stop-color="#1A2B69" stop-opacity="1"/>
        <stop offset="32.047%" stop-color="#1A2B69" stop-opacity="1"/>
        <stop offset="90.184%" stop-color="#1FB6DE" stop-opacity="1"/>
        <stop offset="100%" stop-color="#1FB6DE" stop-opacity="1"/>
    </radialGradient>
<mask id="2177">
<path  transform="matrix(1572.6 2050.9 2050.9 -1572.6 20.705 17.37)"   d="M1 0C 1 0.26511478 0.89457124 0.5196423 0.70710677 0.70710677C 0.5196423 0.89457124 0.26511478 1 6.123234E-17 1C -0.26511478 1 -0.5196423 0.89457124 -0.70710677 0.70710677C -0.89457124 0.5196423 -1 0.26511478 -1 1.2246469E-16C -1 -0.26511478 -0.89457124 -0.5196423 -0.70710677 -0.70710677C -0.5196423 -0.89457124 -0.26511478 -1 -1.6081226E-16 -1C 0.26511478 -1 0.5196423 -0.89457124 0.70710677 -0.70710677C 0.89457124 -0.5196423 1 -0.26511478 1 -2.4492937E-16z" fill="white"/>
</mask>
                <clipPath  id="3">

                    <path clip-rule="evenodd" d="M668.84 429.16L733.984 429.16L702.254 513.641L668.84 429.16z" />                </clipPath>
    <radialGradient cx="0%" cy="0%" r="127.080574%" gradientUnits="objectBoundingBox" id="2930">
        <stop offset="0%" stop-color="#1A2B69" stop-opacity="1"/>
        <stop offset="32.047%" stop-color="#1A2B69" stop-opacity="1"/>
        <stop offset="90.184%" stop-color="#1FB6DE" stop-opacity="1"/>
        <stop offset="100%" stop-color="#1FB6DE" stop-opacity="1"/>
    </radialGradient>
<mask id="3325">
<path  transform="matrix(1572.6 2050.9 2050.9 -1572.6 20.705 17.37)"   d="M1 0C 1 0.26511478 0.89457124 0.5196423 0.70710677 0.70710677C 0.5196423 0.89457124 0.26511478 1 6.123234E-17 1C -0.26511478 1 -0.5196423 0.89457124 -0.70710677 0.70710677C -0.89457124 0.5196423 -1 0.26511478 -1 1.2246469E-16C -1 -0.26511478 -0.89457124 -0.5196423 -0.70710677 -0.70710677C -0.5196423 -0.89457124 -0.26511478 -1 -1.6081226E-16 -1C 0.26511478 -1 0.5196423 -0.89457124 0.70710677 -0.70710677C 0.89457124 -0.5196423 1 -0.26511478 1 -2.4492937E-16z" fill="white"/>
</mask>
                <clipPath  id="4">

                    <path clip-rule="evenodd" d="M1501.5 364.97L1478.59 364.97L1478.59 441.091C 1478.59 448.962 1477.63 456.122 1472.15 461.61002C 1466.41 467.10303 1458.54 469.72 1450.9 469.72C 1434.67 469.72 1419.64 458.032 1419.64 433.923L1419.64 433.923L1419.64 364.97L1397.22 364.97L1397.22 470.91998L1396.97 484.748L1419.4 484.748L1419.64 465.42798C 1422.27 470.447 1430.85 487.14597 1458.06 487.14597C 1468.8 487.14597 1501.5 483.08795 1501.5 446.34998L1501.5 446.34998L1501.5 364.97zM1306.12 360.923C 1266.51 360.923 1247.17 388.36002 1247.17 423.44202C 1247.17 453.02103 1261.02 487.86002 1308.03 487.86002C 1355.99 487.86002 1366.72 450.161 1366.72 425.10303C 1366.72 390.02103 1346.9199 360.92303 1306.12 360.92303zM1219.78 512.203L1192.8 512.203L1192.8 536.78503L1219.78 536.78503zM1217.62 364.97302L1195.19 364.97302L1195.19 484.75302L1217.62 484.75302zM1171.54 468.773L1144.81 468.773L1144.81 396.944C 1144.81 390.983 1144.81 380.964 1160.79 380.964C 1165.3301 380.964 1169.63 381.675 1171.54 382.151L1171.54 382.151L1171.54 364.733C 1167.4701 364.015 1161.03 363.30402 1152.92 363.30402C 1132.4 363.30402 1122.62 369.273 1122.62 388.84302L1122.62 388.84302L1122.62 468.773L1101.37 468.773L1101.37 485.233L1122.62 485.233L1122.62 510.292L1144.8099 517.464L1144.8099 485.233L1171.5399 485.233zM1060.8301 116.84302L1043.65 72.222015L1020.51 72.222015L1038.64 118.042015L988.774 237.34201L1014.07 237.34201L1051.53 142.854L1089.7101 237.34201L1114.05 237.34201zM1055.02 465.19302C 1050.49 471.16202 1040.72 473.06104 1034.26 473.06104C 1011.59 473.06104 1010.4 457.56104 1010.17 452.78302L1010.17 452.78302L987.727 452.78302C 988.442 458.99002 989.153 467.342 996.075 475.463C 1005.16003 485.471 1022.09 488.342 1034.74 488.342C 1052.17 488.342 1070.76 482.854 1077.22 470.682C 1081.0399 463.522 1081.27 457.79102 1081.27 452.303L1081.27 452.303L1080.3201 395.04102C 1080.3201 393.12302 1080.56 377.143 1082.2201 364.971L1082.2201 364.971L1061.9501 364.971C 1060.27 370.932 1059.8 376.66202 1059.8 382.86102C 1049.05 363.053 1032.8301 361.15002 1022.80005 361.15002C 995.3641 361.15002 980.57104 376.66202 980.57104 396.471C 980.57104 406.002 983.90704 421.28302 1001.57007 431.553C 1014.4601 438.713 1033.55 439.424 1043.0901 439.424C 1048.8201 439.424 1052.4001 439.19302 1059.31 438.713C 1059.31 453.49002 1059.31 459.94302 1055.02 465.19302zM974.141 221.36302L947.415 221.36302L947.415 149.53502C 947.415 143.56302 947.415 133.54301 963.40295 133.54301C 967.92993 133.54301 972.23096 134.26602 974.1409 134.73401L974.1409 134.73401L974.1409 117.324005C 970.0899 116.61301 963.64496 115.883 955.51996 115.883C 934.99994 115.883 925.21497 121.856 925.21497 141.414L925.21497 141.414L925.21497 221.363L903.98895 221.363L903.98895 237.824L925.21497 237.824L925.21497 262.875L947.415 270.043L947.415 237.824L974.141 237.824zM883.868 264.78503L856.915 264.78503L856.915 289.36304L883.868 289.36304zM881.73096 117.56503L859.29694 117.56503L859.29694 237.34503L881.73096 237.34503zM830.98096 364.97504L780.86395 484.75504L805.91797 484.75504L844.094 389.78604L881.321 484.75504L906.14496 484.75504L853.657 364.97504zM836.69995 216.35504C 835.50793 216.82304 834.06696 217.06204 832.4069 217.30405C 830.7349 217.54205 828.58594 217.54205 825.95795 217.54205C 799.46893 217.54205 793.26996 201.79205 793.26996 181.27306L793.26996 181.27306L793.26996 117.56206L770.6019 117.56206L770.6019 213.01506C 770.6019 221.12405 770.12494 229.47206 769.4069 237.34306L769.4069 237.34306L792.0789 237.34306L792.55493 214.20206C 796.84796 230.90106 811.1649 236.39406 821.1959 237.82306C 827.87195 238.78406 832.88293 238.53406 836.69995 238.30406zM741.16797 409.82504L661.22296 409.82504L642.61395 364.97403L618.03595 364.97403L690.579 537.26404L716.11 537.26404L785.79 364.97406L759.77795 364.97406zM679.579 113.505035C 639.961 113.505035 620.633 140.95404 620.633 176.02504C 620.633 205.60704 634.473 240.45404 681.489 240.45404C 729.44604 240.45404 740.188 202.74304 740.188 177.69604C 740.188 142.61404 720.383 113.50504 679.579 113.50504zM591.297 117.56403L568.387 117.56403L568.387 188.43503C 568.387 199.16502 568.387 222.31403 542.614 222.31403C 525.911 222.31403 517.555 212.06403 514.45404 206.32503C 510.63705 199.65303 510.63705 188.43503 510.63705 181.03603L510.63705 181.03603L510.63705 117.564026L487.96506 117.564026L487.96506 289.604L510.63705 289.604L510.63705 219.701C 518.04004 232.334 532.82904 239.502 549.5281 239.502C 562.18005 239.502 580.3171 234.971 587.2391 220.412C 589.6221 215.631 591.29706 209.90001 591.29706 192.494zM474.257 512.20404L447.289 512.20404L447.289 536.786L474.257 536.786zM472.10498 364.97406L449.679 364.97406L449.679 484.75406L472.10498 484.75406zM464.44098 221.36406L437.71097 221.36406L437.71097 149.53606C 437.71097 143.56406 437.71097 133.54405 453.70297 133.54405C 458.23398 133.54405 462.53098 134.26706 464.44098 134.73505L464.44098 134.73505L464.44098 117.32504C 460.382 116.614044 453.94098 115.88404 445.82797 115.88404C 425.304 115.88404 415.51898 121.85704 415.51898 141.41504L415.51898 141.41504L415.51898 221.36404L394.27698 221.36404L394.27698 237.82504L415.51898 237.82504L415.51898 262.87604L437.71097 270.04404L437.71097 237.82504L464.44098 237.82504zM351.80096 364.97406L301.69595 484.75406L326.75095 484.75406L364.92993 389.78506L402.15292 484.75406L426.97293 484.75406L374.47293 364.97406zM349.24295 117.56406L348.75797 138.07506C 344.46198 129.72406 336.35196 116.36406 310.58298 116.36406C 280.99298 116.36406 267.15298 133.31406 267.15298 156.93506L267.15298 156.93506L267.15298 237.34506L290.063 237.34506L290.063 160.27505C 290.063 148.58705 292.684 133.78606 315.594 133.78606C 326.805 133.78606 337.309 137.60706 343.751 147.15306C 348.758 154.30606 348.758 163.60706 348.758 169.58707L348.758 169.58707L348.758 237.34506L371.911 237.34506L371.911 139.98506C 371.911 137.60706 372.383 124.255066 372.622 117.564064zM256.89496 484.75406L279.32095 484.75406L279.32095 364.97406L256.89496 364.97406zM254.50797 536.78503L281.46896 536.78503L281.46896 512.203L254.50797 512.203zM225.40697 117.56503L206.79797 162.42804L126.85997 162.42804L108.242966 117.56504L83.66897 117.56504L156.20798 289.84503L181.73898 289.84503L251.41498 117.56503zM170.04398 539.645C 194.39098 539.645 228.75098 529.86304 231.85597 490.734L231.85597 490.734L206.32097 490.734C 205.36397 496.695 202.26196 520.555 169.09097 520.555C 127.574974 520.555 120.17297 478.086 120.17297 449.445C 120.17297 416.992 129.48097 381.914 168.85597 381.914C 179.35197 381.914 189.37598 384.543 196.77397 392.184C 202.97697 398.86298 204.41096 406.254 205.12598 410.305L205.12598 410.305L231.37198 410.305C 227.79797 376.426 196.53598 362.344 166.94998 362.344C 106.33298 362.344 94.63698 415.805 94.63698 449.203C 94.63698 485.473 108.71598 539.645 170.04398 539.645zM103.711975 784.66504L127.574974 784.66504L127.574974 678.005C 127.574974 659.63403 131.62598 651.993 135.21198 646.985C 145.94998 632.653 162.65297 630.044 174.58698 630.044C 221.11398 630.044 221.11398 666.556 221.11398 678.954L221.11398 678.954L221.11398 784.664L244.25798 784.664L244.25798 678.474C 244.25798 669.177 244.02399 649.857 230.17998 632.653C 213.23898 611.427 186.98898 608.806 174.58698 608.806C 158.34798 608.806 129.71597 613.33704 113.73097 636.247C 108.48097 643.88403 103.711975 653.903 103.711975 679.677zM283.83197 784.66504L307.45697 784.66504L307.45697 709.275L379.28098 784.66504L411.972 784.66504L334.89798 707.59503L420.32797 612.37604L386.91797 612.37604L307.45697 703.775L307.45697 612.37604L283.83197 612.37604zM509.49197 537.015L531.922 537.015L531.922 364.97504L509.492 364.97504zM951.282 484.75302L951.282 364.97302L928.868 364.97302L928.868 484.75302zM926.47296 536.784L953.438 536.784L953.438 512.202L926.47296 512.202zM1596.673 829.43396C 1487.923 794.863 1373.403 776.59393 1252.323 776.59393C 652.823 776.59393 166.823 1235.914 166.823 1802.394C 166.823 1920.654 188.034 2034.234 226.995 2088.834L226.995 2088.834L0.024993896 2088.834L0.024993896 -0.06591797L1596.725 -0.06591797z" />                </clipPath>
    <radialGradient cx="0%" cy="0%" r="127.080574%" gradientUnits="objectBoundingBox" id="11981">
        <stop offset="0%" stop-color="#1A2B69" stop-opacity="1"/>
        <stop offset="32.047%" stop-color="#1A2B69" stop-opacity="1"/>
        <stop offset="90.184%" stop-color="#1FB6DE" stop-opacity="1"/>
        <stop offset="100%" stop-color="#1FB6DE" stop-opacity="1"/>
    </radialGradient>
<mask id="12377">
<path  transform="matrix(1572.6 2050.9 2050.9 -1572.6 20.705 17.37)"   d="M1 0C 1 0.26511478 0.89457124 0.5196423 0.70710677 0.70710677C 0.5196423 0.89457124 0.26511478 1 6.123234E-17 1C -0.26511478 1 -0.5196423 0.89457124 -0.70710677 0.70710677C -0.89457124 0.5196423 -1 0.26511478 -1 1.2246469E-16C -1 -0.26511478 -0.89457124 -0.5196423 -0.70710677 -0.70710677C -0.5196423 -0.89457124 -0.26511478 -1 -1.6081226E-16 -1C 0.26511478 -1 0.5196423 -0.89457124 0.70710677 -0.70710677C 0.89457124 -0.5196423 1 -0.26511478 1 -2.4492937E-16z" fill="white"/>
</mask>
                <clipPath  id="5">

                    <path clip-rule="evenodd" d="M134.46 181.75L199.6 181.75L167.862 266.219L134.46 181.75z" />                </clipPath>
    <radialGradient cx="0%" cy="0%" r="127.080574%" gradientUnits="objectBoundingBox" id="13129">
        <stop offset="0%" stop-color="#1A2B69" stop-opacity="1"/>
        <stop offset="32.047%" stop-color="#1A2B69" stop-opacity="1"/>
        <stop offset="90.184%" stop-color="#1FB6DE" stop-opacity="1"/>
        <stop offset="100%" stop-color="#1FB6DE" stop-opacity="1"/>
    </radialGradient>
<mask id="13525">
<path  transform="matrix(1572.6 2050.9 2050.9 -1572.6 20.705 17.37)"   d="M1 0C 1 0.26511478 0.89457124 0.5196423 0.70710677 0.70710677C 0.5196423 0.89457124 0.26511478 1 6.123234E-17 1C -0.26511478 1 -0.5196423 0.89457124 -0.70710677 0.70710677C -0.89457124 0.5196423 -1 0.26511478 -1 1.2246469E-16C -1 -0.26511478 -0.89457124 -0.5196423 -0.70710677 -0.70710677C -0.5196423 -0.89457124 -0.26511478 -1 -1.6081226E-16 -1C 0.26511478 -1 0.5196423 -0.89457124 0.70710677 -0.70710677C 0.89457124 -0.5196423 1 -0.26511478 1 -2.4492937E-16z" fill="white"/>
</mask>
                <clipPath  id="6">

                    <path clip-rule="evenodd" d="M681.47 223.98C 667.146 223.98 644.001 214.91 644.001 177.449C 644.001 152.871 654.501 130.199 680.032 130.199C 696.974 130.199 716.30597 142.371 716.30597 178.41C 716.30597 208.238 702.47 223.98001 681.47 223.98001L681.47 223.98001L681.47 223.98z" />                </clipPath>
    <radialGradient cx="0%" cy="0%" r="127.080574%" gradientUnits="objectBoundingBox" id="14466">
        <stop offset="0%" stop-color="#1A2B69" stop-opacity="1"/>
        <stop offset="32.047%" stop-color="#1A2B69" stop-opacity="1"/>
        <stop offset="90.184%" stop-color="#1FB6DE" stop-opacity="1"/>
        <stop offset="100%" stop-color="#1FB6DE" stop-opacity="1"/>
    </radialGradient>
<mask id="14862">
<path  transform="matrix(1572.6 2050.9 2050.9 -1572.6 20.705 17.37)"   d="M1 0C 1 0.26511478 0.89457124 0.5196423 0.70710677 0.70710677C 0.5196423 0.89457124 0.26511478 1 6.123234E-17 1C -0.26511478 1 -0.5196423 0.89457124 -0.70710677 0.70710677C -0.89457124 0.5196423 -1 0.26511478 -1 1.2246469E-16C -1 -0.26511478 -0.89457124 -0.5196423 -0.70710677 -0.70710677C -0.5196423 -0.89457124 -0.26511478 -1 -1.6081226E-16 -1C 0.26511478 -1 0.5196423 -0.89457124 0.70710677 -0.70710677C 0.89457124 -0.5196423 1 -0.26511478 1 -2.4492937E-16z" fill="white"/>
</mask>
                <clipPath  id="7">

                    <path clip-rule="evenodd" d="M1308 471.39C 1293.67 471.39 1270.53 462.33102 1270.53 424.858C 1270.53 400.288 1281.03 377.62 1306.55 377.62C 1323.51 377.62 1342.8301 389.78 1342.8301 425.819C 1342.8301 455.64 1329.0001 471.39 1308.0001 471.39L1308.0001 471.39L1308 471.39z" />                </clipPath>
    <radialGradient cx="0%" cy="0%" r="127.080574%" gradientUnits="objectBoundingBox" id="15798">
        <stop offset="0%" stop-color="#1A2B69" stop-opacity="1"/>
        <stop offset="32.047%" stop-color="#1A2B69" stop-opacity="1"/>
        <stop offset="90.184%" stop-color="#1FB6DE" stop-opacity="1"/>
        <stop offset="100%" stop-color="#1FB6DE" stop-opacity="1"/>
    </radialGradient>
<mask id="16194">
<path  transform="matrix(1572.6 2050.9 2050.9 -1572.6 20.705 17.37)"   d="M1 0C 1 0.26511478 0.89457124 0.5196423 0.70710677 0.70710677C 0.5196423 0.89457124 0.26511478 1 6.123234E-17 1C -0.26511478 1 -0.5196423 0.89457124 -0.70710677 0.70710677C -0.89457124 0.5196423 -1 0.26511478 -1 1.2246469E-16C -1 -0.26511478 -0.89457124 -0.5196423 -0.70710677 -0.70710677C -0.5196423 -0.89457124 -0.26511478 -1 -1.6081226E-16 -1C 0.26511478 -1 0.5196423 -0.89457124 0.70710677 -0.70710677C 0.89457124 -0.5196423 1 -0.26511478 1 -2.4492937E-16z" fill="white"/>
</mask>
</defs>

<g transform="matrix(0.86169755 0 0 0.86169755 208.2766 -0)">
	<g transform="matrix(1.3333 0 -0 -1.3333 0 278.52)">
		<g transform="matrix(0.1 0 0 0.1 0 0)">
            <path d="M1596.7 0L0 0L0 2088.9L1596.7 2088.9L1596.7 0" stroke="none" fill="#FFFFFF" fill-rule="nonzero" />
			<g clip-path="url(#1)" >
                <path d="M1497.6 857.42C 1531.12 857.42 1564.1799 859.299 1596.65 862.928L1596.65 862.928L1596.48 2088.8281L911.87 2088.8281C 778.06 1957.8882 694.33 1782.1382 694.33 1590.1082C 694.33 1185.4282 1053.96 857.3882 1497.6001 857.3882" stroke="none" mask="url(#767)" fill="url(#373)"  />
			</g>
			<g clip-path="url(#2)" >
                <path d="M1003.2 399.57C 1003.2 391.93 1007.98004 378.80902 1028.03 378.80902C 1039.48 378.80902 1048.0701 383.35202 1053.5701 391.69904C 1058.5801 399.80902 1058.81 406.48004 1059.28 423.19904C 1055.23 423.67203 1051.89 423.91003 1046.4 423.91003C 1037.34 423.91003 1003.2 423.91003 1003.2 399.57004" stroke="none" mask="url(#2177)" fill="url(#1782)"  />
			</g>
			<g clip-path="url(#3)" >
                <path d="M668.84 429.16L733.984 429.16L702.254 513.641L668.84 429.16z" stroke="none" mask="url(#3325)" fill="url(#2930)"  />
			</g>
			<g clip-path="url(#4)" >
                <path d="M1501.5 364.97L1478.59 364.97L1478.59 441.091C 1478.59 448.962 1477.63 456.122 1472.15 461.61002C 1466.41 467.10303 1458.54 469.72 1450.9 469.72C 1434.67 469.72 1419.64 458.032 1419.64 433.923L1419.64 433.923L1419.64 364.97L1397.22 364.97L1397.22 470.91998L1396.97 484.748L1419.4 484.748L1419.64 465.42798C 1422.27 470.447 1430.85 487.14597 1458.06 487.14597C 1468.8 487.14597 1501.5 483.08795 1501.5 446.34998L1501.5 446.34998L1501.5 364.97zM1306.12 360.923C 1266.51 360.923 1247.17 388.36002 1247.17 423.44202C 1247.17 453.02103 1261.02 487.86002 1308.03 487.86002C 1355.99 487.86002 1366.72 450.161 1366.72 425.10303C 1366.72 390.02103 1346.9199 360.92303 1306.12 360.92303zM1219.78 512.203L1192.8 512.203L1192.8 536.78503L1219.78 536.78503zM1217.62 364.97302L1195.19 364.97302L1195.19 484.75302L1217.62 484.75302zM1171.54 468.773L1144.81 468.773L1144.81 396.944C 1144.81 390.983 1144.81 380.964 1160.79 380.964C 1165.3301 380.964 1169.63 381.675 1171.54 382.151L1171.54 382.151L1171.54 364.733C 1167.4701 364.015 1161.03 363.30402 1152.92 363.30402C 1132.4 363.30402 1122.62 369.273 1122.62 388.84302L1122.62 388.84302L1122.62 468.773L1101.37 468.773L1101.37 485.233L1122.62 485.233L1122.62 510.292L1144.8099 517.464L1144.8099 485.233L1171.5399 485.233zM1060.8301 116.84302L1043.65 72.222015L1020.51 72.222015L1038.64 118.042015L988.774 237.34201L1014.07 237.34201L1051.53 142.854L1089.7101 237.34201L1114.05 237.34201zM1055.02 465.19302C 1050.49 471.16202 1040.72 473.06104 1034.26 473.06104C 1011.59 473.06104 1010.4 457.56104 1010.17 452.78302L1010.17 452.78302L987.727 452.78302C 988.442 458.99002 989.153 467.342 996.075 475.463C 1005.16003 485.471 1022.09 488.342 1034.74 488.342C 1052.17 488.342 1070.76 482.854 1077.22 470.682C 1081.0399 463.522 1081.27 457.79102 1081.27 452.303L1081.27 452.303L1080.3201 395.04102C 1080.3201 393.12302 1080.56 377.143 1082.2201 364.971L1082.2201 364.971L1061.9501 364.971C 1060.27 370.932 1059.8 376.66202 1059.8 382.86102C 1049.05 363.053 1032.8301 361.15002 1022.80005 361.15002C 995.3641 361.15002 980.57104 376.66202 980.57104 396.471C 980.57104 406.002 983.90704 421.28302 1001.57007 431.553C 1014.4601 438.713 1033.55 439.424 1043.0901 439.424C 1048.8201 439.424 1052.4001 439.19302 1059.31 438.713C 1059.31 453.49002 1059.31 459.94302 1055.02 465.19302zM974.141 221.36302L947.415 221.36302L947.415 149.53502C 947.415 143.56302 947.415 133.54301 963.40295 133.54301C 967.92993 133.54301 972.23096 134.26602 974.1409 134.73401L974.1409 134.73401L974.1409 117.324005C 970.0899 116.61301 963.64496 115.883 955.51996 115.883C 934.99994 115.883 925.21497 121.856 925.21497 141.414L925.21497 141.414L925.21497 221.363L903.98895 221.363L903.98895 237.824L925.21497 237.824L925.21497 262.875L947.415 270.043L947.415 237.824L974.141 237.824zM883.868 264.78503L856.915 264.78503L856.915 289.36304L883.868 289.36304zM881.73096 117.56503L859.29694 117.56503L859.29694 237.34503L881.73096 237.34503zM830.98096 364.97504L780.86395 484.75504L805.91797 484.75504L844.094 389.78604L881.321 484.75504L906.14496 484.75504L853.657 364.97504zM836.69995 216.35504C 835.50793 216.82304 834.06696 217.06204 832.4069 217.30405C 830.7349 217.54205 828.58594 217.54205 825.95795 217.54205C 799.46893 217.54205 793.26996 201.79205 793.26996 181.27306L793.26996 181.27306L793.26996 117.56206L770.6019 117.56206L770.6019 213.01506C 770.6019 221.12405 770.12494 229.47206 769.4069 237.34306L769.4069 237.34306L792.0789 237.34306L792.55493 214.20206C 796.84796 230.90106 811.1649 236.39406 821.1959 237.82306C 827.87195 238.78406 832.88293 238.53406 836.69995 238.30406zM741.16797 409.82504L661.22296 409.82504L642.61395 364.97403L618.03595 364.97403L690.579 537.26404L716.11 537.26404L785.79 364.97406L759.77795 364.97406zM679.579 113.505035C 639.961 113.505035 620.633 140.95404 620.633 176.02504C 620.633 205.60704 634.473 240.45404 681.489 240.45404C 729.44604 240.45404 740.188 202.74304 740.188 177.69604C 740.188 142.61404 720.383 113.50504 679.579 113.50504zM591.297 117.56403L568.387 117.56403L568.387 188.43503C 568.387 199.16502 568.387 222.31403 542.614 222.31403C 525.911 222.31403 517.555 212.06403 514.45404 206.32503C 510.63705 199.65303 510.63705 188.43503 510.63705 181.03603L510.63705 181.03603L510.63705 117.564026L487.96506 117.564026L487.96506 289.604L510.63705 289.604L510.63705 219.701C 518.04004 232.334 532.82904 239.502 549.5281 239.502C 562.18005 239.502 580.3171 234.971 587.2391 220.412C 589.6221 215.631 591.29706 209.90001 591.29706 192.494zM474.257 512.20404L447.289 512.20404L447.289 536.786L474.257 536.786zM472.10498 364.97406L449.679 364.97406L449.679 484.75406L472.10498 484.75406zM464.44098 221.36406L437.71097 221.36406L437.71097 149.53606C 437.71097 143.56406 437.71097 133.54405 453.70297 133.54405C 458.23398 133.54405 462.53098 134.26706 464.44098 134.73505L464.44098 134.73505L464.44098 117.32504C 460.382 116.614044 453.94098 115.88404 445.82797 115.88404C 425.304 115.88404 415.51898 121.85704 415.51898 141.41504L415.51898 141.41504L415.51898 221.36404L394.27698 221.36404L394.27698 237.82504L415.51898 237.82504L415.51898 262.87604L437.71097 270.04404L437.71097 237.82504L464.44098 237.82504zM351.80096 364.97406L301.69595 484.75406L326.75095 484.75406L364.92993 389.78506L402.15292 484.75406L426.97293 484.75406L374.47293 364.97406zM349.24295 117.56406L348.75797 138.07506C 344.46198 129.72406 336.35196 116.36406 310.58298 116.36406C 280.99298 116.36406 267.15298 133.31406 267.15298 156.93506L267.15298 156.93506L267.15298 237.34506L290.063 237.34506L290.063 160.27505C 290.063 148.58705 292.684 133.78606 315.594 133.78606C 326.805 133.78606 337.309 137.60706 343.751 147.15306C 348.758 154.30606 348.758 163.60706 348.758 169.58707L348.758 169.58707L348.758 237.34506L371.911 237.34506L371.911 139.98506C 371.911 137.60706 372.383 124.255066 372.622 117.564064zM256.89496 484.75406L279.32095 484.75406L279.32095 364.97406L256.89496 364.97406zM254.50797 536.78503L281.46896 536.78503L281.46896 512.203L254.50797 512.203zM225.40697 117.56503L206.79797 162.42804L126.85997 162.42804L108.242966 117.56504L83.66897 117.56504L156.20798 289.84503L181.73898 289.84503L251.41498 117.56503zM170.04398 539.645C 194.39098 539.645 228.75098 529.86304 231.85597 490.734L231.85597 490.734L206.32097 490.734C 205.36397 496.695 202.26196 520.555 169.09097 520.555C 127.574974 520.555 120.17297 478.086 120.17297 449.445C 120.17297 416.992 129.48097 381.914 168.85597 381.914C 179.35197 381.914 189.37598 384.543 196.77397 392.184C 202.97697 398.86298 204.41096 406.254 205.12598 410.305L205.12598 410.305L231.37198 410.305C 227.79797 376.426 196.53598 362.344 166.94998 362.344C 106.33298 362.344 94.63698 415.805 94.63698 449.203C 94.63698 485.473 108.71598 539.645 170.04398 539.645zM103.711975 784.66504L127.574974 784.66504L127.574974 678.005C 127.574974 659.63403 131.62598 651.993 135.21198 646.985C 145.94998 632.653 162.65297 630.044 174.58698 630.044C 221.11398 630.044 221.11398 666.556 221.11398 678.954L221.11398 678.954L221.11398 784.664L244.25798 784.664L244.25798 678.474C 244.25798 669.177 244.02399 649.857 230.17998 632.653C 213.23898 611.427 186.98898 608.806 174.58698 608.806C 158.34798 608.806 129.71597 613.33704 113.73097 636.247C 108.48097 643.88403 103.711975 653.903 103.711975 679.677zM283.83197 784.66504L307.45697 784.66504L307.45697 709.275L379.28098 784.66504L411.972 784.66504L334.89798 707.59503L420.32797 612.37604L386.91797 612.37604L307.45697 703.775L307.45697 612.37604L283.83197 612.37604zM509.49197 537.015L531.922 537.015L531.922 364.97504L509.492 364.97504zM951.282 484.75302L951.282 364.97302L928.868 364.97302L928.868 484.75302zM926.47296 536.784L953.438 536.784L953.438 512.202L926.47296 512.202zM1596.673 829.43396C 1487.923 794.863 1373.403 776.59393 1252.323 776.59393C 652.823 776.59393 166.823 1235.914 166.823 1802.394C 166.823 1920.654 188.034 2034.234 226.995 2088.834L226.995 2088.834L0.024993896 2088.834L0.024993896 -0.06591797L1596.725 -0.06591797L1596.625 829.3641" stroke="none" mask="url(#12377)" fill="url(#11981)"  />
			</g>
			<g clip-path="url(#5)" >
                <path d="M134.46 181.75L199.6 181.75L167.862 266.219L134.46 181.75z" stroke="none" mask="url(#13525)" fill="url(#13129)"  />
			</g>
			<g clip-path="url(#6)" >
                <path d="M681.47 223.98C 667.146 223.98 644.001 214.91 644.001 177.449C 644.001 152.871 654.501 130.199 680.032 130.199C 696.974 130.199 716.30597 142.371 716.30597 178.41C 716.30597 208.238 702.47 223.98001 681.47 223.98001" stroke="none" mask="url(#14862)" fill="url(#14466)"  />
			</g>
			<g clip-path="url(#7)" >
                <path d="M1308 471.39C 1293.67 471.39 1270.53 462.33102 1270.53 424.858C 1270.53 400.288 1281.03 377.62 1306.55 377.62C 1323.51 377.62 1342.8301 389.78 1342.8301 425.819C 1342.8301 455.64 1329.0001 471.39 1308.0001 471.39" stroke="none" mask="url(#16194)" fill="url(#15798)"  />
			</g>
		</g>
	</g>
</g>
</svg>
