<svg id="Layer_1" data-name="Layer 1" xmlns="http://www.w3.org/2000/svg" viewBox="0 0 211.61 72.72"><defs><style>.cls-1{fill:#007262;}.cls-2,.cls-3{fill:#fff;}.cls-3{fill-rule:evenodd;}</style></defs><title>CadwWGVersion1(process)L-Wt-Dragon</title><polygon class="cls-1" points="0 21.31 84.94 21.31 84.94 72.53 0 72.53 0 21.31 0 21.31"/><path class="cls-2" d="M28.86,88.55a3,3,0,0,1,2,.83c.4.43,1.69,1.37,1.69-2s-1.34-2.39-1.69-2a3.24,3.24,0,0,1-2,.83A2.19,2.19,0,0,1,26.64,84a3,3,0,0,1,.86-2c.43-.4,1.36-1.69-2-1.69s-2.39,1.35-2,1.69a3.18,3.18,0,0,1,.84,2,2.18,2.18,0,0,1-2.22,2.22,2.9,2.9,0,0,1-2-.85c-.4-.43-1.69-1.37-1.69,2s1.34,2.39,1.69,2a3.2,3.2,0,0,1,2-.83,2.14,2.14,0,0,1,2.23,2.16,2.93,2.93,0,0,1-.86,2c-.43.4-1.36,1.69,2,1.69s2.4-1.34,2-1.69a3.24,3.24,0,0,1-.84-2,2.24,2.24,0,0,1,2.21-2.17Z" transform="translate(-13.77 -26.45)"/><path class="cls-2" d="M20,84.41a6.85,6.85,0,0,1,2.52-2.52c.27.49.58.74.78,1.11a5.2,5.2,0,0,0-2.22,2.23c-.42-.23-.54-.49-1.08-.82Z" transform="translate(-13.77 -26.45)"/><path class="cls-2" d="M22.48,92.85A6.88,6.88,0,0,1,20,90.36c.39-.17.62-.57,1.12-.8a5.18,5.18,0,0,0,2.18,2.19c-.27.53-.59.62-.82,1.1Z" transform="translate(-13.77 -26.45)"/><path class="cls-2" d="M28.45,92.82a6.48,6.48,0,0,0,.84-.51c.79-.6.07-1.73-.83-1.07a4.68,4.68,0,0,1-.8.5c.26.48.51.55.79,1.08Z" transform="translate(-13.77 -26.45)"/><path class="cls-2" d="M28.47,81.92a6.7,6.7,0,0,1,.83.56c.82.67-.1,1.72-.93,1a4.32,4.32,0,0,0-.73-.47c.25-.44.52-.61.83-1.08Z" transform="translate(-13.77 -26.45)"/><path class="cls-3" d="M61.41,91.11c-.81.57-1.07.62-1.31.62s-.57-.22-.57-.76V86c0-2.4-1.87-3.33-4.63-3.33A9,9,0,0,0,50.15,84v2.81a6,6,0,0,1,4-1.83c1.5,0,2,.81,1.9,1.83-4.59,1.42-6.51,1.94-6.51,4.56A2.92,2.92,0,0,0,52.64,94a6.15,6.15,0,0,0,3.62-1.23c.23.88.78,1.23,1.92,1.23a7.16,7.16,0,0,0,3.23-1V91.11Zm-5.32,0a2.93,2.93,0,0,1-1.9.83,1.14,1.14,0,0,1-1.12-1.17c0-1.09,1-1.56,3-2.3v2.64Z" transform="translate(-13.77 -26.45)"/><path class="cls-2" d="M47.59,90.56a10.62,10.62,0,0,1-3.67,1,4.13,4.13,0,0,1-4.21-4.06,4.2,4.2,0,0,1,4.37-4,7.74,7.74,0,0,1,3.32.9V81.63a13.28,13.28,0,0,0-4.3-.84c-4.21,0-7.23,2.77-7.23,6.68s2.91,6.6,7.4,6.6a12.53,12.53,0,0,0,4.32-.86V90.56Z" transform="translate(-13.77 -26.45)"/><polygon class="cls-2" points="71.1 61.62 73.78 67.39 75.49 67.39 80.39 56.42 76.88 56.42 74.57 62.45 72.15 56.42 70.06 56.42 67.61 62.45 65.31 56.42 61.79 56.42 66.6 67.39 68.43 67.39 71.1 61.62 71.1 61.62"/><path class="cls-3" d="M74.14,78.62H70.69v4.72a6.36,6.36,0,0,0-2.84-.69c-3.14,0-5.33,2.33-5.33,5.68S64.71,94,67.65,94a4.49,4.49,0,0,0,3-1.09v.88h3.45V78.62Zm-3.45,12.2a2.84,2.84,0,0,1-2,.91C67,91.73,66,90.4,66,88.4,66,86.22,67,85,68.77,85a3.64,3.64,0,0,1,1.92.64v5.22Z" transform="translate(-13.77 -26.45)"/><path class="cls-2" d="M158.57,43.61a2,2,0,0,1,.8-.93,3.9,3.9,0,0,1,2.15-.22c.74.08,2.28.76,4.5,2.61a37.75,37.75,0,0,1,4.23,4.08,11.93,11.93,0,0,1,.93-1.83A51,51,0,0,0,163,42.07c-1.79-.72-4.24-.92-4.45,1.54Z" transform="translate(-13.77 -26.45)"/><path class="cls-2" d="M160.43,40.52c2.16-.54,2.4.89,2.86,1.23l1.65,1c-2.23-4.95-4.51-2.24-4.51-2.24Z" transform="translate(-13.77 -26.45)"/><path class="cls-2" d="M161.38,43c5.13,3.75.83,5.49.83,5.49a1.71,1.71,0,0,0,2.25-.51,3.85,3.85,0,0,0,.39-.79,2.52,2.52,0,0,0,.16-.73,70.88,70.88,0,0,1,5.09,6.44,10.87,10.87,0,0,1-.21-2.42c-1.54-1.86-2.06-2.52-3.07-3.64-3-3.38-5.44-3.84-5.44-3.84" transform="translate(-13.77 -26.45)"/><path class="cls-2" d="M182.63,42.67a8.17,8.17,0,0,1-.09-2.71,16.61,16.61,0,0,0,.62-2l.11.06.81.5a7.41,7.41,0,0,1-.82-2.19c0-.08,0-.17-.06-.26a5.91,5.91,0,0,0-1.07-2.26,5.64,5.64,0,0,1,.35,2.47c-.18,2.3-3.44,4.94-2.7,9a7.87,7.87,0,0,0,2.63,4A18,18,0,0,1,181.2,45a5.94,5.94,0,0,1,.64-3.25L182,42l.61.72Z" transform="translate(-13.77 -26.45)"/><path class="cls-2" d="M205.19,26.91a82,82,0,0,0-8.66,1.86c-2.88.92-7.06,2.73-9,5.1s-.3,6.14-.78,8.64-4.21,5.05-4.21,5.05,4.33-1.11,5.92-4.59c1.18-2.57-.31-4.35,1.49-8.3s15.2-7.76,15.2-7.76Z" transform="translate(-13.77 -26.45)"/><path class="cls-2" d="M205.34,27.19s-4.78,1.48-6.29,6.16l2.14-.47s0-2.92,4.15-5.69Z" transform="translate(-13.77 -26.45)"/><path class="cls-2" d="M212.92,33.66a35.32,35.32,0,0,0-14.94.67c-7.41,2.17-6.36,6-6.44,8.2s-1.91,6.94-8.43,6.31c0,0,3.87,2.11,8.17-1.36s1.3-7.67,4.76-9.68,6.14-3.66,16.88-4.14Z" transform="translate(-13.77 -26.45)"/><path class="cls-2" d="M194.15,44.36a8.36,8.36,0,0,1,4.67,2.44,7.2,7.2,0,0,0-5.06-1.37,6,6,0,0,0,.39-1.07Z" transform="translate(-13.77 -26.45)"/><path class="cls-2" d="M206.88,41.15s-7.11.17-7.18,6.14c-.13-.22-3.91-6.81,7.18-6.14Z" transform="translate(-13.77 -26.45)"/><path class="cls-2" d="M212.4,34h0c-7.16,1.47-5.52,7.11-5.52,7.11h0C203.24,33.91,212.4,34,212.4,34Z" transform="translate(-13.77 -26.45)"/><path class="cls-2" d="M192.55,52.6a8.07,8.07,0,0,1,7.11-5.24c-5.38-1.06-6.75,1.66-7.06,3.56a58,58,0,0,0-8.53-1,22.89,22.89,0,0,1,8.48,2.67Z" transform="translate(-13.77 -26.45)"/><path class="cls-2" d="M163.52,67.58A4.77,4.77,0,0,1,166,67.1a8,8,0,0,0,2.4-.52c-.67,0-2.24-.79-3.63-.62a1.44,1.44,0,0,0-1.23,1.62Z" transform="translate(-13.77 -26.45)"/><path class="cls-2" d="M190,64a1.09,1.09,0,0,1,.93-1.22,11.36,11.36,0,0,1,2.72.47,5.8,5.8,0,0,1-1.8.38A3.63,3.63,0,0,0,190,64Z" transform="translate(-13.77 -26.45)"/><path class="cls-2" d="M200.1,68.15a4.24,4.24,0,0,1,2.22-.44,12.91,12.91,0,0,0,1.86,0c-.6,0-1.55-1.23-3-1a1.33,1.33,0,0,0-1.11,1.46Z" transform="translate(-13.77 -26.45)"/><path class="cls-2" d="M206.3,40.87c-8.66-2.08-11.35-.59-11.35-.59s.19-.49.31-.76c.19-.43.25-.55.3-.65a23.72,23.72,0,0,1,10.74,2Z" transform="translate(-13.77 -26.45)"/><path class="cls-2" d="M173.15,35.37a3.43,3.43,0,0,0-2.12-1c-1.65,0-3,1.76-4.5,1.76a4.19,4.19,0,0,1-2.2-.49,3.15,3.15,0,0,0,2.29,1.19c1.82,0,3.17-1.79,4.38-1.79a6.49,6.49,0,0,1,2.15.37Z" transform="translate(-13.77 -26.45)"/><path class="cls-2" d="M176.93,37.26a8.28,8.28,0,0,1,.11,2.6c-.15,2.89-5.78,6.86-5.71,11.63a6.35,6.35,0,0,0,2.14,4.56,11,11,0,0,1-.52-5c.58-3.5,5-7.49,4.85-10.93a4.37,4.37,0,0,0-.87-2.82Z" transform="translate(-13.77 -26.45)"/><path class="cls-2" d="M174.2,56a5.92,5.92,0,0,1-.21-3.79c.42-1.15,1.51-2.13,3.65-2.67,0,0-3.75,3.42-1,6.37a16.74,16.74,0,0,0-2.71,3.87c-.75,1.78-2.38,5.51-2.92,6.37a7.05,7.05,0,0,1-3.45,2.95c-2.37.21-5,.6-5.14,2.43a2.21,2.21,0,0,1-.42-1.61c.05-1.16,2-2.45,4-2.38s3.81-.44,4.75-2.87,3-8.24,3.48-8.67Z" transform="translate(-13.77 -26.45)"/><path class="cls-2" d="M177.4,56.2S174.35,65.57,169,69c0,0,3.27-.47,4.28-.06s2,1.1,1.06,2.67c0,0,1.94-1.07,1.41-2.68-.43-1.27-2.33-1.37-2.33-1.37s-.55-.24-.23-1a41.41,41.41,0,0,1,2.69-4c.33-.49,3-4.5,3.09-4.74a3.45,3.45,0,0,0,3.46-1.89c1.17-2.32-1.32-4.57-1.32-4.57s1.09,2.49-.17,3.72a4.51,4.51,0,0,1-3.52,1.15Z" transform="translate(-13.77 -26.45)"/><path class="cls-2" d="M180,58.38a5.42,5.42,0,0,0,1.51-.52s.52.57,2.68.52h.37a38.85,38.85,0,0,0,9.92-3.07l.5.82c-3.59,1.21-7.92,4.62-13.34,4.08-.39,0-2.17-.4-2.54-.51.22-.31.9-1.32.9-1.32Z" transform="translate(-13.77 -26.45)"/><path class="cls-2" d="M195.46,62.94a4.88,4.88,0,0,1-2.65,2.31c-1.61,0-3.55.36-3.68,1.73a1.68,1.68,0,0,1-.32-1.2c0-.88,1.23-1.82,3-1.73a2.89,2.89,0,0,0,3.13-2.19c.45-1.11,0-3.49.57-5,0,0,.82.63,1.17.92,0,0,0,0-.14.41-.56,1.33-.29,3.26-1.06,4.75Z" transform="translate(-13.77 -26.45)"/><path class="cls-2" d="M197.74,58.28s.47.32.91.56a15.31,15.31,0,0,0-.56,1.65c-.15.42-.66,2.13-.9,2.74s.17.79.17.79,1.43.08,1.74,1c.41,1.2-1,2-1,2,.74-1.17,0-1.69-.79-2a9,9,0,0,0-3,0c2.33-1.27,3.09-5.93,3.46-6.81Z" transform="translate(-13.77 -26.45)"/><path class="cls-2" d="M206.55,67.77s.62,1.3.26,1.77c-1.4,0-2.36,0-4.43.21-1.92.19-3.17.32-3.32,2a2,2,0,0,1-.38-1.45c0-1,1.77-2.21,3.58-2.14a16.24,16.24,0,0,0,2.52-.1c.55-.28-.83-2.92-1.07-3.4-2-4-2-5.32-2-5.53,0,0-5.62-1.06-7-4.89,4.46,3.8,8.16,3.77,8.16,3.77a65.9,65.9,0,0,0,3.72,9.79Z" transform="translate(-13.77 -26.45)"/><path class="cls-2" d="M208,46.64c.59,0,1.08,0,1.64,0,2.44-5.22,6.6-10.61,6.6-13.79a5.25,5.25,0,0,0-1.42-3.45l-.24.78a12.65,12.65,0,0,0-2-3.29l0,0a20.54,20.54,0,0,1,3.55,1.78h0l-.67.17h0a5.68,5.68,0,0,1,1.59,4c.14,3.79-4,8.14-6.34,13.86,5.35.67,9.09,4,9.09,7.61,0,5.08-3.11,6.86-5.93,6.9a6.23,6.23,0,0,1-3.39-.91c-1.5-.89-2.76-2.55-2.76-5.77a16.46,16.46,0,0,1,1.15-6.23h0a21.51,21.51,0,0,0-3.65.42l-1.44.44a5.62,5.62,0,0,1,2.77,3.62,10.23,10.23,0,0,1-.49,5c-.14,2,.74,5,1.43,7.26l.76,2a2.2,2.2,0,0,0,1,1.15s1.57.23,2,1.18a1.45,1.45,0,0,1-.42,1.91c.36-1.52-1-1.68-1.73-1.8h-.06a5,5,0,0,0-1.27,0A15.84,15.84,0,0,0,207,66.4s-1.26-3.63-1.79-5.23a29.89,29.89,0,0,1-.94-4s3.8-6.32-4.69-9.17a5.59,5.59,0,0,1,1.06,0,16.07,16.07,0,0,1,2.2-.64,22.71,22.71,0,0,1,5.17-.74Zm2.11,1.71a18.88,18.88,0,0,0-1,6.7c.08,2.22,1.51,5.3,5,5a4.35,4.35,0,0,0,3.55-2.53,6.88,6.88,0,0,0,.64-2.85,6,6,0,0,0-2.16-4.24,9.07,9.07,0,0,0-6-2.07" transform="translate(-13.77 -26.45)"/><path class="cls-2" d="M172.61,32s-2.93-.93-4.75.55l1,1.66a3.13,3.13,0,0,1,4.84,1,4.93,4.93,0,0,1-4.77,1.45,3.49,3.49,0,0,0,3,1.5c2.15,0,4.24-2.18,4.91-1.45,0,0-.22-3.07,3.53-4.16a4.6,4.6,0,0,1,1,1.09,4.13,4.13,0,0,0,1.17-3.35,4.85,4.85,0,0,0-1.89-3.86,4.88,4.88,0,0,1-.35,2.74A2.9,2.9,0,0,1,177.88,31a6.67,6.67,0,0,1-1.7-.19c-.67-.2-3.36-1.11-3.57,1.27Zm3.27-.19a1.61,1.61,0,0,1-2.28.64s0-.91.82-.83.68.42,1.46.19Z" transform="translate(-13.77 -26.45)"/><path class="cls-2" d="M150.11,80.38h.9v6.36h2.34v.77h-3.24Z" transform="translate(-13.77 -26.45)"/><path class="cls-2" d="M154.19,79.84H155v7.67h-.85Z" transform="translate(-13.77 -26.45)"/><path class="cls-2" d="M158.21,88.58c-.25.89-.62,1.2-1.27,1.2a2.61,2.61,0,0,1-.59-.06l.05-.77a1.25,1.25,0,0,0,.46.1c.25,0,.43-.12.58-.66l.2-.79L156,82.3h.9l1.16,4.25h0l1.08-4.25H160Z" transform="translate(-13.77 -26.45)"/><path class="cls-2" d="M166.08,87.51h-1L164,83.11h0l-1,4.4h-1l-1.38-5.21h.9l1,4.36h0l1-4.36h1l1,4.36h0l1-4.36h.86Z" transform="translate(-13.77 -26.45)"/><path class="cls-2" d="M170,82.23c1.38,0,2.1,1,2.1,2.68s-.72,2.67-2.1,2.67-2.1-1-2.1-2.67S168.61,82.23,170,82.23Zm0,4.66c.82,0,1.2-.67,1.2-2s-.38-2-1.2-2-1.2.68-1.2,2S169.17,86.89,170,86.89Z" transform="translate(-13.77 -26.45)"/><path class="cls-2" d="M176.83,86.55c0,.32,0,.65,0,1H176l0-.76h0a1.46,1.46,0,0,1-1.37.83c-1.07,0-1.8-.87-1.8-2.67s.73-2.68,1.8-2.68A1.44,1.44,0,0,1,176,83h0V79.84h.86Zm-2-3.63c-.79,0-1.15.68-1.15,2s.36,2,1.15,2,1.14-.67,1.14-2S175.61,82.92,174.83,82.92Z" transform="translate(-13.77 -26.45)"/><path class="cls-2" d="M178,83.42c0-.37,0-.75,0-1.12h.83l0,.82h0a1.4,1.4,0,0,1,1.48-.89v.85a1.66,1.66,0,0,0-.32,0c-.67,0-1.14.57-1.14,1.7v2.76H178Z" transform="translate(-13.77 -26.45)"/><path class="cls-2" d="M181.22,82.66a2.75,2.75,0,0,1,1.48-.43,2,2,0,0,1,1.38.49,1.57,1.57,0,0,1,.45,1.28v2.72a7.49,7.49,0,0,0,.05.79h-.78l-.05-.7h0a1.58,1.58,0,0,1-1.46.77,1.39,1.39,0,0,1-1.51-1.5c0-1,.67-1.76,2.46-1.76h.5v-.23a1.24,1.24,0,0,0-.2-.84,1,1,0,0,0-.86-.33,1.89,1.89,0,0,0-1.35.54Zm2.5,2.3a5.44,5.44,0,0,0-.61,0c-1,0-1.49.48-1.49,1.08a.81.81,0,0,0,.88.91,1.23,1.23,0,0,0,1.22-1.32Z" transform="translate(-13.77 -26.45)"/><path class="cls-2" d="M186.4,85.16c0,1.21.47,1.77,1.42,1.77A2.17,2.17,0,0,0,189,86.5l0,.78a3.56,3.56,0,0,1-1.46.3c-1.38,0-2.09-1-2.09-2.67s.71-2.68,2-2.68,1.83.94,1.83,2.47v.46Zm2.08-.65c0-1.09-.34-1.63-1-1.63s-1,.41-1.06,1.63Z" transform="translate(-13.77 -26.45)"/><path class="cls-2" d="M192.59,87.45a2.48,2.48,0,0,1-.73.13c-.78,0-1.2-.31-1.2-1.23V83h-.83V82.3h.83V81.24l.86-.26V82.3h1.07V83h-1.07v3.08c0,.59.15.82.54.82a1.26,1.26,0,0,0,.53-.13Z" transform="translate(-13.77 -26.45)"/><path class="cls-2" d="M193.32,79.84h.85V83h0a1.5,1.5,0,0,1,2.81.88v3.62h-.86V84.15c0-.83-.31-1.19-.86-1.19s-1.11.48-1.11,1.41v3.14h-.85Z" transform="translate(-13.77 -26.45)"/><path class="cls-2" d="M205.07,87.37a4.58,4.58,0,0,1-1.3.21c-2.26,0-3.21-1.71-3.21-3.64,0-2.23,1.3-3.63,3.16-3.63a3.32,3.32,0,0,1,1.35.25v.88a2.51,2.51,0,0,0-1.34-.36c-1.16,0-2.23.93-2.23,2.67s.74,3.06,2.29,3.06a2.63,2.63,0,0,0,1.28-.34Z" transform="translate(-13.77 -26.45)"/><path class="cls-2" d="M207.82,88.58c-.26.89-.62,1.2-1.28,1.2a2.52,2.52,0,0,1-.58-.06l0-.77a1.3,1.3,0,0,0,.47.1c.25,0,.43-.12.57-.66l.21-.79-1.65-5.3h.9l1.17,4.25h0l1.08-4.25h.86Z" transform="translate(-13.77 -26.45)"/><path class="cls-2" d="M210.34,83.42c0-.37,0-.75,0-1.12h.83l0,.78h0a1.37,1.37,0,0,1,2.52,0,1.36,1.36,0,0,1,1.26-.82c.91,0,1.52.52,1.52,1.66v3.62h-.86V83.94c0-.67-.29-1-.8-1s-1,.39-1,1.33v3.22H213V83.94c0-.67-.28-1-.8-1s-1,.39-1,1.33v3.22h-.86Z" transform="translate(-13.77 -26.45)"/><path class="cls-2" d="M217.52,83.42c0-.37,0-.75,0-1.12h.83l0,.82h0a1.38,1.38,0,0,1,1.48-.89v.85a1.69,1.69,0,0,0-.33,0c-.66,0-1.13.57-1.13,1.7v2.76h-.86Z" transform="translate(-13.77 -26.45)"/><path class="cls-2" d="M224.23,86.39c0,.38,0,.75,0,1.12h-.83l0-.77h0a1.34,1.34,0,0,1-1.32.84c-.91,0-1.52-.52-1.52-1.66V82.3h.85v3.36c0,.83.31,1.19.86,1.19s1.11-.47,1.11-1.41V82.3h.86Z" transform="translate(-13.77 -26.45)"/><path class="cls-2" d="M150.2,92h.93l1.17,5.78h0L153.6,92h1.15L156,97.74h0L157.29,92h.86l-1.55,7.13h-1.07L154.18,93h0l-1.35,6.11h-1.06Z" transform="translate(-13.77 -26.45)"/><path class="cls-2" d="M159.25,96.74c0,1.21.47,1.77,1.42,1.77a2.29,2.29,0,0,0,1.2-.43l0,.78a3.59,3.59,0,0,1-1.46.3c-1.38,0-2.1-1-2.1-2.67s.72-2.68,2-2.68,1.83.94,1.83,2.47v.46Zm2.09-.65c0-1.09-.34-1.63-1-1.63s-1,.41-1.07,1.63Z" transform="translate(-13.77 -26.45)"/><path class="cls-2" d="M163.43,91.42h.86v7.67h-.86Z" transform="translate(-13.77 -26.45)"/><path class="cls-2" d="M165.6,98.08a2.44,2.44,0,0,0,1.23.39c.65,0,1-.34,1-.74s-.19-.6-.67-.82l-.57-.25c-.75-.34-1-.68-1-1.34a1.53,1.53,0,0,1,1.68-1.51,3.25,3.25,0,0,1,1.1.18l0,.74a2.43,2.43,0,0,0-1-.23c-.57,0-.86.31-.86.72s.3.65.88.88l.3.12a1.41,1.41,0,0,1,1,1.33A1.5,1.5,0,0,1,167,99.16a3.19,3.19,0,0,1-1.41-.3Z" transform="translate(-13.77 -26.45)"/><path class="cls-2" d="M169.61,91.42h.85v3.17h0a1.4,1.4,0,0,1,1.27-.78,1.44,1.44,0,0,1,1.53,1.66v3.62h-.86V95.73c0-.83-.31-1.19-.86-1.19s-1.11.47-1.11,1.41v3.14h-.85Z" transform="translate(-13.77 -26.45)"/><path class="cls-2" d="M181.83,98.79a5.41,5.41,0,0,1-1.77.37c-2.26,0-3.21-1.71-3.21-3.65,0-2.23,1.3-3.63,3.16-3.63a3.94,3.94,0,0,1,1.68.32v.9a3.79,3.79,0,0,0-1.67-.44c-1.16,0-2.23.93-2.23,2.67s.74,3,2.29,3a2.15,2.15,0,0,0,.89-.19V95.94h-1.19v-.77h2.05Z" transform="translate(-13.77 -26.45)"/><path class="cls-2" d="M185.08,93.81c1.38,0,2.1,1,2.1,2.68s-.72,2.67-2.1,2.67-2.09-1-2.09-2.67S183.7,93.81,185.08,93.81Zm0,4.66c.82,0,1.2-.68,1.2-2s-.38-2-1.2-2-1.19.68-1.19,2S184.26,98.47,185.08,98.47Z" transform="translate(-13.77 -26.45)"/><path class="cls-2" d="M187.64,93.88h.94l1.14,4.35h0l1.17-4.35h.9l-1.56,5.21h-1Z" transform="translate(-13.77 -26.45)"/><path class="cls-2" d="M193.17,96.74c0,1.21.47,1.77,1.42,1.77a2.29,2.29,0,0,0,1.2-.43l0,.78a3.67,3.67,0,0,1-1.47.3c-1.38,0-2.09-1-2.09-2.67s.71-2.68,2-2.68,1.83.94,1.83,2.47v.46Zm2.08-.65c0-1.09-.34-1.63-1-1.63s-1,.41-1.06,1.63Z" transform="translate(-13.77 -26.45)"/><path class="cls-2" d="M197.06,95c0-.38,0-.75,0-1.12h.83l0,.81h0a1.39,1.39,0,0,1,1.48-.88v.85a1.12,1.12,0,0,0-.32,0c-.67,0-1.14.58-1.14,1.71v2.76h-.86Z" transform="translate(-13.77 -26.45)"/><path class="cls-2" d="M200.09,95c0-.38,0-.75-.05-1.12h.84l0,.78h0a1.32,1.32,0,0,1,1.31-.85,1.44,1.44,0,0,1,1.53,1.66v3.62h-.86V95.73c0-.83-.31-1.19-.86-1.19S201,95,201,96v3.14h-.86Z" transform="translate(-13.77 -26.45)"/><path class="cls-2" d="M205,95c0-.38,0-.75-.05-1.12h.83l0,.78h0a1.37,1.37,0,0,1,2.52,0,1.36,1.36,0,0,1,1.26-.81c.9,0,1.52.52,1.52,1.66v3.62h-.86V95.51c0-.66-.29-1-.8-1s-1,.39-1,1.33v3.22h-.86V95.51c0-.66-.28-1-.8-1s-1,.39-1,1.33v3.22H205Z" transform="translate(-13.77 -26.45)"/><path class="cls-2" d="M213,96.74c0,1.21.47,1.77,1.42,1.77a2.29,2.29,0,0,0,1.2-.43l0,.78a3.59,3.59,0,0,1-1.46.3c-1.39,0-2.1-1-2.1-2.67s.71-2.68,2-2.68,1.83.94,1.83,2.47v.46Zm2.08-.65c0-1.09-.33-1.63-1-1.63s-1,.41-1.06,1.63Z" transform="translate(-13.77 -26.45)"/><path class="cls-2" d="M216.93,95c0-.38,0-.75,0-1.12h.83l0,.78h0a1.34,1.34,0,0,1,1.32-.85c.91,0,1.52.52,1.52,1.66v3.62h-.86V95.73c0-.83-.3-1.19-.86-1.19s-1.1.47-1.1,1.41v3.14h-.86Z" transform="translate(-13.77 -26.45)"/><path class="cls-2" d="M224.16,99a2.43,2.43,0,0,1-.73.13c-.78,0-1.2-.31-1.2-1.23V94.57h-.83v-.69h.83V92.82l.86-.26v1.32h1.07v.69h-1.07v3.08c0,.59.15.82.54.82a1.13,1.13,0,0,0,.53-.14Z" transform="translate(-13.77 -26.45)"/><path class="cls-2" d="M225.11,76.26H149.06a.28.28,0,0,1-.28-.28.27.27,0,0,1,.28-.28h76.05a.28.28,0,0,1,.28.28A.29.29,0,0,1,225.11,76.26Z" transform="translate(-13.77 -26.45)"/></svg>