<svg width="315" height="78" viewBox="0 0 315 78" fill="none" xmlns="http://www.w3.org/2000/svg">
    <path d="M116.708 14.8H118.108V20.4001H125.408V14.8H126.808V27.4001H125.408V21.7001H118.108V27.4001H116.708V14.8Z" fill="#14487C"></path>
    <path d="M129.608 22.8001C129.608 20.1001 131.508 17.9001 134.108 17.9001C136.908 17.9001 138.408 20.1001 138.408 22.8001C138.408 23.0001 138.408 23.1001 138.408 23.3001H131.008C131.208 25.3001 132.608 26.5001 134.308 26.5001C135.608 26.5001 136.508 26.0001 137.208 25.2001L138.108 26.0001C137.208 27.0001 136.008 27.7001 134.308 27.7001C131.708 27.7001 129.608 25.7001 129.608 22.8001ZM137.008 22.3001C136.908 20.6001 135.908 19.1001 134.008 19.1001C132.408 19.1001 131.208 20.4001 131.008 22.3001H137.008Z" fill="#14487C"></path>
    <path d="M140.108 24.7001C140.108 22.7001 141.708 21.7001 144.108 21.7001C145.308 21.7001 146.108 21.9001 147.008 22.1001V21.8001C147.008 20.1001 146.008 19.3001 144.208 19.3001C143.108 19.3001 142.208 19.6001 141.408 20.0001L141.008 18.9001C142.008 18.4001 143.008 18.1001 144.408 18.1001C145.708 18.1001 146.708 18.4001 147.408 19.1001C148.008 19.7001 148.408 20.6001 148.408 21.8001V27.5001H147.108V26.1001C146.508 26.9001 145.408 27.7001 143.708 27.7001C141.808 27.6001 140.108 26.6001 140.108 24.7001ZM147.008 24.0001V23.1001C146.308 22.9001 145.408 22.7001 144.308 22.7001C142.608 22.7001 141.608 23.5001 141.608 24.6001C141.608 25.8001 142.708 26.5001 143.908 26.5001C145.608 26.5001 147.008 25.5001 147.008 24.0001Z" fill="#14487C"></path>
    <path d="M151.408 14.3H152.808V27.4001H151.408V14.3Z" fill="#14487C"></path>
    <path d="M156.408 25.0001V19.4001H155.108V18.2001H156.408V15.4001H157.808V18.2001H160.808V19.4001H157.808V24.8001C157.808 25.9001 158.408 26.3001 159.408 26.3001C159.908 26.3001 160.308 26.2001 160.808 26.0001V27.2001C160.308 27.5001 159.808 27.6001 159.108 27.6001C157.608 27.6001 156.408 26.9001 156.408 25.0001Z" fill="#14487C"></path>
    <path d="M163.208 14.3H164.608V19.8C165.208 18.8 166.208 18 167.808 18C170.008 18 171.408 19.5001 171.408 21.7001V27.5H170.008V22.1001C170.008 20.4001 169.108 19.3 167.408 19.3C165.808 19.3 164.608 20.5001 164.608 22.2001V27.5H163.208V14.3Z" fill="#14487C"></path>
    <path d="M179.108 25.6001L180.008 24.6001C181.308 25.8001 182.608 26.4001 184.308 26.4001C186.008 26.4001 187.108 25.5001 187.108 24.3001C187.108 23.1001 186.508 22.5001 183.808 21.9001C180.908 21.3001 179.608 20.3001 179.608 18.3001C179.608 16.3001 181.308 14.9001 183.708 14.9001C185.508 14.9001 186.908 15.4001 188.108 16.4001L187.308 17.5001C186.108 16.5001 185.008 16.1001 183.708 16.1001C182.108 16.1001 181.008 17.0001 181.008 18.1001C181.008 19.3001 181.608 20.0001 184.408 20.5001C187.208 21.1001 188.508 22.1001 188.508 24.1001C188.508 26.3001 186.708 27.7001 184.208 27.7001C182.308 27.6001 180.608 26.9001 179.108 25.6001Z" fill="#14487C"></path>
    <path d="M190.708 22.8001C190.708 20.1001 192.608 17.9001 195.208 17.9001C198.008 17.9001 199.508 20.1001 199.508 22.8001C199.508 23.0001 199.508 23.1001 199.508 23.3001H192.108C192.308 25.3001 193.708 26.5001 195.408 26.5001C196.708 26.5001 197.608 26.0001 198.308 25.2001L199.208 26.0001C198.308 27.0001 197.108 27.7001 195.408 27.7001C192.708 27.7001 190.708 25.7001 190.708 22.8001ZM198.108 22.3001C198.008 20.6001 197.008 19.1001 195.108 19.1001C193.508 19.1001 192.308 20.4001 192.108 22.3001H198.108Z" fill="#14487C"></path>
    <path d="M201.908 18.1001H203.308V20.5001C204.008 19.0001 205.308 17.8001 207.108 17.9001V19.4001H207.008C205.008 19.4001 203.308 20.9001 203.308 23.7001V27.4001H201.908V18.1001Z" fill="#14487C"></path>
    <path d="M208.308 18.1001H209.808L212.908 25.8001L216.108 18.1001H217.608L213.508 27.5001H212.308L208.308 18.1001Z" fill="#14487C"></path>
    <path d="M219.808 14.6001H221.408V16.1001H219.808V14.6001ZM219.908 18.1001H221.308V27.4001H219.908V18.1001Z" fill="#14487C"></path>
    <path d="M223.908 22.8001C223.908 20.1001 226.008 17.9001 228.708 17.9001C230.508 17.9001 231.608 18.6001 232.408 19.6001L231.508 20.6001C230.808 19.8001 229.908 19.2001 228.708 19.2001C226.808 19.2001 225.408 20.8001 225.408 22.8001C225.408 24.8001 226.908 26.4001 228.808 26.4001C230.008 26.4001 230.908 25.8001 231.608 25.0001L232.508 25.8001C231.608 26.8001 230.408 27.6001 228.708 27.6001C226.008 27.7001 223.908 25.4001 223.908 22.8001Z" fill="#14487C"></path>
    <path d="M233.908 22.8001C233.908 20.1001 235.808 17.9001 238.408 17.9001C241.208 17.9001 242.708 20.1001 242.708 22.8001C242.708 23.0001 242.708 23.1001 242.708 23.3001H235.308C235.508 25.3001 236.908 26.5001 238.608 26.5001C239.908 26.5001 240.808 26.0001 241.508 25.2001L242.408 26.0001C241.508 27.0001 240.308 27.7001 238.608 27.7001C236.008 27.7001 233.908 25.7001 233.908 22.8001ZM241.308 22.3001C241.208 20.6001 240.208 19.1001 238.308 19.1001C236.708 19.1001 235.508 20.4001 235.308 22.3001H241.308Z" fill="#14487C"></path>
    <path d="M244.408 26.2L245.108 25.2C246.108 26 247.208 26.4 248.308 26.4C249.408 26.4 250.208 25.8 250.208 24.9C250.208 24 249.108 23.6 247.908 23.3C246.408 22.9 244.808 22.4 244.808 20.7C244.808 19.1 246.108 18 248.008 18C249.108 18 250.408 18.4 251.308 19L250.708 20C249.808 19.4 248.808 19.1 247.908 19.1C246.808 19.1 246.108 19.7 246.108 20.4C246.108 21.3 247.308 21.6 248.508 22C249.908 22.4 251.508 23 251.508 24.7C251.508 26.5 250.008 27.5 248.208 27.5C246.908 27.6 245.408 27.1 244.408 26.2Z" fill="#14487C"></path>
    <path d="M258.908 25.6001L259.808 24.6001C261.108 25.8001 262.408 26.4001 264.108 26.4001C265.808 26.4001 266.908 25.5001 266.908 24.3001C266.908 23.1001 266.308 22.5001 263.608 21.9001C260.708 21.3001 259.408 20.3001 259.408 18.3001C259.408 16.3001 261.108 14.9001 263.508 14.9001C265.308 14.9001 266.708 15.4001 267.908 16.4001L267.108 17.5001C265.908 16.5001 264.808 16.1001 263.508 16.1001C261.908 16.1001 260.808 17.0001 260.808 18.1001C260.808 19.3001 261.408 20.0001 264.208 20.5001C267.008 21.1001 268.308 22.1001 268.308 24.1001C268.308 26.3001 266.508 27.7001 264.008 27.7001C262.108 27.6001 260.408 26.9001 258.908 25.6001Z" fill="#14487C"></path>
    <path d="M270.308 24.7001C270.308 22.7001 271.908 21.7001 274.308 21.7001C275.508 21.7001 276.308 21.9001 277.208 22.1001V21.8001C277.208 20.1001 276.208 19.3001 274.408 19.3001C273.308 19.3001 272.408 19.6001 271.608 20.0001L271.208 18.9001C272.208 18.4001 273.208 18.1001 274.608 18.1001C275.908 18.1001 276.908 18.4001 277.608 19.1001C278.208 19.7001 278.608 20.6001 278.608 21.8001V27.5001H277.208V26.1001C276.608 26.9001 275.508 27.7001 273.808 27.7001C272.108 27.6001 270.308 26.6001 270.308 24.7001ZM277.208 24.0001V23.1001C276.508 22.9001 275.608 22.7001 274.508 22.7001C272.808 22.7001 271.808 23.5001 271.808 24.6001C271.808 25.8001 272.908 26.5001 274.108 26.5001C275.808 26.5001 277.208 25.5001 277.208 24.0001Z" fill="#14487C"></path>
    <path d="M282.008 19.4001H280.708V18.2001H282.008V17.4001C282.008 16.3001 282.308 15.5 282.808 15C283.308 14.5 284.008 14.3 284.808 14.3C285.408 14.3 285.908 14.4 286.308 14.5V15.7001C285.808 15.6001 285.408 15.5 284.908 15.5C283.808 15.5 283.308 16.1 283.308 17.5V18.2001H286.308V19.4001H283.408V27.5H282.008V19.4001Z" fill="#14487C"></path>
    <path d="M287.308 22.8001C287.308 20.1001 289.208 17.9001 291.808 17.9001C294.608 17.9001 296.108 20.1001 296.108 22.8001C296.108 23.0001 296.108 23.1001 296.108 23.3001H288.708C288.908 25.3001 290.308 26.5001 292.008 26.5001C293.308 26.5001 294.208 26.0001 294.908 25.2001L295.808 26.0001C294.908 27.0001 293.708 27.7001 292.008 27.7001C289.408 27.7001 287.308 25.7001 287.308 22.8001ZM294.708 22.3001C294.608 20.6001 293.608 19.1001 291.708 19.1001C290.108 19.1001 288.908 20.4001 288.708 22.3001H294.708Z" fill="#14487C"></path>
    <path d="M299.008 25.0001V19.4001H297.708V18.2001H299.008V15.4001H300.408V18.2001H303.408V19.4001H300.408V24.8001C300.408 25.9001 301.008 26.3001 302.008 26.3001C302.508 26.3001 302.908 26.2001 303.408 26.0001V27.2001C302.908 27.5001 302.408 27.6001 301.708 27.6001C300.208 27.6001 299.008 26.9001 299.008 25.0001Z" fill="#14487C"></path>
    <path d="M312.808 18.1H314.308L310.408 27.7C309.608 29.6 308.708 30.3 307.308 30.3C306.508 30.3 305.908 30.1 305.308 29.8L305.808 28.7C306.308 28.9 306.708 29 307.308 29C308.108 29 308.708 28.6 309.208 27.3L305.008 18H306.508L309.908 25.8L312.808 18.1Z" fill="#14487C"></path>
    <path d="M116.808 36.4001H118.208V49.0002H116.808V36.4001Z" fill="#14487C"></path>
    <path d="M121.708 39.7H123.108V41.3C123.708 40.3 124.708 39.5 126.308 39.5C128.508 39.5 129.908 41 129.908 43.2V49H128.508V43.6C128.508 41.9 127.608 40.8 125.908 40.8C124.308 40.8 123.108 42 123.108 43.7V49H121.708V39.7Z" fill="#14487C"></path>
    <path d="M131.508 39.7H133.008L136.108 47.3999L139.308 39.7H140.808L136.708 49.1H135.508L131.508 39.7Z" fill="#14487C"></path>
    <path d="M141.908 44.4C141.908 41.7 143.808 39.5 146.408 39.5C149.208 39.5 150.708 41.7 150.708 44.4C150.708 44.6 150.708 44.7 150.708 44.9H143.308C143.508 46.9 144.908 48.1 146.608 48.1C147.908 48.1 148.808 47.6 149.508 46.8L150.408 47.6C149.508 48.6 148.308 49.3 146.608 49.3C144.008 49.3 141.908 47.3 141.908 44.4ZM149.308 43.9C149.208 42.2 148.208 40.7 146.308 40.7C144.708 40.7 143.508 42.1 143.308 43.9H149.308Z" fill="#14487C"></path>
    <path d="M152.308 47.8001L153.008 46.8001C154.008 47.6001 155.108 48.0001 156.208 48.0001C157.308 48.0001 158.108 47.4001 158.108 46.5001C158.108 45.6001 157.008 45.2001 155.808 44.9001C154.308 44.5001 152.708 44.0001 152.708 42.3001C152.708 40.7001 154.008 39.6001 155.908 39.6001C157.008 39.6001 158.308 40.0001 159.208 40.6001L158.608 41.6001C157.708 41.0001 156.708 40.7001 155.808 40.7001C154.708 40.7001 154.008 41.3001 154.008 42.1001C154.008 43.0001 155.208 43.3001 156.408 43.7001C157.808 44.1001 159.408 44.7001 159.408 46.4001C159.408 48.2001 157.908 49.2001 156.108 49.2001C154.908 49.2001 153.408 48.7001 152.308 47.8001Z" fill="#14487C"></path>
    <path d="M162.408 46.6V41H161.108V39.8H162.408V37H163.808V39.8H166.808V41H163.808V46.4C163.808 47.5 164.408 47.9 165.408 47.9C165.908 47.9 166.308 47.8 166.808 47.6V48.8C166.308 49.1 165.808 49.2 165.108 49.2C163.508 49.2 162.408 48.5 162.408 46.6Z" fill="#14487C"></path>
    <path d="M169.208 36.2H170.808V37.7H169.208V36.2ZM169.308 39.7H170.708V49H169.308V39.7Z" fill="#14487C"></path>
    <path d="M173.808 50.7001L174.408 49.6001C175.508 50.4001 176.708 50.8001 178.008 50.8001C180.108 50.8001 181.408 49.7001 181.408 47.5001V46.4001C180.608 47.5001 179.508 48.4001 177.708 48.4001C175.508 48.4001 173.308 46.7001 173.308 44.0001C173.308 41.3001 175.508 39.6001 177.708 39.6001C179.408 39.6001 180.608 40.5001 181.308 41.5001V39.8001H182.708V47.5001C182.708 48.9001 182.308 50.0001 181.508 50.8001C180.708 51.6001 179.408 52.0001 178.008 52.0001C176.508 52.0001 175.008 51.5001 173.808 50.7001ZM181.408 43.9001C181.408 42.0001 179.708 40.7001 178.008 40.7001C176.308 40.7001 174.808 41.9001 174.808 43.8001C174.808 45.7001 176.308 47.0001 178.008 47.0001C179.808 47.1001 181.408 45.8001 181.408 43.9001Z" fill="#14487C"></path>
    <path d="M185.208 46.2999C185.208 44.2999 186.808 43.2999 189.208 43.2999C190.408 43.2999 191.208 43.5 192.108 43.7V43.3999C192.108 41.6999 191.108 40.8999 189.308 40.8999C188.208 40.8999 187.308 41.2 186.508 41.6L186.108 40.5C187.108 40 188.108 39.7 189.508 39.7C190.808 39.7 191.808 40 192.508 40.7C193.108 41.3 193.508 42.1999 193.508 43.3999V49.1H192.208V47.7C191.608 48.5 190.508 49.2999 188.808 49.2999C186.908 49.1999 185.208 48.1999 185.208 46.2999ZM192.008 45.6V44.7C191.308 44.5 190.408 44.2999 189.308 44.2999C187.608 44.2999 186.608 45.1 186.608 46.2C186.608 47.4 187.708 48.1 188.908 48.1C190.608 48.1 192.008 47.1 192.008 45.6Z" fill="#14487C"></path>
    <path d="M196.708 46.6V41H195.408V39.8H196.708V37H198.108V39.8H201.108V41H198.108V46.4C198.108 47.5 198.708 47.9 199.708 47.9C200.208 47.9 200.608 47.8 201.108 47.6V48.8C200.608 49.1 200.108 49.2 199.408 49.2C197.808 49.2 196.708 48.5 196.708 46.6Z" fill="#14487C"></path>
    <path d="M203.508 36.2H205.108V37.7H203.508V36.2ZM203.608 39.7H205.008V49H203.608V39.7Z" fill="#14487C"></path>
    <path d="M207.608 44.4C207.608 41.7 209.708 39.5 212.508 39.5C215.308 39.5 217.308 41.7 217.308 44.3C217.308 46.9 215.208 49.2 212.408 49.2C209.708 49.3 207.608 47.1 207.608 44.4ZM215.908 44.4C215.908 42.4 214.408 40.7 212.408 40.7C210.408 40.7 209.008 42.3 209.008 44.3C209.008 46.3 210.508 47.9 212.408 47.9C214.508 48 215.908 46.4 215.908 44.4Z" fill="#14487C"></path>
    <path d="M219.808 39.7H221.208V41.3C221.808 40.3 222.808 39.5 224.408 39.5C226.608 39.5 228.008 41 228.008 43.2V49H226.608V43.6C226.608 41.9 225.708 40.8 224.008 40.8C222.408 40.8 221.208 42 221.208 43.7V49H219.808V39.7Z" fill="#14487C"></path>
    <path d="M230.108 47.8001L230.808 46.8001C231.808 47.6001 232.908 48.0001 234.008 48.0001C235.108 48.0001 235.908 47.4001 235.908 46.5001C235.908 45.6001 234.808 45.2001 233.608 44.9001C232.108 44.5001 230.508 44.0001 230.508 42.3001C230.508 40.7001 231.808 39.6001 233.708 39.6001C234.808 39.6001 236.108 40.0001 237.008 40.6001L236.408 41.6001C235.508 41.0001 234.508 40.7001 233.608 40.7001C232.508 40.7001 231.808 41.3001 231.808 42.1001C231.808 43.0001 233.008 43.3001 234.208 43.7001C235.608 44.1001 237.208 44.7001 237.208 46.4001C237.208 48.2001 235.708 49.2001 233.908 49.2001C232.708 49.2001 231.208 48.7001 230.108 47.8001Z" fill="#14487C"></path>
    <path d="M245.508 36.4001H250.908C252.308 36.4001 253.508 36.8002 254.208 37.5002C254.708 38.0002 255.008 38.7002 255.008 39.5002C255.008 41.1002 254.008 42.0001 253.008 42.4001C254.508 42.9001 255.708 43.7001 255.708 45.4001C255.708 47.6001 253.908 48.8001 251.108 48.8001H245.508V36.4001ZM253.508 39.8001C253.508 38.6001 252.508 37.7001 250.708 37.7001H246.908V42.0002H250.608C252.308 42.0002 253.508 41.3001 253.508 39.8001ZM250.908 43.3001H246.908V47.7001H251.108C253.008 47.7001 254.208 46.9001 254.208 45.4001C254.208 44.1001 253.108 43.3001 250.908 43.3001Z" fill="#14487C"></path>
    <path d="M257.708 44.4C257.708 41.7 259.808 39.5 262.608 39.5C265.408 39.5 267.408 41.7 267.408 44.3C267.408 46.9 265.308 49.2 262.508 49.2C259.708 49.3 257.708 47.1 257.708 44.4ZM266.008 44.4C266.008 42.4 264.508 40.7 262.508 40.7C260.508 40.7 259.108 42.3 259.108 44.3C259.108 46.3 260.608 47.9 262.508 47.9C264.608 48 266.008 46.4 266.008 44.4Z" fill="#14487C"></path>
    <path d="M269.408 44.4001C269.408 41.3001 271.608 39.5001 273.808 39.5001C275.508 39.5001 276.608 40.4001 277.408 41.5001V35.9001H278.808V49.0001H277.408V47.2001C276.608 48.3001 275.508 49.3001 273.808 49.3001C271.608 49.2001 269.408 47.5001 269.408 44.4001ZM277.408 44.4001C277.408 42.2001 275.808 40.8001 274.008 40.8001C272.208 40.8001 270.708 42.1001 270.708 44.4001C270.708 46.6001 272.208 48.0001 274.008 48.0001C275.808 48.0001 277.408 46.5001 277.408 44.4001Z" fill="#14487C"></path>
    <path d="M288.808 39.7001H290.308L286.408 49.3001C285.608 51.2001 284.708 51.9001 283.308 51.9001C282.508 51.9001 281.908 51.7001 281.308 51.4001L281.808 50.3001C282.308 50.5001 282.708 50.6001 283.308 50.6001C284.108 50.6001 284.708 50.2001 285.208 48.9001L281.008 39.6001H282.508L285.908 47.4001L288.808 39.7001Z" fill="#14487C"></path>
    <path d="M63.6081 52.2C63.9081 52.5 64.5081 52.5 64.8081 52.2L68.6081 48.4C73.1081 43.9 75.6081 37.9 75.6081 31.6V30.9C75.6081 29.7 74.9081 28.7 73.9081 28.2V27.5C73.9081 21.6 76.208 16 80.4081 11.9C80.8081 11.5 81.3081 11.4 81.9081 11.6C82.4081 11.8 82.7081 12.3 82.7081 12.8V38.9C82.7081 44.5 80.5081 49.7 76.6081 53.6L54.0081 76.2C53.8081 76.4 53.6081 76.5 53.4081 76.7C52.8081 77 52.3081 77.1 51.7081 77C51.5081 77 51.3081 76.9 51.1081 76.8C50.3081 76.5 49.5081 75.7 49.5081 74.4V63.5C49.5081 56.2 52.3081 49.3 57.4081 44.1L71.6081 29.9C71.9081 29.6 72.2081 29.5 72.5081 29.5C72.6081 29.5 72.7081 29.5 72.7081 29.5H72.8081C72.9081 29.5 72.9081 29.5 73.0081 29.6C73.5081 29.8 73.8081 30.3 73.8081 30.8V31.5C73.8081 37.4 71.5081 43 67.3081 47.1L63.5081 50.9C63.3081 51.3 63.3081 51.8 63.6081 52.2Z" fill="#14487C"></path>
    <path d="M28.708 48.2999L32.508 52.0999C32.808 52.3999 33.408 52.3999 33.708 52.0999C34.008 51.7999 34.008 51.1999 33.708 50.8999L29.908 47.0999C25.708 42.8999 23.408 37.3999 23.408 31.4999V30.7999C23.408 30.1999 23.708 29.7999 24.208 29.5999C24.308 29.5999 24.308 29.5999 24.408 29.4999H24.508C24.908 29.3999 25.408 29.5999 25.708 29.8999L39.908 44.0999C45.008 49.2999 47.808 56.1999 47.808 63.4999V74.1999C47.808 75.4999 47.008 76.2999 46.208 76.5999C46.008 76.6999 45.808 76.6999 45.608 76.7999C45.508 76.7999 45.408 76.7999 45.208 76.7999C44.608 76.7999 43.908 76.5999 43.408 75.9999L20.808 53.4999C16.908 49.5999 14.708 44.2999 14.708 38.7999V12.6999C14.708 12.0999 15.008 11.6999 15.508 11.4999C15.708 11.3999 15.908 11.3999 16.008 11.3999C16.308 11.3999 16.708 11.4999 16.908 11.7999C21.108 15.9999 23.408 21.4999 23.408 27.3999V28.0999C22.308 28.5999 21.708 29.5999 21.708 30.7999V31.4999C21.708 37.8999 24.208 43.7999 28.708 48.2999Z" fill="#14487C"></path>
    <path d="M6.80808 39.5C1.00808 33.7 -1.29192 25.5 0.708078 17.5C1.80808 13 4.30808 9 7.70808 5.8C12.0081 1.9 17.5081 0 23.0081 0C29.1081 0 35.3081 2.4 40.0081 7.1L47.5081 14.6L39.5081 22.6C36.7081 25.4 35.2081 29.1 35.2081 33.1C35.2081 34.6 35.4081 36.1 35.9081 37.5L27.1081 28.7C26.6081 28.2 26.0081 27.9 25.3081 27.8V27.4C25.3081 21 22.8081 15.1 18.3081 10.6C17.4081 9.7 16.1081 9.5 15.0081 9.9C13.8081 10.4 13.1081 11.5 13.1081 12.7V38.8C13.1081 41.8 13.7081 44.8 14.8081 47.5L6.80808 39.5Z" fill="#178D51"></path>
    <path d="M82.6081 47.3999C83.7081 44.6999 84.3081 41.7999 84.3081 38.7V12.7C84.3081 11.4 83.6081 10.4 82.4081 9.89995C81.2081 9.39995 80.0081 9.69995 79.1081 10.6C74.6081 15.1 72.1081 21.0999 72.1081 27.4V27.7999C71.5081 27.8999 70.8081 28.1999 70.3081 28.6999L61.4081 37.6C63.0081 32.5 61.8081 26.6999 57.8081 22.6999L49.8081 14.7L57.3081 7.19995C66.5081 -2.00005 81.3081 -2.20005 90.3081 6.69995C93.4081 9.69995 95.5081 13.5 96.6081 17.6C98.6081 25.6 96.3081 33.8 90.5081 39.6L82.6081 47.3999Z" fill="#FFDD00"></path>
    <path d="M48.7081 47.3C56.3849 47.3 62.6081 41.0768 62.6081 33.4C62.6081 25.7232 56.3849 19.5 48.7081 19.5C41.0313 19.5 34.8081 25.7232 34.8081 33.4C34.8081 41.0768 41.0313 47.3 48.7081 47.3Z" fill="#0A6773"></path>
    </svg>