<?xml version="1.0" encoding="utf-8"?>
<!-- Generator: Adobe Illustrator 24.0.0, SVG Export Plug-In . SVG Version: 6.00 Build 0)  -->
<svg version="1.1" id="Layer_1" focusable="false" xmlns="http://www.w3.org/2000/svg" xmlns:xlink="http://www.w3.org/1999/xlink"
	 x="0px" y="0px" viewBox="0 0 228 228" style="enable-background:new 0 0 228 228;" xml:space="preserve">
<style type="text/css">
	.st0{enable-background:new    ;}
	.st1{fill:#FFFFFF;}
</style>
<g id="svg_logo" class="st0">
	<polygon id="logo__background" class="st1" points="185,228 215,60.3 0,0 0,228 	"/>
	<path id="logo__path" d="M33.3,165c-0.2,0-0.4,0-0.6,0s-0.4,0-0.6,0s-0.4,0-0.6,0s-0.3,0-0.5,0.1c0-0.1,0-0.2,0-0.3s0-0.2,0-0.3
		c0.4,0,0.9,0,1.3,0s0.9,0,1.3,0s0.9,0,1.3,0s0.9,0,1.3,0c0,0.1-0.1,0.2-0.1,0.3s0,0.2,0.1,0.3c-0.1,0-0.3,0-0.5-0.1
		c-0.2,0-0.4,0-0.6,0s-0.4,0-0.6,0s-0.4,0-0.6,0c0,0.7,0,1.4,0,2.1v1.7c0,0.4,0,0.9,0,1.3c0,0.4,0,0.9,0.1,1.3c-0.2,0-0.3,0-0.5,0
		s-0.3,0-0.5,0c0-0.4,0-0.8,0.1-1.3c0-0.4,0-0.9,0-1.3v-1.7C33.3,166.4,33.3,165.7,33.3,165 M42.7,165.8c0,0.4,0,0.9,0,1.3v0.4
		c-0.4,0-0.7,0-1.1,0c-0.3,0-0.7,0-1.1,0s-0.7,0-1.1,0c-0.3,0-0.7,0-1.1,0v-0.4c0-0.4,0-0.9,0-1.3s0-0.9,0.1-1.3c-0.1,0-0.2,0-0.3,0
		s-0.2,0-0.2,0h-0.2c-0.1,0-0.2,0-0.3,0c0,0.4,0,0.9,0.1,1.3c0,0.4,0,0.9,0,1.3v1.7c0,0.4,0,0.9,0,1.3s0,0.9-0.1,1.3
		c0.2,0,0.3,0,0.5,0s0.3,0,0.5,0c0-0.4,0-0.8-0.1-1.3c0-0.4,0-0.9,0-1.3v-0.9c0.4,0,0.7,0,1.1,0c0.3,0,0.7,0,1.1,0s0.7,0,1.1,0
		c0.3,0,0.7,0,1.1,0v0.9c0,0.4,0,0.9,0,1.3s0,0.9-0.1,1.3c0.2,0,0.3,0,0.5,0s0.3,0,0.5,0c0-0.4,0-0.8-0.1-1.3c0-0.4,0-0.9,0-1.3
		v-1.7c0-0.4,0-0.9,0-1.3s0-0.9,0.1-1.3c-0.1,0-0.2,0-0.3,0s-0.2,0-0.2,0c-0.1,0-0.2,0-0.2,0c-0.1,0-0.2,0-0.3,0
		C42.7,164.9,42.7,165.4,42.7,165.8 M45.7,165.8c0,0.4,0,0.9,0,1.3v1.7c0,0.4,0,0.9,0,1.3s0,0.9-0.1,1.3c0.3,0,0.6,0,0.9,0h1.8
		c0.3,0,0.6,0,0.9,0c0-0.1,0-0.2,0-0.3c0,0,0-0.1,0-0.2s0-0.1,0-0.2c-0.2,0-0.4,0.1-0.6,0.1s-0.5,0-0.7,0s-0.5,0-0.8,0h-0.7
		c0-0.1,0-0.3,0-0.6c0-0.2,0-0.6,0-0.9v-1c0-0.1,0-0.2,0-0.3s0-0.1,0-0.2c0.1,0,0.3,0,0.5,0s0.4,0,0.7,0c0.2,0,0.5,0,0.7,0
		s0.4,0,0.6,0c0-0.1,0-0.2,0-0.3s0-0.2,0-0.3c-0.1,0-0.3,0-0.5,0s-0.3,0-0.5,0s-0.4,0-0.6,0s-0.5,0-0.8,0c0-0.1,0-0.3,0-0.6
		c0-0.2,0-0.5,0-0.8c0-0.2,0-0.5,0-0.7s0-0.4,0-0.6c0.3,0,0.6,0,0.8,0s0.5,0,0.7,0s0.4,0,0.6,0s0.4,0,0.6,0c0-0.1,0-0.2,0-0.3
		s0-0.2,0-0.3c-0.3,0-0.6,0-0.9,0s-0.6,0-0.9,0s-0.6,0-0.9,0s-0.6,0-0.9,0C45.7,164.9,45.7,165.3,45.7,165.8 M54,165.8
		c0,0.4,0,0.9,0,1.3v1.7c0,0.4,0,0.9,0,1.3s0,0.9-0.1,1.3c0.2,0,0.3,0,0.5,0s0.3,0,0.5,0c0-0.4,0-0.8-0.1-1.3c0-0.4,0-0.9,0-1.3
		v-0.7h0.4c0.2,0.2,0.5,0.5,0.7,0.8c0.3,0.3,0.5,0.6,0.8,1c0.2,0.3,0.5,0.6,0.7,0.9c0.2,0.3,0.4,0.5,0.5,0.6c0.1,0,0.2,0,0.3,0h0.6
		c0.1,0,0.2,0,0.3,0c-0.1-0.1-0.2-0.2-0.4-0.4s-0.3-0.4-0.5-0.6s-0.4-0.4-0.5-0.7c-0.2-0.2-0.4-0.5-0.5-0.7
		c-0.2-0.2-0.3-0.4-0.5-0.6c-0.1-0.2-0.3-0.3-0.3-0.4c0.2,0,0.4-0.1,0.7-0.2c0.2-0.1,0.5-0.2,0.7-0.4s0.4-0.3,0.5-0.6
		c0.1-0.2,0.2-0.5,0.2-0.8s-0.1-0.6-0.2-0.8s-0.3-0.4-0.5-0.5s-0.4-0.2-0.7-0.3s-0.5-0.1-0.8-0.1c-0.2,0-0.4,0-0.6,0s-0.4,0-0.6,0
		s-0.4,0-0.6,0s-0.4,0-0.6,0C54,164.9,54,165.4,54,165.8 M55.2,167.7c-0.1,0-0.2,0-0.3,0v-0.6c0-0.4,0-0.7,0-1.1s0-0.7,0-1.1
		c0.1,0,0.2,0,0.4,0s0.3,0,0.6,0c0.2,0,0.4,0,0.5,0.1c0.2,0,0.3,0.1,0.5,0.2s0.3,0.2,0.4,0.4c0.1,0.2,0.1,0.4,0.1,0.7
		s-0.1,0.6-0.2,0.8c-0.1,0.2-0.3,0.4-0.5,0.5s-0.4,0.2-0.6,0.2s-0.4,0.1-0.7,0.1C55.4,167.7,55.3,167.7,55.2,167.7 M60.1,166.4
		c-0.2,0.4-0.3,1-0.3,1.5c0,0.6,0.1,1.1,0.3,1.5s0.4,0.8,0.8,1.1c0.3,0.3,0.7,0.5,1.2,0.7s1,0.2,1.5,0.2c0.6,0,1.1-0.1,1.5-0.2
		c0.5-0.2,0.9-0.4,1.2-0.7s0.6-0.7,0.8-1.1c0.2-0.4,0.3-1,0.3-1.5c0-0.6-0.1-1.1-0.3-1.5c-0.2-0.4-0.4-0.8-0.8-1.1
		c-0.3-0.3-0.7-0.5-1.2-0.7s-1-0.2-1.5-0.2c-0.6,0-1.1,0.1-1.5,0.2c-0.5,0.2-0.9,0.4-1.2,0.7S60.3,166,60.1,166.4 M66.2,166.5
		c0.1,0.4,0.2,0.9,0.2,1.4c0,0.6-0.1,1-0.2,1.4s-0.3,0.7-0.6,1s-0.5,0.5-0.9,0.6c-0.3,0.1-0.7,0.2-1.1,0.2s-0.8-0.1-1.1-0.2
		c-0.3-0.1-0.6-0.3-0.9-0.6s-0.4-0.6-0.6-1c-0.1-0.4-0.2-0.9-0.2-1.4c0-0.6,0.1-1,0.2-1.4s0.3-0.7,0.6-1s0.5-0.5,0.9-0.6
		c0.3-0.1,0.7-0.2,1.1-0.2s0.8,0.1,1.1,0.2c0.3,0.1,0.6,0.3,0.9,0.6S66.1,166.1,66.2,166.5 M69.7,168.1c0.1,0.2,0.2,0.4,0.3,0.5
		c0,0.5,0,1.1,0,1.6s0,0.9-0.1,1.3c0.2,0,0.3,0,0.5,0s0.3,0,0.5,0c0-0.1,0-0.3,0-0.6c0-0.2,0-0.5,0-0.8s0-0.5,0-0.8s0-0.5,0-0.8
		c0.1-0.2,0.2-0.4,0.4-0.7c0.1-0.3,0.3-0.6,0.5-0.9s0.4-0.7,0.7-1.1c0.3-0.4,0.5-0.8,0.9-1.3c-0.2,0-0.3,0-0.4,0s-0.2,0-0.4,0
		c-0.1,0.3-0.3,0.6-0.4,0.9c-0.2,0.3-0.3,0.6-0.5,0.9c-0.2,0.3-0.3,0.6-0.5,0.9s-0.3,0.6-0.5,0.8c-0.4-0.6-0.7-1.2-1-1.8
		s-0.6-1.1-0.9-1.7c-0.1,0-0.2,0-0.3,0c-0.1,0-0.2,0-0.3,0s-0.2,0-0.3,0c-0.1,0-0.2,0-0.3,0c0.1,0.1,0.2,0.3,0.3,0.5
		c0.1,0.2,0.3,0.5,0.4,0.7c0.2,0.3,0.3,0.5,0.5,0.8s0.3,0.6,0.5,0.8C69.4,167.6,69.5,167.9,69.7,168.1 M79.7,171.4
		c-0.1-0.2-0.2-0.4-0.3-0.7c-0.1-0.3-0.3-0.7-0.5-1.1s-0.4-0.8-0.6-1.3s-0.4-0.9-0.6-1.4s-0.4-0.9-0.6-1.4s-0.4-0.9-0.5-1.3h-0.2
		c-0.5,1.2-1,2.4-1.6,3.6c-0.5,1.2-1.1,2.3-1.6,3.5c0.1,0,0.2,0,0.4,0c0.1,0,0.3,0,0.4,0c0.1-0.3,0.2-0.7,0.4-1.2s0.4-1,0.6-1.5
		c0.2,0,0.4,0,0.6,0s0.4,0,0.6,0s0.4,0,0.7,0c0.2,0,0.4,0,0.7,0c0.1,0.2,0.2,0.5,0.3,0.7c0.1,0.2,0.2,0.5,0.3,0.7
		c0.1,0.2,0.2,0.5,0.3,0.7c0.1,0.2,0.1,0.4,0.2,0.6c0.1,0,0.2,0,0.3,0h0.5C79.5,171.4,79.6,171.4,79.7,171.4 M76.3,165.7l1.1,2.6
		c-0.2,0-0.4,0-0.6,0s-0.4,0-0.6,0s-0.4,0-0.5,0c-0.2,0-0.4,0-0.5,0L76.3,165.7z M81,165.8c0,0.4,0,0.9,0,1.3v1.7c0,0.4,0,0.9,0,1.3
		s0,0.9-0.1,1.3c0.3,0,0.6,0,0.9,0h1.9c0.3,0,0.6,0,0.9,0c0-0.1-0.1-0.2-0.1-0.3s0-0.2,0.1-0.3c-0.5,0.1-1,0.1-1.4,0.1s-0.9,0-1.4,0
		c0-0.5,0-1,0-1.7c0-0.6,0-1.4,0-2.2c0-0.4,0-0.9,0-1.3c0-0.4,0-0.9,0.1-1.3c-0.1,0-0.2,0-0.3,0s-0.2,0-0.2,0c-0.1,0-0.2,0-0.2,0
		c-0.1,0-0.2,0-0.3,0C81,164.9,81,165.4,81,165.8 M89.3,165.8c0,0.4,0,0.9,0,1.3v1.7c0,0.4,0,0.9,0,1.3s0,0.9-0.1,1.3
		c0.2,0,0.3,0,0.5,0h0.5c0.2,0,0.3,0,0.5,0s0.3,0,0.5,0c0.3,0,0.6,0,0.9-0.1s0.6-0.2,0.8-0.3c0.2-0.2,0.5-0.4,0.6-0.6
		c0.2-0.3,0.2-0.6,0.2-0.9c0-0.6-0.2-1-0.5-1.3s-0.8-0.4-1.4-0.4l0,0c0.5-0.1,0.9-0.3,1.2-0.6c0.3-0.3,0.5-0.7,0.5-1.2
		c0-0.3-0.1-0.5-0.2-0.7s-0.3-0.3-0.5-0.4s-0.4-0.2-0.7-0.2c-0.3,0-0.5-0.1-0.8-0.1c-0.2,0-0.4,0-0.5,0c-0.2,0-0.4,0-0.5,0
		c-0.2,0-0.4,0-0.5,0c-0.2,0-0.4,0-0.5,0C89.2,164.9,89.2,165.3,89.3,165.8 M91.4,167.5c-0.2,0-0.5,0.1-0.7,0.1h-0.5v-0.8
		c0-0.3,0-0.6,0-1c0-0.3,0-0.6,0-1c0.1,0,0.2,0,0.3,0s0.3,0,0.4,0c0.2,0,0.4,0,0.6,0s0.4,0.1,0.5,0.2c0.2,0.1,0.3,0.2,0.4,0.4
		s0.2,0.4,0.2,0.7s-0.1,0.5-0.2,0.7s-0.3,0.3-0.4,0.4C91.8,167.4,91.6,167.5,91.4,167.5 M90.1,170c0-0.3,0-0.7,0-1v-1h0.5
		c0.3,0,0.6,0,0.9,0.1c0.3,0,0.5,0.1,0.7,0.2c0.2,0.1,0.3,0.2,0.4,0.4s0.2,0.4,0.2,0.7s0,0.5-0.1,0.7s-0.2,0.4-0.4,0.5
		c-0.1,0.1-0.3,0.3-0.5,0.3c-0.2,0.1-0.4,0.1-0.6,0.1s-0.4,0-0.5,0c-0.2,0-0.3,0-0.5,0C90.2,170.7,90.1,170.3,90.1,170 M95.4,166.4
		c-0.2,0.4-0.3,1-0.3,1.5c0,0.6,0.1,1.1,0.3,1.5c0.2,0.4,0.4,0.8,0.8,1.1c0.3,0.3,0.7,0.5,1.2,0.7s1,0.2,1.5,0.2
		c0.6,0,1.1-0.1,1.5-0.2c0.5-0.2,0.9-0.4,1.2-0.7c0.3-0.3,0.6-0.7,0.8-1.1c0.2-0.4,0.3-1,0.3-1.5c0-0.6-0.1-1.1-0.3-1.5
		c-0.2-0.4-0.4-0.8-0.8-1.1c-0.3-0.3-0.7-0.5-1.2-0.7s-1-0.2-1.5-0.2c-0.6,0-1.1,0.1-1.5,0.2c-0.5,0.2-0.9,0.4-1.2,0.7
		C95.8,165.6,95.6,166,95.4,166.4 M101.5,166.5c0.1,0.4,0.2,0.9,0.2,1.4c0,0.6-0.1,1-0.2,1.4s-0.3,0.7-0.6,1
		c-0.3,0.3-0.5,0.5-0.9,0.6c-0.3,0.1-0.7,0.2-1.1,0.2s-0.8-0.1-1.1-0.2c-0.3-0.1-0.6-0.3-0.9-0.6s-0.4-0.6-0.6-1
		c-0.1-0.4-0.2-0.9-0.2-1.4c0-0.6,0.1-1,0.2-1.4s0.3-0.7,0.6-1c0.3-0.3,0.5-0.5,0.9-0.6c0.3-0.1,0.7-0.2,1.1-0.2s0.8,0.1,1.1,0.2
		c0.3,0.1,0.6,0.3,0.9,0.6S101.3,166.1,101.5,166.5 M104.2,165.8c0,0.4,0,0.9,0,1.3v1.7c0,0.4,0,0.9,0,1.3s0,0.9-0.1,1.3
		c0.2,0,0.3,0,0.5,0s0.3,0,0.5,0c0-0.4,0-0.8-0.1-1.3c0-0.4,0-0.9,0-1.3v-0.7h0.4c0.2,0.2,0.5,0.5,0.7,0.8c0.3,0.3,0.5,0.6,0.8,1
		c0.2,0.3,0.5,0.6,0.7,0.9c0.2,0.3,0.4,0.5,0.5,0.6c0.1,0,0.2,0,0.3,0h0.6c0.1,0,0.2,0,0.3,0c-0.1-0.1-0.2-0.2-0.4-0.4
		c-0.2-0.2-0.3-0.4-0.5-0.6s-0.4-0.4-0.5-0.7c-0.2-0.2-0.4-0.5-0.5-0.7c-0.2-0.2-0.3-0.4-0.5-0.6c-0.1-0.2-0.3-0.3-0.3-0.4
		c0.2,0,0.4-0.1,0.7-0.2c0.2-0.1,0.5-0.2,0.7-0.4s0.4-0.3,0.5-0.6c0.1-0.2,0.2-0.5,0.2-0.8s-0.1-0.6-0.2-0.8s-0.3-0.4-0.5-0.5
		s-0.4-0.2-0.7-0.3c-0.3-0.1-0.5-0.1-0.8-0.1c-0.2,0-0.4,0-0.6,0s-0.4,0-0.6,0s-0.4,0-0.6,0s-0.4,0-0.6,0
		C104.2,164.9,104.2,165.4,104.2,165.8 M105.4,167.7c-0.1,0-0.2,0-0.3,0v-0.6c0-0.4,0-0.7,0-1.1s0-0.7,0-1.1c0.1,0,0.2,0,0.4,0
		c0.2,0,0.3,0,0.6,0c0.2,0,0.4,0,0.5,0.1c0.2,0,0.3,0.1,0.5,0.2s0.3,0.2,0.4,0.4s0.1,0.4,0.1,0.7s-0.1,0.6-0.2,0.8s-0.3,0.4-0.5,0.5
		s-0.4,0.2-0.6,0.2s-0.4,0.1-0.7,0.1C105.6,167.7,105.5,167.7,105.4,167.7 M110.4,166.4c-0.2,0.4-0.3,1-0.3,1.5
		c0,0.6,0.1,1.1,0.3,1.5c0.2,0.4,0.4,0.8,0.8,1.1c0.3,0.3,0.7,0.5,1.2,0.7s1,0.2,1.5,0.2c0.6,0,1.1-0.1,1.5-0.2
		c0.5-0.2,0.9-0.4,1.2-0.7s0.6-0.7,0.8-1.1c0.2-0.4,0.3-1,0.3-1.5c0-0.6-0.1-1.1-0.3-1.5c-0.2-0.4-0.4-0.8-0.8-1.1
		c-0.3-0.3-0.7-0.5-1.2-0.7s-1-0.2-1.5-0.2c-0.6,0-1.1,0.1-1.5,0.2c-0.5,0.2-0.9,0.4-1.2,0.7C110.8,165.6,110.5,166,110.4,166.4
		 M116.4,166.5c0.1,0.4,0.2,0.9,0.2,1.4c0,0.6-0.1,1-0.2,1.4s-0.3,0.7-0.6,1s-0.5,0.5-0.9,0.6c-0.3,0.1-0.7,0.2-1.1,0.2
		s-0.8-0.1-1.1-0.2c-0.3-0.1-0.6-0.3-0.9-0.6s-0.4-0.6-0.6-1c-0.1-0.4-0.2-0.9-0.2-1.4c0-0.6,0.1-1,0.2-1.4s0.3-0.7,0.6-1
		s0.5-0.5,0.9-0.6c0.3-0.1,0.7-0.2,1.1-0.2s0.8,0.1,1.1,0.2c0.3,0.1,0.6,0.3,0.9,0.6C116.1,165.8,116.3,166.1,116.4,166.5
		 M124.5,165.5c0,0.5,0,1.3,0,2.2c0,0.2,0,0.4,0,0.7c0,0.2,0,0.5-0.1,0.7c0,0.2-0.1,0.5-0.2,0.7s-0.2,0.4-0.4,0.6
		c-0.2,0.2-0.4,0.3-0.6,0.4c-0.3,0.1-0.6,0.2-0.9,0.2c-0.4,0-0.7,0-1-0.1s-0.5-0.2-0.6-0.4c-0.2-0.2-0.3-0.3-0.4-0.6
		c-0.1-0.2-0.2-0.4-0.2-0.7c0-0.2-0.1-0.5-0.1-0.7s0-0.5,0-0.7c0-0.4,0-0.7,0-1.1c0-0.3,0-0.7,0-1s0-0.6,0-0.8s0-0.4,0-0.6
		c-0.1,0-0.1,0-0.2,0s-0.1,0-0.2,0s-0.2,0-0.3,0s-0.2,0-0.3,0c0,0.3,0,0.7,0,1.1s0,0.9,0,1.5c0,0.3,0,0.5,0,0.8c0,0.2,0,0.5,0,0.8
		c0,1,0.2,1.7,0.7,2.2s1.2,0.7,2.2,0.7c0.5,0,0.9-0.1,1.2-0.2c0.4-0.1,0.7-0.3,0.9-0.6c0.2-0.2,0.4-0.6,0.6-0.9
		c0.1-0.4,0.2-0.8,0.2-1.2s0-0.8,0-1.1c0-0.4,0-0.8,0-1.2s0-0.7,0-1.1c0-0.3,0-0.6,0.1-0.8c-0.1,0-0.2,0-0.3,0s-0.1,0-0.2,0
		s-0.1,0-0.2,0C124.5,164.7,124.5,165,124.5,165.5 M132.7,165.3c0.2,0.1,0.3,0.2,0.4,0.4h0.1c0-0.1,0-0.3,0.1-0.4
		c0-0.1,0.1-0.3,0.1-0.4c-0.1-0.1-0.3-0.1-0.4-0.2c-0.2-0.1-0.3-0.1-0.5-0.2c-0.2-0.1-0.4-0.1-0.7-0.1s-0.6-0.1-0.9-0.1
		c-0.6,0-1.1,0.1-1.6,0.2c-0.5,0.2-0.9,0.4-1.2,0.7s-0.6,0.7-0.8,1.1s-0.3,1-0.3,1.5c0,0.6,0.1,1.1,0.3,1.6s0.4,0.8,0.8,1.1
		c0.3,0.3,0.7,0.5,1.2,0.7c0.5,0.1,1,0.2,1.6,0.2c0.2,0,0.4,0,0.7,0c0.2,0,0.5-0.1,0.7-0.1s0.5-0.1,0.7-0.1c0.2-0.1,0.4-0.1,0.5-0.2
		c0-0.1,0-0.3,0-0.4c0-0.1,0-0.3,0-0.4c0-0.5,0-1,0-1.3s0-0.6,0-0.7c-0.1,0-0.1,0-0.2,0c-0.1,0-0.1,0-0.2,0c-0.2,0-0.3,0-0.5,0
		c0,0.2,0,0.4,0,0.7c0,0.2,0,0.5,0,0.7s0,0.4,0,0.6c0,0.2,0,0.4,0,0.6c-0.1,0.1-0.2,0.1-0.3,0.1s-0.3,0.1-0.4,0.1
		c-0.1,0-0.3,0-0.4,0.1c-0.2,0-0.3,0-0.4,0c-0.5,0-0.9-0.1-1.3-0.2c-0.4-0.1-0.7-0.4-1-0.6c-0.3-0.3-0.5-0.6-0.6-1s-0.2-0.8-0.2-1.3
		c0-0.6,0.1-1,0.2-1.4c0.2-0.4,0.4-0.7,0.6-1c0.3-0.3,0.6-0.5,0.9-0.6c0.4-0.1,0.7-0.2,1.2-0.2c0.3,0,0.5,0,0.7,0.1s0.4,0.1,0.6,0.2
		C132.4,165.1,132.6,165.2,132.7,165.3 M140.4,165.8c0,0.4,0,0.9,0,1.3v0.4c-0.4,0-0.7,0-1.1,0c-0.3,0-0.7,0-1.1,0
		c-0.4,0-0.7,0-1.1,0c-0.3,0-0.7,0-1.1,0v-0.4c0-0.4,0-0.9,0-1.3s0-0.9,0.1-1.3c-0.1,0-0.2,0-0.3,0s-0.2,0-0.2,0c-0.1,0-0.2,0-0.2,0
		c-0.1,0-0.2,0-0.3,0c0,0.4,0,0.9,0.1,1.3c0,0.4,0,0.9,0,1.3v1.7c0,0.4,0,0.9,0,1.3s0,0.9-0.1,1.3c0.2,0,0.3,0,0.5,0s0.3,0,0.5,0
		c0-0.4,0-0.8-0.1-1.3c0-0.4,0-0.9,0-1.3v-0.9c0.4,0,0.7,0,1.1,0c0.3,0,0.7,0,1.1,0c0.4,0,0.7,0,1.1,0c0.3,0,0.7,0,1.1,0v0.9
		c0,0.4,0,0.9,0,1.3s0,0.9-0.1,1.3c0.2,0,0.3,0,0.5,0s0.3,0,0.5,0c0-0.4,0-0.8-0.1-1.3c0-0.4,0-0.9,0-1.3v-1.7c0-0.4,0-0.9,0-1.3
		s0-0.9,0.1-1.3c-0.1,0-0.2,0-0.3,0s-0.2,0-0.2,0c-0.1,0-0.2,0-0.2,0c-0.1,0-0.2,0-0.3,0C140.4,164.9,140.4,165.4,140.4,165.8
		 M146.2,166.4c-0.2,0.4-0.3,1-0.3,1.5c0,0.6,0.1,1.1,0.3,1.5s0.4,0.8,0.8,1.1c0.3,0.3,0.7,0.5,1.2,0.7s1,0.2,1.5,0.2
		c0.6,0,1.1-0.1,1.5-0.2s0.9-0.4,1.2-0.7s0.6-0.7,0.8-1.1c0.2-0.4,0.3-1,0.3-1.5c0-0.6-0.1-1.1-0.3-1.5s-0.4-0.8-0.8-1.1
		c-0.3-0.3-0.7-0.5-1.2-0.7s-1-0.2-1.5-0.2c-0.6,0-1.1,0.1-1.5,0.2c-0.5,0.2-0.9,0.4-1.2,0.7C146.6,165.6,146.3,166,146.2,166.4
		 M152.2,166.5c0.1,0.4,0.2,0.9,0.2,1.4c0,0.6-0.1,1-0.2,1.4c-0.1,0.4-0.3,0.7-0.6,1s-0.5,0.5-0.9,0.6c-0.3,0.1-0.7,0.2-1.1,0.2
		c-0.4,0-0.8-0.1-1.1-0.2c-0.3-0.1-0.6-0.3-0.9-0.6c-0.3-0.3-0.4-0.6-0.6-1c-0.1-0.4-0.2-0.9-0.2-1.4c0-0.6,0.1-1,0.2-1.4
		c0.1-0.4,0.3-0.7,0.6-1s0.5-0.5,0.9-0.6c0.3-0.1,0.7-0.2,1.1-0.2c0.4,0,0.8,0.1,1.1,0.2c0.3,0.1,0.6,0.3,0.9,0.6
		C151.9,165.8,152.1,166.1,152.2,166.5 M155,165.8c0,0.4,0,0.9,0,1.3v1.7c0,0.4,0,0.9,0,1.3s0,0.9-0.1,1.3c0.2,0,0.3,0,0.5,0
		s0.3,0,0.5,0c0-0.4,0-0.8-0.1-1.3c0-0.4,0-0.9,0-1.3v-0.9h0.7c0.2,0,0.5,0,0.7,0s0.4,0,0.7,0c0.2,0,0.4,0,0.6,0c0-0.1,0-0.2,0-0.3
		s0-0.2,0-0.3c-0.4,0-0.9,0.1-1.3,0.1c-0.4,0-0.9,0-1.3,0c0-0.2,0-0.4,0-0.6c0-0.2,0-0.4,0-0.7c0-0.2,0-0.4,0-0.6s0-0.4,0-0.7
		c0.2,0,0.4,0,0.6,0c0.2,0,0.5,0,0.8,0s0.5,0,0.8,0s0.5,0,0.7,0.1c0-0.1,0-0.2,0-0.3s0-0.2,0-0.3c-0.4,0-0.7,0-1,0s-0.6,0-0.9,0
		s-0.6,0-0.9,0c-0.3,0-0.6,0-0.9,0C155,164.9,155,165.4,155,165.8 M76,159.3c3.1,0,6.3,0,9.5,0c6,0,12.1,0,18,0
		c28.1,0.1,52.4-0.4,61.7-6.7c-9.1,6.2-33.7,5.4-61.8,5.4c-5.9,0-12,0-18,0c-26.5,0.1-52,0.9-61.3-5C32.6,158.3,53.1,159.3,76,159.3
		 M113.6,217.5c-3.1,0-6.3,0-9.5,0c-6,0-12.1,0-18,0c-28.1-0.1-52.4,0.4-61.7,6.7c9.1-6.2,33.7-5.4,61.8-5.4c5.9,0,12,0,18,0
		c26.5-0.1,52-0.9,61.3,5C157,218.6,136.5,217.5,113.6,217.5 M31.8,191c0,1.1-0.1,2.2-0.1,3.3c0.4,0,0.8-0.1,1.3-0.1
		c0.4,0,0.9,0,1.3,0.1c-0.1-1.1-0.1-2.2-0.1-3.3s-0.1-2.2-0.1-3.4v-2.3c0-0.1,0-0.2,0.1-0.2s0.2,0.1,0.3,0.2
		c0.3,0.3,0.7,0.8,1.3,1.4c0.6,0.7,1.2,1.5,1.9,2.3c0.7,0.9,1.5,1.7,2.2,2.7c0.8,0.9,1.4,1.7,2.1,2.4c0.2,0,0.5-0.1,0.7-0.1h1.5
		c0.3,0,0.5,0,0.8,0.1c-1.5-1.6-2.9-3.3-4.3-4.9s-2.8-3.2-4.2-4.8c0.5-0.5,1.1-1.2,1.8-1.9s1.4-1.4,2.2-2.2c0.8-0.7,1.5-1.5,2.3-2.2
		s1.4-1.3,2.1-1.8c-0.2,0-0.4,0.1-0.6,0.1s-0.4,0-0.6,0s-0.3,0-0.5,0s-0.4-0.1-0.5-0.1c-0.6,0.7-1.2,1.4-1.9,2.1
		c-0.7,0.7-1.3,1.5-2,2.2s-1.3,1.4-2,2.1c-0.7,0.7-1.3,1.2-1.9,1.8c-0.2,0.2-0.3,0.2-0.4,0.2s-0.2-0.1-0.2-0.2v-1.4
		c0-1.1,0-2.3,0.1-3.4c0-1.1,0.1-2.2,0.1-3.4c-0.2,0-0.4,0.1-0.6,0.1s-0.4,0-0.6,0s-0.4,0-0.6,0s-0.4-0.1-0.6-0.1
		c0.1,1.1,0.1,2.3,0.1,3.4c0,1.1,0.1,2.2,0.1,3.4v4.5C31.9,188.7,31.9,189.9,31.8,191 M47.7,179.8c0,1.1,0.1,2.2,0.1,3.4v4.5
		c0,1.1,0,2.3-0.1,3.4c0,1.1-0.1,2.2-0.1,3.3c0.4,0,0.8-0.1,1.3-0.1c0.4,0,0.9,0,1.3,0.1c-0.1-1.1-0.1-2.2-0.1-3.3s-0.1-2.2-0.1-3.4
		v-4.5c0-1.1,0-2.3,0.1-3.4c0-1.1,0.1-2.2,0.1-3.4c-0.2,0-0.4,0.1-0.6,0.1s-0.4,0-0.6,0s-0.4,0-0.6,0s-0.4-0.1-0.6-0.1
		C47.6,177.6,47.6,178.7,47.7,179.8 M63.2,187.5c2.3,2.4,4.4,4.8,6.4,7.1H70v-0.9c0-0.4,0-0.9,0-1.5s0-1.2,0-1.8s0-1.3,0-1.9
		c0-0.6,0-1.3,0-1.8v-1.6c0-0.5,0-1.2,0.1-2c0-0.8,0.1-1.7,0.1-2.5c0-0.9,0.1-1.7,0.1-2.4c0-0.8,0.1-1.3,0.1-1.7
		c-0.3,0.1-0.6,0.1-0.8,0.1c-0.2,0-0.5,0-0.9-0.1c0.1,1.5,0.1,3.1,0.2,4.9c0,1.7,0,3.5,0,5.3v3.5c-0.8-0.8-1.7-1.8-2.8-2.9
		c-1.1-1.1-2.2-2.3-3.4-3.6s-2.4-2.6-3.6-3.9c-1.2-1.3-2.3-2.5-3.4-3.7h-0.4c0,0.6,0.1,1.5,0.1,2.7s0,2.6,0,4.3c0,0.6,0,1.2,0,1.9
		s0,1.5-0.1,2.2c0,0.8-0.1,1.5-0.1,2.3s-0.1,1.5-0.1,2.1s-0.1,1.2-0.1,1.7s-0.1,0.8-0.1,1c0.3,0,0.6-0.1,1-0.1c0.3,0,0.6,0,0.9,0.1
		c0-0.1,0-0.4-0.1-0.8c0-0.4,0-0.8-0.1-1.4c0-0.5,0-1.1-0.1-1.7c0-0.6,0-1.2,0-1.8s0-1.2,0-1.7s0-1,0-1.4c0-1.4,0-2.5,0-3.3
		s0-1.5,0.1-1.9C58.7,182.7,61,185.1,63.2,187.5 M89.1,178.6c0.4,0.3,0.7,0.6,1,0.9h0.3c0-0.3,0.1-0.7,0.2-1.1
		c0.1-0.4,0.2-0.7,0.4-0.9c-0.3-0.2-0.7-0.3-1.1-0.5s-0.9-0.3-1.4-0.5s-1.1-0.3-1.8-0.4c-0.7-0.1-1.5-0.1-2.3-0.1
		c-1.5,0-2.9,0.2-4.2,0.6c-1.3,0.4-2.3,1-3.2,1.8c-0.9,0.8-1.6,1.8-2.1,2.9c-0.5,1.2-0.7,2.5-0.7,3.9c0,1.5,0.2,2.9,0.7,4
		c0.5,1.2,1.1,2.1,2,2.9s1.9,1.4,3.2,1.7c1.2,0.4,2.6,0.6,4.2,0.6c0.5,0,1.1,0,1.7-0.1s1.2-0.2,1.8-0.3c0.6-0.1,1.2-0.2,1.7-0.4
		c0.5-0.1,1-0.3,1.4-0.4c0-0.3,0-0.7,0-1.1c0-0.4,0-0.7,0-1.1c0-1.4,0-2.5,0-3.4s0-1.5,0.1-1.9c-0.2,0.1-0.4,0.1-0.5,0.1
		c-0.2,0-0.4,0-0.6,0c-0.4,0-0.8,0-1.2-0.1c0,0.6,0.1,1.1,0.1,1.7s0,1.2,0,1.8c0,0.5,0,1.1,0,1.6s0,1,0,1.6
		c-0.2,0.1-0.5,0.3-0.8,0.4c-0.3,0.1-0.7,0.2-1,0.3c-0.4,0.1-0.8,0.1-1.2,0.2c-0.4,0-0.8,0.1-1.1,0.1c-1.2,0-2.3-0.2-3.3-0.6
		c-1-0.4-1.8-0.9-2.4-1.6c-0.7-0.7-1.2-1.6-1.5-2.6s-0.5-2.2-0.5-3.4c0-1.4,0.2-2.7,0.6-3.7s0.9-1.9,1.6-2.6
		c0.7-0.7,1.5-1.2,2.4-1.5s1.9-0.5,3-0.5c0.7,0,1.3,0.1,1.9,0.2c0.6,0.1,1.1,0.3,1.6,0.6C88.2,178.1,88.7,178.3,89.1,178.6
		 M95.3,191.8c-0.2-0.3-0.4-0.6-0.6-0.9h-0.3c-0.1,0.5-0.1,0.9-0.2,1.2s-0.2,0.7-0.3,1.1c0.4,0.4,1,0.7,1.7,1s1.5,0.4,2.6,0.4
		c1,0,1.9-0.1,2.7-0.4c0.8-0.3,1.5-0.7,2-1.2s1-1.1,1.2-1.9c0.3-0.7,0.4-1.5,0.4-2.3c0-1-0.2-1.7-0.6-2.3s-0.9-1-1.5-1.4
		s-1.3-0.7-2-0.9s-1.4-0.5-2-0.9c-0.6-0.3-1.1-0.7-1.5-1.2s-0.6-1.1-0.6-1.9c0-0.5,0.1-0.9,0.2-1.3c0.2-0.4,0.4-0.7,0.7-1
		c0.3-0.3,0.7-0.5,1.1-0.7s0.9-0.2,1.3-0.2c0.5,0,0.9,0.1,1.2,0.2c0.3,0.2,0.6,0.4,0.9,0.6c0.2,0.2,0.4,0.5,0.6,0.8
		c0.1,0.3,0.3,0.5,0.4,0.8h0.3c0.1-0.5,0.2-0.9,0.3-1.2s0.2-0.6,0.4-0.9c-0.5-0.4-1.1-0.7-1.7-0.9s-1.3-0.3-2.2-0.3
		s-1.6,0.1-2.3,0.4c-0.7,0.2-1.3,0.6-1.8,1s-0.9,0.9-1.1,1.5c-0.3,0.6-0.4,1.3-0.4,2c0,1,0.2,1.8,0.6,2.4s0.9,1.1,1.5,1.5
		s1.3,0.7,2,1s1.4,0.5,2,0.9c0.6,0.3,1.1,0.7,1.5,1.2s0.6,1.1,0.6,1.9c0,0.5-0.1,1-0.3,1.5c-0.2,0.5-0.4,0.9-0.7,1.2
		s-0.7,0.6-1.2,0.8s-1,0.3-1.5,0.3c-0.6,0-1.1-0.1-1.5-0.2c-0.4-0.2-0.8-0.4-1.2-0.6C95.9,192.4,95.6,192.1,95.3,191.8 M111.9,177.8
		c0.1,1.8,0.1,3.6,0.1,5.4v4.5c0,1.1,0,2.3-0.1,3.4c0,1.1-0.1,2.2-0.1,3.3c0.4,0,0.8-0.1,1.3-0.1c0.4,0,0.9,0,1.3,0.1
		c-0.1-1.1-0.1-2.2-0.1-3.3s-0.1-2.2-0.1-3.4v-4.5c0-1.8,0-3.6,0.1-5.4c0.5,0,0.9,0,1.4,0s1,0,1.5,0.1c0.5,0,1,0.1,1.4,0.1
		c0.5,0,0.9,0.1,1.2,0.1c-0.1-0.3-0.1-0.6-0.1-0.8s0-0.5,0.1-0.8c-1.1,0-2.3,0.1-3.3,0.1c-1.1,0-2.2,0-3.3,0s-2.3,0-3.3,0
		c-1.1,0-2.2-0.1-3.4-0.1c0.1,0.3,0.1,0.6,0.1,0.8s0,0.5-0.1,0.8c0.4-0.1,0.8-0.1,1.2-0.1c0.5,0,0.9-0.1,1.4-0.1s1,0,1.5-0.1
		C111,177.8,111.4,177.8,111.9,177.8 M121.1,181.4c-0.5,1.2-0.7,2.5-0.7,3.9c0,1.5,0.2,2.8,0.7,3.9c0.5,1.2,1.1,2.1,2,2.9
		s1.9,1.4,3.1,1.8c1.2,0.4,2.5,0.6,3.9,0.6s2.8-0.2,3.9-0.6c1.2-0.4,2.2-1,3.1-1.8c0.9-0.8,1.5-1.8,2-2.9c0.5-1.2,0.7-2.5,0.7-3.9
		c0-1.5-0.2-2.8-0.7-3.9c-0.5-1.2-1.1-2.1-2-2.9s-1.9-1.4-3.1-1.8c-1.2-0.4-2.5-0.6-3.9-0.6s-2.7,0.2-3.9,0.6s-2.2,1-3.1,1.8
		S121.6,180.3,121.1,181.4 M136.7,181.6c0.4,1,0.5,2.3,0.5,3.7s-0.2,2.7-0.5,3.7c-0.4,1-0.9,1.9-1.5,2.6s-1.4,1.2-2.3,1.5
		c-0.9,0.3-1.8,0.5-2.8,0.5s-1.9-0.2-2.8-0.5c-0.9-0.3-1.6-0.8-2.3-1.5c-0.6-0.7-1.2-1.5-1.5-2.6c-0.4-1-0.5-2.3-0.5-3.7
		s0.2-2.7,0.5-3.7c0.4-1,0.9-1.9,1.5-2.6s1.4-1.2,2.3-1.5c0.9-0.3,1.8-0.5,2.8-0.5s2,0.2,2.8,0.5c0.9,0.3,1.6,0.8,2.3,1.5
		C135.8,179.7,136.4,180.6,136.7,181.6 M151.7,187.5c2.3,2.4,4.4,4.8,6.4,7.1h0.4v-0.9c0-0.4,0-0.9,0-1.5s0-1.2,0-1.8s0-1.3,0-1.9
		c0-0.6,0-1.3,0-1.8v-1.6c0-0.5,0-1.2,0.1-2c0-0.8,0.1-1.7,0.1-2.5c0-0.9,0.1-1.7,0.1-2.4c0-0.8,0.1-1.3,0.1-1.7
		c-0.3,0.1-0.6,0.1-0.8,0.1s-0.5,0-0.9-0.1c0.1,1.5,0.1,3.1,0.2,4.9c0,1.7,0,3.5,0,5.3v3.5c-0.8-0.8-1.7-1.8-2.8-2.9
		c-1.1-1.1-2.2-2.3-3.4-3.6s-2.4-2.6-3.6-3.9c-1.2-1.3-2.3-2.5-3.4-3.7h-0.4c0,0.6,0.1,1.5,0.1,2.7s0,2.6,0,4.3c0,0.6,0,1.2,0,1.9
		s0,1.5-0.1,2.2c0,0.8-0.1,1.5-0.1,2.3s-0.1,1.5-0.1,2.1s-0.1,1.2-0.1,1.7s-0.1,0.8-0.1,1c0.3,0,0.6-0.1,1-0.1c0.3,0,0.6,0,0.9,0.1
		c0-0.1,0-0.4-0.1-0.8c0-0.4,0-0.8-0.1-1.4c0-0.5,0-1.1-0.1-1.7c0-0.6,0-1.2,0-1.8s0-1.2,0-1.7s0-1,0-1.4c0-1.4,0-2.5,0-3.3
		s0-1.5,0.1-1.9C147.2,182.7,149.4,185.1,151.7,187.5 M41.2,201.3c0,1,0,2.3,0,4.1c0,0.4,0,0.8,0,1.3s-0.1,0.9-0.1,1.4
		c-0.1,0.5-0.2,0.9-0.4,1.3c-0.2,0.4-0.4,0.8-0.7,1.1s-0.7,0.6-1.1,0.8c-0.5,0.2-1,0.3-1.7,0.3s-1.3-0.1-1.7-0.2
		c-0.5-0.2-0.9-0.4-1.2-0.7s-0.5-0.6-0.7-1s-0.3-0.8-0.4-1.2s-0.1-0.9-0.1-1.3c0-0.4,0-0.9,0-1.3c0-0.7,0-1.4,0-2s0-1.2,0.1-1.8
		c0-0.6,0-1.1,0.1-1.5c0-0.4,0-0.8,0.1-1.1c-0.1,0-0.3,0-0.4,0.1c-0.1,0-0.3,0-0.4,0s-0.3,0-0.5,0s-0.3,0-0.5-0.1c0,0.6,0,1.2,0.1,2
		c0,0.8,0,1.7,0,2.8c0,0.5,0,0.9,0,1.4s0,1,0,1.5c0,1.8,0.4,3.1,1.3,4c0.8,0.8,2.2,1.3,4,1.3c0.8,0,1.6-0.1,2.2-0.4
		c0.6-0.2,1.2-0.6,1.6-1s0.8-1,1-1.7s0.4-1.4,0.4-2.2c0-0.7,0-1.4,0.1-2.1c0-0.7,0-1.4,0.1-2.1c0-0.7,0.1-1.3,0.1-1.9
		c0-0.6,0.1-1.1,0.1-1.5c-0.2,0.1-0.4,0.1-0.6,0.1c-0.1,0-0.2,0-0.4,0c-0.1,0-0.3,0-0.4-0.1C41.2,199.7,41.2,200.4,41.2,201.3
		 M45.9,201.8c0,0.8,0,1.6,0,2.4v3.2c0,0.8,0,1.6,0,2.4c0,0.8-0.1,1.6-0.1,2.3c0.3,0,0.6,0,0.9,0s0.6,0,0.9,0c0-0.8-0.1-1.5-0.1-2.3
		s0-1.6,0-2.4v-1c0.2,0,0.5,0,0.7,0s0.5,0,0.8,0c0.4,0,1,0,1.5-0.1c0.6-0.1,1.1-0.3,1.6-0.6s0.9-0.7,1.3-1.2s0.5-1.2,0.5-2
		c0-0.5-0.1-1-0.2-1.3c-0.1-0.4-0.3-0.6-0.6-0.9c-0.2-0.2-0.5-0.4-0.8-0.5s-0.6-0.2-0.9-0.3s-0.6-0.1-0.9-0.1s-0.5,0-0.7,0
		c-0.1,0-0.3,0-0.5,0s-0.4,0-0.6,0s-0.4,0-0.6,0s-0.4,0-0.5,0c-0.3,0-0.6,0-0.9,0s-0.6,0-0.9-0.1C45.9,200.2,45.9,201,45.9,201.8
		 M48.8,205.7c-0.5,0-0.9,0-1.3-0.1v-5.5h1.7c0.5,0,0.9,0,1.3,0.1c0.4,0.1,0.7,0.2,1,0.4s0.5,0.4,0.6,0.8c0.1,0.3,0.2,0.8,0.2,1.3
		c0,0.6-0.1,1.1-0.3,1.5s-0.5,0.7-0.8,0.9s-0.7,0.4-1.1,0.5C49.6,205.7,49.2,205.7,48.8,205.7 M55.7,203c-0.3,0.8-0.5,1.8-0.5,2.8
		s0.2,2,0.5,2.8s0.8,1.5,1.4,2.1s1.3,1,2.2,1.3s1.8,0.4,2.8,0.4s2-0.1,2.8-0.4c0.9-0.3,1.6-0.7,2.2-1.3s1.1-1.3,1.4-2.1
		s0.5-1.8,0.5-2.8s-0.2-2-0.5-2.8s-0.8-1.5-1.4-2.1s-1.3-1-2.2-1.3c-0.9-0.3-1.8-0.4-2.8-0.4s-1.9,0.1-2.8,0.4
		c-0.9,0.3-1.6,0.7-2.2,1.3C56.6,201.4,56.1,202.1,55.7,203 M66.9,203.1c0.3,0.7,0.4,1.6,0.4,2.7c0,1-0.1,1.9-0.4,2.7
		c-0.3,0.7-0.6,1.4-1.1,1.9s-1,0.8-1.6,1.1c-0.6,0.2-1.3,0.4-2,0.4s-1.4-0.1-2-0.4c-0.6-0.2-1.2-0.6-1.6-1.1
		c-0.5-0.5-0.8-1.1-1.1-1.9c-0.3-0.7-0.4-1.6-0.4-2.7c0-1,0.1-1.9,0.4-2.7c0.3-0.7,0.6-1.4,1.1-1.9s1-0.8,1.6-1.1
		c0.6-0.2,1.3-0.4,2-0.4s1.4,0.1,2,0.4c0.6,0.2,1.2,0.6,1.6,1.1C66.3,201.7,66.6,202.4,66.9,203.1 M77.6,207.3
		c1.6,1.7,3.1,3.4,4.5,5h0.3v-0.6c0-0.3,0-0.6,0-1s0-0.8,0-1.3s0-0.9,0-1.4s0-0.9,0-1.3v-1.1c0-0.4,0-0.8,0-1.4
		c0-0.6,0.1-1.2,0.1-1.8s0.1-1.2,0.1-1.7s0.1-1,0.1-1.2c-0.2,0.1-0.4,0.1-0.6,0.1s-0.4,0-0.6-0.1c0.1,1.1,0.1,2.2,0.1,3.5
		c0,1.2,0,2.5,0,3.8v2.5c-0.6-0.6-1.2-1.3-2-2.1s-1.6-1.7-2.4-2.6c-0.8-0.9-1.7-1.8-2.6-2.8c-0.9-0.9-1.7-1.8-2.4-2.6h-0.3
		c0,0.4,0,1.1,0,1.9c0,0.9,0,1.9,0,3.1c0,0.4,0,0.9,0,1.4s0,1,0,1.6c0,0.5,0,1.1-0.1,1.6c0,0.5-0.1,1-0.1,1.5s-0.1,0.9-0.1,1.2
		s-0.1,0.6-0.1,0.7c0.2,0,0.4,0,0.7,0c0.2,0,0.5,0,0.6,0c0-0.1,0-0.3,0-0.6s0-0.6,0-1s0-0.8,0-1.2s0-0.9,0-1.3c0-0.4,0-0.8,0-1.2
		s0-0.7,0-1c0-1,0-1.8,0-2.4c0-0.6,0-1,0-1.4C74.4,203.8,76,205.6,77.6,207.3 M92.4,200.3c0,1.3,0.1,2.5,0.1,3.8v3.2
		c0,0.8,0,1.6,0,2.4c0,0.8-0.1,1.6-0.1,2.3c0.3,0,0.6,0,0.9,0s0.6,0,0.9,0c0-0.8-0.1-1.5-0.1-2.3s0-1.6,0-2.4v-3.2
		c0-1.3,0-2.6,0.1-3.8c0.3,0,0.7,0,1,0c0.4,0,0.7,0,1.1,0s0.7,0,1,0.1c0.3,0,0.6,0.1,0.9,0.1c-0.1-0.2-0.1-0.4-0.1-0.6
		c0-0.1,0-0.3,0.1-0.6c-0.8,0-1.6,0-2.4,0.1c-0.8,0-1.6,0-2.4,0s-1.6,0-2.4,0s-1.6,0-2.4-0.1c0.1,0.2,0.1,0.4,0.1,0.6
		c0,0.2,0,0.4-0.1,0.6c0.3,0,0.6-0.1,0.9-0.1s0.7,0,1-0.1c0.4,0,0.7,0,1.1,0C91.7,200.3,92,200.3,92.4,200.3 M109.3,201.8
		c0,0.8,0,1.6,0,2.4v0.6c-0.7,0-1.3,0-1.9,0s-1.3,0-1.9,0c-0.7,0-1.3,0-1.9,0s-1.3,0-1.9,0v-0.6c0-0.8,0-1.6,0-2.4
		c0-0.8,0.1-1.6,0.1-2.4c-0.2,0-0.3,0-0.5,0.1c-0.1,0-0.3,0-0.4,0s-0.3,0-0.4,0s-0.3,0-0.5-0.1c0,0.8,0.1,1.6,0.1,2.4
		c0,0.8,0,1.6,0,2.4v3.2c0,0.8,0,1.6,0,2.4c0,0.8-0.1,1.6-0.1,2.3c0.3,0,0.6,0,0.9,0s0.6,0,0.9,0c0-0.8-0.1-1.5-0.1-2.3s0-1.6,0-2.4
		v-1.7c0.7,0,1.3,0,1.9,0s1.3,0,1.9,0c0.7,0,1.3,0,1.9,0s1.3,0,1.9,0v1.7c0,0.8,0,1.6,0,2.4c0,0.8-0.1,1.6-0.1,2.3
		c0.3,0,0.6,0,0.9,0s0.6,0,0.9,0c0-0.8-0.1-1.5-0.1-2.3s0-1.6,0-2.4v-3.2c0-0.8,0-1.6,0-2.4c0-0.8,0.1-1.6,0.1-2.4
		c-0.2,0-0.3,0-0.5,0.1c-0.1,0-0.3,0-0.4,0s-0.3,0-0.4,0s-0.3,0-0.5-0.1C109.3,200.2,109.3,201,109.3,201.8 M124.7,212.1
		c-0.2-0.3-0.4-0.7-0.6-1.3c-0.3-0.6-0.5-1.2-0.9-1.9c-0.3-0.7-0.7-1.5-1-2.3c-0.4-0.8-0.7-1.7-1.1-2.5c-0.4-0.9-0.7-1.7-1.1-2.5
		c-0.3-0.8-0.7-1.6-1-2.3h-0.2c-1,2.2-1.9,4.4-2.9,6.5s-1.9,4.3-2.9,6.4c0.2,0,0.4,0,0.7,0c0.2,0,0.5,0,0.7,0
		c0.2-0.6,0.4-1.3,0.7-2.2s0.7-1.8,1.1-2.7c0.4,0,0.8,0,1.1,0c0.4,0,0.7,0,1.1,0s0.8,0,1.2,0s0.8,0,1.2,0c0.2,0.4,0.3,0.8,0.5,1.3
		s0.4,0.9,0.5,1.3c0.2,0.4,0.3,0.9,0.5,1.3c0.1,0.4,0.3,0.7,0.4,1c0.2,0,0.3,0,0.5,0h1C124.4,212,124.6,212.1,124.7,212.1
		 M118.6,201.6l2.1,4.7c-0.3,0-0.7,0-1,0s-0.7,0-1,0s-0.7,0-1,0s-0.7,0-1,0L118.6,201.6z M130.6,204.2c-0.9-1.7-1.7-3.4-2.6-5.1
		h-0.3c-0.1,1-0.2,2-0.4,3.1c-0.1,1.1-0.3,2.2-0.4,3.3c-0.2,1.1-0.3,2.2-0.5,3.3s-0.3,2.2-0.5,3.2c0.2,0,0.4,0,0.6,0s0.4,0,0.6,0
		c0-0.5,0-1.1,0.1-1.9c0.1-0.8,0.1-1.6,0.2-2.5s0.2-1.8,0.3-2.6c0.1-0.9,0.2-1.7,0.3-2.5l0,0c0.8,1.6,1.6,3.2,2.4,4.8
		s1.6,3.1,2.3,4.7h0.2c0.7-1.7,1.5-3.3,2.3-4.8s1.7-3.1,2.5-4.6l0,0c0.2,1.6,0.4,3.2,0.5,4.7s0.3,3.1,0.4,4.8c0.1,0,0.3,0,0.4,0h0.9
		c0.1,0,0.3,0,0.4,0c-0.1-1-0.3-2.1-0.4-3.1c-0.1-1-0.2-2.1-0.4-3.2c-0.1-1.1-0.2-2.2-0.4-3.3c-0.1-1.1-0.2-2.2-0.4-3.4h0.1
		c-0.3,0.6-0.6,1.2-1,1.8c-0.4,0.7-0.7,1.3-1.1,2c-0.4,0.7-0.7,1.3-1.1,2c-0.4,0.7-0.7,1.3-1,1.8c-0.3,0.6-0.6,1.1-0.8,1.5
		s-0.4,0.8-0.5,1C132.4,207.6,131.5,205.9,130.6,204.2 M143.3,201.7c0,0.8,0,1.6,0,2.4v3.2c0,0.8,0,1.6,0,2.4c0,0.8-0.1,1.6-0.1,2.4
		c0.6,0,1.1,0,1.7,0h3.4c0.5,0,1.1,0,1.7,0c0-0.1-0.1-0.3-0.1-0.5c0-0.1,0-0.2,0-0.3s0-0.2,0-0.3c-0.3,0.1-0.6,0.1-1,0.1
		s-0.8,0.1-1.3,0.1s-0.9,0-1.4,0h-1.3c0-0.2,0-0.6,0-1c0-0.5,0-1,0-1.7v-1.8c0-0.2,0-0.4,0-0.5s0-0.2,0-0.4c0.2,0,0.5,0,0.9,0
		s0.8,0,1.2,0s0.9,0,1.3,0c0.4,0,0.8,0.1,1.1,0.1c0-0.2-0.1-0.4-0.1-0.6c0-0.2,0-0.4,0.1-0.6c-0.3,0-0.6,0-0.9,0.1
		c-0.3,0-0.6,0-1,0.1c-0.4,0-0.8,0-1.2,0s-0.9,0-1.5,0c0-0.2,0-0.6,0-1c0-0.5,0-0.9,0-1.4s0-0.9,0-1.2c0-0.4,0-0.7,0-1.1
		c0.6,0,1.1,0,1.6,0c0.4,0,0.8,0,1.2,0.1c0.4,0,0.7,0,1,0.1c0.3,0,0.7,0,1.1,0.1c0-0.2-0.1-0.4-0.1-0.6c0-0.2,0-0.4,0.1-0.6
		c-0.6,0-1.1,0-1.6,0.1c-0.5,0-1.1,0-1.6,0c-0.6,0-1.1,0-1.7,0c-0.5,0-1.1,0-1.7-0.1C143.2,200.2,143.2,201,143.3,201.7
		 M152.5,210.4c-0.2-0.2-0.3-0.5-0.4-0.7h-0.2c0,0.4-0.1,0.6-0.1,0.9c0,0.2-0.1,0.5-0.2,0.8c0.3,0.3,0.7,0.5,1.2,0.7
		s1.1,0.3,1.9,0.3c0.7,0,1.4-0.1,1.9-0.3c0.6-0.2,1-0.5,1.4-0.9s0.7-0.8,0.9-1.3s0.3-1,0.3-1.6c0-0.7-0.1-1.2-0.4-1.6
		c-0.3-0.4-0.7-0.7-1.1-1c-0.4-0.3-0.9-0.5-1.4-0.7s-1-0.4-1.4-0.6c-0.4-0.2-0.8-0.5-1.1-0.8s-0.4-0.8-0.4-1.4
		c0-0.3,0.1-0.6,0.2-0.9c0.1-0.3,0.3-0.5,0.5-0.7s0.5-0.4,0.8-0.5s0.6-0.2,1-0.2c0.3,0,0.6,0.1,0.9,0.2c0.2,0.1,0.5,0.3,0.6,0.4
		c0.2,0.2,0.3,0.4,0.4,0.6c0.1,0.2,0.2,0.4,0.2,0.6h0.2c0.1-0.4,0.1-0.7,0.2-0.9c0.1-0.2,0.2-0.5,0.3-0.7c-0.4-0.3-0.8-0.5-1.2-0.7
		c-0.4-0.1-0.9-0.2-1.5-0.2s-1.2,0.1-1.7,0.3s-0.9,0.4-1.3,0.7c-0.4,0.3-0.6,0.7-0.8,1.1s-0.3,0.9-0.3,1.4c0,0.7,0.1,1.3,0.4,1.7
		c0.3,0.4,0.7,0.8,1.1,1.1c0.4,0.3,0.9,0.5,1.4,0.7s1,0.4,1.4,0.6c0.4,0.2,0.8,0.5,1.1,0.8s0.4,0.8,0.4,1.3c0,0.4-0.1,0.7-0.2,1
		c-0.1,0.3-0.3,0.6-0.5,0.9c-0.2,0.2-0.5,0.4-0.8,0.6c-0.3,0.1-0.7,0.2-1.1,0.2c-0.4,0-0.8-0.1-1.1-0.2c-0.3-0.1-0.6-0.3-0.8-0.5
		C152.9,210.8,152.7,210.6,152.5,210.4 M96.8,94.5L96.8,94.5L96.8,94.5 M88.1,92.3c-0.1,0-0.2,0-0.2,0.1c-0.5,0.2-0.7,0.7-0.6,1.1
		s0.5,0.6,0.9,0.6c0.1,0,0.2,0,0.3,0c0.1,0,0.1,0,0.2-0.1c0.4-0.1,1-0.3,1.8-0.5L89.2,92C88.8,92.1,88.4,92.2,88.1,92.3 M90.9,91.5
		l1.4,1.6c0.7-0.1,1.5-0.2,2.3-0.3l-1.4-1.7C92.3,91.2,91.5,91.4,90.9,91.5 M95.4,90.9c-0.2,0-0.3,0-0.5,0l1.6,1.8
		c1,0,1.9,0.1,2.7,0.3l-1.8-2C96.9,91,96.2,90.9,95.4,90.9 M102.8,93.9c0.5,0.2,1-0.1,1.2-0.6s-0.1-1-0.6-1.2
		c-0.1,0-1.4-0.5-3.4-0.8l2,2.3C102.5,93.8,102.8,93.9,102.8,93.9 M126,135L126,135L126,135 M134.9,92.1c0,0.8,0.6,1.6,0.6,2.4
		c0,0.9-0.2,1.8-0.7,2.5c-0.3,0.4-0.5,0.8-0.9,1.2c-0.1,0.1-0.1,0.3-0.2,0.5c-0.4,1.4-1.1,2.5-2.2,3.4c-0.1,0-0.1,0.1-0.2,0.2
		c-0.1,0.8-0.8,1-1.4,1.1c-0.7,0.1-1.3,0.1-2,0.2c-0.3,0-0.4,0-0.6,0.3s-0.5,0.5-0.9,0.4c-0.5-0.1-1-0.1-1.4,0
		c-0.3,0.1-0.5,0.2-0.6,0.6c0,0.3,0.2,0.5,0.5,0.5c0.4-0.1,0.7-0.3,1-0.4s0.6-0.1,1-0.1c0.6,0.1,1.1,0.1,1.8-0.2
		c-0.5,0.7-0.7,1.4-1.3,1.9s-1.1,1-2,0.9c-0.1,0.2,0,0.5,0,0.7s-0.3,1-0.3,1l-0.1,0.2c-0.1,0.5-0.1,0.9,0.2,1.3c0,0,0.1,0.1,0,0.2
		c0,0.1-0.1,0.1-0.2,0c-0.2,0-0.4-0.1-0.5-0.1c-0.1,0.1-0.2,0.4-0.3,0.6c-0.2,0.7-0.6,1.4-0.7,2.1c0,0.3,0,0.6,0.2,0.8
		c0.1,0.1,0.1,0.2,0,0.3c-0.7,0.5-0.9,1.2-0.9,2c-0.1,2,0.5,3.9,1.6,5.5c1,1.4,1.8,2.9,2.6,4.4c0.3,0.6,0.7,1.1,1,1.7
		c0,0.1,0.1,0.1,0.1,0.2c0.1,0.1,0.7,0.7,1.1,0.8c0.4,0.1,0.6-0.1,0.7-0.4c0-0.1-0.1-0.2,0.1-0.2c0.1,0,0.2,0,0.3,0.1
		c0.2,0.2,0.3,0.5,0.3,0.8c0,0.1,0.1,0.2,0.2,0.3c0.6,0.2,0.7,0.5,0.7,1.1c0,0.2,0,0.5,0,0.7c0,0.4,0,0.7,0.4,1
		c-0.3,0.2-0.6,0.2-0.9,0.1c-0.3-0.2-0.5-0.1-0.8-0.1c-0.3,0.1-0.7,0.1-0.9-0.2v-0.1c0.2-0.1,0.5-0.1,0.5-0.4s-0.2-0.4-0.4-0.5
		c-0.3-0.2-0.6-0.3-0.9-0.4c-0.1,0.2,0,0.4,0,0.5c0.2,1.1-0.1,2.1-0.3,3.1c-0.3,1.1-0.3,2.2,0.3,3.2c0.3,0.6,0.7,1.2,1.3,1.6
		c0.4,0.2,0.4,0.4,0.2,0.8c-0.7,1.6-1,3.2-0.9,5c0,0.2-0.1,0.3-0.2,0.3c0,0.1-0.1,0.2-0.1,0.2l0.1,0.1l0,0c0.2,0,0.3-0.1,0.4-0.3
		c0.1,0.2,0,0.4-0.1,0.5c0.1,0,0.1,0.1,0.2,0.1c0.2,0,0.3-0.1,0.4-0.3c0.1,0.2,0,0.4-0.1,0.5l0.1,0.1c0.2,0,0.3-0.1,0.4-0.3
		c0.1,0.2,0,0.4-0.2,0.5c0,0,0,0,0,0.1l0,0c0.2,0,0.3-0.1,0.4-0.3c0.1,0.3-0.1,0.4-0.2,0.6l0,0c0.1,0.3,0.1,0.7,0.1,1.1
		c0,0.2-0.1,0.4-0.3,0.6c0,0.4-0.1,0.9-0.4,1.3c-0.4,0.6-1,0.9-1.7,0.9c0.1,0.2,0.1,0.5,0,0.8c-0.1,0.5-0.6,0.9-1.1,0.9l0,0
		c-0.2,0-0.5-0.1-0.6-0.4c-0.2-0.2-0.5-0.3-0.9-0.3c-0.2,0-0.5,0-0.7,0.1h-0.1c-0.7,0.1-1.4,0.3-2.2,0.6c-1.4,0.6-2.9,0.9-4.4,0.9
		c-0.7,0-1.5-0.1-2.3-0.2c-1-0.2-1.9-0.5-2.7-0.8h-0.1c-0.9-0.3-1.9-0.5-2.8-0.5c-1.2,0-2.4,0.3-3.6,0.8c-1.1,0.5-2.4,0.7-3.9,0.7
		c-0.3,0-0.7,0-1.1,0c-1.4-0.1-2.8-0.5-4.1-0.9c-0.2-0.1-0.4-0.1-0.6-0.2c-0.9-0.3-1.7-0.4-2.6-0.4c-1,0-2,0.2-3,0.5
		c-1.4,0.5-3.2,1-5.2,0.9s-3.8-0.6-5.2-1c-0.9-0.3-1.8-0.4-2.7-0.4c-1.1,0-2.3,0.2-3.4,0.7c-1.4,0.6-2.8,0.9-4.2,0.9
		c-0.7,0-1.4-0.1-2.1-0.2c-0.8-0.2-1.5-0.5-2.2-0.7l-0.2-0.1c-0.8-0.3-1.8-0.7-2.7-0.6c-0.4,0-0.7,0.2-0.9,0.5s-0.5,0.3-0.6,0.3l0,0
		c-0.5,0-1-0.3-1.2-0.8c-0.2-0.4-0.1-0.9,0.2-1.2c-0.3-0.1-0.5-0.2-0.7-0.4c-0.6-0.4-1-1.1-0.9-1.8c-0.3-0.2-0.5-0.5-0.6-0.9
		c0-0.1,0-0.3,0-0.4l0.1-0.1c-0.2-0.1-0.3-0.3-0.2-0.5c0.1,0.1,0.2,0.2,0.4,0.3l0,0l0,0c-0.2-0.1-0.3-0.3-0.2-0.5
		c0.1,0.1,0.2,0.2,0.4,0.3l0,0l0.1-0.1c-0.1-0.1-0.2-0.3-0.1-0.5c0.1,0.1,0.2,0.2,0.4,0.3l0,0l0.1-0.1c-0.1-0.1-0.2-0.2-0.1-0.4
		c0.1,0.1,0.2,0.2,0.4,0.3l0,0c-0.5-0.4-0.6-1.7-0.7-2.3c-0.2-1-0.4-1.9-0.8-2.8c-0.1-0.2-0.1-0.3-0.2-0.5c-0.2-0.6,0-0.9,0.5-1.2
		c1.2-0.9,1.8-2,1.6-3.5c-0.1-0.6-0.3-1.1-0.3-1.7c-0.1-0.7-0.2-1.4-0.1-2.1c0-0.1,0.1-0.2,0-0.2c-0.1-0.1-0.2,0-0.2,0.1
		c-0.3,0.2-0.6,0.3-0.9,0.6c-0.3,0.5-0.3,0.6,0.2,0.9c-0.4,0.2-0.8,0.2-1.1-0.1c-0.1-0.1-0.2-0.1-0.3,0c-0.2,0.1-0.5,0.2-0.9,0.4
		c0.2-0.4,0.1-0.7-0.1-1.1c-0.1-0.2,0-0.5,0.1-0.7c0.2-0.3,0.4-0.6,0.7-0.8c0.2-0.1,0.3-0.3,0.2-0.5c0-0.3,0.1-0.5,0.3-0.7
		c0.1-0.2,0.2-0.5,0.5-0.1c0.1,0.2,0.3,0.2,0.5,0.1c0.9-0.4,1.6-1.1,2-2c0.2-0.7,0.4-1.4,0.9-1.9c1.8-2.3,2.5-4,2.9-4.6
		c0.9-1.2,1.3-4.2,1.1-5.5c0-0.1-0.3,0.1-0.4,0.1c0.2-0.2,0.4-0.8,0.4-1c0-0.1,0.1-0.6-0.1-0.7c-0.1-0.1-0.1-0.2-0.2-0.2
		c-0.4-0.4-0.5-0.9-0.7-1.4c-0.1-0.3-0.1-0.6-0.5-0.3c-0.1,0.1-0.2,0.1-0.2-0.1c0.1-0.6,0-1.1-0.2-1.7s-0.2-1.2-0.1-1.8
		c0-0.2,0-0.3-0.2-0.3c-1.2,0.1-2.7-1.3-2.9-1.5c-0.2-0.1-0.3-0.1-0.2-0.3c0.1-0.1-0.6-0.5-0.9-0.6c-0.2-0.1-0.1-0.3,0-0.3
		c1,0,1.5-0.2,2.2-0.2c1.1-0.1,2.1,0.8,2.4,0.5c0.2-0.2,0.1-0.5,0.1-0.7c-0.1-0.3-0.3-0.5-0.6-0.6c-0.6-0.1-1.1-0.1-1.7-0.1
		c-1.2,0-2.3,0-3.5-0.4c-0.1,0-0.1,0-0.2,0c-0.7,0.1-1.2-0.5-1.4-0.9c-0.5-0.9-1-1.6-1.4-2.5c-0.2-0.3-0.3-0.6-0.5-1
		c-0.3-0.6-0.9-0.9-1.3-1.3c-1.4-1.5-1-3.6-1.2-4.8c0.3,0.4,0.4,0.8,0.5,1.2c0.2,0.8,0.4,1.5,0.8,2.2c0.1,0.1,0.1,0.2,0.2,0.2
		s0.2-0.1,0.2-0.2c0-1,0.2-1.8,0.2-2.6c0.1-0.5,0.1-1,0.1-1.5c0.3,0.3,0.5,1.9,0.6,2.7c0,0.8,0.1,1.5,0.3,2.3
		c0.1,0.3,0.2,0.3,0.4,0.1c0.7-0.7,0.9-1.6,0.9-2.5c0-0.3,0-0.7,0-1c0-0.1,0-0.3,0.1-0.3c0.2,0,0.2,0.1,0.3,0.3
		c0.4,0.7,0.5,1.5,0.3,2.3c-0.1,0.6-0.4,1.2-0.7,1.8c-0.4,0.7-0.5,1.3-0.1,2c0,0.1,0.1,0.2,0.2,0.2s0.1-0.1,0.2-0.2
		c0.3-0.9,1-1.5,1.7-2.1c0.2-0.1,0.3-0.4,0.4-0.3c0.2,0,0.1,0.2,0.1,0.3c-0.2,0.7-0.4,1-0.6,1.5c-0.3,0.6-0.6,1.1-0.7,1.7
		c0,0.2,0,0.4,0.2,0.6c0.7,0.8,1.5,1,2.5,1c0.2,0,0.3,0,0.3-0.2c-0.3-0.8,0.4-2.2,0.4-2.2c0.3-0.5,0.2-1-0.1-1.6
		c-0.5-0.7-1-1.4-1.7-1.8c-1.2-0.6-1.1-2.2-1-2.3c0.6,0.6,1.1,1.6,2.1,1.8c0-0.4-0.1-0.9,0-1.3c0.1-0.9,0.5-1.8,0.9-2.7
		c0.1-0.1,0.3-0.3,0.2,0c-0.4,2.6-0.2,3.5-0.2,3.6s0,0.3,0.1,0.3c0.1,0.1,0.2-0.1,0.3-0.2c0.8-0.8,1.3-1.6,1.7-2.7
		c0.1,2.1-1.2,3.5-1.4,3.7c-0.3,0.4-0.3,0.7,0,1.2c0.5,0.7,1.1,1.1,1.9,1.4c0.2,0.1,0.3-0.1,0.3-0.2c0.1-0.7-0.6-2.7-0.1-3.7
		c0.1,0.4,0.7,1.8,0.9,2.4c0.2,0.7,0.2,1.4,0,2.1c0,0.2-0.1,0.2,0.1,0.4c0.2,0.3,0.5,0.6,0.7,0.8c1.1-1.1,1.2-2.4,0.8-3.8
		c0.2,0.4,0.5,0.8,0.7,1.2c0.5,0.8,0.4,1.6-0.1,2.3c-0.2,0.2-0.3,0.5-0.5,0.7c-0.1,0.2-0.3,0.4-0.1,0.7c0.1,0.2,0.2,0.4,0.5,0.3
		c0.9-0.2,1.8-0.6,2-1.7c0-0.1,0-0.2,0.1-0.2s0.1,0.1,0.2,0.2c0.1,0.2,0,0.8-0.3,1.3l0,0c-0.2,0.4-0.5,0.7-0.9,0.9
		c-0.1,0.1-0.3,0.2,0,0.2c0.2,0.1,2.3-0.2,2.7-1c0.1,0.6-0.7,1.8-3,1.7c0.1,0.1,0.2,0.1,0.3,0.1c0.4,0,0.7,0.1,0.9,0.4
		c0.2,0.3,2.1,1.1,2.9,1.3c0.1,0,0.2,0,0.2,0.1c0.5,0.1,0.6,0.2,0.5,0.7c-0.1,0.4,0.1,0.8-0.2,1.2c-0.2,0.2-0.8,0.6-1,0.7
		c-0.6,0.1-2-0.2-2.1,0.2c0,0.2,0,0.3,0.1,0.5c0.3,0.4,0.8,0.4,1.2,0.4c0.1,0,0.2-0.1,0.3,0c0,0.1,0,0.1-0.1,0.2
		c-0.2,0.2-0.1,0.3,0.1,0.4c0.5,0.2,0.9,0.5,1.2,0.9c0.1,0.1,0.2,0.2,0.4,0.2c0.5,0.1,1,0.4,1.3,0.8c0,0,0,0.1,0.1,0
		c0,0,0.4-4,1.8-4.6c0.1-0.1,1.2-0.1,1.7-0.2c0.2,0,2.5-0.4,2.7-0.4c0.1,0,0.3,0,0.4,0c0.3,0,0.4,0.3,0.6,0.4c0.2,0,0.4-0.1,0.7,0
		c0.5,0.2,0.9,0.6,1.3,0.9c0.5,0.3,0.6,0.4,0.7,0.6h2.3c0.1-0.1,0.1-0.2,0.2-0.3s0.2-0.2,0.3-0.3c0-1-0.2-3.3-0.2-3.7
		c-0.1-1.1-0.7-2.6-1.1-3.7c0.1,0.4,0.2,0.6,0.2,0.7c0,0.4-0.1,0.7-0.2,1c-0.1,0.2-0.1,0.4-0.1,0.7l0,0c0,0.1,0,0.2,0,0.3v0.1h-0.1
		c-0.2,0-1.6-1-2-2c0,0,0,0-0.1,0.1c0,0-0.1,0.1-0.2,0.1c-0.3,0.2-0.8,0.4-1,0.4h-0.2v-0.1c0-0.2,0.1-0.3,0.2-0.5
		c0.1-0.3,0.2-0.6,0.2-0.9c0-0.9,0.2-1.6,0.6-2.2c0-0.1,0.1-0.1,0.1-0.2c-0.2,0-0.4,0.1-0.6,0.2c-0.3,0.1-0.5,0.3-0.8,0.5
		s-0.7,0.5-1,0.7l-0.3,0.2c0,0-1.1,0.7-2,0.8c-0.2,0-0.4,0.1-0.6,0.1s-0.3,0-0.4,0c-0.2,0-0.3-0.1-0.5-0.2c-0.6-0.3-1.2-0.7-1.8-1.2
		l0,0c-0.1-0.1-0.2-0.2-0.3-0.3l0,0c-0.1-0.1-0.1-0.1-0.2-0.2c-0.3-0.4-0.4-0.8-0.2-1.2c0.1-0.4,0.3-0.7,0.7-0.9H75
		c0.2-0.1,0.4-0.3,0.7-0.4h0.1c0.1,0,0.1,0,0.1,0.1c0.5,0.8,0.7,1.6,0.5,2.4c0.5-0.1,1.1-0.4,1.7-0.7h0.1c0.2-0.1,0.4-0.2,0.5-0.3
		c0.3-0.2,0.7-0.4,1-0.6c0.2-0.1,0.4-0.2,0.6-0.3s0.3-0.1,0.5-0.2c0.1,0,0.1-0.1,0.2-0.1c-0.1,0-0.1,0-0.2,0
		c-0.4,0.1-0.9,0.2-1.1,0.1c-0.6-0.1-1.5-0.5-1.9-0.7c0,0-0.1,0-0.1-0.1c-0.1,0-0.1-0.1-0.2-0.1c0,0,0,0-0.1,0s-0.2-0.1-0.2-0.2
		s0.1-0.2,0.2-0.2l0.1-0.1c0.3-0.2,1-0.6,1.6-0.7c-0.2-0.2-0.4-0.5-0.6-0.9l0,0c-0.2-0.3-0.6-0.8-0.8-1L77.5,94
		c-0.4-0.1-0.8-0.2-1.2-0.2c-0.1,0-0.1,0-0.2,0c-0.3,0-0.5,0-0.7,0.1c0,0-0.1,0-0.2,0.1c-0.5,0.2-1.8,0.6-2.4,0.7
		c-0.2,0.1-0.5,0.1-0.7,0.1H72c-0.1,0-0.1,0-0.2,0c-0.3,0-0.6-0.1-0.9-0.1c-0.1,0-0.1-0.1-0.2-0.1c0-0.1,0-0.1,0.1-0.2
		c0.2-0.3,0.4-0.6,0.6-0.9c0.1-0.1,0.2-0.3,0.2-0.4c0.2-0.3,0.5-0.6,0.8-0.8c0.4-0.3,0.8-0.4,1.2-0.4c0.1,0,0.2,0,0.4,0
		c0.1,0,0.4,0,0.7,0c0.1,0,0.2,0,0.3,0s0.2,0,0.4,0c-0.1,0-0.1,0-0.2-0.1c-0.7-0.2-2-0.8-2.5-2.2c0-0.1,0-0.1,0-0.2h0.1l0,0
		c0.3,0,1.7,0.2,2.2,0.4c0.2,0.1,1.3,0.9,1.7,1.2c0,0,0.1,0.1,0.3,0.2c0.2,0.2,0.7,0.5,0.7,0.5l0,0c0,0,0.1,0,0.1-0.1
		s-0.5-0.7-0.8-1.1c-0.1-0.2-0.3-0.3-0.3-0.4c-0.2-0.3-0.3-0.5-0.5-0.8c0-0.1-0.1-0.3-0.3-0.5c-0.6-1.2-1.9-3.9-2-4.2
		c0,0,0-0.1-0.1-0.2c-0.1-0.3-0.3-0.7-0.4-0.8l0,0l0,0c-0.8,0.2-1.3,0.5-1.4,0.6c-0.8,0.6-1.6,1.6-1.6,3c0.1-0.1,0.2-0.1,0.3-0.2
		c0.1,0,0.1,0,0.2-0.1c0.2-0.1,0.4-0.2,0.6-0.2c0.1,0,0.1,0,0.2-0.1c0.1,0,0.1,0,0.1,0h0.1c0,0,0,0.1,0,0.2c0,0.2,0,0.5,0.1,0.7
		c0,0.1,0,0.1,0,0.2c0.1,0.3,0.1,0.6,0,0.9c0,0.2-0.1,0.4-0.2,0.5s-0.2,0.2-0.4,0.3l0,0c-0.4,0-0.7,0-1,0c-0.1,0-0.1,0-0.1,0
		c-0.4-0.1-1.9-0.4-2.5-1.9c-0.1-0.3-0.1-0.9-0.1-0.9c0-0.7,0.5-1.4,0.5-1.4s-0.9,0.3-1.4-0.3c-0.1-0.1-0.3-0.3,0.1-0.4
		c0.1,0,0.7-0.3,0.9-0.4l0.1-0.1c0.4-0.2,0.7-0.4,1.1-0.7c0.8-0.6,2.3-0.8,3-0.8c0.1,0,0.2,0,0.2,0c0.7,0.1,1.6,0.1,2.7,0.4
		c0.4,0.1,1.2,0.4,1.5,0.6s0.5,0.4,0.7,0.7c0.3,0.4,0.8,1.9,1.1,2.9c0.1,0.2,0.1,0.4,0.2,0.6s0.1,0.4,0.2,0.6c0,0.2,0.1,0.4,0.2,0.6
		l0.1,0.2c0.1,0.4,0.3,0.8,0.4,1.2v0.1c0.1,0.3,0.2,0.5,0.4,0.7l0,0l0.1,0.1l0,0c0.1,0,0.1-0.1,0.1-0.2v-0.1c0-0.4,0.1-1.7-0.1-2
		c-0.2-0.5-0.1-1.1-0.1-1.3c0.1-0.4,0.3-0.8,0.5-1.3c0,0,0,0,0-0.1l0,0c0,0,0-0.1,0.1-0.1l0,0c0.1,0,1.1,1.4,1.1,2.4
		c0,0.2,0,0.3,0,0.3s0,0,0.1-0.2c0.1-0.6,0.1-0.7,0.2-0.8c0.3-0.5,0.7-0.8,1.2-1.1c0.1-0.1,0.3-0.2,0.4-0.3c0.1,0,0.1-0.1,0.2-0.1
		l0,0l0.1-0.1c0,0,0,0,0.1,0c0.1,0.1,0.6,1.2-0.1,2.7c-0.2,0.4-0.4,0.8-0.8,1.1c0.1,0,0.2,0,0.4,0s0.3,0,0.4,0l0,0
		c0.5,0,0.8,0,0.7,0c-0.2,0-1.4,2.2-1.1,3.4c0,0,0,0,0,0.1c0.4,1.3,1.2,1.7,1.8,1.9c0.2,0.1,0.7,0.2,1.2,0.2c0.2,0,0.5,0,0.6-0.1
		s0.2-0.1,0.3-0.1s0.3,0.1,0.4,0.1c0,0,0.1,0,0.1,0.1c0.1,0,0.2,0,0.5,0c0.1-0.1,0.2-0.1,0.2-0.1c0.9-0.4,4-1.4,7.8-1.4
		c2.1,0,4.3,0.4,6.2,1.1h0.1c0.1,0,0.1,0.1,0.2,0.1l0,0c0.2,0.2,0.3,0.3,0.4,0.5c0.2,0,0.5-0.1,0.7-0.2c0.1,0,0.7-0.5,1-0.8
		c0.5-0.6,0.8-1.2,0.8-1.9c0.1-0.6,0-1.1-0.2-1.6c-0.1-0.3-0.5-1.1-1.2-1.3H104l0.1-0.1c0.1-0.1,0.3-0.1,0.4-0.1h0.1l0,0h0.1
		c0,0,0,0,0-0.1c-0.1-0.1-0.2-0.2-0.3-0.3c-0.2-0.2-0.4-0.4-0.6-0.7c-0.4-0.7-0.5-1.5-0.3-2.2c0-0.1,0.1-0.3,0.1-0.4
		c0-0.2,0.1-0.4,0.1-0.6c0-0.1,0.1-0.2,0.1-0.2s0.1,0,0.1,0.1c0.3,0.3,0.7,0.6,1.2,0.8c0.1,0,0.2,0.1,0.2,0.1
		c0.3,0.2,1.5,1.1,1.7,2.1l0,0v-0.1c-0.1-0.3-0.1-0.5,0-0.9c0.1-0.3,0.2-0.5,0.4-0.7c0.2-0.2,0.3-0.3,0.4-0.5
		c0.1-0.1,0.1-0.2,0.2-0.2l0,0l0.1-0.1l0,0c0.1,0,0.1,0.1,0.1,0.2l0,0v0.2c0.1,0.4,0.2,0.9,0.3,1.3c0,0.1,0,1.4,0,1.7v0.1
		c-0.1,0.4-0.1,0.8-0.3,1.2c-0.1,0.1-0.1,0.3-0.1,0.5c0.1-0.1,0.2-0.1,0.2-0.2c0.3-0.4,0.6-0.9,0.9-1.3c0.2-0.2,0.4-0.7,0.8-1.4
		c1-1.8,2.4-4.5,3.8-5.2c0.8-0.4,1.9-0.7,3-0.7c0.5,0,1,0.1,1.3,0.1c0.4,0,0.8,0.2,1.1,0.5c0.2,0.2,0.4,0.4,0.6,0.6
		c0.1,0.1,0.2,0.2,0.2,0.3c0.1,0.1,0.1,0.2,0.2,0.2c0.2,0.2,0.4,0.5,0.7,0.7l0,0c0.1,0,0.2,0.1,0.1,0.2c0,0.1-0.1,0.1-0.2,0.2
		c0,0,0,0-0.1,0s-0.1,0-0.2,0c-0.2,0-0.3,0-0.5-0.1c0,0-0.1,0-0.2-0.1c-0.1,0-0.3-0.1-0.4-0.1l0.3,0.5l0,0c0.6,1.1,0.5,1.9-0.2,2.5
		c-0.3,0.3-0.7,0.4-1,0.6c-0.5,0.2-1,0.3-1.6,0.3h-0.1c-0.5,0-0.9-0.1-1.2-0.4c-0.3-0.3-0.4-0.7-0.3-1.1c0.1-0.2,0.2-0.4,0.4-0.5
		c0.1-0.1,0.1-0.2,0.2-0.2c0.1-0.1,0.2-0.3,0.4-0.4l0.1-0.1c0.1-0.1,0.1-0.1,0.2-0.1s0.1,0,0.2,0.1s0.1,0.2,0.2,0.3l0.1,0.1
		c0.2,0.3,0.7,1.5,1.7,1.5c0.1,0,0.3,0,0.4-0.1c-0.3,0-0.9,0-1.5-0.8c-0.1-0.1-0.2-0.2-0.1-0.4c0.4-1.1,0-1.8-0.3-2.3v-0.1
		c0-0.1-0.1-0.2-0.2-0.2v-0.1c-0.2-0.2-0.4-0.4-0.6-0.5c-0.6,0.4-1.1,1-1.3,1.2c-0.1,0.1-0.1,0.1-0.2,0.2c-0.4,0.4-2.9,4-2.9,4
		c-0.2,0.2-0.3,0.5-0.5,0.7c-0.2,0.3-0.4,0.6-0.6,0.8c-0.3,0.4-1.6,1.9-1.8,2.2c0,0,0,0-0.1,0.1l0,0l0.1-0.1l0.5-0.5
		c0.3-0.3,0.6-0.7,1-1l0,0c0.1-0.1,0.1-0.1,0.2-0.2c0.6-0.1,1-0.4,1.4-0.7c0.1-0.1,0.5-0.4,0.7-0.5c0.5-0.3,1.2-0.6,1.8-0.6
		c0.3,0,0.5-0.1,0.8-0.1c0.1,0,0.2,0,0.3,0c0,0,0,0,0.1,0c0,0,0.1,0,0.1,0.1l0,0l0,0c0.1,0.6,0,1.1-0.3,1.5s-0.8,0.8-1.5,0.9h-0.1
		l0,0c0,0,0,0,0.1,0s0.1,0,0.2,0c1.3,0,2.3,1.1,2.5,1.4c0.1,0.1,0.2,0.3,0.3,0.4s0.1,0.3,0.2,0.4s0.1,0.2,0.1,0.2
		c0,0.1-0.1,0.1-0.2,0.1c-0.3,0-0.6,0.1-1,0.1c-0.2,0-0.5,0.1-0.7,0.1c0,0-0.1,0-0.2,0c-0.6,0-1.7-0.5-2.4-0.7
		c-0.2-0.1-0.4-0.2-0.4-0.2c-0.2,0-0.4,0-0.5,0c0.1,0.4,0.1,0.9,0.1,1.2c0,0.3,0.2,1.2-0.2,1.7c-0.3,0.5-1.7,0.8-2.2,0.9
		c0.4,0.1,1.2,0.4,1.5,0.5c0,0,0,0,0.1,0s0.1,0,0.2,0.1s0.2,0.1,0.2,0.2s-0.1,0.2-0.2,0.2c-0.2,0.1-0.5,0.2-0.8,0.2c0,0-0.1,0-0.2,0
		c-0.6,0-2.1-0.1-2.8-0.2c0.7,0.3,2.8,1.2,3.7,1.6c0.5,0.2,0.8,0.3,1.1,0.4c0,0,0.5,0.3,0.9,0.1c0.3-0.1,0.1-0.5,0.1-0.8
		c0-0.1,0-0.1,0-0.2s0-0.2,0-0.3c0-0.2,0-0.4,0-0.6c0-0.5,0.1-0.8,0.4-1.2c0.1-0.1,0.1-0.2,0.3-0.2h0.1c0.1,0,0.1,0,0.2,0
		c0.2,0,0.4,0.1,0.6,0.2c0.5,0.2,0.7,0.5,0.8,0.9c0,0,0.3,1.3-0.7,2.2c-0.4,0.4-0.9,0.8-1.6,1.2c-0.7,0.4-1.4,0.6-2.1,0.6
		c-0.8,0-1.4-0.3-1.6-0.4s-1.3-0.8-2-1.3c-0.3-0.2-0.5-0.3-0.5-0.3c-0.6-0.4-1.2-0.7-1.9-1c-0.1,0-0.2-0.1-0.3-0.1s-0.1,0-0.2,0
		s-0.1,0-0.1,0.1V99c0,0.1,0.1,0.1,0.1,0.2c0,0,0,0.1,0.1,0.1c0.6,0.5,1.1,0.9,1.5,1.3c0.6,0.8,1,1.8,1,1.8l0,0l0,0
		c-1.2-0.1-1.9-0.9-1.9-0.9l0,0c0,0,0,0-0.1,0c0,0,0,0.1,0.1,0.3c0.2,0.2,0.2,0.5,0.1,0.7c0,0.8-0.6,1.4-0.8,1.7
		c-0.3,0.3-1,0.7-1.1,0.7H104h-0.1v-0.1c0.1-0.4,0.1-0.8,0-1.2c0-0.4,0-0.7,0.1-1.1c0-0.1,0.1-0.3,0.1-0.4c0.1-0.4,0.1-0.9,0-1.4
		l0,0c-0.1-0.2-0.1-0.4-0.2-0.5c-0.1,0.7-0.1,1.3-0.2,1.8c-0.2,1.7-0.4,4.5-0.3,7.5v0.2h1.4c0.4-0.5,0.9-1.1,0.9-1.1
		c0.2-0.2,0.4-0.3,0.7-0.2c0.5-0.1,0.8-0.4,1.3-0.4c0.2,0,0.4,0,0.6,0c1.2,0.2,2.4,0.4,3.6,0.6c0.2,0,0.4,0,0.5,0s0.6,0.1,0.8,0.4
		c0.1,0.1,0.3,0.6,0.4,1c0.2,1.1,0.4,2.1,0.6,3.2c0.1,0.4,0.1,0.4,0.5,0.2c0.6-0.3,1-0.8,1.5-1.2c0.3-0.3,0.7-0.5,1.2-0.6
		c0.2,0,0.3-0.2,0.2-0.4c-0.1-0.1,0-0.2,0-0.3c0-0.3,0.1-0.4,0.4-0.3c0.5,0.2,0.9,0,1.3-0.2c0.3-0.2,0.3-0.7-0.1-0.8
		c-0.4-0.2-0.7-0.1-1.1,0c-0.3,0.1-0.6,0.2-0.8,0.2c-0.5,0.1-0.8-0.2-1-0.5c-0.4-0.6-0.2-1.1-0.1-1.7c0-0.2,0.3-0.3,0.5-0.3
		c0.8-0.1,1.5-0.4,2.2-0.7c0.5-0.2,0.9-0.5,1.2-0.9c0.2-0.1,0.5-0.1,0.7-0.3c-0.3-0.2-0.6-0.2-0.9-0.2c-0.5,0.1-1.1,0.1-1.6,0
		c-0.4-0.1-0.8-0.3-1-0.7c-0.3-0.4-0.6-0.9-0.9-1.3c-0.1-0.1-0.2-0.1-0.1-0.2s0.2,0,0.3,0c0.3,0.2,0.6,0.4,0.8,0.7
		c0.7,0.9,1.6,0.9,2.6,0.8c0.1,0,0.1,0,0.1-0.1s-0.1-0.2-0.1-0.2c-0.3-0.2-0.5-0.4-0.7-0.7s-0.3-0.6-0.3-1s0.2-0.8,0.1-1.2
		c0.2,0.1,0.2,0.3,0.3,0.5c0.2,1,1,1.5,1.9,1.9c0.1,0,0.2,0,0.2-0.1c0.1-0.2,0.3-0.4,0.1-0.5c-0.9-0.7-1-1.7-1.1-2.7
		c-0.1-0.5-0.2-0.9-0.4-1.3c0.3,0.2,0.6,0.5,0.7,0.9c0.2,0.4,0.4,0.8,0.5,1.2c0.1,0.2,0.2,0.3,0.3,0.4c0.3,0.5,0.7,0.6,1.1,0.4
		c0.5-0.2,0.8-0.7,0.7-1.2c-0.1-0.6-0.3-1.3-0.3-1.9s0.2-1.1,0.4-1.6c0-0.1,0.1-0.2,0.2-0.2c0,0.5-0.1,1,0.1,1.5
		c0.2,0.8,0.4,1.5,0.5,2.3c0,0.3,0.4,0.1,0.4,0.1c0.4-0.1,0.9-0.5,0.9-0.5s0-0.5-0.1-0.9c0-0.1,0-0.2,0.1-0.2s0.1,0.1,0.1,0.2
		s0.1,0.3,0.3,0.4c0.2,0,0.3-0.1,0.4-0.3c0.5-0.7,0.5-1.1,0-1.6c-0.7-0.6-1.1-1.4-1.1-2.4c0-0.5-0.2-0.9-0.6-1.2
		c0.5,0,0.7,0.3,0.9,0.6c0.2,0.3,0.4,0.7,0.5,1.1c0.2,0.5,0.6,0.8,0.9,1.1c0.2,0.1,0.2,0.1,0.2-0.1c0-0.6-0.1-1.1-0.3-1.6
		c-0.3-0.9-0.4-1.7-0.2-2.7c0.6,1.5,1.4,2.8,1.3,4.4c0.5-0.6,0.8-1.1,1-1.9c0.2-0.7,0.2-1.5,0.6-2.1c0,0,0.1,0,0,0.1
		c-0.1,0.6,0.1,0.9,0.6,1.2c0.6,0.4,1,1,1.4,1.7c0.2,0.3,0.4,0.6,0.6,0.9c0.1,0.1,0.1,0.2,0.3,0.2s0.2-0.2,0.2-0.3
		c0.2-0.6,0-1.2-0.2-1.9s-0.6-1.4-1-2.1c-0.1-0.2-0.2-0.3-0.3-0.6c0.7,0.6,1.2,1.1,1.7,1.7s0.8,1.4,0.9,2.2c0.3-0.2,0.4-0.5,0.4-0.8
		c0.2-0.7,0.1-1.4,0.1-2.1C134.7,92.6,134.7,92.4,134.9,92.1 M65.4,103.8c0.2-0.1,0.2-0.2,0.1-0.4c-0.3-0.5-0.6-1.1-1.1-1.5
		c-0.7-0.5-1.4-0.9-2.1-1.3c-0.1-0.1-0.2,0-0.2,0.1c-0.1,0.5-0.3,1-0.3,1.6c0,0.1,0,0.2,0,0.3c0.1,0.5,0.2,0.7,0.6,0.6
		c0.6,0,2,0.1,2.7,0.6C65.2,103.9,65.2,103.9,65.4,103.8 M115.3,123.3c-1,0.5-2,0.8-3,1.2s-1.7,1.1-2.2,2.1
		c-0.2,0.6-0.4,1.1-0.4,1.7c0,0.4-0.1,0.7-0.3,1c-0.1,0.2-0.1,0.4-0.1,0.6c0,0.4,0.1,0.9,0,1.3c-0.1,0.6-0.4,1-0.8,1.5
		c-0.1,0.2-0.3,0.3-0.4-0.1v-0.5l-0.4,0.7c0,0-0.3-0.1-0.3-0.3s0-1.2,0-1.6c-1.2,3.2-3.1,6.6-5.9,9.3c0.3,0.1,0.4,0.2,0.6,0.3
		c0.1-0.5,0.5-1,0.6-1.5c0.2,0.5,0.8,1.1,0.9,1.7c0.5-0.3,0.8-0.6,1.1-0.9c0.4,0.9,0.2,1.4-0.6,2.2c0,0,0.1,0,0.3,0.1
		c0.2,0,0.5,0,0.8,0c0.1-0.4,0.1-0.8,0.2-1.2c0.3-1.1,0.3-2.1-0.1-3.2c-0.1-0.2-0.1-0.5-0.1-0.9c0.3,0.3,0.5,0.5,0.7,0.8
		c0.2,0.2,0.4,0.2,0.5,0c0.2-0.3,0.5-0.5,0.7-0.8c0.5-0.6,0.5-0.6,0.9,0.1c0.1,0.3,0.2,0.3,0.5,0.1s0.5-0.3,0.9-0.2
		c0.6,0.1,0.9,0.5,1,1c0.1,0.2,0.1,0.5,0.1,0.7s0.1,0.2,0.3,0.2c0,0,0.3-0.1,0.6-0.1s0.6,0.1,1,0.2c0.1,0,0.2,0,0.2,0
		c0.1-0.2,0.2-0.3,0.3-0.5c0.3-0.5,0.6-1,1.2-1.2c0.5-0.2,0.9-0.4,1.4-0.6c0.1-0.1,0.2-0.1,0.4-0.1c0.5,0,2.6-0.1,3.2-0.4
		c0.4-0.1,0.6-0.5,0.5-0.8c-0.2-0.5-0.3-1.1-0.6-1.6c-0.4-0.7-0.7-1.4-1-2.2c-0.5-1.2-0.4-2.4,0.1-3.6c0-0.1,0.1-0.2,0.1-0.3
		c-0.1-0.2,0-0.2,0.1-0.3c0.6-0.4,1.1-0.7,1.8-0.8c0.1,0,0.2,0,0.2-0.1s-0.1-0.2-0.2-0.2c-0.3-0.2-0.7-0.4-1-0.7
		c-0.6-0.4-1-1-1.7-1.3c-0.1-0.1-0.2-0.1,0-0.3c0.2-0.1,0-0.1,0-0.2c-0.2-0.1-0.4-0.3-0.5-0.4c-0.2-0.1-0.3-0.3-0.5-0.3
		C115.9,123.1,115.6,123.1,115.3,123.3 M101,142.2c-0.1-0.3-0.2-0.7-0.3-1.3c-0.5,0.5-1.1,0.9-1.6,1.3c0.1,0,0.1,0,0.2,0
		c0,0,0.2,0,0.5,0l0,0c0.1-0.1,0.2-0.3,0.2-0.4c0.2,0.1,0.2,0.3,0.1,0.5c0.1,0,0.2,0,0.2,0l0,0c0.1-0.1,0.2-0.3,0.2-0.4
		c0.2,0.1,0.2,0.3,0.1,0.5C100.8,142.2,100.9,142.2,101,142.2 M87.8,140.7c0.1,0.5,0,1.1,0,1.1s0.4-0.6,0.5-0.7l0,0
		c-0.2-0.2-0.4-0.4-0.6-0.5C87.7,140.6,87.8,140.6,87.8,140.7 M86.5,134.5C87,134.7,88,135,88,135c-0.5,0.2-1.2-0.2-1.4-0.2
		c0.1,0.3-1,0.2-1,0.1l0,0c0,0,0,0-0.1,0c0,0-0.1,0-0.1,0.1c-0.1,0.1,0.1,0.3,0.3,0.5c0.2,0.1,0.5,0.2,0.9,0.3c0,0,1.6,0.1,2.1,0.1
		s2.1,0.2,3.9,0.4c0.5,0,1.2,0.5,1.6,0.9c0.2,0.1,0.4,0,0.5-0.2l0,0c-0.5-0.2-1.2-0.9-1.8-1c0,0,0,0-0.1,0c0.2,0,0.5,0,0.8,0
		c0.3,0.1,0.8,0.5,1.1,0.7c0-0.1,0-0.2,0.1-0.3l0,0c-0.2-0.2-0.6-0.4-0.7-0.5c0.2,0,0.5-0.1,0.6-0.1c-0.1,0-0.2,0.1-0.1,0.2
		s0.2,0.1,0.3,0.2c0-0.2,0.1-0.3,0.6-0.3c0,0,1.2,0,2-0.2c0.2,0,0.8,0,1,0.1c0.1,0,0.5,0.2,1,0.4c0.2,0,0.3,0,0.5-0.1l0.1-0.1
		c-0.7-0.1-1.7-0.4-1.4-0.6c0,0,0.2,0,0.5-0.1c-0.1,0-0.3,0.1,0,0.2c0.1,0,0.4,0.1,0.7,0.2c-0.4-0.2-0.4-0.4-0.2-0.4
		c0.4-0.1,0.8-0.2,1.1-0.2c0.5,0,0.8,0.2,1.4,0.7c0.3,0.3,0.7,0.4,1.1,0.5c0.1,0,0.2-0.1,0.1-0.2c-0.2-0.1-0.2-0.2-0.2-0.5
		c-0.5,0-0.8-0.4-0.9-0.6c-0.1-0.1,0-0.4,0.3-0.3c0.5,0.2,0.6,0.1,1,0.1c0.1,0,0.2-0.3,0.1-0.3l0,0c-0.5,0.1-1.3,0.2-1.4-0.4
		c0.5-0.1,0.6-0.6,1.1-0.6c0-0.2,0-0.3,0.2-0.5c0.1-0.1,0-0.2-0.1-0.2c-0.3,0.1-0.7,0.2-1,0.4c-0.5,0.5-0.8,0.7-1.3,0.7
		c-0.3,0-0.6,0-1-0.2c-0.1,0-0.2-0.2,0.2-0.4c-0.2,0-0.6,0.1-0.6,0.1c-0.3,0.1-0.2,0.2-0.1,0.3c-0.3-0.1-0.6-0.2-0.8-0.3
		c0.1,0,0.3,0,0.4,0c0.3-0.1,0.7-0.3,1.1-0.3l0,0c0.1-0.1,0-0.3-0.1-0.3c-0.6,0.1-0.9,0.2-1.1,0.3c-0.3,0.1-0.7,0.1-0.7,0.1
		c-0.7-0.2-1.6-0.4-2.7-0.6c0,0-0.3,0,0.1-0.3c0.3-0.2,0.4-0.3,0.7-0.4c-0.2,0-0.4-0.1-0.6-0.2c-0.3,0.1-1.3,0.6-0.9,0.7
		c-0.2,0-0.1,0-0.4,0c-0.1,0-0.1-0.1-0.1-0.2c0.1-0.1,0.6-0.4,1.1-0.6c-0.2-0.1-0.3-0.1-0.5-0.2c-0.5,0.2-1.7,0.7-1.2,0.9
		c-0.4,0-0.3,0-0.5,0c-0.3-0.2,0.8-0.8,1.4-1l0,0c-0.3-0.1-0.7-0.1-1,0.1c-0.8,0.4-1.6,1-2.4,1.1c-2.4,0.4-5.9,1.2-5.8,1.8
		c0,0.1,0,0.2,0.2,0.2C85.5,134.4,86.1,134.3,86.5,134.5 M84.7,126.1c0.6,0.3,1.8,0.6,1.8,0.6c-0.6,0.2-1.4-0.2-1.8-0.3
		c0.1,0.4-1.2,0.2-1.3,0.2l0,0c0,0,0,0-0.1,0c0,0-0.1,0-0.2,0.1s0.2,0.4,0.3,0.6c0.2,0.2,0.6,0.3,1.1,0.3c0,0,2,0.1,2.6,0.1
		s2.7,0.3,4.9,0.5c0.6,0.1,1.4,0.7,2,1.1c0.2,0.2,0.6,0.1,0.6-0.2l0,0c-0.6-0.3-1.5-1.1-2.2-1.2h-0.1c0.3,0,0.7,0.1,1,0
		c0.3,0.1,1,0.6,1.4,0.9c0-0.1,0-0.3,0.1-0.3l0,0c-0.3-0.2-0.8-0.5-0.9-0.7c0.3,0,0.6-0.1,0.7-0.1c-0.1,0.1-0.2,0.1-0.1,0.3
		s0.2,0.1,0.4,0.2c0-0.2,0.1-0.3,0.7-0.3c0,0,1.5,0,2.5-0.2c0.2,0,0.9-0.1,1.3,0.1c0.1,0.1,0.6,0.3,1.2,0.5c0.2,0.1,0.4,0,0.6-0.1
		c0.1,0,0.1-0.1,0.2-0.1c-0.8-0.1-2.2-0.5-1.8-0.7c0,0,0.2,0,0.6-0.1c-0.1,0-0.4,0.1,0,0.3c0.1,0,0.5,0.2,0.8,0.2
		c-0.4-0.2-0.5-0.5-0.3-0.5c0.6-0.2,1-0.2,1.4-0.2c0.6,0,1,0.3,1.7,0.8c0.4,0.3,0.9,0.5,1.3,0.6c0.1,0,0.2-0.1,0.1-0.2
		c-0.2-0.2-0.3-0.3-0.3-0.6c-0.7,0-1-0.5-1.2-0.8c-0.1-0.1,0-0.5,0.4-0.4c0.7,0.3,0.8,0.2,1.3,0.1c0.1,0,0.2-0.3,0.1-0.4l0,0
		c-0.6,0.2-1.6,0.2-1.7-0.5c0.6-0.2,0.8-0.8,1.4-0.8c0-0.2,0-0.4,0.3-0.6c0.1-0.1,0-0.3-0.1-0.2c-0.4,0.1-0.9,0.3-1.2,0.6
		c-0.7,0.6-1,0.8-1.7,0.8c-0.4,0-0.7,0-1.3-0.2c-0.2,0-0.2-0.3,0.2-0.5c-0.3,0-0.7,0.1-0.8,0.2c-0.4,0.1-0.2,0.3-0.1,0.3
		c-0.3-0.1-0.8-0.3-1-0.4c0.2,0,0.3,0,0.5,0c0.4-0.1,0.9-0.3,1.4-0.3l0,0c0.1-0.1,0-0.4-0.2-0.3c-0.8,0.1-1.1,0.2-1.4,0.3
		c-0.3,0.1-0.8,0.1-0.9,0.1c-0.9-0.3-2-0.5-3.4-0.7c0,0-0.4-0.1,0.1-0.3c0.4-0.2,0.5-0.3,0.8-0.5c-0.3-0.1-0.4-0.1-0.8-0.2
		c-0.3,0.2-1.6,0.7-1.1,0.9c-0.3,0-0.1,0-0.5-0.1c-0.1,0-0.2-0.1-0.1-0.2c0.1-0.2,0.8-0.5,1.3-0.7c-0.2-0.1-0.4-0.1-0.6-0.2
		c-0.6,0.2-2.1,0.9-1.5,1.1c-0.5,0-0.3,0-0.6,0c-0.4-0.3,1-1,1.7-1.2l0,0c-0.4-0.2-0.9-0.1-1.2,0.1c-0.9,0.5-2,1.2-3,1.4
		c-3,0.4-7.3,1.5-7.2,2.2c0,0.1,0,0.2,0.2,0.2C83.5,125.9,84.2,125.9,84.7,126.1 M105.6,125.6c-0.2-0.2-0.3-0.5-0.3-0.7
		c-0.4,0-0.5,0.4-0.9,0.5C104.4,125.9,105.2,125.7,105.6,125.6 M105.4,126.6c-0.3,0-0.6,0.1-1-0.1c-0.2-0.1-0.3,0.1-0.2,0.2
		c0.1,0.2,0.5,0.4,0.9,0.5C105.1,126.9,105.2,126.8,105.4,126.6 M103.3,134.1c-0.1-0.2-0.2-0.4-0.2-0.6c-0.3,0-0.4,0.3-0.8,0.4
		C102.4,134.3,103,134.2,103.3,134.1 M103.1,134.9c-0.2,0-0.5,0.1-0.8-0.1c-0.1,0-0.2,0.1-0.2,0.1c0.1,0.1,0.4,0.4,0.7,0.4
		C102.9,135.1,103,135,103.1,134.9 M89,141.7c0,0.1-0.1,0.2-0.2,0.4c0.2,0,0.5,0,0.7,0C89.4,141.9,89.2,141.8,89,141.7L89,141.7
		 M107.7,130.1L107.7,130.1C107.7,130.2,107.7,130.2,107.7,130.1C107.7,130.2,107.7,130.2,107.7,130.1 M109.9,109.2
		c-0.3,0-0.5,0-0.9,0.1h0.1v13.4c0,1-0.1,2.2-0.4,3.7c0.2-0.5,0.3-0.9,0.5-1.3c0.5-1.3,1.4-2,1.4-2c0.7-0.6,1.6-1,2.3-1.7
		c0.3-0.2,0.5-0.4,0.9-0.5c0.2-0.1,0.3-0.1,0.5-0.2s0.2-0.2,0.1-0.4c-0.1,0.1-0.3,0.2-0.4,0.2c0.1-0.5-0.1-0.9-0.2-1.3
		s-0.1-0.8,0-1.2c0-0.1,0.1-0.3,0.1-0.4c0-0.2,0-0.4-0.3-0.4c-0.2,0-0.3,0-0.3-0.3c0.1-0.4,0-0.7-0.3-1c-0.1-0.1-0.1-0.3-0.1-0.4
		c0.1-0.5,0.1-1,0-1.5c-0.2-0.6-0.2-1.3-0.2-1.9c0.1-0.6,0.1-1.1,0-1.7c-0.1-0.5-0.2-0.9-0.7-1.1
		C111.3,109.3,110.6,109.2,109.9,109.2 M105.8,114.5c-0.8,0.7-1.2,1-1.9,1c-0.4,0-0.8,0-1.5-0.2c-0.2-0.1-0.2-0.3,0.3-0.6
		c-0.3,0-0.8,0.1-0.9,0.2c-0.4,0.2-0.3,0.3-0.1,0.4c-0.4-0.1-0.9-0.4-1.1-0.4c0.2,0,0.4,0,0.6,0c0.5-0.1,1-0.4,1.6-0.4l0,0
		c0.1-0.2,0-0.4-0.2-0.4c-0.9,0.1-1.3,0.3-1.6,0.4c-0.4,0.1-1,0.1-1.1,0.1c-1.1-0.3-2.4-0.6-3.9-0.8c0,0-0.5-0.1,0.1-0.4
		c0.4-0.2,0.6-0.4,0.9-0.5c-0.3-0.1-0.5-0.1-0.9-0.2c-0.4,0.2-1.9,0.8-1.2,1c-0.3,0-0.1,0-0.6-0.1c-0.1,0-0.2-0.1-0.1-0.3
		c0.1-0.2,0.9-0.5,1.5-0.8c-0.2-0.1-0.5-0.1-0.7-0.2c-0.7,0.2-2.5,1.1-1.7,1.3c-0.6,0-0.4,0-0.7,0c-0.4-0.3,1.1-1.1,2-1.4l0,0
		c-0.5-0.2-1-0.1-1.4,0.1c-1.1,0.6-2.3,1.4-3.5,1.6c-3.5,0.5-8.4,1.7-8.4,2.6c0,0.1,0,0.3,0.2,0.3s1-0.1,1.6,0.2
		c0.7,0.3,2.1,0.7,2.1,0.7c-0.7,0.2-1.7-0.2-2-0.3c0.1,0.4-1.4,0.2-1.5,0.2c0,0,0,0-0.1,0h-0.1c0,0-0.1,0-0.2,0.1
		c-0.1,0.2,0.2,0.5,0.4,0.7s0.7,0.3,1.2,0.4c0,0,2.3,0.1,3,0.2c0.7,0,3.1,0.3,5.7,0.6c0.8,0.1,1.7,0.8,2.4,1.3
		c0.3,0.2,0.6,0.1,0.7-0.3l0,0c-0.8-0.4-1.8-1.3-2.6-1.4H92c0.3,0,0.8,0.1,1.1,0c0.4,0.2,1.2,0.7,1.6,1c0-0.1,0-0.3,0.1-0.4l0,0
		c-0.3-0.2-0.9-0.5-1.1-0.8c0.3,0,0.7-0.1,0.9-0.1c-0.1,0.1-0.2,0.2-0.1,0.3c0.2,0.2,0.2,0.2,0.4,0.3c0-0.2,0.2-0.4,0.8-0.4
		c0,0,1.7-0.1,2.8-0.2c0.3,0,1.1-0.1,1.5,0.1c0.2,0.1,0.7,0.3,1.4,0.5c0.2,0.1,0.5,0,0.7-0.2c0.1-0.1,0.1-0.1,0.2-0.2
		c-0.9-0.1-2.5-0.6-2-0.8c0,0,0.3-0.1,0.7-0.1c-0.1,0-0.5,0.1,0,0.3c0.1,0,0.6,0.2,0.9,0.2c-0.5-0.3-0.5-0.6-0.3-0.6
		c0.6-0.2,1.2-0.3,1.6-0.3c0.7,0,1.2,0.3,2,1c0.4,0.4,1.1,0.6,1.5,0.7c0.1,0,0.2-0.2,0.1-0.2c-0.3-0.2-0.3-0.4-0.3-0.7
		c-0.8,0-1.2-0.6-1.4-0.9c-0.1-0.2,0-0.5,0.4-0.4c0.8,0.3,0.9,0.2,1.5,0.1c0.1,0,0.3-0.4,0.1-0.5l0,0c-0.7,0.2-1.9,0.2-2-0.5
		c0.7-0.2,0.9-0.9,1.6-0.9c0-0.2,0-0.5,0.3-0.7c0.1-0.1,0-0.3-0.1-0.3C106.8,114,106.2,114.1,105.8,114.5 M107.4,116
		c-0.2-0.3-0.3-0.6-0.3-0.8c-0.5,0-0.6,0.5-1.1,0.6C106,116.3,106.9,116.1,107.4,116 M107.2,117.1c-0.3,0-0.7,0.2-1.1-0.1
		c-0.2-0.1-0.3,0.1-0.2,0.2c0.1,0.2,0.6,0.5,1,0.5C106.8,117.5,106.9,117.3,107.2,117.1 M100.2,109.3c-0.6-0.3-1.7-0.8-3.5-0.9
		c-0.1,0-0.3,0-0.4,0c-1.3,0-2.9,0.4-4,0.9H100.2z M97.7,98.2c0-0.3,0-0.7,0-1c-1.1,0-2.8,0.1-3.2,0.2c-0.1,0.1-0.3,0.3-0.4,0.4
		c-0.6,0.6-0.8,0.8-1.1,0.8l0,0c-1.1-0.1-2.4,0-3.8,0.2c0.4,1.2,1.3,3.9,1.4,5.2c0.2,1.3,0.2,3.5,0.2,4.7c1.4-0.9,3.6-1.5,5.4-1.5
		c0.2,0,0.3,0,0.5,0c3,0.2,4.4,1.2,4.8,1.7h0.8c-0.1-3,0.1-5.8,0.3-7.4c0.1-1.1,0.4-3,0.1-4.5c-0.7-0.1-2.2-0.3-2.7-0.8
		c-0.1-0.1-0.4-0.3-0.5-0.4l0,0c0,0,0,0,0,0.1l0,0c0.1,0.5,0.3,1.1,0.4,1.6c0.1,0.3,0.2,0.6,0.4,0.8c0.2,0.4,0.5,0.7,0.7,1
		c0,0,0.1,0,0.1,0.1c0.2,0.1,0.5,0.5,0.6,0.5s0.1,0.1,0.1,0.1c0,0.1-0.1,0.1-0.1,0.2c-0.1,0-0.2,0.1-0.4,0.1l0,0c-0.1,0-0.1,0-0.2,0
		c-0.2,0-0.5,0-0.7-0.1c-0.4-0.2-0.6-0.8-0.7-1s0.5,1.1,0.6,1.2s0.1,0.2,0.2,0.3c0.2,0.4,0.3,0.7,0.5,1.1c0.1,0.4,0.2,0.8,0.2,1.2
		c0,0.1,0,0.1,0,0.2c0,0-0.1,0.1-0.2,0.1c-0.2,0-0.7-0.3-0.8-0.4c-0.4-0.4-0.7-0.9-0.9-1.3c0-0.1-0.1-0.2-0.1-0.3s-0.1-0.2-0.1-0.3
		l-0.1-0.1h-0.1c0,0,0,0-0.1,0.1s-0.2,0.2-0.3,0.4l-0.1,0.1l0,0c-0.3,0.4-0.8,1.1-1.6,1.1c-0.1,0-0.2,0-0.2,0l0,0h-0.1l0,0l0,0h-0.1
		c-0.8-0.3-1.6-0.7-2.3-1.2c-0.4-0.3-0.8-0.6-0.4-1.4c0.2-0.2,0.3-0.3,0.4-0.4c0.3-0.4,0.8-0.8,1.2-1.1c0.2-0.1,0.3,0,0.4,0.2
		c0.1,0.4,0.4,1.5,0.7,2.5c0.6-0.4,1-1,1.2-1.7v-0.1v-0.1c0.1-0.2,0.1-0.5,0.1-0.7C97.7,98.3,97.7,98.3,97.7,98.2 M89,95.6
		c-0.3,0.1-1.1,1.1-2.3,2.7c1.6-0.3,4.1-0.8,6.2-0.9c0.1-0.1,0.4-0.4,0.5-0.5c0.3-0.3,0.5-0.5,0.6-0.6c0.3-0.2,2.6-0.3,3.5-0.3
		c0-0.1-0.1-0.3-0.1-0.4c-0.2-0.5-0.4-0.9-0.7-1.2v-0.1l0,0c-0.1,0-0.2,0-0.4,0C92.8,94.4,89.8,95.3,89,95.6 M87.9,104.9
		c0.1,0.5,0.2,3.7,0.2,4.2c0,0.1,0,0.2-0.1,0.2h1.6c0-0.8,0-3.7-0.2-5.2c-0.2-1.2-1.1-4-1.4-5.1c-0.8,0.2-1.5,0.4-2,0.5
		C86.5,100.5,87.7,103.1,87.9,104.9 M75.8,116.4c-1.2,0.8-0.2,1.4,0.1,1.1c0.1,0,0,0.3-0.2,0.6c-0.1,0.1-0.4,0.3-0.4,0.4
		s0,0.6,0,0.8c0,0.2,0,0.2,0.1,0.4c0.2,0.3-0.1,0.6-0.1,0.7c-0.1,0.1,0,0.2,0,0.2s2,1.9,2.1,1.9c0.1,0.1,1.9,1.6,2,1.8
		s0.5,1,0.6,1.1c0,0.1,0.2,0.5,0.4,0.8c-0.3-1.4-0.4-2.7-0.4-3.6v-13.1c-0.4-0.1-0.7-0.2-0.9-0.2c-0.4,0-1.2-0.1-1.8,0.2
		c-0.6,0.3-0.8,0.6-1,1.1c-0.1,0.3-0.1,0.4-0.1,0.4l-0.1,0.1c-0.3,0.2-0.1,3.5-0.1,3.7c0,0.3,0,1.1,0,1.3
		C75.9,116.4,75.8,116.4,75.8,116.4 M68.8,126.2c-0.3,0.3-0.3,0.4,0.1,0.6c0.4,0.1,0.8,0.3,1.1,0.5c0.2,0.1,0.3,0.1,0.5,0
		s0.3,0,0.3,0.2c0,0.3,0.1,0.7,0.1,1c0.3,1.6,0,3.1-0.4,4.5c-0.2,0.8-0.6,1.5-0.7,2.3c-0.1,0.5,0.1,0.8,0.5,1
		c0.2,0.1,0.5,0.2,0.8,0.2c0.6,0.1,1.2,0,1.8-0.1c0.6,0,1.4,0.1,1.8,0.7c0.3,0,1.1,0.6,1.2,0.8c0.2,0.3,0.9,1.1,0.9,1.3l0,0h0.1
		c0.1,0,1.5-0.1,1.5-0.1c0-0.1-0.2-0.2-0.2-0.3c-0.3-0.3-0.5-0.8,0-0.8c0.2,0,0.4,0,0.5-0.2c0-0.1,0.1-0.1,0.2-0.2
		c0.2-0.2,0.5-0.4,0.5-0.7c0.1-0.4,0.2-0.3,0.4-0.2c0.4,0.3,0.9,0.4,1.2,0.8c0.2-0.6,0.8-0.9,1.1-1.4c0-0.1,0.1-0.2,0.2-0.1
		c0.1,0,0.1,0.2,0.1,0.3c-0.1,0.5,0,0.9,0.2,1.4c0.1,0.2,0.1,0.2,0.3,0.1c0.3-0.2,0.6-0.4,0.8-0.8c0.2,0.2,0.3,0.4,0.4,0.5
		c0.2,0.1,0.2-0.2,0.4-0.3c0.4,0.9,0.3,1.8,0.1,2.8c-0.1,0.6-0.2,1.2-0.3,1.8c0,0.1,0,0.2,0,0.3c0,0,0,0,0.1,0
		c0-0.2,0.1-0.3,0.3-0.4c-0.1,0.1-0.1,0.3,0,0.4h0.1c0-0.1,0.1-0.3,0.3-0.3c0,0.1-0.1,0.2,0,0.3c0.1,0,0.2,0,0.3,0
		c-0.3-0.6-0.4-1.3-0.5-1.6c0.6,0.4,1.2,0.6,1.7,1.2c-0.1-0.5,0.2-1.5,0.3-1.9c-3-3.2-4.9-7.1-5.9-10.5c0,0.2,0,0.3,0,0.4
		c0.1,0.2,0.1,0.5,0.1,0.7c0.1,0.2,0.2,0.8,0.2,1.1c0,0.2,0,0.3-0.1,0.3c-0.1,0.1-0.2,0.1-0.2,0.1c-0.1,0-0.2-0.2-0.2-0.2
		s0,0.2-0.1,0.2c0,0-0.3,0-0.4,0c-0.2-0.1-0.7-0.6-0.9-1.5c0-0.2,0-0.5-0.1-0.7c-0.3-0.7-0.4-1.5-0.6-2.2c-0.1-0.7-0.3-1.2-0.9-1.6
		l-0.1-0.1c-0.2-0.3-0.5-0.4-0.9-0.6c-1-0.4-2-0.8-2.9-1.5c-0.3-0.2-0.6-0.4-0.9-0.5s-0.4,0.1-0.6,0.3c-0.2,0.2,0,0.3,0.1,0.4v0.1
		c-1,0.2-1.6,0.9-1.5,1c0.1,0.3,0,0.3-0.2,0.4c-0.1,0-0.1,0-0.2,0.1C69.9,125.4,69.3,125.7,68.8,126.2 M60.8,141
		c-0.1,0.4-0.1,0.8,0,1.3c0.1,0.9,0.6,2.2,0.9,2.5l0.1,0.1c0.3-0.1,0.8-0.3,1.3-0.5c0-0.2,0-0.4,0.2-0.5c0,0.2,0,0.3,0.1,0.5l0,0
		c0,0,0,0,0.1,0c0-0.2,0.1-0.4,0.3-0.5c-0.1,0.1-0.1,0.3,0,0.4h0.1l0,0c0-0.2,0.1-0.4,0.3-0.4c-0.1,0.1-0.1,0.3,0,0.4h0.1
		c0-0.2,0.1-0.4,0.3-0.5c-0.1,0.1-0.1,0.3,0,0.5c0.1,0,0.1,0,0.2,0c0-0.2,0.1-0.4,0.3-0.5c-0.1,0.2-0.1,0.3,0,0.5l0,0h0.1
		c0-0.2,0.1-0.3,0.3-0.4c-0.1,0.1-0.1,0.2,0,0.4c0.1,0,0.1,0,0.1,0h0.1c0-0.2,0.1-0.4,0.3-0.5c-0.1,0.2-0.1,0.3,0,0.5l0,0l0,0
		c0-0.2,0-0.3,0.2-0.3c-0.1,0.1,0,0.2,0,0.3l0,0h0.1l0,0c-0.1-0.3-0.2-0.8-0.2-1.4c0.4,0.2,0.8,0.5,1.2,0.7
		c-0.1-0.8,0.4-1.4,0.7-2.2c0.4,0.5,0.5,1.2,0.7,1.7c0.3-0.3,0.8-0.8,0.9-1.3c0.5,0.5,0.6,0.8,0.4,2.3c0.4-0.3,0.7-0.6,1.1-0.8
		s0.8-0.5,1.2-0.7c0,0.3-0.1,0.8-0.3,1.2c0.1,0,0.1,0,0.2,0l0,0c0-0.2,0-0.4,0.3-0.5c-0.1,0.2-0.1,0.3,0,0.5l0,0h0.1
		c0-0.2,0.1-0.3,0.3-0.4c-0.1,0.1-0.1,0.2,0,0.4c0.1,0,0.1,0,0.2,0v-0.1c0-0.2,0-0.4,0.3-0.4c-0.1,0.1-0.1,0.3,0,0.4v0.1h0.1h0.1
		c0-0.2,0.1-0.3,0.3-0.4c-0.1,0.1-0.1,0.3,0,0.4l0,0H74c0.1-0.2,0.1-0.5,0.1-0.7c0-1.3-0.1-2.6,0.1-3.9c-0.1-0.1-0.1-0.1-0.2-0.1
		c-0.5,0.3-0.6-0.7-2.1-0.7c-0.7,0-3.2,0-3.6,0c-0.8,0-1-0.1-0.9-1.1c0-0.2,0.3-1.6,0.2-2.2c-0.1-0.5-0.2-1-0.2-1.5
		c0-0.1,0-0.2-0.2-0.3c-0.4-0.1-0.8-0.2-1.2-0.3c-0.4-0.1-0.4,0.1-0.3,0.3c0,0.4,0.1,0.8,0.2,1.2c0.1,0.3,0,0.6-0.2,0.9
		c-0.3,0.3-0.6,0.7-0.8,1.1c-0.3,0.8-0.9,1.4-1.5,1.9c-0.5,0.4-1,0.8-1.5,1.2C61.4,139.8,61,140.3,60.8,141 M129.3,148.3
		c-0.1-0.2-0.2-0.4-0.4-0.3s-0.2,0.3-0.2,0.5c0.1,0.3-0.1,0.4-0.3,0.4s-0.3,0-0.5,0c-0.7-0.1-1.4-0.4-2.1-0.4c-0.4,0-0.6-0.1-1.2,0
		c-1.1,0.2-2.1,0.5-3.1,0.9c-1.8,0.7-3.6,0.8-5.5,0.3c-1.1-0.3-2.2-0.7-3.3-1c-2.3-0.5-4.5-0.3-6.7,0.5c-1.9,0.7-3.9,0.9-5.9,0.4
		c-1.7-0.5-3.4-1-5.1-1.1c-1.6-0.1-3.1,0.1-4.6,0.6c-1,0.4-2,0.7-3.1,0.8c-1.6,0.2-3.1-0.1-4.5-0.7c-1.2-0.4-2.4-0.7-3.7-0.7
		c-1.9-0.1-3.7,0.3-5.4,0.9c-1.2,0.4-2.4,0.6-3.6,0.4s-2.3-0.5-3.3-1c-1.7-0.7-3.5-0.9-5.2-0.2c-0.2,0.1-0.4,0.1-0.6,0.1
		s-0.4,0-0.3-0.3c0.1-0.2,0.1-0.4-0.2-0.5c-0.2,0-0.4,0.2-0.4,0.4c-0.1,0.4,0.1,0.9,0.5,1.2c0.6,0.4,1.2,0.5,2,0.3
		c1-0.2,1.9-0.2,2.9,0c0.9,0.2,1.7,0.6,2.6,0.9c1.7,0.7,3.4,0.7,5.1,0.2c1-0.2,1.9-0.7,2.9-0.9c2.2-0.5,4.4-0.3,6.6,0.4
		c2.8,0.9,5.6,0.8,8.3-0.2c0.8-0.3,1.6-0.5,2.5-0.6c1.8-0.2,3.5,0.1,5.2,0.7c2.7,0.9,5.4,1,8.1-0.1c1.4-0.6,2.9-0.7,4.4-0.7
		c1.3,0.1,2.5,0.4,3.7,0.8c1.5,0.5,3,0.7,4.6,0.5c1.3-0.2,2.5-0.6,3.7-1c0.8-0.3,1.7-0.5,2.6-0.4c0.8,0,1.5,0.2,2.3,0.4
		c0.6,0.1,1-0.1,1.4-0.6C129.5,149.1,129.5,148.7,129.3,148.3 M123,132.5c-0.4,0-0.8,0-1.1,0s-0.4,0.1-0.4,0.4c0,1.3-0.3,2.6,0,4
		c0.1,0.6-0.2,0.9-0.7,0.9c-0.4,0-0.8,0-1.2-0.1c-1.3-0.1-2.5,0.1-3.5,0.8c-0.1,0.1-0.2,0.1-0.3,0.1c0,0.1,0,0.2,0,0.3
		c0,0.3-0.1,0.6-0.2,0.9c-0.2,0.6-0.2,1.2-0.2,1.8c0,0.4-0.1,0.8-0.1,1.2l0,0c0.2,0,0.3,0.1,0.4,0.1l0,0c0.1-0.1,0.2-0.3,0.2-0.4
		c0.2,0.1,0.2,0.3,0.2,0.4h0.1c0.1,0,0.3,0,0.3,0.1c0.1-0.1,0.1-0.2,0.1-0.4c0.2,0.2,0.2,0.4,0.1,0.6l0,0l0,0h0.1l0,0h0.1l0,0
		c0.1-0.1,0.2-0.3,0.2-0.4c0.2,0.2,0.2,0.4,0.1,0.6c0.1,0.1,0.2,0.2,0.4,0.3l0.1-0.1c-0.6-1.2,0-2.4,0-2.4s0,0,0,0.1
		c0.2,0.7,0.9,1,1.3,1.6c0.1-0.9,0.9-1.4,1.1-2.2c0.4,0.6,0.7,1.1,0.6,1.8c0,0.1-0.1,0.6-0.1,0.6c0.1,0,1.3-0.8,1.2-1.5
		c0.4,0.5,0.4,1.3,0.1,1.8c-0.1,0.2-0.3,0.4-0.5,0.6l0,0c0.2,0,0.5,0.1,0.8,0.2c0.1,0,0.3,0,0.4-0.1c0.2-0.1,0.4-0.2,0.6-0.5
		c0,0.3-0.1,0.6-0.2,0.8c0,0,0.1-0.1,0.2-0.1l0,0c0.1-0.1,0.2-0.3,0.2-0.4c0.2,0.1,0.2,0.3,0.1,0.5c0,0,0,0,0.1,0h0.1
		c0-0.1,0-0.1,0.1-0.2s0.2-0.3,0.2-0.5c0.2,0.2,0.2,0.4,0.1,0.6l0,0l0,0l0,0c0.1-0.1,0.2-0.2,0.2-0.4c0.2,0.1,0.2,0.3,0.1,0.4h0.1
		c0.1-0.1,0.2-0.2,0.2-0.4c0.2,0.1,0.2,0.3,0.1,0.4c0,0,0,0,0.1,0l0,0c0.1-0.1,0.2-0.2,0.2-0.3c0.1,0.1,0.1,0.3,0,0.4l0,0
		c0.4,0.2,0.6,0.2,1.1,0.3c0.2,0,0.3,0.1,0.6,0.1c0.2-0.2,0.5-0.5,0.7-0.7s0.7-1.9,0.6-2.6c0-0.4-0.2-1-0.3-1.2
		c-0.4-0.5-3.1-2.6-3.6-4c-0.3-0.6-0.5-1.3-1-1.8c-0.2-0.2-0.3-0.4-0.1-0.7c0.2-0.4,0.2-0.8,0.2-1.2
		C123.3,132.6,123.3,132.5,123,132.5 M126.2,103.1c0.2,0,0.3-0.1,0.3-0.4c0-0.6-0.2-1.2-0.5-1.7c-0.1-0.2-0.2-0.1-0.4,0
		c-0.5,0.3-1,0.6-1.5,0.9c-0.6,0.4-1.2,0.8-1.5,1.5c0,0.1-0.2,0.3,0,0.4s0.3,0,0.5,0c0.7-0.4,1.5-0.6,2.3-0.6
		C125.7,103.2,125.9,103.2,126.2,103.1 M131.9,100.2c0.5-0.9,0.4-2.2-0.1-3c-0.2-0.3-0.4-0.5-0.6-0.8c-0.5-0.6-0.8-1.3-1.1-2
		c0-0.1-0.2-0.5-0.4-0.4c-0.1,0,0,0.3,0,0.5c0.1,1.2-0.1,2.2-1,3.1c-0.3,0.3-0.7,0.6-0.9,1c-0.3,0.5-0.6,1.1-1.1,1.5
		c-0.2,0.2-0.2,0.4-0.1,0.6c0.4,0.5,0.6,1,0.8,1.6c0,0.2,0.1,0.2,0.3,0.2c0.5-0.1,1-0.2,1.5-0.4c0.9-0.5,0.9-0.6,0.4-1.5
		c-0.3-0.5-0.6-1-0.7-1.5c-0.1-0.6,0-1.2,0.3-1.7c-0.1,0.8,0.2,1.5,0.8,2c0.3,0.3,0.7,0.7,0.9,1.1c0.3,0.5,0.3,0.5,0.6,0
		C131.7,100.4,131.8,100.3,131.9,100.2 M87.9,116.4c0.3-0.7,0-1.4-0.7-1.7c-0.2-0.1-0.3-0.1-0.5,0c-0.1,0-0.2,0.1,0,0.1
		c0.1,0,0.1,0,0.2,0c0.6,0.2,0.8,0.9,0.6,1.5c-0.2,0.5-0.7,0.9-1.2,0.8h-0.1v0.1C86.9,117.4,87.6,117.1,87.9,116.4 M89.8,116.4
		c-0.5,0.2-2.3,0.6-2.3,1.1c0,0.2,0.3,0.2,0.5,0.1c0.2,0,1.7-0.2,1.9-0.2c0.2,0,0.3-0.3,0-0.3c-1.4,0.2-1.9,0.3-1.9,0.3
		s0.4-0.3,1.9-0.5C90.6,116.7,90.2,116.3,89.8,116.4 M89.7,117.6c-0.5,0-1.1,0.1-1.4,0.2c0,0,1.3,0.1,1.5,0.1
		C90,117.9,90,117.5,89.7,117.6 M85.1,115.3c-0.2-0.1-0.5-0.1-0.6,0.1c0,0,0,0.1-0.1,0.1v0.1c0,0.1,0.1,0.2,0.2,0.3
		c0.2,0.1,0.5,0.1,0.6-0.1C85.4,115.7,85.3,115.5,85.1,115.3 M87.4,126.7c0.5,0.2,1.1-0.2,1.4-0.8c0.2-0.6,0-1.2-0.6-1.4
		c-0.1,0-0.3-0.1-0.4,0c-0.1,0-0.1,0.1,0,0.1s0.1,0,0.2,0c0.5,0.2,0.7,0.8,0.5,1.3C88.3,126.4,87.8,126.7,87.4,126.7
		C87.4,126.6,87.4,126.6,87.4,126.7C87.3,126.7,87.4,126.7,87.4,126.7 M88.4,126.9c0,0.2,0.3,0.1,0.4,0.1s1.5-0.2,1.6-0.2
		s0.2-0.3,0-0.3c-1.2,0.2-1.6,0.3-1.6,0.3s0.4-0.2,1.6-0.5c0.6-0.1,0.2-0.4-0.1-0.4C89.9,126.1,88.4,126.4,88.4,126.9 M90.3,127
		c-0.5,0-1,0.1-1.2,0.2c0,0,1.1,0.1,1.3,0.1C90.6,127.2,90.6,127,90.3,127 M86.4,125c-0.2-0.1-0.4-0.1-0.5,0.1v0.1v0.1
		c0,0.1,0.1,0.2,0.2,0.3c0.2,0.1,0.4,0.1,0.5-0.1C86.6,125.4,86.5,125.1,86.4,125 M88.6,135c0.4,0.1,0.9-0.1,1.1-0.6s0-1-0.5-1.2
		c-0.1,0-0.2,0-0.3,0s-0.1,0.1,0,0.1H89c0.4,0.1,0.6,0.6,0.4,1C89.4,134.7,89,134.9,88.6,135C88.7,134.9,88.6,134.9,88.6,135
		L88.6,135 M89.5,135.1c0,0.1,0.2,0.1,0.4,0.1c0.1,0,1.2-0.2,1.3-0.2s0.2-0.2,0-0.2c-1,0.1-1.3,0.2-1.3,0.2s0.3-0.2,1.3-0.4
		c0.5-0.1,0.2-0.4-0.1-0.3C90.7,134.5,89.5,134.8,89.5,135.1 M91,135.2c-0.4,0-0.8,0.1-1,0.2c0,0,0.9,0,1,0
		C91.2,135.4,91.2,135.2,91,135.2 M87.8,133.6c-0.1-0.1-0.3,0-0.4,0.1v0.1v0.1c0,0.1,0.1,0.2,0.1,0.2c0.1,0.1,0.3,0,0.4-0.1
		C88,133.9,88,133.7,87.8,133.6 M58.5,146.5L58.5,146.5C58.6,146.5,58.6,146.5,58.5,146.5 M58.8,146.2L58.8,146.2L58.8,146.2
		 M59.1,145.9L59.1,145.9L59.1,145.9 M59.6,145.6L59.6,145.6L59.6,145.6 M63.4,143.9L63.4,143.9L63.4,143.9 M63.9,143.9L63.9,143.9
		L63.9,143.9 M64.3,143.9L64.3,143.9L64.3,143.9 M64.7,143.8L64.7,143.8L64.7,143.8 M65.2,143.8L65.2,143.8L65.2,143.8 M65.5,143.9
		L65.5,143.9L65.5,143.9 M66.1,143.8L66.1,143.8L66.1,143.8 M66.3,143.9L66.3,143.9L66.3,143.9 M72.7,143.1L72.7,143.1L72.7,143.1
		 M73.1,143.2L73.1,143.2L73.1,143.2 M73.5,143L73.5,143L73.5,143 M73.9,143.1L73.9,143.1L73.9,143.1 M84.8,141.6L84.8,141.6
		L84.8,141.6 M85.1,141.7L85.1,141.7L85.1,141.7 M100.6,141.7L100.6,141.7L100.6,141.7 M100,141.7L100,141.7L100,141.7 M117.1,142.8
		L117.1,142.8L117.1,142.8 M116.7,142.6L116.7,142.6L116.7,142.6 M115.9,142.5L115.9,142.5L115.9,142.5 M125.2,144L125.2,144
		L125.2,144 M124.8,143.9L124.8,143.9L124.8,143.9 M124.5,143.8L124.5,143.8L124.5,143.8 M124.1,143.6L124.1,143.6L124.1,143.6
		 M123.6,143.8L123.6,143.8L123.6,143.8 M130.8,146.5L130.8,146.5L130.8,146.5 M130.5,146.2L130.5,146.2L130.5,146.2 M130.2,145.9
		L130.2,145.9L130.2,145.9 M129.8,145.6L129.8,145.6L129.8,145.6 M104.8,61.5c0.4,0.2,0.8,0.8,0.7,1.5c-0.1,0.5-0.3,0.9-0.4,1.3
		c0,0.1-0.1,0.2-0.1,0.2c-0.1,0.2-0.1,0.4-0.1,0.6c0.1,0.4,0,0.8,0,1.2c0,0.5-0.1,0.9-0.2,1.3c-0.2,0.8-0.6,1.5-1.2,2
		c-0.5,0.5-1.2,0.7-1.8,0.9s-1.2,0.2-1.7,0.2c-0.4,0.1-0.8,0.2-1.1,0.4c0.2,0.1,0.4,0.2,0.7,0.1c0.4-0.1,0.7-0.1,1.1-0.1
		c0.3,0,0.6,0,0.8,0c0.2,0,0.2,0,0.1,0.2c-0.2,0.6-0.5,1-1,1.4c-0.3,0.2-0.6,0.4-1,0.5c-0.1,0-0.2,0.1-0.2,0.2
		c0,0.2-0.1,0.4-0.1,0.6c-0.1,0.8-0.3,1.7-0.6,2.4v0.1c0,0.1,0.1,0,0.1,0c0.1,0,0.2,0,0.3,0c0.1,0.1,0.2,0.1,0.1,0.3
		c-0.2,0.2-0.3,0.4-0.5,0.6c-0.4,0.4-0.7,0.8-1,1.2c0,0.1-0.1,0.1-0.1,0.2l0,0h1.1v3.9c0,1.3-0.3,2.3-0.8,3.1c0.1,0.5,0.2,1,0.3,1.5
		c0.1,0.5,0.3,1,0.5,1.5c2.6,0.3,4.3,1,4.5,1c0.5,0.2,0.7,0.7,0.6,1.2c-0.2,0.5-0.7,0.7-1.2,0.6c0,0-3.4-1.2-7.3-1.1
		c-3,0-5.7,0.9-6.8,1.3l-0.2,0.1c-0.1,0-0.2,0-0.3,0c-0.4,0-0.7-0.2-0.9-0.6c-0.2-0.5,0.1-1,0.6-1.1l0.2-0.1c0.9-0.3,3.1-1,5.7-1.3
		c0-0.2,0-0.3,0-0.5v-0.1c-1-0.4-2.4-1.5-3-3.5c-0.1-0.1-0.2-0.3-0.3-0.5c-0.1-0.2-0.1-0.4-0.2-0.5s-0.1-0.2-0.3-0.2
		c-0.2-0.1-0.4,0-0.6,0c-0.5,0.1-1,0.2-1.4,0.2c-0.1,0-0.2,0-0.3,0C87.2,83.8,87,84,87,84.4c0,0.5,0.1,1,0.3,1.4
		c0,0.1,0.1,0.1,0,0.2c-0.1,0.2,0,0.2,0.1,0.3c0.3,0.2,0.5,0.4,0.5,0.7c0.1,0.3,0.1,0.5,0.3,0.7c0.1,0.1,0,0.1-0.1,0.1
		c-0.2,0-0.3,0-0.5-0.1c-0.1,0.2,0,0.3,0,0.5s-0.1,0.2-0.2,0.1c-0.3-0.3-0.7-0.5-1-0.7S86,87.1,86,86.7c0-0.2,0-0.2-0.2-0.3
		s-0.3-0.2-0.3-0.5c0.1-0.6,0.1-1.2,0-1.7c-0.1-0.4,0-0.7,0.2-1c0.1-0.1,0.2-0.3,0.2-0.4c-0.1-0.1-0.1,0-0.4-0.1
		c-1.1-0.1-1.9-0.7-2.2-1.8c-0.4-1.2,0-2.4,1.2-3.1c0.2-0.1,0.3-0.2,0.3-0.5s0.2-0.6,0.4-0.7c0.3-0.2,0.4-0.5,0.6-0.8
		c0-0.1,0.1-0.2,0.1-0.2c0.1-0.1,0.2-0.2,0.3-0.2c0.2,0,0.4,0,0.6,0c0.3,0,0.6-0.1,0.9-0.1s0.6-0.1,0.9-0.1c0.1,0,0.2-0.1,0.3-0.1
		c0.3-0.2,0.7-0.1,0.9,0.2c0.4,0.4,0.6,1,0.8,1.6c0.1,0.3,0.2,0.6,0.4,0.9c0.1,0.1,0.2,0.2,0.3,0.1c0.1-0.1,0.2-0.2,0.2-0.3
		c-0.1-0.2,0-0.4,0.2-0.5c0.1-0.1,0.2-0.2,0.2-0.4c0.1-0.5,0.2-1,0.2-1.6c0-0.2,0-0.4,0-0.5c0-0.2,0.1-0.3,0.3-0.2
		c0.1,0.1,0.2,0.2,0.2,0.3c0,0.1,0.1,0.1,0.2,0.1c0.2,0,0.3,0,0.2,0.3c0,0,0,0.1-0.1,0.1c0,0-0.1,0.1,0,0.1H93
		c0.2-0.1,0.3-0.1,0.4,0.1c0,0,0.1,0.1,0.1,0c0.3,0,0.6,0,0.8-0.2c0.2-0.1,0.3-0.2,0.3-0.4c0-0.2-0.2-0.4-0.4-0.4
		c-0.2-0.1-0.5-0.1-0.7-0.2c-0.3,0-0.5-0.1-0.8-0.2s-0.5-0.4-0.5-0.7c0-0.1,0-0.2-0.1-0.3S92,72.8,92,72.7c-0.1-0.5-0.1-0.5,0.2-0.8
		c0.1-0.2,0.2-0.3,0.3-0.5c0-0.1,0.2-0.1,0.3-0.1c0.1,0,0.4-0.1,0.5,0c0.2,0.1,0.5,0.1,0.7,0s0.4,0,0.5-0.1c0.1,0,0.2,0,0.3,0
		c-0.5-0.2-1-0.4-1.3-0.8s-0.6-0.8-0.6-1.4c0.6,0.6,1.3,1.1,2.3,1.3c-0.2-0.3-0.4-0.4-0.6-0.6s-0.3-0.5-0.4-0.7
		c-0.1-0.3-0.2-0.5-0.3-0.8c0.1-0.1,0.1,0,0.2,0c0.3,0.3,0.6,0.5,0.9,0.7c0.2,0.1,0.3,0.3,0.5,0.4c0.4,0.4,0.9,0.5,1.3,0.6
		c0.1,0,0.1,0,0.2-0.1c0-0.1,0-0.2,0.1-0.3c0-0.2,0-0.3-0.1-0.4c-0.5-0.4-0.7-0.9-0.8-1.5c0-0.2,0-0.4,0.1-0.6
		c0.1-0.3,0.3-0.6,0.5-0.9c0.1,0.1,0,0.2,0,0.2c-0.1,0.4-0.1,0.8,0.1,1.1c0,0.1,0.1,0.2,0.2,0.3c0.1,0.2,0.3,0.4,0.4,0.6
		c0.2,0.2,0.3,0.2,0.4,0c0.1-0.1,0.3-0.2,0.4-0.3c0.2-0.1,0.2-0.1,0-0.3c-0.1-0.2-0.2-0.3-0.3-0.5c-0.3-0.5-0.4-1-0.2-1.6
		c0.1-0.2,0.2-0.4,0.2-0.6c0.1,0,0.1,0.1,0.1,0.1c0,0.1,0,0.1,0,0.2c0,0.5,0.1,0.9,0.5,1.3c0.2,0.3,0.4,0.6,0.8,0.8
		c0.1,0.1,0.2,0.1,0.3,0.1c0.2,0,0.3-0.1,0.3-0.3c0-0.3,0-0.5,0.1-0.8c0,0,0-0.1,0.1-0.1s0.1,0.1,0.1,0.1c0.1,0.1,0.1,0.3,0.2,0.4
		c0.1,0.2,0.1,0.2,0.3,0c0.2-0.2,0.3-0.5,0.3-0.9c0-0.2-0.1-0.4-0.3-0.5c-0.1-0.1-0.3-0.2-0.4-0.2c-0.6-0.3-1-0.7-1.1-1.4
		c0-0.2-0.1-0.4-0.1-0.6v-0.1c0.1,0,0.1,0,0.1,0.1c0.3,0.6,0.7,1,1.3,1.3c0.2,0.1,0.4,0.2,0.6,0.2c0.3,0,0.3,0,0.2-0.3
		c0-0.2-0.1-0.4-0.2-0.6c-0.1-0.1-0.2-0.3-0.3-0.4c-0.2-0.3-0.3-0.7-0.3-1.1c0-0.2,0-0.3,0-0.5v-0.1c0.1,0,0.1,0.1,0.1,0.1
		c0,0.1,0,0.2,0.1,0.3c0.2,0.4,0.5,0.8,0.8,1.2c0,0,0,0,0.1,0.1h0.1v-0.1c-0.1-0.2-0.3-0.9-0.3-1.1c0.1,0.1,0.2,0.2,0.2,0.4
		c0.2,0.4,0.4,0.8,0.7,1.1c0.1,0.1,0.2,0.2,0.3,0.2c0.1,0,0-0.2,0.1-0.3c0-0.2-0.1-0.5-0.1-0.7c-0.1-0.4-0.2-0.7-0.1-1.1
		c0.1-0.4,0.3-1.2,0.3-1.2s0-0.1,0.1-0.1c0,0,0.1,0,0.1,0.1c0,0.2,0.2,1.7,0.5,2.1c0.2,0.3,0.6,1,0.7,1c0.2-0.2,0.3-0.5,0.4-0.7
		c0.1-0.5,0.1-0.9-0.2-1.3c-0.1-0.2-0.4-0.5-0.4-0.6s0.1,0,0.1,0C104.4,61.3,104.6,61.4,104.8,61.5 M90,80.3c0-0.3,0.1-0.6-0.2-0.8
		c-0.1-0.1-0.1-0.2-0.2-0.3c-0.2-0.5-0.3-0.9-0.4-1.4c0-0.3-0.1-0.5-0.2-0.8s-0.3-0.3-0.6-0.3c-0.2,0.1-0.4,0.1-0.5,0
		c-0.1,0-0.3,0-0.4,0.1s-0.2,0.2-0.2,0.3c-0.1,0.2-0.1,0.2-0.4,0.2c-0.1,0-0.2-0.1-0.3-0.2c-0.2,0.3-0.2,0.3,0.1,0.4
		c0.3,0.1,0.5,0.2,0.7,0.3c0.4,0.3,0.7,0.7,0.9,1.2c0.3,0.7,0.2,1.5,0,2.1c-0.2,0.5-0.5,0.9-0.5,0.9c0.1-0.1,0.4-0.2,0.5-0.3
		C89.5,81.1,89.9,80.6,90,80.3 M94.7,87.8c0.3,0,1.4-0.5,2.3-1.4l-2.2-2.6l0,0l0,0l0,0l0,0l0,0l0,0l0,0l-2.2,2.7
		C93.3,87.4,94.4,87.7,94.7,87.8L94.7,87.8 M91.1,79.4v3.3c0,0.6,0.1,1.1,0.2,1.6l3.4-4.1l3.4,4.1c0.2-0.5,0.2-1,0.2-1.5v-3.4H91.1z
		"/>
</g>
</svg>
