<svg enable-background="new 0 0 228 228" viewBox="0 0 228 228" xmlns="http://www.w3.org/2000/svg"><g enable-background="new"><path d="m185 228 30-167.7-215-60.3v228z" fill="#fff"/><path d="m33.3 165c-.2 0-.4 0-.6 0s-.4 0-.6 0-.4 0-.6 0-.3 0-.5.1c0-.1 0-.2 0-.3s0-.2 0-.3h1.3s.9 0 1.3 0 .9 0 1.3 0 .9 0 1.3 0c0 .1-.1.2-.1.3s0 .2.1.3c-.1 0-.3 0-.5-.1-.2 0-.4 0-.6 0s-.4 0-.6 0-.4 0-.6 0v2.1 1.7 1.3c0 .4 0 .9.1 1.3-.2 0-.3 0-.5 0s-.3 0-.5 0c0-.4 0-.8.1-1.3 0-.4 0-.9 0-1.3v-1.7c.2-.7.2-1.4.2-2.1m9.4.8v1.3.4c-.4 0-.7 0-1.1 0-.3 0-.7 0-1.1 0s-.7 0-1.1 0c-.3 0-.7 0-1.1 0v-.4c0-.4 0-.9 0-1.3s0-.9.1-1.3c-.1 0-.2 0-.3 0s-.2 0-.2 0h-.2c-.1 0-.2 0-.3 0 0 .4 0 .9.1 1.3v1.3 1.7 1.3s0 .9-.1 1.3h.5s.3 0 .5 0c0-.4 0-.8-.1-1.3 0-.4 0-.9 0-1.3v-.9h1.1 1.1s.7 0 1.1 0h1.1v.9 1.3s0 .9-.1 1.3h.5s.3 0 .5 0c0-.4 0-.8-.1-1.3 0-.4 0-.9 0-1.3v-1.7c0-.4 0-.9 0-1.3s0-.9.1-1.3c-.1 0-.2 0-.3 0s-.2 0-.2 0c-.1 0-.2 0-.2 0-.1 0-.2 0-.3 0 .1.4.1.9.1 1.3m3 0v1.3 1.7 1.3s0 .9-.1 1.3h.9 1.8.9c0-.1 0-.2 0-.3 0 0 0-.1 0-.2s0-.1 0-.2c-.2 0-.4.1-.6.1s-.5 0-.7 0-.5 0-.8 0h-.7c0-.1 0-.3 0-.6 0-.2 0-.6 0-.9v-1c0-.1 0-.2 0-.3s0-.1 0-.2h.5s.4 0 .7 0h.7s.4 0 .6 0c0-.1 0-.2 0-.3s0-.2 0-.3c-.1 0-.3 0-.5 0s-.3 0-.5 0-.4 0-.6 0-.5 0-.8 0c0-.1 0-.3 0-.6 0-.2 0-.5 0-.8 0-.2 0-.5 0-.7s0-.4 0-.6h.8s.5 0 .7 0 .4 0 .6 0 .4 0 .6 0c0-.1 0-.2 0-.3s0-.2 0-.3c-.3 0-.6 0-.9 0s-.6 0-.9 0-.6 0-.9 0-.6 0-.9 0c.1 1 .1 1.4.1 1.9m8.3 0v1.3 1.7 1.3s0 .9-.1 1.3h.5s.3 0 .5 0c0-.4 0-.8-.1-1.3 0-.4 0-.9 0-1.3v-.7h.4c.2.2.5.5.7.8.3.3.5.6.8 1 .2.3.5.6.7.9s.4.5.5.6h.3.6.3c-.1-.1-.2-.2-.4-.4s-.3-.4-.5-.6-.4-.4-.5-.7c-.2-.2-.4-.5-.5-.7-.2-.2-.3-.4-.5-.6-.1-.2-.3-.3-.3-.4.2 0 .4-.1.7-.2.2-.1.5-.2.7-.4s.4-.3.5-.6c.1-.2.2-.5.2-.8s-.1-.6-.2-.8-.3-.4-.5-.5-.4-.2-.7-.3-.5-.1-.8-.1c-.2 0-.4 0-.6 0s-.4 0-.6 0-.4 0-.6 0-.4 0-.6 0c.1.6.1 1.1.1 1.5m1.2 1.9c-.1 0-.2 0-.3 0v-.6c0-.4 0-.7 0-1.1s0-.7 0-1.1h.4s.3 0 .6 0c.2 0 .4 0 .5.1.2 0 .3.1.5.2s.3.2.4.4.1.4.1.7-.1.6-.2.8-.3.4-.5.5-.4.2-.6.2-.4.1-.7.1c0-.2-.1-.2-.2-.2m4.9-1.3c-.2.4-.3 1-.3 1.5 0 .6.1 1.1.3 1.5s.4.8.8 1.1c.3.3.7.5 1.2.7s1 .2 1.5.2c.6 0 1.1-.1 1.5-.2.5-.2.9-.4 1.2-.7s.6-.7.8-1.1.3-1 .3-1.5c0-.6-.1-1.1-.3-1.5s-.4-.8-.8-1.1c-.3-.3-.7-.5-1.2-.7s-1-.2-1.5-.2c-.6 0-1.1.1-1.5.2-.5.2-.9.4-1.2.7s-.6.7-.8 1.1m6.1.1c.1.4.2.9.2 1.4 0 .6-.1 1-.2 1.4s-.3.7-.6 1-.5.5-.9.6c-.3.1-.7.2-1.1.2s-.8-.1-1.1-.2-.6-.3-.9-.6-.4-.6-.6-1c-.1-.4-.2-.9-.2-1.4 0-.6.1-1 .2-1.4s.3-.7.6-1 .5-.5.9-.6c.3-.1.7-.2 1.1-.2s.8.1 1.1.2.6.3.9.6.5.6.6 1m3.5 1.6c.1.2.2.4.3.5v1.6s0 .9-.1 1.3h.5s.3 0 .5 0c0-.1 0-.3 0-.6 0-.2 0-.5 0-.8s0-.5 0-.8 0-.5 0-.8c.1-.2.2-.4.4-.7.1-.3.3-.6.5-.9s.4-.7.7-1.1.5-.8.9-1.3c-.2 0-.3 0-.4 0s-.2 0-.4 0c-.1.3-.3.6-.4.9-.2.3-.3.6-.5.9s-.3.6-.5.9-.3.6-.5.8c-.4-.6-.7-1.2-1-1.8s-.6-1.1-.9-1.7c-.1 0-.2 0-.3 0s-.2 0-.3 0-.2 0-.3 0-.2 0-.3 0c.1.1.2.3.3.5s.3.5.4.7c.2.3.3.5.5.8s.3.6.5.8c.1.3.2.6.4.8m10 3.3c-.1-.2-.2-.4-.3-.7s-.3-.7-.5-1.1-.4-.8-.6-1.3-.4-.9-.6-1.4-.4-.9-.6-1.4-.4-.9-.5-1.3h-.2c-.5 1.2-1 2.4-1.6 3.6-.5 1.2-1.1 2.3-1.6 3.5h.4.4c.1-.3.2-.7.4-1.2s.4-1 .6-1.5h.6s.4 0 .6 0 .4 0 .7 0h.7c.1.2.2.5.3.7s.2.5.3.7.2.5.3.7.1.4.2.6h.3.5c0 .1.1.1.2.1m-3.4-5.7 1.1 2.6c-.2 0-.4 0-.6 0s-.4 0-.6 0-.4 0-.5 0c-.2 0-.4 0-.5 0zm4.7.1v1.3 1.7 1.3s0 .9-.1 1.3h.9 1.9.9c0-.1-.1-.2-.1-.3s0-.2.1-.3c-.5.1-1 .1-1.4.1s-.9 0-1.4 0c0-.5 0-1 0-1.7 0-.6 0-1.4 0-2.2 0-.4 0-.9 0-1.3s0-.9.1-1.3c-.1 0-.2 0-.3 0s-.2 0-.2 0c-.1 0-.2 0-.2 0-.1 0-.2 0-.3 0 .1.5.1 1 .1 1.4m8.3 0v1.3 1.7 1.3s0 .9-.1 1.3h.5.5.5s.3 0 .5 0c.3 0 .6 0 .9-.1s.6-.2.8-.3c.2-.2.5-.4.6-.6.2-.3.2-.6.2-.9 0-.6-.2-1-.5-1.3s-.8-.4-1.4-.4c.5-.1.9-.3 1.2-.6s.5-.7.5-1.2c0-.3-.1-.5-.2-.7s-.3-.3-.5-.4-.4-.2-.7-.2-.5-.1-.8-.1c-.2 0-.4 0-.5 0-.2 0-.4 0-.5 0-.2 0-.4 0-.5 0-.2 0-.4 0-.5 0-.1.3-.1.7 0 1.2m2.1 1.7c-.2 0-.5.1-.7.1h-.5v-.8c0-.3 0-.6 0-1 0-.3 0-.6 0-1h.3s.3 0 .4 0h.6s.4.1.5.2c.2.1.3.2.4.4s.2.4.2.7-.1.5-.2.7-.3.3-.4.4c-.2.2-.4.3-.6.3m-1.3 2.5c0-.3 0-.7 0-1v-1h.5c.3 0 .6 0 .9.1.3 0 .5.1.7.2s.3.2.4.4.2.4.2.7 0 .5-.1.7-.2.4-.4.5c-.1.1-.3.3-.5.3-.2.1-.4.1-.6.1s-.4 0-.5 0c-.2 0-.3 0-.5 0 0-.3-.1-.7-.1-1m5.3-3.6c-.2.4-.3 1-.3 1.5 0 .6.1 1.1.3 1.5s.4.8.8 1.1c.3.3.7.5 1.2.7s1 .2 1.5.2c.6 0 1.1-.1 1.5-.2.5-.2.9-.4 1.2-.7s.6-.7.8-1.1.3-1 .3-1.5c0-.6-.1-1.1-.3-1.5s-.4-.8-.8-1.1c-.3-.3-.7-.5-1.2-.7s-1-.2-1.5-.2c-.6 0-1.1.1-1.5.2-.5.2-.9.4-1.2.7-.4.3-.6.7-.8 1.1m6.1.1c.1.4.2.9.2 1.4 0 .6-.1 1-.2 1.4s-.3.7-.6 1-.5.5-.9.6c-.3.1-.7.2-1.1.2s-.8-.1-1.1-.2-.6-.3-.9-.6-.4-.6-.6-1c-.1-.4-.2-.9-.2-1.4 0-.6.1-1 .2-1.4s.3-.7.6-1 .5-.5.9-.6c.3-.1.7-.2 1.1-.2s.8.1 1.1.2.6.3.9.6.4.6.6 1m2.7-.7v1.3 1.7 1.3s0 .9-.1 1.3h.5s.3 0 .5 0c0-.4 0-.8-.1-1.3 0-.4 0-.9 0-1.3v-.7h.4c.2.2.5.5.7.8.3.3.5.6.8 1 .2.3.5.6.7.9s.4.5.5.6h.3.6.3c-.1-.1-.2-.2-.4-.4s-.3-.4-.5-.6-.4-.4-.5-.7c-.2-.2-.4-.5-.5-.7-.2-.2-.3-.4-.5-.6-.1-.2-.3-.3-.3-.4.2 0 .4-.1.7-.2.2-.1.5-.2.7-.4s.4-.3.5-.6c.1-.2.2-.5.2-.8s-.1-.6-.2-.8-.3-.4-.5-.5-.4-.2-.7-.3-.5-.1-.8-.1c-.2 0-.4 0-.6 0s-.4 0-.6 0-.4 0-.6 0-.4 0-.6 0c.1.6.1 1.1.1 1.5m1.2 1.9c-.1 0-.2 0-.3 0v-.6c0-.4 0-.7 0-1.1s0-.7 0-1.1h.4.6c.2 0 .4 0 .5.1.2 0 .3.1.5.2s.3.2.4.4.1.4.1.7-.1.6-.2.8-.3.4-.5.5-.4.2-.6.2-.4.1-.7.1c0-.2-.1-.2-.2-.2m5-1.3c-.2.4-.3 1-.3 1.5 0 .6.1 1.1.3 1.5s.4.8.8 1.1c.3.3.7.5 1.2.7s1 .2 1.5.2c.6 0 1.1-.1 1.5-.2.5-.2.9-.4 1.2-.7s.6-.7.8-1.1.3-1 .3-1.5c0-.6-.1-1.1-.3-1.5s-.4-.8-.8-1.1c-.3-.3-.7-.5-1.2-.7s-1-.2-1.5-.2c-.6 0-1.1.1-1.5.2-.5.2-.9.4-1.2.7-.4.3-.7.7-.8 1.1m6 .1c.1.4.2.9.2 1.4 0 .6-.1 1-.2 1.4s-.3.7-.6 1-.5.5-.9.6c-.3.1-.7.2-1.1.2s-.8-.1-1.1-.2-.6-.3-.9-.6-.4-.6-.6-1c-.1-.4-.2-.9-.2-1.4 0-.6.1-1 .2-1.4s.3-.7.6-1 .5-.5.9-.6c.3-.1.7-.2 1.1-.2s.8.1 1.1.2.6.3.9.6.5.6.6 1m8.1-1v2.2.7c0 .2 0 .5-.1.7 0 .2-.1.5-.2.7s-.2.4-.4.6-.4.3-.6.4c-.3.1-.6.2-.9.2-.4 0-.7 0-1-.1s-.5-.2-.6-.4c-.2-.2-.3-.3-.4-.6-.1-.2-.2-.4-.2-.7 0-.2-.1-.5-.1-.7s0-.5 0-.7c0-.4 0-.7 0-1.1 0-.3 0-.7 0-1s0-.6 0-.8 0-.4 0-.6c-.1 0-.1 0-.2 0s-.1 0-.2 0-.2 0-.3 0-.2 0-.3 0v1.1s0 .9 0 1.5v.8.8c0 1 .2 1.7.7 2.2s1.2.7 2.2.7c.5 0 .9-.1 1.2-.2.4-.1.7-.3.9-.6.2-.2.4-.6.6-.9.1-.4.2-.8.2-1.2s0-.8 0-1.1c0-.4 0-.8 0-1.2s0-.7 0-1.1c0-.3 0-.6.1-.8-.1 0-.2 0-.3 0s-.1 0-.2 0-.1 0-.2 0c.3.4.3.7.3 1.2m8.2-.2c.2.1.3.2.4.4h.1c0-.1 0-.3.1-.4 0-.1.1-.3.1-.4-.1-.1-.3-.1-.4-.2-.2-.1-.3-.1-.5-.2s-.4-.1-.7-.1-.6-.1-.9-.1c-.6 0-1.1.1-1.6.2-.5.2-.9.4-1.2.7s-.6.7-.8 1.1-.3 1-.3 1.5c0 .6.1 1.1.3 1.6s.4.8.8 1.1c.3.3.7.5 1.2.7.5.1 1 .2 1.6.2h.7c.2 0 .5-.1.7-.1s.5-.1.7-.1c.2-.1.4-.1.5-.2 0-.1 0-.3 0-.4s0-.3 0-.4c0-.5 0-1 0-1.3s0-.6 0-.7c-.1 0-.1 0-.2 0s-.1 0-.2 0c-.2 0-.3 0-.5 0v.7.7s0 .4 0 .6v.6c-.1.1-.2.1-.3.1s-.3.1-.4.1-.3 0-.4.1c-.2 0-.3 0-.4 0-.5 0-.9-.1-1.3-.2s-.7-.4-1-.6c-.3-.3-.5-.6-.6-1s-.2-.8-.2-1.3c0-.6.1-1 .2-1.4.2-.4.4-.7.6-1 .3-.3.6-.5.9-.6.4-.1.7-.2 1.2-.2.3 0 .5 0 .7.1s.4.1.6.2c.2 0 .4.1.5.2m7.7.5v1.3.4c-.4 0-.7 0-1.1 0-.3 0-.7 0-1.1 0s-.7 0-1.1 0c-.3 0-.7 0-1.1 0v-.4c0-.4 0-.9 0-1.3s0-.9.1-1.3c-.1 0-.2 0-.3 0s-.2 0-.2 0c-.1 0-.2 0-.2 0-.1 0-.2 0-.3 0 0 .4 0 .9.1 1.3v1.3 1.7 1.3s0 .9-.1 1.3h.5s.3 0 .5 0c0-.4 0-.8-.1-1.3 0-.4 0-.9 0-1.3v-.9h1.1 1.1 1.1 1.1v.9 1.3s0 .9-.1 1.3h.5s.3 0 .5 0c0-.4 0-.8-.1-1.3 0-.4 0-.9 0-1.3v-1.7c0-.4 0-.9 0-1.3s0-.9.1-1.3c-.1 0-.2 0-.3 0s-.2 0-.2 0c-.1 0-.2 0-.2 0-.1 0-.2 0-.3 0 .1.4.1.9.1 1.3m5.8.6c-.2.4-.3 1-.3 1.5 0 .6.1 1.1.3 1.5s.4.8.8 1.1c.3.3.7.5 1.2.7s1 .2 1.5.2c.6 0 1.1-.1 1.5-.2s.9-.4 1.2-.7.6-.7.8-1.1.3-1 .3-1.5c0-.6-.1-1.1-.3-1.5s-.4-.8-.8-1.1c-.3-.3-.7-.5-1.2-.7s-1-.2-1.5-.2c-.6 0-1.1.1-1.5.2-.5.2-.9.4-1.2.7-.4.3-.7.7-.8 1.1m6 .1c.1.4.2.9.2 1.4 0 .6-.1 1-.2 1.4s-.3.7-.6 1-.5.5-.9.6c-.3.1-.7.2-1.1.2s-.8-.1-1.1-.2-.6-.3-.9-.6-.4-.6-.6-1c-.1-.4-.2-.9-.2-1.4 0-.6.1-1 .2-1.4s.3-.7.6-1 .5-.5.9-.6c.3-.1.7-.2 1.1-.2s.8.1 1.1.2.6.3.9.6.5.6.6 1m2.8-.7v1.3 1.7 1.3s0 .9-.1 1.3h.5s.3 0 .5 0c0-.4 0-.8-.1-1.3 0-.4 0-.9 0-1.3v-.9h.7.7s.4 0 .7 0h.6c0-.1 0-.2 0-.3s0-.2 0-.3c-.4 0-.9.1-1.3.1s-.9 0-1.3 0c0-.2 0-.4 0-.6s0-.4 0-.7c0-.2 0-.4 0-.6s0-.4 0-.7h.6.8s.5 0 .8 0 .5 0 .7.1c0-.1 0-.2 0-.3s0-.2 0-.3c-.4 0-.7 0-1 0s-.6 0-.9 0-.6 0-.9 0-.6 0-.9 0c-.1.6-.1 1.1-.1 1.5m-79-6.5h9.5 18c28.1.1 52.4-.4 61.7-6.7-9.1 6.2-33.7 5.4-61.8 5.4-5.9 0-12 0-18 0-26.5.1-52 .9-61.3-5 8.5 5.3 29 6.3 51.9 6.3m37.6 58.2c-3.1 0-6.3 0-9.5 0-6 0-12.1 0-18 0-28.1-.1-52.4.4-61.7 6.7 9.1-6.2 33.7-5.4 61.8-5.4h18c26.5-.1 52-.9 61.3 5-8.5-5.2-29-6.3-51.9-6.3m-81.8-26.5c0 1.1-.1 2.2-.1 3.3.4 0 .8-.1 1.3-.1.4 0 .9 0 1.3.1-.1-1.1-.1-2.2-.1-3.3s-.1-2.2-.1-3.4v-2.3c0-.1 0-.2.1-.2s.2.1.3.2c.3.3.7.8 1.3 1.4.6.7 1.2 1.5 1.9 2.3.7.9 1.5 1.7 2.2 2.7.8.9 1.4 1.7 2.1 2.4.2 0 .5-.1.7-.1h1.5c.3 0 .5 0 .8.1-1.5-1.6-2.9-3.3-4.3-4.9s-2.8-3.2-4.2-4.8c.5-.5 1.1-1.2 1.8-1.9s1.4-1.4 2.2-2.2c.8-.7 1.5-1.5 2.3-2.2s1.4-1.3 2.1-1.8c-.2 0-.4.1-.6.1s-.4 0-.6 0-.3 0-.5 0-.4-.1-.5-.1c-.6.7-1.2 1.4-1.9 2.1s-1.3 1.5-2 2.2-1.3 1.4-2 2.1-1.3 1.2-1.9 1.8c-.2.2-.3.2-.4.2s-.2-.1-.2-.2v-1.4c0-1.1 0-2.3.1-3.4 0-1.1.1-2.2.1-3.4-.2 0-.4.1-.6.1s-.4 0-.6 0-.4 0-.6 0-.4-.1-.6-.1c.1 1.1.1 2.3.1 3.4s.1 2.2.1 3.4v4.5c-.4 1.1-.4 2.3-.5 3.4m15.9-11.2c0 1.1.1 2.2.1 3.4v4.5c0 1.1 0 2.3-.1 3.4 0 1.1-.1 2.2-.1 3.3.4 0 .8-.1 1.3-.1.4 0 .9 0 1.3.1-.1-1.1-.1-2.2-.1-3.3s-.1-2.2-.1-3.4v-4.5c0-1.1 0-2.3.1-3.4 0-1.1.1-2.2.1-3.4-.2 0-.4.1-.6.1s-.4 0-.6 0-.4 0-.6 0-.4-.1-.6-.1c-.2 1.2-.2 2.3-.1 3.4m15.5 7.7c2.3 2.4 4.4 4.8 6.4 7.1h.4v-.9c0-.4 0-.9 0-1.5s0-1.2 0-1.8 0-1.3 0-1.9 0-1.3 0-1.8v-1.6c0-.5 0-1.2.1-2 0-.8.1-1.7.1-2.5 0-.9.1-1.7.1-2.4 0-.8.1-1.3.1-1.7-.3.1-.6.1-.8.1s-.5 0-.9-.1c.1 1.5.1 3.1.2 4.9v5.3 3.5c-.8-.8-1.7-1.8-2.8-2.9s-2.2-2.3-3.4-3.6-2.4-2.6-3.6-3.9-2.3-2.5-3.4-3.7h-.4c0 .6.1 1.5.1 2.7s0 2.6 0 4.3v1.9s0 1.5-.1 2.2c0 .8-.1 1.5-.1 2.3s-.1 1.5-.1 2.1-.1 1.2-.1 1.7-.1.8-.1 1c.3 0 .6-.1 1-.1.3 0 .6 0 .9.1 0-.1 0-.4-.1-.8 0-.4 0-.8-.1-1.4 0-.5 0-1.1-.1-1.7 0-.6 0-1.2 0-1.8s0-1.2 0-1.7 0-1 0-1.4c0-1.4 0-2.5 0-3.3s0-1.5.1-1.9c2.1 2.4 4.4 4.8 6.6 7.2m25.9-8.9c.4.3.7.6 1 .9h.3c0-.3.1-.7.2-1.1s.2-.7.4-.9c-.3-.2-.7-.3-1.1-.5s-.9-.3-1.4-.5-1.1-.3-1.8-.4-1.5-.1-2.3-.1c-1.5 0-2.9.2-4.2.6s-2.3 1-3.2 1.8-1.6 1.8-2.1 2.9c-.5 1.2-.7 2.5-.7 3.9 0 1.5.2 2.9.7 4 .5 1.2 1.1 2.1 2 2.9s1.9 1.4 3.2 1.7c1.2.4 2.6.6 4.2.6.5 0 1.1 0 1.7-.1s1.2-.2 1.8-.3 1.2-.2 1.7-.4c.5-.1 1-.3 1.4-.4 0-.3 0-.7 0-1.1s0-.7 0-1.1c0-1.4 0-2.5 0-3.4s0-1.5.1-1.9c-.2.1-.4.1-.5.1-.2 0-.4 0-.6 0-.4 0-.8 0-1.2-.1 0 .6.1 1.1.1 1.7s0 1.2 0 1.8v1.6s0 1 0 1.6c-.2.1-.5.3-.8.4s-.7.2-1 .3c-.4.1-.8.1-1.2.2-.4 0-.8.1-1.1.1-1.2 0-2.3-.2-3.3-.6s-1.8-.9-2.4-1.6c-.7-.7-1.2-1.6-1.5-2.6s-.5-2.2-.5-3.4c0-1.4.2-2.7.6-3.7s.9-1.9 1.6-2.6 1.5-1.2 2.4-1.5 1.9-.5 3-.5c.7 0 1.3.1 1.9.2s1.1.3 1.6.6c.1.4.6.6 1 .9m6.2 13.2c-.2-.3-.4-.6-.6-.9h-.3c-.1.5-.1.9-.2 1.2s-.2.7-.3 1.1c.4.4 1 .7 1.7 1s1.5.4 2.6.4c1 0 1.9-.1 2.7-.4s1.5-.7 2-1.2 1-1.1 1.2-1.9c.3-.7.4-1.5.4-2.3 0-1-.2-1.7-.6-2.3s-.9-1-1.5-1.4-1.3-.7-2-.9-1.4-.5-2-.9c-.6-.3-1.1-.7-1.5-1.2s-.6-1.1-.6-1.9c0-.5.1-.9.2-1.3.2-.4.4-.7.7-1s.7-.5 1.1-.7.9-.2 1.3-.2c.5 0 .9.1 1.2.2l.9.6c.2.2.4.5.6.8.1.3.3.5.4.8h.3c.1-.5.2-.9.3-1.2s.2-.6.4-.9c-.5-.4-1.1-.7-1.7-.9s-1.3-.3-2.2-.3-1.6.1-2.3.4c-.7.2-1.3.6-1.8 1s-.9.9-1.1 1.5c-.3.6-.4 1.3-.4 2 0 1 .2 1.8.6 2.4s.9 1.1 1.5 1.5 1.3.7 2 1 1.4.5 2 .9c.6.3 1.1.7 1.5 1.2s.6 1.1.6 1.9c0 .5-.1 1-.3 1.5s-.4.9-.7 1.2-.7.6-1.2.8-1 .3-1.5.3c-.6 0-1.1-.1-1.5-.2-.4-.2-.8-.4-1.2-.6-.1-.5-.4-.8-.7-1.1m16.6-14c.1 1.8.1 3.6.1 5.4v4.5c0 1.1 0 2.3-.1 3.4 0 1.1-.1 2.2-.1 3.3.4 0 .8-.1 1.3-.1.4 0 .9 0 1.3.1-.1-1.1-.1-2.2-.1-3.3s-.1-2.2-.1-3.4v-4.5c0-1.8 0-3.6.1-5.4h1.4s1 0 1.5.1c.5 0 1 .1 1.4.1.5 0 .9.1 1.2.1-.1-.3-.1-.6-.1-.8s0-.5.1-.8c-1.1 0-2.3.1-3.3.1-1.1 0-2.2 0-3.3 0s-2.3 0-3.3 0c-1.1 0-2.2-.1-3.4-.1.1.3.1.6.1.8s0 .5-.1.8c.4-.1.8-.1 1.2-.1.5 0 .9-.1 1.4-.1s1 0 1.5-.1zm9.2 3.6c-.5 1.2-.7 2.5-.7 3.9 0 1.5.2 2.8.7 3.9.5 1.2 1.1 2.1 2 2.9s1.9 1.4 3.1 1.8 2.5.6 3.9.6 2.8-.2 3.9-.6c1.2-.4 2.2-1 3.1-1.8s1.5-1.8 2-2.9c.5-1.2.7-2.5.7-3.9 0-1.5-.2-2.8-.7-3.9-.5-1.2-1.1-2.1-2-2.9s-1.9-1.4-3.1-1.8-2.5-.6-3.9-.6-2.7.2-3.9.6-2.2 1-3.1 1.8-1.5 1.8-2 2.9m15.6.2c.4 1 .5 2.3.5 3.7s-.2 2.7-.5 3.7c-.4 1-.9 1.9-1.5 2.6s-1.4 1.2-2.3 1.5-1.8.5-2.8.5-1.9-.2-2.8-.5-1.6-.8-2.3-1.5c-.6-.7-1.2-1.5-1.5-2.6-.4-1-.5-2.3-.5-3.7s.2-2.7.5-3.7c.4-1 .9-1.9 1.5-2.6s1.4-1.2 2.3-1.5 1.8-.5 2.8-.5 2 .2 2.8.5c.9.3 1.6.8 2.3 1.5.6.7 1.2 1.6 1.5 2.6m15 5.9c2.3 2.4 4.4 4.8 6.4 7.1h.4v-.9c0-.4 0-.9 0-1.5s0-1.2 0-1.8 0-1.3 0-1.9 0-1.3 0-1.8v-1.6c0-.5 0-1.2.1-2 0-.8.1-1.7.1-2.5 0-.9.1-1.7.1-2.4 0-.8.1-1.3.1-1.7-.3.1-.6.1-.8.1s-.5 0-.9-.1c.1 1.5.1 3.1.2 4.9v5.3 3.5c-.8-.8-1.7-1.8-2.8-2.9s-2.2-2.3-3.4-3.6-2.4-2.6-3.6-3.9-2.3-2.5-3.4-3.7h-.4c0 .6.1 1.5.1 2.7s0 2.6 0 4.3v1.9s0 1.5-.1 2.2c0 .8-.1 1.5-.1 2.3s-.1 1.5-.1 2.1-.1 1.2-.1 1.7-.1.8-.1 1c.3 0 .6-.1 1-.1.3 0 .6 0 .9.1 0-.1 0-.4-.1-.8 0-.4 0-.8-.1-1.4 0-.5 0-1.1-.1-1.7 0-.6 0-1.2 0-1.8s0-1.2 0-1.7 0-1 0-1.4c0-1.4 0-2.5 0-3.3s0-1.5.1-1.9c2.1 2.4 4.3 4.8 6.6 7.2m-110.5 13.8v4.1 1.3s-.1.9-.1 1.4c-.1.5-.2.9-.4 1.3s-.4.8-.7 1.1-.7.6-1.1.8c-.5.2-1 .3-1.7.3s-1.3-.1-1.7-.2c-.5-.2-.9-.4-1.2-.7s-.5-.6-.7-1-.3-.8-.4-1.2-.1-.9-.1-1.3 0-.9 0-1.3c0-.7 0-1.4 0-2s0-1.2.1-1.8c0-.6 0-1.1.1-1.5 0-.4 0-.8.1-1.1-.1 0-.3 0-.4.1-.1 0-.3 0-.4 0s-.3 0-.5 0-.3 0-.5-.1c0 .6 0 1.2.1 2v2.8 1.4s0 1 0 1.5c0 1.8.4 3.1 1.3 4 .8.8 2.2 1.3 4 1.3.8 0 1.6-.1 2.2-.4.6-.2 1.2-.6 1.6-1s.8-1 1-1.7.4-1.4.4-2.2c0-.7 0-1.4.1-2.1 0-.7 0-1.4.1-2.1 0-.7.1-1.3.1-1.9s.1-1.1.1-1.5c-.2.1-.4.1-.6.1-.1 0-.2 0-.4 0-.1 0-.3 0-.4-.1zm4.7.5v2.4 3.2 2.4c0 .8-.1 1.6-.1 2.3h.9s.6 0 .9 0c0-.8-.1-1.5-.1-2.3s0-1.6 0-2.4v-1h.7s.5 0 .8 0c.4 0 1 0 1.5-.1.6-.1 1.1-.3 1.6-.6s.9-.7 1.3-1.2.5-1.2.5-2c0-.5-.1-1-.2-1.3-.1-.4-.3-.6-.6-.9-.2-.2-.5-.4-.8-.5s-.6-.2-.9-.3-.6-.1-.9-.1-.5 0-.7 0c-.1 0-.3 0-.5 0s-.4 0-.6 0-.4 0-.6 0-.4 0-.5 0c-.3 0-.6 0-.9 0s-.6 0-.9-.1c.1.9.1 1.7.1 2.5m2.9 3.9c-.5 0-.9 0-1.3-.1v-5.5h1.7c.5 0 .9 0 1.3.1s.7.2 1 .4.5.4.6.8c.1.3.2.8.2 1.3 0 .6-.1 1.1-.3 1.5s-.5.7-.8.9-.7.4-1.1.5c-.5.1-.9.1-1.3.1m6.9-2.7c-.3.8-.5 1.8-.5 2.8s.2 2 .5 2.8.8 1.5 1.4 2.1 1.3 1 2.2 1.3 1.8.4 2.8.4 2-.1 2.8-.4c.9-.3 1.6-.7 2.2-1.3s1.1-1.3 1.4-2.1.5-1.8.5-2.8-.2-2-.5-2.8-.8-1.5-1.4-2.1-1.3-1-2.2-1.3-1.8-.4-2.8-.4-1.9.1-2.8.4-1.6.7-2.2 1.3c-.5.5-1 1.2-1.4 2.1m11.2.1c.3.7.4 1.6.4 2.7 0 1-.1 1.9-.4 2.7-.3.7-.6 1.4-1.1 1.9s-1 .8-1.6 1.1c-.6.2-1.3.4-2 .4s-1.4-.1-2-.4c-.6-.2-1.2-.6-1.6-1.1-.5-.5-.8-1.1-1.1-1.9-.3-.7-.4-1.6-.4-2.7 0-1 .1-1.9.4-2.7.3-.7.6-1.4 1.1-1.9s1-.8 1.6-1.1c.6-.2 1.3-.4 2-.4s1.4.1 2 .4c.6.2 1.2.6 1.6 1.1.5.5.8 1.2 1.1 1.9m10.7 4.2c1.6 1.7 3.1 3.4 4.5 5h.3v-.6c0-.3 0-.6 0-1s0-.8 0-1.3 0-.9 0-1.4 0-.9 0-1.3v-1.1c0-.4 0-.8 0-1.4s.1-1.2.1-1.8.1-1.2.1-1.7.1-1 .1-1.2c-.2.1-.4.1-.6.1s-.4 0-.6-.1c.1 1.1.1 2.2.1 3.5v3.8 2.5c-.6-.6-1.2-1.3-2-2.1s-1.6-1.7-2.4-2.6-1.7-1.8-2.6-2.8c-.9-.9-1.7-1.8-2.4-2.6h-.3v1.9 3.1 1.4s0 1 0 1.6c0 .5 0 1.1-.1 1.6 0 .5-.1 1-.1 1.5s-.1.9-.1 1.2-.1.6-.1.7h.7.6c0-.1 0-.3 0-.6s0-.6 0-1 0-.8 0-1.2 0-.9 0-1.3 0-.8 0-1.2 0-.7 0-1c0-1 0-1.8 0-2.4s0-1 0-1.4c1.6 1.7 3.2 3.5 4.8 5.2m14.8-7c0 1.3.1 2.5.1 3.8v3.2 2.4c0 .8-.1 1.6-.1 2.3h.9s.6 0 .9 0c0-.8-.1-1.5-.1-2.3s0-1.6 0-2.4v-3.2c0-1.3 0-2.6.1-3.8h1 1.1s.7 0 1 .1c.3 0 .6.1.9.1-.1-.2-.1-.4-.1-.6 0-.1 0-.3.1-.6-.8 0-1.6 0-2.4.1-.8 0-1.6 0-2.4 0s-1.6 0-2.4 0-1.6 0-2.4-.1c.1.2.1.4.1.6s0 .4-.1.6c.3 0 .6-.1.9-.1s.7 0 1-.1h1.1zm16.9 1.5v2.4.6c-.7 0-1.3 0-1.9 0s-1.3 0-1.9 0c-.7 0-1.3 0-1.9 0s-1.3 0-1.9 0v-.6c0-.8 0-1.6 0-2.4s.1-1.6.1-2.4c-.2 0-.3 0-.5.1-.1 0-.3 0-.4 0s-.3 0-.4 0-.3 0-.5-.1c0 .8.1 1.6.1 2.4v2.4 3.2 2.4c0 .8-.1 1.6-.1 2.3h.9s.6 0 .9 0c0-.8-.1-1.5-.1-2.3s0-1.6 0-2.4v-1.7h1.9s1.3 0 1.9 0h1.9s1.3 0 1.9 0v1.7 2.4c0 .8-.1 1.6-.1 2.3h.9s.6 0 .9 0c0-.8-.1-1.5-.1-2.3s0-1.6 0-2.4v-3.2c0-.8 0-1.6 0-2.4s.1-1.6.1-2.4c-.2 0-.3 0-.5.1-.1 0-.3 0-.4 0s-.3 0-.4 0-.3 0-.5-.1c.1.8.1 1.6.1 2.4m15.4 10.3c-.2-.3-.4-.7-.6-1.3-.3-.6-.5-1.2-.9-1.9-.3-.7-.7-1.5-1-2.3-.4-.8-.7-1.7-1.1-2.5-.4-.9-.7-1.7-1.1-2.5-.3-.8-.7-1.6-1-2.3h-.2c-1 2.2-1.9 4.4-2.9 6.5s-1.9 4.3-2.9 6.4h.7.7c.2-.6.4-1.3.7-2.2s.7-1.8 1.1-2.7h1.1 1.1s.8 0 1.2 0 .8 0 1.2 0c.2.4.3.8.5 1.3s.4.9.5 1.3c.2.4.3.9.5 1.3.1.4.3.7.4 1h.5 1c.2-.2.4-.1.5-.1m-6.1-10.5 2.1 4.7c-.3 0-.7 0-1 0s-.7 0-1 0-.7 0-1 0-.7 0-1 0zm12 2.6c-.9-1.7-1.7-3.4-2.6-5.1h-.3c-.1 1-.2 2-.4 3.1-.1 1.1-.3 2.2-.4 3.3-.2 1.1-.3 2.2-.5 3.3s-.3 2.2-.5 3.2h.6s.4 0 .6 0c0-.5 0-1.1.1-1.9s.1-1.6.2-2.5.2-1.8.3-2.6c.1-.9.2-1.7.3-2.5.8 1.6 1.6 3.2 2.4 4.8s1.6 3.1 2.3 4.7h.2c.7-1.7 1.5-3.3 2.3-4.8s1.7-3.1 2.5-4.6c.2 1.6.4 3.2.5 4.7s.3 3.1.4 4.8h.4.9.4c-.1-1-.3-2.1-.4-3.1s-.2-2.1-.4-3.2c-.1-1.1-.2-2.2-.4-3.3-.1-1.1-.2-2.2-.4-3.4h.1c-.3.6-.6 1.2-1 1.8-.4.7-.7 1.3-1.1 2s-.7 1.3-1.1 2-.7 1.3-1 1.8c-.3.6-.6 1.1-.8 1.5s-.4.8-.5 1c-.9-1.6-1.8-3.3-2.7-5m12.7-2.5v2.4 3.2 2.4c0 .8-.1 1.6-.1 2.4h1.7 3.4 1.7c0-.1-.1-.3-.1-.5 0-.1 0-.2 0-.3s0-.2 0-.3c-.3.1-.6.1-1 .1s-.8.1-1.3.1-.9 0-1.4 0h-1.3c0-.2 0-.6 0-1 0-.5 0-1 0-1.7v-1.8c0-.2 0-.4 0-.5s0-.2 0-.4h.9s.8 0 1.2 0 .9 0 1.3 0 .8.1 1.1.1c0-.2-.1-.4-.1-.6s0-.4.1-.6c-.3 0-.6 0-.9.1-.3 0-.6 0-1 .1-.4 0-.8 0-1.2 0s-.9 0-1.5 0c0-.2 0-.6 0-1 0-.5 0-.9 0-1.4s0-.9 0-1.2c0-.4 0-.7 0-1.1h1.6c.4 0 .8 0 1.2.1.4 0 .7 0 1 .1.3 0 .7 0 1.1.1 0-.2-.1-.4-.1-.6s0-.4.1-.6c-.6 0-1.1 0-1.6.1-.5 0-1.1 0-1.6 0-.6 0-1.1 0-1.7 0-.5 0-1.1 0-1.7-.1.1.9.1 1.7.2 2.4m9.2 8.7c-.2-.2-.3-.5-.4-.7h-.2c0 .4-.1.6-.1.9 0 .2-.1.5-.2.8.3.3.7.5 1.2.7s1.1.3 1.9.3c.7 0 1.4-.1 1.9-.3.6-.2 1-.5 1.4-.9s.7-.8.9-1.3.3-1 .3-1.6c0-.7-.1-1.2-.4-1.6s-.7-.7-1.1-1-.9-.5-1.4-.7-1-.4-1.4-.6-.8-.5-1.1-.8-.4-.8-.4-1.4c0-.3.1-.6.2-.9s.3-.5.5-.7.5-.4.8-.5.6-.2 1-.2c.3 0 .6.1.9.2.2.1.5.3.6.4.2.2.3.4.4.6s.2.4.2.6h.2c.1-.4.1-.7.2-.9s.2-.5.3-.7c-.4-.3-.8-.5-1.2-.7-.4-.1-.9-.2-1.5-.2s-1.2.1-1.7.3-.9.4-1.3.7-.6.7-.8 1.1-.3.9-.3 1.4c0 .7.1 1.3.4 1.7s.7.8 1.1 1.1.9.5 1.4.7 1 .4 1.4.6.8.5 1.1.8.4.8.4 1.3c0 .4-.1.7-.2 1s-.3.6-.5.9c-.2.2-.5.4-.8.6-.3.1-.7.2-1.1.2s-.8-.1-1.1-.2-.6-.3-.8-.5c-.3-.1-.5-.3-.7-.5m-64.4-118.1c-.1 0-.2 0-.2.1-.5.2-.7.7-.6 1.1s.5.6.9.6h.3c.1 0 .1 0 .2-.1.4-.1 1-.3 1.8-.5l-1.3-1.5c-.4.1-.8.2-1.1.3m2.8-.8 1.4 1.6c.7-.1 1.5-.2 2.3-.3l-1.4-1.7c-.9.1-1.7.3-2.3.4m4.5-.6c-.2 0-.3 0-.5 0l1.6 1.8c1 0 1.9.1 2.7.3l-1.8-2c-.5 0-1.2-.1-2-.1m7.4 3c.5.2 1-.1 1.2-.6s-.1-1-.6-1.2c-.1 0-1.4-.5-3.4-.8l2 2.3c.5.2.8.3.8.3m32.1-1.8c0 .8.6 1.6.6 2.4 0 .9-.2 1.8-.7 2.5-.3.4-.5.8-.9 1.2-.1.1-.1.3-.2.5-.4 1.4-1.1 2.5-2.2 3.4-.1 0-.1.1-.2.2-.1.8-.8 1-1.4 1.1-.7.1-1.3.1-2 .2-.3 0-.4 0-.6.3s-.5.5-.9.4c-.5-.1-1-.1-1.4 0-.3.1-.5.2-.6.6 0 .3.2.5.5.5.4-.1.7-.3 1-.4s.6-.1 1-.1c.6.1 1.1.1 1.8-.2-.5.7-.7 1.4-1.3 1.9s-1.1 1-2 .9c-.1.2 0 .5 0 .7s-.3 1-.3 1l-.1.2c-.1.5-.1.9.2 1.3 0 0 .1.1 0 .2 0 .1-.1.1-.2 0-.2 0-.4-.1-.5-.1-.1.1-.2.4-.3.6-.2.7-.6 1.4-.7 2.1 0 .3 0 .6.2.8.1.1.1.2 0 .3-.7.5-.9 1.2-.9 2-.1 2 .5 3.9 1.6 5.5 1 1.4 1.8 2.9 2.6 4.4.3.6.7 1.1 1 1.7 0 .1.1.1.1.2.1.1.7.7 1.1.8s.6-.1.7-.4c0-.1-.1-.2.1-.2.1 0 .2 0 .3.1.2.2.3.5.3.8 0 .1.1.2.2.3.6.2.7.5.7 1.1v.7c0 .4 0 .7.4 1-.3.2-.6.2-.9.1-.3-.2-.5-.1-.8-.1-.3.1-.7.1-.9-.2v-.1c.2-.1.5-.1.5-.4s-.2-.4-.4-.5c-.3-.2-.6-.3-.9-.4-.1.2 0 .4 0 .5.2 1.1-.1 2.1-.3 3.1-.3 1.1-.3 2.2.3 3.2.3.6.7 1.2 1.3 1.6.4.2.4.4.2.8-.7 1.6-1 3.2-.9 5 0 .2-.1.3-.2.3 0 .1-.1.2-.1.2l.1.1c.2 0 .3-.1.4-.3.1.2 0 .4-.1.5.1 0 .1.1.2.1.2 0 .3-.1.4-.3.1.2 0 .4-.1.5l.1.1c.2 0 .3-.1.4-.3.1.2 0 .4-.2.5v.1c.2 0 .3-.1.4-.3.1.3-.1.4-.2.6.1.3.1.7.1 1.1 0 .2-.1.4-.3.6 0 .4-.1.9-.4 1.3-.4.6-1 .9-1.7.9.1.2.1.5 0 .8-.1.5-.6.9-1.1.9-.2 0-.5-.1-.6-.4-.2-.2-.5-.3-.9-.3-.2 0-.5 0-.7.1h-.1c-.7.1-1.4.3-2.2.6-1.4.6-2.9.9-4.4.9-.7 0-1.5-.1-2.3-.2-1-.2-1.9-.5-2.7-.8h-.1c-.9-.3-1.9-.5-2.8-.5-1.2 0-2.4.3-3.6.8-1.1.5-2.4.7-3.9.7-.3 0-.7 0-1.1 0-1.4-.1-2.8-.5-4.1-.9-.2-.1-.4-.1-.6-.2-.9-.3-1.7-.4-2.6-.4-1 0-2 .2-3 .5-1.4.5-3.2 1-5.2.9s-3.8-.6-5.2-1c-.9-.3-1.8-.4-2.7-.4-1.1 0-2.3.2-3.4.7-1.4.6-2.8.9-4.2.9-.7 0-1.4-.1-2.1-.2-.8-.2-1.5-.5-2.2-.7l-.2-.1c-.8-.3-1.8-.7-2.7-.6-.4 0-.7.2-.9.5s-.5.3-.6.3c-.5 0-1-.3-1.2-.8-.2-.4-.1-.9.2-1.2-.3-.1-.5-.2-.7-.4-.6-.4-1-1.1-.9-1.8-.3-.2-.5-.5-.6-.9 0-.1 0-.3 0-.4l.1-.1c-.2-.1-.3-.3-.2-.5.1.1.2.2.4.3-.2-.1-.3-.3-.2-.5.1.1.2.2.4.3l.1-.1c-.1-.1-.2-.3-.1-.5.1.1.2.2.4.3l.1-.1c-.1-.1-.2-.2-.1-.4.1.1.2.2.4.3-.5-.4-.6-1.7-.7-2.3-.2-1-.4-1.9-.8-2.8-.1-.2-.1-.3-.2-.5-.2-.6 0-.9.5-1.2 1.2-.9 1.8-2 1.6-3.5-.1-.6-.3-1.1-.3-1.7-.1-.7-.2-1.4-.1-2.1 0-.1.1-.2 0-.2-.1-.1-.2 0-.2.1-.3.2-.6.3-.9.6-.3.5-.3.6.2.9-.4.2-.8.2-1.1-.1-.1-.1-.2-.1-.3 0-.2.1-.5.2-.9.4.2-.4.1-.7-.1-1.1-.1-.2 0-.5.1-.7.2-.3.4-.6.7-.8.2-.1.3-.3.2-.5 0-.3.1-.5.3-.7.1-.2.2-.5.5-.1.1.2.3.2.5.1.9-.4 1.6-1.1 2-2 .2-.7.4-1.4.9-1.9 1.8-2.3 2.5-4 2.9-4.6.9-1.2 1.3-4.2 1.1-5.5 0-.1-.3.1-.4.1.2-.2.4-.8.4-1 0-.1.1-.6-.1-.7-.1-.1-.1-.2-.2-.2-.4-.4-.5-.9-.7-1.4-.1-.3-.1-.6-.5-.3-.1.1-.2.1-.2-.1.1-.6 0-1.1-.2-1.7s-.2-1.2-.1-1.8c0-.2 0-.3-.2-.3-1.2.1-2.7-1.3-2.9-1.5-.2-.1-.3-.1-.2-.3.1-.1-.6-.5-.9-.6-.2-.1-.1-.3 0-.3 1 0 1.5-.2 2.2-.2 1.1-.1 2.1.8 2.4.5.2-.2.1-.5.1-.7-.1-.3-.3-.5-.6-.6-.6-.1-1.1-.1-1.7-.1-1.2 0-2.3 0-3.5-.4-.1 0-.1 0-.2 0-.7.1-1.2-.5-1.4-.9-.5-.9-1-1.6-1.4-2.5-.2-.3-.3-.6-.5-1-.3-.6-.9-.9-1.3-1.3-1.4-1.5-1-3.6-1.2-4.8.3.4.4.8.5 1.2.2.8.4 1.5.8 2.2.1.1.1.2.2.2s.2-.1.2-.2c0-1 .2-1.8.2-2.6.1-.5.1-1 .1-1.5.3.3.5 1.9.6 2.7 0 .8.1 1.5.3 2.3.1.3.2.3.4.1.7-.7.9-1.6.9-2.5 0-.3 0-.7 0-1 0-.1 0-.3.1-.3.2 0 .2.1.3.3.4.7.5 1.5.3 2.3-.1.6-.4 1.2-.7 1.8-.4.7-.5 1.3-.1 2 0 .1.1.2.2.2s.1-.1.2-.2c.3-.9 1-1.5 1.7-2.1.2-.1.3-.4.4-.3.2 0 .1.2.1.3-.2.7-.4 1-.6 1.5-.3.6-.6 1.1-.7 1.7 0 .2 0 .4.2.6.7.8 1.5 1 2.5 1 .2 0 .3 0 .3-.2-.3-.8.4-2.2.4-2.2.3-.5.2-1-.1-1.6-.5-.7-1-1.4-1.7-1.8-1.2-.6-1.1-2.2-1-2.3.6.6 1.1 1.6 2.1 1.8 0-.4-.1-.9 0-1.3.1-.9.5-1.8.9-2.7.1-.1.3-.3.2 0-.4 2.6-.2 3.5-.2 3.6s0 .3.1.3c.1.1.2-.1.3-.2.8-.8 1.3-1.6 1.7-2.7.1 2.1-1.2 3.5-1.4 3.7-.3.4-.3.7 0 1.2.5.7 1.1 1.1 1.9 1.4.2.1.3-.1.3-.2.1-.7-.6-2.7-.1-3.7.1.4.7 1.8.9 2.4.2.7.2 1.4 0 2.1 0 .2-.1.2.1.4.2.3.5.6.7.8 1.1-1.1 1.2-2.4.8-3.8.2.4.5.8.7 1.2.5.8.4 1.6-.1 2.3-.2.2-.3.5-.5.7-.1.2-.3.4-.1.7.1.2.2.4.5.3.9-.2 1.8-.6 2-1.7 0-.1 0-.2.1-.2s.1.1.2.2c.1.2 0 .8-.3 1.3-.2.4-.5.7-.9.9-.1.1-.3.2 0 .2.2.1 2.3-.2 2.7-1 .1.6-.7 1.8-3 1.7.1.1.2.1.3.1.4 0 .7.1.9.4s2.1 1.1 2.9 1.3c.1 0 .2 0 .2.1.5.1.6.2.5.7-.1.4.1.8-.2 1.2-.2.2-.8.6-1 .7-.6.1-2-.2-2.1.2 0 .2 0 .3.1.5.3.4.8.4 1.2.4.1 0 .2-.1.3 0 0 .1 0 .1-.1.2-.2.2-.1.3.1.4.5.2.9.5 1.2.9.1.1.2.2.4.2.5.1 1 .4 1.3.8 0 0 0 .1.1 0 0 0 .4-4 1.8-4.6.1-.1 1.2-.1 1.7-.2.2 0 2.5-.4 2.7-.4h.4c.3 0 .4.3.6.4.2 0 .4-.1.7 0 .5.2.9.6 1.3.9.5.3.6.4.7.6h2.3c.1-.1.1-.2.2-.3s.2-.2.3-.3c0-1-.2-3.3-.2-3.7-.1-1.1-.7-2.6-1.1-3.7.1.4.2.6.2.7 0 .4-.1.7-.2 1-.1.2-.1.4-.1.7v.3.1h-.1c-.2 0-1.6-1-2-2 0 0 0 0-.1.1 0 0-.1.1-.2.1-.3.2-.8.4-1 .4h-.2v-.1c0-.2.1-.3.2-.5.1-.3.2-.6.2-.9 0-.9.2-1.6.6-2.2 0-.1.1-.1.1-.2-.2 0-.4.1-.6.2-.3.1-.5.3-.8.5s-.7.5-1 .7l-.3.2s-1.1.7-2 .8c-.2 0-.4.1-.6.1s-.3 0-.4 0c-.2 0-.3-.1-.5-.2-.6-.3-1.2-.7-1.8-1.2-.1-.1-.2-.2-.3-.3-.1-.1-.1-.1-.2-.2-.3-.4-.4-.8-.2-1.2.1-.4.3-.7.7-.9h.1c.2-.1.4-.3.7-.4h.1c.1 0 .1 0 .1.1.5.8.7 1.6.5 2.4.5-.1 1.1-.4 1.7-.7h.1c.2-.1.4-.2.5-.3.3-.2.7-.4 1-.6.2-.1.4-.2.6-.3s.3-.1.5-.2c.1 0 .1-.1.2-.1-.1 0-.1 0-.2 0-.4.1-.9.2-1.1.1-.6-.1-1.5-.5-1.9-.7 0 0-.1 0-.1-.1-.1 0-.1-.1-.2-.1 0 0 0 0-.1 0s-.2-.1-.2-.2.1-.2.2-.2l.1-.1c.3-.2 1-.6 1.6-.7-.2-.2-.4-.5-.6-.9-.2-.3-.6-.8-.8-1l-.2-.1c-.4-.1-.8-.2-1.2-.2-.1 0-.1 0-.2 0-.3 0-.5 0-.7.1 0 0-.1 0-.2.1-.5.2-1.8.6-2.4.7-.2.1-.5.1-.7.1h-.1c-.1 0-.1 0-.2 0-.3 0-.6-.1-.9-.1-.1 0-.1-.1-.2-.1 0-.1 0-.1.1-.2.2-.3.4-.6.6-.9.1-.1.2-.3.2-.4.2-.3.5-.6.8-.8.4-.3.8-.4 1.2-.4h.4.7.3s.2 0 .4 0c-.1 0-.1 0-.2-.1-.7-.2-2-.8-2.5-2.2 0-.1 0-.1 0-.2h.1c.3 0 1.7.2 2.2.4.2.1 1.3.9 1.7 1.2 0 0 .1.1.3.2.2.2.7.5.7.5s.1 0 .1-.1-.5-.7-.8-1.1c-.1-.2-.3-.3-.3-.4-.2-.3-.3-.5-.5-.8 0-.1-.1-.3-.3-.5-.6-1.2-1.9-3.9-2-4.2 0 0 0-.1-.1-.2-.1-.3-.3-.7-.4-.8-.8.2-1.3.5-1.4.6-.8.6-1.6 1.6-1.6 3 .1-.1.2-.1.3-.2.1 0 .1 0 .2-.1.2-.1.4-.2.6-.2.1 0 .1 0 .2-.1h.1.1v.2c0 .2 0 .5.1.7v.2c.1.3.1.6 0 .9 0 .2-.1.4-.2.5s-.2.2-.4.3c-.4 0-.7 0-1 0-.1 0-.1 0-.1 0-.4-.1-1.9-.4-2.5-1.9-.1-.3-.1-.9-.1-.9 0-.7.5-1.4.5-1.4s-.9.3-1.4-.3c-.1-.1-.3-.3.1-.4.1 0 .7-.3.9-.4l.1-.1c.4-.2.7-.4 1.1-.7.8-.6 2.3-.8 3-.8h.2c.7.1 1.6.1 2.7.4.4.1 1.2.4 1.5.6s.5.4.7.7c.3.4.8 1.9 1.1 2.9.1.2.1.4.2.6s.1.4.2.6c0 .2.1.4.2.6l.1.2c.1.4.3.8.4 1.2v.1c.1.3.2.5.4.7l.1.1c.1 0 .1-.1.1-.2v-.1c0-.4.1-1.7-.1-2-.2-.5-.1-1.1-.1-1.3.1-.4.3-.8.5-1.3 0 0 0 0 0-.1s0-.1.1-.1c.1 0 1.1 1.4 1.1 2.4v.3s0 0 .1-.2c.1-.6.1-.7.2-.8.3-.5.7-.8 1.2-1.1.1-.1.3-.2.4-.3.1 0 .1-.1.2-.1l.1-.1h.1c.1.1.6 1.2-.1 2.7-.2.4-.4.8-.8 1.1h.4s.3 0 .4 0c.5 0 .8 0 .7 0-.2 0-1.4 2.2-1.1 3.4v.1c.4 1.3 1.2 1.7 1.8 1.9.2.1.7.2 1.2.2.2 0 .5 0 .6-.1s.2-.1.3-.1.3.1.4.1c0 0 .1 0 .1.1h.5c.1-.1.2-.1.2-.1.9-.4 4-1.4 7.8-1.4 2.1 0 4.3.4 6.2 1.1h.1c.1 0 .1.1.2.1.2.2.3.3.4.5.2 0 .5-.1.7-.2.1 0 .7-.5 1-.8.5-.6.8-1.2.8-1.9.1-.6 0-1.1-.2-1.6-.1-.3-.5-1.1-1.2-1.3h-.1l.1-.1c.1-.1.3-.1.4-.1h.1.1s0 0 0-.1c-.1-.1-.2-.2-.3-.3-.2-.2-.4-.4-.6-.7-.4-.7-.5-1.5-.3-2.2 0-.1.1-.3.1-.4 0-.2.1-.4.1-.6 0-.1.1-.2.1-.2s.1 0 .1.1c.3.3.7.6 1.2.8.1 0 .2.1.2.1.3.2 1.5 1.1 1.7 2.1v-.1c-.1-.3-.1-.5 0-.9.1-.3.2-.5.4-.7s.3-.3.4-.5c.1-.1.1-.2.2-.2l.1-.1c.1 0 .1.1.1.2v.2c.1.4.2.9.3 1.3v1.7.1c-.1.4-.1.8-.3 1.2-.1.1-.1.3-.1.5.1-.1.2-.1.2-.2.3-.4.6-.9.9-1.3.2-.2.4-.7.8-1.4 1-1.8 2.4-4.5 3.8-5.2.8-.4 1.9-.7 3-.7.5 0 1 .1 1.3.1.4 0 .8.2 1.1.5l.6.6c.1.1.2.2.2.3.1.1.1.2.2.2.2.2.4.5.7.7.1 0 .2.1.1.2 0 .1-.1.1-.2.2 0 0 0 0-.1 0s-.1 0-.2 0c-.2 0-.3 0-.5-.1 0 0-.1 0-.2-.1-.1 0-.3-.1-.4-.1l.3.5c.6 1.1.5 1.9-.2 2.5-.3.3-.7.4-1 .6-.5.2-1 .3-1.6.3h-.1c-.5 0-.9-.1-1.2-.4s-.4-.7-.3-1.1c.1-.2.2-.4.4-.5.1-.1.1-.2.2-.2.1-.1.2-.3.4-.4l.1-.1c.1-.1.1-.1.2-.1s.1 0 .2.1.1.2.2.3l.1.1c.2.3.7 1.5 1.7 1.5.1 0 .3 0 .4-.1-.3 0-.9 0-1.5-.8-.1-.1-.2-.2-.1-.4.4-1.1 0-1.8-.3-2.3v-.1c0-.1-.1-.2-.2-.2v-.1c-.2-.2-.4-.4-.6-.5-.6.4-1.1 1-1.3 1.2-.1.1-.1.1-.2.2-.4.4-2.9 4-2.9 4-.2.2-.3.5-.5.7-.2.3-.4.6-.6.8-.3.4-1.6 1.9-1.8 2.2 0 0 0 0-.1.1l.1-.1.5-.5c.3-.3.6-.7 1-1 .1-.1.1-.1.2-.2.6-.1 1-.4 1.4-.7.1-.1.5-.4.7-.5.5-.3 1.2-.6 1.8-.6.3 0 .5-.1.8-.1h.3.1s.1 0 .1.1c.1.6 0 1.1-.3 1.5s-.8.8-1.5.9h-.1.1s.1 0 .2 0c1.3 0 2.3 1.1 2.5 1.4.1.1.2.3.3.4s.1.3.2.4.1.2.1.2c0 .1-.1.1-.2.1-.3 0-.6.1-1 .1-.2 0-.5.1-.7.1 0 0-.1 0-.2 0-.6 0-1.7-.5-2.4-.7-.2-.1-.4-.2-.4-.2-.2 0-.4 0-.5 0 .1.4.1.9.1 1.2s.2 1.2-.2 1.7c-.3.5-1.7.8-2.2.9.4.1 1.2.4 1.5.5h.1s.1 0 .2.1.2.1.2.2-.1.2-.2.2c-.2.1-.5.2-.8.2 0 0-.1 0-.2 0-.6 0-2.1-.1-2.8-.2.7.3 2.8 1.2 3.7 1.6.5.2.8.3 1.1.4 0 0 .5.3.9.1.3-.1.1-.5.1-.8 0-.1 0-.1 0-.2s0-.2 0-.3c0-.2 0-.4 0-.6 0-.5.1-.8.4-1.2.1-.1.1-.2.3-.2h.1.2c.2 0 .4.1.6.2.5.2.7.5.8.9 0 0 .3 1.3-.7 2.2-.4.4-.9.8-1.6 1.2s-1.4.6-2.1.6c-.8 0-1.4-.3-1.6-.4s-1.3-.8-2-1.3c-.3-.2-.5-.3-.5-.3-.6-.4-1.2-.7-1.9-1-.1 0-.2-.1-.3-.1s-.1 0-.2 0-.1 0-.1.1v.1c0 .1.1.1.1.2 0 0 0 .1.1.1.6.5 1.1.9 1.5 1.3.6.8 1 1.8 1 1.8-1.2-.1-1.9-.9-1.9-.9s0 0-.1 0c0 0 0 .1.1.3.2.2.2.5.1.7 0 .8-.6 1.4-.8 1.7-.3.3-1 .7-1.1.7h-.1-.1v-.1c.1-.4.1-.8 0-1.2 0-.4 0-.7.1-1.1 0-.1.1-.3.1-.4.1-.4.1-.9 0-1.4-.1-.2-.1-.4-.2-.5-.1.7-.1 1.3-.2 1.8-.2 1.7-.4 4.5-.3 7.5v.2h1.4c.4-.5.9-1.1.9-1.1.2-.2.4-.3.7-.2.5-.1.8-.4 1.3-.4h.6c1.2.2 2.4.4 3.6.6h.5s.6.1.8.4c.1.1.3.6.4 1 .2 1.1.4 2.1.6 3.2.1.4.1.4.5.2.6-.3 1-.8 1.5-1.2.3-.3.7-.5 1.2-.6.2 0 .3-.2.2-.4-.1-.1 0-.2 0-.3 0-.3.1-.4.4-.3.5.2.9 0 1.3-.2.3-.2.3-.7-.1-.8-.4-.2-.7-.1-1.1 0-.3.1-.6.2-.8.2-.5.1-.8-.2-1-.5-.4-.6-.2-1.1-.1-1.7 0-.2.3-.3.5-.3.8-.1 1.5-.4 2.2-.7.5-.2.9-.5 1.2-.9.2-.1.5-.1.7-.3-.3-.2-.6-.2-.9-.2-.5.1-1.1.1-1.6 0-.4-.1-.8-.3-1-.7-.3-.4-.6-.9-.9-1.3-.1-.1-.2-.1-.1-.2s.2 0 .3 0c.3.2.6.4.8.7.7.9 1.6.9 2.6.8.1 0 .1 0 .1-.1s-.1-.2-.1-.2c-.3-.2-.5-.4-.7-.7s-.3-.6-.3-1 .2-.8.1-1.2c.2.1.2.3.3.5.2 1 1 1.5 1.9 1.9.1 0 .2 0 .2-.1.1-.2.3-.4.1-.5-.9-.7-1-1.7-1.1-2.7-.1-.5-.2-.9-.4-1.3.3.2.6.5.7.9.2.4.4.8.5 1.2.1.2.2.3.3.4.3.5.7.6 1.1.4.5-.2.8-.7.7-1.2-.1-.6-.3-1.3-.3-1.9s.2-1.1.4-1.6c0-.1.1-.2.2-.2 0 .5-.1 1 .1 1.5.2.8.4 1.5.5 2.3 0 .3.4.1.4.1.4-.1.9-.5.9-.5s0-.5-.1-.9c0-.1 0-.2.1-.2s.1.1.1.2.1.3.3.4c.2 0 .3-.1.4-.3.5-.7.5-1.1 0-1.6-.7-.6-1.1-1.4-1.1-2.4 0-.5-.2-.9-.6-1.2.5 0 .7.3.9.6s.4.7.5 1.1c.2.5.6.8.9 1.1.2.1.2.1.2-.1 0-.6-.1-1.1-.3-1.6-.3-.9-.4-1.7-.2-2.7.6 1.5 1.4 2.8 1.3 4.4.5-.6.8-1.1 1-1.9.2-.7.2-1.5.6-2.1 0 0 .1 0 0 .1-.1.6.1.9.6 1.2.6.4 1 1 1.4 1.7.2.3.4.6.6.9.1.1.1.2.3.2s.2-.2.2-.3c.2-.6 0-1.2-.2-1.9s-.6-1.4-1-2.1c-.1-.2-.2-.3-.3-.6.7.6 1.2 1.1 1.7 1.7s.8 1.4.9 2.2c.3-.2.4-.5.4-.8.2-.7.1-1.4.1-2.1.4-.9.4-1.1.6-1.4m-69.5 11.7c.2-.1.2-.2.1-.4-.3-.5-.6-1.1-1.1-1.5-.7-.5-1.4-.9-2.1-1.3-.1-.1-.2 0-.2.1-.1.5-.3 1-.3 1.6v.3c.1.5.2.7.6.6.6 0 2 .1 2.7.6.1.1.1.1.3 0m49.9 19.5c-1 .5-2 .8-3 1.2s-1.7 1.1-2.2 2.1c-.2.6-.4 1.1-.4 1.7 0 .4-.1.7-.3 1-.1.2-.1.4-.1.6 0 .4.1.9 0 1.3-.1.6-.4 1-.8 1.5-.1.2-.3.3-.4-.1v-.5l-.4.7s-.3-.1-.3-.3 0-1.2 0-1.6c-1.2 3.2-3.1 6.6-5.9 9.3.3.1.4.2.6.3.1-.5.5-1 .6-1.5.2.5.8 1.1.9 1.7.5-.3.8-.6 1.1-.9.4.9.2 1.4-.6 2.2 0 0 .1 0 .3.1h.8c.1-.4.1-.8.2-1.2.3-1.1.3-2.1-.1-3.2-.1-.2-.1-.5-.1-.9.3.3.5.5.7.8.2.2.4.2.5 0 .2-.3.5-.5.7-.8.5-.6.5-.6.9.1.1.3.2.3.5.1s.5-.3.9-.2c.6.1.9.5 1 1 .1.2.1.5.1.7s.1.2.3.2c0 0 .3-.1.6-.1s.6.1 1 .2h.2c.1-.2.2-.3.3-.5.3-.5.6-1 1.2-1.2.5-.2.9-.4 1.4-.6.1-.1.2-.1.4-.1.5 0 2.6-.1 3.2-.4.4-.1.6-.5.5-.8-.2-.5-.3-1.1-.6-1.6-.4-.7-.7-1.4-1-2.2-.5-1.2-.4-2.4.1-3.6 0-.1.1-.2.1-.3-.1-.2 0-.2.1-.3.6-.4 1.1-.7 1.8-.8.1 0 .2 0 .2-.1s-.1-.2-.2-.2c-.3-.2-.7-.4-1-.7-.6-.4-1-1-1.7-1.3-.1-.1-.2-.1 0-.3.2-.1 0-.1 0-.2-.2-.1-.4-.3-.5-.4-.2-.1-.3-.3-.5-.3-.5.2-.8.2-1.1.4m-14.3 18.9c-.1-.3-.2-.7-.3-1.3-.5.5-1.1.9-1.6 1.3h.2.5c.1-.1.2-.3.2-.4.2.1.2.3.1.5h.2c.1-.1.2-.3.2-.4.2.1.2.3.1.5.2-.2.3-.2.4-.2m-13.2-1.5c.1.5 0 1.1 0 1.1s.4-.6.5-.7c-.2-.2-.4-.4-.6-.5 0 0 .1 0 .1.1m-1.3-6.2c.5.2 1.5.5 1.5.5-.5.2-1.2-.2-1.4-.2.1.3-1 .2-1 .1s0 0-.1 0c0 0-.1 0-.1.1-.1.1.1.3.3.5.2.1.5.2.9.3 0 0 1.6.1 2.1.1s2.1.2 3.9.4c.5 0 1.2.5 1.6.9.2.1.4 0 .5-.2-.5-.2-1.2-.9-1.8-1 0 0 0 0-.1 0h.8c.3.1.8.5 1.1.7 0-.1 0-.2.1-.3-.2-.2-.6-.4-.7-.5.2 0 .5-.1.6-.1-.1 0-.2.1-.1.2s.2.1.3.2c0-.2.1-.3.6-.3 0 0 1.2 0 2-.2.2 0 .8 0 1 .1.1 0 .5.2 1 .4.2 0 .3 0 .5-.1l.1-.1c-.7-.1-1.7-.4-1.4-.6 0 0 .2 0 .5-.1-.1 0-.3.1 0 .2.1 0 .4.1.7.2-.4-.2-.4-.4-.2-.4.4-.1.8-.2 1.1-.2.5 0 .8.2 1.4.7.3.3.7.4 1.1.5.1 0 .2-.1.1-.2-.2-.1-.2-.2-.2-.5-.5 0-.8-.4-.9-.6-.1-.1 0-.4.3-.3.5.2.6.1 1 .1.1 0 .2-.3.1-.3-.5.1-1.3.2-1.4-.4.5-.1.6-.6 1.1-.6 0-.2 0-.3.2-.5.1-.1 0-.2-.1-.2-.3.1-.7.2-1 .4-.5.5-.8.7-1.3.7-.3 0-.6 0-1-.2-.1 0-.2-.2.2-.4-.2 0-.6.1-.6.1-.3.1-.2.2-.1.3-.3-.1-.6-.2-.8-.3h.4c.3-.1.7-.3 1.1-.3.1-.1 0-.3-.1-.3-.6.1-.9.2-1.1.3-.3.1-.7.1-.7.1-.7-.2-1.6-.4-2.7-.6 0 0-.3 0 .1-.3.3-.2.4-.3.7-.4-.2 0-.4-.1-.6-.2-.3.1-1.3.6-.9.7-.2 0-.1 0-.4 0-.1 0-.1-.1-.1-.2.1-.1.6-.4 1.1-.6-.2-.1-.3-.1-.5-.2-.5.2-1.7.7-1.2.9-.4 0-.3 0-.5 0-.3-.2.8-.8 1.4-1-.3-.1-.7-.1-1 .1-.8.4-1.6 1-2.4 1.1-2.4.4-5.9 1.2-5.8 1.8 0 .1 0 .2.2.2-.4-.1.2-.2.6 0m-1.8-8.4c.6.3 1.8.6 1.8.6-.6.2-1.4-.2-1.8-.3.1.4-1.2.2-1.3.2s0 0-.1 0c0 0-.1 0-.2.1s.2.4.3.6c.2.2.6.3 1.1.3 0 0 2 .1 2.6.1s2.7.3 4.9.5c.6.1 1.4.7 2 1.1.2.2.6.1.6-.2-.6-.3-1.5-1.1-2.2-1.2h-.1c.3 0 .7.1 1 0 .3.1 1 .6 1.4.9 0-.1 0-.3.1-.3-.3-.2-.8-.5-.9-.7.3 0 .6-.1.7-.1-.1.1-.2.1-.1.3s.2.1.4.2c0-.2.1-.3.7-.3 0 0 1.5 0 2.5-.2.2 0 .9-.1 1.3.1.1.1.6.3 1.2.5.2.1.4 0 .6-.1.1 0 .1-.1.2-.1-.8-.1-2.2-.5-1.8-.7 0 0 .2 0 .6-.1-.1 0-.4.1 0 .3.1 0 .5.2.8.2-.4-.2-.5-.5-.3-.5.6-.2 1-.2 1.4-.2.6 0 1 .3 1.7.8.4.3.9.5 1.3.6.1 0 .2-.1.1-.2-.2-.2-.3-.3-.3-.6-.7 0-1-.5-1.2-.8-.1-.1 0-.5.4-.4.7.3.8.2 1.3.1.1 0 .2-.3.1-.4-.6.2-1.6.2-1.7-.5.6-.2.8-.8 1.4-.8 0-.2 0-.4.3-.6.1-.1 0-.3-.1-.2-.4.1-.9.3-1.2.6-.7.6-1 .8-1.7.8-.4 0-.7 0-1.3-.2-.2 0-.2-.3.2-.5-.3 0-.7.1-.8.2-.4.1-.2.3-.1.3-.3-.1-.8-.3-1-.4h.5c.4-.1.9-.3 1.4-.3.1-.1 0-.4-.2-.3-.8.1-1.1.2-1.4.3s-.8.1-.9.1c-.9-.3-2-.5-3.4-.7 0 0-.4-.1.1-.3.4-.2.5-.3.8-.5-.3-.1-.4-.1-.8-.2-.3.2-1.6.7-1.1.9-.3 0-.1 0-.5-.1-.1 0-.2-.1-.1-.2.1-.2.8-.5 1.3-.7-.2-.1-.4-.1-.6-.2-.6.2-2.1.9-1.5 1.1-.5 0-.3 0-.6 0-.4-.3 1-1 1.7-1.2-.4-.2-.9-.1-1.2.1-.9.5-2 1.2-3 1.4-3 .4-7.3 1.5-7.2 2.2 0 .1 0 .2.2.2.5-.6 1.2-.6 1.7-.4m20.9-.5c-.2-.2-.3-.5-.3-.7-.4 0-.5.4-.9.5 0 .5.8.3 1.2.2m-.2 1c-.3 0-.6.1-1-.1-.2-.1-.3.1-.2.2.1.2.5.4.9.5 0-.3.1-.4.3-.6m-2.1 7.5c-.1-.2-.2-.4-.2-.6-.3 0-.4.3-.8.4.1.4.7.3 1 .2m-.2.8c-.2 0-.5.1-.8-.1-.1 0-.2.1-.2.1.1.1.4.4.7.4.1-.2.2-.3.3-.4m-14.1 6.8c0 .1-.1.2-.2.4h.7c-.1-.2-.3-.3-.5-.4zm18.7-11.6c0 .1 0 .1 0 0m2.2-20.9c-.3 0-.5 0-.9.1h.1v13.4c0 1-.1 2.2-.4 3.7.2-.5.3-.9.5-1.3.5-1.3 1.4-2 1.4-2 .7-.6 1.6-1 2.3-1.7.3-.2.5-.4.9-.5.2-.1.3-.1.5-.2s.2-.2.1-.4c-.1.1-.3.2-.4.2.1-.5-.1-.9-.2-1.3s-.1-.8 0-1.2c0-.1.1-.3.1-.4 0-.2 0-.4-.3-.4-.2 0-.3 0-.3-.3.1-.4 0-.7-.3-1-.1-.1-.1-.3-.1-.4.1-.5.1-1 0-1.5-.2-.6-.2-1.3-.2-1.9.1-.6.1-1.1 0-1.7-.1-.5-.2-.9-.7-1.1-.7 0-1.4-.1-2.1-.1m-4.1 5.3c-.8.7-1.2 1-1.9 1-.4 0-.8 0-1.5-.2-.2-.1-.2-.3.3-.6-.3 0-.8.1-.9.2-.4.2-.3.3-.1.4-.4-.1-.9-.4-1.1-.4h.6c.5-.1 1-.4 1.6-.4.1-.2 0-.4-.2-.4-.9.1-1.3.3-1.6.4-.4.1-1 .1-1.1.1-1.1-.3-2.4-.6-3.9-.8 0 0-.5-.1.1-.4.4-.2.6-.4.9-.5-.3-.1-.5-.1-.9-.2-.4.2-1.9.8-1.2 1-.3 0-.1 0-.6-.1-.1 0-.2-.1-.1-.3s.9-.5 1.5-.8c-.2-.1-.5-.1-.7-.2-.7.2-2.5 1.1-1.7 1.3-.6 0-.4 0-.7 0-.4-.3 1.1-1.1 2-1.4-.5-.2-1-.1-1.4.1-1.1.6-2.3 1.4-3.5 1.6-3.5.5-8.4 1.7-8.4 2.6 0 .1 0 .3.2.3s1-.1 1.6.2c.7.3 2.1.7 2.1.7-.7.2-1.7-.2-2-.3.1.4-1.4.2-1.5.2 0 0 0 0-.1 0h-.1s-.1 0-.2.1c-.1.2.2.5.4.7s.7.3 1.2.4c0 0 2.3.1 3 .2.7 0 3.1.3 5.7.6.8.1 1.7.8 2.4 1.3.3.2.6.1.7-.3-.8-.4-1.8-1.3-2.6-1.4h-.1c.3 0 .8.1 1.1 0 .4.2 1.2.7 1.6 1 0-.1 0-.3.1-.4-.3-.2-.9-.5-1.1-.8.3 0 .7-.1.9-.1-.1.1-.2.2-.1.3.2.2.2.2.4.3 0-.2.2-.4.8-.4 0 0 1.7-.1 2.8-.2.3 0 1.1-.1 1.5.1.2.1.7.3 1.4.5.2.1.5 0 .7-.2.1-.1.1-.1.2-.2-.9-.1-2.5-.6-2-.8 0 0 .3-.1.7-.1-.1 0-.5.1 0 .3.1 0 .6.2.9.2-.5-.3-.5-.6-.3-.6.6-.2 1.2-.3 1.6-.3.7 0 1.2.3 2 1 .4.4 1.1.6 1.5.7.1 0 .2-.2.1-.2-.3-.2-.3-.4-.3-.7-.8 0-1.2-.6-1.4-.9-.1-.2 0-.5.4-.4.8.3.9.2 1.5.1.1 0 .3-.4.1-.5-.7.2-1.9.2-2-.5.7-.2.9-.9 1.6-.9 0-.2 0-.5.3-.7.1-.1 0-.3-.1-.3-.1-.5-.7-.4-1.1 0m1.6 1.5c-.2-.3-.3-.6-.3-.8-.5 0-.6.5-1.1.6 0 .5.9.3 1.4.2m-.2 1.1c-.3 0-.7.2-1.1-.1-.2-.1-.3.1-.2.2.1.2.6.5 1 .5-.1-.2 0-.4.3-.6m-7-7.8c-.6-.3-1.7-.8-3.5-.9-.1 0-.3 0-.4 0-1.3 0-2.9.4-4 .9zm-2.5-11.1c0-.3 0-.7 0-1-1.1 0-2.8.1-3.2.2-.1.1-.3.3-.4.4-.6.6-.8.8-1.1.8-1.1-.1-2.4 0-3.8.2.4 1.2 1.3 3.9 1.4 5.2.2 1.3.2 3.5.2 4.7 1.4-.9 3.6-1.5 5.4-1.5h.5c3 .2 4.4 1.2 4.8 1.7h.8c-.1-3 .1-5.8.3-7.4.1-1.1.4-3 .1-4.5-.7-.1-2.2-.3-2.7-.8-.1-.1-.4-.3-.5-.4v.1c.1.5.3 1.1.4 1.6.1.3.2.6.4.8.2.4.5.7.7 1 0 0 .1 0 .1.1.2.1.5.5.6.5s.1.1.1.1c0 .1-.1.1-.1.2-.1 0-.2.1-.4.1-.1 0-.1 0-.2 0-.2 0-.5 0-.7-.1-.4-.2-.6-.8-.7-1s.5 1.1.6 1.2.1.2.2.3c.2.4.3.7.5 1.1.1.4.2.8.2 1.2v.2s-.1.1-.2.1c-.2 0-.7-.3-.8-.4-.4-.4-.7-.9-.9-1.3 0-.1-.1-.2-.1-.3s-.1-.2-.1-.3l-.1-.1h-.1s0 0-.1.1-.2.2-.3.4l-.1.1c-.3.4-.8 1.1-1.6 1.1-.1 0-.2 0-.2 0h-.1-.1c-.8-.3-1.6-.7-2.3-1.2-.4-.3-.8-.6-.4-1.4.2-.2.3-.3.4-.4.3-.4.8-.8 1.2-1.1.2-.1.3 0 .4.2.1.4.4 1.5.7 2.5.6-.4 1-1 1.2-1.7v-.1-.1c.1-.2.1-.5.1-.7 0-.3 0-.3 0-.4m-8.7-2.6c-.3.1-1.1 1.1-2.3 2.7 1.6-.3 4.1-.8 6.2-.9.1-.1.4-.4.5-.5.3-.3.5-.5.6-.6.3-.2 2.6-.3 3.5-.3 0-.1-.1-.3-.1-.4-.2-.5-.4-.9-.7-1.2v-.1c-.1 0-.2 0-.4 0-3.5.1-6.5 1-7.3 1.3m-1.1 9.3c.1.5.2 3.7.2 4.2 0 .1 0 .2-.1.2h1.6c0-.8 0-3.7-.2-5.2-.2-1.2-1.1-4-1.4-5.1-.8.2-1.5.4-2 .5.5 1 1.7 3.6 1.9 5.4m-12.1 11.5c-1.2.8-.2 1.4.1 1.1.1 0 0 .3-.2.6-.1.1-.4.3-.4.4s0 .6 0 .8 0 .2.1.4c.2.3-.1.6-.1.7-.1.1 0 .2 0 .2s2 1.9 2.1 1.9c.1.1 1.9 1.6 2 1.8s.5 1 .6 1.1c0 .1.2.5.4.8-.3-1.4-.4-2.7-.4-3.6v-13.1c-.4-.1-.7-.2-.9-.2-.4 0-1.2-.1-1.8.2s-.8.6-1 1.1c-.1.3-.1.4-.1.4l-.1.1c-.3.2-.1 3.5-.1 3.7v1.3c-.1.3-.2.3-.2.3m-7 9.8c-.3.3-.3.4.1.6.4.1.8.3 1.1.5.2.1.3.1.5 0s.3 0 .3.2c0 .3.1.7.1 1 .3 1.6 0 3.1-.4 4.5-.2.8-.6 1.5-.7 2.3-.1.5.1.8.5 1 .2.1.5.2.8.2.6.1 1.2 0 1.8-.1.6 0 1.4.1 1.8.7.3 0 1.1.6 1.2.8.2.3.9 1.1.9 1.3h.1c.1 0 1.5-.1 1.5-.1 0-.1-.2-.2-.2-.3-.3-.3-.5-.8 0-.8.2 0 .4 0 .5-.2 0-.1.1-.1.2-.2.2-.2.5-.4.5-.7.1-.4.2-.3.4-.2.4.3.9.4 1.2.8.2-.6.8-.9 1.1-1.4 0-.1.1-.2.2-.1.1 0 .1.2.1.3-.1.5 0 .9.2 1.4.1.2.1.2.3.1.3-.2.6-.4.8-.8.2.2.3.4.4.5.2.1.2-.2.4-.3.4.9.3 1.8.1 2.8-.1.6-.2 1.2-.3 1.8v.3h.1c0-.2.1-.3.3-.4-.1.1-.1.3 0 .4h.1c0-.1.1-.3.3-.3 0 .1-.1.2 0 .3h.3c-.3-.6-.4-1.3-.5-1.6.6.4 1.2.6 1.7 1.2-.1-.5.2-1.5.3-1.9-3-3.2-4.9-7.1-5.9-10.5v.4c.1.2.1.5.1.7.1.2.2.8.2 1.1 0 .2 0 .3-.1.3-.1.1-.2.1-.2.1-.1 0-.2-.2-.2-.2s0 .2-.1.2c0 0-.3 0-.4 0-.2-.1-.7-.6-.9-1.5 0-.2 0-.5-.1-.7-.3-.7-.4-1.5-.6-2.2-.1-.7-.3-1.2-.9-1.6l-.1-.1c-.2-.3-.5-.4-.9-.6-1-.4-2-.8-2.9-1.5-.3-.2-.6-.4-.9-.5s-.4.1-.6.3 0 .3.1.4v.1c-1 .2-1.6.9-1.5 1 .1.3 0 .3-.2.4-.1 0-.1 0-.2.1-.7-.1-1.3.2-1.8.7m-8 14.8c-.1.4-.1.8 0 1.3.1.9.6 2.2.9 2.5l.1.1c.3-.1.8-.3 1.3-.5 0-.2 0-.4.2-.5 0 .2 0 .3.1.5h.1c0-.2.1-.4.3-.5-.1.1-.1.3 0 .4h.1c0-.2.1-.4.3-.4-.1.1-.1.3 0 .4h.1c0-.2.1-.4.3-.5-.1.1-.1.3 0 .5h.2c0-.2.1-.4.3-.5-.1.2-.1.3 0 .5h.1c0-.2.1-.3.3-.4-.1.1-.1.2 0 .4h.1.1c0-.2.1-.4.3-.5-.1.2-.1.3 0 .5 0-.2 0-.3.2-.3-.1.1 0 .2 0 .3h.1c-.1-.3-.2-.8-.2-1.4.4.2.8.5 1.2.7-.1-.8.4-1.4.7-2.2.4.5.5 1.2.7 1.7.3-.3.8-.8.9-1.3.5.5.6.8.4 2.3.4-.3.7-.6 1.1-.8s.8-.5 1.2-.7c0 .3-.1.8-.3 1.2h.2c0-.2 0-.4.3-.5-.1.2-.1.3 0 .5h.1c0-.2.1-.3.3-.4-.1.1-.1.2 0 .4h.2v-.1c0-.2 0-.4.3-.4-.1.1-.1.3 0 .4v.1h.1.1c0-.2.1-.3.3-.4-.1.1-.1.3 0 .4h.1c.1-.2.1-.5.1-.7 0-1.3-.1-2.6.1-3.9-.1-.1-.1-.1-.2-.1-.5.3-.6-.7-2.1-.7-.7 0-3.2 0-3.6 0-.8 0-1-.1-.9-1.1 0-.2.3-1.6.2-2.2-.1-.5-.2-1-.2-1.5 0-.1 0-.2-.2-.3-.4-.1-.8-.2-1.2-.3s-.4.1-.3.3c0 .4.1.8.2 1.2.1.3 0 .6-.2.9-.3.3-.6.7-.8 1.1-.3.8-.9 1.4-1.5 1.9-.5.4-1 .8-1.5 1.2-.5.2-.9.7-1.1 1.4m68.5 7.3c-.1-.2-.2-.4-.4-.3s-.2.3-.2.5c.1.3-.1.4-.3.4s-.3 0-.5 0c-.7-.1-1.4-.4-2.1-.4-.4 0-.6-.1-1.2 0-1.1.2-2.1.5-3.1.9-1.8.7-3.6.8-5.5.3-1.1-.3-2.2-.7-3.3-1-2.3-.5-4.5-.3-6.7.5-1.9.7-3.9.9-5.9.4-1.7-.5-3.4-1-5.1-1.1-1.6-.1-3.1.1-4.6.6-1 .4-2 .7-3.1.8-1.6.2-3.1-.1-4.5-.7-1.2-.4-2.4-.7-3.7-.7-1.9-.1-3.7.3-5.4.9-1.2.4-2.4.6-3.6.4s-2.3-.5-3.3-1c-1.7-.7-3.5-.9-5.2-.2-.2.1-.4.1-.6.1s-.4 0-.3-.3c.1-.2.1-.4-.2-.5-.2 0-.4.2-.4.4-.1.4.1.9.5 1.2.6.4 1.2.5 2 .3 1-.2 1.9-.2 2.9 0 .9.2 1.7.6 2.6.9 1.7.7 3.4.7 5.1.2 1-.2 1.9-.7 2.9-.9 2.2-.5 4.4-.3 6.6.4 2.8.9 5.6.8 8.3-.2.8-.3 1.6-.5 2.5-.6 1.8-.2 3.5.1 5.2.7 2.7.9 5.4 1 8.1-.1 1.4-.6 2.9-.7 4.4-.7 1.3.1 2.5.4 3.7.8 1.5.5 3 .7 4.6.5 1.3-.2 2.5-.6 3.7-1 .8-.3 1.7-.5 2.6-.4.8 0 1.5.2 2.3.4.6.1 1-.1 1.4-.6 0-.1 0-.5-.2-.9m-6.3-15.8c-.4 0-.8 0-1.1 0s-.4.1-.4.4c0 1.3-.3 2.6 0 4 .1.6-.2.9-.7.9-.4 0-.8 0-1.2-.1-1.3-.1-2.5.1-3.5.8-.1.1-.2.1-.3.1v.3c0 .3-.1.6-.2.9-.2.6-.2 1.2-.2 1.8 0 .4-.1.8-.1 1.2.2 0 .3.1.4.1.1-.1.2-.3.2-.4.2.1.2.3.2.4h.1c.1 0 .3 0 .3.1.1-.1.1-.2.1-.4.2.2.2.4.1.6h.1.1c.1-.1.2-.3.2-.4.2.2.2.4.1.6.1.1.2.2.4.3l.1-.1c-.6-1.2 0-2.4 0-2.4s0 0 0 .1c.2.7.9 1 1.3 1.6.1-.9.9-1.4 1.1-2.2.4.6.7 1.1.6 1.8 0 .1-.1.6-.1.6.1 0 1.3-.8 1.2-1.5.4.5.4 1.3.1 1.8-.1.2-.3.4-.5.6.2 0 .5.1.8.2.1 0 .3 0 .4-.1.2-.1.4-.2.6-.5 0 .3-.1.6-.2.8 0 0 .1-.1.2-.1.1-.1.2-.3.2-.4.2.1.2.3.1.5h.1.1c0-.1 0-.1.1-.2s.2-.3.2-.5c.2.2.2.4.1.6.1-.1.2-.2.2-.4.2.1.2.3.1.4h.1c.1-.1.2-.2.2-.4.2.1.2.3.1.4h.1c.1-.1.2-.2.2-.3.1.1.1.3 0 .4.4.2.6.2 1.1.3.2 0 .3.1.6.1.2-.2.5-.5.7-.7s.7-1.9.6-2.6c0-.4-.2-1-.3-1.2-.4-.5-3.1-2.6-3.6-4-.3-.6-.5-1.3-1-1.8-.2-.2-.3-.4-.1-.7.2-.4.2-.8.2-1.2 0 0 0-.1-.3-.1m3.2-29.4c.2 0 .3-.1.3-.4 0-.6-.2-1.2-.5-1.7-.1-.2-.2-.1-.4 0-.5.3-1 .6-1.5.9-.6.4-1.2.8-1.5 1.5 0 .1-.2.3 0 .4s.3 0 .5 0c.7-.4 1.5-.6 2.3-.6.3 0 .5 0 .8-.1m5.7-2.9c.5-.9.4-2.2-.1-3-.2-.3-.4-.5-.6-.8-.5-.6-.8-1.3-1.1-2 0-.1-.2-.5-.4-.4-.1 0 0 .3 0 .5.1 1.2-.1 2.2-1 3.1-.3.3-.7.6-.9 1-.3.5-.6 1.1-1.1 1.5-.2.2-.2.4-.1.6.4.5.6 1 .8 1.6 0 .2.1.2.3.2.5-.1 1-.2 1.5-.4.9-.5.9-.6.4-1.5-.3-.5-.6-1-.7-1.5-.1-.6 0-1.2.3-1.7-.1.8.2 1.5.8 2 .3.3.7.7.9 1.1.3.5.3.5.6 0 .2-.1.3-.2.4-.3m-44 16.2c.3-.7 0-1.4-.7-1.7-.2-.1-.3-.1-.5 0-.1 0-.2.1 0 .1h.2c.6.2.8.9.6 1.5-.2.5-.7.9-1.2.8h-.1v.1c.7.2 1.4-.1 1.7-.8m1.9 0c-.5.2-2.3.6-2.3 1.1 0 .2.3.2.5.1.2 0 1.7-.2 1.9-.2s.3-.3 0-.3c-1.4.2-1.9.3-1.9.3s.4-.3 1.9-.5c.7-.2.3-.6-.1-.5m-.1 1.2c-.5 0-1.1.1-1.4.2 0 0 1.3.1 1.5.1s.2-.4-.1-.3m-4.6-2.3c-.2-.1-.5-.1-.6.1 0 0 0 .1-.1.1v.1c0 .1.1.2.2.3.2.1.5.1.6-.1.2-.1.1-.3-.1-.5m2.3 11.4c.5.2 1.1-.2 1.4-.8.2-.6 0-1.2-.6-1.4-.1 0-.3-.1-.4 0-.1 0-.1.1 0 .1s.1 0 .2 0c.5.2.7.8.5 1.3s-.7.8-1.1.8c0-.1 0-.1 0 0-.1 0 0 0 0 0m1 .2c0 .2.3.1.4.1s1.5-.2 1.6-.2.2-.3 0-.3c-1.2.2-1.6.3-1.6.3s.4-.2 1.6-.5c.6-.1.2-.4-.1-.4-.4.2-1.9.5-1.9 1m1.9.1c-.5 0-1 .1-1.2.2 0 0 1.1.1 1.3.1.2-.1.2-.3-.1-.3m-3.9-2c-.2-.1-.4-.1-.5.1v.1.1c0 .1.1.2.2.3.2.1.4.1.5-.1 0-.1-.1-.4-.2-.5m2.2 10c.4.1.9-.1 1.1-.6s0-1-.5-1.2c-.1 0-.2 0-.3 0s-.1.1 0 .1h.1c.4.1.6.6.4 1 0 .4-.4.6-.8.7.1-.1 0-.1 0 0zm.9.1c0 .1.2.1.4.1.1 0 1.2-.2 1.3-.2s.2-.2 0-.2c-1 .1-1.3.2-1.3.2s.3-.2 1.3-.4c.5-.1.2-.4-.1-.3-.4.2-1.6.5-1.6.8m1.5.1c-.4 0-.8.1-1 .2h1c.2 0 .2-.2 0-.2m-3.2-1.6c-.1-.1-.3 0-.4.1v.1.1c0 .1.1.2.1.2.1.1.3 0 .4-.1s.1-.3-.1-.4m-29.3 12.9c.1 0 .1 0 0 0m46.3-85c.4.2.8.8.7 1.5-.1.5-.3.9-.4 1.3 0 .1-.1.2-.1.2-.1.2-.1.4-.1.6.1.4 0 .8 0 1.2 0 .5-.1.9-.2 1.3-.2.8-.6 1.5-1.2 2-.5.5-1.2.7-1.8.9s-1.2.2-1.7.2c-.4.1-.8.2-1.1.4.2.1.4.2.7.1.4-.1.7-.1 1.1-.1h.8c.2 0 .2 0 .1.2-.2.6-.5 1-1 1.4-.3.2-.6.4-1 .5-.1 0-.2.1-.2.2 0 .2-.1.4-.1.6-.1.8-.3 1.7-.6 2.4v.1c0 .1.1 0 .1 0h.3c.1.1.2.1.1.3-.2.2-.3.4-.5.6-.4.4-.7.8-1 1.2 0 .1-.1.1-.1.2h1.1v3.9c0 1.3-.3 2.3-.8 3.1.1.5.2 1 .3 1.5s.3 1 .5 1.5c2.6.3 4.3 1 4.5 1 .5.2.7.7.6 1.2-.2.5-.7.7-1.2.6 0 0-3.4-1.2-7.3-1.1-3 0-5.7.9-6.8 1.3l-.2.1c-.1 0-.2 0-.3 0-.4 0-.7-.2-.9-.6-.2-.5.1-1 .6-1.1l.2-.1c.9-.3 3.1-1 5.7-1.3 0-.2 0-.3 0-.5v-.1c-1-.4-2.4-1.5-3-3.5-.1-.1-.2-.3-.3-.5s-.1-.4-.2-.5-.1-.2-.3-.2c-.2-.1-.4 0-.6 0-.5.1-1 .2-1.4.2-.1 0-.2 0-.3 0-.3.1-.5.3-.5.7 0 .5.1 1 .3 1.4 0 .1.1.1 0 .2-.1.2 0 .2.1.3.3.2.5.4.5.7.1.3.1.5.3.7.1.1 0 .1-.1.1-.2 0-.3 0-.5-.1-.1.2 0 .3 0 .5s-.1.2-.2.1c-.3-.3-.7-.5-1-.7s-.4-.5-.4-.9c0-.2 0-.2-.2-.3s-.3-.2-.3-.5c.1-.6.1-1.2 0-1.7-.1-.4 0-.7.2-1 .1-.1.2-.3.2-.4-.1-.1-.1 0-.4-.1-1.1-.1-1.9-.7-2.2-1.8-.4-1.2 0-2.4 1.2-3.1.2-.1.3-.2.3-.5s.2-.6.4-.7c.3-.2.4-.5.6-.8 0-.1.1-.2.1-.2.1-.1.2-.2.3-.2h.6c.3 0 .6-.1.9-.1s.6-.1.9-.1c.1 0 .2-.1.3-.1.3-.2.7-.1.9.2.4.4.6 1 .8 1.6.1.3.2.6.4.9.1.1.2.2.3.1s.2-.2.2-.3c-.1-.2 0-.4.2-.5.1-.1.2-.2.2-.4.1-.5.2-1 .2-1.6 0-.2 0-.4 0-.5 0-.2.1-.3.3-.2.1.1.2.2.2.3s.1.1.2.1c.2 0 .3 0 .2.3 0 0 0 .1-.1.1 0 0-.1.1 0 .1h.1c.2-.1.3-.1.4.1 0 0 .1.1.1 0 .3 0 .6 0 .8-.2.2-.1.3-.2.3-.4s-.2-.4-.4-.4c-.2-.1-.5-.1-.7-.2-.3 0-.5-.1-.8-.2s-.5-.4-.5-.7c0-.1 0-.2-.1-.3s-.1-.2-.1-.3c-.1-.5-.1-.5.2-.8.1-.2.2-.3.3-.5 0-.1.2-.1.3-.1s.4-.1.5 0c.2.1.5.1.7 0s.4 0 .5-.1h.3c-.5-.2-1-.4-1.3-.8s-.6-.8-.6-1.4c.6.6 1.3 1.1 2.3 1.3-.2-.3-.4-.4-.6-.6s-.3-.5-.4-.7c-.1-.3-.2-.5-.3-.8.1-.1.1 0 .2 0 .3.3.6.5.9.7.2.1.3.3.5.4.4.4.9.5 1.3.6.1 0 .1 0 .2-.1 0-.1 0-.2.1-.3 0-.2 0-.3-.1-.4-.5-.4-.7-.9-.8-1.5 0-.2 0-.4.1-.6.1-.3.3-.6.5-.9.1.1 0 .2 0 .2-.1.4-.1.8.1 1.1 0 .1.1.2.2.3.1.2.3.4.4.6.2.2.3.2.4 0 .1-.1.3-.2.4-.3.2-.1.2-.1 0-.3-.1-.2-.2-.3-.3-.5-.3-.5-.4-1-.2-1.6.1-.2.2-.4.2-.6.1 0 .1.1.1.1v.2c0 .5.1.9.5 1.3.2.3.4.6.8.8.1.1.2.1.3.1.2 0 .3-.1.3-.3 0-.3 0-.5.1-.8 0 0 0-.1.1-.1s.1.1.1.1c.1.1.1.3.2.4.1.2.1.2.3 0s.3-.5.3-.9c0-.2-.1-.4-.3-.5-.1-.1-.3-.2-.4-.2-.6-.3-1-.7-1.1-1.4 0-.2-.1-.4-.1-.6v-.1c.1 0 .1 0 .1.1.3.6.7 1 1.3 1.3.2.1.4.2.6.2.3 0 .3 0 .2-.3 0-.2-.1-.4-.2-.6-.1-.1-.2-.3-.3-.4-.2-.3-.3-.7-.3-1.1 0-.2 0-.3 0-.5v-.1c.1 0 .1.1.1.1 0 .1 0 .2.1.3.2.4.5.8.8 1.2 0 0 0 0 .1.1h.1v-.1c-.1-.2-.3-.9-.3-1.1.1.1.2.2.2.4.2.4.4.8.7 1.1.1.1.2.2.3.2s0-.2.1-.3c0-.2-.1-.5-.1-.7-.1-.4-.2-.7-.1-1.1s.3-1.2.3-1.2 0-.1.1-.1c0 0 .1 0 .1.1 0 .2.2 1.7.5 2.1.2.3.6 1 .7 1 .2-.2.3-.5.4-.7.1-.5.1-.9-.2-1.3-.1-.2-.4-.5-.4-.6s.1 0 .1 0c.2.2.4.3.6.4m-14.8 18.8c0-.3.1-.6-.2-.8-.1-.1-.1-.2-.2-.3-.2-.5-.3-.9-.4-1.4 0-.3-.1-.5-.2-.8s-.3-.3-.6-.3c-.2.1-.4.1-.5 0-.1 0-.3 0-.4.1s-.2.2-.2.3c-.1.2-.1.2-.4.2-.1 0-.2-.1-.3-.2-.2.3-.2.3.1.4s.5.2.7.3c.4.3.7.7.9 1.2.3.7.2 1.5 0 2.1-.2.5-.5.9-.5.9.1-.1.4-.2.5-.3 1.2-.6 1.6-1.1 1.7-1.4m4.7 7.5c.3 0 1.4-.5 2.3-1.4l-2.2-2.6-2.2 2.7c.7.9 1.8 1.2 2.1 1.3zm-3.6-8.4v3.3c0 .6.1 1.1.2 1.6l3.4-4.1 3.4 4.1c.2-.5.2-1 .2-1.5v-3.4z"/></g></svg>