<?xml version="1.0" encoding="UTF-8"?>
<svg xmlns="http://www.w3.org/2000/svg" viewBox="0 0 301.74 167.79" width="301.74" height="167.79">
  <defs>
    <style>
      .cls-1 {
        fill: #1d1d1b;
      }

      .cls-2 {
        fill: #bd2b30;
      }

      .cls-3 {
        fill: #fff;
      }

      .cls-4 {
        fill: #9ca0a3;
      }
    </style>
  </defs>
  <g id="Layer_1-2" data-name="Layer 1-2">
    <g>
      <rect class="cls-3" x="92.51" width="116.5" height="116.5"/>
      <g>
        <polygon class="cls-2" points="95.73 113.4 95.73 3.11 175.95 3.11 122.68 52.81 188.66 113.39 95.73 113.4"/>
        <polygon class="cls-4" points="194.12 113.39 128.14 52.81 181.42 3.11 205.92 3.11 205.92 113.4 194.12 113.39"/>
      </g>
      <g>
        <path class="cls-1" d="M18.34,159.17l-5.77-15.04-6.29,6.17-1.65,8.87H0l5.68-30.52h4.63l-2.85,15.34,15.33-15.34h5.66l-12.13,11.96,7.48,18.56h-5.46Z"/>
        <path class="cls-1" d="M38.79,159.17l2.46-13.24c.63-3.39-1.03-4.84-3.47-4.84s-4.78,1.5-5.4,4.84l-2.46,13.24h-4.37l4.04-21.73h4.29l-.41,2.19c1.8-1.63,4.06-2.44,6.24-2.44s3.94.73,4.99,1.97c1.37,1.63,1.5,3.69,1.05,6.13l-2.58,13.89h-4.38Z"/>
        <path class="cls-1" d="M62.71,156.85c-1.69,1.46-4.04,2.57-6.99,2.57s-4.85-1.11-5.99-2.57c-1.66-2.14-1.66-4.89-.98-8.57.68-3.64,1.7-6.39,4.16-8.53,1.69-1.46,3.99-2.57,6.95-2.57s4.89,1.11,6.04,2.57c1.66,2.14,1.66,4.89.98,8.53-.69,3.69-1.71,6.43-4.17,8.57ZM62.11,142.32c-.66-.81-1.7-1.24-2.98-1.24s-2.44.43-3.4,1.24c-1.58,1.33-2.17,3.6-2.61,5.96s-.69,4.63.39,5.96c.66.81,1.65,1.29,2.93,1.29s2.49-.47,3.45-1.29c1.58-1.33,2.17-3.6,2.61-5.96.44-2.36.69-4.63-.39-5.96Z"/>
        <path class="cls-1" d="M89.54,159.17h-3.73l-2.28-15.17-7.88,15.17h-3.77l-2.69-21.73h4.63l1.35,15.3,7.9-15.3h3.39l2.17,15.3,7.05-15.3h4.67l-10.81,21.73Z"/>
        <path class="cls-1" d="M104.97,159.42c-3.56,0-6.45-.6-8.55-3.13l3.41-2.87c1.42,1.8,3.69,2.27,5.83,2.27,2.66,0,4.93-.94,5.32-3,.27-1.46-.37-2.4-2.44-2.57l-3.42-.3c-4.01-.34-6.02-2.19-5.31-6,.79-4.24,4.88-6.64,9.42-6.64,3.26,0,5.92.69,7.6,2.44l-3.26,2.79c-1.16-1.16-3.01-1.59-5.06-1.59-2.61,0-4.16,1.16-4.46,2.79-.24,1.29.26,2.27,2.54,2.49l3.37.3c4.01.34,6.05,2.27,5.33,6.13-.85,4.54-5.14,6.9-10.33,6.9h0Z"/>
        <path class="cls-1" d="M123.06,159.17c-4.16,0-5.44-2.79-4.84-6l4.56-24.52h4.37l-4.51,24.26c-.31,1.67.13,2.53,1.89,2.53h1.93l-.69,3.73h-2.71Z"/>
        <path class="cls-1" d="M132.35,149.57c-.69,3.73.84,6.09,4.4,6.09,2.44,0,3.86-.69,5.69-2.23l2.3,2.61c-2.64,2.23-4.96,3.39-8.77,3.39-5.44,0-9.24-2.87-7.7-11.14,1.31-7.03,5.71-11.1,11.28-11.1s8.42,4.29,7.27,10.46l-.36,1.93h-14.11ZM142.64,143.57c-.38-1.63-1.72-2.74-3.78-2.74s-3.85,1.11-4.84,2.74c-.61.99-.82,1.63-1.11,2.96h9.77c.2-1.33.2-1.97-.05-2.96h0Z"/>
        <path class="cls-1" d="M153.89,163.5c-.65,1.2-1.33,2.06-2.09,2.7-1.42,1.2-3.08,1.59-4.75,1.59h-1.76l.73-3.94h1.11c1.84,0,2.59-.56,3.56-2.31l1.83-3.39-3.74-20.7h4.63l2.34,15.3,7.9-15.3h4.67l-14.45,26.06h.02Z"/>
        <path class="cls-1" d="M184.27,159.42c-3.17,0-5.7-1.16-7.41-3.26-2.44-3-1.77-6.39-.68-12.26,1.09-5.87,1.68-9.26,5.24-12.26,2.49-2.1,5.45-3.26,8.62-3.26,5.62,0,9.2,3.3,9.14,9.39h-4.71c-.15-3.09-1.81-5.23-5.2-5.23-1.8,0-3.56.69-4.84,1.84-1.8,1.63-2.47,3.39-3.61,9.52s-1.12,7.89.07,9.51c.86,1.16,2.36,1.84,4.16,1.84,3.39,0,5.88-2.14,7.19-5.23h4.67c-2.16,6.09-7.1,9.39-12.63,9.39h-.01Z"/>
        <path class="cls-1" d="M213.68,156.85c-1.68,1.46-4.04,2.57-6.99,2.57s-4.85-1.11-5.99-2.57c-1.66-2.14-1.66-4.89-.98-8.57.68-3.64,1.7-6.39,4.16-8.53,1.68-1.46,3.99-2.57,6.95-2.57s4.89,1.11,6.04,2.57c1.66,2.14,1.66,4.89.98,8.53-.69,3.69-1.71,6.43-4.17,8.57h0ZM213.08,142.32c-.66-.81-1.7-1.24-2.98-1.24s-2.44.43-3.4,1.24c-1.58,1.33-2.17,3.6-2.61,5.96s-.69,4.63.39,5.96c.66.81,1.65,1.29,2.93,1.29s2.49-.47,3.45-1.29c1.58-1.33,2.17-3.6,2.61-5.96s.69-4.63-.39-5.96Z"/>
        <path class="cls-1" d="M232.71,159.17l.41-2.19c-1.8,1.63-4.05,2.44-6.24,2.44s-3.94-.73-4.99-1.97c-1.37-1.63-1.5-3.69-1.05-6.13l2.58-13.89h4.37l-2.46,13.24c-.63,3.39,1.03,4.84,3.47,4.84s4.78-1.5,5.4-4.84l2.46-13.24h4.37l-4.04,21.73h-4.29.01Z"/>
        <path class="cls-1" d="M255.04,159.17l2.46-13.24c.63-3.39-1.03-4.84-3.47-4.84s-4.78,1.5-5.4,4.84l-2.46,13.24h-4.37l4.04-21.73h4.29l-.41,2.19c1.8-1.63,4.05-2.44,6.24-2.44s3.94.73,4.99,1.97c1.37,1.63,1.5,3.69,1.04,6.13l-2.58,13.89h-4.37Z"/>
        <path class="cls-1" d="M272.52,159.42c-4.89,0-9.13-3-7.61-11.14,1.52-8.14,6.87-11.1,11.75-11.1,3,0,4.94.86,6.59,3.04l-3.54,2.91c-1.09-1.5-2.06-2.06-3.77-2.06s-3.21.69-4.39,1.93c-1.17,1.2-1.8,2.74-2.27,5.27s-.42,4.11.3,5.31c.71,1.24,2,1.93,3.67,1.93s2.89-.56,4.54-2.06l2.47,2.87c-2.46,2.19-4.73,3.09-7.73,3.09h-.01Z"/>
        <path class="cls-1" d="M282.64,159.17l4.04-21.73h4.37l-4.04,21.73h-4.37ZM287.35,133.15l.86-4.63h4.63l-.86,4.63h-4.63Z"/>
        <path class="cls-1" d="M297.65,159.17c-4.16,0-5.44-2.79-4.84-6l4.56-24.52h4.37l-4.51,24.26c-.31,1.67.13,2.53,1.89,2.53h1.93l-.69,3.73h-2.71Z"/>
      </g>
    </g>
  </g>
</svg>