<svg xmlns="http://www.w3.org/2000/svg" viewBox="0 0 1246.85 71.14"><defs><style>.cls-1{fill:#fff;}</style></defs><g id="Layer_2" data-name="Layer 2"><rect class="cls-1" y="0.14" width="4.16" height="70.38"/><path class="cls-1" d="M134.94,18.47l11.14,29.7,11.18-29.7h6.44V53.81h-4.46V24.41h-.1l-11,29.4h-4l-11-29.4H133v29.4H128.5V18.47Z"/><path class="cls-1" d="M187.75,52.18a11.66,11.66,0,0,1-7.23,2.18,13.12,13.12,0,0,1-5.32-1,10.4,10.4,0,0,1-3.79-2.78,11.7,11.7,0,0,1-2.3-4.25,20.76,20.76,0,0,1-.87-5.4,15.46,15.46,0,0,1,.89-5.34,12.93,12.93,0,0,1,2.5-4.21,11.36,11.36,0,0,1,3.81-2.77,11.66,11.66,0,0,1,4.83-1A10.5,10.5,0,0,1,185.94,29a11.16,11.16,0,0,1,3.61,3.59,13.94,13.94,0,0,1,1.88,4.75,20,20,0,0,1,.42,4.9H172.7a10.16,10.16,0,0,0,.39,3.19,7.2,7.2,0,0,0,1.44,2.67A7,7,0,0,0,177.05,50a8.79,8.79,0,0,0,3.62.69,7.32,7.32,0,0,0,4.38-1.23,6,6,0,0,0,2.25-3.77h4.16A10.25,10.25,0,0,1,187.75,52.18Zm-1-16.44a7.34,7.34,0,0,0-1.53-2.3,7.49,7.49,0,0,0-2.28-1.53,7.76,7.76,0,0,0-5.84,0,6.68,6.68,0,0,0-2.25,1.56,7.29,7.29,0,0,0-1.49,2.3,8.67,8.67,0,0,0-.64,2.8h14.7A8.74,8.74,0,0,0,186.73,35.74Z"/><path class="cls-1" d="M214.17,53.81V50.35h-.1a6.18,6.18,0,0,1-3.27,3.07,12.59,12.59,0,0,1-4.9.94,11.62,11.62,0,0,1-5.17-1.09,10.78,10.78,0,0,1-3.67-2.92,12.85,12.85,0,0,1-2.2-4.26,17.66,17.66,0,0,1-.74-5.15,18.06,18.06,0,0,1,.72-5.15A12.14,12.14,0,0,1,197,31.56a10.52,10.52,0,0,1,3.66-2.87,11.62,11.62,0,0,1,5.12-1.06,12.64,12.64,0,0,1,2.13.19,11.57,11.57,0,0,1,2.28.67,10.08,10.08,0,0,1,2.15,1.24,6.69,6.69,0,0,1,1.71,1.91h.1V18.47h4.21V53.81ZM199,44.73a9.59,9.59,0,0,0,1.44,3A7,7,0,0,0,203,49.9a7.46,7.46,0,0,0,3.54.79,7.25,7.25,0,0,0,3.61-.84,7.12,7.12,0,0,0,2.42-2.2,9.37,9.37,0,0,0,1.37-3.1,14.78,14.78,0,0,0,.42-3.51,14.64,14.64,0,0,0-.45-3.64,9.11,9.11,0,0,0-1.41-3.09,7.16,7.16,0,0,0-2.5-2.15,7.73,7.73,0,0,0-3.71-.82,7.26,7.26,0,0,0-3.62.84,6.6,6.6,0,0,0-2.37,2.23A9.44,9.44,0,0,0,199,37.58a17,17,0,0,0-.4,3.66A13.23,13.23,0,0,0,199,44.73Z"/><path class="cls-1" d="M223.73,23.62V18.47h4.2v5.15Zm4.2,4.6V53.81h-4.2V28.22Z"/><path class="cls-1" d="M248.72,32.67a6.36,6.36,0,0,0-4.25-1.33,7.91,7.91,0,0,0-3.82.84,6.76,6.76,0,0,0-2.45,2.23,9.49,9.49,0,0,0-1.31,3.19,17.71,17.71,0,0,0-.39,3.74,14.19,14.19,0,0,0,.42,3.46,9.24,9.24,0,0,0,1.31,3,6.7,6.7,0,0,0,2.32,2.1,8,8,0,0,0,8.3-.84,7.41,7.41,0,0,0,2.15-4.6h4.31a11.85,11.85,0,0,1-3.54,7.32A11.11,11.11,0,0,1,244,54.36a13.43,13.43,0,0,1-5.17-.94,10.09,10.09,0,0,1-3.77-2.68,11.57,11.57,0,0,1-2.27-4.13,17.29,17.29,0,0,1-.77-5.27,18.89,18.89,0,0,1,.74-5.37A12.47,12.47,0,0,1,235,31.61a10.45,10.45,0,0,1,3.78-2.92,12.41,12.41,0,0,1,5.3-1.06,15.3,15.3,0,0,1,4.08.52,10,10,0,0,1,3.37,1.6A9,9,0,0,1,254,32.5a10.19,10.19,0,0,1,1.19,3.94H250.8A6.43,6.43,0,0,0,248.72,32.67Z"/><path class="cls-1" d="M259.08,23.62V18.47h4.21v5.15Zm4.21,4.6V53.81h-4.21V28.22Z"/><path class="cls-1" d="M272.54,28.22v4.06h.09A8.87,8.87,0,0,1,281,27.63a11.17,11.17,0,0,1,4.21.69,6.83,6.83,0,0,1,2.72,1.93,7.27,7.27,0,0,1,1.46,2.94,15.94,15.94,0,0,1,.42,3.79V53.81h-4.21V36.49a5.12,5.12,0,0,0-1.38-3.77,5.18,5.18,0,0,0-3.81-1.38,8.67,8.67,0,0,0-3.34.59,6.34,6.34,0,0,0-2.36,1.69,7.36,7.36,0,0,0-1.41,2.55,10.42,10.42,0,0,0-.47,3.19V53.81h-4.2V28.22Z"/><path class="cls-1" d="M313,52.18a11.62,11.62,0,0,1-7.23,2.18,13.15,13.15,0,0,1-5.32-1,10.45,10.45,0,0,1-3.78-2.78,11.72,11.72,0,0,1-2.31-4.25,20.35,20.35,0,0,1-.86-5.4,15.46,15.46,0,0,1,.89-5.34,12.75,12.75,0,0,1,2.5-4.21,11.27,11.27,0,0,1,3.81-2.77,11.66,11.66,0,0,1,4.83-1A10.49,10.49,0,0,1,311.23,29a11.09,11.09,0,0,1,3.62,3.59,14.14,14.14,0,0,1,1.88,4.75,20,20,0,0,1,.42,4.9H298a10.16,10.16,0,0,0,.4,3.19,7.18,7.18,0,0,0,1.43,2.67A7.06,7.06,0,0,0,302.35,50a8.74,8.74,0,0,0,3.61.69,7.3,7.3,0,0,0,4.38-1.23,6,6,0,0,0,2.26-3.77h4.15A10.25,10.25,0,0,1,313,52.18Zm-1-16.44a7.2,7.2,0,0,0-1.54-2.3,7.32,7.32,0,0,0-2.27-1.53,7.22,7.22,0,0,0-2.9-.57,7.36,7.36,0,0,0-2.95.57,6.88,6.88,0,0,0-2.25,1.56,7.27,7.27,0,0,0-1.48,2.3,8.68,8.68,0,0,0-.65,2.8h14.7A8.48,8.48,0,0,0,312,35.74Z"/><path class="cls-1" d="M324,48.09a4.51,4.51,0,0,0,1.56,1.54,7.1,7.1,0,0,0,2.18.82,12.85,12.85,0,0,0,2.5.24,15.31,15.31,0,0,0,2.08-.15,7.45,7.45,0,0,0,2-.54,3.77,3.77,0,0,0,1.51-1.16,3.09,3.09,0,0,0,.59-2,2.8,2.8,0,0,0-1.23-2.47,10.72,10.72,0,0,0-3.1-1.37c-1.23-.34-2.58-.65-4-.94a20.46,20.46,0,0,1-4-1.18A8.37,8.37,0,0,1,321,38.76a5.61,5.61,0,0,1-1.24-3.86,6.1,6.1,0,0,1,.87-3.31,7.08,7.08,0,0,1,2.23-2.26,10.3,10.3,0,0,1,3.07-1.28,14,14,0,0,1,3.39-.42,20,20,0,0,1,4,.37,9.32,9.32,0,0,1,3.24,1.28,6.74,6.74,0,0,1,2.25,2.48,9.41,9.41,0,0,1,1,3.89h-4.21a4,4,0,0,0-2-3.37,6.36,6.36,0,0,0-1.85-.72,9.49,9.49,0,0,0-2.06-.22,12.36,12.36,0,0,0-1.9.15A6.34,6.34,0,0,0,326,32a3.38,3.38,0,0,0-1.29,1,2.49,2.49,0,0,0-.49,1.61,2.34,2.34,0,0,0,.77,1.8,6,6,0,0,0,1.95,1.19,16.93,16.93,0,0,0,2.67.79l3,.67a31.39,31.39,0,0,1,3.1.84,10.38,10.38,0,0,1,2.67,1.31,6.4,6.4,0,0,1,1.88,2.06,6,6,0,0,1,.72,3.07,7.06,7.06,0,0,1-1,3.86,7.44,7.44,0,0,1-2.52,2.47A10.33,10.33,0,0,1,333.9,54a20.67,20.67,0,0,1-3.89.38,17.85,17.85,0,0,1-4.06-.45,10,10,0,0,1-3.42-1.46,7.46,7.46,0,0,1-2.37-2.67,9.12,9.12,0,0,1-1-4h4.21A4.63,4.63,0,0,0,324,48.09Z"/><path class="cls-1" d="M373.5,53.12a13.81,13.81,0,0,1-5.67,1.24,13,13,0,0,1-5.74-1.09,9.48,9.48,0,0,1-3.37-2.63,8.19,8.19,0,0,1-1.56-3.16,12.58,12.58,0,0,1-.37-2.73,9.3,9.3,0,0,1,.67-3.66,10.21,10.21,0,0,1,1.78-2.85A13.46,13.46,0,0,1,361.86,36a35.58,35.58,0,0,1,3.2-1.91l-1.44-2a22.45,22.45,0,0,1-1.26-1.91,8.87,8.87,0,0,1-.89-2,8.11,8.11,0,0,1-.32-2.4,7.31,7.31,0,0,1,.52-2.75,6.65,6.65,0,0,1,1.53-2.33,7.53,7.53,0,0,1,2.5-1.61,9.26,9.26,0,0,1,3.41-.59,11.88,11.88,0,0,1,3.2.44,8.11,8.11,0,0,1,2.74,1.37A6.88,6.88,0,0,1,377,22.55a6.65,6.65,0,0,1,.72,3.15,7.73,7.73,0,0,1-.55,2.94,9.17,9.17,0,0,1-1.48,2.5,13.34,13.34,0,0,1-2.13,2,20.91,20.91,0,0,1-2.47,1.66l6.38,7.77a19.35,19.35,0,0,0,1.14-5.49h4c-.1,1.06-.21,1.95-.32,2.7a17.4,17.4,0,0,1-.45,2.05,14.26,14.26,0,0,1-.67,1.86c-.26.61-.57,1.31-.94,2.1l6.88,8h-5.49l-3.76-4.4A9.85,9.85,0,0,1,373.5,53.12ZM365,38.17a10.26,10.26,0,0,0-1.95,1.68A7.41,7.41,0,0,0,361.74,42a6.94,6.94,0,0,0-.5,2.74,5.29,5.29,0,0,0,.57,2.45A6,6,0,0,0,363.32,49a7.58,7.58,0,0,0,2.16,1.21,7.31,7.31,0,0,0,2.5.44,8.28,8.28,0,0,0,4.33-1.14,9.9,9.9,0,0,0,3.19-3.06l-8.12-9.76C366.56,37.2,365.77,37.67,365,38.17ZM370.35,31a10.29,10.29,0,0,0,1.54-1.33A7,7,0,0,0,373,28a4.75,4.75,0,0,0,.44-2.06,3.66,3.66,0,0,0-1.09-2.65,4,4,0,0,0-3-1.11,4.7,4.7,0,0,0-2.77.92,3.25,3.25,0,0,0-1.29,2.84,4.3,4.3,0,0,0,.32,1.59,9.72,9.72,0,0,0,.82,1.56,18.47,18.47,0,0,0,1.09,1.51l1.19,1.48C369.26,31.75,369.79,31.39,370.35,31Z"/><path class="cls-1" d="M407.67,18.47v15.2h18.62V18.47H431V53.81h-4.7V37.62H407.67V53.81H403V18.47Z"/><path class="cls-1" d="M455,52.18a11.66,11.66,0,0,1-7.23,2.18,13.12,13.12,0,0,1-5.32-1,10.49,10.49,0,0,1-3.79-2.78,11.7,11.7,0,0,1-2.3-4.25,20.76,20.76,0,0,1-.87-5.4,15.46,15.46,0,0,1,.89-5.34,12.93,12.93,0,0,1,2.5-4.21,11.46,11.46,0,0,1,3.81-2.77,11.66,11.66,0,0,1,4.83-1A10.5,10.5,0,0,1,453.21,29a11.16,11.16,0,0,1,3.61,3.59,13.94,13.94,0,0,1,1.88,4.75,20,20,0,0,1,.42,4.9H440a10.16,10.16,0,0,0,.39,3.19,7.2,7.2,0,0,0,1.44,2.67A7,7,0,0,0,444.32,50a8.79,8.79,0,0,0,3.62.69,7.32,7.32,0,0,0,4.38-1.23,6,6,0,0,0,2.25-3.77h4.16A10.25,10.25,0,0,1,455,52.18Zm-1-16.44a7.34,7.34,0,0,0-1.53-2.3,7.49,7.49,0,0,0-2.28-1.53,7.76,7.76,0,0,0-5.84,0,6.68,6.68,0,0,0-2.25,1.56,7.29,7.29,0,0,0-1.49,2.3,8.67,8.67,0,0,0-.64,2.8h14.7A8.74,8.74,0,0,0,454,35.74Z"/><path class="cls-1" d="M485.19,53.71a5.94,5.94,0,0,1-3,.65,3.64,3.64,0,0,1-2.6-.92,4,4,0,0,1-1-3,10.12,10.12,0,0,1-4,3,13.31,13.31,0,0,1-5,.92,13.48,13.48,0,0,1-3.29-.4,7.62,7.62,0,0,1-2.7-1.24,5.94,5.94,0,0,1-1.81-2.2,7.51,7.51,0,0,1-.67-3.29,7.5,7.5,0,0,1,.75-3.57,6.45,6.45,0,0,1,1.95-2.25,9,9,0,0,1,2.77-1.31c1-.3,2.11-.54,3.2-.74s2.25-.41,3.29-.52a18,18,0,0,0,2.74-.5,4.47,4.47,0,0,0,1.89-.94,2.29,2.29,0,0,0,.69-1.8,4.16,4.16,0,0,0-.52-2.23,3.6,3.6,0,0,0-1.34-1.29,5.32,5.32,0,0,0-1.83-.59,13.67,13.67,0,0,0-2-.15,9,9,0,0,0-4.46,1c-1.19.68-1.83,2-1.93,3.84h-4.21a9.22,9.22,0,0,1,1-4,7.6,7.6,0,0,1,2.38-2.65,10.16,10.16,0,0,1,3.39-1.46,17.72,17.72,0,0,1,4.08-.44,24.54,24.54,0,0,1,3.44.24,9,9,0,0,1,3.1,1A6,6,0,0,1,481.73,31a6.91,6.91,0,0,1,.84,3.61V47.78a9.53,9.53,0,0,0,.17,2.17c.12.46.5.69,1.16.69a5.09,5.09,0,0,0,1.29-.19Zm-6.83-13.12a5.17,5.17,0,0,1-2.08.87c-.86.18-1.76.33-2.7.44l-2.84.39a10.55,10.55,0,0,0-2.58.72,4.58,4.58,0,0,0-1.85,1.4,3.92,3.92,0,0,0-.72,2.49,3.41,3.41,0,0,0,.42,1.75,3.56,3.56,0,0,0,1.09,1.16,4.57,4.57,0,0,0,1.56.64,8.75,8.75,0,0,0,1.88.19,10,10,0,0,0,3.56-.56,7.69,7.69,0,0,0,2.43-1.43,5.7,5.7,0,0,0,1.38-1.87,4.72,4.72,0,0,0,.45-1.9Z"/><path class="cls-1" d="M492.58,18.47V53.81h-4.21V18.47Z"/><path class="cls-1" d="M508.88,28.22v3.71h-5.1V47.82A4.74,4.74,0,0,0,503.9,49a1.18,1.18,0,0,0,.47.69,1.92,1.92,0,0,0,1,.32,13.53,13.53,0,0,0,1.6.08h1.94v3.71h-3.22a15.07,15.07,0,0,1-2.8-.22,4.07,4.07,0,0,1-1.88-.82,3.41,3.41,0,0,1-1.06-1.68,9.42,9.42,0,0,1-.35-2.87V31.93h-4.36V28.22h4.36V20.55h4.21v7.67Z"/><path class="cls-1" d="M516.34,18.47V32h.1a5.49,5.49,0,0,1,1.39-2,7.79,7.79,0,0,1,2-1.34,10.61,10.61,0,0,1,2.33-.77,12.09,12.09,0,0,1,2.35-.24,11.17,11.17,0,0,1,4.21.69,6.83,6.83,0,0,1,2.72,1.93,7.27,7.27,0,0,1,1.46,2.94,15.94,15.94,0,0,1,.42,3.79V53.81h-4.21V36.49a5.12,5.12,0,0,0-1.38-3.77,5.18,5.18,0,0,0-3.81-1.38,8.67,8.67,0,0,0-3.34.59,6.34,6.34,0,0,0-2.36,1.69,7.36,7.36,0,0,0-1.41,2.55,10.42,10.42,0,0,0-.47,3.19V53.81h-4.2V18.47Z"/><path class="cls-1" d="M553.87,32.67a6.41,6.41,0,0,0-4.26-1.33,7.84,7.84,0,0,0-3.81.84,6.68,6.68,0,0,0-2.45,2.23A9.3,9.3,0,0,0,542,37.6a17.71,17.71,0,0,0-.39,3.74,14.19,14.19,0,0,0,.42,3.46,9.46,9.46,0,0,0,1.31,3,6.65,6.65,0,0,0,2.33,2.1,8,8,0,0,0,8.29-.84,7.35,7.35,0,0,0,2.15-4.6h4.31a11.75,11.75,0,0,1-3.54,7.32,11.11,11.11,0,0,1-7.75,2.58,13.43,13.43,0,0,1-5.17-.94,10,10,0,0,1-3.76-2.68A11.44,11.44,0,0,1,538,46.61a17.29,17.29,0,0,1-.77-5.27,18.54,18.54,0,0,1,.75-5.37,12.29,12.29,0,0,1,2.25-4.36A10.54,10.54,0,0,1,544,28.69a12.41,12.41,0,0,1,5.3-1.06,15.43,15.43,0,0,1,4.09.52,9.86,9.86,0,0,1,3.36,1.6,9,9,0,0,1,2.4,2.75,10.19,10.19,0,0,1,1.19,3.94h-4.36A6.48,6.48,0,0,0,553.87,32.67Z"/><path class="cls-1" d="M586.83,53.71a6,6,0,0,1-3,.65,3.62,3.62,0,0,1-2.6-.92,4,4,0,0,1-1-3,10.09,10.09,0,0,1-4,3,13.36,13.36,0,0,1-5,.92,13.54,13.54,0,0,1-3.29-.4,7.62,7.62,0,0,1-2.7-1.24,5.83,5.83,0,0,1-1.8-2.2,7.37,7.37,0,0,1-.67-3.29,7.63,7.63,0,0,1,.74-3.57,6.58,6.58,0,0,1,2-2.25,9,9,0,0,1,2.77-1.31c1-.3,2.1-.54,3.19-.74s2.25-.41,3.29-.52a18.16,18.16,0,0,0,2.75-.5,4.43,4.43,0,0,0,1.88-.94,2.29,2.29,0,0,0,.69-1.8,4.26,4.26,0,0,0-.51-2.23,3.67,3.67,0,0,0-1.34-1.29,5.46,5.46,0,0,0-1.83-.59,13.8,13.8,0,0,0-2-.15,9,9,0,0,0-4.45,1c-1.19.68-1.83,2-1.93,3.84h-4.21a9.22,9.22,0,0,1,1-4,7.48,7.48,0,0,1,2.37-2.65,10.3,10.3,0,0,1,3.4-1.46,17.72,17.72,0,0,1,4.08-.44,24.76,24.76,0,0,1,3.44.24,8.87,8.87,0,0,1,3.09,1A5.87,5.87,0,0,1,583.36,31a6.91,6.91,0,0,1,.84,3.61V47.78a9.4,9.4,0,0,0,.18,2.17c.11.46.5.69,1.16.69a5.21,5.21,0,0,0,1.29-.19ZM580,40.59a5.23,5.23,0,0,1-2.08.87c-.86.18-1.76.33-2.7.44l-2.85.39a10.47,10.47,0,0,0-2.57.72,4.68,4.68,0,0,0-1.86,1.4,3.92,3.92,0,0,0-.72,2.49,3.41,3.41,0,0,0,.42,1.75,3.67,3.67,0,0,0,1.09,1.16,4.74,4.74,0,0,0,1.56.64,8.81,8.81,0,0,0,1.88.19,10,10,0,0,0,3.57-.56,7.53,7.53,0,0,0,2.42-1.43,5.73,5.73,0,0,0,1.39-1.87,4.72,4.72,0,0,0,.45-1.9Z"/><path class="cls-1" d="M593.71,28.22v5.4h.1A11.43,11.43,0,0,1,597.57,29a9.44,9.44,0,0,1,5.64-1.38v4.45a11.93,11.93,0,0,0-4.3.69,6.81,6.81,0,0,0-2.87,2,8.38,8.38,0,0,0-1.59,3.25,17.5,17.5,0,0,0-.49,4.38V53.81h-4.21V28.22Z"/><path class="cls-1" d="M623.25,52.18A11.66,11.66,0,0,1,616,54.36a13.12,13.12,0,0,1-5.32-1,10.57,10.57,0,0,1-3.79-2.78,11.7,11.7,0,0,1-2.3-4.25,20.76,20.76,0,0,1-.87-5.4,15.46,15.46,0,0,1,.89-5.34,12.93,12.93,0,0,1,2.5-4.21A11.4,11.4,0,0,1,611,28.62a11.58,11.58,0,0,1,4.82-1A10.5,10.5,0,0,1,621.44,29a11.06,11.06,0,0,1,3.61,3.59,14.16,14.16,0,0,1,1.89,4.75,21,21,0,0,1,.42,4.9H608.2a10.16,10.16,0,0,0,.4,3.19A7,7,0,0,0,612.55,50a8.79,8.79,0,0,0,3.62.69,7.32,7.32,0,0,0,4.38-1.23,6,6,0,0,0,2.25-3.77H627A10.25,10.25,0,0,1,623.25,52.18Zm-1-16.44a7.34,7.34,0,0,0-1.53-2.3,7.49,7.49,0,0,0-2.28-1.53,7.17,7.17,0,0,0-2.89-.57,7.32,7.32,0,0,0-2.95.57,6.88,6.88,0,0,0-2.25,1.56,7.47,7.47,0,0,0-1.49,2.3,8.94,8.94,0,0,0-.64,2.8h14.7A8.74,8.74,0,0,0,622.23,35.74Z"/><path class="cls-1" d="M648.84,28.22v3.46h.1a6.31,6.31,0,0,1,3.26-3.09,12.27,12.27,0,0,1,4.9-1,11.66,11.66,0,0,1,5.18,1.08,10.49,10.49,0,0,1,3.66,2.95,13.06,13.06,0,0,1,2.2,4.28,17.38,17.38,0,0,1,.75,5.15,18,18,0,0,1-.72,5.15A12.13,12.13,0,0,1,666,50.47a10.44,10.44,0,0,1-3.66,2.85,12,12,0,0,1-5.13,1,13,13,0,0,1-2.1-.2,11.3,11.3,0,0,1-2.3-.65,8.65,8.65,0,0,1-2.15-1.21,6.65,6.65,0,0,1-1.71-1.9h-.1V63.56h-4.21V28.22ZM664,37.3a9.46,9.46,0,0,0-1.43-3,7.11,7.11,0,0,0-2.48-2.13,7.51,7.51,0,0,0-3.54-.79,7.22,7.22,0,0,0-3.61.84,7.35,7.35,0,0,0-2.43,2.2,9.15,9.15,0,0,0-1.36,3.1,14.78,14.78,0,0,0-.42,3.51,14.58,14.58,0,0,0,.45,3.64,8.74,8.74,0,0,0,1.41,3.09,7.2,7.2,0,0,0,2.5,2.16,7.85,7.85,0,0,0,3.71.81,7.23,7.23,0,0,0,3.64-.84,6.79,6.79,0,0,0,2.35-2.23A9.91,9.91,0,0,0,664,44.46a17.12,17.12,0,0,0,.39-3.67A13.28,13.28,0,0,0,664,37.3Z"/><path class="cls-1" d="M676.66,28.22v5.4h.1A11.43,11.43,0,0,1,680.52,29a9.45,9.45,0,0,1,5.65-1.38v4.45a12,12,0,0,0-4.31.69,6.81,6.81,0,0,0-2.87,2,8.38,8.38,0,0,0-1.59,3.25,17.5,17.5,0,0,0-.49,4.38V53.81H672.7V28.22Z"/><path class="cls-1" d="M687.54,35.77a12,12,0,0,1,2.37-4.26,11.24,11.24,0,0,1,3.91-2.84,14.33,14.33,0,0,1,10.72,0,11.22,11.22,0,0,1,3.88,2.84,12,12,0,0,1,2.38,4.26,17,17,0,0,1,.79,5.27,16.79,16.79,0,0,1-.79,5.25,12,12,0,0,1-2.38,4.23,10.92,10.92,0,0,1-3.88,2.82,14.59,14.59,0,0,1-10.72,0,10.94,10.94,0,0,1-3.91-2.82,12,12,0,0,1-2.37-4.23,16.79,16.79,0,0,1-.8-5.25A17,17,0,0,1,687.54,35.77Zm4.28,9.4a8.52,8.52,0,0,0,1.71,3,7.36,7.36,0,0,0,2.54,1.86,7.62,7.62,0,0,0,3.1.64,7.54,7.54,0,0,0,3.09-.64,7.39,7.39,0,0,0,2.55-1.86,8.52,8.52,0,0,0,1.71-3,14.07,14.07,0,0,0,0-8.26,8.84,8.84,0,0,0-1.71-3A7.32,7.32,0,0,0,702.26,32a7.54,7.54,0,0,0-3.09-.64,7.62,7.62,0,0,0-3.1.64,7.29,7.29,0,0,0-2.54,1.88,8.84,8.84,0,0,0-1.71,3A12.5,12.5,0,0,0,691.2,41,12.5,12.5,0,0,0,691.82,45.17Z"/><path class="cls-1" d="M734.16,53.81V50.35h-.1a6.18,6.18,0,0,1-3.27,3.07,12.59,12.59,0,0,1-4.9.94,11.62,11.62,0,0,1-5.17-1.09,10.64,10.64,0,0,1-3.66-2.92,12.69,12.69,0,0,1-2.21-4.26,17.66,17.66,0,0,1-.74-5.15,18.06,18.06,0,0,1,.72-5.15A12.14,12.14,0,0,1,717,31.56a10.52,10.52,0,0,1,3.66-2.87,11.65,11.65,0,0,1,5.12-1.06,12.64,12.64,0,0,1,2.13.19,11.57,11.57,0,0,1,2.28.67,9.84,9.84,0,0,1,2.15,1.24,6.69,6.69,0,0,1,1.71,1.91h.1V18.47h4.21V53.81ZM719,44.73a9.36,9.36,0,0,0,1.43,3A7.11,7.11,0,0,0,723,49.9a7.46,7.46,0,0,0,3.54.79,7,7,0,0,0,6-3,9.35,9.35,0,0,0,1.36-3.1,14.78,14.78,0,0,0,.42-3.51,14.64,14.64,0,0,0-.45-3.64,8.74,8.74,0,0,0-1.41-3.09,7.16,7.16,0,0,0-2.5-2.15,7.73,7.73,0,0,0-3.71-.82,7.22,7.22,0,0,0-3.61.84,6.63,6.63,0,0,0-2.38,2.23A9.87,9.87,0,0,0,719,37.58a17,17,0,0,0-.39,3.66A12.83,12.83,0,0,0,719,44.73Z"/><path class="cls-1" d="M760.8,53.81V49.75h-.09a8.59,8.59,0,0,1-3.42,3.49,10.27,10.27,0,0,1-4.9,1.12,11.61,11.61,0,0,1-4.21-.67,6.7,6.7,0,0,1-2.72-1.91A7.14,7.14,0,0,1,744,48.84a15.88,15.88,0,0,1-.42-3.79V28.22h4.21V45.54A4.77,4.77,0,0,0,753,50.69a8.49,8.49,0,0,0,3.34-.59,6.43,6.43,0,0,0,2.36-1.68,7.54,7.54,0,0,0,1.41-2.55,10.53,10.53,0,0,0,.47-3.2V28.22h4.2V53.81Z"/><path class="cls-1" d="M785.39,32.67a6.39,6.39,0,0,0-4.26-1.33,7.89,7.89,0,0,0-3.81.84,6.76,6.76,0,0,0-2.45,2.23,9.29,9.29,0,0,0-1.31,3.19,17.71,17.71,0,0,0-.39,3.74,13.72,13.72,0,0,0,.42,3.46,9.24,9.24,0,0,0,1.31,3,6.7,6.7,0,0,0,2.32,2.1,7,7,0,0,0,3.42.79,6.86,6.86,0,0,0,4.87-1.63,7.36,7.36,0,0,0,2.16-4.6H792a11.8,11.8,0,0,1-3.53,7.32,11.11,11.11,0,0,1-7.75,2.58,13.43,13.43,0,0,1-5.17-.94,10,10,0,0,1-3.77-2.68,11.57,11.57,0,0,1-2.27-4.13,17,17,0,0,1-.77-5.27,18.89,18.89,0,0,1,.74-5.37,12.62,12.62,0,0,1,2.25-4.36,10.57,10.57,0,0,1,3.79-2.92,12.38,12.38,0,0,1,5.3-1.06,15.3,15.3,0,0,1,4.08.52,10,10,0,0,1,3.37,1.6,9,9,0,0,1,2.4,2.75,10.36,10.36,0,0,1,1.19,3.94h-4.36A6.43,6.43,0,0,0,785.39,32.67Z"/><path class="cls-1" d="M806.71,28.22v3.71h-5.1V47.82a4.74,4.74,0,0,0,.12,1.19,1.18,1.18,0,0,0,.47.69,1.92,1.92,0,0,0,1,.32,13.72,13.72,0,0,0,1.61.08h1.93v3.71h-3.22a15.07,15.07,0,0,1-2.8-.22,4.11,4.11,0,0,1-1.88-.82,3.41,3.41,0,0,1-1.06-1.68,9.74,9.74,0,0,1-.35-2.87V31.93H793V28.22h4.36V20.55h4.21v7.67Z"/><path class="cls-1" d="M813.42,48.09A4.51,4.51,0,0,0,815,49.63a7.1,7.1,0,0,0,2.18.82,12.85,12.85,0,0,0,2.5.24,15.31,15.31,0,0,0,2.08-.15,7.45,7.45,0,0,0,2-.54,3.7,3.7,0,0,0,1.51-1.16,3.09,3.09,0,0,0,.6-2,2.8,2.8,0,0,0-1.24-2.47A10.78,10.78,0,0,0,821.52,43c-1.24-.34-2.59-.65-4-.94a20.16,20.16,0,0,1-4-1.18,8.32,8.32,0,0,1-3.1-2.16,5.61,5.61,0,0,1-1.23-3.86,6.09,6.09,0,0,1,.86-3.31,7.08,7.08,0,0,1,2.23-2.26,10.42,10.42,0,0,1,3.07-1.28,14.17,14.17,0,0,1,3.39-.42,20,20,0,0,1,4,.37,9.32,9.32,0,0,1,3.24,1.28,6.74,6.74,0,0,1,2.25,2.48,9.41,9.41,0,0,1,1,3.89H825a4.06,4.06,0,0,0-2-3.37,6.32,6.32,0,0,0-1.86-.72,9.46,9.46,0,0,0-2.05-.22,12.39,12.39,0,0,0-1.91.15,6.44,6.44,0,0,0-1.76.52,3.42,3.42,0,0,0-1.28,1,2.5,2.5,0,0,0-.5,1.61,2.37,2.37,0,0,0,.77,1.8,6,6,0,0,0,1.95,1.19,17.39,17.39,0,0,0,2.68.79l3,.67a32,32,0,0,1,3.09.84,10.07,10.07,0,0,1,2.67,1.31,6.28,6.28,0,0,1,1.88,2.06,6,6,0,0,1,.72,3.07,7.15,7.15,0,0,1-1,3.86,7.56,7.56,0,0,1-2.53,2.47A10.33,10.33,0,0,1,823.3,54a20.67,20.67,0,0,1-3.89.38,17.85,17.85,0,0,1-4.06-.45,10,10,0,0,1-3.41-1.46,7.58,7.58,0,0,1-2.38-2.67,9.39,9.39,0,0,1-1-4h4.21A4.73,4.73,0,0,0,813.42,48.09Z"/><path class="cls-1" d="M865.05,18.47q5.06,0,7.9,2.47a8.54,8.54,0,0,1,2.84,6.79,10.77,10.77,0,0,1-1.46,5.64,7.46,7.46,0,0,1-4.68,3.31v.1a6.29,6.29,0,0,1,2.5,1,5.51,5.51,0,0,1,1.54,1.66,7.53,7.53,0,0,1,.84,2.15,23.74,23.74,0,0,1,.42,2.48c.07.86.12,1.73.15,2.62a20.73,20.73,0,0,0,.25,2.63,15.64,15.64,0,0,0,.57,2.45A5.82,5.82,0,0,0,877,53.81h-5.25a3,3,0,0,1-.67-1.48,15.75,15.75,0,0,1-.22-2.11c0-.77-.06-1.61-.1-2.5a17.5,17.5,0,0,0-.29-2.62c-.14-.86-.3-1.68-.5-2.45a5.75,5.75,0,0,0-.94-2,4.68,4.68,0,0,0-1.68-1.39,6.36,6.36,0,0,0-2.77-.52H853.12v15.1h-4.7V18.47Zm1,16a6.86,6.86,0,0,0,2.6-1,5.25,5.25,0,0,0,1.78-1.93,6.44,6.44,0,0,0,.67-3.14,6.35,6.35,0,0,0-1.49-4.36q-1.49-1.68-4.8-1.68H853.12V34.75h9.8A19.54,19.54,0,0,0,866,34.51Z"/><path class="cls-1" d="M898.5,52.18a11.62,11.62,0,0,1-7.23,2.18,13.19,13.19,0,0,1-5.32-1,10.45,10.45,0,0,1-3.78-2.78,11.55,11.55,0,0,1-2.3-4.25,20,20,0,0,1-.87-5.4,15.46,15.46,0,0,1,.89-5.34,12.75,12.75,0,0,1,2.5-4.21,11.27,11.27,0,0,1,3.81-2.77,11.66,11.66,0,0,1,4.83-1A10.55,10.55,0,0,1,896.7,29a11.16,11.16,0,0,1,3.61,3.59,14.14,14.14,0,0,1,1.88,4.75,20,20,0,0,1,.42,4.9H883.45a10.16,10.16,0,0,0,.4,3.19,7.06,7.06,0,0,0,4,4.53,8.74,8.74,0,0,0,3.61.69,7.28,7.28,0,0,0,4.38-1.23,6,6,0,0,0,2.26-3.77h4.15A10.2,10.2,0,0,1,898.5,52.18Zm-1-16.44a7.2,7.2,0,0,0-1.54-2.3,7.32,7.32,0,0,0-2.27-1.53,7.22,7.22,0,0,0-2.9-.57,7.36,7.36,0,0,0-2.95.57,6.88,6.88,0,0,0-2.25,1.56,7.45,7.45,0,0,0-1.48,2.3,8.68,8.68,0,0,0-.65,2.8h14.71A8.74,8.74,0,0,0,897.49,35.74Z"/><path class="cls-1" d="M925.47,61q-2.87,3.12-9,3.12a17.71,17.71,0,0,1-3.64-.4,10.77,10.77,0,0,1-3.36-1.29,7.82,7.82,0,0,1-2.5-2.32,6.58,6.58,0,0,1-1.09-3.52h4.21a3.1,3.1,0,0,0,.71,1.93,5.22,5.22,0,0,0,1.64,1.29,7.89,7.89,0,0,0,2.1.72,11.27,11.27,0,0,0,2.18.22,7.76,7.76,0,0,0,3.51-.72,6.64,6.64,0,0,0,2.38-2,8.07,8.07,0,0,0,1.36-3,17,17,0,0,0,.42-3.91V49.46h-.1A7.08,7.08,0,0,1,921,53a10.27,10.27,0,0,1-4.68,1.11,11.33,11.33,0,0,1-5-1,10.46,10.46,0,0,1-3.56-2.8,11.69,11.69,0,0,1-2.15-4.11,16.83,16.83,0,0,1-.72-5,19.74,19.74,0,0,1,.59-4.68,12.85,12.85,0,0,1,2-4.35,10.9,10.9,0,0,1,3.66-3.22,11.45,11.45,0,0,1,5.6-1.26,9.43,9.43,0,0,1,4.45,1.06,7.45,7.45,0,0,1,3.17,3.19h0V28.22h4V51.63Q928.34,57.92,925.47,61ZM920.1,49.53a6.93,6.93,0,0,0,2.35-2.28,10.45,10.45,0,0,0,1.31-3.19,15.52,15.52,0,0,0,.42-3.56,14.22,14.22,0,0,0-.39-3.32,9.42,9.42,0,0,0-1.27-3,6.48,6.48,0,0,0-2.25-2.1,6.63,6.63,0,0,0-3.36-.79,7.17,7.17,0,0,0-3.47.77,6.66,6.66,0,0,0-2.35,2,8.75,8.75,0,0,0-1.34,3,14.42,14.42,0,0,0-.42,3.51,17.68,17.68,0,0,0,.35,3.47,9.88,9.88,0,0,0,1.19,3.14,6.73,6.73,0,0,0,2.22,2.28,6.43,6.43,0,0,0,3.47.87A6.81,6.81,0,0,0,920.1,49.53Z"/><path class="cls-1" d="M950.73,53.81V49.75h-.1a8.57,8.57,0,0,1-3.41,3.49,10.27,10.27,0,0,1-4.9,1.12,11.57,11.57,0,0,1-4.21-.67,6.7,6.7,0,0,1-2.72-1.91,7.14,7.14,0,0,1-1.46-2.94,15.88,15.88,0,0,1-.42-3.79V28.22h4.2V45.54a4.79,4.79,0,0,0,5.2,5.15,8.49,8.49,0,0,0,3.34-.59,6.31,6.31,0,0,0,2.35-1.68A7.22,7.22,0,0,0,950,45.87a10.23,10.23,0,0,0,.48-3.2V28.22h4.2V53.81Z"/><path class="cls-1" d="M964.18,18.47V53.81H960V18.47Z"/><path class="cls-1" d="M992.27,53.71a5.92,5.92,0,0,1-3,.65,3.61,3.61,0,0,1-2.59-.92,4,4,0,0,1-1-3,10.16,10.16,0,0,1-4,3,13.4,13.4,0,0,1-5,.92,13.54,13.54,0,0,1-3.29-.4,7.62,7.62,0,0,1-2.7-1.24,5.94,5.94,0,0,1-1.81-2.2,7.51,7.51,0,0,1-.66-3.29,7.51,7.51,0,0,1,.74-3.57,6.55,6.55,0,0,1,1.95-2.25,9,9,0,0,1,2.78-1.31c1-.3,2.1-.54,3.19-.74s2.25-.41,3.29-.52a18.16,18.16,0,0,0,2.75-.5,4.43,4.43,0,0,0,1.88-.94,2.29,2.29,0,0,0,.69-1.8,4.16,4.16,0,0,0-.52-2.23,3.57,3.57,0,0,0-1.33-1.29,5.45,5.45,0,0,0-1.84-.59,13.57,13.57,0,0,0-2-.15,9,9,0,0,0-4.46,1c-1.18.68-1.83,2-1.93,3.84h-4.2a9,9,0,0,1,1-4,7.48,7.48,0,0,1,2.37-2.65A10.16,10.16,0,0,1,976,28.07a17.75,17.75,0,0,1,4.09-.44,24.76,24.76,0,0,1,3.44.24,8.87,8.87,0,0,1,3.09,1A5.94,5.94,0,0,1,988.81,31a6.91,6.91,0,0,1,.84,3.61V47.78a10.15,10.15,0,0,0,.17,2.17q.18.69,1.17.69a5.08,5.08,0,0,0,1.28-.19Zm-6.83-13.12a5.17,5.17,0,0,1-2.08.87c-.86.18-1.75.33-2.69.44l-2.85.39a10.35,10.35,0,0,0-2.57.72,4.68,4.68,0,0,0-1.86,1.4,3.92,3.92,0,0,0-.72,2.49,3.41,3.41,0,0,0,.42,1.75,3.67,3.67,0,0,0,1.09,1.16,4.74,4.74,0,0,0,1.56.64,8.75,8.75,0,0,0,1.88.19,10,10,0,0,0,3.57-.56,7.64,7.64,0,0,0,2.42-1.43A5.73,5.73,0,0,0,985,46.78a4.87,4.87,0,0,0,.44-1.9Z"/><path class="cls-1" d="M1005.81,28.22v3.71h-5.1V47.82a4.26,4.26,0,0,0,.13,1.19,1.18,1.18,0,0,0,.47.69,1.91,1.91,0,0,0,1,.32,13.72,13.72,0,0,0,1.61.08h1.93v3.71h-3.22a14.88,14.88,0,0,1-2.79-.22,4,4,0,0,1-1.88-.82,3.42,3.42,0,0,1-1.07-1.68,9.79,9.79,0,0,1-.34-2.87V31.93h-4.36V28.22h4.36V20.55h4.2v7.67Z"/><path class="cls-1" d="M1007.8,35.77a12,12,0,0,1,2.38-4.26,11.15,11.15,0,0,1,3.91-2.84,14.31,14.31,0,0,1,10.71,0,11.26,11.26,0,0,1,3.89,2.84,12,12,0,0,1,2.38,4.26,17.26,17.26,0,0,1,.79,5.27,17.09,17.09,0,0,1-.79,5.25,12,12,0,0,1-2.38,4.23,11,11,0,0,1-3.89,2.82,14.57,14.57,0,0,1-10.71,0,10.86,10.86,0,0,1-3.91-2.82,12,12,0,0,1-2.38-4.23A16.79,16.79,0,0,1,1007,41,17,17,0,0,1,1007.8,35.77Zm4.28,9.4a8.52,8.52,0,0,0,1.71,3,7.47,7.47,0,0,0,5.64,2.5,7.62,7.62,0,0,0,3.1-.64,7.49,7.49,0,0,0,2.55-1.86,8.66,8.66,0,0,0,1.7-3,12.5,12.5,0,0,0,.62-4.13,12.5,12.5,0,0,0-.62-4.13,9,9,0,0,0-1.7-3,7.42,7.42,0,0,0-2.55-1.88,7.62,7.62,0,0,0-3.1-.64,7.54,7.54,0,0,0-3.09.64,7.42,7.42,0,0,0-2.55,1.88,8.84,8.84,0,0,0-1.71,3,14.07,14.07,0,0,0,0,8.26Z"/><path class="cls-1" d="M1039.63,28.22v5.4h.1a11.43,11.43,0,0,1,3.76-4.61,9.45,9.45,0,0,1,5.65-1.38v4.45a12,12,0,0,0-4.31.69,6.81,6.81,0,0,0-2.87,2,8.37,8.37,0,0,0-1.58,3.25,17,17,0,0,0-.5,4.38V53.81h-4.21V28.22Z"/><path class="cls-1" d="M1063,57.23a26.23,26.23,0,0,1-1.46,3.17,8.87,8.87,0,0,1-1.58,2.1,5.5,5.5,0,0,1-1.93,1.19,7.65,7.65,0,0,1-2.45.37,12.43,12.43,0,0,1-1.49-.1,7,7,0,0,1-1.43-.35V59.75a6.2,6.2,0,0,0,1.26.42,5.13,5.13,0,0,0,1.21.18,3.65,3.65,0,0,0,2.16-.62,3.9,3.9,0,0,0,1.31-1.76l1.73-4.31-10.15-25.44h4.75l7.48,20.94h.1l7.18-20.94h4.45Z"/><path class="cls-1" d="M1105.93,18.47l13.81,35.34h-5.2l-3.86-10.64h-15l-4,10.64H1087l13.76-35.34Zm3.27,20.74-5.9-16.48h-.09l-6,16.48Z"/><path class="cls-1" d="M1140.28,61q-2.87,3.12-9,3.12a17.71,17.71,0,0,1-3.64-.4,10.87,10.87,0,0,1-3.36-1.29,7.82,7.82,0,0,1-2.5-2.32,6.67,6.67,0,0,1-1.09-3.52h4.21a3.1,3.1,0,0,0,.71,1.93,5.22,5.22,0,0,0,1.64,1.29,7.89,7.89,0,0,0,2.1.72,11.27,11.27,0,0,0,2.18.22,7.73,7.73,0,0,0,3.51-.72,6.64,6.64,0,0,0,2.38-2,8.07,8.07,0,0,0,1.36-3,17,17,0,0,0,.42-3.91V49.46h-.1A7.08,7.08,0,0,1,1135.8,53a10.27,10.27,0,0,1-4.68,1.11,11.33,11.33,0,0,1-5-1,10.55,10.55,0,0,1-3.56-2.8,11.69,11.69,0,0,1-2.15-4.11,16.83,16.83,0,0,1-.72-5,19.74,19.74,0,0,1,.59-4.68,12.85,12.85,0,0,1,2-4.35,10.84,10.84,0,0,1,3.67-3.22,11.38,11.38,0,0,1,5.59-1.26,9.4,9.4,0,0,1,4.45,1.06,7.45,7.45,0,0,1,3.17,3.19h0V28.22h4V51.63Q1143.15,57.92,1140.28,61Zm-5.37-11.51a6.93,6.93,0,0,0,2.35-2.28,10.21,10.21,0,0,0,1.31-3.19,15.52,15.52,0,0,0,.42-3.56,14.22,14.22,0,0,0-.39-3.32,9.64,9.64,0,0,0-1.26-3,6.38,6.38,0,0,0-5.62-2.89,7.17,7.17,0,0,0-3.47.77,6.66,6.66,0,0,0-2.35,2,8.55,8.55,0,0,0-1.33,3,14,14,0,0,0-.43,3.51,17.68,17.68,0,0,0,.35,3.47,9.88,9.88,0,0,0,1.19,3.14,6.66,6.66,0,0,0,2.23,2.28,6.39,6.39,0,0,0,3.46.87A6.78,6.78,0,0,0,1134.91,49.53Z"/><path class="cls-1" d="M1166.54,52.18a11.62,11.62,0,0,1-7.23,2.18,13.15,13.15,0,0,1-5.32-1,10.45,10.45,0,0,1-3.78-2.78,11.57,11.57,0,0,1-2.31-4.25,20.35,20.35,0,0,1-.86-5.4,15.23,15.23,0,0,1,.89-5.34,12.59,12.59,0,0,1,2.5-4.21,11.27,11.27,0,0,1,3.81-2.77,11.66,11.66,0,0,1,4.83-1,10.49,10.49,0,0,1,5.66,1.41,11.19,11.19,0,0,1,3.62,3.59,14.36,14.36,0,0,1,1.88,4.75,21,21,0,0,1,.42,4.9h-19.16a10.16,10.16,0,0,0,.4,3.19,7,7,0,0,0,4,4.53,8.74,8.74,0,0,0,3.61.69,7.32,7.32,0,0,0,4.38-1.23,6,6,0,0,0,2.25-3.77h4.16A10.25,10.25,0,0,1,1166.54,52.18Zm-1-16.44a7.37,7.37,0,0,0-1.54-2.3,7.25,7.25,0,0,0-2.28-1.53,7.17,7.17,0,0,0-2.89-.57,7.36,7.36,0,0,0-3,.57,6.88,6.88,0,0,0-2.25,1.56,7.27,7.27,0,0,0-1.48,2.3,8.68,8.68,0,0,0-.65,2.8h14.7A8.73,8.73,0,0,0,1165.53,35.74Z"/><path class="cls-1" d="M1178.16,28.22v4.06h.1a8.85,8.85,0,0,1,8.31-4.65,11.17,11.17,0,0,1,4.21.69,6.83,6.83,0,0,1,2.72,1.93,7.14,7.14,0,0,1,1.46,2.94,15.94,15.94,0,0,1,.42,3.79V53.81h-4.2V36.49a4.79,4.79,0,0,0-5.2-5.15,8.67,8.67,0,0,0-3.34.59,6.23,6.23,0,0,0-2.35,1.69,7,7,0,0,0-1.41,2.55,10.12,10.12,0,0,0-.47,3.19V53.81h-4.21V28.22Z"/><path class="cls-1" d="M1215.93,32.67a6.41,6.41,0,0,0-4.26-1.33,7.84,7.84,0,0,0-3.81.84,6.68,6.68,0,0,0-2.45,2.23,9.29,9.29,0,0,0-1.31,3.19,17.08,17.08,0,0,0-.4,3.74,14.19,14.19,0,0,0,.42,3.46,9.46,9.46,0,0,0,1.31,3,6.74,6.74,0,0,0,2.33,2.1,8,8,0,0,0,8.29-.84,7.35,7.35,0,0,0,2.15-4.6h4.31a11.75,11.75,0,0,1-3.54,7.32,11.11,11.11,0,0,1-7.75,2.58,13.47,13.47,0,0,1-5.17-.94,10,10,0,0,1-3.76-2.68,11.44,11.44,0,0,1-2.28-4.13,17.3,17.3,0,0,1-.76-5.27A18.54,18.54,0,0,1,1200,36a12.29,12.29,0,0,1,2.25-4.36,10.57,10.57,0,0,1,3.79-2.92,12.33,12.33,0,0,1,5.29-1.06,15.38,15.38,0,0,1,4.09.52,9.86,9.86,0,0,1,3.36,1.6,8.73,8.73,0,0,1,2.4,2.75,10,10,0,0,1,1.19,3.94H1218A6.54,6.54,0,0,0,1215.93,32.67Z"/><path class="cls-1" d="M1235.72,57.23a27.75,27.75,0,0,1-1.47,3.17,8.61,8.61,0,0,1-1.58,2.1,5.5,5.5,0,0,1-1.93,1.19,7.65,7.65,0,0,1-2.45.37,12.26,12.26,0,0,1-1.48-.1,6.89,6.89,0,0,1-1.44-.35V59.75a6.2,6.2,0,0,0,1.26.42,5.13,5.13,0,0,0,1.21.18,3.65,3.65,0,0,0,2.16-.62,3.83,3.83,0,0,0,1.31-1.76l1.73-4.31L1222.9,28.22h4.75l7.47,20.94h.1l7.18-20.94h4.45Z"/></g><g id="Layer_2_copy" data-name="Layer 2 copy"><path class="cls-1" d="M58,11.55c-.41.77-.76,1.22-.7,1.82s.68,1,1,1.62c.27-.7.72-1.22.67-1.77S58.13,12,58,11.55"/><path class="cls-1" d="M68.37,11.55c.4.77.75,1.22.7,1.82s-.68,1-1,1.62c-.27-.7-.72-1.22-.67-1.77s.81-1.27,1-1.67"/><path class="cls-1" d="M52,11.1a.7.7,0,1,0-.7-.7.7.7,0,0,0,.7.7"/><path class="cls-1" d="M52.5,12.1a.71.71,0,0,0-1.41,0,.71.71,0,0,0,1.41,0"/><path class="cls-1" d="M52.84,13.8a.7.7,0,1,0-.7.7.7.7,0,0,0,.7-.7"/><path class="cls-1" d="M55.91,7.76a.7.7,0,1,0-.7-.7.7.7,0,0,0,.7.7"/><path class="cls-1" d="M54.16,8.3a.7.7,0,1,0-.7-.7.7.7,0,0,0,.7.7"/><path class="cls-1" d="M52.79,9.5a.7.7,0,1,0-.7-.7.7.7,0,0,0,.7.7"/><path class="cls-1" d="M57.74,7.93a.7.7,0,0,0,0-1.4.7.7,0,1,0,0,1.4"/><path class="cls-1" d="M59.47,8.43a.7.7,0,1,0-.7-.7.7.7,0,0,0,.7.7"/><path class="cls-1" d="M61.11,9.2a.7.7,0,0,0,.7-.7.7.7,0,1,0-1.4,0,.7.7,0,0,0,.7.7"/><path class="cls-1" d="M73.61,10.4a.7.7,0,1,0,.7-.7.7.7,0,0,0-.7.7"/><path class="cls-1" d="M74.55,11.4a.7.7,0,1,0,.7.7.7.7,0,0,0-.7-.7"/><path class="cls-1" d="M74.2,13.1a.7.7,0,1,0,.71.7.7.7,0,0,0-.71-.7"/><path class="cls-1" d="M70.43,7.76a.7.7,0,1,0-.7-.7.7.7,0,0,0,.7.7"/><path class="cls-1" d="M72.18,8.3a.7.7,0,1,0-.7-.7.7.7,0,0,0,.7.7"/><path class="cls-1" d="M73.55,9.5a.7.7,0,1,0-.7-.7.7.7,0,0,0,.7.7"/><path class="cls-1" d="M68.6,7.93a.7.7,0,1,0-.7-.7.7.7,0,0,0,.7.7"/><path class="cls-1" d="M66.87,8.43a.7.7,0,1,0-.7-.7.7.7,0,0,0,.7.7"/><path class="cls-1" d="M64.53,8.5a.7.7,0,1,0,1.4,0,.7.7,0,1,0-1.4,0"/><path class="cls-1" d="M62,12.29h.79v-3A3,3,0,0,1,62,9.05Z"/><path class="cls-1" d="M64.37,9.05a3,3,0,0,1-.79.24v3h.79Z"/><path class="cls-1" d="M62.72,5.73V4A2.2,2.2,0,0,0,61,5.73Z"/><path class="cls-1" d="M63.63,5.73h1.71A2.21,2.21,0,0,0,63.63,4Z"/><path class="cls-1" d="M61,6.59a2.2,2.2,0,0,0,4.3,0Z"/><path class="cls-1" d="M64.38,3.67a2.44,2.44,0,0,1-1-1.55,2.82,2.82,0,0,1,1.59,1V.72a2.77,2.77,0,0,1-1.59,1A3.59,3.59,0,0,1,64.34,0H62a3.5,3.5,0,0,1,.92,1.73,2.77,2.77,0,0,1-1.59-1V3.13a2.82,2.82,0,0,1,1.59-1,2.4,2.4,0,0,1-1,1.55Z"/><path class="cls-1" d="M64.44,54a.87.87,0,1,1,.86-.86.86.86,0,0,1-.86.86m-4.13-1.28a.95.95,0,1,1,.94-.94.95.95,0,0,1-.94.94m-1.43-4.2-.23-.17a.84.84,0,0,0-1.18,0,4.27,4.27,0,0,0-.5.54l-.24.27.16.13c.45.36.52.76.39,1a.37.37,0,0,1-.24.18,1.19,1.19,0,0,1-.86-.22l-.17-.1-.1.17-.09.13s-.07.11-.12.18a1.74,1.74,0,0,0-.28.8.47.47,0,0,0,0,.17.8.8,0,0,0,.44.46l.11.06.7.42a1.2,1.2,0,0,1-1.2.05,1.81,1.81,0,0,1-1-1.32,3.71,3.71,0,0,1,.66-1.87l.07-.1-.07-.11a4.19,4.19,0,0,1-.3-.6,5.43,5.43,0,0,1,.68.13l.11,0,.08-.08a3.48,3.48,0,0,1,2.05-1.23,1.47,1.47,0,0,1,1.09.55,1.64,1.64,0,0,1,.4.84c-.12-.09-.26-.19-.39-.3M67,51.81a44.79,44.79,0,0,1-7.29-2.61v0a1.92,1.92,0,0,0-.5-1.49A1.86,1.86,0,0,0,57.78,47a2,2,0,0,0-.67.13,12.44,12.44,0,0,1-1-1,11.87,11.87,0,0,1-2.16-3.76,12.57,12.57,0,0,1-.64-2.5A2.27,2.27,0,0,1,51,41.51c0-.15,0-.51-.12-.55a1.72,1.72,0,0,1-2.16.4,18.68,18.68,0,0,0,.81,2.86,17,17,0,0,0,3.17,5.32A15.63,15.63,0,0,0,54.11,51a2.81,2.81,0,0,0,0,.29,2.21,2.21,0,0,0,1.21,1.69,1.7,1.7,0,0,0,1.8-.21A19.94,19.94,0,0,0,61,54.24a17.61,17.61,0,0,0,4.49.71,8,8,0,0,0,3.9-1.39,9.69,9.69,0,0,0,1.48-1.12A1,1,0,0,0,71,52.3,12.37,12.37,0,0,1,67,51.81"/><path class="cls-1" d="M66.34,60.76a.76.76,0,0,0-.59-.47c-.91,0-.55,2.38-1.63,2.38a.64.64,0,0,1-.71-.64c0-.33.23-.43.23-.7s-.21-.37-.45-.37-.44.1-.44.37.24.37.24.7a.66.66,0,0,1-.73.64c-1.07,0-.71-2.38-1.62-2.38a.78.78,0,0,0-.59.47,2.15,2.15,0,0,1-.28-.93,1,1,0,0,1,1-1c1.2,0,.92,1.64,1.5,1.64a.41.41,0,0,0,.44-.4c0-.47-.84-.91-.84-1.58s.61-1.23,1.28-1.77c.67.54,1.29,1.1,1.29,1.77s-.84,1.11-.84,1.58a.4.4,0,0,0,.44.4c.58,0,.3-1.64,1.5-1.64a1,1,0,0,1,1,1,2.15,2.15,0,0,1-.28.93m-3.15,3.32a.59.59,0,1,1,.59-.58.58.58,0,0,1-.59.58m2.39-5.76a1.5,1.5,0,0,0-.44.07V55.75a18.26,18.26,0,0,1-3.86-.58V58.4a1.45,1.45,0,0,0-.47-.08,1.5,1.5,0,0,0-1.5,1.51,2.76,2.76,0,0,0,.75,1.7c.17-.42.33-.75.56-.75.46,0,.25,2.29,1.59,2.35a1.16,1.16,0,0,0-.07.37,1,1,0,0,0,2.1,0,1.15,1.15,0,0,0-.06-.37c1.34-.06,1.11-2.35,1.58-2.35.23,0,.37.31.57.75a2.76,2.76,0,0,0,.75-1.7,1.5,1.5,0,0,0-1.5-1.51"/><path class="cls-1" d="M96.57,61.5a.28.28,0,0,0-.34-.17c-3.1.9-6.93-1.66-10.64-4.13-3.12-2.08-6.07-4-8.59-4a5.08,5.08,0,0,0-2.48.58,4.48,4.48,0,0,0-2,2.28,14.14,14.14,0,0,1-1.23,2.31,3.39,3.39,0,0,0-.74,1.78,1.91,1.91,0,0,0,.64,1.38,6.78,6.78,0,0,0,1.62,1.11l.48.23c.61.3,1,.5,1.06.85a21.11,21.11,0,0,1-4.6,1.3,41.3,41.3,0,0,1-13.19,0A20.79,20.79,0,0,1,52,63.67c.05-.51.43-.72,1.1-1a5.24,5.24,0,0,0,.48-.23,9.12,9.12,0,0,0,1.59-1,1.66,1.66,0,0,0,.64-1.29,3.39,3.39,0,0,0-.74-1.78A13.41,13.41,0,0,1,53.82,56a4.47,4.47,0,0,0-2-2.27,5.11,5.11,0,0,0-2.48-.59c-2.52,0-5.47,2-8.59,4-3.71,2.47-7.55,5-10.64,4.13a.27.27,0,0,0-.34.18.28.28,0,0,0,.15.35,12.54,12.54,0,0,1,2.57,1.69c1.11.86,2.17,1.69,3.33,1.69a8.08,8.08,0,0,0,3.71-1.1,38.74,38.74,0,0,0,3.78-2.39c2.45-1.66,5-3.39,7.36-3.58-.25.26-.49.48-.72.68a2.88,2.88,0,0,0-1.32,2.29,5.22,5.22,0,0,0,.71,2.36c.13.25.26.53.41.85a9.56,9.56,0,0,1,.53,1.72c.07.29.15.6.25,1a3.63,3.63,0,0,0,2.19,2.52c2,1,5.55,1.57,10.43,1.57s8.4-.53,10.43-1.57a3.6,3.6,0,0,0,2.19-2.52c.11-.38.18-.69.25-1a8.84,8.84,0,0,1,.54-1.72c.2-.43.38-.78.55-1.1a4,4,0,0,0,.66-2,3,3,0,0,0-1.39-2.35c-.24-.21-.49-.44-.75-.71,2.4.19,4.92,1.91,7.37,3.58a39.32,39.32,0,0,0,3.78,2.38,8.05,8.05,0,0,0,3.71,1.1c1.16,0,2.21-.82,3.33-1.69a13,13,0,0,1,2.57-1.69.28.28,0,0,0,.15-.35"/><path class="cls-1" d="M63.6,37.5V25.91a8.75,8.75,0,0,1,3.49.89,10.18,10.18,0,0,1,3.2,2.53,12.27,12.27,0,0,1,2.16,3.76,13.34,13.34,0,0,1,.79,4.41Zm-.41-16.43a12.27,12.27,0,0,0-6.87,1.85c-.76-.45-1.09-.9-1.09-1.42,0-1.87,5.28-2,8-2h0c2.68,0,8,.17,8,2,0,.52-.33,1-1.1,1.42a12.27,12.27,0,0,0-6.87-1.85M63,37.5H53.15a13.34,13.34,0,0,1,.79-4.41,11.87,11.87,0,0,1,2.16-3.76,10.26,10.26,0,0,1,3.19-2.53A8.91,8.91,0,0,1,63,25.89Zm15-.74a4.07,4.07,0,0,1-1.19-1.38c-.36-.76-1.89-3.78-2.14-4.18a1.88,1.88,0,0,1-.3-.9,1.34,1.34,0,0,1,.33-.8c.12-.15.45-.48.58-.67a2.4,2.4,0,0,1,.27-.36A14,14,0,0,0,73.69,26a15,15,0,0,0-3-2.6,2.19,2.19,0,0,0,1.19-1.85,1.68,1.68,0,0,0-.62-1.31,17.26,17.26,0,0,1,2.67-5.41l-2-.84a3.11,3.11,0,0,1,.44,2.24,2.5,2.5,0,0,1-1.1-1.5,9.06,9.06,0,0,1-.74,2.16,1.83,1.83,0,0,1,1.62-.16,2.35,2.35,0,0,1-2.5.84c-.7-.17-1.41-.55-1.38-1.09a.68.68,0,0,1,.71-.68c.43.05.45.71.32,1,.56-.32,1.15-2,.27-2.23-.7-.19-1.34.76-1.57,1.5-.13-.89-.5-1.74-1.21-1.69-.91.06-.61,1.75-.29,2.18,0-.59.38-.91.65-.89s.56.19.51.73-.82.87-1.7.87a2.17,2.17,0,0,1-2.46-1.88,3.09,3.09,0,0,1,1.77,1.05,10.53,10.53,0,0,1,0-2.69,2.79,2.79,0,0,1-1.74,1.06A3.25,3.25,0,0,1,65,12.9h-3.6a3.23,3.23,0,0,1,1.44,1.85,2.75,2.75,0,0,1-1.71-1.05,11,11,0,0,1,0,2.69,3.09,3.09,0,0,1,1.74-1.05,2.17,2.17,0,0,1-2.45,1.88c-.88,0-1.65-.33-1.71-.87s.27-.71.52-.73.59.3.65.89c.31-.43.61-2.12-.3-2.18-.71-.05-1.07.8-1.21,1.69-.23-.74-.86-1.69-1.56-1.5-.89.24-.3,1.91.27,2.23-.14-.29-.11-.95.32-1a.67.67,0,0,1,.7.68c0,.54-.67.92-1.38,1.09a2.35,2.35,0,0,1-2.49-.83,1.81,1.81,0,0,1,1.64.15,8.61,8.61,0,0,1-.73-2.16A2.6,2.6,0,0,1,54,16.19a3.15,3.15,0,0,1,.44-2.25l-2,.84a17.18,17.18,0,0,1,2.68,5.43,1.66,1.66,0,0,0-.59,1.29,2.18,2.18,0,0,0,1.18,1.85,15,15,0,0,0-3,2.6,16.78,16.78,0,0,0-3.17,5.28c.28.28,1.46,1.58,1.74,1.93a3.16,3.16,0,0,1,.8,1.73,2.64,2.64,0,0,0,.7,1.86,3.28,3.28,0,0,1,.39,1.33H63V48.81a1.48,1.48,0,0,0-1.13.54c1.14.46,2.22.87,3.31,1.21A2.87,2.87,0,0,1,65.8,49s-1.43-.14-2.2-.18V38.08h9.64a13.5,13.5,0,0,1-.79,4.25,12.27,12.27,0,0,1-2.16,3.76,10,10,0,0,1-3.2,2.52c-.19.1-.19.24-.38.32a2.77,2.77,0,0,0-.48.87,4,4,0,0,0-.22,1c.45.13.7.21,1.13.31,3.39.85,4.22.6,4.41.45h0a14.83,14.83,0,0,0,2.13-2,17,17,0,0,0,3.17-5.32A18.51,18.51,0,0,0,78,37.72c0-.41,0-.55,0-1"/><path class="cls-1" d="M69,30.62a.26.26,0,0,0-.1.27.29.29,0,0,0,.29.19.61.61,0,0,0-.22.4.61.61,0,0,0,.45-.1.28.28,0,0,0,.1.33.29.29,0,0,0,.26,0,10.49,10.49,0,0,1,1.44,3.91.64.64,0,0,0-.36-.1.63.63,0,0,0,.2.45H68.64a.29.29,0,0,0-.16-.32.28.28,0,0,0-.33.11.64.64,0,0,0-.19-.42.67.67,0,0,0-.18.42.28.28,0,0,0-.33-.11.31.31,0,0,0-.16.32H65.23a.6.6,0,0,0,.15-.41.59.59,0,0,0-.41.15V32.38a.31.31,0,0,0,.33-.16.29.29,0,0,0-.12-.33.64.64,0,0,0,.43-.19.62.62,0,0,0-.43-.18.29.29,0,0,0,.12-.33A.31.31,0,0,0,65,31V28.21a.63.63,0,0,0,.35.15.68.68,0,0,0-.09-.4,7.36,7.36,0,0,1,1.85.9A8.79,8.79,0,0,1,69,30.62m2.72,5c.17.11.12.37-.1.35a11,11,0,0,0-1.85-4.89s0,0,0,0a.6.6,0,0,0,.41-.5.61.61,0,0,0-.62.27c-.06-.09-.14-.18-.21-.27a9.2,9.2,0,0,0-2.09-2A7.58,7.58,0,0,0,65,27.52a.19.19,0,0,1,.36-.06c0-.3-.24-.46-.39-.4a.27.27,0,0,0-.17.24.72.72,0,0,0-.44-.23.61.61,0,0,0,.14.47.28.28,0,0,0-.26.12.34.34,0,0,0,.33.45.19.19,0,0,1,.11-.34v3.77a.66.66,0,0,0-.63.16.64.64,0,0,0,.63.17V36a.19.19,0,0,1-.1-.35c-.31,0-.44.28-.37.42a.3.3,0,0,0,.31.15.64.64,0,0,0-.16.43.62.62,0,0,0,.43-.16.3.3,0,0,0,.15.31c.14.07.42-.06.42-.37a.19.19,0,0,1-.35-.08H67.8a.63.63,0,0,0,.16.62.62.62,0,0,0,.17-.62H71.3a.19.19,0,0,1-.35.1.34.34,0,0,0,.43.36.3.3,0,0,0,.14-.32.67.67,0,0,0,.44.15.63.63,0,0,0-.18-.42.29.29,0,0,0,.31-.16c.07-.14-.07-.42-.38-.41"/><path class="cls-1" d="M70,34.57a.51.51,0,0,0,.27-.25.3.3,0,0,1-.27,0c.09-.06.21,0,.09-.17s-.19-.19-.3-.06a.7.7,0,0,1-.88-.6.5.5,0,0,0,.26.21l.1,0,.09,0a.61.61,0,0,0,.22,0h0v0a.33.33,0,0,0,.3-.3c0-.31-.27-.46-.6-.74L69,32.43c-.11-.23,0-.43-.32-.85a1.83,1.83,0,0,0-.1-.36,1,1,0,0,0,.18,1.21c.32.35,1,.69,1,1a.21.21,0,0,1-.18.15H69.5l-.07,0-.14-.06a1.64,1.64,0,0,1-.24-.19,7.81,7.81,0,0,1-.71-.87,1.25,1.25,0,0,1-.12-1.13c.22-.31-.14-.94-.35-1.1a.53.53,0,0,0,0-.32.35.35,0,0,1-.2,0c0-.11-.08-.14-.16-.15s-.13-.1-.15-.15-.1.14-.19.14-.16,0-.2,0a.27.27,0,0,1-.24.08c-.13,0-.12.08-.11.17s0,.15.09.18l0,0,.1.12.07-.13c0-.05.22-.06.25.06s0,.11-.06.12l-.28,0c-.07,0-.07.09-.07.16s.09.11.24.07.42-.07.42.06c0,.34-.38.33-.47.74a.76.76,0,0,1-.24-.23,2,2,0,0,0-.29-.35,1.68,1.68,0,0,0-.29-.24c-.14-.08-.15-.15-.15-.29S66,30.1,66,30a.26.26,0,0,0,0-.11.2.2,0,0,0-.18-.12.18.18,0,0,1,.07.12.18.18,0,0,0,0,.07.08.08,0,0,0,0,.12s0,0,0,0a.15.15,0,0,1,0,.06s0,0,0,0-.07-.21-.15-.22h-.06s0,0,0,0-.1-.16-.21-.05.07,0,.08,0a.58.58,0,0,0,0,.1c0,.08.06.12.16.12s0,0,0,0,0,0,0,0,0,0,0,0c-.16-.07-.23,0-.23.07v.07c-.05,0-.07.12,0,.18s0-.08,0-.09l0,0,0,0s0,0,.09,0h0l0,0a0,0,0,0,1,0,0c-.1.1-.08.19,0,.22-.06.11-.24.07-.23-.1-.14.22.08.37.27.29,0,.08,0,.23,0,.23s0,0,0,0,0,0,0,0,0,.12.1.13,0-.06,0-.07a1.19,1.19,0,0,1,.09.15,1.48,1.48,0,0,0,.68.74,1.76,1.76,0,0,0-.48.46c-.12.11-.28.23-.39.17a.68.68,0,0,0-.12-.12.19.19,0,0,0-.13,0l-.07,0a.2.2,0,0,0-.21.06.22.22,0,0,1,.15,0s0,.07,0,.07,0,.11.25.09c0,0,0,0,0,0a.11.11,0,0,1-.11,0c-.09,0-.14-.1-.21,0l0,.06h0c-.08,0-.16.19-.07.25a.14.14,0,0,1,.07-.12l0,0c.06.1.13.15.27-.07,0,0,0,0,0,0s-.11.24,0,.26h.06v0a.19.19,0,0,0,.24.12.2.2,0,0,1-.13-.14H66c.08-.08,0-.18,0-.23s0,0,0,0a.15.15,0,0,0,.21.08.18.18,0,0,0,.08-.13.61.61,0,0,1,.37-.08c0-.07.07-.17.22-.21a.22.22,0,0,1,.27,0,.93.93,0,0,1,.15-.27c0,.61.8.59,1,.95a1.43,1.43,0,0,0-.67-.13c-.2,0-.54.22-.59.45a.86.86,0,0,0,.35.64c-.23.05-.31,0-.53,0h0c-.18,0-.21-.3-.43-.21a.11.11,0,0,0-.06,0h0c-.09,0-.2.1-.18.19a.21.21,0,0,1,.14-.08.1.1,0,0,0,0,0s0,.08.08.08.06,0,.09,0,0,0,0,0-.28-.05-.23.19c0,0,0,0,0,.06s.05.14.17.1-.06,0,0-.08h0s0,0,0,0h0s0,0,0,0,0,0,0,0a.25.25,0,0,0,0,.07c0,.08.11.17.23.08s-.11,0-.12-.06l.06,0s0,0,0-.08,0,0,0,0h.06s0,0,0,0a.14.14,0,0,0,.17.07.11.11,0,0,0,.08-.06l.1.06c0-.09,0-.16.22,0l.14-.11s.18.08.25,0,0-.11,0-.2-.13-.17-.16-.34.35-.47.59-.42a1.38,1.38,0,0,0,.76.84c.28.1.39-.21.49-.17a.19.19,0,0,1,0,.09c0,.13,0,.26,0,.32s-.18,0-.28,0-.1,0-.1.05S69,34.93,69,35a.35.35,0,0,1,.15-.08s0,0,0,0a.13.13,0,0,0,.22.08s0,0,0,0-.19.17-.09.21l.06,0a.16.16,0,0,0,.11.16s0-.07,0-.14h.06c.08,0,0-.15.13-.19h0c0,.09,0,.19,0,.22h.06c0,.06.1.11.21.06s-.08,0-.1-.07l.06-.08c0-.18-.11-.18-.11-.25s.19,0,.19-.21v0c.09,0,.17-.1.18-.17a.49.49,0,0,1-.23,0Z"/><path class="cls-1" d="M61.05,39.94h-.14a.31.31,0,0,0-.36.27c0,.21.13.32.32.34H61c0,.05,0,.09,0,.14,0,.29-.12.78-.21,1.35l-1.47-2.11a7.32,7.32,0,0,1,1.54-.57c.24,0,.29.11.24.59m-.56,3.66-2.32-3.33a4.83,4.83,0,0,0,.74-.22l1.75,2.49c-.06.36-.12.71-.17,1.06m-.24,1.5L57,40.38h.3l.51,0,2.64,3.78c-.06.37-.12.7-.16,1m-3.72-4.69,3.61,5.19a5.13,5.13,0,0,1-3.61-5.19M61.9,40h-.17v-.15a.9.9,0,0,0-1-1c-.55,0-1.62.72-3.12.72A4.08,4.08,0,0,1,55.8,39l-.19.45v0a.37.37,0,0,0-.36-.37.37.37,0,1,0,0,.74.35.35,0,0,0,.28-.14l-.19.45.2.08A6.13,6.13,0,0,0,60,46.17c.44-.12.89-.05.89.43a.37.37,0,0,1-.41.42c-.18,0-.29-.1-.29-.22s.34-.08.38-.22-.08-.26-.28-.26a.5.5,0,0,0-.52.48.65.65,0,0,0,.68.65.85.85,0,0,0,.92-1c.16,0,.34,0,.38-.18l0-.46-.16,0,.12-5.2h.12c.19,0,.36-.08.37-.28A.32.32,0,0,0,61.9,40"/><path class="cls-1" d="M59.27,29s0-.07,0-.07.06,0,.08,0,0-.07-.06-.1.06,0,0-.05-.07,0-.09,0,0,0,.05-.05,0,0,0,0l.19.09s0,0,0,.05,0,.05,0,.06,0-.06-.06-.06,0,0,0,.06-.08,0-.1,0,0,.06,0,.09,0,.06,0,.1-.07.1-.14.06-.06-.1,0-.15m.21-.47a.1.1,0,0,1-.14.05c-.05-.05,0-.07-.06-.16l.2.11m.15.07a.73.73,0,0,0,.23.09c-.11,0-.08.07-.15.07a.12.12,0,0,1-.08-.16m-.51.13h0m2.15.79c.7,0,1-.23,1-.45,0-.78-1.93-.3-1.93-.77a.29.29,0,0,1,.14-.21h0c1-.09,1-.76,1.68-.9-.84-.12-1,.54-1.31.57a.44.44,0,0,0,.24-.4c-.17.23-.55.25-.75.51a.18.18,0,0,0,0,.14.34.34,0,0,0-.2.28c0,.74,2,.23,2,.77,0,.19-.34.31-.88.31s-.69-.29-1.44-.09c0-.13.25-.37.15-.48a.19.19,0,0,0,.13-.15.34.34,0,0,0-.15-.07s0-.07,0-.1a.3.3,0,0,0,0-.11.61.61,0,0,0-.17-.11.68.68,0,0,0-.17-.05.34.34,0,0,0-.11,0c-.05,0-.1,0-.1.05a.35.35,0,0,0-.14-.06.3.3,0,0,0,0,.21c-.07,0-.14.18-.21.17s0,.07.07.07-.09.23-.15.24l.05.06a1.9,1.9,0,0,0-.1.44h0a1,1,0,0,0-.16-.12c-.12-.07-.11-.12-.09-.23s.08-.19.09-.28a.37.37,0,0,0,0-.09.15.15,0,0,0-.15-.1.1.1,0,0,1,0,.1l0,0s-.05.07,0,.1v0s0,0,0,0,0,0,0,0,0-.16-.1-.17H58.3c0-.07-.07-.13-.18-.05s.06,0,.07,0l0,.07c0,.07,0,.1.13.11s0,0,0,0a0,0,0,0,1,0,0h0c-.13-.06-.2,0-.21.05s0,0,0,.06-.08.09,0,.15a.09.09,0,0,1,0-.09h0l0,0s0,0,.08,0h0l0,0v0c-.11.08-.1.16,0,.18s0,0,0,0a.11.11,0,1,1-.22,0c-.16.18.05.32.23.23,0,0,0,0,0,0s0,.05.05.06a0,0,0,0,1,0,0s0,0,0,0,0,.1.07.11,0-.07,0-.07.08.13.18.25a2.38,2.38,0,0,1-.43.13A1.05,1.05,0,0,0,58,30c-.11.06-.38.16-.46.05s0-.08,0-.14a.24.24,0,0,0-.09-.07h-.07a.14.14,0,0,0-.18,0,.13.13,0,0,1,.1.07l0,.06s0,.09.17.15c0,0,0,0,0,0a.09.09,0,0,1-.1,0c-.07,0-.08-.13-.16-.08l0,0h0c-.07,0-.2.09-.14.18a.15.15,0,0,1,.09-.08l0,0c0,.09.05.16.23,0,0,0,0,0,0,0s-.16.15-.07.21l0,0s0,0,0,0,.09.17.16.17a.15.15,0,0,1-.06-.15h0c.09,0,.05-.14.09-.17s0,0,0,0a.12.12,0,0,0,.13.13.13.13,0,0,0,.13-.14s0,0,0,0,.07.07.05.12a.2.2,0,0,0,.08-.08.16.16,0,0,1,0,.18.25.25,0,0,0,.17-.17.33.33,0,0,1,0,.06s0,0,0,0a.38.38,0,0,0,.21,0h0a.14.14,0,0,0,0,.11s0-.06,0-.06,0,.11.06.17c0-.26.17-.16.33-.27s0,0,0,0a.31.31,0,0,1-.07.09c.06,0,.2-.06.2-.16l.1-.08a.2.2,0,0,0,.19-.09s0,.1,0,.13c.18,0,.36-.19.42-.2.37-.08-.23-.35.53-.3a.49.49,0,0,0,.22-.08c-.06.11-.06.34,0,.36a.39.39,0,0,1,.2.08s0,0,0,0a.4.4,0,0,0-.16,0c-.18.12-.18-.27-.37-.2l-.05,0c-.08,0-.18.09-.16.17A.22.22,0,0,1,60,30.2v0s0,.06.07.06.05,0,.07,0,0,0,0,0-.23,0-.19.16l0,.06c0,.06,0,.12.14.08s0,0,0-.07h0s0,0,0,0h0s0,0,0,0,0,0,0,0a.21.21,0,0,0,0,.06c0,.07.1.14.2.07s-.09,0-.1-.05l0,0a.08.08,0,0,0,0-.07s0,0,0,0h.08a.11.11,0,0,0,.15.06c.12,0,0-.15.12-.17h.07c.1,0,.25,0,.27,0a.26.26,0,0,0-.09-.29c-.06,0,0-.1-.06-.2a.89.89,0,0,0,.38.1c.27,0,0,0,.13-.12a.42.42,0,0,1,.32,0s.07,0,.06.06,0,.16,0,.22-.14,0-.22,0a.08.08,0,0,0-.08,0,.17.17,0,0,0-.15.15.32.32,0,0,1,.13-.06v0a.1.1,0,0,0,.17.07s0,0,0,0-.16.13-.08.17l.05,0a.12.12,0,0,0,.09.13s0-.05,0-.11h.05c.06,0,0-.12.1-.16s0,0,0,0,0,.15,0,.17H62a.11.11,0,0,0,.16.05s-.06,0-.07-.06a.15.15,0,0,0,0-.06c0-.15-.08-.15-.08-.21s.15,0,.15-.17a.11.11,0,0,0-.07-.09h0s.08,0,.1,0-.07-.09-.09-.14a0,0,0,0,1,0,0,.15.15,0,0,0,0-.15s-.16.1-.17,0,0-.07-.11-.05-.27-.08-.61-.11c0,0,0,0,0,0"/><path class="cls-1" d="M58.09,33.24h0s0,0,0,0M57.53,32c0-.05,0-.09.07-.09s.07,0,.08-.05,0-.08-.07-.11.07,0,0-.06-.08,0-.09,0,0,0,0,0a.06.06,0,0,1,.07,0l.21.11s0,0,0,.05,0,.07,0,.08,0-.07-.05-.08,0,0,0,.09-.1-.05-.12,0,0,.07,0,.11,0,.06,0,.11a.12.12,0,0,1-.16.08.12.12,0,0,1,0-.17m.25-.56c0,.06-.11.11-.17.05s0-.07-.06-.18a1.42,1.42,0,0,0,.23.13m.17.09a1,1,0,0,0,.27.1c-.13,0-.09.08-.17.08s-.11-.11-.1-.18m-1.09,1s0,0,0,0h0m5.38-.39c0-.22-.23-.35-.92-.35s-2.24.25-2.24-.13c0-.2.3-.18.66-.16a.35.35,0,0,0,.15.08c.89.26,1.94-.21,2.48-.06-.64-.48-1.16,0-1.84-.13.39,0,.53-.1.55-.21-.31.2-.89-.1-1.25.12l-.06.05c-.49,0-.89,0-.89.31,0,.68,1.85.28,2.43.28s.7.06.7.17-.57.21-.9.21a14.1,14.1,0,0,0-2.93-.08c.07-.15.24-.35.15-.45a.23.23,0,0,0,.14-.18.4.4,0,0,0-.16-.08s0-.08-.05-.12,0-.1,0-.12a1.15,1.15,0,0,0-.2-.13.77.77,0,0,0-.21-.06.44.44,0,0,0-.13,0s-.1,0-.11.05a.33.33,0,0,0-.16-.07.35.35,0,0,0,0,.25c-.08,0-.16.21-.24.19s0,.08.08.08-.1.27-.18.28.08.09.12.1a1.23,1.23,0,0,0,0,.26L57,32.23h0l-.06,0,.06,0-.08,0a3,3,0,0,0-.3-.26c-.14-.08-.14-.14-.13-.28s.07-.24.07-.34a.61.61,0,0,0,0-.11.16.16,0,0,0-.18-.12.13.13,0,0,1,.07.12l-.06.06a.1.1,0,0,0,0,.13s0,0,0,0a.43.43,0,0,0,0,.05s0,0,0,0-.06-.21-.13-.21H56.1c0-.09-.09-.16-.2-.05a.14.14,0,0,1,.09,0,.26.26,0,0,0,0,.1c0,.08,0,.11.15.12l0,0a.08.08,0,0,0,0,0s0,0,0,0-.22,0-.23.08v.06c-.06,0-.08.12,0,.19s0-.09,0-.1h0l0,0s0,0,.1,0h0l.05,0a0,0,0,0,1,0,0c-.11.1-.1.2,0,.22s0,0,0,0A.13.13,0,1,1,56,32c-.16.22.09.39.28.28h0a.1.1,0,0,0,.06.08,0,0,0,0,1,.05,0s0,0,0,0,0,.12.08.13,0-.08,0-.08.12.15.28.24.22.2.3.11c0,.13.11.29.08.29a1.6,1.6,0,0,0-.48,0c-.13.07-.45.18-.54.05s0-.09-.07-.16a.14.14,0,0,0-.1-.08h-.08a.2.2,0,0,0-.21,0,.17.17,0,0,1,.12.08.15.15,0,0,0,0,.06s0,.12.19.19a0,0,0,0,1,0,0,.09.09,0,0,1-.11,0c-.08-.06-.09-.15-.19-.09l-.06,0h0c-.09,0-.23.1-.17.2a.17.17,0,0,1,.11-.08.21.21,0,0,1,0,.06c0,.1.06.18.28,0,0,0,0,0,0,0s-.19.18-.08.25l.05,0h0a.19.19,0,0,0,.17.21.25.25,0,0,1-.06-.18s.06,0,.06,0,.05-.16.11-.19,0,0,0,0,0,.17.15.16a.16.16,0,0,0,.16-.17h0a.12.12,0,0,1,.06.13.25.25,0,0,0,.09-.09.18.18,0,0,1,0,.21.34.34,0,0,0,.19-.2.18.18,0,0,1,.05.07v0a.37.37,0,0,0,.24,0s0,0,0,0a.15.15,0,0,0,0,.12.15.15,0,0,1,.05-.06s0,.12.07.19c0-.31.2-.19.39-.31,0,0,0,0,0,0a.17.17,0,0,1-.08.11c.21,0,.55-.28.6-.41a.83.83,0,0,1,.2,0c.6.05.18-.55,1.15-.37a.58.58,0,0,0,.24-.11c-.07.12-.07.39.06.41a.52.52,0,0,1,.23.1s0,0,0,0a.56.56,0,0,0-.19,0c-.2.13-.21-.31-.43-.23,0,0,0,0-.06,0s-.2.1-.18.19a.21.21,0,0,1,.14-.08v.05s0,.07.08.07,0,0,.08,0,0,0,0,0-.27-.05-.22.18a.17.17,0,0,0,0,.07c0,.07,0,.14.16.1s-.06,0,0-.08h0s0,0,0,0h0s0,0,0,0,0,0,0,0a.24.24,0,0,0,0,.08c0,.08.11.17.23.08,0,0-.1,0-.12-.06l.06,0a.12.12,0,0,0,0-.09l0,0h.06s0,0,0,0a.13.13,0,0,0,.17.07c.14,0,0-.18.14-.21h.08c.12,0,.29,0,.32,0a.31.31,0,0,0-.11-.34c-.07,0,0-.13-.06-.23a1.13,1.13,0,0,0,.43.1.79.79,0,0,0,.54-.13.54.54,0,0,1,.38,0s.07,0,.06.08,0,.18,0,.26-.16,0-.26,0a.11.11,0,0,0-.09,0,.21.21,0,0,0-.17.18.58.58,0,0,1,.14-.08.1.1,0,0,0,0,0,.12.12,0,0,0,.2.08s0,0,0,0-.17.16-.08.19l.06,0a.14.14,0,0,0,.1.15s0-.06,0-.14h0c.07,0,0-.13.12-.18s0,0,0,0,0,.17,0,.2H62a.13.13,0,0,0,.19.06s-.07,0-.08-.07.05-.06.05-.08-.1-.16-.1-.24.17,0,.17-.19a.11.11,0,0,0-.07-.11h0c.05,0,.1,0,.12,0s-.08-.1-.1-.17a0,0,0,0,1,0,0s.07-.08.05-.18c0,.06-.18.13-.19,0s0-.09-.13-.06a5.36,5.36,0,0,1-.76-.06c.46,0,1.12-.12,1.12-.37"/><path class="cls-1" d="M56.74,35.09c0-.05,0-.08.06-.08s.07,0,.09,0,0-.08-.08-.11.07,0,0-.06-.08,0-.09,0,0,0,0,0,0,0,.07,0l.21.1s0,0,0,.06,0,.06,0,.07,0-.07-.06-.07,0,0,0,.07-.1,0-.12,0a.08.08,0,0,0,0,.1s0,.06,0,.11-.08.11-.15.07a.1.1,0,0,1,0-.16m.24-.53c0,.06-.11.1-.16,0s0-.07-.06-.18a.77.77,0,0,0,.22.13m.16.08.26.11c-.12,0-.09.06-.17.06s-.1-.1-.09-.17m4.8.54c0-.21-.22-.33-.88-.33s-2.68.24-2.68-.13.69-.14,1.19-.13a.27.27,0,0,0,.14.1c.85.24,1.73-.33,2.34-.13-.48-.43-1.1,0-1.74-.08.38,0,.77-.08.79-.18-.29.19-1.11-.13-1.46.09a.1.1,0,0,0,0,0c-.63,0-1.39-.08-1.39.29,0,.66,2.3.27,2.85.27s.67.06.67.16-.55.2-.86.2a15.65,15.65,0,0,0-3.51,0c0-.15.25-.37.16-.48a.23.23,0,0,0,.14-.17.6.6,0,0,0-.16-.08s0-.08,0-.11,0-.1,0-.11a.76.76,0,0,0-.2-.13.65.65,0,0,0-.2-.06l-.12,0s-.1,0-.11,0a.24.24,0,0,0-.15-.07.38.38,0,0,0,0,.24c-.08,0-.16.2-.23.18s0,.08.07.08-.09.26-.16.27l.07.07a1.62,1.62,0,0,0,0,.2l-.07,0h-.1l-.11,0c-.1,0-.18-.18-.35-.28s-.14-.14-.14-.27.06-.22,0-.32a.93.93,0,0,0,0-.1.18.18,0,0,0-.18-.12.13.13,0,0,1,.07.12s0,0,0,.06a.08.08,0,0,0,0,.11v0a.2.2,0,0,0,0,.05s0,0,0,0-.07-.2-.14-.21h-.05v0c0-.08-.09-.14-.19,0s.06,0,.08,0a.37.37,0,0,0,0,.09c0,.08,0,.11.15.12h0a.06.06,0,0,1,0,0s0,0,0,0-.21,0-.21.07a.11.11,0,0,0,0,.06c-.06,0-.07.11,0,.17s0-.08,0-.09a0,0,0,0,0,0,0l0,0s0,0,.09,0,0,0,0,0l0,0a0,0,0,0,1,0,0c-.1.09-.08.19,0,.21s0,0,0,0c0,.18-.25.15-.25,0-.13.22.11.38.29.27,0,0,0,0,0,0s0,.06.06.06,0,0,0,0,0,0,0,0,0,.11.08.12,0-.07,0-.07a1.89,1.89,0,0,0,.43.4s.13,0,.15-.08,0,0,.06.07.09.27.06.27a2.53,2.53,0,0,0-.54,0c-.13.07-.43.18-.52.05s0-.08-.06-.14a.12.12,0,0,0-.09-.08h-.07a.18.18,0,0,0-.21,0,.17.17,0,0,1,.12.08A.61.61,0,0,0,55,36s0,.1.18.17c0,0,0,0,0,0a.09.09,0,0,1-.1,0C55,36.08,55,36,54.9,36l-.06,0h0c-.08,0-.21.1-.15.2a.13.13,0,0,1,.1-.09.14.14,0,0,1,0,.06c0,.09.06.17.26,0,0,0,0,0,0,0s-.19.17-.08.23l0,0v0a.18.18,0,0,0,.16.19.22.22,0,0,1-.06-.18s0,0,.06,0,.05-.15.1-.19,0,0,0,0,0,.15.14.14a.16.16,0,0,0,.16-.16s0,0,0,0a.12.12,0,0,1,0,.12.2.2,0,0,0,.08-.08.18.18,0,0,1,0,.2.28.28,0,0,0,.18-.2.13.13,0,0,1,0,.07v0a.34.34,0,0,0,.23,0h0c0,.05,0,.1,0,.12s0-.06,0-.06,0,.11.06.18c0-.29.37-.14.55-.26,0,0,0,0,0,0a.23.23,0,0,1-.08.09.38.38,0,0,0,.24-.09l0,0,.29-.13a.28.28,0,0,0,0-.09l.1,0h0c.19,0,.17-.14.25-.13,1.07.14.46-.46,1.72-.34.06,0,.08,0,.14-.08-.07.13-.07.33.06.35a.49.49,0,0,1,.22.1s0,0,0,0l-.18,0c-.2.13-.2-.29-.41-.21l-.06,0c-.08,0-.19.1-.17.19a.21.21,0,0,1,.13-.08v0s0,.07.07.07.06,0,.09,0l0,0c0,.08-.26,0-.21.18l0,.06c0,.07,0,.13.16.1s-.06,0-.06-.08h.06s0,0,0,0h0l0,0s0,0,0,0,0,.06,0,.07.11.16.23.08c0,0-.11,0-.12,0l0,0a.08.08,0,0,0,0-.08s0,0,0,0h.05s0,0,0,0a.14.14,0,0,0,.17.07c.13,0,0-.17.13-.2H60c.11,0,.28,0,.3,0a.29.29,0,0,0-.1-.32c-.07,0,0-.12-.06-.22a1,1,0,0,0,.41.1.77.77,0,0,0,.51-.12.49.49,0,0,1,.36,0s.07,0,.06.08,0,.17,0,.23-.16,0-.24,0a.11.11,0,0,0-.1,0,.18.18,0,0,0-.16.16s.08-.06.14-.07v0a.12.12,0,0,0,.2.08,0,0,0,1,1,0,0c-.06,0-.17.15-.08.19l.05,0a.15.15,0,0,0,.1.14s0-.06,0-.13h0c.07,0,0-.13.11-.17s0,0,0,0,0,.17,0,.19l.06,0a.12.12,0,0,0,.18.05s-.07,0-.08-.06l0-.07c.05-.16-.09-.17-.09-.23s.16,0,.16-.2a.11.11,0,0,0-.07-.09,0,0,0,0,1,0,0h0s.09,0,.12,0-.08-.09-.1-.16,0,0,0,0a.18.18,0,0,0,0-.17c0,.06-.17.12-.18,0s0-.09-.13-.06a4.61,4.61,0,0,1-.71-.06c.37,0,1.06-.11,1.06-.35"/><path class="cls-1" d="M67,40.46h0m-1-1.53h0m0,.23h0Zm.17.3c0-.05,0-.08.07-.08a.08.08,0,0,0,.09-.06s0-.07-.08-.1.08,0,0-.06-.08,0-.09,0,0,0,0-.06h.07l.21.1s0,0,0,.06,0,.06,0,.07,0-.07,0-.07,0,0,0,.08-.1-.05-.13,0a.08.08,0,0,0,0,.1.17.17,0,0,1,0,.11.1.1,0,0,1-.14.07.11.11,0,0,1,0-.16m.25-.53c0,.06-.1.11-.17,0s0-.07-.06-.18a2,2,0,0,0,.23.13m.16.08a1,1,0,0,0,.25.1c-.12,0-.09.07-.16.07s-.11-.1-.09-.17m4.73,1.22s0,0,0,0a.2.2,0,0,0,.07-.18c0,.06-.18.13-.19,0s0-.08-.12-.06a5,5,0,0,1-.77,0s0,0,0,0c.38,0,1.07-.09,1.07-.33s-.23-.33-.88-.33-2.67.24-2.67-.13S68.48,39,69,39a.21.21,0,0,0,.14.09c.85.24,1.81-.39,2.33-.24-.67-.24-1.09.16-1.73,0,.38,0,.77-.08.79-.18-.29.19-1.11-.13-1.46.09l0,0c-.63,0-1.38-.08-1.38.28,0,.66,2.29.28,2.84.28s.67,0,.67.16-.54.2-.85.2a15.68,15.68,0,0,0-3.52,0c0-.14.26-.36.16-.48a.2.2,0,0,0,.14-.17A.37.37,0,0,0,66.9,39s0-.08,0-.11,0-.1,0-.12a1,1,0,0,0-.19-.13.51.51,0,0,0-.2,0s-.11,0-.12,0-.1,0-.1.06a.26.26,0,0,0-.16-.07.37.37,0,0,0,0,.24c-.08,0-.16.19-.23.17s0,.08.07.09-.09.25-.17.26.09.09.11.09,0,.14,0,.2l-.11,0h-.11l-.1,0c-.11,0-.19-.18-.36-.28S65,39.16,65,39s.06-.21,0-.32a.93.93,0,0,0,0-.1.17.17,0,0,0-.18-.11.15.15,0,0,1,.07.11l0,.06a.11.11,0,0,0,0,.12l0,0a.17.17,0,0,1,0,.05s0,0,0,0-.07-.19-.14-.2h-.05c0-.08-.09-.15-.19-.05s.06,0,.08,0a.31.31,0,0,0,0,.08c0,.09,0,.12.14.12s0,0,0,0,0,0,0,0,0,0,0,0-.21,0-.21.07,0,0,0,.06-.07.12,0,.18,0-.09,0-.1h0l0,0s0,0,.09,0h0l0,0a0,0,0,0,1,0,0c-.1.1-.09.19,0,.22s0,0,0,0c0,.18-.25.14-.25,0-.13.21.11.37.29.26,0,0,0,0,0,0s0,.07.06.07a0,0,0,0,1,0,0l0,0a.11.11,0,0,0,.08.12s0-.07,0-.07a1.52,1.52,0,0,0,.42.41s.1-.06.16-.1a.14.14,0,0,0,.09.12l0,0c0,.12.13.26.1.26a1,1,0,0,0-.38,0c-.12.07-.42.18-.51.05s0-.08-.06-.15a.14.14,0,0,0-.1-.08h-.07a.17.17,0,0,0-.2,0,.13.13,0,0,1,.11.07l0,.06s0,.11.18.17c0,0,0,0,0,0a.09.09,0,0,1-.11,0c-.07-.06-.08-.14-.17-.09l-.06,0h0c-.08,0-.21.1-.16.2a.13.13,0,0,1,.11-.09s0,0,0,.06.06.17.27,0c0,0,0,0,0,0s-.18.17-.08.23,0,0,0,0v0a.19.19,0,0,0,.17.19.21.21,0,0,1-.07-.17l.06,0c.1,0,.05-.16.11-.2s0,0,0,0a.13.13,0,0,0,.14.14.15.15,0,0,0,.15-.16s0,0,0,0,.07.07.05.12a.22.22,0,0,0,.09-.08.17.17,0,0,1,0,.2.27.27,0,0,0,.19-.2.25.25,0,0,1,0,.07h0a.46.46,0,0,0,.23,0s0,0,0,0a.13.13,0,0,0,0,.11s0-.06,0-.06,0,.11.07.19c0-.3.18-.18.36-.3,0,0,0,0,0,0a.19.19,0,0,1-.08.1c.06,0,.33-.12.33-.22s.1,0,.19-.06.16-.14.24-.13c1.07.15.46-.46,1.72-.34.06,0,.09-.07.14-.11s-.07.36.06.39a.6.6,0,0,1,.22.09s0,0,0,0a.49.49,0,0,0-.18,0c-.19.13-.2-.3-.41-.22l-.06,0c-.08,0-.19.1-.17.18a.21.21,0,0,1,.13-.08v0s0,.07.08.07l.08,0s0,0,0,0-.26,0-.21.17l0,.07c0,.06,0,.13.16.09s-.06-.05,0-.08h0s0,0,0,0,0,0,0,0l0,0s0,0,0,0,0,.06,0,.07.11.16.22.08-.1,0-.11-.06l.06,0a.19.19,0,0,0,0-.08s0,0,0,0H69s0,0,0,0a.14.14,0,0,0,.16.07c.14-.05,0-.17.14-.2h.08c.11,0,.27,0,.3,0a.28.28,0,0,0-.1-.31c-.07,0,0-.12-.06-.23a.86.86,0,0,0,.41.11.84.84,0,0,0,.54-.13.5.5,0,0,1,.37,0s.06,0,0,.07,0,.17,0,.24-.16,0-.25,0a.15.15,0,0,0-.1,0c-.07,0-.17.08-.17.17a.26.26,0,0,1,.14-.07v0a.11.11,0,0,0,.19.07s0,0,0,0-.19.15-.09.19l0,0a.13.13,0,0,0,.08.14.13.13,0,0,1,0-.13h0c.07,0,0-.13.13-.17h0c0,.08-.06.18,0,.2H71a.12.12,0,0,0,.18.05s-.06,0-.07-.06l0-.07c.06-.16-.07-.17-.07-.23s.16,0,.18-.19a.08.08,0,0,0-.06-.09s0,0,0,0h0s.08,0,.12,0c-.12,0-.08-.09-.09-.16"/><path class="cls-1" d="M66.53,42.08c-.07,0-.1-.1-.09-.16a1.28,1.28,0,0,0,.25.1c-.11,0-.09.07-.16.06m-.11.14s0-.06,0-.06,0,0,0,.07-.09,0-.12,0a.08.08,0,0,0,0,.1s0,.06,0,.1-.07.11-.14.07a.12.12,0,0,1,0-.16s0-.07.06-.07.07,0,.09-.05,0-.07-.08-.1.07,0,.05,0-.07,0-.08,0,0,0,0-.05,0,0,.06,0l.2.09s0,0,0,.06,0,.05,0,.06m-.12-.38c0,.06-.1.1-.16,0s0-.07-.06-.17a1.24,1.24,0,0,0,.22.12m2,0s.06.08.15.11c.81.23,1.73-.37,2.21-.23-.64-.23-1,.16-1.64,0,.35,0,.73-.07.75-.17-.28.18-1.06-.12-1.39.09l0,0c-.44,0-.8,0-.8.28,0,.63,1.67.26,2.2.26s.46.06.46.16-.6.18-.9.18a13.66,13.66,0,0,0-2.65-.07c.07-.13.22-.31.13-.41a.18.18,0,0,0,.13-.16.3.3,0,0,0-.15-.07s0-.08,0-.11,0-.09,0-.1a.59.59,0,0,0-.18-.13.88.88,0,0,0-.19,0s-.1,0-.11,0-.1,0-.11,0a.22.22,0,0,0-.14-.06.28.28,0,0,0,0,.22c-.08,0-.15.2-.22.18s0,.07.07.08-.09.24-.16.25l.06.07a1.85,1.85,0,0,0,0,.23l-.07,0h0a.56.56,0,0,1-.33-.09c-.12-.07-.13-.13-.13-.26s.06-.21.05-.31l0-.1c0-.06-.12-.12-.17-.1a.15.15,0,0,1,.07.1l0,.06s0,.08,0,.11a0,0,0,0,1,0,0v0s0,0,0,0-.06-.2-.13-.2h0c0-.09-.09-.15-.18,0s.06,0,.07,0a.45.45,0,0,0,0,.08c0,.08.06.11.14.12h0s0,0,0,0h0c-.14-.06-.19,0-.2.07a.15.15,0,0,0,0,.06c-.05,0-.07.11,0,.17s0-.08,0-.09h0s0,0,0,0a.11.11,0,0,0,.08,0h0s0,0,0,0a0,0,0,0,1,0,0c-.09.09-.08.18,0,.2s0,0,0,0-.24.13-.24,0c-.12.2.11.35.28.25,0,0,0,0,0,0s0,.06.06.06a0,0,0,0,1,0,0h0c0,.05,0,.11.08.12s0-.07,0-.07,0-.08.24,0a.2.2,0,0,0,.08.08l.16,0c0,.12,0,.31,0,.31a1.11,1.11,0,0,0-.36,0c-.11.07-.4.17-.48,0a1,1,0,0,1-.06-.14.17.17,0,0,0-.09-.07h-.07a.16.16,0,0,0-.2,0,.17.17,0,0,1,.11.07.11.11,0,0,0,0,.06s0,.1.17.16c0,0,0,0,0,0a.09.09,0,0,1-.1,0c-.07-.06-.08-.13-.16-.08l-.06,0h0c-.07,0-.2.1-.14.19a.14.14,0,0,1,.1-.08.43.43,0,0,0,0,.05c0,.1.06.17.25,0,0,0,0,0,0,0s-.17.17-.07.23l0,0v0a.16.16,0,0,0,.16.18.18.18,0,0,1-.06-.16l.06,0c.09,0,0-.15.1-.19s0,0,0,0,0,.15.14.14a.15.15,0,0,0,.14-.15h0a.1.1,0,0,1,0,.12.2.2,0,0,0,.08-.08.16.16,0,0,1,0,.19.27.27,0,0,0,.17-.19.08.08,0,0,1,0,.06h0a.28.28,0,0,0,.21,0s0,0,0,0,0,.09,0,.11,0-.06,0-.06,0,.11.06.17c0-.27.25-.2.42-.32,0,0,0,0,0,0a.12.12,0,0,1-.08.09c.19.12.38-.14.44-.28a.12.12,0,0,0,0-.05s0,.05,0,.08c.18,0,.16-.13.23-.12.55,0,.13-.46,1-.31a.39.39,0,0,0,.21-.09c-.06.11-.07.35.06.37a.52.52,0,0,1,.2.09s0,0,0,0a.32.32,0,0,0-.17,0c-.19.12-.19-.28-.39-.2l-.06,0c-.07,0-.18.09-.16.17a.22.22,0,0,1,.12-.07v0a.06.06,0,0,0,.07.07s0,0,.08,0,0,0,0,0-.24,0-.2.16a.21.21,0,0,0,0,.06c0,.07,0,.13.15.1s-.06-.05,0-.08h0l0,0s0,0,0,0l0,0s0,0,0,0a.19.19,0,0,0,0,.07c0,.08.09.16.21.08,0,0-.11,0-.11-.06l0,0a.12.12,0,0,0,0-.07s0,0,0,0h.05s0,0,0,0a.12.12,0,0,0,.15.07c.14-.05,0-.17.13-.19h.08c.1,0,.26,0,.29,0a.28.28,0,0,0-.1-.3c-.07,0,0-.12-.06-.21a.9.9,0,0,0,.39.09,1,1,0,0,0,.56-.11.49.49,0,0,1,.36,0,0,0,0,0,1,0,.07c-.06.15,0,.17-.07.23s-.15,0-.24,0a.11.11,0,0,0-.09,0,.29.29,0,0,0-.2.17.3.3,0,0,1,.15-.07v0c0,.1.09.14.17.07s0,0,0,0-.2.14-.13.18l0,0a.1.1,0,0,0,.06.13s0-.05,0-.12h.05c.06,0,.06-.13.15-.16s0,0,0,0-.08.16,0,.18l0,0c0,.05.07.09.17.05s-.06,0-.06-.06l.06-.07c.08-.16,0-.16,0-.22s.15,0,.2-.18,0-.07,0-.09h0s.09,0,.13,0c-.12,0-.06-.09-.06-.15a0,0,0,0,1,0,0,.16.16,0,0,0,.09-.16c0,.05-.18.11-.17,0s0-.08-.11-.06a5.87,5.87,0,0,1-.82-.06s0,0,0,0c.36,0,1.09-.08,1.09-.31s0-.32-.66-.32-2,.23-2-.12c0-.17.27-.15.6-.14"/><path class="cls-1" d="M65.8,45.26s0-.08.06-.08.06,0,.07,0,0-.07-.06-.09.06,0,0-.06-.07,0-.08,0,0,0,0-.05,0,0,.06,0l.19.09a0,0,0,0,1,0,0s0,.05,0,.06,0-.06,0-.06,0,0,0,.06-.09,0-.11,0,0,.06,0,.09a.14.14,0,0,1,0,.1s-.07.1-.13.06a.1.1,0,0,1,0-.14m.22-.48s-.1.1-.15,0,0-.07-.05-.16a.68.68,0,0,0,.2.11m.14.07a.83.83,0,0,0,.23.1c-.1,0-.08.06-.15,0s-.09-.09-.08-.15m1.51-.07s.06.08.15.11c.8.23,1.72-.37,2.21-.24-.63-.22-1,.17-1.64,0,.35,0,.73-.07.75-.17-.28.18-1.06-.12-1.39.08l-.06.06c-.25.05-.46.19-.46.37,0,.53,2.06.11,2.06.29s-.41.27-1,.27a5.5,5.5,0,0,0-2,0h0c.07-.16.25-.38.17-.48a.17.17,0,0,0,.12-.15.27.27,0,0,0-.14-.07s0-.07,0-.1,0-.09,0-.1a.43.43,0,0,0-.17-.12c-.09,0-.14,0-.18-.06l-.1,0s-.1,0-.1,0a.35.35,0,0,0-.14-.06.29.29,0,0,0,0,.21c-.07,0-.14.19-.21.16s0,.08.07.08-.08.23-.15.24a.22.22,0,0,0,.07.07,1.48,1.48,0,0,0,0,.51,4,4,0,0,0-.44-.51.22.22,0,0,1-.13-.24c0-.11,0-.2,0-.29a.44.44,0,0,0,0-.1.17.17,0,0,0-.16-.1.13.13,0,0,1,.07.1.12.12,0,0,0,0,.06.08.08,0,0,0,0,.1v0a.09.09,0,0,1,0,0s0,0,0,0-.06-.18-.13-.18h0c0-.08-.09-.13-.18,0s.06,0,.07,0,0,.07,0,.08,0,.1.13.1,0,0,0,0a0,0,0,0,0,0,0s0,0,0,0-.2,0-.2.06a.11.11,0,0,0,0,.06s-.06.1,0,.16,0-.08,0-.09h0l0,0a.17.17,0,0,0,.09,0h0s0,0,0,0,0,0,0,0-.07.17,0,.19,0,0,0,0-.23.13-.22,0c-.12.19.09.34.25.24s0,0,0,0,0,.05.06.05a0,0,0,0,1,0,0s0,0,0,0a.1.1,0,0,0,.08.11s0-.07,0-.07,0,.26.23.39a.28.28,0,0,0,.29.21c0,.1.1.19.08.19a1.37,1.37,0,0,0-.4,0,.57.57,0,0,1-.26.09v0a.19.19,0,0,1-.2,0s0-.08,0-.14-.06-.07-.09-.07h-.07a.14.14,0,0,0-.18,0,.11.11,0,0,1,.1.07l0,0s0,.1.16.16c0,0,0,0,0,0s-.06,0-.09,0-.08-.13-.17-.08l0,0h0c-.07,0-.19.09-.14.18a.12.12,0,0,1,.1-.08.08.08,0,0,0,0,0c0,.09,0,.16.23,0,0,0,0,0,0,0s-.16.15-.07.21l0,0v0c0,.1.09.17.15.17a.18.18,0,0,1-.06-.15h.06c.08,0,0-.14.09-.17s0,0,0,0,0,.14.13.13a.14.14,0,0,0,.14-.14s0,0,0,0a.11.11,0,0,1,0,.11.3.3,0,0,0,.07-.08.15.15,0,0,1,0,.18.25.25,0,0,0,.17-.17.05.05,0,0,1,0,0h0a.28.28,0,0,0,.21,0h0a.13.13,0,0,0,0,.11s0-.06,0-.06,0,.1.06.17c0-.26.17-.16.33-.27s0,0,0,0a.18.18,0,0,1-.07.09c.06,0,.24-.08.24-.18a1.2,1.2,0,0,0,.16-.45h.06c.22,0,.32-.17.54-.19a.63.63,0,0,0-.07.32c0,.12.16.25.2.28s0,0,0,0-.15,0-.16.05c-.18.11-.19-.27-.37-.2l0,0c-.08,0-.18.09-.16.17a.18.18,0,0,1,.11-.07v0s0,.06.07.06,0,0,.08,0a0,0,0,0,1,0,0c0,.07-.24,0-.19.16l0,.06c0,.06,0,.12.15.08s-.06,0,0-.07h0s0,0,0,0h0s0,0,0,0,0,0,0,0v0c0,.08.1.15.2.08s-.09,0-.1-.05l.05,0s0,0,0-.07,0,0,0,0h0s0,0,0,0a.12.12,0,0,0,.15.06c.13,0,0-.15.12-.18h.08c.1,0,.17,0,.2,0a.26.26,0,0,0-.09-.29c-.06,0,.09-.43-.21-.61.14,0,.59.1.67,0a.73.73,0,0,1,.31.15s0,.06,0,.08-.1.12-.17.14h0a1.54,1.54,0,0,0-.12-.13.12.12,0,0,0-.09,0,.2.2,0,0,0-.2.08.33.33,0,0,1,.14,0s0,0,0,0,0,0,0,.06h0s0,0,0,0-.2,0-.17.07a.2.2,0,0,1,0,0,.13.13,0,0,0,0,.15.14.14,0,0,1,.09-.07s0,0,0,0,.11-.07.18,0,0,0,0,0-.14.08-.11.13a.08.08,0,0,1,0,.05s0,.12.09.15,0-.06,0-.09h.07c.14-.07.05-.16.1-.2s.11.08.22,0a.08.08,0,0,0,0-.1h0s.06.06.11,0,0-.11,0-.16,0,0,0,0a.15.15,0,0,0,.15-.08c-.06,0-.22-.08-.12-.11s.16-.13.1-.2-.33-.15-.34-.31h.21c.69,0,1.13-.2,1.12-.42,0-.47-2.1,0-2.1-.3,0-.1.13-.18.29-.24"/><path class="cls-1" d="M34,8.55a.5.5,0,1,0-.5.5.5.5,0,0,0,.5-.5"/><path class="cls-1" d="M33.82,7.2a.51.51,0,1,0-.51.51.51.51,0,0,0,.51-.51"/><path class="cls-1" d="M34.1,6.61a.51.51,0,1,0-.5-.51.51.51,0,0,0,.5.51"/><path class="cls-1" d="M35.44,6.52a.51.51,0,1,0-.5-.5.51.51,0,0,0,.5.5"/><path class="cls-1" d="M41.17,5.59a.5.5,0,0,0,.71,0,.48.48,0,0,0,0-.7.5.5,0,1,0-.71.71"/><path class="cls-1" d="M41.06,4.51a.5.5,0,1,0-.71,0,.5.5,0,0,0,.71,0"/><path class="cls-1" d="M39.72,4.29a.5.5,0,1,0-.71,0,.5.5,0,0,0,.71,0"/><path class="cls-1" d="M38.58,5.14a.5.5,0,0,0,0-.71.51.51,0,0,0-.71,0,.5.5,0,1,0,.71.71"/><path class="cls-1" d="M35.37,4.45l.4.88.51-.61.06,0a8.13,8.13,0,0,1,.07,1.1.64.64,0,0,0,.64.64.64.64,0,0,0,.3-1.21,5,5,0,0,1-.71-.66l0-.09.85.08-.33-.9-.64.54,0,0-.05-.94-.88.34.58.69,0,.07Z"/><path class="cls-1" d="M41.2,6a1.21,1.21,0,0,1,.28.69A1.45,1.45,0,0,1,41,6.23l.1,1.18A1.15,1.15,0,0,1,41.48,7c0,.77-.35,1.08-.6,1.14a.51.51,0,0,1-.61-.39c-.06-.34.23-.56.53-.25.06-.71-.51-.7-.76-.4a1,1,0,0,0-.43-1.49,1.09,1.09,0,0,0,.27,1.53c-.47-.23-.89.17-.47.68.09-.45.48-.35.57,0s-.22.71-.72.86c-.72.22-1-.24-1.13-.63a1,1,0,0,1,.94.19l-.35-1.14a1.14,1.14,0,0,1-.69.69,3.67,3.67,0,0,1,.22-1l-1.39.56a3.36,3.36,0,0,1,.86.57,1.16,1.16,0,0,1-1,0L37.3,9c.11-.48.35-.77.53-.8.15.4.3.89-.36,1.24a.84.84,0,0,1-1.12-.11c-.19-.32,0-.67.4-.41-.06-.66-.64-.65-.81-.15,0-.69-.17-1.1-.89-1.29a1,1,0,0,0,.75,1.37c-.39,0-.81.35-.27.82,0-.43.35-.48.55-.2a.5.5,0,0,1-.16.7c-.22.15-.66.13-1.23-.39a1,1,0,0,1,.6,0l-.74-.92a1.36,1.36,0,0,1,0,.71,1.26,1.26,0,0,1-.28-.69l-.57.5a6.53,6.53,0,0,1,1.91,1.88,22.64,22.64,0,0,1,3.08-1.53,24,24,0,0,1,3.27-1.06A6.6,6.6,0,0,1,42,6Z"/><path class="cls-1" d="M42.79,12.69c-.7.55-1.63,0-2.06-.68a23,23,0,0,0,2.85-1.31c-.7,1.07-.22,1.55-.79,2M42.64,20a1.39,1.39,0,0,1-1.79-1c-.17-.55-.32-1-.11-1.2.39-.39.52-.69.28-1.17s-.86-.29-1.5-.14c.3-.53.32-.91-.08-.86s-.49.83-.76.74-.11-.54-.11-.78.21-.45.54-.6l2.63-1c.34-.13.57-.19.81,0s.59.38.46.64-.68-.3-1.06,0-.05.5.54.68c-.57.33-1.17.55-1,1.14s.46.64,1,.65c.3,0,.51.42.76.94A1.31,1.31,0,0,1,42.64,20m-5-5.3c-.71.07-.69-.61-1.93-.91a21.53,21.53,0,0,0,3-1c.19.81-.15,1.82-1,1.9M52.26,38.09c.2-.54-.79-1.15-.9-1.92a3.83,3.83,0,0,0-.91-2.55c-.86-1-3.89-4.24-4.79-5.27a1.45,1.45,0,0,1,1.32.39c.33.3,1,.92,1.57,1.51a16.36,16.36,0,0,1,3.2-5.15l.55-.59a7.3,7.3,0,0,0-1.78.59c0-.89,0-1.6-.58-2.17.23-1.23,0-2.73-2.74-4.57,1.42.34,2.26,1.62,3.34.64-1,0-1-2.16-4.52-3.93,1.35,0,2.4,2.15,4,.92-1.47-.18-2-2.78-4.6-3.59.91.1,1.86.55,2.65-.52-.92.22-1.46-.63-2.44-.7a3.25,3.25,0,0,0-.12-2.7,3.39,3.39,0,0,0-1.9.68c-.08-.63-.74-.67-1.32-.62,0,.27.16.66-.14.72a24.8,24.8,0,0,0-3.26,1,17.72,17.72,0,0,0-3,1.61c-.25.17-.46-.23-.61-.41-.43.36-.85.84-.54,1.31a3.81,3.81,0,0,0-2.05.74,2.39,2.39,0,0,0,1.62,2c-1.63,1.62-.15,3.12-1.59,4.54,2,.07,1.67-2.74,2.69-3.13-.11,2-1.21,2.33-1.21,4.46,0,1.14.68,2.38.07,3.13,1.69-.46,1.25-4.2,2.3-5.33A3.14,3.14,0,0,1,36.39,21c-.59,1.74.07,4.12-.86,4.9,1.73-.17,1.93-2.94,3.35-4-1.22,2.49-2.47,7.8-4.29,10.46-2.94,4-4.67,8.8-7.37,8.8A2,2,0,0,1,25.13,39c0-4.51,7.74-7.61,7.74-12.42a2.85,2.85,0,0,0-2.83-3,3.92,3.92,0,0,0-2.37,1,2.59,2.59,0,0,0-.92-.2c-2.73,0-2,4.92-4.39,4.87.94.53,2.58-.51,3.53-1.88-.4,3.19-5,2.34-4.63,6.17.64-3,8-2.56,8-7.11a1.77,1.77,0,0,0-.62-1.28,2.81,2.81,0,0,1,1.54-.48,1.72,1.72,0,0,1,1.68,1.94c0,4-7.7,7.42-7.7,12.37a3.52,3.52,0,0,0,.64,2.08,1.28,1.28,0,0,1-1.56-.42c0,1.27,1.78,2.07,2.92,1.44a3.55,3.55,0,0,0,.8.16,2.17,2.17,0,0,1-2.14,1.18c1.89,1.49,5.18-.46,5-2.14,1.5-1.21,2.45-3.27,3.54-4.63q-.11.47-.18.93a16.31,16.31,0,0,0-2.42,6.45c-.24,2.21-1.36,4.2-2.91,4.2-.34,0-.91-.44-1.17-.22-.48.42,0,.85,0,1.26,0,.63-1.22,1.26-1.22,3.2,0,.88.51,1.92.32,2.5a3.52,3.52,0,0,0,1.43-2.15c.53,2.56-1.1,2.45.07,4.73a.94.94,0,0,1,1.36-.76c.46.32.25.54-.09.88s-.66,2,.9,1.94c-.3-.19-.32-.64.45-.8,1.07-.22,1.39.27,2.53.27.7,0,.9-.92,1.45-.92s.56.44.37.75c.9-.24,1.06-.72,1.06-1.23s-.41-.83-.09-1,1.36,0,.94.87c.54-.09.83-.48.83-1.14s-.75-1-1.45-.92c-.13-.42-.73-.63-1.29-.63-1.26,0-1.07,1-1.94,1-1.38,0-2.72-1.8-2.72-4.83,0-1.63,1.75-2,3-2.57a10.72,10.72,0,0,0,4.71-4c1-1.71,1-3.58.92-5.8a3.67,3.67,0,0,1,2,3.49,2.14,2.14,0,0,1-1.26,2.16c-.47.21-.63.13-.68.4a.61.61,0,0,0,.38.66c.63.32.5.92.67,1.57a5,5,0,0,0,1.74,2.44,7.58,7.58,0,0,0,0-1.9c1.34.66.26,3.36,2.87,3.36a.66.66,0,0,1-.08-1.08c.28-.11.63.17,1.13.87s.37.65,1.6.65.68-.43,1.33-.43.6.76.25,1.31a1.42,1.42,0,0,0,1.06-2,1.05,1.05,0,0,1,1.62.75A1.29,1.29,0,0,0,50,48.65a.76.76,0,0,0-.7-.75,10,10,0,0,0-1.23,0c-.45,0-.7.67-1.23.67-1.63,0-4.86-2.95-4.86-4.23s3.09-2.06,3.09-4c0-2.6-2.55-3.48-4.7-5.14.77-.86,3-1.06,4.26-.45.15-.72.61-.54.78-1.78.46,1.09,0,2,.45,2.5.36-.53,1.29-.45,1.23-1.81.28.85-.36,2.15.28,2.72.11-.7.53-.83.79-.83s.49.19.49.6c0,1-1.27.55-1.27,1.72,0,.49.62.66.62,1a.69.69,0,0,1-1.13.4A1.31,1.31,0,0,0,48,40a1.65,1.65,0,0,0,1.4-1c.3.74.07,1.57-.46,1.67.56.29,1.9,0,1.75-1.7.75.13,1.15.64.7,1.56.62-.16,1.19-.46,1.19-1.12,0-.51-.55-.66-.31-1.32"/><path class="cls-1" d="M102.12,50.52a1.62,1.62,0,1,1,1.63,1.62,1.63,1.63,0,0,1-1.63-1.62m-.55,0a2.18,2.18,0,1,0,2.18-2.18,2.18,2.18,0,0,0-2.18,2.18"/><path class="cls-1" d="M94.44,54.46c-.62-.11-1.06-.58-1-1a.71.71,0,0,1,.31-.45,1.32,1.32,0,0,1,1-.18,1.09,1.09,0,0,1,1,.93.45.45,0,0,1,0,.11,1,1,0,0,1-1.27.62m-1-1.94a1.27,1.27,0,0,0-.54.81,1.3,1.3,0,0,0,.34,1.09,1.92,1.92,0,0,0,1.09.59,2,2,0,0,0,1.23-.17,1.31,1.31,0,0,0,.69-.91,1.56,1.56,0,0,0-1.43-1.67,1.86,1.86,0,0,0-1.38.26"/><path class="cls-1" d="M81.36,23.28a1.11,1.11,0,0,1,.46-.83,1.13,1.13,0,0,1,.82-.25.59.59,0,0,1,.41.21.68.68,0,0,1,.11.45,1.19,1.19,0,0,1-.46.74.92.92,0,0,1-1.23,0,.57.57,0,0,1-.11-.36M81.47,22A1.45,1.45,0,0,0,81,24h0a1.45,1.45,0,0,0,2,.06,1.73,1.73,0,0,0,.66-1.11,1.12,1.12,0,0,0-1-1.29,1.73,1.73,0,0,0-1.24.37"/><path class="cls-1" d="M91.73,51.94Zm0-.56h0a.67.67,0,0,1-.48-.23,1.28,1.28,0,0,1-.33-.93,1.25,1.25,0,0,1,.36-.91.67.67,0,0,1,.5-.21c.46,0,.82.53.81,1.16a1.28,1.28,0,0,1-.36.91.7.7,0,0,1-.49.21m-.85-2.47a1.85,1.85,0,0,0-.53,1.3v0a1.85,1.85,0,0,0,.48,1.29,1.28,1.28,0,0,0,.88.4,1.32,1.32,0,0,0,.9-.37,1.85,1.85,0,0,0,.53-1.3,2,2,0,0,0-.36-1.19,1.23,1.23,0,0,0-1.9-.17"/><path class="cls-1" d="M80.69,33.46A1,1,0,0,1,80,32.21a.71.71,0,0,1,.41-.35,1.31,1.31,0,0,1,1,.09,1.34,1.34,0,0,1,.68.71.72.72,0,0,1,0,.54.69.69,0,0,1-.42.35,1.31,1.31,0,0,1-1-.09m-.43-2.12a1.27,1.27,0,0,0-.73.63,1.56,1.56,0,0,0,.92,2,1.84,1.84,0,0,0,1.41.12,1.25,1.25,0,0,0,.73-.64,1.23,1.23,0,0,0,0-1,1.82,1.82,0,0,0-1-1,1.86,1.86,0,0,0-1.4-.11"/><path class="cls-1" d="M96,41.24a1,1,0,0,1-1.36.4,1,1,0,0,1-.07-1.41.9.9,0,1,1,1.43,1m-2.56,4a1,1,0,0,1-1.36.4,1.15,1.15,0,0,1,1.28-1.82,1,1,0,0,1,.08,1.42M84.67,23.13c.3-.94.87-2.81.87-2.81l1,.38a3.41,3.41,0,0,0-.94.68,1,1,0,0,0,.89-.07l-.39,1a1.29,1.29,0,0,0-.65-.58A1,1,0,0,0,86.1,23c.6.31,1,.36,1.16.09s-.2-.82-.71-.61c0-.52.24-.79.58-.79s.49.24.56.58a1.62,1.62,0,0,1,1.12-1.74,1.67,1.67,0,0,1-.56,2,.7.7,0,0,1,.84.12c.19.28.12.68-.34.92a.5.5,0,0,0-.91-.24c-.18.35.09.68.65,1a1,1,0,0,0,1.5-.41,1.15,1.15,0,0,0-.92.18l.66-1.23a1.3,1.3,0,0,0,.41.73,1.62,1.62,0,0,0,0-1.2l1.42.82a1.56,1.56,0,0,0-1,.63,1.28,1.28,0,0,0,.83,0L90.68,25a1.16,1.16,0,0,0-.3-.89,1,1,0,0,0,.39,1.51c.55.33,1,.4,1.18.07a.5.5,0,0,0-.66-.67c0-.52.29-.78.63-.76s.47.33.53.67a1.68,1.68,0,0,1,1.41-1.47,1.62,1.62,0,0,1-1,1.85.64.64,0,0,1,.79.19c.17.3.08.68-.4.9a.5.5,0,0,0-.88-.32c-.15.29.09.6.66,1A1,1,0,0,0,94.52,27a1.34,1.34,0,0,0-.83-.27l.66-.84a1,1,0,0,0,.39.81,3.21,3.21,0,0,0,.11-1.15l.83.66s-1.34,1.43-2,2.17ZM95.32,35.22a.67.67,0,0,1,.2-.5.74.74,0,0,1,.51-.18,1.34,1.34,0,0,1,.89.43,1.38,1.38,0,0,1,.38.92.73.73,0,0,1-.21.49h0a.71.71,0,0,1-.51.18,1.34,1.34,0,0,1-.89-.43,1.32,1.32,0,0,1-.37-.91m3.89,17.91a1.4,1.4,0,0,1,1.54-1,.74.74,0,0,1,.46.3h0a.69.69,0,0,1,.08.53,1.29,1.29,0,0,1-.57.79,1,1,0,0,1-1.42-.07.67.67,0,0,1-.09-.53m-18.54-27a1.12,1.12,0,0,1-.33.77.58.58,0,0,1-.42.16c-.36,0-.64-.44-.64-.93v-.08a1,1,0,0,1,.33-.76.58.58,0,0,1,.42-.17.62.62,0,0,1,.4.21,1.08,1.08,0,0,1,.24.8m5.74-11.78c.3-.58,0-1.46,1.06-1.46.52,0,1,.52,1.62.72a6.58,6.58,0,0,0-2.68.74m16.7,14.74c.71,1.94,2.12,2.65,3.19,2.14-2.4-.28-.45-4.38-3.54-4.38a2.57,2.57,0,0,0-.5.05,2.54,2.54,0,0,0-2-.78A3.83,3.83,0,0,0,96.69,30c0,5.61,6.52,6.1,6.52,11.06a2.28,2.28,0,0,1-2.32,2.35c-1.1,0-2-1.23-2.9-3.15a23.85,23.85,0,0,0-2.39-3.48,1.75,1.75,0,0,0,1,.34,1.28,1.28,0,0,0,.91-.33,1.25,1.25,0,0,0,.38-.88v0a1.89,1.89,0,0,0-.53-1.27A1.86,1.86,0,0,0,96,34a1.21,1.21,0,0,0-1.28,1.21v0a1.63,1.63,0,0,0,.1.57c-1.4-1.83-2.7-3.63-2.7-4.61a4.48,4.48,0,0,1,1.34-2.56l.25.15.2-.22c.26-.29.8-.89,1.93-2.09l.07-.08h0l.27-.29-.7-.56A7.71,7.71,0,0,0,96,24.19c.22.9.68,1.48,1.32,1.3-.42-.94.43-2.18-.13-4.46.53.88,1.3,1.34,1.85,1.18-1.44-1.28.43-3.07-1.45-5.83a1.12,1.12,0,0,0,1.3-.22c-1.72-.24-.94-2.43-4-3.21.75-.13,1.19-.57,1.08-1-.79.58-1.49-1.07-4.1-1a3.81,3.81,0,0,0-2.09-2.5,3.38,3.38,0,0,1-.19,2l-8.5-8.34c-.24-.24-.38-.29-.45-.21s-.06.24.1.41l7.3,9.16c-.56.19-1.09.42-1.66.62a1,1,0,0,0-.63,1,15.93,15.93,0,0,0-3.14,2c-.45.41-.8.51-.41,1.43.15.35-.31,1.21.74.58.69-.41,2.27-1.28,2.5-.73.12.28-.65.65-1.19.85s-1.11.62-1,.82.5,0,.53.21a.47.47,0,0,0,.41.45c.21,0,.49-.44.66-.29s-.08,1.14-.26,1.4A1.68,1.68,0,0,0,86,18.3c0-.61.18-.76.31-.85s.28.66.11,1.11c.43-.1.89-.67.83-1.73a1.14,1.14,0,0,1,.61-.31c.28,0,.83.76,1.61.76a2.39,2.39,0,0,0,2.33-1.72,1.58,1.58,0,0,0-.2-1.2,2,2,0,0,1,.68,1.55c0,2.05-3.61,3-5.1,4.43l-.16.15-1.7-.65-.11.37-.11.32c-.17.59-.54,1.8-.77,2.49l-.09.28.15.09a9.37,9.37,0,0,0-2,4.38,14.69,14.69,0,0,0-1.24-1.13,1.78,1.78,0,0,0,.09-.47,1.65,1.65,0,0,0-.38-1.2,1.2,1.2,0,0,0-.79-.39,1.12,1.12,0,0,0-.82.3.75.75,0,0,0-.15.16l-.18-.14a14.16,14.16,0,0,1-1.68-1.4.86.86,0,0,0-.74-.31l-.75,0c-.25,0-.4.2-.68.45s-.53.43-1,.76c.21.21.42.43.62.66s.21.25.32.38l.3-.23A.94.94,0,0,1,76,25a1,1,0,0,1,.73.48c.16.24,1.53,2,2.67,3.29l-.36.14a6,6,0,0,1-2.07.12c-.5,0-.59-.16-.92.36-.13.2-.29.43-.45.63s-.29.43,0,1a46.27,46.27,0,0,1,2.17,4.09,2.32,2.32,0,0,0,1.69,1.49,12.79,12.79,0,0,1,2.3,1.28l0-.77a4.53,4.53,0,0,0-1.27-.62c-.29-.11-.37-.23,0-.23a8.64,8.64,0,0,1,2,.61,5.86,5.86,0,0,0-1.35-2,1.88,1.88,0,0,0-1.39,0,.31.31,0,0,1-.32.36.3.3,0,0,1-.3-.4c.07-.23.41-.3.34-.73s-.61-.51-1-.55c-.48-.7-1-1.72-1.3-2.14a.54.54,0,0,1,.08-.79c.41-.34,1.28.18,3,.29l2.14.11c.23,2,1,3.91,3.83,4.61a4.73,4.73,0,0,1,3.25,2.65c-5.58-.1-6.45,2.07-6.45,4.13,0,2.33,2,2.2,2,4,0,1.52-4.69,2.15-6.1,2.36a3.93,3.93,0,0,0-2.46,1l-2.21,2.18a3.82,3.82,0,0,0,.89.08l.79-1c.23-.34.4-.62.55-.6s0,.29-.13.66l-.65,1.1c2.75.18,2.93-.84,2.93-1.26s-.68-.71-.29-1,.74-.08,1,.29.42.68,1.18.39c0,0,6-2.48,6.76-2.83s.49-.6.08-.94a2,2,0,0,1-.53-1.6c0-1.82,1.1-2.38,3.05-2.34a7,7,0,0,0-.06.88c0,2.83,4.28,5.6,5.44,5.6.52,0,1.22-.39,1.26,1.32a17.08,17.08,0,0,1,.06,3.6,2.67,2.67,0,0,1-1.52,2.28c-.87.61-1.69,2.53-2.06,2.94.39.25.81.28,1.13-.65a2.74,2.74,0,0,1,.91-1.51c-.34.85-.59,2.1-.75,2.48,1.09.19,2.87-.81,2.87-1.58s-.62-.71-.62-1.23a.59.59,0,0,1,.62-.48A.88.88,0,0,1,98,57c.49-.26.79-.74.78-1.86,0-.44,0-.9-.05-1.37a1,1,0,0,0,.1.17,1.26,1.26,0,0,0,1,.56A1.89,1.89,0,0,0,101,54.2a1.87,1.87,0,0,0,.82-1.15,1.41,1.41,0,0,0,0-.28,1.2,1.2,0,0,0-.2-.67,1.23,1.23,0,0,0-.8-.53,1.83,1.83,0,0,0-1.38.3,1.86,1.86,0,0,0-.8,1.05c-.09-1.54-.2-3-.15-3.58.06-.87.09-1.25-.2-1.38s-.61.35-1,.35a2.81,2.81,0,0,1-1.68-2.38c0-1.23,1.33-2.81,1.26-4.48,0-.53.31-.8.52-.32a7.58,7.58,0,0,0,1.19,2c-.35,2.11,2,4.16,3.88,2.64-.94.13-1.59-.7-2-1.55a2.76,2.76,0,0,0,.51,0h.29a2,2,0,0,0,3.34-1.3,2.16,2.16,0,0,1-1.69.69,3.4,3.4,0,0,0,1.22-2.73c0-5.35-6.48-6-6.48-10.84a3,3,0,0,1,2.67-3,1.67,1.67,0,0,1,1,.32,2.42,2.42,0,0,0-.61,1.86c.17,3.84,6.45,3.65,6.53,5.5.7-2.79-4-1.93-4.15-5.68"/></g></svg>