<svg width="1129" height="240" viewBox="0 0 1129 240" fill="none" xmlns="http://www.w3.org/2000/svg">
<path d="M247.885 101.399H231.492V82.7834C231.492 79.2437 234.364 76.3781 237.899 76.3781H241.482C245.01 76.3781 247.885 79.2437 247.885 82.7834V101.399ZM268.391 99.5935V86.1092C268.391 86.1092 268.628 77.6287 272.815 68.2734V38.9633H260.289V49.8926H249.024V38.9633H231.688V49.885H220.222V38.9409H208.073V67.7208C208.073 67.7208 210.91 78.7192 210.91 84.76V99.897C210.91 99.897 201.808 114.076 201.808 140.092C201.808 140.092 230.899 155.157 277.559 147.891V132.094C277.559 132.094 278.041 116.143 268.391 99.5935Z" fill="white"/>
<path d="M0.0693359 124.694C0.0693359 124.694 9.78379 130.895 41.7627 131.005C41.7627 131.005 154.393 127.906 192.395 144.104C192.395 144.104 252.359 182.593 355.787 136.445C355.787 136.445 304.322 207.157 192.045 167.882C192.045 167.882 131.733 143.406 45.2181 144.104C45.2181 144.104 14.5403 144.331 0.0693359 124.694Z" fill="white"/>
<path d="M208.807 181.819C208.807 181.819 200.466 179.044 188.018 175.462C118.149 153.912 72.1558 151.952 59.0117 151.894C56.4396 151.885 55.1275 151.941 55.1275 151.941C54.806 151.952 54.5044 151.969 54.1933 151.996C45.6927 152.053 38.1798 151.421 31.8007 150.515C8.32417 147.191 2.24805 138.315 2.24805 138.315C9.94872 169.672 38.0216 195.216 38.0216 195.216C38.0216 195.216 73.1325 197.935 101.622 188.403C101.622 188.403 130.695 177.944 177.924 195.484C177.924 195.484 318.534 247.565 357.631 144.504C357.631 144.504 309.753 210.009 208.807 181.819Z" fill="white"/>
<path d="M198.3 111.647C198.292 111.625 198.279 111.595 198.261 111.565C197.929 110.546 196.314 105.971 192.661 99.3758C188.969 92.464 184.154 85.3179 177.903 78.4752C177.868 78.4157 177.835 78.3676 177.792 78.3171C169.946 69.3325 159.4 59.689 145.361 50.9569C141.726 48.6811 137.841 46.4667 133.718 44.3672C133.718 44.3672 133.718 44.3505 133.694 44.3377C133.406 44.2057 133.121 44.0623 132.838 43.917C131.958 43.5168 130.451 42.9604 128.569 42.7836C126.798 42.605 124.676 42.7669 122.434 43.7255C122.033 43.9041 121.631 44.0975 121.211 44.3172C121.177 44.3262 121.134 44.3377 121.11 44.3672C113.047 48.3757 102.047 56.0545 97.7423 59.1268L95.8996 60.4631L58.6897 87.3169L49.141 82.0149C49.141 82.0149 28.8731 66.4945 2.24805 117.167C2.24805 117.167 13.2259 121.672 41.8553 120.263C41.8553 120.263 142.871 112.565 194.814 132.373C195.067 128.174 195.845 120.673 198.337 111.76C198.337 111.76 198.328 111.723 198.3 111.647Z" fill="white"/>
<path d="M351.233 101.756C347.959 86.0548 328.436 70.5996 317.609 63.1052C315.571 61.6183 313.273 60.0852 310.673 58.5664C310.495 58.464 310.396 58.4064 310.396 58.4064C310.396 58.4064 300.992 47.5214 290.431 34.2586C290.431 34.2586 271.978 14.0913 251.652 2.27205C241.733 -2.76025 232.782 1.89235 230.071 3.5917C216.411 12.6711 196.51 30.0376 181.949 39.5773L178.62 41.8102L161.069 53.2907C170.3 60.3177 191.995 78.2536 203.808 99.9283V83.567C203.808 83.567 204.287 74.7753 200.401 67.7988V31.6122H279.766V68.0556C279.766 68.0556 274.33 81.7523 275.627 98.5514C275.627 98.5514 284.635 113.259 284.713 142.429C305.613 140.083 329.558 134.533 355.787 123.701L351.233 101.756Z" fill="white"/>
<path d="M154.472 197.15C123.133 190.171 107.745 196.388 107.745 196.388C78.1721 208.982 45.0303 204.463 45.0303 204.463C68.3019 224.366 90.7898 227.597 90.7898 227.597C107.382 220.181 121.239 215.448 132.684 212.467L132.671 212.458C132.671 212.458 136.315 211.442 142.104 210.297C142.918 210.13 143.719 209.976 144.518 209.841C144.769 209.787 145.031 209.743 145.311 209.689C145.843 209.592 146.353 209.508 146.868 209.422C157.36 207.649 172.14 206.153 185.74 208.306C174.822 202.146 159.017 198.203 154.472 197.15Z" fill="white"/>
<path d="M105.687 232.076C105.687 232.076 146.883 209.884 185.74 216.163C185.74 216.163 130.06 222.414 151.132 240C151.132 240 125.335 240 105.687 232.076Z" fill="white"/>
<path fill-rule="evenodd" clip-rule="evenodd" d="M410.462 175.568V138.837H415.45L434.744 167.674V138.837H439.404V175.568H434.421L415.126 146.702V175.568H410.462Z" fill="white"/>
<path fill-rule="evenodd" clip-rule="evenodd" d="M465.212 166.997L469.876 167.574C469.137 170.299 467.78 172.409 465.788 173.915C463.802 175.415 461.262 176.168 458.175 176.168C454.283 176.168 451.196 174.972 448.914 172.571C446.637 170.175 445.493 166.816 445.493 162.491C445.493 158.012 446.646 154.539 448.952 152.067C451.258 149.594 454.25 148.355 457.923 148.355C461.481 148.355 464.388 149.566 466.641 151.99C468.899 154.411 470.023 157.822 470.023 162.214C470.023 162.481 470.014 162.881 470 163.415H450.152C450.324 166.34 451.148 168.579 452.635 170.132C454.121 171.685 455.974 172.462 458.199 172.462C459.852 172.462 461.262 172.028 462.434 171.156C463.601 170.289 464.53 168.903 465.212 166.997ZM450.405 159.708H465.264C465.064 157.469 464.497 155.792 463.559 154.673C462.125 152.934 460.262 152.067 457.97 152.067C455.903 152.067 454.159 152.757 452.749 154.144C451.339 155.53 450.557 157.383 450.405 159.708Z" fill="white"/>
<path fill-rule="evenodd" clip-rule="evenodd" d="M492.9 172.285C491.233 173.705 489.623 174.706 488.079 175.292C486.531 175.878 484.873 176.168 483.105 176.168C480.18 176.168 477.932 175.454 476.364 174.029C474.792 172.6 474.011 170.775 474.011 168.55C474.011 167.25 474.306 166.059 474.897 164.982C475.492 163.905 476.269 163.038 477.226 162.39C478.189 161.738 479.27 161.242 480.471 160.909C481.357 160.675 482.696 160.451 484.482 160.232C488.122 159.799 490.804 159.28 492.524 158.679C492.543 158.06 492.553 157.669 492.553 157.503C492.553 155.664 492.124 154.368 491.271 153.62C490.118 152.6 488.408 152.091 486.135 152.091C484.015 152.091 482.448 152.462 481.438 153.205C480.428 153.949 479.68 155.263 479.194 157.15L474.787 156.55C475.187 154.663 475.845 153.139 476.764 151.976C477.684 150.819 479.013 149.923 480.747 149.294C482.486 148.67 484.497 148.355 486.788 148.355C489.06 148.355 490.904 148.622 492.324 149.161C493.744 149.694 494.787 150.366 495.459 151.176C496.126 151.986 496.593 153.01 496.859 154.244C497.012 155.011 497.083 156.402 497.083 158.403V164.42C497.083 168.612 497.183 171.261 497.374 172.371C497.564 173.486 497.946 174.548 498.512 175.568H493.801C493.334 174.634 493.034 173.538 492.9 172.285ZM492.524 162.214C490.89 162.881 488.432 163.448 485.159 163.915C483.305 164.182 481.995 164.487 481.224 164.82C480.457 165.154 479.861 165.64 479.447 166.283C479.027 166.926 478.818 167.641 478.818 168.427C478.818 169.632 479.275 170.632 480.185 171.433C481.095 172.233 482.429 172.638 484.182 172.638C485.921 172.638 487.465 172.257 488.818 171.495C490.171 170.737 491.161 169.699 491.8 168.379C492.281 167.359 492.524 165.854 492.524 163.867V162.214Z" fill="white"/>
<path fill-rule="evenodd" clip-rule="evenodd" d="M513.924 171.533L514.577 175.515C513.305 175.787 512.171 175.92 511.166 175.92C509.532 175.92 508.26 175.658 507.359 175.144C506.459 174.625 505.82 173.943 505.454 173.1C505.087 172.257 504.901 170.48 504.901 167.774V152.467H501.595V148.956H504.901V142.367L509.389 139.661V148.956H513.924V152.467H509.389V168.026C509.389 169.313 509.47 170.137 509.627 170.508C509.784 170.875 510.041 171.166 510.404 171.385C510.761 171.599 511.275 171.709 511.942 171.709C512.447 171.709 513.105 171.652 513.924 171.533Z" fill="white"/>
<path fill-rule="evenodd" clip-rule="evenodd" d="M518.336 175.568V138.837H522.843V152.014C524.948 149.575 527.607 148.355 530.813 148.355C532.781 148.355 534.496 148.746 535.949 149.523C537.402 150.299 538.44 151.371 539.069 152.743C539.693 154.11 540.008 156.097 540.008 158.703V175.568H535.496V158.703C535.496 156.45 535.01 154.811 534.034 153.782C533.052 152.753 531.671 152.238 529.884 152.238C528.55 152.238 527.292 152.586 526.116 153.281C524.934 153.972 524.096 154.911 523.595 156.097C523.095 157.283 522.843 158.922 522.843 161.009V175.568H518.336Z" fill="white"/>
<path fill-rule="evenodd" clip-rule="evenodd" d="M561.708 175.568V138.837H575.562C578.001 138.837 579.864 138.951 581.15 139.184C582.956 139.485 584.466 140.056 585.686 140.904C586.905 141.748 587.887 142.929 588.63 144.449C589.373 145.969 589.745 147.636 589.745 149.461C589.745 152.581 588.749 155.225 586.762 157.388C584.776 159.551 581.184 160.632 575.991 160.632H566.567V175.568H561.708ZM566.567 156.297H576.062C579.207 156.297 581.436 155.716 582.756 154.544C584.075 153.377 584.733 151.728 584.733 149.608C584.733 148.074 584.347 146.755 583.57 145.664C582.794 144.568 581.77 143.848 580.498 143.496C579.678 143.277 578.168 143.172 575.962 143.172H566.567V156.297Z" fill="white"/>
<path fill-rule="evenodd" clip-rule="evenodd" d="M593.68 162.262C593.68 157.336 595.047 153.686 597.786 151.314C600.078 149.342 602.865 148.355 606.157 148.355C609.816 148.355 612.803 149.556 615.128 151.952C617.448 154.349 618.61 157.66 618.61 161.885C618.61 165.311 618.096 168.007 617.067 169.97C616.042 171.928 614.546 173.453 612.584 174.539C610.621 175.625 608.477 176.168 606.157 176.168C602.431 176.168 599.42 174.977 597.124 172.586C594.828 170.199 593.68 166.754 593.68 162.262ZM598.315 162.262C598.315 165.673 599.058 168.222 600.545 169.918C602.031 171.614 603.903 172.462 606.157 172.462C608.396 172.462 610.259 171.609 611.745 169.903C613.232 168.203 613.975 165.601 613.975 162.114C613.975 158.822 613.227 156.331 611.731 154.635C610.235 152.939 608.377 152.091 606.157 152.091C603.903 152.091 602.031 152.934 600.545 154.62C599.058 156.307 598.315 158.856 598.315 162.262Z" fill="white"/>
<path fill-rule="evenodd" clip-rule="evenodd" d="M623.846 175.568V148.956H627.905V152.991C628.943 151.104 629.896 149.861 630.773 149.261C631.649 148.656 632.616 148.355 633.669 148.355C635.189 148.355 636.733 148.841 638.305 149.809L636.752 153.996C635.646 153.343 634.546 153.015 633.445 153.015C632.459 153.015 631.573 153.315 630.787 153.906C630.001 154.501 629.444 155.321 629.11 156.373C628.605 157.979 628.357 159.732 628.357 161.638V175.568H623.846Z" fill="white"/>
<path fill-rule="evenodd" clip-rule="evenodd" d="M650.834 171.533L651.482 175.515C650.215 175.787 649.076 175.92 648.076 175.92C646.437 175.92 645.17 175.658 644.269 175.144C643.364 174.625 642.731 173.943 642.364 173.1C641.997 172.257 641.811 170.48 641.811 167.774V152.467H638.505V148.956H641.811V142.367L646.299 139.661V148.956H650.834V152.467H646.299V168.026C646.299 169.313 646.375 170.137 646.537 170.508C646.694 170.875 646.952 171.166 647.314 171.385C647.671 171.599 648.186 171.709 648.852 171.709C649.353 171.709 650.015 171.652 650.834 171.533Z" fill="white"/>
<path fill-rule="evenodd" clip-rule="evenodd" d="M678.495 175.568V143.172H666.395V138.837H695.508V143.172H683.355V175.568H678.495Z" fill="white"/>
<path fill-rule="evenodd" clip-rule="evenodd" d="M711.596 172.285C709.923 173.705 708.318 174.706 706.77 175.292C705.226 175.878 703.568 176.168 701.796 176.168C698.875 176.168 696.627 175.454 695.059 174.029C693.487 172.6 692.701 170.775 692.701 168.55C692.701 167.25 692.997 166.059 693.592 164.982C694.183 163.905 694.959 163.038 695.922 162.39C696.884 161.738 697.965 161.242 699.166 160.909C700.052 160.675 701.386 160.451 703.177 160.232C706.817 159.799 709.499 159.28 711.219 158.679C711.233 158.06 711.243 157.669 711.243 157.503C711.243 155.664 710.819 154.368 709.966 153.62C708.813 152.6 707.103 152.091 704.831 152.091C702.706 152.091 701.143 152.462 700.133 153.205C699.118 153.949 698.375 155.263 697.889 157.15L693.478 156.55C693.878 154.663 694.54 153.139 695.46 151.976C696.379 150.819 697.703 149.923 699.442 149.294C701.181 148.67 703.192 148.355 705.483 148.355C707.751 148.355 709.599 148.622 711.019 149.161C712.439 149.694 713.482 150.366 714.149 151.176C714.821 151.986 715.288 153.01 715.555 154.244C715.702 155.011 715.778 156.402 715.778 158.403V164.42C715.778 168.612 715.874 171.261 716.069 172.371C716.26 173.486 716.641 174.548 717.208 175.568H712.496C712.029 174.634 711.729 173.538 711.596 172.285ZM711.219 162.214C709.58 162.881 707.127 163.448 703.854 163.915C701.996 164.182 700.686 164.487 699.919 164.82C699.152 165.154 698.556 165.64 698.137 166.283C697.723 166.926 697.513 167.641 697.513 168.427C697.513 169.632 697.97 170.632 698.88 171.433C699.79 172.233 701.119 172.638 702.877 172.638C704.611 172.638 706.16 172.257 707.513 171.495C708.866 170.737 709.857 169.699 710.49 168.379C710.976 167.359 711.219 165.854 711.219 163.867V162.214Z" fill="white"/>
<path fill-rule="evenodd" clip-rule="evenodd" d="M722.672 138.837H727.183V175.568H722.672V138.837Z" fill="white"/>
<path fill-rule="evenodd" clip-rule="evenodd" d="M738.332 175.568H734.145V138.837H738.656V151.938C740.562 149.551 742.991 148.355 745.95 148.355C747.584 148.355 749.132 148.684 750.595 149.346C752.057 150.004 753.258 150.933 754.206 152.128C755.149 153.32 755.888 154.763 756.421 156.45C756.955 158.136 757.222 159.942 757.222 161.862C757.222 166.421 756.097 169.946 753.839 172.438C751.586 174.925 748.88 176.168 745.721 176.168C742.582 176.168 740.119 174.858 738.332 172.233V175.568ZM738.28 162.062C738.28 165.254 738.713 167.559 739.585 168.979C741.005 171.299 742.925 172.462 745.345 172.462C747.317 172.462 749.023 171.604 750.457 169.894C751.896 168.179 752.615 165.63 752.615 162.238C752.615 158.765 751.924 156.197 750.547 154.544C749.166 152.891 747.503 152.067 745.545 152.067C743.577 152.067 741.872 152.919 740.433 154.634C738.999 156.345 738.28 158.822 738.28 162.062Z" fill="white"/>
<path fill-rule="evenodd" clip-rule="evenodd" d="M761.033 162.262C761.033 157.336 762.4 153.686 765.14 151.314C767.431 149.342 770.218 148.355 773.51 148.355C777.169 148.355 780.156 149.556 782.481 151.952C784.801 154.349 785.964 157.66 785.964 161.885C785.964 165.311 785.449 168.007 784.42 169.97C783.396 171.928 781.9 173.453 779.937 174.539C777.974 175.625 775.83 176.168 773.51 176.168C769.785 176.168 766.774 174.977 764.478 172.586C762.181 170.199 761.033 166.754 761.033 162.262ZM765.669 162.262C765.669 165.673 766.412 168.222 767.898 169.918C769.385 171.614 771.257 172.462 773.51 172.462C775.749 172.462 777.612 171.609 779.099 169.903C780.585 168.203 781.328 165.601 781.328 162.114C781.328 158.822 780.58 156.331 779.084 154.635C777.588 152.939 775.73 152.091 773.51 152.091C771.257 152.091 769.385 152.934 767.898 154.62C766.412 156.307 765.669 158.856 765.669 162.262Z" fill="white"/>
<path fill-rule="evenodd" clip-rule="evenodd" d="M801.099 171.533L801.747 175.515C800.48 175.787 799.341 175.92 798.341 175.92C796.702 175.92 795.435 175.658 794.534 175.144C793.629 174.625 792.995 173.943 792.628 173.1C792.262 172.257 792.076 170.48 792.076 167.774V152.467H788.77V148.956H792.076V142.367L796.564 139.661V148.956H801.099V152.467H796.564V168.026C796.564 169.313 796.64 170.137 796.802 170.508C796.959 170.875 797.216 171.166 797.578 171.385C797.936 171.599 798.45 171.709 799.117 171.709C799.617 171.709 800.28 171.652 801.099 171.533Z" fill="white"/>
<path fill-rule="evenodd" clip-rule="evenodd" d="M846.548 162.69L851.412 163.915C850.393 167.907 848.559 170.951 845.91 173.048C843.261 175.144 840.026 176.192 836.201 176.192C832.242 176.192 829.021 175.387 826.544 173.776C824.062 172.166 822.175 169.832 820.879 166.773C819.583 163.715 818.936 160.432 818.936 156.926C818.936 153.1 819.669 149.765 821.132 146.917C822.59 144.068 824.672 141.905 827.368 140.428C830.064 138.946 833.037 138.208 836.277 138.208C839.95 138.208 843.042 139.142 845.548 141.014C848.054 142.886 849.797 145.516 850.784 148.908L846 150.037C845.148 147.364 843.909 145.416 842.289 144.196C840.669 142.977 838.63 142.367 836.177 142.367C833.352 142.367 830.993 143.043 829.097 144.396C827.201 145.749 825.872 147.569 825.1 149.846C824.333 152.128 823.947 154.477 823.947 156.902C823.947 160.023 824.405 162.752 825.315 165.082C826.225 167.412 827.64 169.155 829.559 170.308C831.484 171.456 833.561 172.033 835.8 172.033C838.525 172.033 840.827 171.251 842.718 169.679C844.604 168.107 845.881 165.778 846.548 162.69Z" fill="white"/>
<path fill-rule="evenodd" clip-rule="evenodd" d="M855.143 162.262C855.143 157.336 856.515 153.686 859.254 151.314C861.541 149.342 864.332 148.355 867.624 148.355C871.279 148.355 874.27 149.556 876.591 151.952C878.915 154.349 880.078 157.66 880.078 161.885C880.078 165.311 879.563 168.007 878.534 169.97C877.505 171.928 876.014 173.453 874.051 174.539C872.088 175.625 869.945 176.168 867.624 176.168C863.899 176.168 860.888 174.977 858.592 172.586C856.291 170.199 855.143 166.754 855.143 162.262ZM859.778 162.262C859.778 165.673 860.521 168.222 862.008 169.918C863.494 171.614 865.366 172.462 867.624 172.462C869.859 172.462 871.722 171.609 873.208 169.903C874.694 168.203 875.442 165.601 875.442 162.114C875.442 158.822 874.694 156.331 873.198 154.635C871.703 152.939 869.845 152.091 867.624 152.091C865.366 152.091 863.494 152.934 862.008 154.62C860.521 156.307 859.778 158.856 859.778 162.262Z" fill="white"/>
<path fill-rule="evenodd" clip-rule="evenodd" d="M902.802 175.568V171.661C900.73 174.667 897.914 176.168 894.355 176.168C892.788 176.168 891.321 175.868 889.958 175.268C888.6 174.667 887.586 173.91 886.928 173C886.266 172.09 885.804 170.975 885.537 169.656C885.356 168.769 885.261 167.364 885.261 165.444V148.956H889.772V163.715C889.772 166.073 889.863 167.659 890.049 168.479C890.33 169.665 890.935 170.594 891.849 171.271C892.769 171.947 893.908 172.285 895.261 172.285C896.614 172.285 897.881 171.938 899.067 171.247C900.253 170.551 901.092 169.608 901.587 168.412C902.078 167.221 902.326 165.487 902.326 163.214V148.956H906.837V175.568H902.802Z" fill="white"/>
<path fill-rule="evenodd" clip-rule="evenodd" d="M913.902 175.568V148.956H917.961V152.743C919.915 149.818 922.74 148.355 926.432 148.355C928.033 148.355 929.509 148.646 930.853 149.223C932.196 149.799 933.202 150.552 933.873 151.49C934.54 152.424 935.007 153.534 935.274 154.82C935.441 155.654 935.527 157.117 935.527 159.208V175.568H931.015V159.38C931.015 157.545 930.839 156.169 930.491 155.259C930.138 154.349 929.514 153.625 928.623 153.081C927.728 152.538 926.68 152.267 925.479 152.267C923.554 152.267 921.896 152.877 920.505 154.096C919.109 155.316 918.414 157.626 918.414 161.037V175.568H913.902Z" fill="white"/>
<path fill-rule="evenodd" clip-rule="evenodd" d="M959.804 165.821L964.24 166.397C963.754 169.456 962.515 171.847 960.519 173.577C958.523 175.306 956.069 176.168 953.163 176.168C949.524 176.168 946.598 174.977 944.383 172.6C942.168 170.218 941.062 166.807 941.062 162.362C941.062 159.489 941.539 156.974 942.492 154.82C943.445 152.667 944.893 151.052 946.837 149.97C948.785 148.894 950.9 148.355 953.192 148.355C956.079 148.355 958.442 149.089 960.281 150.547C962.12 152.01 963.297 154.087 963.816 156.774L959.428 157.45C959.014 155.664 958.27 154.32 957.213 153.42C956.15 152.515 954.869 152.067 953.363 152.067C951.096 152.067 949.247 152.881 947.827 154.506C946.408 156.135 945.698 158.713 945.698 162.238C945.698 165.811 946.384 168.412 947.751 170.032C949.123 171.652 950.91 172.462 953.116 172.462C954.888 172.462 956.365 171.919 957.551 170.832C958.737 169.746 959.49 168.074 959.804 165.821Z" fill="white"/>
<path fill-rule="evenodd" clip-rule="evenodd" d="M968.123 144.02V138.837H972.635V144.02H968.123ZM968.123 175.568V148.956H972.635V175.568H968.123Z" fill="white"/>
<path fill-rule="evenodd" clip-rule="evenodd" d="M979.399 138.837H983.911V175.568H979.399V138.837Z" fill="white"/>
<path fill-rule="evenodd" clip-rule="evenodd" d="M433.127 91.043L437.991 92.2673C436.972 96.2596 435.138 99.3039 432.489 101.4C429.845 103.496 426.605 104.544 422.78 104.544C418.821 104.544 415.6 103.739 413.123 102.129C410.641 100.519 408.754 98.1843 407.458 95.1258C406.163 92.0672 405.515 88.7848 405.515 85.2784C405.515 81.4528 406.248 78.118 407.711 75.2691C409.169 72.4201 411.251 70.2572 413.947 68.7804C416.648 67.2987 419.616 66.5603 422.856 66.5603C426.529 66.5603 429.621 67.4941 432.127 69.3664C434.633 71.2386 436.376 73.8684 437.363 77.2604L432.579 78.3895C431.727 75.7169 430.488 73.7684 428.868 72.5488C427.248 71.3292 425.209 70.7194 422.756 70.7194C419.931 70.7194 417.573 71.3959 415.676 72.7489C413.78 74.1019 412.451 75.9217 411.679 78.199C410.912 80.481 410.526 82.8297 410.526 85.2546C410.526 88.3751 410.984 91.1049 411.894 93.4345C412.804 95.7642 414.219 97.5078 416.139 98.6607C418.063 99.8089 420.14 100.385 422.38 100.385C425.105 100.385 427.406 99.604 429.297 98.0319C431.184 96.4597 432.46 94.1301 433.127 91.043Z" fill="white"/>
<path fill-rule="evenodd" clip-rule="evenodd" d="M443.203 114.168L442.703 109.933C443.684 110.199 444.546 110.333 445.28 110.333C446.285 110.333 447.086 110.166 447.686 109.833C448.286 109.499 448.782 109.032 449.163 108.432C449.449 107.979 449.906 106.86 450.544 105.073C450.625 104.821 450.759 104.454 450.945 103.973L440.845 77.3081H445.709L451.245 92.7199C451.964 94.6732 452.607 96.7313 453.174 98.8847C453.693 96.8123 454.308 94.7923 455.027 92.82L460.716 77.3081H465.227L455.104 104.373C454.017 107.293 453.174 109.308 452.574 110.409C451.769 111.895 450.854 112.986 449.816 113.682C448.782 114.373 447.543 114.721 446.109 114.721C445.237 114.721 444.27 114.535 443.203 114.168Z" fill="white"/>
<path fill-rule="evenodd" clip-rule="evenodd" d="M469.058 103.92V77.308H473.121V81.0955C475.075 78.1703 477.895 76.7078 481.587 76.7078C483.193 76.7078 484.665 76.9984 486.013 77.5748C487.356 78.1513 488.362 78.904 489.029 79.8425C489.7 80.7763 490.167 81.8863 490.434 83.1726C490.601 84.0063 490.682 85.4689 490.682 87.5604V103.92H486.175V87.7319C486.175 85.8977 485.999 84.5209 485.646 83.6109C485.298 82.701 484.674 81.9768 483.779 81.4337C482.888 80.8906 481.84 80.6191 480.634 80.6191C478.714 80.6191 477.057 81.2289 475.661 82.4485C474.27 83.6681 473.569 85.9787 473.569 89.3898V103.92H469.058Z" fill="white"/>
<path fill-rule="evenodd" clip-rule="evenodd" d="M496.771 106.126L501.158 106.779C501.339 108.132 501.849 109.113 502.688 109.732C503.807 110.571 505.332 110.985 507.271 110.985C509.357 110.985 510.972 110.571 512.106 109.732C513.245 108.899 514.012 107.727 514.412 106.226C514.645 105.307 514.755 103.377 514.741 100.438C512.768 102.758 510.31 103.92 507.371 103.92C503.712 103.92 500.882 102.601 498.876 99.9613C496.875 97.322 495.87 94.1586 495.87 90.4665C495.87 87.9272 496.332 85.5833 497.247 83.4347C498.166 81.2908 499.5 79.6329 501.244 78.4609C502.992 77.2937 505.041 76.7078 507.394 76.7078C510.539 76.7078 513.126 77.9798 515.165 80.519V77.308H519.324V100.314C519.324 104.454 518.9 107.389 518.056 109.118C517.213 110.847 515.879 112.215 514.05 113.215C512.22 114.22 509.967 114.72 507.294 114.72C504.122 114.72 501.558 114.006 499.605 112.577C497.652 111.147 496.704 108.999 496.771 106.126ZM500.506 90.1377C500.506 93.6298 501.201 96.1786 502.587 97.7793C503.974 99.3848 505.708 100.185 507.799 100.185C509.867 100.185 511.606 99.3896 513.011 97.7936C514.412 96.1977 515.112 93.6965 515.112 90.2902C515.112 87.0315 514.393 84.578 512.945 82.9249C511.501 81.267 509.762 80.4428 507.723 80.4428C505.717 80.4428 504.012 81.2575 502.611 82.8868C501.206 84.5161 500.506 86.9315 500.506 90.1377Z" fill="white"/>
<path fill-rule="evenodd" clip-rule="evenodd" d="M524.46 90.6141C524.46 85.6881 525.832 82.0388 528.571 79.6663C530.858 77.6939 533.65 76.7078 536.937 76.7078C540.596 76.7078 543.588 77.9083 545.908 80.3047C548.233 82.701 549.39 86.012 549.39 90.2378C549.39 93.6632 548.881 96.3596 547.852 98.3224C546.823 100.28 545.327 101.805 543.364 102.891C541.401 103.977 539.262 104.521 536.937 104.521C533.212 104.521 530.201 103.329 527.904 100.938C525.608 98.5511 524.46 95.1067 524.46 90.6141ZM529.095 90.6141C529.095 94.0252 529.839 96.574 531.325 98.27C532.811 99.9661 534.684 100.814 536.937 100.814C539.176 100.814 541.039 99.9613 542.525 98.2557C544.012 96.555 544.755 93.9538 544.755 90.4665C544.755 87.1745 544.007 84.6828 542.516 82.9868C541.02 81.2908 539.162 80.4428 536.937 80.4428C534.684 80.4428 532.811 81.2861 531.325 82.9725C529.839 84.659 529.095 87.2078 529.095 90.6141Z" fill="white"/>
<path fill-rule="evenodd" clip-rule="evenodd" d="M554.631 103.92V77.308H558.69V81.3432C559.724 79.4566 560.681 78.2132 561.558 77.6129C562.434 77.0079 563.397 76.7078 564.45 76.7078C565.969 76.7078 567.518 77.1937 569.085 78.1608L567.532 82.3484C566.432 81.6958 565.326 81.367 564.226 81.367C563.24 81.367 562.353 81.6672 561.567 82.2579C560.786 82.8534 560.224 83.6729 559.89 84.7257C559.39 86.3312 559.138 88.0844 559.138 89.99V103.92H554.631Z" fill="white"/>
<path fill-rule="evenodd" clip-rule="evenodd" d="M612.81 91.043L617.669 92.2673C616.655 96.2596 614.82 99.3039 612.172 101.4C609.523 103.496 606.288 104.544 602.462 104.544C598.503 104.544 595.283 103.739 592.801 102.129C590.323 100.519 588.432 98.1843 587.141 95.1258C585.845 92.0672 585.197 88.7848 585.197 85.2784C585.197 81.4528 585.931 78.118 587.389 75.2691C588.851 72.4201 590.933 70.2572 593.63 68.7804C596.326 67.2987 599.294 66.5603 602.539 66.5603C606.212 66.5603 609.304 67.4941 611.809 69.3664C614.315 71.2386 616.059 73.8684 617.045 77.2604L612.257 78.3895C611.409 75.7169 610.171 73.7684 608.551 72.5488C606.931 71.3292 604.892 70.7194 602.439 70.7194C599.613 70.7194 597.255 71.3959 595.359 72.7489C593.463 74.1019 592.129 75.9217 591.362 78.199C590.595 80.481 590.209 82.8297 590.209 85.2546C590.209 88.3751 590.666 91.1049 591.576 93.4345C592.486 95.7642 593.901 97.5078 595.821 98.6607C597.741 99.8089 599.823 100.385 602.062 100.385C604.782 100.385 607.088 99.604 608.975 98.0319C610.866 96.4597 612.143 94.1301 612.81 91.043Z" fill="white"/>
<path fill-rule="evenodd" clip-rule="evenodd" d="M640.446 100.638C638.779 102.057 637.169 103.058 635.625 103.644C634.077 104.23 632.419 104.521 630.651 104.521C627.726 104.521 625.482 103.806 623.91 102.381C622.338 100.952 621.557 99.1276 621.557 96.9027C621.557 95.6021 621.852 94.4111 622.443 93.3344C623.038 92.2578 623.815 91.3907 624.772 90.7428C625.735 90.0901 626.816 89.5946 628.022 89.2611C628.903 89.0277 630.242 88.8038 632.028 88.5846C635.668 88.1511 638.35 87.6318 640.07 87.0315C640.089 86.4122 640.098 86.0216 640.098 85.8548C640.098 84.0159 639.67 82.72 638.817 81.9721C637.664 80.9526 635.954 80.4428 633.681 80.4428C631.561 80.4428 629.994 80.8144 628.984 81.5576C627.974 82.3008 627.226 83.6157 626.74 85.5023L622.333 84.902C622.733 83.0154 623.391 81.4909 624.31 80.3285C625.23 79.1708 626.559 78.2751 628.293 77.6463C630.032 77.0222 632.047 76.7078 634.334 76.7078C636.606 76.7078 638.45 76.9746 639.87 77.5129C641.29 78.0465 642.333 78.7182 643.005 79.5281C643.672 80.338 644.138 81.3623 644.405 82.5962C644.558 83.3632 644.634 84.7543 644.634 86.7552V92.7723C644.634 96.9647 644.729 99.6135 644.92 100.724C645.11 101.838 645.491 102.901 646.058 103.92H641.351C640.88 102.986 640.58 101.891 640.446 100.638ZM640.07 90.5665C638.436 91.2335 635.978 91.8004 632.705 92.2673C630.851 92.5341 629.541 92.839 628.769 93.1725C628.002 93.5059 627.412 93.9919 626.992 94.635C626.573 95.2782 626.364 95.9928 626.364 96.7789C626.364 97.9842 626.821 98.9846 627.731 99.785C628.641 100.585 629.975 100.99 631.728 100.99C633.467 100.99 635.01 100.609 636.363 99.8469C637.716 99.0895 638.712 98.0509 639.346 96.7312C639.832 95.7117 640.07 94.2063 640.07 92.2196V90.5665Z" fill="white"/>
<path fill-rule="evenodd" clip-rule="evenodd" d="M649.817 95.9785L654.281 95.2734C654.529 97.0647 655.225 98.432 656.373 99.3848C657.516 100.338 659.117 100.814 661.17 100.814C663.243 100.814 664.777 100.39 665.782 99.5468C666.782 98.7036 667.283 97.7126 667.283 96.5788C667.283 95.5593 666.839 94.7589 665.953 94.1729C665.339 93.7727 663.8 93.263 661.346 92.6436C658.035 91.8099 655.744 91.0858 654.467 90.476C653.19 89.8662 652.218 89.0229 651.561 87.9463C650.899 86.8696 650.57 85.6785 650.57 84.3779C650.57 83.1917 650.842 82.0912 651.385 81.0812C651.928 80.0712 652.666 79.2327 653.605 78.561C654.305 78.0465 655.263 77.6082 656.473 77.2461C657.683 76.8888 658.983 76.7078 660.37 76.7078C662.456 76.7078 664.291 77.0079 665.868 77.6129C667.445 78.2132 668.612 79.0279 669.364 80.0522C670.112 81.0812 670.632 82.4533 670.918 84.1779L666.506 84.7781C666.306 83.4061 665.725 82.3389 664.767 81.5719C663.805 80.8001 662.447 80.419 660.694 80.419C658.621 80.419 657.145 80.7572 656.258 81.4433C655.372 82.1293 654.929 82.9297 654.929 83.8491C654.929 84.4351 655.115 84.9592 655.482 85.4308C655.849 85.912 656.425 86.3122 657.211 86.6314C657.664 86.7981 658.988 87.184 661.194 87.7843C664.386 88.637 666.611 89.3326 667.873 89.8757C669.136 90.4188 670.122 91.2097 670.841 92.2435C671.561 93.2773 671.918 94.5636 671.918 96.1024C671.918 97.6078 671.48 99.0228 670.603 100.352C669.727 101.676 668.459 102.705 666.806 103.43C665.153 104.158 663.281 104.521 661.194 104.521C657.735 104.521 655.101 103.801 653.29 102.367C651.475 100.928 650.322 98.7988 649.817 95.9785Z" fill="white"/>
<path fill-rule="evenodd" clip-rule="evenodd" d="M687.129 99.8852L687.777 103.868C686.51 104.14 685.376 104.273 684.371 104.273C682.737 104.273 681.465 104.011 680.564 103.496C679.659 102.977 679.026 102.296 678.659 101.453C678.292 100.609 678.106 98.8323 678.106 96.1263V80.8193H674.8V77.3082H678.106V70.7194L682.594 68.0134V77.3082H687.129V80.8193H682.594V96.3788C682.594 97.6651 682.67 98.4893 682.832 98.8609C682.989 99.2277 683.247 99.5184 683.609 99.7375C683.966 99.9519 684.48 100.061 685.147 100.061C685.648 100.061 686.31 100.004 687.129 99.8852Z" fill="white"/>
<path fill-rule="evenodd" clip-rule="evenodd" d="M709.754 95.3496L714.413 95.9261C713.679 98.6512 712.317 100.762 710.33 102.267C708.344 103.768 705.804 104.521 702.712 104.521C698.82 104.521 695.733 103.325 693.456 100.924C691.174 98.5273 690.035 95.1686 690.035 90.8428C690.035 86.3646 691.188 82.8916 693.494 80.419C695.795 77.9464 698.787 76.7078 702.46 76.7078C706.019 76.7078 708.925 77.9178 711.183 80.3428C713.436 82.7629 714.565 86.174 714.565 90.5665C714.565 90.8333 714.556 91.2335 714.542 91.7671H694.694C694.861 94.6922 695.69 96.9313 697.177 98.4844C698.663 100.038 700.516 100.814 702.736 100.814C704.389 100.814 705.804 100.381 706.971 99.5087C708.143 98.6416 709.068 97.2553 709.754 95.3496ZM694.947 88.0606H709.806C709.601 85.8215 709.034 84.1445 708.101 83.0249C706.662 81.2861 704.799 80.419 702.512 80.419C700.44 80.419 698.701 81.1098 697.286 82.4961C695.876 83.8825 695.095 85.7357 694.947 88.0606Z" fill="white"/>
<path fill-rule="evenodd" clip-rule="evenodd" d="M719.978 67.1892H724.489V103.92H719.978V67.1892Z" fill="white"/>
<path fill-rule="evenodd" clip-rule="evenodd" d="M731.378 67.1892H735.89V103.92H731.378V67.1892Z" fill="white"/>
<path fill-rule="evenodd" clip-rule="evenodd" d="M741.126 88.3608H754.98V92.8963H741.126V88.3608Z" fill="white"/>
<path fill-rule="evenodd" clip-rule="evenodd" d="M759.968 103.92V77.308H764.027V81.0955C765.98 78.1703 768.805 76.7078 772.497 76.7078C774.098 76.7078 775.575 76.9984 776.918 77.5748C778.262 78.1513 779.272 78.904 779.939 79.8425C780.606 80.7763 781.073 81.8863 781.339 83.1726C781.506 84.0063 781.592 85.4689 781.592 87.5604V103.92H777.08V87.7319C777.08 85.8977 776.904 84.5209 776.556 83.6109C776.204 82.701 775.58 81.9768 774.689 81.4337C773.793 80.8906 772.745 80.6191 771.545 80.6191C769.625 80.6191 767.967 81.2289 766.571 82.4485C765.175 83.6681 764.479 85.9787 764.479 89.3898V103.92H759.968Z" fill="white"/>
<path fill-rule="evenodd" clip-rule="evenodd" d="M806.722 95.3496L811.382 95.9261C810.648 98.6512 809.286 100.762 807.299 102.267C805.312 103.768 802.773 104.521 799.681 104.521C795.789 104.521 792.702 103.325 790.425 100.924C788.143 98.5273 787.004 95.1686 787.004 90.8428C787.004 86.3646 788.157 82.8916 790.463 80.419C792.768 77.9464 795.756 76.7078 799.433 76.7078C802.987 76.7078 805.898 77.9178 808.152 80.3428C810.405 82.7629 811.534 86.174 811.534 90.5665C811.534 90.8333 811.525 91.2335 811.51 91.7671H791.663C791.83 94.6922 792.659 96.9313 794.145 98.4844C795.632 100.038 797.485 100.814 799.705 100.814C801.363 100.814 802.773 100.381 803.94 99.5087C805.112 98.6416 806.036 97.2553 806.722 95.3496ZM791.916 88.0606H806.775C806.575 85.8215 806.003 84.1445 805.069 83.0249C803.631 81.2861 801.773 80.419 799.481 80.419C797.409 80.419 795.67 81.1098 794.26 82.4961C792.845 83.8825 792.063 85.7357 791.916 88.0606Z" fill="white"/>
<path fill-rule="evenodd" clip-rule="evenodd" d="M834.311 103.92V100.562C832.625 103.201 830.143 104.521 826.87 104.521C824.745 104.521 822.797 103.939 821.02 102.767C819.238 101.6 817.861 99.9661 816.884 97.8699C815.908 95.7737 815.417 93.3631 815.417 90.6381C815.417 87.9845 815.86 85.5738 816.746 83.4109C817.632 81.248 818.962 79.5901 820.729 78.4372C822.501 77.2843 824.478 76.7079 826.67 76.7079C828.271 76.7079 829.7 77.0461 830.953 77.7226C832.206 78.3991 833.225 79.2805 834.011 80.3667V67.1892H838.494V103.92H834.311ZM820.052 90.6381C820.052 94.0491 820.772 96.5932 822.206 98.2844C823.645 99.9709 825.341 100.814 827.294 100.814C829.266 100.814 830.938 100.009 832.32 98.394C833.697 96.7837 834.388 94.3255 834.388 91.0144C834.388 87.3747 833.683 84.702 832.282 82.9965C830.876 81.2957 829.147 80.4429 827.094 80.4429C825.088 80.4429 823.416 81.2623 822.072 82.8964C820.724 84.5353 820.052 87.1174 820.052 90.6381Z" fill="white"/>
<path fill-rule="evenodd" clip-rule="evenodd" d="M862.849 103.92V100.562C861.162 103.201 858.685 104.521 855.407 104.521C853.287 104.521 851.339 103.939 849.557 102.767C847.78 101.6 846.403 99.9661 845.422 97.8699C844.445 95.7737 843.959 93.3631 843.959 90.6381C843.959 87.9845 844.402 85.5738 845.283 83.4109C846.17 81.248 847.499 79.5901 849.271 78.4372C851.038 77.2843 853.02 76.7079 855.207 76.7079C856.812 76.7079 858.242 77.0461 859.495 77.7226C860.748 78.3991 861.762 79.2805 862.548 80.3667V67.1892H867.036V103.92H862.849ZM848.594 90.6381C848.594 94.0491 849.309 96.5932 850.748 98.2844C852.187 99.9709 853.878 100.814 855.836 100.814C857.803 100.814 859.48 100.009 860.857 98.394C862.239 96.7837 862.925 94.3255 862.925 91.0144C862.925 87.3747 862.225 84.702 860.819 82.9965C859.418 81.2957 857.689 80.4429 855.636 80.4429C853.63 80.4429 851.953 81.2623 850.61 82.8964C849.266 84.5353 848.594 87.1174 848.594 90.6381Z" fill="white"/>
<path fill-rule="evenodd" clip-rule="evenodd" d="M888.96 103.92V67.1892H902.814C905.253 67.1892 907.116 67.3035 908.402 67.537C910.208 67.8371 911.718 68.4088 912.938 69.2568C914.157 70.1001 915.139 71.2816 915.882 72.8013C916.625 74.3211 916.997 75.9885 916.997 77.8131C916.997 80.9336 916.001 83.5777 914.014 85.7406C912.028 87.9035 908.436 88.9849 903.243 88.9849H893.819V103.92H888.96ZM893.819 84.6496H903.314C906.458 84.6496 908.688 84.0684 910.008 82.8964C911.327 81.7292 911.985 80.0808 911.985 77.9608C911.985 76.4268 911.599 75.1071 910.822 74.0161C910.046 72.9204 909.022 72.201 907.75 71.8485C906.935 71.6293 905.42 71.5245 903.214 71.5245H893.819V84.6496Z" fill="white"/>
<path fill-rule="evenodd" clip-rule="evenodd" d="M920.932 90.6141C920.932 85.6881 922.299 82.0388 925.038 79.6663C927.33 77.6939 930.117 76.7078 933.409 76.7078C937.068 76.7078 940.059 77.9083 942.38 80.3047C944.7 82.701 945.862 86.012 945.862 90.2378C945.862 93.6632 945.348 96.3596 944.323 98.3224C943.294 100.28 941.798 101.805 939.836 102.891C937.873 103.977 935.729 104.521 933.409 104.521C929.683 104.521 926.672 103.329 924.376 100.938C922.08 98.5511 920.932 95.1067 920.932 90.6141ZM925.567 90.6141C925.567 94.0252 926.31 96.574 927.797 98.27C929.283 99.9661 931.155 100.814 933.409 100.814C935.648 100.814 937.511 99.9613 938.997 98.2557C940.483 96.555 941.227 93.9538 941.227 90.4665C941.227 87.1745 940.479 84.6828 938.983 82.9868C937.487 81.2908 935.629 80.4428 933.409 80.4428C931.155 80.4428 929.283 81.2861 927.797 82.9725C926.31 84.659 925.567 87.2078 925.567 90.6141Z" fill="white"/>
<path fill-rule="evenodd" clip-rule="evenodd" d="M951.099 103.92V77.308H955.158V81.3432C956.196 79.4566 957.149 78.2132 958.026 77.6129C958.907 77.0079 959.869 76.7078 960.922 76.7078C962.442 76.7078 963.986 77.1937 965.558 78.1608L964.005 82.3484C962.899 81.6958 961.799 81.367 960.698 81.367C959.712 81.367 958.826 81.6672 958.04 82.2579C957.254 82.8534 956.696 83.6729 956.363 84.7257C955.863 86.3312 955.61 88.0844 955.61 89.99V103.92H951.099Z" fill="white"/>
<path fill-rule="evenodd" clip-rule="evenodd" d="M978.087 99.8852L978.735 103.868C977.468 104.14 976.334 104.273 975.329 104.273C973.695 104.273 972.423 104.011 971.522 103.496C970.617 102.977 969.984 102.296 969.617 101.453C969.25 100.609 969.064 98.8323 969.064 96.1263V80.8193H965.758V77.3082H969.064V70.7194L973.552 68.0134V77.3082H978.087V80.8193H973.552V96.3788C973.552 97.6651 973.628 98.4893 973.79 98.8609C973.947 99.2277 974.205 99.5184 974.567 99.7375C974.924 99.9519 975.438 100.061 976.105 100.061C976.606 100.061 977.268 100.004 978.087 99.8852Z" fill="white"/>
<path fill-rule="evenodd" clip-rule="evenodd" d="M1005.75 103.92V71.5245H993.646V67.1892H1022.76V71.5245H1010.61V103.92H1005.75Z" fill="white"/>
<path fill-rule="evenodd" clip-rule="evenodd" d="M1038.85 100.638C1037.18 102.057 1035.57 103.058 1034.02 103.644C1032.48 104.23 1030.82 104.521 1029.05 104.521C1026.13 104.521 1023.88 103.806 1022.31 102.381C1020.74 100.952 1019.95 99.1276 1019.95 96.9027C1019.95 95.6021 1020.25 94.4111 1020.84 93.3344C1021.43 92.2578 1022.21 91.3907 1023.17 90.7428C1024.14 90.0901 1025.22 89.5946 1026.42 89.2611C1027.3 89.0277 1028.64 88.8038 1030.43 88.5846C1034.07 88.1511 1036.75 87.6318 1038.47 87.0315C1038.49 86.4122 1038.49 86.0216 1038.49 85.8548C1038.49 84.0159 1038.07 82.72 1037.22 81.9721C1036.07 80.9526 1034.35 80.4428 1032.08 80.4428C1029.96 80.4428 1028.4 80.8144 1027.39 81.5576C1026.38 82.3008 1025.63 83.6157 1025.14 85.5023L1020.73 84.902C1021.13 83.0154 1021.79 81.4909 1022.71 80.3285C1023.63 79.1708 1024.96 78.2751 1026.69 77.6463C1028.43 77.0222 1030.44 76.7078 1032.74 76.7078C1035 76.7078 1036.85 76.9746 1038.27 77.5129C1039.69 78.0465 1040.73 78.7182 1041.4 79.5281C1042.07 80.338 1042.54 81.3623 1042.81 82.5962C1042.95 83.3632 1043.03 84.7543 1043.03 86.7552V92.7723C1043.03 96.9647 1043.13 99.6135 1043.32 100.724C1043.51 101.838 1043.89 102.901 1044.46 103.92H1039.75C1039.28 102.986 1038.98 101.891 1038.85 100.638ZM1038.47 90.5665C1036.83 91.2335 1034.38 91.8004 1031.11 92.2673C1029.25 92.5341 1027.94 92.839 1027.17 93.1725C1026.4 93.5059 1025.81 93.9919 1025.39 94.635C1024.97 95.2782 1024.76 95.9928 1024.76 96.7789C1024.76 97.9842 1025.22 98.9846 1026.13 99.785C1027.04 100.585 1028.37 100.99 1030.13 100.99C1031.86 100.99 1033.41 100.609 1034.76 99.8469C1036.12 99.0895 1037.11 98.0509 1037.74 96.7312C1038.23 95.7117 1038.47 94.2063 1038.47 92.2196V90.5665Z" fill="white"/>
<path fill-rule="evenodd" clip-rule="evenodd" d="M1049.92 67.1892H1054.44V103.92H1049.92V67.1892Z" fill="white"/>
<path fill-rule="evenodd" clip-rule="evenodd" d="M1065.58 103.92H1061.4V67.1892H1065.91V80.2905C1067.81 77.9036 1070.24 76.7079 1073.2 76.7079C1074.84 76.7079 1076.38 77.0366 1077.85 77.6988C1079.31 78.3562 1080.51 79.2852 1081.46 80.481C1082.4 81.672 1083.14 83.1156 1083.67 84.8021C1084.21 86.4885 1084.47 88.2941 1084.47 90.2141C1084.47 94.7733 1083.35 98.2987 1081.09 100.79C1078.84 103.277 1076.13 104.521 1072.97 104.521C1069.83 104.521 1067.37 103.21 1065.58 100.585V103.92ZM1065.53 90.4141C1065.53 93.6061 1065.97 95.9119 1066.84 97.3316C1068.26 99.6517 1070.18 100.814 1072.6 100.814C1074.57 100.814 1076.27 99.9566 1077.71 98.2463C1079.15 96.5312 1079.87 93.9825 1079.87 90.5904C1079.87 87.1174 1079.18 84.5496 1077.8 82.8964C1076.42 81.2433 1074.76 80.4191 1072.8 80.4191C1070.83 80.4191 1069.12 81.2719 1067.69 82.9869C1066.25 84.6972 1065.53 87.1746 1065.53 90.4141Z" fill="white"/>
<path fill-rule="evenodd" clip-rule="evenodd" d="M1088.29 90.6141C1088.29 85.6881 1089.65 82.0388 1092.39 79.6663C1094.68 77.6939 1097.47 76.7078 1100.76 76.7078C1104.42 76.7078 1107.41 77.9083 1109.73 80.3047C1112.05 82.701 1113.22 86.012 1113.22 90.2378C1113.22 93.6632 1112.7 96.3596 1111.68 98.3224C1110.65 100.28 1109.15 101.805 1107.19 102.891C1105.23 103.977 1103.08 104.521 1100.76 104.521C1097.04 104.521 1094.03 103.329 1091.73 100.938C1089.43 98.5511 1088.29 95.1067 1088.29 90.6141ZM1092.92 90.6141C1092.92 94.0252 1093.66 96.574 1095.15 98.27C1096.64 99.9661 1098.51 100.814 1100.76 100.814C1103 100.814 1104.86 99.9613 1106.35 98.2557C1107.84 96.555 1108.58 93.9538 1108.58 90.4665C1108.58 87.1745 1107.83 84.6828 1106.34 82.9868C1104.84 81.2908 1102.98 80.4428 1100.76 80.4428C1098.51 80.4428 1096.64 81.2861 1095.15 82.9725C1093.66 84.659 1092.92 87.2078 1092.92 90.6141Z" fill="white"/>
<path fill-rule="evenodd" clip-rule="evenodd" d="M1128.35 99.8852L1129 103.868C1127.73 104.14 1126.6 104.273 1125.59 104.273C1123.96 104.273 1122.69 104.011 1121.79 103.496C1120.88 102.977 1120.25 102.296 1119.88 101.453C1119.51 100.609 1119.33 98.8323 1119.33 96.1263V80.8193H1116.02V77.3082H1119.33V70.7194L1123.82 68.0134V77.3082H1128.35V80.8193H1123.82V96.3788C1123.82 97.6651 1123.89 98.4893 1124.05 98.8609C1124.21 99.2277 1124.47 99.5184 1124.83 99.7375C1125.19 99.9519 1125.7 100.061 1126.37 100.061C1126.87 100.061 1127.53 100.004 1128.35 99.8852Z" fill="white"/>
</svg>
