<svg clip-rule="evenodd" fill-rule="evenodd" stroke-linejoin="round" stroke-miterlimit="2" viewBox="0 0 1130 40" xmlns="http://www.w3.org/2000/svg"><g fill="#fff" transform="matrix(.476409 0 0 -.476409 1.06953 240)"><path d="m520.176 290.93h-34.41v39.074c0 7.43 6.027 13.445 13.449 13.445h7.519c7.407 0 13.442-6.015 13.442-13.445zm43.043 3.789v28.304s.496 17.801 9.285 37.438v61.523h-26.293v-22.941h-23.645v22.941h-36.39v-22.925h-24.067v22.972h-25.5v-60.41s5.954-23.086 5.954-35.766v-31.773s-19.106-29.762-19.106-84.371c0 0 61.063-31.621 159.004-16.371v33.16s1.012 33.48-19.242 68.219" fill-rule="nonzero"/><path d="m0 242.031s20.391-13.015 87.516-13.246c0 0 236.414 6.504 316.183-27.496 0 0 125.867-80.789 342.965 16.078 0 0-108.027-148.429-343.699-65.988 0 0-126.598 51.375-308.196 49.91 0 0-64.394-.476-94.769 40.742" fill-rule="nonzero"/><path d="m438.148 122.125s-17.507 5.824-43.636 13.344c-146.657 45.234-243.199 49.347-270.789 49.469-5.399.019-8.153-.098-8.153-.098-.675-.024-1.308-.059-1.961-.117-17.843-.118-33.613 1.207-47.003 3.109-49.278 6.977-62.032 25.609-62.032 25.609 16.164-65.82 75.09-119.437 75.09-119.437s73.699-5.707 133.5 14.301c0 0 61.024 21.953 160.16-14.864 0 0 295.145-109.32 377.211 107.008 0 0-100.496-137.496-312.387-78.324" fill-rule="nonzero"/><path d="m416.094 269.418c-.016.047-.043.109-.082.172-.696 2.14-4.086 11.742-11.754 25.586-7.75 14.508-17.856 29.508-30.977 43.871-.074.125-.144.226-.234.332-16.469 18.859-38.606 39.101-68.074 57.43-7.629 4.777-15.785 9.425-24.438 13.832 0 0 0 .035-.051.062-.605.277-1.203.578-1.796.883-1.848.84-5.012 2.008-8.961 2.379-3.719.375-8.172.035-12.879-1.977-.84-.375-1.684-.781-2.567-1.242-.07-.019-.16-.043-.211-.105-16.925-8.414-40.015-24.532-49.05-30.981l-3.868-2.805-78.105-56.367-20.043 11.129s-42.543 32.578-98.43-73.785c0 0 23.043-9.457 83.137-6.5 0 0 212.035 16.16 321.066-25.418.532 8.813 2.164 24.559 7.395 43.266 0 0-.02.078-.078.238" fill-rule="nonzero"/><path d="m737.105 290.18c-6.871 32.957-47.851 65.398-70.578 81.129-4.277 3.121-9.101 6.339-14.558 9.527-.375.215-.582.336-.582.336s-19.739 22.848-41.907 50.687c0 0-38.734 42.332-81.398 67.141-20.82 10.563-39.609.797-45.301-2.77-28.672-19.058-70.445-55.511-101.008-75.535l-6.988-4.687-36.84-24.098c19.375-14.75 64.914-52.398 89.711-97.894v34.343s1.004 18.454-7.152 33.098v75.957h166.59v-76.496s-11.41-28.75-8.688-64.012c0 0 18.907-30.871 19.071-92.101 43.871 4.925 94.132 16.574 149.187 39.312z" fill-rule="nonzero"/><path d="m324.098 89.945c-65.782 14.649-98.082 1.598-98.082 1.598-62.075-26.434-131.641-16.949-131.641-16.949 48.848-41.778 96.051-48.559 96.051-48.559 34.828 15.567 63.914 25.5 87.937 31.758l-.027.02s7.648 2.132 19.801 4.535c1.707.351 3.39.675 5.066.957.527.113 1.078.207 1.664.32 1.117.203 2.188.379 3.27.559 22.023 3.722 53.047 6.863 81.593 2.343-22.917 12.93-56.093 21.207-65.632 23.418" fill-rule="nonzero"/><path d="m221.695 16.633s86.473 46.582 168.035 33.402c0 0-116.875-13.121-72.644-50.035 0 0-54.148 0-95.391 16.633" fill-rule="nonzero"/><path d="m.82 0v-7.71h1.047l4.05 6.053v-6.053h.978v7.71h-1.046l-4.05-6.059v6.059z" transform="matrix(10 0 0 -10 853.23 135.246)"/><path d="m12.312-1.799.979.121c-.155.572-.44 1.015-.858 1.331-.417.315-.95.473-1.598.473-.817 0-1.465-.251-1.944-.755-.478-.503-.718-1.208-.718-2.116 0-.94.242-1.669.726-2.188s1.112-.779 1.883-.779c.747 0 1.357.254 1.83.763.474.508.71 1.224.71 2.146 0 .056-.002.14-.005.252h-4.166c.036.614.209 1.084.521 1.41s.701.489 1.168.489c.347 0 .643-.091.889-.274.245-.182.44-.473.583-.873zm-3.108-1.53h3.119c-.042-.47-.161-.822-.358-1.057-.301-.365-.692-.547-1.173-.547-.434 0-.8.145-1.096.436s-.46.68-.492 1.168z" transform="matrix(10 0 0 -10 853.23 135.246)"/><path d="m18.124-.689c-.35.298-.688.508-1.012.631-.325.123-.673.184-1.044.184-.614 0-1.086-.15-1.415-.449-.33-.3-.494-.683-.494-1.15 0-.273.062-.523.186-.749.125-.226.288-.408.489-.544.202-.137.429-.241.681-.311.186-.049.467-.096.842-.142.764-.091 1.327-.2 1.688-.326.004-.13.006-.212.006-.247 0-.386-.09-.658-.269-.815-.242-.214-.601-.321-1.078-.321-.445 0-.774.078-.986.234s-.369.432-.471.828l-.925-.126c.084-.396.222-.716.415-.96.193-.243.472-.431.836-.563.365-.131.787-.197 1.268-.197.477 0 .864.056 1.162.169.298.112.517.253.658.423.14.17.238.385.294.644.032.161.047.453.047.873v1.263c0 .88.021 1.436.061 1.669.04.234.12.457.239.671h-.989c-.098-.196-.161-.426-.189-.689zm-.079-2.114c-.343.14-.859.259-1.546.357-.389.056-.664.12-.826.19-.161.07-.286.172-.373.307-.088.135-.132.285-.132.45 0 .253.096.463.287.631s.471.253.839.253c.365 0 .689-.08.973-.24.284-.159.492-.377.626-.654.101-.214.152-.53.152-.947z" transform="matrix(10 0 0 -10 853.23 135.246)"/><path d="m22.537-.847.137.836c-.267.057-.505.085-.716.085-.343 0-.61-.055-.799-.163-.189-.109-.323-.252-.4-.429s-.116-.55-.116-1.118v-3.213h-.694v-.737h.694v-1.383l.942-.568v1.951h.952v.737h-.952v3.266c0 .27.017.443.05.521.033.077.087.138.163.184.075.045.183.068.323.068.106 0 .244-.012.416-.037z" transform="matrix(10 0 0 -10 853.23 135.246)"/><path d="m23.463 0v-7.71h.946v2.766c.442-.512 1-.768 1.673-.768.413 0 .773.082 1.078.245s.523.388.655.676c.131.287.197.704.197 1.251v3.54h-.947v-3.54c0-.473-.102-.817-.307-1.033-.206-.216-.496-.324-.871-.324-.28 0-.544.073-.791.219-.248.145-.424.342-.529.591s-.158.593-.158 1.031v3.056z" transform="matrix(10 0 0 -10 853.23 135.246)"/><path d="m32.567 0v-7.71h2.908c.512 0 .903.024 1.173.073.379.063.696.183.952.361.256.177.462.425.618.744s.234.669.234 1.052c0 .655-.209 1.21-.626 1.664s-1.171.681-2.261.681h-1.978v3.135zm1.02-4.045h1.993c.66 0 1.128-.122 1.405-.368.277-.245.415-.591.415-1.036 0-.322-.081-.599-.244-.828-.163-.23-.378-.381-.645-.455-.172-.046-.489-.068-.952-.068h-1.972z" transform="matrix(10 0 0 -10 853.23 135.246)"/><path d="m39.278-2.793c0-1.034.287-1.8.862-2.298.481-.414 1.066-.621 1.757-.621.768 0 1.395.252 1.883.755.487.503.731 1.198.731 2.085 0 .719-.108 1.285-.324 1.697-.215.411-.529.731-.941.959-.412.228-.862.342-1.349.342-.782 0-1.414-.25-1.896-.752-.482-.501-.723-1.224-.723-2.167zm.973 0c0 .716.156 1.251.468 1.607s.705.534 1.178.534c.47 0 .861-.179 1.173-.537.312-.357.468-.903.468-1.635 0-.691-.157-1.214-.471-1.57s-.704-.534-1.17-.534c-.473 0-.866.177-1.178.531s-.468.889-.468 1.604z" transform="matrix(10 0 0 -10 853.23 135.246)"/><path d="m45.61 0v-5.586h.852v.847c.218-.396.418-.657.602-.783.184-.127.387-.19.608-.19.319 0 .643.102.973.305l-.326.879c-.232-.137-.463-.206-.694-.206-.207 0-.393.063-.558.187-.165.125-.282.297-.352.518-.106.337-.158.705-.158 1.105v2.924z" transform="matrix(10 0 0 -10 853.23 135.246)"/><path d="m51.275-.847.136.836c-.266.057-.505.085-.715.085-.344 0-.61-.055-.799-.163-.19-.109-.323-.252-.4-.429s-.116-.55-.116-1.118v-3.213h-.694v-.737h.694v-1.383l.942-.568v1.951h.952v.737h-.952v3.266c0 .27.016.443.05.521.033.077.087.138.163.184.075.045.183.068.323.068.105 0 .244-.012.416-.037z" transform="matrix(10 0 0 -10 853.23 135.246)"/><path d="m57.081 0v-6.8h-2.54v-.91h6.111v.91h-2.551v6.8z" transform="matrix(10 0 0 -10 853.23 135.246)"/><path d="m64.029-.689c-.351.298-.688.508-1.013.631-.324.123-.672.184-1.044.184-.613 0-1.085-.15-1.414-.449-.33-.3-.495-.683-.495-1.15 0-.273.062-.523.187-.749.124-.226.287-.408.489-.544.202-.137.429-.241.681-.311.186-.049.466-.096.842-.142.764-.091 1.327-.2 1.688-.326.003-.13.005-.212.005-.247 0-.386-.089-.658-.268-.815-.242-.214-.601-.321-1.078-.321-.446 0-.774.078-.986.234-.213.156-.369.432-.471.828l-.926-.126c.084-.396.223-.716.416-.96.193-.243.471-.431.836-.563.365-.131.787-.197 1.268-.197.476 0 .864.056 1.162.169.298.112.517.253.657.423.141.17.239.385.295.644.031.161.047.453.047.873v1.263c0 .88.02 1.436.061 1.669.04.234.12.457.239.671h-.989c-.098-.196-.161-.426-.189-.689zm-.079-2.114c-.344.14-.859.259-1.546.357-.39.056-.665.12-.826.19s-.286.172-.374.307c-.087.135-.131.285-.131.45 0 .253.096.463.287.631s.47.253.839.253c.364 0 .689-.08.973-.24.284-.159.492-.377.625-.654.102-.214.153-.53.153-.947z" transform="matrix(10 0 0 -10 853.23 135.246)"/><path d="m66.354-7.71h.947v7.71h-.947z" transform="matrix(10 0 0 -10 853.23 135.246)"/><path d="m69.641 0h-.879v-7.71h.947v2.75c.4-.501.91-.752 1.531-.752.343 0 .668.069.975.208.307.138.559.333.758.584.198.25.353.553.465.907s.168.733.168 1.136c0 .957-.236 1.697-.71 2.22-.473.522-1.041.783-1.704.783-.659 0-1.176-.275-1.551-.826zm-.011-2.835c0 .67.091 1.154.274 1.452.298.487.701.731 1.209.731.414 0 .772-.18 1.073-.539.302-.36.453-.895.453-1.607 0-.729-.145-1.268-.434-1.615-.29-.347-.639-.52-1.05-.52-.413 0-.771.179-1.073.539-.301.359-.452.879-.452 1.559z" transform="matrix(10 0 0 -10 853.23 135.246)"/><path d="m74.406-2.793c0-1.034.287-1.8.862-2.298.481-.414 1.066-.621 1.757-.621.768 0 1.395.252 1.883.755.487.503.731 1.198.731 2.085 0 .719-.108 1.285-.324 1.697-.215.411-.529.731-.941.959-.412.228-.862.342-1.349.342-.782 0-1.414-.25-1.896-.752-.482-.501-.723-1.224-.723-2.167zm.973 0c0 .716.156 1.251.468 1.607s.705.534 1.178.534c.47 0 .861-.179 1.173-.537.312-.357.468-.903.468-1.635 0-.691-.157-1.214-.471-1.57s-.704-.534-1.17-.534c-.473 0-.866.177-1.178.531s-.468.889-.468 1.604z" transform="matrix(10 0 0 -10 853.23 135.246)"/><path d="m82.816-.847.136.836c-.266.057-.505.085-.715.085-.344 0-.61-.055-.799-.163-.19-.109-.323-.252-.4-.429s-.116-.55-.116-1.118v-3.213h-.694v-.737h.694v-1.383l.942-.568v1.951h.952v.737h-.952v3.266c0 .27.016.443.05.521.033.077.087.138.163.184.075.045.183.068.323.068.105 0 .244-.012.416-.037z" transform="matrix(10 0 0 -10 853.23 135.246)"/><path d="m92.356-2.703 1.021.257c-.214.838-.599 1.477-1.155 1.917-.556.44-1.235.66-2.038.66-.831 0-1.507-.169-2.027-.507-.521-.338-.917-.828-1.189-1.47s-.408-1.331-.408-2.067c0-.803.154-1.503.461-2.101.306-.598.743-1.052 1.309-1.362.566-.311 1.19-.466 1.87-.466.771 0 1.42.196 1.946.589s.892.945 1.099 1.657l-1.004.237c-.179-.561-.439-.97-.779-1.226s-.768-.384-1.283-.384c-.593 0-1.088.142-1.486.426s-.677.666-.839 1.144c-.161.479-.242.972-.242 1.481 0 .655.096 1.228.287 1.717s.488.855.891 1.097c.404.241.84.362 1.31.362.572 0 1.055-.164 1.452-.494.396-.33.664-.819.804-1.467z" transform="matrix(10 0 0 -10 853.23 135.246)"/><path d="m94.16-2.793c0-1.034.288-1.8.863-2.298.48-.414 1.066-.621 1.757-.621.767 0 1.395.252 1.882.755.488.503.732 1.198.732 2.085 0 .719-.108 1.285-.324 1.697-.216.411-.529.731-.941.959-.412.228-.862.342-1.349.342-.782 0-1.414-.25-1.896-.752-.483-.501-.724-1.224-.724-2.167zm.973 0c0 .716.156 1.251.468 1.607s.705.534 1.179.534c.469 0 .86-.179 1.172-.537.312-.357.469-.903.469-1.635 0-.691-.157-1.214-.471-1.57s-.704-.534-1.17-.534c-.474 0-.867.177-1.179.531s-.468.889-.468 1.604z" transform="matrix(10 0 0 -10 853.23 135.246)"/><path d="m104.164 0v-.82c-.435.631-1.026.946-1.773.946-.329 0-.637-.063-.923-.189-.285-.126-.498-.285-.636-.476-.139-.191-.236-.425-.292-.702-.038-.186-.058-.481-.058-.884v-3.461h.947v3.098c0 .495.019.828.058 1 .059.249.186.444.378.586.193.142.432.213.716.213s.55-.073.799-.218c.249-.146.425-.344.529-.595.103-.25.155-.614.155-1.091v-2.993h.947v5.586z" transform="matrix(10 0 0 -10 853.23 135.246)"/><path d="m106.494 0v-5.586h.852v.795c.41-.614 1.003-.921 1.778-.921.336 0 .646.061.928.182s.493.279.634.476c.14.196.238.429.294.699.035.175.053.482.053.921v3.434h-.947v-3.398c0-.385-.037-.674-.11-.865-.074-.191-.205-.343-.392-.457-.188-.114-.408-.171-.66-.171-.404 0-.752.128-1.044.384-.293.256-.439.741-.439 1.457v3.05z" transform="matrix(10 0 0 -10 853.23 135.246)"/><path d="m116.129-2.046.931.121c-.102.642-.362 1.144-.781 1.507-.419.363-.934.544-1.544.544-.764 0-1.378-.25-1.843-.749-.465-.5-.697-1.216-.697-2.149 0-.603.1-1.131.3-1.583s.504-.791.912-1.018c.409-.226.853-.339 1.334-.339.606 0 1.102.154 1.488.46.386.307.633.743.742 1.307l-.921.142c-.087-.375-.243-.657-.465-.846-.223-.19-.492-.284-.808-.284-.476 0-.864.171-1.162.512-.298.342-.447.883-.447 1.623 0 .75.144 1.296.431 1.636.288.34.663.51 1.126.51.372 0 .682-.114.931-.342s.407-.579.473-1.052z" transform="matrix(10 0 0 -10 853.23 135.246)"/><path d="m117.875-6.622v-1.088h.947v1.088zm0 6.622v-5.586h.947v5.586z" transform="matrix(10 0 0 -10 853.23 135.246)"/><path d="m120.242-7.71h.947v7.71h-.947z" transform="matrix(10 0 0 -10 853.23 135.246)"/><g transform="matrix(10 0 0 -10 845.684 285.637)"><path d="m6.332-2.703 1.021.257c-.214.838-.599 1.477-1.155 1.917-.555.44-1.235.66-2.038.66-.831 0-1.507-.169-2.027-.507-.521-.338-.917-.828-1.189-1.47s-.408-1.331-.408-2.067c0-.803.154-1.503.461-2.101.306-.598.743-1.052 1.309-1.362.567-.311 1.19-.466 1.87-.466.771 0 1.42.196 1.946.589s.892.945 1.099 1.657l-1.004.237c-.179-.561-.439-.97-.779-1.226s-.768-.384-1.283-.384c-.593 0-1.088.142-1.486.426s-.677.666-.839 1.144c-.161.479-.242.972-.242 1.481 0 .655.096 1.228.287 1.717s.488.855.891 1.097c.404.241.84.362 1.31.362.572 0 1.055-.164 1.452-.494.396-.33.664-.819.804-1.467z"/><path d="m8.447 2.151-.105-.889c.206.056.387.084.541.084.211 0 .379-.035.505-.105s.23-.168.31-.294c.06-.095.156-.33.29-.705.017-.053.045-.13.084-.231l-2.12-5.597h1.021l1.162 3.235c.151.41.286.842.405 1.294.109-.435.238-.859.389-1.273l1.194-3.256h.947l-2.125 5.681c-.228.613-.405 1.036-.531 1.267-.169.312-.361.541-.579.687-.217.145-.477.218-.778.218-.183 0-.386-.039-.61-.116z"/><path d="m13.874 0v-5.586h.853v.795c.41-.614 1.002-.921 1.777-.921.337 0 .646.061.929.182.282.121.493.279.633.476.141.196.239.429.295.699.035.175.052.482.052.921v3.434h-.946v-3.398c0-.385-.037-.674-.111-.865-.073-.191-.204-.343-.392-.457-.187-.114-.407-.171-.66-.171-.403 0-.751.128-1.044.384-.292.256-.439.741-.439 1.457v3.05z"/><path d="m19.691.463.921.137c.038.284.145.49.321.62.235.176.555.263.962.263.438 0 .777-.087 1.015-.263.239-.175.4-.421.484-.736.049-.193.072-.598.069-1.215-.414.487-.93.731-1.547.731-.768 0-1.362-.277-1.783-.831-.42-.554-.631-1.218-.631-1.993 0-.533.097-1.025.289-1.476.193-.45.473-.798.839-1.044.367-.245.797-.368 1.291-.368.66 0 1.203.267 1.631.8v-.674h.873v4.829c0 .869-.089 1.485-.266 1.848s-.457.65-.841.86c-.384.211-.857.316-1.418.316-.666 0-1.204-.15-1.614-.45s-.609-.751-.595-1.354zm.784-3.356c0 .733.146 1.268.437 1.604.291.337.655.505 1.094.505.434 0 .799-.167 1.094-.502.294-.335.441-.86.441-1.575 0-.684-.151-1.199-.455-1.546-.303-.348-.668-.521-1.096-.521-.421 0-.779.171-1.073.513-.295.342-.442.849-.442 1.522z"/><path d="m25.503-2.793c0-1.034.288-1.8.863-2.298.48-.414 1.066-.621 1.756-.621.768 0 1.396.252 1.883.755.488.503.731 1.198.731 2.085 0 .719-.107 1.285-.323 1.697-.216.411-.53.731-.942.959-.412.228-.861.342-1.349.342-.782 0-1.414-.25-1.896-.752-.482-.501-.723-1.224-.723-2.167zm.973 0c0 .716.156 1.251.468 1.607s.705.534 1.178.534c.47 0 .861-.179 1.173-.537.312-.357.468-.903.468-1.635 0-.691-.157-1.214-.47-1.57-.314-.356-.704-.534-1.171-.534-.473 0-.866.177-1.178.531s-.468.889-.468 1.604z"/><path d="m31.836 0v-5.586h.852v.847c.217-.396.418-.657.602-.783.184-.127.386-.19.607-.19.319 0 .644.102.973.305l-.326.879c-.231-.137-.463-.206-.694-.206-.207 0-.393.063-.558.187-.164.125-.282.297-.352.518-.105.337-.158.705-.158 1.105v2.924z"/><path d="m44.048-2.703 1.02.257c-.213.838-.598 1.477-1.154 1.917-.556.44-1.235.66-2.038.66-.831 0-1.507-.169-2.028-.507-.52-.338-.917-.828-1.188-1.47-.272-.642-.408-1.331-.408-2.067 0-.803.154-1.503.46-2.101.307-.598.744-1.052 1.31-1.362.566-.311 1.189-.466 1.87-.466.771 0 1.42.196 1.946.589s.892.945 1.099 1.657l-1.005.237c-.178-.561-.438-.97-.778-1.226s-.768-.384-1.283-.384c-.593 0-1.088.142-1.486.426s-.678.666-.839 1.144c-.161.479-.242.972-.242 1.481 0 .655.096 1.228.287 1.717s.488.855.891 1.097c.403.241.84.362 1.31.362.571 0 1.055-.164 1.451-.494.397-.33.665-.819.805-1.467z"/><path d="m49.849-.689c-.35.298-.688.508-1.012.631-.325.123-.673.184-1.044.184-.614 0-1.085-.15-1.415-.449-.33-.3-.494-.683-.494-1.15 0-.273.062-.523.186-.749.125-.226.288-.408.489-.544.202-.137.429-.241.682-.311.185-.049.466-.096.841-.142.764-.091 1.327-.2 1.688-.326.004-.13.006-.212.006-.247 0-.386-.09-.658-.269-.815-.242-.214-.601-.321-1.078-.321-.445 0-.774.078-.986.234s-.369.432-.471.828l-.925-.126c.084-.396.222-.716.415-.96.193-.243.472-.431.836-.563.365-.131.788-.197 1.268-.197.477 0 .864.056 1.162.169.298.112.517.253.658.423.14.17.238.385.294.644.032.161.048.453.048.873v1.263c0 .88.02 1.436.06 1.669.04.234.12.457.239.671h-.988c-.099-.196-.162-.426-.19-.689zm-.079-2.114c-.343.14-.859.259-1.546.357-.389.056-.664.12-.826.19-.161.07-.285.172-.373.307s-.132.285-.132.45c0 .253.096.463.287.631s.471.253.839.253c.365 0 .689-.08.973-.24.284-.159.493-.377.626-.654.102-.214.152-.53.152-.947z"/><path d="m51.816-1.667.937-.148c.052.376.198.663.439.863.24.2.576.3 1.007.3.435 0 .757-.089.968-.266.21-.177.315-.385.315-.623 0-.214-.093-.382-.279-.505-.129-.084-.452-.191-.967-.321-.695-.175-1.176-.327-1.444-.455s-.472-.305-.61-.531c-.139-.226-.208-.476-.208-.749 0-.249.057-.48.171-.692s.269-.388.466-.529c.147-.108.348-.2.602-.276.254-.075.527-.113.818-.113.438 0 .823.063 1.154.19.331.126.576.297.734.512.157.216.266.504.326.866l-.926.126c-.042-.288-.164-.512-.365-.673-.202-.162-.487-.242-.855-.242-.435 0-.745.071-.931.215s-.279.312-.279.505c0 .123.039.233.116.332.077.101.198.185.363.252.095.035.373.116.836.242.67.179 1.137.325 1.402.439s.472.28.623.497.226.487.226.81c0 .316-.092.613-.276.892-.184.278-.45.494-.797.646-.347.153-.74.229-1.178.229-.726 0-1.279-.151-1.659-.452-.381-.302-.623-.749-.729-1.341z"/><path d="m59.648-.847.136.836c-.266.057-.504.085-.715.085-.343 0-.61-.055-.799-.163-.19-.109-.323-.252-.4-.429s-.116-.55-.116-1.118v-3.213h-.694v-.737h.694v-1.383l.942-.568v1.951h.952v.737h-.952v3.266c0 .27.016.443.05.521.033.077.087.138.163.184.075.045.183.068.323.068.105 0 .244-.012.416-.037z"/><path d="m64.397-1.799.978.121c-.154.572-.44 1.015-.857 1.331-.417.315-.95.473-1.599.473-.817 0-1.465-.251-1.943-.755-.479-.503-.718-1.208-.718-2.116 0-.94.242-1.669.726-2.188.483-.519 1.111-.779 1.882-.779.747 0 1.357.254 1.831.763.473.508.71 1.224.71 2.146 0 .056-.002.14-.005.252h-4.166c.035.614.209 1.084.521 1.41s.701.489 1.167.489c.347 0 .644-.091.889-.274.246-.182.44-.473.584-.873zm-3.108-1.53h3.119c-.043-.47-.162-.822-.358-1.057-.302-.365-.693-.547-1.173-.547-.435 0-.8.145-1.097.436-.296.291-.46.68-.491 1.168z"/><path d="m66.543-7.71h.947v7.71h-.947z"/><path d="m68.936-7.71h.947v7.71h-.947z"/><path d="m70.982-3.266h2.908v.952h-2.908z"/><path d="m74.937 0v-5.586h.852v.795c.41-.614 1.003-.921 1.778-.921.336 0 .646.061.928.182s.494.279.634.476c.14.196.238.429.294.699.035.175.053.482.053.921v3.434h-.947v-3.398c0-.385-.037-.674-.11-.865-.074-.191-.205-.343-.392-.457-.188-.114-.408-.171-.66-.171-.403 0-.751.128-1.044.384s-.439.741-.439 1.457v3.05z"/><path d="m84.751-1.799.978.121c-.154.572-.44 1.015-.857 1.331-.417.315-.95.473-1.599.473-.817 0-1.465-.251-1.943-.755-.479-.503-.718-1.208-.718-2.116 0-.94.242-1.669.726-2.188s1.111-.779 1.883-.779c.746 0 1.357.254 1.83.763.473.508.71 1.224.71 2.146 0 .056-.002.14-.005.252h-4.166c.035.614.209 1.084.521 1.41s.701.489 1.167.489c.348 0 .644-.091.889-.274.246-.182.44-.473.584-.873zm-3.108-1.53h3.119c-.042-.47-.162-.822-.358-1.057-.302-.365-.692-.547-1.173-.547-.435 0-.8.145-1.096.436-.297.291-.461.68-.492 1.168z"/><path d="m90.542 0v-.705c-.354.554-.875.831-1.562.831-.446 0-.855-.122-1.228-.368-.374-.245-.663-.588-.868-1.028s-.308-.946-.308-1.518c0-.557.093-1.063.279-1.517s.465-.802.836-1.044c.372-.242.787-.363 1.247-.363.336 0 .636.071.899.213s.477.327.642.555v-2.766h.941v7.71zm-2.993-2.788c0 .716.151 1.25.452 1.605.302.354.658.531 1.068.531.414 0 .765-.169 1.055-.508.289-.338.434-.854.434-1.549 0-.764-.148-1.325-.442-1.683-.295-.357-.658-.536-1.089-.536-.421 0-.772.172-1.054.515-.283.344-.424.886-.424 1.625z"/><path d="m96.532 0v-.705c-.354.554-.874.831-1.562.831-.445 0-.854-.122-1.228-.368-.373-.245-.662-.588-.868-1.028-.205-.44-.307-.946-.307-1.518 0-.557.093-1.063.278-1.517.186-.454.465-.802.837-1.044.371-.242.787-.363 1.246-.363.337 0 .637.071.9.213s.476.327.641.555v-2.766h.942v7.71zm-2.992-2.788c0 .716.15 1.25.452 1.605.302.354.657.531 1.068.531.413 0 .765-.169 1.054-.508.29-.338.434-.854.434-1.549 0-.764-.147-1.325-.442-1.683-.294-.357-.657-.536-1.088-.536-.421 0-.773.172-1.055.515-.282.344-.423.886-.423 1.625z"/><path d="m102.013 0v-7.71h2.908c.512 0 .903.024 1.173.073.379.063.696.183.952.361.256.177.462.425.618.744s.234.669.234 1.052c0 .655-.209 1.21-.626 1.664s-1.171.681-2.261.681h-1.978v3.135zm1.02-4.045h1.993c.66 0 1.128-.122 1.405-.368.277-.245.415-.591.415-1.036 0-.322-.081-.599-.244-.828-.163-.23-.378-.381-.645-.455-.171-.046-.489-.068-.952-.068h-1.972z"/><path d="m108.724-2.793c0-1.034.287-1.8.862-2.298.481-.414 1.066-.621 1.757-.621.768 0 1.396.252 1.883.755s.731 1.198.731 2.085c0 .719-.108 1.285-.323 1.697-.216.411-.53.731-.942.959-.412.228-.862.342-1.349.342-.782 0-1.414-.25-1.896-.752-.482-.501-.723-1.224-.723-2.167zm.973 0c0 .716.156 1.251.468 1.607s.705.534 1.178.534c.47 0 .861-.179 1.173-.537.312-.357.468-.903.468-1.635 0-.691-.157-1.214-.471-1.57s-.704-.534-1.17-.534c-.473 0-.866.177-1.178.531s-.468.889-.468 1.604z"/><path d="m115.056 0v-5.586h.852v.847c.218-.396.418-.657.602-.783.185-.127.387-.19.608-.19.319 0 .643.102.973.305l-.326.879c-.232-.137-.463-.206-.694-.206-.207 0-.393.063-.558.187-.165.125-.282.297-.352.518-.105.337-.158.705-.158 1.105v2.924z"/><path d="m120.721-.847.136.836c-.266.057-.504.085-.715.085-.343 0-.61-.055-.799-.163-.19-.109-.323-.252-.4-.429s-.116-.55-.116-1.118v-3.213h-.694v-.737h.694v-1.383l.942-.568v1.951h.952v.737h-.952v3.266c0 .27.016.443.05.521.033.077.087.138.163.184.075.045.183.068.323.068.105 0 .244-.012.416-.037z"/><path d="m126.527 0v-6.8h-2.54v-.91h6.111v.91h-2.551v6.8z"/><path d="m133.475-.689c-.351.298-.688.508-1.013.631-.324.123-.672.184-1.044.184-.613 0-1.085-.15-1.414-.449-.33-.3-.495-.683-.495-1.15 0-.273.062-.523.187-.749.124-.226.287-.408.489-.544.202-.137.429-.241.681-.311.186-.049.467-.096.842-.142.764-.091 1.327-.2 1.688-.326.004-.13.005-.212.005-.247 0-.386-.089-.658-.268-.815-.242-.214-.601-.321-1.078-.321-.445 0-.774.078-.986.234s-.369.432-.471.828l-.926-.126c.084-.396.223-.716.416-.96.193-.243.471-.431.836-.563.365-.131.787-.197 1.268-.197.476 0 .864.056 1.162.169.298.112.517.253.657.423.141.17.239.385.295.644.031.161.047.453.047.873v1.263c0 .88.02 1.436.061 1.669.04.234.12.457.239.671h-.989c-.098-.196-.161-.426-.189-.689zm-.079-2.114c-.344.14-.859.259-1.546.357-.389.056-.665.12-.826.19s-.286.172-.373.307c-.088.135-.132.285-.132.45 0 .253.096.463.287.631s.47.253.839.253c.364 0 .689-.08.973-.24.284-.159.492-.377.625-.654.102-.214.153-.53.153-.947z"/><path d="m135.8-7.71h.947v7.71h-.947z"/><path d="m139.087 0h-.879v-7.71h.947v2.75c.4-.501.91-.752 1.531-.752.343 0 .668.069.975.208.307.138.56.333.758.584.198.25.353.553.465.907s.168.733.168 1.136c0 .957-.236 1.697-.71 2.22-.473.522-1.041.783-1.704.783-.659 0-1.176-.275-1.551-.826zm-.011-2.835c0 .67.091 1.154.274 1.452.298.487.701.731 1.209.731.414 0 .772-.18 1.073-.539.302-.36.453-.895.453-1.607 0-.729-.145-1.268-.434-1.615-.29-.347-.639-.52-1.05-.52-.413 0-.771.179-1.072.539-.302.359-.453.879-.453 1.559z"/><path d="m143.852-2.793c0-1.034.287-1.8.862-2.298.481-.414 1.066-.621 1.757-.621.768 0 1.396.252 1.883.755s.731 1.198.731 2.085c0 .719-.108 1.285-.323 1.697-.216.411-.53.731-.942.959-.412.228-.862.342-1.349.342-.782 0-1.414-.25-1.896-.752-.482-.501-.723-1.224-.723-2.167zm.973 0c0 .716.156 1.251.468 1.607s.705.534 1.178.534c.47 0 .861-.179 1.173-.537.312-.357.468-.903.468-1.635 0-.691-.157-1.214-.471-1.57s-.704-.534-1.17-.534c-.473 0-.866.177-1.178.531s-.468.889-.468 1.604z"/><path d="m152.262-.847.136.836c-.266.057-.504.085-.715.085-.343 0-.61-.055-.799-.163-.19-.109-.323-.252-.4-.429s-.116-.55-.116-1.118v-3.213h-.694v-.737h.694v-1.383l.942-.568v1.951h.952v.737h-.952v3.266c0 .27.016.443.05.521.033.077.087.138.163.184.075.045.183.068.323.068.105 0 .244-.012.416-.037z"/></g></g></svg>