<svg width="273" height="58" viewBox="0 0 273 58" fill="none" xmlns="http://www.w3.org/2000/svg">
<g clip-path="url(#clip0_3357_31121)">
<path d="M59.9269 24.5044H55.9626V20.0058C55.9626 19.1503 56.657 18.4578 57.512 18.4578H58.3783C59.2316 18.4578 59.9269 19.1503 59.9269 20.0058V24.5044ZM64.8857 24.0682V20.8095C64.8857 20.8095 64.9429 18.76 65.9554 16.4992V9.41588H62.9263V12.0571H60.2022V9.41588H56.0098V12.0553H53.2372V9.41047H50.2994V16.3656C50.2994 16.3656 50.9853 19.0236 50.9853 20.4834V24.1415C50.9853 24.1415 48.7842 27.5681 48.7842 33.8554C48.7842 33.8554 55.8191 37.496 67.1025 35.7402V31.9224C67.1025 31.9224 67.2191 28.0678 64.8857 24.0682Z" fill="white"/>
<path d="M0 30.1344C0 30.1344 2.34918 31.6328 10.0824 31.6594C10.0824 31.6594 37.3189 30.9106 46.5089 34.8251C46.5089 34.8251 61.0096 44.1265 86.0208 32.974C86.0208 32.974 73.5753 50.063 46.4243 40.5713C46.4243 40.5713 31.8394 34.6564 10.918 34.8251C10.918 34.8251 3.49941 34.8799 0 30.1344Z" fill="white"/>
<path d="M50.477 43.9393C50.477 43.9393 48.4601 43.2688 45.4499 42.403C28.554 37.1951 17.4317 36.7216 14.2531 36.7075C13.6311 36.7053 13.3139 36.7188 13.3139 36.7188C13.2361 36.7216 13.1632 36.7256 13.0879 36.7323C11.0323 36.7458 9.21549 36.5933 7.67287 36.3743C1.99571 35.571 0.526367 33.4259 0.526367 33.4259C2.38857 41.0039 9.17724 47.177 9.17724 47.177C9.17724 47.177 17.6679 47.834 24.5573 45.5304C24.5573 45.5304 31.5877 43.0029 43.0089 47.2418C43.0089 47.2418 77.0116 59.828 86.4661 34.9217C86.4661 34.9217 74.8883 50.7519 50.477 43.9393Z" fill="white"/>
<path d="M47.9363 26.9813C47.9344 26.9759 47.9313 26.9687 47.9268 26.9615C47.8466 26.7151 47.4561 25.6096 46.5727 24.0157C45.6798 22.3454 44.5155 20.6184 43.0039 18.9647C42.9954 18.9503 42.9873 18.9387 42.977 18.9265C41.0796 16.7552 38.5293 14.4247 35.1344 12.3144C34.2555 11.7645 33.3158 11.2293 32.3189 10.7219C32.3189 10.7219 32.3189 10.7179 32.3131 10.7148C32.2434 10.6829 32.1745 10.6483 32.1062 10.6131C31.8933 10.5164 31.5287 10.382 31.0738 10.3392C30.6453 10.2961 30.1323 10.3352 29.59 10.5669C29.4933 10.61 29.396 10.6568 29.2943 10.7098C29.2862 10.712 29.2759 10.7148 29.27 10.7219C27.3201 11.6907 24.66 13.5464 23.6191 14.2889L23.1735 14.6118L14.1753 21.1015L11.8662 19.8202C11.8662 19.8202 6.96493 16.0694 0.526367 28.3152C0.526367 28.3152 3.18108 29.404 10.1043 29.0636C10.1043 29.0636 34.5322 27.203 47.0933 31.99C47.1546 30.9753 47.3426 29.1625 47.9453 27.0087C47.9453 27.0087 47.9429 26.9997 47.9363 26.9813Z" fill="white"/>
<path d="M84.9205 24.591C84.1289 20.7966 79.4077 17.0616 76.7894 15.2504C76.2967 14.8911 75.7409 14.5206 75.1123 14.1535C75.0691 14.1288 75.0452 14.1149 75.0452 14.1149C75.0452 14.1149 72.7711 11.4843 70.2172 8.27915C70.2172 8.27915 65.7548 3.40537 60.8396 0.549049C58.441 -0.667094 56.2764 0.457287 55.6207 0.867964C52.3175 3.06216 47.5049 7.25908 43.9839 9.56449L43.1788 10.1041L38.9346 12.8786C41.1667 14.5768 46.4131 18.9113 49.2699 24.1493V20.1953C49.2699 20.1953 49.3856 18.0707 48.4459 16.3847V7.63959H67.6382V16.4468C67.6382 16.4468 66.3237 19.7568 66.6373 23.8166C66.6373 23.8166 68.8155 27.3709 68.8344 34.4204C73.8887 33.8534 79.6791 32.5122 86.0218 29.8943L84.9205 24.591Z" fill="white"/>
<path d="M37.3387 47.6446C29.7602 45.958 26.039 47.4606 26.039 47.4606C18.8875 50.504 10.873 49.412 10.873 49.412C16.5007 54.222 21.9388 55.0027 21.9388 55.0027C25.9512 53.2104 29.3021 52.0668 32.0697 51.3463L32.0666 51.344C32.0666 51.344 32.9477 51.0985 34.3478 50.8219C34.5445 50.7815 34.7384 50.7442 34.9314 50.7117C34.9922 50.6987 35.0556 50.6879 35.1232 50.6749C35.2518 50.6515 35.3752 50.6312 35.4999 50.6105C38.0371 50.182 41.6113 49.8203 44.8999 50.3407C42.2598 48.8521 38.4376 47.8991 37.3387 47.6446Z" fill="white"/>
<path d="M25.54 56.085C25.54 56.085 35.5023 50.7219 44.8988 52.2394C44.8988 52.2394 31.434 53.75 36.5297 58C36.5297 58 30.2915 58 25.54 56.085Z" fill="white"/>
<path fill-rule="evenodd" clip-rule="evenodd" d="M99.2422 42.4287V33.552H100.448L105.114 40.521V33.552H106.241V42.4287H105.036L100.37 35.4528V42.4287H99.2422Z" fill="white"/>
<path fill-rule="evenodd" clip-rule="evenodd" d="M112.482 40.3577L113.61 40.497C113.432 41.1555 113.103 41.6656 112.622 42.0294C112.141 42.3921 111.527 42.574 110.781 42.574C109.839 42.574 109.093 42.285 108.541 41.7047C107.99 41.1256 107.714 40.3139 107.714 39.2685C107.714 38.1863 107.993 37.347 108.55 36.7494C109.108 36.1519 109.831 35.8525 110.72 35.8525C111.58 35.8525 112.283 36.145 112.828 36.731C113.374 37.3159 113.646 38.1402 113.646 39.2017C113.646 39.2662 113.644 39.3629 113.64 39.4919H108.841C108.882 40.1988 109.081 40.7399 109.441 41.1152C109.8 41.4906 110.248 41.6782 110.786 41.6782C111.186 41.6782 111.527 41.5735 111.811 41.3628C112.093 41.1532 112.318 40.8182 112.482 40.3577ZM108.902 38.5961H112.495C112.447 38.055 112.309 37.6498 112.083 37.3792C111.736 36.959 111.285 36.7494 110.731 36.7494C110.231 36.7494 109.809 36.9164 109.468 37.2514C109.127 37.5864 108.939 38.0343 108.902 38.5961Z" fill="white"/>
<path fill-rule="evenodd" clip-rule="evenodd" d="M119.178 41.6356C118.775 41.9787 118.386 42.2205 118.012 42.3621C117.638 42.5037 117.237 42.574 116.81 42.574C116.102 42.574 115.559 42.4013 115.179 42.057C114.799 41.7116 114.61 41.2707 114.61 40.733C114.61 40.4187 114.682 40.1309 114.825 39.8707C114.969 39.6105 115.156 39.4009 115.388 39.2443C115.621 39.0866 115.882 38.9669 116.173 38.8863C116.387 38.8299 116.711 38.7757 117.143 38.7228C118.023 38.618 118.671 38.4925 119.087 38.3475C119.092 38.1978 119.094 38.1034 119.094 38.0631C119.094 37.6187 118.991 37.3055 118.784 37.1248C118.505 36.8784 118.092 36.7552 117.542 36.7552C117.03 36.7552 116.651 36.845 116.406 37.0246C116.162 37.2042 115.981 37.522 115.864 37.9779L114.798 37.8328C114.895 37.3769 115.054 37.0085 115.276 36.7275C115.499 36.4478 115.82 36.2313 116.239 36.0793C116.66 35.9285 117.146 35.8525 117.7 35.8525C118.25 35.8525 118.696 35.917 119.039 36.0471C119.382 36.1761 119.635 36.3384 119.797 36.5341C119.958 36.7298 120.071 36.9774 120.136 37.2756C120.173 37.4609 120.19 37.7971 120.19 38.2807V39.7348C120.19 40.748 120.214 41.3881 120.26 41.6564C120.306 41.9258 120.398 42.1825 120.535 42.4289H119.396C119.283 42.2032 119.211 41.9384 119.178 41.6356ZM119.087 39.2017C118.692 39.3629 118.098 39.4999 117.306 39.6128C116.858 39.6772 116.541 39.7509 116.355 39.8315C116.169 39.9121 116.025 40.0295 115.925 40.185C115.823 40.3404 115.773 40.5131 115.773 40.7031C115.773 40.9943 115.883 41.2361 116.103 41.4295C116.323 41.623 116.646 41.7208 117.07 41.7208C117.491 41.7208 117.864 41.6287 118.191 41.4445C118.518 41.2615 118.758 41.0105 118.912 40.6916C119.029 40.4452 119.087 40.0813 119.087 39.6012V39.2017Z" fill="white"/>
<path fill-rule="evenodd" clip-rule="evenodd" d="M124.262 41.4538L124.42 42.4163C124.112 42.482 123.838 42.5142 123.595 42.5142C123.2 42.5142 122.892 42.4509 122.674 42.3265C122.457 42.201 122.302 42.0364 122.213 41.8326C122.125 41.6288 122.08 41.1994 122.08 40.5454V36.8462H121.28V35.9977H122.08V34.4054L123.165 33.7515V35.9977H124.262V36.8462H123.165V40.6064C123.165 40.9173 123.185 41.1165 123.223 41.2063C123.261 41.2949 123.323 41.3652 123.41 41.4181C123.497 41.4699 123.621 41.4964 123.783 41.4964C123.905 41.4964 124.064 41.4826 124.262 41.4538Z" fill="white"/>
<path fill-rule="evenodd" clip-rule="evenodd" d="M125.329 42.4287V33.552H126.419V36.7366C126.928 36.1471 127.571 35.8523 128.346 35.8523C128.822 35.8523 129.237 35.9468 129.588 36.1344C129.94 36.3221 130.191 36.5811 130.343 36.9127C130.494 37.2431 130.57 37.7232 130.57 38.353V42.4287H129.479V38.353C129.479 37.8084 129.361 37.4124 129.125 37.1637C128.888 36.915 128.554 36.7907 128.122 36.7907C127.799 36.7907 127.495 36.8747 127.21 37.0428C126.925 37.2098 126.722 37.4366 126.601 37.7232C126.48 38.0099 126.419 38.406 126.419 38.9103V42.4287H125.329Z" fill="white"/>
<path fill-rule="evenodd" clip-rule="evenodd" d="M135.817 42.4287V33.552H139.168C139.757 33.552 140.208 33.5796 140.519 33.636C140.956 33.7086 141.321 33.8467 141.616 34.0517C141.911 34.2555 142.148 34.541 142.328 34.9083C142.507 35.2755 142.597 35.6785 142.597 36.1195C142.597 36.8736 142.357 37.5126 141.876 38.0353C141.396 38.558 140.527 38.8193 139.271 38.8193H136.992V42.4287H135.817ZM136.992 37.7716H139.289C140.049 37.7716 140.588 37.6311 140.907 37.3479C141.226 37.0658 141.385 36.6675 141.385 36.1551C141.385 35.7844 141.292 35.4655 141.104 35.2018C140.916 34.937 140.669 34.7632 140.361 34.678C140.163 34.625 139.798 34.5997 139.264 34.5997H136.992V37.7716Z" fill="white"/>
<path fill-rule="evenodd" clip-rule="evenodd" d="M143.549 39.2133C143.549 38.0228 143.879 37.1409 144.542 36.5675C145.096 36.0909 145.77 35.8525 146.566 35.8525C147.451 35.8525 148.173 36.1427 148.735 36.7218C149.296 37.3009 149.578 38.1011 149.578 39.1223C149.578 39.9501 149.453 40.6017 149.204 41.0761C148.957 41.5493 148.595 41.9177 148.12 42.1802C147.646 42.4427 147.127 42.574 146.566 42.574C145.665 42.574 144.937 42.2861 144.382 41.7082C143.826 41.1314 143.549 40.299 143.549 39.2133ZM144.67 39.2133C144.67 40.0376 144.85 40.6536 145.209 41.0634C145.568 41.4733 146.021 41.6782 146.566 41.6782C147.108 41.6782 147.558 41.4721 147.917 41.06C148.277 40.649 148.457 40.0203 148.457 39.1776C148.457 38.382 148.276 37.7799 147.914 37.37C147.552 36.9601 147.103 36.7552 146.566 36.7552C146.021 36.7552 145.568 36.959 145.209 37.3665C144.85 37.7741 144.67 38.3901 144.67 39.2133Z" fill="white"/>
<path fill-rule="evenodd" clip-rule="evenodd" d="M150.843 42.4289V35.9976H151.824V36.9728C152.075 36.5169 152.306 36.2164 152.518 36.0713C152.73 35.9251 152.964 35.8525 153.218 35.8525C153.586 35.8525 153.959 35.97 154.339 36.2037L153.964 37.2157C153.696 37.058 153.43 36.9785 153.164 36.9785C152.926 36.9785 152.711 37.0511 152.521 37.1938C152.331 37.3377 152.196 37.5358 152.116 37.7902C151.994 38.1782 151.934 38.6019 151.934 39.0624V42.4289H150.843Z" fill="white"/>
<path fill-rule="evenodd" clip-rule="evenodd" d="M157.37 41.4538L157.527 42.4163C157.22 42.482 156.945 42.5142 156.703 42.5142C156.307 42.5142 156 42.4509 155.783 42.3265C155.564 42.201 155.411 42.0364 155.322 41.8326C155.233 41.6288 155.188 41.1994 155.188 40.5454V36.8462H154.389V35.9977H155.188V34.4054L156.273 33.7515V35.9977H157.37V36.8462H156.273V40.6064C156.273 40.9173 156.292 41.1165 156.331 41.2063C156.369 41.2949 156.431 41.3652 156.519 41.4181C156.605 41.4699 156.73 41.4964 156.891 41.4964C157.012 41.4964 157.172 41.4826 157.37 41.4538Z" fill="white"/>
<path fill-rule="evenodd" clip-rule="evenodd" d="M164.059 42.4287V34.5997H161.133V33.552H168.173V34.5997H165.234V42.4287H164.059Z" fill="white"/>
<path fill-rule="evenodd" clip-rule="evenodd" d="M172.064 41.6356C171.66 41.9787 171.272 42.2205 170.897 42.3621C170.524 42.5037 170.123 42.574 169.694 42.574C168.988 42.574 168.444 42.4013 168.065 42.057C167.685 41.7116 167.495 41.2707 167.495 40.733C167.495 40.4187 167.567 40.1309 167.711 39.8707C167.853 39.6105 168.041 39.4009 168.274 39.2443C168.507 39.0866 168.768 38.9669 169.058 38.8863C169.273 38.8299 169.595 38.7757 170.029 38.7228C170.909 38.618 171.557 38.4925 171.973 38.3475C171.977 38.1978 171.979 38.1034 171.979 38.0631C171.979 37.6187 171.876 37.3055 171.67 37.1248C171.391 36.8784 170.978 36.7552 170.428 36.7552C169.914 36.7552 169.537 36.845 169.292 37.0246C169.047 37.2042 168.867 37.522 168.75 37.9779L167.683 37.8328C167.78 37.3769 167.94 37.0085 168.162 36.7275C168.385 36.4478 168.705 36.2313 169.125 36.0793C169.546 35.9285 170.032 35.8525 170.586 35.8525C171.134 35.8525 171.582 35.917 171.925 36.0471C172.268 36.1761 172.52 36.3384 172.682 36.5341C172.844 36.7298 172.957 36.9774 173.022 37.2756C173.057 37.4609 173.076 37.7971 173.076 38.2807V39.7348C173.076 40.748 173.099 41.3881 173.146 41.6564C173.192 41.9258 173.284 42.1825 173.421 42.4289H172.282C172.169 42.2032 172.096 41.9384 172.064 41.6356ZM171.973 39.2017C171.577 39.3629 170.984 39.4999 170.192 39.6128C169.743 39.6772 169.426 39.7509 169.24 39.8315C169.055 39.9121 168.911 40.0295 168.81 40.185C168.709 40.3404 168.659 40.5131 168.659 40.7031C168.659 40.9943 168.769 41.2361 168.989 41.4295C169.209 41.623 169.531 41.7208 169.956 41.7208C170.375 41.7208 170.75 41.6287 171.077 41.4445C171.404 41.2615 171.644 41.0105 171.797 40.6916C171.914 40.4452 171.973 40.0813 171.973 39.6012V39.2017Z" fill="white"/>
<path fill-rule="evenodd" clip-rule="evenodd" d="M174.742 33.552H175.833V42.4287H174.742V33.552Z" fill="white"/>
<path fill-rule="evenodd" clip-rule="evenodd" d="M178.529 42.4287H177.517V33.552H178.608V36.7181C179.068 36.1413 179.656 35.8523 180.371 35.8523C180.767 35.8523 181.141 35.9318 181.495 36.0918C181.848 36.2507 182.139 36.4752 182.368 36.7642C182.596 37.052 182.775 37.4009 182.904 37.8084C183.033 38.216 183.097 38.6524 183.097 39.1163C183.097 40.2182 182.825 41.0701 182.279 41.6723C181.734 42.2733 181.08 42.5738 180.316 42.5738C179.557 42.5738 178.961 42.2572 178.529 41.6228V42.4287ZM178.517 39.1647C178.517 39.9361 178.621 40.4933 178.832 40.8364C179.176 41.3971 179.64 41.678 180.225 41.678C180.702 41.678 181.115 41.4708 181.461 41.0575C181.809 40.643 181.983 40.027 181.983 39.2073C181.983 38.368 181.816 37.7474 181.483 37.3479C181.149 36.9484 180.747 36.7492 180.273 36.7492C179.798 36.7492 179.385 36.9553 179.037 37.3698C178.691 37.7831 178.517 38.3818 178.517 39.1647Z" fill="white"/>
<path fill-rule="evenodd" clip-rule="evenodd" d="M184.019 39.2133C184.019 38.0228 184.349 37.1409 185.012 36.5675C185.566 36.0909 186.24 35.8525 187.036 35.8525C187.921 35.8525 188.643 36.1427 189.205 36.7218C189.766 37.3009 190.047 38.1011 190.047 39.1223C190.047 39.9501 189.923 40.6017 189.674 41.0761C189.426 41.5493 189.065 41.9177 188.59 42.1802C188.115 42.4427 187.597 42.574 187.036 42.574C186.135 42.574 185.407 42.2861 184.851 41.7082C184.296 41.1314 184.019 40.299 184.019 39.2133ZM185.14 39.2133C185.14 40.0376 185.319 40.6536 185.679 41.0634C186.038 41.4733 186.491 41.6782 187.036 41.6782C187.577 41.6782 188.028 41.4721 188.387 41.06C188.747 40.649 188.926 40.0203 188.926 39.1776C188.926 38.382 188.745 37.7799 188.384 37.37C188.022 36.9601 187.573 36.7552 187.036 36.7552C186.491 36.7552 186.038 36.959 185.679 37.3665C185.319 37.7741 185.14 38.3901 185.14 39.2133Z" fill="white"/>
<path fill-rule="evenodd" clip-rule="evenodd" d="M193.707 41.4538L193.864 42.4163C193.557 42.482 193.282 42.5142 193.04 42.5142C192.644 42.5142 192.337 42.4509 192.12 42.3265C191.901 42.201 191.747 42.0364 191.659 41.8326C191.57 41.6288 191.525 41.1994 191.525 40.5454V36.8462H190.726V35.9977H191.525V34.4054L192.61 33.7515V35.9977H193.707V36.8462H192.61V40.6064C192.61 40.9173 192.629 41.1165 192.668 41.2063C192.706 41.2949 192.768 41.3652 192.856 41.4181C192.942 41.4699 193.067 41.4964 193.228 41.4964C193.349 41.4964 193.509 41.4826 193.707 41.4538Z" fill="white"/>
<path fill-rule="evenodd" clip-rule="evenodd" d="M204.699 39.3168L205.875 39.6127C205.629 40.5775 205.185 41.3132 204.544 41.8198C203.904 42.3264 203.122 42.5796 202.197 42.5796C201.239 42.5796 200.46 42.3851 199.861 41.9959C199.261 41.6068 198.805 41.0426 198.492 40.3035C198.178 39.5643 198.021 38.7711 198.021 37.9237C198.021 36.9992 198.199 36.1933 198.553 35.5048C198.905 34.8163 199.409 34.2936 200.061 33.9367C200.713 33.5786 201.432 33.4001 202.215 33.4001C203.103 33.4001 203.851 33.6258 204.457 34.0783C205.063 34.5307 205.485 35.1663 205.723 35.986L204.566 36.2589C204.36 35.613 204.061 35.1421 203.669 34.8474C203.277 34.5526 202.784 34.4053 202.191 34.4053C201.508 34.4053 200.937 34.5687 200.479 34.8957C200.02 35.2227 199.699 35.6625 199.512 36.2128C199.327 36.7643 199.233 37.3319 199.233 37.9179C199.233 38.6721 199.344 39.3318 199.564 39.8948C199.784 40.4578 200.126 40.8791 200.591 41.1578C201.056 41.4352 201.558 41.5745 202.1 41.5745C202.759 41.5745 203.315 41.3857 203.773 41.0058C204.229 40.6259 204.538 40.0629 204.699 39.3168Z" fill="white"/>
<path fill-rule="evenodd" clip-rule="evenodd" d="M206.776 39.2133C206.776 38.0228 207.108 37.1409 207.771 36.5675C208.324 36.0909 208.999 35.8525 209.795 35.8525C210.678 35.8525 211.402 36.1427 211.963 36.7218C212.525 37.3009 212.806 38.1011 212.806 39.1223C212.806 39.9501 212.682 40.6017 212.433 41.0761C212.184 41.5493 211.824 41.9177 211.349 42.1802C210.874 42.4427 210.356 42.574 209.795 42.574C208.894 42.574 208.166 42.2861 207.61 41.7082C207.054 41.1314 206.776 40.299 206.776 39.2133ZM207.897 39.2133C207.897 40.0376 208.077 40.6536 208.436 41.0634C208.796 41.4733 209.249 41.6782 209.795 41.6782C210.335 41.6782 210.786 41.4721 211.145 41.06C211.504 40.649 211.685 40.0203 211.685 39.1776C211.685 38.382 211.504 37.7799 211.143 37.37C210.781 36.9601 210.332 36.7552 209.795 36.7552C209.249 36.7552 208.796 36.959 208.436 37.3665C208.077 37.7741 207.897 38.3901 207.897 39.2133Z" fill="white"/>
<path fill-rule="evenodd" clip-rule="evenodd" d="M218.301 42.4286V41.4845C217.8 42.211 217.119 42.5737 216.259 42.5737C215.88 42.5737 215.525 42.5011 215.196 42.3561C214.867 42.211 214.622 42.0279 214.463 41.808C214.303 41.5881 214.191 41.3187 214.126 40.9998C214.083 40.7857 214.06 40.446 214.06 39.982V35.9973H215.151V39.5641C215.151 40.134 215.172 40.5174 215.217 40.7154C215.285 41.0021 215.432 41.2266 215.653 41.3901C215.875 41.5536 216.151 41.6353 216.478 41.6353C216.805 41.6353 217.111 41.5513 217.398 41.3844C217.685 41.2163 217.888 40.9883 218.008 40.6993C218.126 40.4115 218.186 39.9924 218.186 39.4432V35.9973H219.277V42.4286H218.301Z" fill="white"/>
<path fill-rule="evenodd" clip-rule="evenodd" d="M220.986 42.4289V35.9976H221.968V36.9129C222.44 36.206 223.123 35.8525 224.016 35.8525C224.403 35.8525 224.761 35.9228 225.085 36.0621C225.41 36.2014 225.653 36.3833 225.816 36.6101C225.977 36.8358 226.09 37.104 226.155 37.4149C226.195 37.6164 226.216 37.9698 226.216 38.4753V42.4289H225.125V38.5167C225.125 38.0734 225.082 37.7407 224.998 37.5208C224.913 37.3009 224.762 37.1259 224.546 36.9947C224.33 36.8634 224.076 36.7978 223.786 36.7978C223.32 36.7978 222.919 36.9451 222.583 37.2399C222.246 37.5346 222.077 38.093 222.077 38.9174V42.4289H220.986Z" fill="white"/>
<path fill-rule="evenodd" clip-rule="evenodd" d="M232.086 40.0733L233.159 40.2126C233.041 40.9518 232.741 41.5297 232.259 41.9476C231.776 42.3656 231.183 42.574 230.48 42.574C229.6 42.574 228.892 42.2861 228.357 41.7116C227.821 41.136 227.554 40.3116 227.554 39.2374C227.554 38.5432 227.669 37.9353 227.899 37.4149C228.13 36.8945 228.48 36.5042 228.95 36.2428C229.421 35.9826 229.933 35.8525 230.487 35.8525C231.185 35.8525 231.756 36.0298 232.201 36.3821C232.646 36.7356 232.93 37.2376 233.056 37.8869L231.995 38.0504C231.895 37.6187 231.715 37.294 231.459 37.0764C231.202 36.8576 230.892 36.7494 230.528 36.7494C229.98 36.7494 229.533 36.9463 229.19 37.3389C228.846 37.7327 228.675 38.3555 228.675 39.2075C228.675 40.071 228.841 40.6996 229.171 41.0911C229.503 41.4825 229.935 41.6782 230.468 41.6782C230.897 41.6782 231.254 41.547 231.541 41.2845C231.828 41.022 232.01 40.6179 232.086 40.0733Z" fill="white"/>
<path fill-rule="evenodd" clip-rule="evenodd" d="M234.099 34.8046V33.552H235.19V34.8046H234.099ZM234.099 42.4287V35.9974H235.19V42.4287H234.099Z" fill="white"/>
<path fill-rule="evenodd" clip-rule="evenodd" d="M236.825 33.552H237.916V42.4287H236.825V33.552Z" fill="white"/>
<path fill-rule="evenodd" clip-rule="evenodd" d="M104.722 22.0019L105.899 22.2977C105.652 23.2626 105.208 23.9983 104.568 24.5048C103.929 25.0114 103.145 25.2647 102.22 25.2647C101.263 25.2647 100.484 25.0701 99.8848 24.681C99.2845 24.2918 98.8283 23.7277 98.515 22.9885C98.2016 22.2494 98.0449 21.4561 98.0449 20.6088C98.0449 19.6842 98.2223 18.8783 98.576 18.1898C98.9286 17.5013 99.432 16.9786 100.084 16.6217C100.737 16.2637 101.455 16.0852 102.238 16.0852C103.127 16.0852 103.874 16.3109 104.48 16.7633C105.086 17.2158 105.508 17.8513 105.746 18.6711L104.59 18.9439C104.384 18.298 104.084 17.8272 103.692 17.5324C103.301 17.2377 102.808 17.0903 102.214 17.0903C101.531 17.0903 100.961 17.2538 100.502 17.5808C100.044 17.9078 99.7223 18.3476 99.5357 18.8979C99.3502 19.4494 99.2569 20.017 99.2569 20.603C99.2569 21.3571 99.3675 22.0168 99.5875 22.5798C99.8076 23.1428 100.15 23.5642 100.614 23.8428C101.079 24.1203 101.582 24.2596 102.123 24.2596C102.782 24.2596 103.339 24.0708 103.796 23.6908C104.252 23.3109 104.561 22.7479 104.722 22.0019Z" fill="white"/>
<path fill-rule="evenodd" clip-rule="evenodd" d="M107.159 27.5904L107.038 26.5669C107.275 26.6314 107.484 26.6636 107.661 26.6636C107.905 26.6636 108.098 26.6233 108.243 26.5427C108.388 26.4621 108.508 26.3493 108.6 26.2042C108.67 26.0948 108.78 25.8243 108.934 25.3925C108.954 25.3315 108.986 25.2429 109.031 25.1266L106.589 18.6826H107.765L109.104 22.4071C109.278 22.8792 109.433 23.3766 109.57 23.897C109.696 23.3961 109.845 22.908 110.019 22.4313L111.394 18.6826H112.485L110.037 25.2233C109.774 25.929 109.57 26.4161 109.425 26.682C109.231 27.0412 109.009 27.3049 108.758 27.473C108.508 27.6399 108.209 27.724 107.862 27.724C107.651 27.724 107.417 27.6791 107.159 27.5904Z" fill="white"/>
<path fill-rule="evenodd" clip-rule="evenodd" d="M113.412 25.1137V18.6824H114.395V19.5977C114.867 18.8908 115.549 18.5374 116.442 18.5374C116.83 18.5374 117.186 18.6076 117.512 18.7469C117.837 18.8862 118.08 19.0681 118.242 19.2949C118.404 19.5206 118.517 19.7888 118.581 20.0997C118.622 20.3012 118.641 20.6546 118.641 21.1601V25.1137H117.551V21.2015C117.551 20.7583 117.509 20.4255 117.424 20.2056C117.34 19.9857 117.189 19.8107 116.972 19.6795C116.757 19.5482 116.503 19.4826 116.212 19.4826C115.747 19.4826 115.346 19.63 115.009 19.9247C114.672 20.2194 114.503 20.7778 114.503 21.6022V25.1137H113.412Z" fill="white"/>
<path fill-rule="evenodd" clip-rule="evenodd" d="M120.112 25.6468L121.173 25.8045C121.217 26.1315 121.34 26.3687 121.543 26.5183C121.814 26.721 122.183 26.8211 122.651 26.8211C123.156 26.8211 123.547 26.721 123.821 26.5183C124.096 26.3168 124.282 26.0336 124.378 25.671C124.435 25.4487 124.461 24.9825 124.458 24.2721C123.981 24.8328 123.386 25.1137 122.676 25.1137C121.791 25.1137 121.107 24.7948 120.621 24.157C120.138 23.5191 119.895 22.7547 119.895 21.8624C119.895 21.2487 120.006 20.6823 120.227 20.163C120.45 19.6449 120.772 19.2443 121.194 18.961C121.617 18.679 122.112 18.5374 122.681 18.5374C123.442 18.5374 124.067 18.8448 124.56 19.4584V18.6824H125.566V24.2422C125.566 25.2427 125.464 25.9519 125.26 26.3698C125.056 26.7877 124.733 27.1182 124.291 27.3599C123.848 27.6029 123.303 27.7238 122.657 27.7238C121.89 27.7238 121.27 27.5511 120.798 27.2057C120.325 26.8603 120.096 26.341 120.112 25.6468ZM121.015 21.7829C121.015 22.6269 121.184 23.2428 121.519 23.6297C121.854 24.0177 122.274 24.2111 122.779 24.2111C123.279 24.2111 123.7 24.0188 124.04 23.6331C124.378 23.2474 124.548 22.643 124.548 21.8198C124.548 21.0323 124.374 20.4393 124.024 20.0398C123.674 19.6392 123.254 19.44 122.761 19.44C122.276 19.44 121.863 19.6369 121.525 20.0306C121.185 20.4244 121.015 21.0081 121.015 21.7829Z" fill="white"/>
<path fill-rule="evenodd" clip-rule="evenodd" d="M126.809 21.8981C126.809 20.7076 127.14 19.8257 127.803 19.2523C128.356 18.7757 129.031 18.5374 129.826 18.5374C130.711 18.5374 131.434 18.8275 131.995 19.4066C132.557 19.9857 132.837 20.7859 132.837 21.8071C132.837 22.6349 132.714 23.2866 132.465 23.7609C132.216 24.2341 131.855 24.6025 131.38 24.865C130.905 25.1275 130.388 25.2588 129.826 25.2588C128.925 25.2588 128.197 24.9709 127.642 24.393C127.086 23.8162 126.809 22.9838 126.809 21.8981ZM127.93 21.8981C127.93 22.7224 128.109 23.3384 128.469 23.7482C128.828 24.1581 129.281 24.3631 129.826 24.3631C130.367 24.3631 130.818 24.157 131.177 23.7448C131.537 23.3338 131.716 22.7051 131.716 21.8624C131.716 21.0668 131.536 20.4647 131.175 20.0548C130.813 19.6449 130.364 19.44 129.826 19.44C129.281 19.44 128.828 19.6438 128.469 20.0513C128.109 20.4589 127.93 21.0749 127.93 21.8981Z" fill="white"/>
<path fill-rule="evenodd" clip-rule="evenodd" d="M134.104 25.1137V18.6824H135.086V19.6576C135.336 19.2017 135.568 18.9012 135.78 18.7561C135.992 18.6099 136.224 18.5374 136.479 18.5374C136.846 18.5374 137.221 18.6548 137.6 18.8885L137.224 19.9005C136.958 19.7428 136.691 19.6633 136.425 19.6633C136.186 19.6633 135.972 19.7359 135.782 19.8786C135.593 20.0226 135.457 20.2206 135.376 20.475C135.255 20.863 135.194 21.2867 135.194 21.7472V25.1137H134.104Z" fill="white"/>
<path fill-rule="evenodd" clip-rule="evenodd" d="M148.173 22.0019L149.349 22.2977C149.103 23.2626 148.66 23.9983 148.019 24.5048C147.379 25.0114 146.596 25.2647 145.671 25.2647C144.714 25.2647 143.935 25.0701 143.335 24.681C142.736 24.2918 142.278 23.7277 141.966 22.9885C141.653 22.2494 141.496 21.4561 141.496 20.6088C141.496 19.6842 141.674 18.8783 142.026 18.1898C142.38 17.5013 142.883 16.9786 143.535 16.6217C144.187 16.2637 144.905 16.0852 145.69 16.0852C146.578 16.0852 147.326 16.3109 147.932 16.7633C148.538 17.2158 148.959 17.8513 149.198 18.6711L148.04 18.9439C147.835 18.298 147.535 17.8272 147.144 17.5324C146.752 17.2377 146.259 17.0903 145.665 17.0903C144.982 17.0903 144.412 17.2538 143.953 17.5808C143.495 17.9078 143.172 18.3476 142.987 18.8979C142.801 19.4494 142.708 20.017 142.708 20.603C142.708 21.3571 142.819 22.0168 143.039 22.5798C143.259 23.1428 143.601 23.5642 144.065 23.8428C144.529 24.1203 145.033 24.2596 145.574 24.2596C146.232 24.2596 146.79 24.0708 147.246 23.6908C147.703 23.3109 148.012 22.7479 148.173 22.0019Z" fill="white"/>
<path fill-rule="evenodd" clip-rule="evenodd" d="M154.857 24.3205C154.454 24.6635 154.064 24.9053 153.691 25.0469C153.317 25.1885 152.916 25.2588 152.488 25.2588C151.781 25.2588 151.238 25.0861 150.858 24.7418C150.478 24.3964 150.289 23.9555 150.289 23.4178C150.289 23.1035 150.36 22.8157 150.503 22.5555C150.647 22.2953 150.835 22.0857 151.067 21.9292C151.299 21.7714 151.561 21.6517 151.852 21.5711C152.066 21.5147 152.389 21.4606 152.821 21.4076C153.701 21.3028 154.35 21.1773 154.766 21.0323C154.771 20.8826 154.773 20.7882 154.773 20.7479C154.773 20.3035 154.669 19.9903 154.463 19.8096C154.184 19.5632 153.771 19.44 153.221 19.44C152.708 19.44 152.329 19.5298 152.085 19.7094C151.841 19.889 151.66 20.2068 151.543 20.6627L150.477 20.5176C150.574 20.0617 150.733 19.6933 150.955 19.4124C151.177 19.1326 151.499 18.9161 151.918 18.7642C152.339 18.6133 152.826 18.5374 153.379 18.5374C153.928 18.5374 154.374 18.6018 154.718 18.7319C155.061 18.8609 155.313 19.0232 155.476 19.2189C155.637 19.4147 155.75 19.6622 155.814 19.9604C155.851 20.1458 155.87 20.4819 155.87 20.9655V22.4196C155.87 23.4328 155.893 24.0729 155.939 24.3412C155.985 24.6106 156.077 24.8673 156.214 25.1137H155.076C154.962 24.8881 154.889 24.6232 154.857 24.3205ZM154.766 21.8866C154.371 22.0477 153.776 22.1847 152.985 22.2976C152.537 22.362 152.22 22.4357 152.033 22.5163C151.848 22.5969 151.705 22.7144 151.604 22.8698C151.502 23.0252 151.452 23.1979 151.452 23.3879C151.452 23.6792 151.562 23.9209 151.782 24.1144C152.002 24.3078 152.325 24.4056 152.749 24.4056C153.169 24.4056 153.543 24.3135 153.87 24.1293C154.197 23.9463 154.438 23.6953 154.591 23.3764C154.708 23.13 154.766 22.7662 154.766 22.2861V21.8866Z" fill="white"/>
<path fill-rule="evenodd" clip-rule="evenodd" d="M157.123 23.1945L158.203 23.0241C158.262 23.457 158.431 23.7874 158.708 24.0177C158.985 24.2479 159.372 24.3631 159.868 24.3631C160.37 24.3631 160.741 24.2606 160.984 24.0568C161.226 23.853 161.347 23.6135 161.347 23.3395C161.347 23.0931 161.239 22.8997 161.025 22.7581C160.876 22.6614 160.504 22.5382 159.911 22.3885C159.11 22.187 158.556 22.012 158.247 21.8647C157.939 21.7173 157.704 21.5135 157.545 21.2533C157.385 20.9931 157.305 20.7053 157.305 20.391C157.305 20.1043 157.371 19.8383 157.502 19.5943C157.633 19.3502 157.812 19.1476 158.039 18.9852C158.208 18.8609 158.44 18.755 158.732 18.6675C159.025 18.5811 159.34 18.5374 159.675 18.5374C160.179 18.5374 160.623 18.6099 161.004 18.7561C161.386 18.9012 161.668 19.098 161.85 19.3456C162.031 19.5943 162.156 19.9258 162.226 20.3426L161.159 20.4877C161.11 20.1561 160.97 19.8982 160.738 19.7129C160.506 19.5263 160.177 19.4342 159.753 19.4342C159.252 19.4342 158.895 19.516 158.681 19.6818C158.466 19.8476 158.359 20.041 158.359 20.2632C158.359 20.4048 158.404 20.5314 158.493 20.6454C158.582 20.7617 158.721 20.8584 158.911 20.9356C159.021 20.9759 159.341 21.0691 159.874 21.2142C160.646 21.4203 161.184 21.5884 161.489 21.7196C161.795 21.8509 162.033 22.042 162.207 22.2918C162.381 22.5417 162.467 22.8525 162.467 23.2244C162.467 23.5882 162.361 23.9302 162.15 24.2514C161.938 24.5714 161.631 24.8201 161.231 24.9951C160.832 25.1713 160.379 25.2588 159.874 25.2588C159.038 25.2588 158.401 25.0849 157.963 24.7384C157.524 24.3907 157.245 23.876 157.123 23.1945Z" fill="white"/>
<path fill-rule="evenodd" clip-rule="evenodd" d="M166.146 24.1386L166.302 25.1011C165.996 25.1668 165.722 25.199 165.479 25.199C165.083 25.199 164.776 25.1357 164.558 25.0113C164.339 24.8858 164.186 24.7212 164.097 24.5174C164.009 24.3136 163.964 23.8842 163.964 23.2302V19.531H163.164V18.6825H163.964V17.0902L165.049 16.4363V18.6825H166.146V19.531H165.049V23.2913C165.049 23.6021 165.067 23.8013 165.106 23.8911C165.144 23.9798 165.207 24.05 165.294 24.1029C165.381 24.1548 165.505 24.1812 165.666 24.1812C165.787 24.1812 165.947 24.1674 166.146 24.1386Z" fill="white"/>
<path fill-rule="evenodd" clip-rule="evenodd" d="M171.617 23.0425L172.744 23.1818C172.566 23.8403 172.237 24.3504 171.756 24.7142C171.276 25.0769 170.662 25.2588 169.914 25.2588C168.973 25.2588 168.227 24.9698 167.676 24.3895C167.124 23.8104 166.849 22.9987 166.849 21.9533C166.849 20.8711 167.127 20.0318 167.685 19.4342C168.241 18.8367 168.965 18.5374 169.853 18.5374C170.714 18.5374 171.417 18.8298 171.963 19.4158C172.508 20.0007 172.781 20.825 172.781 21.8866C172.781 21.951 172.778 22.0477 172.775 22.1767H167.975C168.016 22.8836 168.216 23.4247 168.576 23.8001C168.935 24.1754 169.383 24.3631 169.92 24.3631C170.32 24.3631 170.662 24.2583 170.944 24.0476C171.228 23.838 171.451 23.503 171.617 23.0425ZM168.036 21.281H171.63C171.58 20.7398 171.443 20.3346 171.217 20.064C170.869 19.6438 170.419 19.4342 169.866 19.4342C169.365 19.4342 168.944 19.6012 168.602 19.9362C168.261 20.2712 168.072 20.7191 168.036 21.281Z" fill="white"/>
<path fill-rule="evenodd" clip-rule="evenodd" d="M174.09 16.2373H175.181V25.114H174.09V16.2373Z" fill="white"/>
<path fill-rule="evenodd" clip-rule="evenodd" d="M176.846 16.2373H177.937V25.114H176.846V16.2373Z" fill="white"/>
<path fill-rule="evenodd" clip-rule="evenodd" d="M179.204 21.3538H182.554V22.4498H179.204V21.3538Z" fill="white"/>
<path fill-rule="evenodd" clip-rule="evenodd" d="M183.76 25.1137V18.6824H184.741V19.5977C185.214 18.8908 185.897 18.5374 186.79 18.5374C187.177 18.5374 187.534 18.6076 187.859 18.7469C188.184 18.8862 188.428 19.0681 188.589 19.2949C188.751 19.5206 188.863 19.7888 188.928 20.0997C188.968 20.3012 188.989 20.6546 188.989 21.1601V25.1137H187.898V21.2015C187.898 20.7583 187.855 20.4255 187.771 20.2056C187.686 19.9857 187.535 19.8107 187.32 19.6795C187.103 19.5482 186.85 19.4826 186.559 19.4826C186.095 19.4826 185.694 19.63 185.357 19.9247C185.019 20.2194 184.851 20.7778 184.851 21.6022V25.1137H183.76Z" fill="white"/>
<path fill-rule="evenodd" clip-rule="evenodd" d="M195.066 23.0425L196.193 23.1818C196.016 23.8403 195.686 24.3504 195.206 24.7142C194.725 25.0769 194.111 25.2588 193.364 25.2588C192.422 25.2588 191.676 24.9698 191.125 24.3895C190.573 23.8104 190.298 22.9987 190.298 21.9533C190.298 20.8711 190.577 20.0318 191.134 19.4342C191.692 18.8367 192.414 18.5374 193.304 18.5374C194.163 18.5374 194.867 18.8298 195.412 19.4158C195.957 20.0007 196.23 20.825 196.23 21.8866C196.23 21.951 196.228 22.0477 196.224 22.1767H191.425C191.465 22.8836 191.665 23.4247 192.025 23.8001C192.384 24.1754 192.832 24.3631 193.369 24.3631C193.77 24.3631 194.111 24.2583 194.393 24.0476C194.677 23.838 194.9 23.503 195.066 23.0425ZM191.486 21.281H195.079C195.031 20.7398 194.892 20.3346 194.666 20.064C194.319 19.6438 193.869 19.4342 193.315 19.4342C192.814 19.4342 192.393 19.6012 192.052 19.9362C191.71 20.2712 191.521 20.7191 191.486 21.281Z" fill="white"/>
<path fill-rule="evenodd" clip-rule="evenodd" d="M201.738 25.114V24.3023C201.33 24.9402 200.73 25.2591 199.939 25.2591C199.425 25.2591 198.954 25.1186 198.524 24.8354C198.093 24.5533 197.76 24.1584 197.524 23.6518C197.288 23.1452 197.169 22.5627 197.169 21.9041C197.169 21.2628 197.276 20.6803 197.49 20.1576C197.705 19.6349 198.026 19.2342 198.454 18.9556C198.882 18.677 199.36 18.5376 199.89 18.5376C200.277 18.5376 200.623 18.6194 200.926 18.7829C201.229 18.9464 201.475 19.1594 201.665 19.4219V16.2373H202.75V25.114H201.738ZM198.29 21.9041C198.29 22.7285 198.464 23.3433 198.811 23.752C199.159 24.1596 199.569 24.3633 200.041 24.3633C200.518 24.3633 200.922 24.1688 201.256 23.7785C201.589 23.3893 201.756 22.7952 201.756 21.9951C201.756 21.1155 201.586 20.4696 201.247 20.0574C200.907 19.6464 200.489 19.4403 199.993 19.4403C199.508 19.4403 199.103 19.6383 198.778 20.0332C198.452 20.4293 198.29 21.0533 198.29 21.9041Z" fill="white"/>
<path fill-rule="evenodd" clip-rule="evenodd" d="M208.638 25.114V24.3023C208.23 24.9402 207.631 25.2591 206.839 25.2591C206.326 25.2591 205.855 25.1186 205.424 24.8354C204.994 24.5533 204.661 24.1584 204.424 23.6518C204.188 23.1452 204.07 22.5627 204.07 21.9041C204.07 21.2628 204.177 20.6803 204.391 20.1576C204.605 19.6349 204.926 19.2342 205.355 18.9556C205.782 18.677 206.262 18.5376 206.79 18.5376C207.179 18.5376 207.524 18.6194 207.827 18.7829C208.13 18.9464 208.376 19.1594 208.566 19.4219V16.2373H209.651V25.114H208.638ZM205.191 21.9041C205.191 22.7285 205.364 23.3433 205.712 23.752C206.06 24.1596 206.469 24.3633 206.942 24.3633C207.418 24.3633 207.824 24.1688 208.157 23.7785C208.491 23.3893 208.657 22.7952 208.657 21.9951C208.657 21.1155 208.487 20.4696 208.147 20.0574C207.809 19.6464 207.391 19.4403 206.894 19.4403C206.409 19.4403 206.003 19.6383 205.679 20.0332C205.354 20.4293 205.191 21.0533 205.191 21.9041Z" fill="white"/>
<path fill-rule="evenodd" clip-rule="evenodd" d="M214.953 25.114V16.2373H218.303C218.893 16.2373 219.344 16.2649 219.655 16.3214C220.091 16.3939 220.457 16.532 220.751 16.737C221.046 16.9408 221.284 17.2263 221.463 17.5936C221.643 17.9608 221.733 18.3638 221.733 18.8048C221.733 19.5589 221.492 20.1979 221.012 20.7206C220.531 21.2433 219.663 21.5046 218.407 21.5046H216.128V25.114H214.953ZM216.128 20.4569H218.424C219.185 20.4569 219.724 20.3164 220.043 20.0332C220.362 19.7511 220.521 19.3528 220.521 18.8404C220.521 18.4697 220.428 18.1508 220.24 17.8872C220.052 17.6223 219.804 17.4485 219.497 17.3633C219.3 17.3103 218.934 17.285 218.4 17.285H216.128V20.4569Z" fill="white"/>
<path fill-rule="evenodd" clip-rule="evenodd" d="M222.685 21.8981C222.685 20.7076 223.015 19.8257 223.678 19.2523C224.232 18.7757 224.906 18.5374 225.702 18.5374C226.587 18.5374 227.31 18.8275 227.871 19.4066C228.432 19.9857 228.713 20.7859 228.713 21.8071C228.713 22.6349 228.589 23.2866 228.341 23.7609C228.092 24.2341 227.731 24.6025 227.256 24.865C226.781 25.1275 226.263 25.2588 225.702 25.2588C224.801 25.2588 224.073 24.9709 223.518 24.393C222.962 23.8162 222.685 22.9838 222.685 21.8981ZM223.806 21.8981C223.806 22.7224 223.985 23.3384 224.345 23.7482C224.704 24.1581 225.157 24.3631 225.702 24.3631C226.243 24.3631 226.694 24.157 227.053 23.7448C227.413 23.3338 227.592 22.7051 227.592 21.8624C227.592 21.0668 227.412 20.4647 227.05 20.0548C226.688 19.6449 226.239 19.44 225.702 19.44C225.157 19.44 224.704 19.6438 224.345 20.0513C223.985 20.4589 223.806 21.0749 223.806 21.8981Z" fill="white"/>
<path fill-rule="evenodd" clip-rule="evenodd" d="M229.979 25.1137V18.6824H230.961V19.6576C231.212 19.2017 231.443 18.9012 231.655 18.7561C231.868 18.6099 232.1 18.5374 232.355 18.5374C232.723 18.5374 233.096 18.6548 233.476 18.8885L233.1 19.9005C232.833 19.7428 232.567 19.6633 232.301 19.6633C232.062 19.6633 231.848 19.7359 231.658 19.8786C231.468 20.0226 231.333 20.2206 231.253 20.475C231.132 20.863 231.07 21.2867 231.07 21.7472V25.1137H229.979Z" fill="white"/>
<path fill-rule="evenodd" clip-rule="evenodd" d="M236.506 24.1386L236.663 25.1011C236.356 25.1668 236.082 25.199 235.839 25.199C235.444 25.199 235.136 25.1357 234.918 25.0113C234.7 24.8858 234.546 24.7212 234.458 24.5174C234.369 24.3136 234.324 23.8842 234.324 23.2302V19.531H233.524V18.6825H234.324V17.0902L235.409 16.4363V18.6825H236.506V19.531H235.409V23.2913C235.409 23.6021 235.428 23.8013 235.467 23.8911C235.505 23.9798 235.567 24.05 235.655 24.1029C235.741 24.1548 235.865 24.1812 236.027 24.1812C236.148 24.1812 236.308 24.1674 236.506 24.1386Z" fill="white"/>
<path fill-rule="evenodd" clip-rule="evenodd" d="M243.196 25.114V17.285H240.27V16.2373H247.31V17.285H244.371V25.114H243.196Z" fill="white"/>
<path fill-rule="evenodd" clip-rule="evenodd" d="M251.2 24.3205C250.796 24.6635 250.407 24.9053 250.033 25.0469C249.66 25.1885 249.259 25.2588 248.83 25.2588C248.124 25.2588 247.58 25.0861 247.201 24.7418C246.821 24.3964 246.631 23.9555 246.631 23.4178C246.631 23.1035 246.702 22.8157 246.846 22.5555C246.989 22.2953 247.177 22.0857 247.41 21.9292C247.642 21.7714 247.904 21.6517 248.194 21.5711C248.408 21.5147 248.732 21.4606 249.164 21.4076C250.044 21.3028 250.693 21.1773 251.109 21.0323C251.114 20.8826 251.115 20.7882 251.115 20.7479C251.115 20.3035 251.012 19.9903 250.806 19.8096C250.527 19.5632 250.114 19.44 249.564 19.44C249.051 19.44 248.672 19.5298 248.428 19.7094C248.184 19.889 248.003 20.2068 247.885 20.6627L246.819 20.5176C246.915 20.0617 247.076 19.6933 247.298 19.4124C247.52 19.1326 247.841 18.9161 248.261 18.7642C248.682 18.6133 249.168 18.5374 249.722 18.5374C250.27 18.5374 250.717 18.6018 251.061 18.7319C251.404 18.8609 251.656 19.0232 251.817 19.2189C251.98 19.4147 252.093 19.6622 252.157 19.9604C252.193 20.1458 252.211 20.4819 252.211 20.9655V22.4196C252.211 23.4328 252.235 24.0729 252.282 24.3412C252.328 24.6106 252.42 24.8673 252.557 25.1137H251.418C251.305 24.8881 251.232 24.6232 251.2 24.3205ZM251.109 21.8866C250.713 22.0477 250.119 22.1847 249.328 22.2976C248.88 22.362 248.562 22.4357 248.376 22.5163C248.191 22.5969 248.047 22.7144 247.947 22.8698C247.845 23.0252 247.794 23.1979 247.794 23.3879C247.794 23.6792 247.905 23.9209 248.125 24.1144C248.345 24.3078 248.667 24.4056 249.092 24.4056C249.511 24.4056 249.885 24.3135 250.213 24.1293C250.54 23.9463 250.779 23.6953 250.933 23.3764C251.05 23.13 251.109 22.7662 251.109 22.2861V21.8866Z" fill="white"/>
<path fill-rule="evenodd" clip-rule="evenodd" d="M253.879 16.2373H254.97V25.114H253.879V16.2373Z" fill="white"/>
<path fill-rule="evenodd" clip-rule="evenodd" d="M257.666 25.114H256.653V16.2373H257.744V19.4034C258.205 18.8266 258.793 18.5376 259.508 18.5376C259.903 18.5376 260.278 18.6171 260.631 18.7771C260.985 18.936 261.277 19.1605 261.505 19.4495C261.733 19.7373 261.911 20.0862 262.04 20.4937C262.169 20.9013 262.234 21.3377 262.234 21.8017C262.234 22.9035 261.962 23.7554 261.416 24.3576C260.871 24.9586 260.217 25.2591 259.453 25.2591C258.694 25.2591 258.098 24.9425 257.666 24.3081V25.114ZM257.653 21.85C257.653 22.6214 257.758 23.1786 257.969 23.5217C258.312 24.0824 258.777 24.3633 259.362 24.3633C259.839 24.3633 260.251 24.1561 260.598 23.7428C260.946 23.3283 261.12 22.7123 261.12 21.8926C261.12 21.0533 260.953 20.4327 260.62 20.0332C260.286 19.6337 259.884 19.4345 259.41 19.4345C258.934 19.4345 258.522 19.6406 258.175 20.0551C257.827 20.4684 257.653 21.0671 257.653 21.85Z" fill="white"/>
<path fill-rule="evenodd" clip-rule="evenodd" d="M263.155 21.8981C263.155 20.7076 263.486 19.8257 264.148 19.2523C264.702 18.7757 265.376 18.5374 266.173 18.5374C267.057 18.5374 267.781 18.8275 268.342 19.4066C268.903 19.9857 269.184 20.7859 269.184 21.8071C269.184 22.6349 269.06 23.2866 268.812 23.7609C268.563 24.2341 268.201 24.6025 267.727 24.865C267.252 25.1275 266.734 25.2588 266.173 25.2588C265.272 25.2588 264.544 24.9709 263.988 24.393C263.433 23.8162 263.155 22.9838 263.155 21.8981ZM264.276 21.8981C264.276 22.7224 264.456 23.3384 264.815 23.7482C265.175 24.1581 265.628 24.3631 266.173 24.3631C266.714 24.3631 267.164 24.157 267.524 23.7448C267.883 23.3338 268.063 22.7051 268.063 21.8624C268.063 21.0668 267.882 20.4647 267.52 20.0548C267.159 19.6449 266.709 19.44 266.173 19.44C265.628 19.44 265.175 19.6438 264.815 20.0513C264.456 20.4589 264.276 21.0749 264.276 21.8981Z" fill="white"/>
<path fill-rule="evenodd" clip-rule="evenodd" d="M272.843 24.1386L273 25.1011C272.693 25.1668 272.419 25.199 272.176 25.199C271.781 25.199 271.473 25.1357 271.255 25.0113C271.036 24.8858 270.883 24.7212 270.795 24.5174C270.706 24.3136 270.661 23.8842 270.661 23.2302V19.531H269.861V18.6825H270.661V17.0902L271.746 16.4363V18.6825H272.843V19.531H271.746V23.2913C271.746 23.6021 271.765 23.8013 271.804 23.8911C271.842 23.9798 271.904 24.05 271.992 24.1029C272.078 24.1548 272.202 24.1812 272.364 24.1812C272.485 24.1812 272.645 24.1674 272.843 24.1386Z" fill="white"/>
</g>
<defs>
<clipPath id="clip0_3357_31121">
<rect width="273" height="58" fill="white"/>
</clipPath>
</defs>
</svg>
