<?xml version="1.0" encoding="UTF-8"?>
<svg id="Traced" xmlns="http://www.w3.org/2000/svg" viewBox="0 0 753.79 236.87">
  <defs>
    <style>
      .cls-1 {
        fill: #fff;
      }

      .cls-1, .cls-2 {
        stroke-width: 0px;
      }

      .cls-2 {
        fill: #005eb8;
      }
    </style>
  </defs>
  <g>
    <rect class="cls-2" x="45.08" y="45.53" width="203.28" height="78.69"/>
    <path class="cls-1" d="M245.9,52.71l-4.44,13.63c-3.55-1.66-8.38-3.13-15.17-3.13-7.29,0-13.21,1.07-13.21,6.57,0,9.7,26.71,6.08,26.71,26.87,0,18.92-17.65,23.83-33.61,23.83-7.09,0-15.28-1.68-21.28-3.54l4.34-13.92c3.64,2.36,10.94,3.93,16.95,3.93s14.68-1.08,14.68-8.14c0-10.99-26.71-6.87-26.71-26.17,0-17.66,15.58-22.95,30.66-22.95,8.48,0,16.46.89,21.09,3.04M192.98,50.84l-14.29,68.45h-18.42l6.11-29.32h-21.79l-6.11,29.32h-18.42l14.29-68.45h18.42l-5.41,26.19h21.78l5.42-26.19h18.42ZM127.54,50.84l-14.58,68.45h-22.88l-14.38-47.36h-.19l-9.57,47.36h-17.35l14.69-68.45h22.96l14.1,47.46h.19l9.66-47.46h17.35ZM253.81,42.63H42.63v85.04h211.18V42.63Z"/>
  </g>
  <g>
    <path class="cls-1" d="M43.4,192.42l.73-7.18c3.17,1.72,6.19,2.58,9.07,2.58,1.86,0,3.49-.46,4.89-1.38s2.1-2.27,2.1-4.04-.59-3.08-1.78-3.84c-1.18-.76-3.33-1.81-6.44-3.15-3.11-1.34-5.44-2.83-7-4.48-1.56-1.65-2.33-4.01-2.33-7.08,0-2.56.65-4.69,1.95-6.4,1.3-1.71,3.02-2.97,5.16-3.78,2.14-.81,4.47-1.22,7-1.22,3.38,0,6.57.53,9.56,1.58l-.67,6.59c-2.91-1.33-5.67-1.99-8.29-1.99-1.72,0-3.22.39-4.5,1.16-1.28.77-1.92,1.99-1.92,3.65s.48,2.67,1.44,3.25c.96.59,3.13,1.63,6.52,3.12,3.39,1.49,5.88,3.09,7.49,4.78,1.6,1.69,2.4,4.06,2.4,7.1,0,2.17-.4,4.04-1.2,5.62s-1.91,2.89-3.33,3.91c-1.42,1.03-3.04,1.78-4.87,2.27-1.83.49-3.77.73-5.82.73-3.25,0-6.63-.61-10.15-1.82Z"/>
    <path class="cls-1" d="M102.84,193.33h-7.68v-14.41c0-2.85-.31-5.13-.92-6.84-.62-1.71-2.07-2.56-4.35-2.56-2.46,0-4.19,1.01-5.19,3.03s-1.49,4.39-1.49,7.1v13.68h-7.68v-43.21h7.68v17.72c1.11-1.6,2.45-2.79,4.01-3.57,1.56-.78,3.35-1.17,5.36-1.17s3.81.34,5.17,1.01c1.36.67,2.4,1.59,3.13,2.74.73,1.15,1.24,2.5,1.52,4.03.28,1.53.42,3.34.42,5.41v17.05Z"/>
    <path class="cls-1" d="M135.18,193.33h-6.86l-.12-4.45c-.92,1.58-2.2,2.8-3.85,3.65-1.65.85-3.44,1.27-5.38,1.27s-3.74-.34-5.29-1.03-2.78-1.72-3.68-3.12c-.9-1.4-1.35-3.09-1.35-5.08,0-3.71,1.45-6.25,4.37-7.62,2.91-1.37,6.46-2.05,10.63-2.05.6,0,1,0,1.17.01.18.01.57.03,1.17.06.6.03,1.22.06,1.85.1,0-2.21-.54-3.85-1.61-4.92-1.07-1.07-2.73-1.61-4.98-1.61-3.4,0-6.46,1.08-9.2,3.25l-.23-6.68c3.18-1.35,6.63-2.02,10.34-2.02,1.39,0,2.76.14,4.13.41,1.37.27,2.63.73,3.79,1.36,1.16.63,2.13,1.48,2.9,2.53.77,1.05,1.28,2.26,1.52,3.62.24,1.36.37,2.97.37,4.85s0,3.88.01,5.83c0,1.95.03,3.74.06,5.35s.1,3.71.22,6.28ZM127.98,179.82c-.2-.04-.5-.06-.91-.06h-.94c-1.68,0-3.22.09-4.61.28-1.4.19-2.62.65-3.66,1.41-1.04.75-1.57,1.85-1.57,3.3,0,1.17.46,2.1,1.39,2.8.93.69,2.01,1.04,3.24,1.04,2.32,0,4.08-.86,5.27-2.58,1.19-1.72,1.79-3.78,1.79-6.18Z"/>
    <path class="cls-1" d="M150.59,193.33h-7.68v-20.77c-.1-4.94-.18-7.92-.23-8.94h6.97l.18,7.5c.66-2.34,1.67-4.22,3.03-5.62,1.36-1.41,3.13-2.11,5.32-2.11.66,0,1.42.1,2.26.29v7.21c-1.02-.27-1.91-.41-2.7-.41-1.82,0-3.26.48-4.34,1.44-1.07.96-1.81,2.18-2.21,3.68-.4,1.49-.6,3.13-.6,4.91v12.83Z"/>
    <path class="cls-1" d="M189.06,185.42l.12,6.65c-3.15,1.37-6.54,2.05-10.2,2.05-2.44,0-4.61-.35-6.52-1.04-1.9-.69-3.53-1.72-4.88-3.08s-2.37-3-3.08-4.92-1.05-4.12-1.05-6.58c0-2.27.33-4.35.98-6.25.65-1.9,1.6-3.55,2.83-4.95,1.23-1.4,2.75-2.49,4.56-3.27,1.81-.78,3.85-1.17,6.14-1.17s4.19.4,5.89,1.2c1.7.8,3.08,1.9,4.15,3.31,1.06,1.41,1.86,3.03,2.39,4.88s.79,3.87.79,6.08c0,.39-.01.68-.03.88-.02.2-.04.44-.06.73-.02.29-.05.63-.09,1.03h-19.98c.19,2.34,1.11,4.17,2.74,5.48,1.63,1.31,3.66,1.96,6.08,1.96,2.73,0,5.81-1,9.23-2.99ZM183.84,175.63c-.04-1.33-.28-2.55-.72-3.66s-1.11-2.01-2.02-2.7c-.91-.68-2.04-1.03-3.38-1.03s-2.57.34-3.56,1.01c-.99.67-1.75,1.57-2.29,2.68-.54,1.11-.86,2.34-.98,3.69h12.95Z"/>
    <path class="cls-1" d="M224.71,193.33h-7.27l-.12-5.07c-.88,1.79-2.13,3.15-3.76,4.11-1.63.95-3.47,1.43-5.52,1.43s-4.03-.42-5.64-1.27-2.92-2-3.91-3.44-1.73-3.09-2.21-4.92c-.48-1.84-.72-3.76-.72-5.77,0-2.66.44-5.15,1.32-7.49.88-2.33,2.24-4.22,4.09-5.65s4.15-2.15,6.9-2.15c2.07,0,3.88.46,5.42,1.38,1.54.92,2.81,2.28,3.81,4.07-.2-1.45-.29-3.2-.29-5.27v-13.15h7.68v34.57c.04,1.91.07,3.59.1,5.04s.07,2.65.13,3.6ZM216.92,178.67c0-1.54-.24-3-.73-4.37-.49-1.37-1.26-2.52-2.3-3.42-1.04-.91-2.34-1.36-3.88-1.36-2.3,0-3.96.88-4.97,2.65-1.01,1.76-1.51,3.9-1.51,6.39,0,2.34.56,4.46,1.67,6.35,1.11,1.89,2.75,2.84,4.92,2.84,1.46,0,2.72-.44,3.76-1.33,1.04-.89,1.81-2.02,2.3-3.39.49-1.38.73-2.82.73-4.34Z"/>
    <path class="cls-1" d="M250.14,193.33v-40.02h12.77c3.96,0,7.29.74,9.99,2.21,2.7,1.48,4.04,4.1,4.04,7.87,0,2.58-.66,4.6-1.98,6.05-1.32,1.46-3.28,2.46-5.87,3,1.29.14,2.51.46,3.68.98,1.16.52,2.16,1.2,3,2.05.84.85,1.48,1.84,1.93,2.96.45,1.12.67,2.41.67,3.85,0,1.23-.2,2.42-.59,3.57-.39,1.15-.98,2.19-1.76,3.12-.78.93-1.72,1.71-2.81,2.36-1.5.9-3.07,1.46-4.7,1.67-1.63.21-3.72.32-6.25.32h-12.13ZM258.23,169.51h3.84c1.97,0,3.61-.37,4.91-1.11,1.3-.74,1.95-2.01,1.95-3.81s-.61-3.17-1.82-3.94c-1.21-.77-2.8-1.16-4.78-1.16h-4.1v10.02ZM258.23,187.21h3.9c2.3,0,4.25-.44,5.84-1.33,1.59-.89,2.39-2.39,2.39-4.5s-.73-3.54-2.2-4.47c-1.46-.93-3.29-1.39-5.48-1.39h-4.45v11.69Z"/>
    <path class="cls-1" d="M311.99,163.62v18.13c.04.84.08,2.14.13,3.9.05,1.76.09,3.16.13,4.22.04,1.05.1,2.21.18,3.46h-7.27l-.23-4.57c-.68,1.07-1.51,1.98-2.48,2.72s-2.06,1.31-3.27,1.71c-1.21.4-2.42.6-3.63.6-2.75,0-4.9-.57-6.45-1.7-1.54-1.13-2.6-2.69-3.18-4.66-.58-1.97-.86-4.33-.86-7.06v-16.76h7.68v14.3c0,1.86.09,3.42.28,4.7.19,1.28.68,2.39,1.48,3.34.8.95,2.01,1.42,3.63,1.42,2.32,0,3.94-.98,4.83-2.94.9-1.96,1.35-4.26,1.35-6.9v-13.92h7.68Z"/>
    <path class="cls-1" d="M318.84,192.53l.35-6.5c2.73,1.41,5.25,2.11,7.56,2.11,1.27,0,2.47-.27,3.6-.82,1.13-.55,1.7-1.4,1.7-2.55,0-1-.81-1.84-2.43-2.55-1.62-.7-3.25-1.39-4.88-2.08-1.63-.68-3.04-1.64-4.23-2.87-1.19-1.23-1.79-2.95-1.79-5.15s.62-3.83,1.86-5.18c1.24-1.35,2.82-2.33,4.73-2.94,1.91-.61,3.9-.92,5.95-.92,2.17,0,4.61.38,7.32,1.15l-.56,5.77c-2.38-.76-4.48-1.14-6.3-1.14-1.33,0-2.56.22-3.69.67-1.13.45-1.7,1.23-1.7,2.34,0,.96.78,1.75,2.33,2.39,1.55.63,3.18,1.27,4.89,1.9,1.71.63,3.17,1.58,4.39,2.84,1.22,1.26,1.83,3.06,1.83,5.4,0,2.13-.59,3.9-1.77,5.33-1.18,1.42-2.71,2.47-4.58,3.13s-3.86,1-5.95,1c-2.38,0-5.26-.44-8.64-1.33Z"/>
    <path class="cls-1" d="M353.77,158.23h-7.91v-7.27h7.91v7.27ZM353.65,193.33h-7.68v-29.71h7.68v29.71Z"/>
    <path class="cls-1" d="M368.7,163.62l.18,4.75c2.38-3.48,5.72-5.21,10.02-5.21,3.99,0,6.67,1.18,8.06,3.53,1.39,2.35,2.08,5.66,2.08,9.92v16.73h-7.68v-14.94c0-2.64-.34-4.78-1.01-6.42s-2.13-2.46-4.38-2.46c-2.4,0-4.09.96-5.07,2.89-.98,1.92-1.46,4.2-1.46,6.84v14.09h-7.73v-18.9c0-4.2-.1-7.8-.29-10.81h7.29Z"/>
    <path class="cls-1" d="M420.42,185.42l.12,6.65c-3.14,1.37-6.54,2.05-10.2,2.05-2.44,0-4.61-.35-6.52-1.04-1.9-.69-3.53-1.72-4.88-3.08s-2.37-3-3.08-4.92-1.05-4.12-1.05-6.58c0-2.27.33-4.35.98-6.25s1.6-3.55,2.83-4.95c1.23-1.4,2.75-2.49,4.56-3.27,1.81-.78,3.85-1.17,6.14-1.17s4.19.4,5.89,1.2c1.7.8,3.08,1.9,4.15,3.31s1.86,3.03,2.39,4.88.79,3.87.79,6.08c0,.39,0,.68-.03.88-.02.2-.04.44-.06.73s-.05.63-.09,1.03h-19.98c.2,2.34,1.11,4.17,2.74,5.48s3.66,1.96,6.08,1.96c2.73,0,5.81-1,9.23-2.99ZM415.2,175.63c-.04-1.33-.28-2.55-.72-3.66s-1.11-2.01-2.02-2.7c-.91-.68-2.04-1.03-3.38-1.03s-2.57.34-3.56,1.01-1.75,1.57-2.29,2.68-.86,2.34-.98,3.69h12.95Z"/>
    <path class="cls-1" d="M427.33,192.53l.35-6.5c2.73,1.41,5.25,2.11,7.56,2.11,1.27,0,2.47-.27,3.6-.82,1.13-.55,1.7-1.4,1.7-2.55,0-1-.81-1.84-2.43-2.55s-3.25-1.39-4.88-2.08c-1.63-.68-3.04-1.64-4.23-2.87s-1.79-2.95-1.79-5.15.62-3.83,1.86-5.18,2.82-2.33,4.73-2.94,3.9-.92,5.95-.92c2.17,0,4.61.38,7.32,1.15l-.56,5.77c-2.38-.76-4.48-1.14-6.3-1.14-1.33,0-2.56.22-3.69.67s-1.7,1.23-1.7,2.34c0,.96.78,1.75,2.33,2.39,1.55.63,3.18,1.27,4.89,1.9,1.71.63,3.17,1.58,4.39,2.84,1.22,1.26,1.83,3.06,1.83,5.4,0,2.13-.59,3.9-1.77,5.33s-2.71,2.47-4.58,3.13-3.86,1-5.95,1c-2.38,0-5.26-.44-8.64-1.33Z"/>
    <path class="cls-1" d="M453.14,192.53l.35-6.5c2.73,1.41,5.25,2.11,7.56,2.11,1.27,0,2.47-.27,3.6-.82,1.13-.55,1.7-1.4,1.7-2.55,0-1-.81-1.84-2.43-2.55s-3.25-1.39-4.88-2.08c-1.63-.68-3.04-1.64-4.23-2.87s-1.79-2.95-1.79-5.15.62-3.83,1.86-5.18,2.82-2.33,4.73-2.94,3.9-.92,5.95-.92c2.17,0,4.61.38,7.32,1.15l-.56,5.77c-2.38-.76-4.48-1.14-6.3-1.14-1.33,0-2.56.22-3.69.67s-1.7,1.23-1.7,2.34c0,.96.78,1.75,2.33,2.39,1.55.63,3.18,1.27,4.89,1.9,1.71.63,3.17,1.58,4.39,2.84,1.22,1.26,1.83,3.06,1.83,5.4,0,2.13-.59,3.9-1.77,5.33s-2.71,2.47-4.58,3.13-3.86,1-5.95,1c-2.38,0-5.26-.44-8.64-1.33Z"/>
    <path class="cls-1" d="M497.21,192.42l.74-7.18c3.17,1.72,6.19,2.58,9.07,2.58,1.86,0,3.49-.46,4.89-1.38,1.4-.92,2.1-2.27,2.1-4.04s-.59-3.08-1.78-3.84-3.33-1.81-6.44-3.15c-3.11-1.34-5.44-2.83-7-4.48-1.56-1.65-2.33-4.01-2.33-7.08,0-2.56.65-4.69,1.95-6.4,1.3-1.71,3.02-2.97,5.16-3.78,2.14-.81,4.47-1.22,7-1.22,3.38,0,6.57.53,9.56,1.58l-.67,6.59c-2.91-1.33-5.67-1.99-8.29-1.99-1.72,0-3.22.39-4.5,1.16-1.28.77-1.92,1.99-1.92,3.65s.48,2.67,1.44,3.25,3.13,1.63,6.52,3.12,5.88,3.09,7.49,4.78c1.6,1.69,2.4,4.06,2.4,7.1,0,2.17-.4,4.04-1.2,5.62-.8,1.58-1.91,2.89-3.33,3.91s-3.04,1.78-4.87,2.27c-1.83.49-3.77.73-5.82.73-3.25,0-6.63-.61-10.15-1.82Z"/>
    <path class="cls-1" d="M553.22,185.42l.12,6.65c-3.14,1.37-6.54,2.05-10.2,2.05-2.44,0-4.61-.35-6.52-1.04-1.9-.69-3.53-1.72-4.88-3.08s-2.37-3-3.08-4.92-1.05-4.12-1.05-6.58c0-2.27.33-4.35.98-6.25s1.6-3.55,2.83-4.95c1.23-1.4,2.75-2.49,4.56-3.27,1.81-.78,3.85-1.17,6.14-1.17s4.19.4,5.89,1.2c1.7.8,3.08,1.9,4.15,3.31s1.86,3.03,2.39,4.88.79,3.87.79,6.08c0,.39,0,.68-.03.88-.02.2-.04.44-.06.73s-.05.63-.09,1.03h-19.98c.2,2.34,1.11,4.17,2.74,5.48s3.66,1.96,6.08,1.96c2.73,0,5.81-1,9.23-2.99ZM548,175.63c-.04-1.33-.28-2.55-.72-3.66s-1.11-2.01-2.02-2.7c-.91-.68-2.04-1.03-3.38-1.03s-2.57.34-3.56,1.01-1.75,1.57-2.29,2.68-.86,2.34-.98,3.69h12.95Z"/>
    <path class="cls-1" d="M569.36,193.33h-7.68v-20.77c-.1-4.94-.18-7.92-.23-8.94h6.97l.18,7.5c.66-2.34,1.67-4.22,3.03-5.62s3.13-2.11,5.32-2.11c.66,0,1.42.1,2.26.29v7.21c-1.02-.27-1.91-.41-2.7-.41-1.82,0-3.26.48-4.34,1.44-1.07.96-1.81,2.18-2.21,3.68s-.6,3.13-.6,4.91v12.83Z"/>
    <path class="cls-1" d="M600.33,193.33h-8.58l-11.1-29.71h8.41l4.98,14.3c1.31,3.65,2.11,6.59,2.4,8.82.47-2.36,1.09-4.67,1.88-6.91l5.33-16.2h7.73l-11.04,29.71Z"/>
    <path class="cls-1" d="M623.59,158.23h-7.91v-7.27h7.91v7.27ZM623.47,193.33h-7.68v-29.71h7.68v29.71Z"/>
    <path class="cls-1" d="M651.36,185.95l.44,6.47c-2.58.76-4.88,1.14-6.91,1.14-2.27,0-4.35-.35-6.24-1.04s-3.52-1.7-4.88-3.03-2.39-2.94-3.11-4.85-1.07-4.01-1.07-6.31c0-2.93.63-5.53,1.89-7.79,1.26-2.27,3.04-4.02,5.33-5.27,2.29-1.25,4.89-1.88,7.78-1.88,2.15,0,4.33.32,6.53.97l-.59,6.18c-1.76-.68-3.34-1.03-4.75-1.03-1.6,0-3.04.4-4.31,1.19s-2.24,1.85-2.92,3.16-1.01,2.79-1.01,4.41c0,2.68.78,4.82,2.34,6.45s3.66,2.43,6.3,2.43c1.68,0,3.4-.4,5.16-1.2Z"/>
    <path class="cls-1" d="M681.01,185.42l.12,6.65c-3.14,1.37-6.54,2.05-10.2,2.05-2.44,0-4.61-.35-6.52-1.04-1.9-.69-3.53-1.72-4.88-3.08s-2.37-3-3.08-4.92-1.05-4.12-1.05-6.58c0-2.27.33-4.35.98-6.25s1.6-3.55,2.83-4.95c1.23-1.4,2.75-2.49,4.56-3.27,1.81-.78,3.85-1.17,6.14-1.17s4.19.4,5.89,1.2c1.7.8,3.08,1.9,4.15,3.31s1.86,3.03,2.39,4.88.79,3.87.79,6.08c0,.39,0,.68-.03.88-.02.2-.04.44-.06.73s-.05.63-.09,1.03h-19.98c.2,2.34,1.11,4.17,2.74,5.48s3.66,1.96,6.08,1.96c2.73,0,5.81-1,9.23-2.99ZM675.8,175.63c-.04-1.33-.28-2.55-.72-3.66s-1.11-2.01-2.02-2.7c-.91-.68-2.04-1.03-3.38-1.03s-2.57.34-3.56,1.01-1.75,1.57-2.29,2.68-.86,2.34-.98,3.69h12.95Z"/>
    <path class="cls-1" d="M687.93,192.53l.35-6.5c2.73,1.41,5.25,2.11,7.56,2.11,1.27,0,2.47-.27,3.6-.82,1.13-.55,1.7-1.4,1.7-2.55,0-1-.81-1.84-2.43-2.55s-3.25-1.39-4.88-2.08c-1.63-.68-3.04-1.64-4.23-2.87s-1.79-2.95-1.79-5.15.62-3.83,1.86-5.18,2.82-2.33,4.73-2.94,3.9-.92,5.95-.92c2.17,0,4.61.38,7.32,1.15l-.56,5.77c-2.38-.76-4.48-1.14-6.3-1.14-1.33,0-2.56.22-3.69.67s-1.7,1.23-1.7,2.34c0,.96.78,1.75,2.33,2.39,1.55.63,3.18,1.27,4.89,1.9,1.71.63,3.17,1.58,4.39,2.84,1.22,1.26,1.83,3.06,1.83,5.4,0,2.13-.59,3.9-1.77,5.33s-2.71,2.47-4.58,3.13-3.86,1-5.95,1c-2.38,0-5.26-.44-8.64-1.33Z"/>
  </g>
</svg>