<svg id="NIBSC_Master" data-name="NIBSC Master" xmlns="http://www.w3.org/2000/svg" viewBox="0 0 471.35 132.8"><defs><style>.cls-1{fill:#fff;}</style></defs><path class="cls-1" d="M74.3,7.41A7.42,7.42,0,1,1,66.89,0,7.42,7.42,0,0,1,74.3,7.41Z"/><path class="cls-1" d="M101.44,13.86A7.42,7.42,0,1,1,94,6.44,7.42,7.42,0,0,1,101.44,13.86Z"/><path class="cls-1" d="M79.22,45a7.42,7.42,0,1,1-7.42-7.42A7.42,7.42,0,0,1,79.22,45Z"/><path class="cls-1" d="M70.41,62.75A7.41,7.41,0,1,1,63,55.34,7.42,7.42,0,0,1,70.41,62.75Z"/><path class="cls-1" d="M55.67,75.86a7.41,7.41,0,1,1-7.41-7.41A7.42,7.42,0,0,1,55.67,75.86Z"/><path class="cls-1" d="M37.68,84.18a7.41,7.41,0,1,1-7.41-7.41A7.42,7.42,0,0,1,37.68,84.18Z"/><path class="cls-1" d="M55.67,107.59a7.42,7.42,0,1,1-7.41-7.42A7.41,7.41,0,0,1,55.67,107.59Z"/><path class="cls-1" d="M90.75,85.2a7.42,7.42,0,1,1-7.42-7.41A7.42,7.42,0,0,1,90.75,85.2Z"/><path class="cls-1" d="M101.22,66.89a7.42,7.42,0,1,1-7.41-7.41A7.42,7.42,0,0,1,101.22,66.89Z"/><path class="cls-1" d="M108.59,47.08a7.42,7.42,0,1,1-7.42-7.41A7.42,7.42,0,0,1,108.59,47.08Z"/><path class="cls-1" d="M133.65,59.83a7.42,7.42,0,1,1-7.42-7.42A7.42,7.42,0,0,1,133.65,59.83Z"/><path class="cls-1" d="M130.49,87.56a7.42,7.42,0,1,1-7.41-7.41A7.42,7.42,0,0,1,130.49,87.56Z"/><path class="cls-1" d="M114.3,111.54a7.41,7.41,0,1,1-7.41-7.41A7.41,7.41,0,0,1,114.3,111.54Z"/><path class="cls-1" d="M88.77,125.14a7.42,7.42,0,1,1-7.41-7.41A7.42,7.42,0,0,1,88.77,125.14Z"/><path class="cls-1" d="M60.85,125.39A7.42,7.42,0,1,1,53.44,118,7.41,7.41,0,0,1,60.85,125.39Z"/><path class="cls-1" d="M35.08,112.24a7.42,7.42,0,1,1-7.42-7.41A7.42,7.42,0,0,1,35.08,112.24Z"/><path class="cls-1" d="M14.83,60.86a7.42,7.42,0,1,1-7.42-7.41A7.42,7.42,0,0,1,14.83,60.86Z"/><path class="cls-1" d="M24.72,33.67a7.42,7.42,0,1,1-7.42-7.42A7.42,7.42,0,0,1,24.72,33.67Z"/><path class="cls-1" d="M46.23,14.31A7.42,7.42,0,1,1,38.81,6.9,7.41,7.41,0,0,1,46.23,14.31Z"/><path class="cls-1" d="M11.12,90.05l-.15-3C22.61,86.46,48.26,80.4,62,61.67c4-5.42,6.59-12.36,9.11-19.07,4.66-12.44,9.48-25.31,23.3-29.44L95.29,16C82.9,19.74,78.54,31.36,73.93,43.65c-2.58,6.91-5.26,14-9.49,19.8C50,83.08,23.25,89.43,11.12,90.05Z"/><path class="cls-1" d="M25.52,114.51l-.06-3c7.23-.14,40.05-5.43,56.68-27.22,6.6-8.64,9.68-17.5,12.4-25.32,4-11.46,7.43-21.35,20.15-25.56l1,2.84C104.32,40,101.26,48.8,97.38,60c-2.8,8-6,17.14-12.85,26.16C68.73,106.8,37.39,114.27,25.52,114.51Z"/><path class="cls-1" d="M471.35,95.43l-10.89-7.27c-4.51,7.14-10.15,10.9-19.29,10.9-15.27,0-23.54-12.4-23.54-32.06s8.27-32.06,23.54-32.06c9,0,13.65,3.38,18.16,10.52L471,38.2c-6-10.65-15.53-16.41-29.81-16.41-22.66,0-37.06,18.66-37.06,45.21s14.4,45.2,37.06,45.2c13.28,0,23.92-6,30.18-16.77m-72.14-9.77c0-15.66-10.77-21.16-28-26.42C356,54.73,352,51.72,352,45.59c0-5.89,4.38-10.9,14.65-10.9,8.64,0,14.9,2.76,20.41,8.39l9.27-9.39c-7.76-7.52-16.78-11.9-28.68-11.9-16.15,0-28.93,9.27-28.93,24.42,0,15.66,8.9,20.29,27.43,25.8,14.65,4.38,19.79,7.76,19.79,14.52,0,8.52-5.89,12.78-18.16,12.78-8.27,0-16.91-4-22.79-10.4l-9.4,9.14a40.56,40.56,0,0,0,31.19,14.15c22.41,0,32.43-10.76,32.43-26.54m-80.27-1.38c0,8.64-4.26,14.53-15.9,14.53H279.62V69.75h23.79c9.89,0,15.53,5.51,15.53,14.53m-3.63-37.57c0,5.76-3.51,11.15-12.15,11.15H279.62V35.19h23.54c8.77,0,12.15,5,12.15,11.52M332.09,83.9c0-12.14-7.89-18.53-14.78-20.41,6.39-3.13,11.15-8.64,11.15-17.53,0-14.78-9.89-22.79-25.17-22.79H267.22v87.66H302c19.15,0,30-9.14,30-26.93M226,110.83V23.17H213.25V68.38c0,4.88.13,17.4.13,20.66-1.26-2.26-5-8.77-7.27-12.4L172.8,23.17H159.4v87.66h12.78V65.37c0-4.88-.13-17-.13-20.28,1.38,2.25,4.38,7.51,6.51,10.76l34.94,55Z"/><rect class="cls-1" x="239.84" y="23.33" width="13.15" height="87.66"/><path class="cls-1" d="M123.28,32.82a7.42,7.42,0,1,1-7.41-7.41A7.41,7.41,0,0,1,123.28,32.82Z"/><path class="cls-1" d="M86.76,26.64a7.41,7.41,0,1,1-7.41-7.41A7.41,7.41,0,0,1,86.76,26.64Z"/><path class="cls-1" d="M18.46,88.55a7.42,7.42,0,1,1-7.41-7.41A7.41,7.41,0,0,1,18.46,88.55Z"/><path class="cls-1" d="M74.94,99.16a7.41,7.41,0,1,1-7.41-7.41A7.42,7.42,0,0,1,74.94,99.16Z"/></svg>