<?xml version="1.0" encoding="utf-8"?>
<!-- Generator: Adobe Illustrator 27.2.0, SVG Export Plug-In . SVG Version: 6.00 Build 0)  -->
<svg version="1.1" id="Layer_1" xmlns="http://www.w3.org/2000/svg" xmlns:xlink="http://www.w3.org/1999/xlink" x="0px" y="0px" width="760" height="255.5"
	 viewBox="0 0 760 255.5" style="enable-background:new 0 0 760 255.5;" xml:space="preserve">
<style type="text/css">
	.st0{fill:#FFFFFF;}
</style>
<g>
	<g>
		<g>
			<path class="st0" d="M284.94,36.8v44h-9.86V18.32h7.74l35.73,45.06V18.41h9.95v62.4h-8.18L284.94,36.8z"/>
			<path class="st0" d="M368.55,81.25c-4.46,0-8.52-0.89-12.19-2.68c-3.67-1.79-6.82-4.17-9.46-7.13
				c-2.64-2.96-4.68-6.35-6.12-10.16c-1.44-3.81-2.16-7.71-2.16-11.71c0-4.17,0.76-8.15,2.29-11.97c1.52-3.81,3.62-7.19,6.29-10.12
				c2.67-2.93,5.84-5.27,9.51-7c3.67-1.73,7.67-2.6,12.01-2.6c4.46,0,8.52,0.92,12.19,2.77c3.67,1.85,6.81,4.27,9.42,7.26
				c2.61,2.99,4.63,6.38,6.07,10.16c1.44,3.78,2.16,7.64,2.16,11.57c0,4.17-0.75,8.16-2.24,11.97c-1.5,3.81-3.59,7.17-6.29,10.08
				c-2.7,2.9-5.88,5.22-9.55,6.95C376.81,80.38,372.83,81.25,368.55,81.25z M348.66,49.56c0,2.93,0.47,5.78,1.41,8.54
				c0.94,2.76,2.27,5.19,4,7.3c1.73,2.11,3.83,3.8,6.29,5.06c2.46,1.26,5.22,1.89,8.27,1.89c3.17,0,5.97-0.66,8.4-1.98
				c2.43-1.32,4.5-3.07,6.2-5.24c1.7-2.17,2.99-4.61,3.87-7.3c0.88-2.7,1.32-5.46,1.32-8.27c0-2.99-0.47-5.85-1.41-8.58
				c-0.94-2.73-2.27-5.13-4-7.22c-1.73-2.08-3.81-3.75-6.25-5.02c-2.44-1.26-5.15-1.89-8.14-1.89c-3.17,0-5.98,0.66-8.45,1.98
				c-2.46,1.32-4.55,3.04-6.25,5.15c-1.7,2.11-3.01,4.53-3.92,7.26C349.11,43.98,348.66,46.75,348.66,49.56z"/>
			<path class="st0" d="M408.77,80.81V18.32h27.19c2.82,0,5.41,0.59,7.79,1.76c2.38,1.17,4.41,2.71,6.12,4.62
				c1.7,1.91,3.04,4.08,4,6.51c0.97,2.44,1.45,4.91,1.45,7.44c0,2.11-0.29,4.14-0.88,6.07c-0.59,1.94-1.41,3.73-2.46,5.37
				c-1.06,1.64-2.35,3.07-3.87,4.27c-1.53,1.2-3.2,2.1-5.02,2.68l14.7,23.76h-11.18l-13.55-21.74h-14.43v21.74H408.77z
				 M418.63,50.36h17.25c1.41,0,2.68-0.31,3.83-0.92c1.14-0.62,2.13-1.47,2.95-2.55c0.82-1.08,1.47-2.33,1.94-3.74
				c0.47-1.41,0.7-2.9,0.7-4.49c0-1.58-0.28-3.08-0.84-4.49c-0.56-1.41-1.29-2.64-2.2-3.7c-0.91-1.06-1.97-1.89-3.17-2.51
				c-1.2-0.62-2.45-0.92-3.74-0.92h-16.72V50.36z"/>
			<path class="st0" d="M511.83,27.03h-20.77v53.77h-9.95V27.03h-20.86v-8.71h51.57V27.03z"/>
			<path class="st0" d="M571.5,18.32v62.49h-9.95V53.26h-31.51v27.55h-9.86V18.32h9.86v26.14h31.51V18.32H571.5z"/>
		</g>
		<g>
			<path class="st0" d="M284.4,97.1l17.25,31.33l17.43-31.33h10.83l-23.32,40.13v22.35h-9.86v-22.53L273.57,97.1H284.4z"/>
			<path class="st0" d="M359.38,160.03c-4.46,0-8.52-0.89-12.19-2.68c-3.67-1.79-6.82-4.17-9.46-7.13
				c-2.64-2.96-4.68-6.35-6.12-10.16c-1.44-3.81-2.16-7.71-2.16-11.71c0-4.17,0.76-8.15,2.29-11.97c1.52-3.81,3.62-7.19,6.29-10.12
				c2.67-2.93,5.84-5.27,9.51-7c3.67-1.73,7.67-2.6,12.01-2.6c4.46,0,8.52,0.92,12.19,2.77c3.67,1.85,6.81,4.27,9.42,7.26
				c2.61,2.99,4.63,6.38,6.07,10.16c1.44,3.78,2.16,7.64,2.16,11.57c0,4.17-0.75,8.16-2.24,11.97c-1.5,3.81-3.59,7.17-6.29,10.08
				c-2.7,2.9-5.88,5.22-9.55,6.95C367.64,159.16,363.67,160.03,359.38,160.03z M339.49,128.35c0,2.93,0.47,5.78,1.41,8.54
				c0.94,2.76,2.27,5.19,4,7.3c1.73,2.11,3.83,3.8,6.29,5.06c2.46,1.26,5.22,1.89,8.27,1.89c3.17,0,5.97-0.66,8.4-1.98
				c2.43-1.32,4.5-3.07,6.2-5.24c1.7-2.17,2.99-4.61,3.87-7.3c0.88-2.7,1.32-5.46,1.32-8.27c0-2.99-0.47-5.85-1.41-8.58
				c-0.94-2.73-2.27-5.13-4-7.22c-1.73-2.08-3.81-3.75-6.25-5.02c-2.44-1.26-5.15-1.89-8.14-1.89c-3.17,0-5.98,0.66-8.45,1.98
				c-2.46,1.32-4.55,3.04-6.25,5.15c-1.7,2.11-3.01,4.53-3.92,7.26C339.95,122.76,339.49,125.53,339.49,128.35z"/>
			<path class="st0" d="M399.61,159.59V97.1h27.19c2.82,0,5.41,0.59,7.79,1.76c2.38,1.17,4.41,2.71,6.12,4.62
				c1.7,1.91,3.04,4.08,4,6.51c0.97,2.44,1.45,4.91,1.45,7.44c0,2.11-0.29,4.14-0.88,6.07c-0.59,1.94-1.41,3.73-2.46,5.37
				c-1.06,1.64-2.35,3.07-3.87,4.27c-1.53,1.2-3.2,2.1-5.02,2.68l14.7,23.76h-11.18l-13.55-21.74h-14.43v21.74H399.61z
				 M409.46,129.14h17.25c1.41,0,2.68-0.31,3.83-0.92c1.14-0.62,2.13-1.47,2.95-2.55c0.82-1.08,1.47-2.33,1.94-3.74
				c0.47-1.41,0.7-2.9,0.7-4.49s-0.28-3.08-0.84-4.49c-0.56-1.41-1.29-2.64-2.2-3.7c-0.91-1.06-1.97-1.89-3.17-2.51
				c-1.2-0.62-2.45-0.92-3.74-0.92h-16.72V129.14z"/>
			<path class="st0" d="M457.78,159.59v-62.4h9.86v32.12l29.4-32.21h10.91l-24.64,27.63l26.05,34.85h-11l-21.12-28.78l-9.59,9.95
				v18.83H457.78z"/>
			<path class="st0" d="M552.83,111.8c-0.59-0.64-1.44-1.33-2.55-2.07c-1.12-0.73-2.42-1.42-3.92-2.07
				c-1.5-0.64-3.14-1.17-4.93-1.58c-1.79-0.41-3.62-0.62-5.5-0.62c-4.17,0-7.23,0.76-9.2,2.29c-1.97,1.53-2.95,3.64-2.95,6.34
				c0,1.53,0.31,2.77,0.92,3.74c0.62,0.97,1.57,1.82,2.86,2.55c1.29,0.73,2.9,1.38,4.84,1.94c1.94,0.56,4.19,1.16,6.78,1.8
				c3.17,0.76,6.03,1.61,8.58,2.55c2.55,0.94,4.71,2.08,6.47,3.43c1.76,1.35,3.12,3.01,4.09,4.97c0.97,1.97,1.45,4.36,1.45,7.17
				c0,3.17-0.6,5.9-1.8,8.18c-1.2,2.29-2.85,4.15-4.93,5.59c-2.08,1.44-4.5,2.49-7.26,3.17c-2.76,0.67-5.72,1.01-8.89,1.01
				c-4.75,0-9.34-0.72-13.77-2.16c-4.43-1.44-8.43-3.53-12.01-6.29l4.49-8.45c0.76,0.76,1.86,1.61,3.3,2.55
				c1.44,0.94,3.11,1.8,5.02,2.6c1.91,0.79,3.97,1.47,6.2,2.02c2.23,0.56,4.55,0.84,6.95,0.84c3.87,0,6.86-0.67,8.98-2.02
				c2.11-1.35,3.17-3.34,3.17-5.98c0-1.58-0.4-2.9-1.19-3.96c-0.79-1.06-1.92-1.98-3.39-2.77c-1.47-0.79-3.26-1.51-5.37-2.16
				c-2.11-0.64-4.52-1.32-7.22-2.02c-3.11-0.82-5.82-1.69-8.14-2.6c-2.32-0.91-4.24-2.01-5.76-3.3c-1.53-1.29-2.68-2.8-3.48-4.53
				c-0.79-1.73-1.19-3.83-1.19-6.29c0-3.05,0.59-5.76,1.76-8.14c1.17-2.38,2.77-4.37,4.8-5.98c2.02-1.61,4.41-2.83,7.17-3.65
				c2.76-0.82,5.75-1.23,8.98-1.23c4.22,0,8.13,0.68,11.71,2.02c3.58,1.35,6.72,3.02,9.42,5.02L552.83,111.8z"/>
			<path class="st0" d="M620.95,97.1v62.49H611v-27.55h-31.51v27.55h-9.86V97.1h9.86v26.14H611V97.1H620.95z"/>
			<path class="st0" d="M635.03,159.59V97.1h9.86v62.49H635.03z"/>
			<path class="st0" d="M658.97,159.59V97.1h27.19c2.82,0,5.41,0.59,7.79,1.76c2.38,1.17,4.41,2.71,6.12,4.62
				c1.7,1.91,3.04,4.08,4,6.51c0.97,2.44,1.45,4.91,1.45,7.44c0,2.11-0.29,4.14-0.88,6.07c-0.59,1.94-1.41,3.73-2.46,5.37
				c-1.06,1.64-2.35,3.07-3.87,4.27c-1.53,1.2-3.2,2.1-5.02,2.68l14.7,23.76h-11.18l-13.55-21.74h-14.43v21.74H658.97z
				 M668.82,129.14h17.25c1.41,0,2.68-0.31,3.83-0.92c1.14-0.62,2.13-1.47,2.95-2.55c0.82-1.08,1.47-2.33,1.94-3.74
				c0.47-1.41,0.7-2.9,0.7-4.49s-0.28-3.08-0.84-4.49c-0.56-1.41-1.29-2.64-2.2-3.7c-0.91-1.06-1.97-1.89-3.17-2.51
				c-1.2-0.62-2.45-0.92-3.74-0.92h-16.72V129.14z"/>
			<path class="st0" d="M760,150.88v8.71h-42.86V97.1h42.07v8.71H727v17.78h27.9v8.18H727v19.1H760z"/>
		</g>
		<g>
			<path class="st0" d="M273.57,206.29c0-3.75,0.66-7.49,1.98-11.22c1.32-3.73,3.24-7.05,5.76-9.99c2.52-2.93,5.63-5.32,9.33-7.17
				s7.89-2.77,12.59-2.77c5.57,0,10.34,1.26,14.3,3.78c3.96,2.52,6.88,5.81,8.76,9.86l-4.84,2.99c-1-2.05-2.22-3.78-3.65-5.19
				c-1.44-1.41-2.98-2.55-4.62-3.43c-1.64-0.88-3.34-1.51-5.1-1.89c-1.76-0.38-3.49-0.57-5.19-0.57c-3.76,0-7.07,0.76-9.95,2.29
				c-2.88,1.53-5.3,3.52-7.26,5.98c-1.97,2.46-3.45,5.24-4.44,8.32c-1,3.08-1.5,6.2-1.5,9.37c0,3.46,0.6,6.78,1.8,9.95
				c1.2,3.17,2.85,5.97,4.93,8.4c2.08,2.44,4.55,4.37,7.39,5.81c2.85,1.44,5.94,2.16,9.29,2.16c1.76,0,3.56-0.22,5.41-0.66
				c1.85-0.44,3.64-1.14,5.37-2.11c1.73-0.97,3.33-2.17,4.8-3.61c1.47-1.44,2.7-3.18,3.7-5.24l5.1,2.64c-1,2.35-2.41,4.42-4.22,6.2
				c-1.82,1.79-3.84,3.3-6.07,4.53c-2.23,1.23-4.59,2.17-7.08,2.82c-2.49,0.64-4.94,0.97-7.35,0.97c-4.28,0-8.22-0.94-11.79-2.82
				c-3.58-1.88-6.66-4.33-9.24-7.35c-2.58-3.02-4.59-6.45-6.03-10.3C274.29,214.19,273.57,210.28,273.57,206.29z"/>
			<path class="st0" d="M362.64,238.41c-4.34,0-8.32-0.89-11.93-2.68c-3.61-1.79-6.7-4.17-9.28-7.13
				c-2.58-2.96-4.58-6.35-5.98-10.16c-1.41-3.81-2.11-7.71-2.11-11.71c0-4.17,0.75-8.15,2.24-11.97c1.5-3.81,3.56-7.19,6.2-10.12
				c2.64-2.93,5.75-5.27,9.33-7c3.58-1.73,7.45-2.6,11.62-2.6c4.34,0,8.32,0.92,11.93,2.77c3.61,1.85,6.69,4.27,9.24,7.26
				s4.53,6.38,5.94,10.16c1.41,3.78,2.11,7.64,2.11,11.57c0,4.17-0.75,8.16-2.24,11.97c-1.5,3.81-3.55,7.17-6.16,10.08
				c-2.61,2.9-5.71,5.22-9.28,6.95C370.68,237.55,366.81,238.41,362.64,238.41z M339.49,206.73c0,3.4,0.56,6.67,1.67,9.81
				c1.11,3.14,2.7,5.93,4.75,8.36c2.05,2.44,4.49,4.37,7.3,5.81c2.82,1.44,5.95,2.16,9.42,2.16c3.52,0,6.72-0.76,9.59-2.29
				c2.87-1.53,5.31-3.52,7.3-5.98c1.99-2.46,3.53-5.25,4.62-8.36c1.08-3.11,1.63-6.28,1.63-9.51c0-3.4-0.57-6.67-1.72-9.81
				c-1.14-3.14-2.74-5.91-4.8-8.32c-2.05-2.4-4.49-4.33-7.3-5.76c-2.82-1.44-5.93-2.16-9.33-2.16c-3.52,0-6.72,0.75-9.59,2.24
				c-2.88,1.5-5.31,3.48-7.3,5.94c-2,2.46-3.54,5.25-4.62,8.36C340.04,200.33,339.49,203.5,339.49,206.73z"/>
			<path class="st0" d="M428.91,232.87c3.93,0,7.2-0.75,9.81-2.24c2.61-1.5,4.69-3.46,6.25-5.9c1.55-2.43,2.64-5.21,3.26-8.32
				c0.62-3.11,0.92-6.25,0.92-9.42v-31.51h6.16v31.51c0,4.22-0.47,8.23-1.41,12.01c-0.94,3.78-2.45,7.12-4.53,9.99
				c-2.08,2.88-4.8,5.16-8.14,6.86c-3.34,1.7-7.42,2.55-12.23,2.55c-4.93,0-9.08-0.89-12.45-2.68c-3.37-1.79-6.09-4.15-8.14-7.08
				c-2.05-2.93-3.52-6.28-4.4-10.03c-0.88-3.75-1.32-7.63-1.32-11.62v-31.51h6.07v31.51c0,3.29,0.32,6.48,0.97,9.59
				c0.64,3.11,1.75,5.87,3.3,8.27c1.55,2.41,3.62,4.34,6.2,5.81C421.81,232.13,425.04,232.87,428.91,232.87z"/>
			<path class="st0" d="M476.17,186.93v51.05h-6.16v-62.49h4.75l41.36,52.01v-51.93h6.16v62.4h-5.37L476.17,186.93z"/>
			<path class="st0" d="M533.82,206.29c0-3.75,0.66-7.49,1.98-11.22c1.32-3.73,3.24-7.05,5.76-9.99c2.52-2.93,5.63-5.32,9.33-7.17
				s7.89-2.77,12.59-2.77c5.57,0,10.34,1.26,14.3,3.78c3.96,2.52,6.88,5.81,8.76,9.86l-4.84,2.99c-1-2.05-2.22-3.78-3.65-5.19
				c-1.44-1.41-2.98-2.55-4.62-3.43c-1.64-0.88-3.34-1.51-5.1-1.89c-1.76-0.38-3.49-0.57-5.19-0.57c-3.76,0-7.07,0.76-9.95,2.29
				c-2.88,1.53-5.3,3.52-7.26,5.98c-1.97,2.46-3.45,5.24-4.44,8.32c-1,3.08-1.5,6.2-1.5,9.37c0,3.46,0.6,6.78,1.8,9.95
				c1.2,3.17,2.85,5.97,4.93,8.4c2.08,2.44,4.55,4.37,7.39,5.81c2.85,1.44,5.94,2.16,9.29,2.16c1.76,0,3.56-0.22,5.41-0.66
				c1.85-0.44,3.64-1.14,5.37-2.11c1.73-0.97,3.33-2.17,4.8-3.61c1.47-1.44,2.7-3.18,3.7-5.24l5.1,2.64c-1,2.35-2.41,4.42-4.22,6.2
				c-1.82,1.79-3.84,3.3-6.07,4.53c-2.23,1.23-4.59,2.17-7.08,2.82c-2.49,0.64-4.94,0.97-7.35,0.97c-4.28,0-8.22-0.94-11.79-2.82
				c-3.58-1.88-6.66-4.33-9.24-7.35c-2.58-3.02-4.59-6.45-6.03-10.3C534.53,214.19,533.82,210.28,533.82,206.29z"/>
			<path class="st0" d="M598.33,237.97v-62.49h6.16v62.49H598.33z"/>
			<path class="st0" d="M620.15,237.97v-62.49h6.16v57.03h36.08v5.46H620.15z"/>
		</g>
	</g>
	<g>
		<g>
			<path class="st0" d="M211.68,110.83c-2.22-4.38-4.95-12.79-5.73-17.64c-2.75-17.03-8.75-26.92-17.83-29.4
				c-4.74-1.29-9.95-0.38-15.34,2.57c1.14-6.04,0.39-11.27-2.31-15.38c-5.16-7.87-16.42-10.51-33.44-7.86
				c-4.85,0.75-13.69,0.75-18.55,0c-17.05-2.65-28.31,0-33.47,7.87c-2.69,4.11-3.44,9.34-2.29,15.38
				c-5.39-2.95-10.6-3.86-15.34-2.56c-9.08,2.48-15.07,12.36-17.81,29.37c-0.78,4.85-3.51,13.25-5.73,17.64
				c-7.79,15.39-8.75,26.92-2.86,34.26c3.07,3.83,7.82,6.15,13.92,6.93c-4.47,4.22-6.94,8.89-7.17,13.8
				c-0.44,9.4,7.1,18.15,22.43,26.01c4.37,2.24,11.52,7.44,15.01,10.9c9.62,9.56,18.27,14.38,25.8,14.38c2.05,0,4.02-0.36,5.9-1.07
				c4.59-1.74,8.27-5.54,10.89-11.1c2.63,5.56,6.31,9.35,10.9,11.09c1.88,0.71,3.84,1.07,5.89,1.07c7.53,0,16.18-4.81,25.78-14.36
				c3.48-3.46,10.64-8.66,15.01-10.9c15.35-7.88,22.9-16.64,22.45-26.04c-0.24-4.91-2.71-9.58-7.19-13.79
				c6.1-0.78,10.84-3.11,13.91-6.94C220.42,137.72,219.46,126.2,211.68,110.83z M92.52,55.91c2.97-4.54,11.71-5.93,24.6-3.93
				c5.77,0.9,15.53,0.9,21.3,0c0,0,0,0,0,0c12.86-2,21.59-0.61,24.56,3.92c3.04,4.63,0.92,13.65-5.67,24.14l-1.31,1.8
				c0.01,0.01,0.02,0.02,0.03,0.03c-8.29-8.24-15.66-11.21-21.92-8.84c-2.53,0.96-4.67,2.75-6.37,5.29
				c-1.7-2.54-3.84-4.33-6.37-5.29c-6.25-2.36-13.6,0.6-21.86,8.8l-1.3-1.79C91.62,69.57,89.48,60.55,92.52,55.91z M153.55,126.76
				l9.74-3.16c6.79-1.71,12.28-1.42,14.02,0.75c1.69,2.1,0.7,7.31-2.65,13.92c-1.77,3.5-3.72,9.51-4.35,13.38v0
				c-1.18,7.3-3.43,12.09-6.03,12.8c-2.68,0.73-7.31-2.26-11.8-7.62l-6.42-8.84c4.72-4.7,7.64-11.2,7.64-18.37
				C153.71,128.65,153.65,127.7,153.55,126.76z M160.51,115.07l-9.48,3.08c-3.6-7.28-10.53-12.64-18.78-14.08l0-9.54
				c0.47-6.99,2.45-12.12,5.05-13.11c2.53-0.96,7.17,1.59,12.42,6.82c2.78,2.77,7.89,6.48,11.38,8.27c0,0,0,0,0,0
				c6.58,3.38,10.44,7,10.31,9.69C171.28,108.98,167.01,112.45,160.51,115.07z M109.46,147.98l-6.42,8.84
				c-4.48,5.37-9.1,8.37-11.79,7.64c-2.6-0.71-4.86-5.5-6.04-12.82c-0.63-3.88-2.58-9.88-4.35-13.38c-3.34-6.6-4.33-11.8-2.64-13.9
				c0.99-1.24,3.19-1.87,6.16-1.87c2.25,0,4.94,0.36,7.86,1.1l9.74,3.16c-0.1,0.94-0.16,1.89-0.16,2.86
				C101.82,136.78,104.74,143.28,109.46,147.98z M104.5,118.15l-9.49-3.08c-6.5-2.6-10.77-6.07-10.91-8.85
				c-0.13-2.7,3.73-6.32,10.32-9.71c3.49-1.79,8.6-5.5,11.38-8.27c5.24-5.22,9.88-7.76,12.4-6.81c2.6,0.98,4.59,6.12,5.07,13.1
				l0,9.53C115.03,105.51,108.1,110.86,104.5,118.15z M113.16,120.96c2.22-3.74,5.83-6.55,10.12-7.72c1.43-0.39,2.93-0.61,4.49-0.61
				c1.55,0,3.05,0.21,4.48,0.6c4.29,1.17,7.9,3.99,10.12,7.72c1.51,2.54,2.38,5.49,2.38,8.65c0,0,0,0,0,0
				c0,4.18-1.53,8.02-4.05,10.98c-1.95,2.29-4.5,4.06-7.4,5.07c-1.73,0.6-3.59,0.93-5.53,0.93c-1.94,0-3.8-0.33-5.53-0.93
				c-2.9-1-5.45-2.77-7.4-5.07c-2.52-2.96-4.04-6.79-4.04-10.98c0,0,0,0,0-0.01C110.79,126.46,111.65,123.5,113.16,120.96z
				 M47.99,139.48c-3.39-4.23-2.02-12.97,3.87-24.61c2.64-5.22,5.65-14.49,6.58-20.26c2.07-12.85,6.09-20.72,11.32-22.15
				c5.35-1.46,13.27,3.34,21.21,12.86l1.45,1.99c-0.75,0.48-1.47,0.9-2.08,1.21c-10.4,5.34-15.51,11.43-15.18,18.11
				c0.13,2.71,1.18,5.3,3.07,7.7c-2.94,0.83-5.31,2.3-7,4.41c-4.02,5.01-3.66,12.52,1.04,22.33c0.08,0.16,0.15,0.32,0.23,0.48
				c0,0,0,0.01,0,0.01c-0.33,0.08-0.66,0.16-0.99,0.24C60.07,144.51,51.34,143.66,47.99,139.48z M113.71,207.66
				c-5.07,1.92-12.96-2.09-22.21-11.28c-4.15-4.12-12.04-9.86-17.24-12.52c-11.58-5.94-17.82-12.2-17.57-17.61
				c0.26-5.54,7.28-11.59,18.78-16.2l0.17-0.05c0.31,1.14,0.56,2.21,0.7,3.08c1.86,11.54,6.08,18.28,12.53,20.04
				c1.04,0.28,2.1,0.42,3.18,0.42c1.65,0,3.35-0.33,5.08-0.97c-0.12,3.05,0.56,5.76,2.05,8.03c3.67,5.59,11.38,7.52,22.91,5.72
				c0.33-0.05,0.69-0.1,1.07-0.14C122.19,197.79,118.69,205.77,113.71,207.66z M127.76,177c-2.55,0-5.1,0.15-7.03,0.45
				c-7.31,1.14-12.56,0.47-14.04-1.78c-1.53-2.33-0.11-7.65,3.6-13.58l6.52-8.97c3.33,1.56,7.04,2.43,10.96,2.43
				c3.91,0,7.62-0.88,10.95-2.43l6.52,8.97c3.73,5.93,5.15,11.25,3.62,13.57c-1.48,2.26-6.74,2.92-14.06,1.79
				C132.86,177.15,130.31,177,127.76,177z M181.27,183.86c-5.2,2.67-13.09,8.4-17.23,12.52c0,0,0,0,0,0
				c-9.23,9.18-17.11,13.18-22.18,11.27c-4.99-1.89-8.49-9.86-9.49-21.47c0.38,0.04,0.73,0.08,1.06,0.13
				c2.79,0.43,5.35,0.65,7.69,0.65c7.35,0,12.46-2.13,15.24-6.38c1.49-2.27,2.16-4.98,2.04-8.03c1.72,0.63,3.42,0.97,5.07,0.97
				c1.09,0,2.15-0.14,3.19-0.42c6.45-1.76,10.66-8.5,12.52-20.02c0.14-0.88,0.39-1.95,0.7-3.08l0.18,0.06
				c11.51,4.6,18.54,10.64,18.8,16.18C199.12,171.64,192.87,177.91,181.27,183.86z M207.54,139.45c-3.45,4.3-12.6,5.09-24.52,2.12
				c4.93-10.06,5.37-17.74,1.28-22.84c-1.69-2.11-4.07-3.58-7.01-4.41c1.89-2.4,2.94-4.99,3.07-7.7c0.32-6.68-4.79-12.77-15.17-18.1
				c-0.62-0.32-1.33-0.73-2.08-1.21l1.45-2c7.93-9.52,15.84-14.34,21.19-12.88c5.23,1.43,9.26,9.3,11.34,22.18
				c0.93,5.77,3.95,15.05,6.58,20.26C209.56,126.5,210.93,135.22,207.54,139.45z"/>
		</g>
	</g>
	<g>
		<path class="st0" d="M117.87,245.6c-12.45-1.02-24.54-3.98-36.06-8.85c-14.03-5.94-26.64-14.44-37.47-25.26
			c-10.83-10.83-19.33-23.43-25.26-37.47c-6.14-14.52-9.26-29.96-9.26-45.88c0-15.92,3.11-31.35,9.26-45.88
			c0.62-1.47,1.28-2.92,1.96-4.36l-8.53-4.93C4.49,89.68,0,108.39,0,128.14c0,67.21,51.94,122.3,117.87,127.31V245.6z"/>
		<path class="st0" d="M30.86,60.91c3.98-5.72,8.48-11.11,13.48-16.11c10.83-10.83,23.43-19.33,37.47-25.26
			c14.52-6.14,29.96-9.26,45.88-9.26s31.35,3.11,45.88,9.26c14.03,5.94,26.64,14.44,37.47,25.26c5,5,9.5,10.39,13.48,16.11
			l8.52-4.92C210.03,22.45,171.42,0.46,127.68,0.46c-43.74,0-82.34,22-105.35,55.53L30.86,60.91z"/>
		<path class="st0" d="M234.34,77.91c0.68,1.44,1.33,2.89,1.96,4.36c6.14,14.52,9.26,29.96,9.26,45.88
			c0,15.92-3.12,31.35-9.26,45.88c-5.94,14.03-14.44,26.64-25.26,37.47c-10.83,10.83-23.43,19.33-37.47,25.26
			c-11.52,4.87-23.61,7.83-36.06,8.85v9.85c65.93-5.01,117.87-60.1,117.87-127.31c0-19.76-4.49-38.46-12.5-55.16L234.34,77.91z"/>
	</g>
</g>
</svg>
