<svg enable-background="new 0 0 760 255.5" viewBox="0 0 760 255.5" xmlns="http://www.w3.org/2000/svg"><g fill="#fff"><path d="m284.94 36.8v44h-9.86v-62.48h7.74l35.73 45.06v-44.97h9.95v62.4h-8.18z"/><path d="m368.55 81.25c-4.46 0-8.52-.89-12.19-2.68s-6.82-4.17-9.46-7.13-4.68-6.35-6.12-10.16-2.16-7.71-2.16-11.71c0-4.17.76-8.15 2.29-11.97 1.52-3.81 3.62-7.19 6.29-10.12s5.84-5.27 9.51-7 7.67-2.6 12.01-2.6c4.46 0 8.52.92 12.19 2.77s6.81 4.27 9.42 7.26 4.63 6.38 6.07 10.16 2.16 7.64 2.16 11.57c0 4.17-.75 8.16-2.24 11.97-1.5 3.81-3.59 7.17-6.29 10.08-2.7 2.9-5.88 5.22-9.55 6.95-3.67 1.74-7.65 2.61-11.93 2.61zm-19.89-31.69c0 2.93.47 5.78 1.41 8.54s2.27 5.19 4 7.3 3.83 3.8 6.29 5.06 5.22 1.89 8.27 1.89c3.17 0 5.97-.66 8.4-1.98s4.5-3.07 6.2-5.24 2.99-4.61 3.87-7.3c.88-2.7 1.32-5.46 1.32-8.27 0-2.99-.47-5.85-1.41-8.58s-2.27-5.13-4-7.22c-1.73-2.08-3.81-3.75-6.25-5.02-2.44-1.26-5.15-1.89-8.14-1.89-3.17 0-5.98.66-8.45 1.98-2.46 1.32-4.55 3.04-6.25 5.15s-3.01 4.53-3.92 7.26c-.89 2.74-1.34 5.51-1.34 8.32z"/><path d="m408.77 80.81v-62.49h27.19c2.82 0 5.41.59 7.79 1.76s4.41 2.71 6.12 4.62c1.7 1.91 3.04 4.08 4 6.51.97 2.44 1.45 4.91 1.45 7.44 0 2.11-.29 4.14-.88 6.07-.59 1.94-1.41 3.73-2.46 5.37-1.06 1.64-2.35 3.07-3.87 4.27-1.53 1.2-3.2 2.1-5.02 2.68l14.7 23.76h-11.18l-13.55-21.74h-14.43v21.74h-9.86zm9.86-30.45h17.25c1.41 0 2.68-.31 3.83-.92 1.14-.62 2.13-1.47 2.95-2.55s1.47-2.33 1.94-3.74.7-2.9.7-4.49c0-1.58-.28-3.08-.84-4.49s-1.29-2.64-2.2-3.7-1.97-1.89-3.17-2.51-2.45-.92-3.74-.92h-16.72z"/><path d="m511.83 27.03h-20.77v53.77h-9.95v-53.77h-20.86v-8.71h51.57v8.71z"/><path d="m571.5 18.32v62.49h-9.95v-27.55h-31.51v27.55h-9.86v-62.49h9.86v26.14h31.51v-26.14z"/><path d="m284.4 97.1 17.25 31.33 17.43-31.33h10.83l-23.32 40.13v22.35h-9.86v-22.53l-23.16-39.95z"/><path d="m359.38 160.03c-4.46 0-8.52-.89-12.19-2.68s-6.82-4.17-9.46-7.13-4.68-6.35-6.12-10.16-2.16-7.71-2.16-11.71c0-4.17.76-8.15 2.29-11.97 1.52-3.81 3.62-7.19 6.29-10.12s5.84-5.27 9.51-7 7.67-2.6 12.01-2.6c4.46 0 8.52.92 12.19 2.77s6.81 4.27 9.42 7.26 4.63 6.38 6.07 10.16 2.16 7.64 2.16 11.57c0 4.17-.75 8.16-2.24 11.97-1.5 3.81-3.59 7.17-6.29 10.08-2.7 2.9-5.88 5.22-9.55 6.95-3.67 1.74-7.64 2.61-11.93 2.61zm-19.89-31.68c0 2.93.47 5.78 1.41 8.54s2.27 5.19 4 7.3 3.83 3.8 6.29 5.06 5.22 1.89 8.27 1.89c3.17 0 5.97-.66 8.4-1.98s4.5-3.07 6.2-5.24 2.99-4.61 3.87-7.3c.88-2.7 1.32-5.46 1.32-8.27 0-2.99-.47-5.85-1.41-8.58s-2.27-5.13-4-7.22c-1.73-2.08-3.81-3.75-6.25-5.02-2.44-1.26-5.15-1.89-8.14-1.89-3.17 0-5.98.66-8.45 1.98-2.46 1.32-4.55 3.04-6.25 5.15s-3.01 4.53-3.92 7.26c-.88 2.73-1.34 5.5-1.34 8.32z"/><path d="m399.61 159.59v-62.49h27.19c2.82 0 5.41.59 7.79 1.76s4.41 2.71 6.12 4.62c1.7 1.91 3.04 4.08 4 6.51.97 2.44 1.45 4.91 1.45 7.44 0 2.11-.29 4.14-.88 6.07-.59 1.94-1.41 3.73-2.46 5.37-1.06 1.64-2.35 3.07-3.87 4.27-1.53 1.2-3.2 2.1-5.02 2.68l14.7 23.76h-11.18l-13.55-21.74h-14.43v21.74h-9.86zm9.85-30.45h17.25c1.41 0 2.68-.31 3.83-.92 1.14-.62 2.13-1.47 2.95-2.55s1.47-2.33 1.94-3.74.7-2.9.7-4.49-.28-3.08-.84-4.49-1.29-2.64-2.2-3.7-1.97-1.89-3.17-2.51-2.45-.92-3.74-.92h-16.72z"/><path d="m457.78 159.59v-62.4h9.86v32.12l29.4-32.21h10.91l-24.64 27.63 26.05 34.85h-11l-21.12-28.78-9.59 9.95v18.83h-9.87z"/><path d="m552.83 111.8c-.59-.64-1.44-1.33-2.55-2.07-1.12-.73-2.42-1.42-3.92-2.07-1.5-.64-3.14-1.17-4.93-1.58s-3.62-.62-5.5-.62c-4.17 0-7.23.76-9.2 2.29s-2.95 3.64-2.95 6.34c0 1.53.31 2.77.92 3.74.62.97 1.57 1.82 2.86 2.55s2.9 1.38 4.84 1.94 4.19 1.16 6.78 1.8c3.17.76 6.03 1.61 8.58 2.55s4.71 2.08 6.47 3.43 3.12 3.01 4.09 4.97c.97 1.97 1.45 4.36 1.45 7.17 0 3.17-.6 5.9-1.8 8.18-1.2 2.29-2.85 4.15-4.93 5.59s-4.5 2.49-7.26 3.17c-2.76.67-5.72 1.01-8.89 1.01-4.75 0-9.34-.72-13.77-2.16s-8.43-3.53-12.01-6.29l4.49-8.45c.76.76 1.86 1.61 3.3 2.55s3.11 1.8 5.02 2.6c1.91.79 3.97 1.47 6.2 2.02 2.23.56 4.55.84 6.95.84 3.87 0 6.86-.67 8.98-2.02 2.11-1.35 3.17-3.34 3.17-5.98 0-1.58-.4-2.9-1.19-3.96s-1.92-1.98-3.39-2.77-3.26-1.51-5.37-2.16c-2.11-.64-4.52-1.32-7.22-2.02-3.11-.82-5.82-1.69-8.14-2.6s-4.24-2.01-5.76-3.3c-1.53-1.29-2.68-2.8-3.48-4.53-.79-1.73-1.19-3.83-1.19-6.29 0-3.05.59-5.76 1.76-8.14s2.77-4.37 4.8-5.98c2.02-1.61 4.41-2.83 7.17-3.65s5.75-1.23 8.98-1.23c4.22 0 8.13.68 11.71 2.02 3.58 1.35 6.72 3.02 9.42 5.02z"/><path d="m620.95 97.1v62.49h-9.95v-27.55h-31.51v27.55h-9.86v-62.49h9.86v26.14h31.51v-26.14z"/><path d="m635.03 159.59v-62.49h9.86v62.49z"/><path d="m658.97 159.59v-62.49h27.19c2.82 0 5.41.59 7.79 1.76s4.41 2.71 6.12 4.62c1.7 1.91 3.04 4.08 4 6.51.97 2.44 1.45 4.91 1.45 7.44 0 2.11-.29 4.14-.88 6.07-.59 1.94-1.41 3.73-2.46 5.37-1.06 1.64-2.35 3.07-3.87 4.27-1.53 1.2-3.2 2.1-5.02 2.68l14.7 23.76h-11.18l-13.55-21.74h-14.43v21.74h-9.86zm9.85-30.45h17.25c1.41 0 2.68-.31 3.83-.92 1.14-.62 2.13-1.47 2.95-2.55s1.47-2.33 1.94-3.74.7-2.9.7-4.49-.28-3.08-.84-4.49-1.29-2.64-2.2-3.7-1.97-1.89-3.17-2.51-2.45-.92-3.74-.92h-16.72z"/><path d="m760 150.88v8.71h-42.86v-62.49h42.07v8.71h-32.21v17.78h27.9v8.18h-27.9v19.1h33z"/><path d="m273.57 206.29c0-3.75.66-7.49 1.98-11.22s3.24-7.05 5.76-9.99c2.52-2.93 5.63-5.32 9.33-7.17s7.89-2.77 12.59-2.77c5.57 0 10.34 1.26 14.3 3.78s6.88 5.81 8.76 9.86l-4.84 2.99c-1-2.05-2.22-3.78-3.65-5.19-1.44-1.41-2.98-2.55-4.62-3.43s-3.34-1.51-5.1-1.89-3.49-.57-5.19-.57c-3.76 0-7.07.76-9.95 2.29s-5.3 3.52-7.26 5.98c-1.97 2.46-3.45 5.24-4.44 8.32-1 3.08-1.5 6.2-1.5 9.37 0 3.46.6 6.78 1.8 9.95s2.85 5.97 4.93 8.4c2.08 2.44 4.55 4.37 7.39 5.81 2.85 1.44 5.94 2.16 9.29 2.16 1.76 0 3.56-.22 5.41-.66s3.64-1.14 5.37-2.11 3.33-2.17 4.8-3.61 2.7-3.18 3.7-5.24l5.1 2.64c-1 2.35-2.41 4.42-4.22 6.2-1.82 1.79-3.84 3.3-6.07 4.53s-4.59 2.17-7.08 2.82c-2.49.64-4.94.97-7.35.97-4.28 0-8.22-.94-11.79-2.82-3.58-1.88-6.66-4.33-9.24-7.35s-4.59-6.45-6.03-10.3c-1.46-3.85-2.18-7.76-2.18-11.75z"/><path d="m362.64 238.41c-4.34 0-8.32-.89-11.93-2.68s-6.7-4.17-9.28-7.13-4.58-6.35-5.98-10.16c-1.41-3.81-2.11-7.71-2.11-11.71 0-4.17.75-8.15 2.24-11.97 1.5-3.81 3.56-7.19 6.2-10.12s5.75-5.27 9.33-7 7.45-2.6 11.62-2.6c4.34 0 8.32.92 11.93 2.77s6.69 4.27 9.24 7.26 4.53 6.38 5.94 10.16 2.11 7.64 2.11 11.57c0 4.17-.75 8.16-2.24 11.97-1.5 3.81-3.55 7.17-6.16 10.08-2.61 2.9-5.71 5.22-9.28 6.95-3.59 1.75-7.46 2.61-11.63 2.61zm-23.15-31.68c0 3.4.56 6.67 1.67 9.81s2.7 5.93 4.75 8.36c2.05 2.44 4.49 4.37 7.3 5.81 2.82 1.44 5.95 2.16 9.42 2.16 3.52 0 6.72-.76 9.59-2.29s5.31-3.52 7.3-5.98 3.53-5.25 4.62-8.36c1.08-3.11 1.63-6.28 1.63-9.51 0-3.4-.57-6.67-1.72-9.81-1.14-3.14-2.74-5.91-4.8-8.32-2.05-2.4-4.49-4.33-7.3-5.76-2.82-1.44-5.93-2.16-9.33-2.16-3.52 0-6.72.75-9.59 2.24-2.88 1.5-5.31 3.48-7.3 5.94-2 2.46-3.54 5.25-4.62 8.36-1.07 3.11-1.62 6.28-1.62 9.51z"/><path d="m428.91 232.87c3.93 0 7.2-.75 9.81-2.24 2.61-1.5 4.69-3.46 6.25-5.9 1.55-2.43 2.64-5.21 3.26-8.32s.92-6.25.92-9.42v-31.51h6.16v31.51c0 4.22-.47 8.23-1.41 12.01s-2.45 7.12-4.53 9.99c-2.08 2.88-4.8 5.16-8.14 6.86s-7.42 2.55-12.23 2.55c-4.93 0-9.08-.89-12.45-2.68s-6.09-4.15-8.14-7.08-3.52-6.28-4.4-10.03-1.32-7.63-1.32-11.62v-31.51h6.07v31.51c0 3.29.32 6.48.97 9.59.64 3.11 1.75 5.87 3.3 8.27 1.55 2.41 3.62 4.34 6.2 5.81s5.81 2.21 9.68 2.21z"/><path d="m476.17 186.93v51.05h-6.16v-62.49h4.75l41.36 52.01v-51.93h6.16v62.4h-5.37z"/><path d="m533.82 206.29c0-3.75.66-7.49 1.98-11.22s3.24-7.05 5.76-9.99c2.52-2.93 5.63-5.32 9.33-7.17s7.89-2.77 12.59-2.77c5.57 0 10.34 1.26 14.3 3.78s6.88 5.81 8.76 9.86l-4.84 2.99c-1-2.05-2.22-3.78-3.65-5.19-1.44-1.41-2.98-2.55-4.62-3.43s-3.34-1.51-5.1-1.89-3.49-.57-5.19-.57c-3.76 0-7.07.76-9.95 2.29s-5.3 3.52-7.26 5.98c-1.97 2.46-3.45 5.24-4.44 8.32-1 3.08-1.5 6.2-1.5 9.37 0 3.46.6 6.78 1.8 9.95s2.85 5.97 4.93 8.4c2.08 2.44 4.55 4.37 7.39 5.81 2.85 1.44 5.94 2.16 9.29 2.16 1.76 0 3.56-.22 5.41-.66s3.64-1.14 5.37-2.11 3.33-2.17 4.8-3.61 2.7-3.18 3.7-5.24l5.1 2.64c-1 2.35-2.41 4.42-4.22 6.2-1.82 1.79-3.84 3.3-6.07 4.53s-4.59 2.17-7.08 2.82c-2.49.64-4.94.97-7.35.97-4.28 0-8.22-.94-11.79-2.82-3.58-1.88-6.66-4.33-9.24-7.35s-4.59-6.45-6.03-10.3c-1.47-3.85-2.18-7.76-2.18-11.75z"/><path d="m598.33 237.97v-62.49h6.16v62.49z"/><path d="m620.15 237.97v-62.49h6.16v57.03h36.08v5.46z"/><path d="m211.68 110.83c-2.22-4.38-4.95-12.79-5.73-17.64-2.75-17.03-8.75-26.92-17.83-29.4-4.74-1.29-9.95-.38-15.34 2.57 1.14-6.04.39-11.27-2.31-15.38-5.16-7.87-16.42-10.51-33.44-7.86-4.85.75-13.69.75-18.55 0-17.05-2.65-28.31 0-33.47 7.87-2.69 4.11-3.44 9.34-2.29 15.38-5.39-2.95-10.6-3.86-15.34-2.56-9.08 2.48-15.07 12.36-17.81 29.37-.78 4.85-3.51 13.25-5.73 17.64-7.79 15.39-8.75 26.92-2.86 34.26 3.07 3.83 7.82 6.15 13.92 6.93-4.47 4.22-6.94 8.89-7.17 13.8-.44 9.4 7.1 18.15 22.43 26.01 4.37 2.24 11.52 7.44 15.01 10.9 9.62 9.56 18.27 14.38 25.8 14.38 2.05 0 4.02-.36 5.9-1.07 4.59-1.74 8.27-5.54 10.89-11.1 2.63 5.56 6.31 9.35 10.9 11.09 1.88.71 3.84 1.07 5.89 1.07 7.53 0 16.18-4.81 25.78-14.36 3.48-3.46 10.64-8.66 15.01-10.9 15.35-7.88 22.9-16.64 22.45-26.04-.24-4.91-2.71-9.58-7.19-13.79 6.1-.78 10.84-3.11 13.91-6.94 5.91-7.34 4.95-18.86-2.83-34.23zm-119.16-54.92c2.97-4.54 11.71-5.93 24.6-3.93 5.77.9 15.53.9 21.3 0 12.86-2 21.59-.61 24.56 3.92 3.04 4.63.92 13.65-5.67 24.14l-1.31 1.8c.01.01.02.02.03.03-8.29-8.24-15.66-11.21-21.92-8.84-2.53.96-4.67 2.75-6.37 5.29-1.7-2.54-3.84-4.33-6.37-5.29-6.25-2.36-13.6.6-21.86 8.8l-1.3-1.79c-6.59-10.47-8.73-19.49-5.69-24.13zm61.03 70.85 9.74-3.16c6.79-1.71 12.28-1.42 14.02.75 1.69 2.1.7 7.31-2.65 13.92-1.77 3.5-3.72 9.51-4.35 13.38-1.18 7.3-3.43 12.09-6.03 12.8-2.68.73-7.31-2.26-11.8-7.62l-6.42-8.84c4.72-4.7 7.64-11.2 7.64-18.37.01-.97-.05-1.92-.15-2.86zm6.96-11.69-9.48 3.08c-3.6-7.28-10.53-12.64-18.78-14.08v-9.54c.47-6.99 2.45-12.12 5.05-13.11 2.53-.96 7.17 1.59 12.42 6.82 2.78 2.77 7.89 6.48 11.38 8.27 6.58 3.38 10.44 7 10.31 9.69-.13 2.78-4.4 6.25-10.9 8.87zm-51.05 32.91-6.42 8.84c-4.48 5.37-9.1 8.37-11.79 7.64-2.6-.71-4.86-5.5-6.04-12.82-.63-3.88-2.58-9.88-4.35-13.38-3.34-6.6-4.33-11.8-2.64-13.9.99-1.24 3.19-1.87 6.16-1.87 2.25 0 4.94.36 7.86 1.1l9.74 3.16c-.1.94-.16 1.89-.16 2.86 0 7.17 2.92 13.67 7.64 18.37zm-4.96-29.83-9.49-3.08c-6.5-2.6-10.77-6.07-10.91-8.85-.13-2.7 3.73-6.32 10.32-9.71 3.49-1.79 8.6-5.5 11.38-8.27 5.24-5.22 9.88-7.76 12.4-6.81 2.6.98 4.59 6.12 5.07 13.1v9.53c-8.24 1.45-15.17 6.8-18.77 14.09zm8.66 2.81c2.22-3.74 5.83-6.55 10.12-7.72 1.43-.39 2.93-.61 4.49-.61 1.55 0 3.05.21 4.48.6 4.29 1.17 7.9 3.99 10.12 7.72 1.51 2.54 2.38 5.49 2.38 8.65 0 4.18-1.53 8.02-4.05 10.98-1.95 2.29-4.5 4.06-7.4 5.07-1.73.6-3.59.93-5.53.93s-3.8-.33-5.53-.93c-2.9-1-5.45-2.77-7.4-5.07-2.52-2.96-4.04-6.79-4.04-10.98 0 0 0 0 0-.01-.01-3.13.85-6.09 2.36-8.63zm-65.17 18.52c-3.39-4.23-2.02-12.97 3.87-24.61 2.64-5.22 5.65-14.49 6.58-20.26 2.07-12.85 6.09-20.72 11.32-22.15 5.35-1.46 13.27 3.34 21.21 12.86l1.45 1.99c-.75.48-1.47.9-2.08 1.21-10.4 5.34-15.51 11.43-15.18 18.11.13 2.71 1.18 5.3 3.07 7.7-2.94.83-5.31 2.3-7 4.41-4.02 5.01-3.66 12.52 1.04 22.33.08.16.15.32.23.48v.01c-.33.08-.66.16-.99.24-11.44 2.71-20.17 1.86-23.52-2.32zm65.72 68.18c-5.07 1.92-12.96-2.09-22.21-11.28-4.15-4.12-12.04-9.86-17.24-12.52-11.58-5.94-17.82-12.2-17.57-17.61.26-5.54 7.28-11.59 18.78-16.2l.17-.05c.31 1.14.56 2.21.7 3.08 1.86 11.54 6.08 18.28 12.53 20.04 1.04.28 2.1.42 3.18.42 1.65 0 3.35-.33 5.08-.97-.12 3.05.56 5.76 2.05 8.03 3.67 5.59 11.38 7.52 22.91 5.72.33-.05.69-.1 1.07-.14-.97 11.61-4.47 19.59-9.45 21.48zm14.05-30.66c-2.55 0-5.1.15-7.03.45-7.31 1.14-12.56.47-14.04-1.78-1.53-2.33-.11-7.65 3.6-13.58l6.52-8.97c3.33 1.56 7.04 2.43 10.96 2.43 3.91 0 7.62-.88 10.95-2.43l6.52 8.97c3.73 5.93 5.15 11.25 3.62 13.57-1.48 2.26-6.74 2.92-14.06 1.79-1.94-.3-4.49-.45-7.04-.45zm53.51 6.86c-5.2 2.67-13.09 8.4-17.23 12.52-9.23 9.18-17.11 13.18-22.18 11.27-4.99-1.89-8.49-9.86-9.49-21.47.38.04.73.08 1.06.13 2.79.43 5.35.65 7.69.65 7.35 0 12.46-2.13 15.24-6.38 1.49-2.27 2.16-4.98 2.04-8.03 1.72.63 3.42.97 5.07.97 1.09 0 2.15-.14 3.19-.42 6.45-1.76 10.66-8.5 12.52-20.02.14-.88.39-1.95.7-3.08l.18.06c11.51 4.6 18.54 10.64 18.8 16.18.26 5.4-5.99 11.67-17.59 17.62zm26.27-44.41c-3.45 4.3-12.6 5.09-24.52 2.12 4.93-10.06 5.37-17.74 1.28-22.84-1.69-2.11-4.07-3.58-7.01-4.41 1.89-2.4 2.94-4.99 3.07-7.7.32-6.68-4.79-12.77-15.17-18.1-.62-.32-1.33-.73-2.08-1.21l1.45-2c7.93-9.52 15.84-14.34 21.19-12.88 5.23 1.43 9.26 9.3 11.34 22.18.93 5.77 3.95 15.05 6.58 20.26 5.89 11.63 7.26 20.35 3.87 24.58z"/><path d="m117.87 245.6c-12.45-1.02-24.54-3.98-36.06-8.85-14.03-5.94-26.64-14.44-37.47-25.26-10.83-10.83-19.33-23.43-25.26-37.47-6.14-14.52-9.26-29.96-9.26-45.88s3.11-31.35 9.26-45.88c.62-1.47 1.28-2.92 1.96-4.36l-8.53-4.93c-8.02 16.71-12.51 35.42-12.51 55.17 0 67.21 51.94 122.3 117.87 127.31z"/><path d="m30.86 60.91c3.98-5.72 8.48-11.11 13.48-16.11 10.83-10.83 23.43-19.33 37.47-25.26 14.52-6.14 29.96-9.26 45.88-9.26s31.35 3.11 45.88 9.26c14.03 5.94 26.64 14.44 37.47 25.26 5 5 9.5 10.39 13.48 16.11l8.52-4.92c-23.01-33.54-61.62-55.53-105.36-55.53s-82.34 22-105.35 55.53z"/><path d="m234.34 77.91c.68 1.44 1.33 2.89 1.96 4.36 6.14 14.52 9.26 29.96 9.26 45.88s-3.12 31.35-9.26 45.88c-5.94 14.03-14.44 26.64-25.26 37.47-10.83 10.83-23.43 19.33-37.47 25.26-11.52 4.87-23.61 7.83-36.06 8.85v9.85c65.93-5.01 117.87-60.1 117.87-127.31 0-19.76-4.49-38.46-12.5-55.16z"/></g></svg>