<svg enable-background="new 0 0 601 175.9" viewBox="0 0 601 175.9" xmlns="http://www.w3.org/2000/svg"><g fill="#fff" stroke="#fff" stroke-miterlimit="10"><path d="m135.7.5h-135.2v83.7c-.1 54 59.1 89.5 67.6 91.2 8.5-1.8 67.6-37.3 67.6-90.9zm-67.7 162.6c-6.8-1.4-57.8-32.1-57.8-78.4 0 0 0-55.4 0-75h115.8v75.3c0 46.1-51 76.7-58 78.1"/><path d="m88.4 63.4c5.6 6.7 7.7 11.6 7.9 20.4.3 9.8-7.7 26.4-28.2 26.4-20.4 0-28.1-16.8-28.1-26.4 0-8.8 2.6-14.1 7.9-20.6-8.8 5.3-21.1 15.9-21.2 37.1-.1 21 20.9 38.3 41.4 38.3 20.6 0 41.3-17.5 41.3-38.4 0-20.7-12.4-31.4-21-36.8"/><path d="m43.4 45.5c1.6 1.7 2.8 2.6 5.3 1.1 3.9-2.3 5.9-.8 10-.2-2.5 1.9-5.2 2.8-5.6 5.2-.5 3.1-2.3 4.5-4.6 5.8-2.3 1.2-3.1 3.6-2.8 4.8 1.5-3.2 4.4-3.6 6.6-3.5 2.4.1 4.2-2.6 5.8-4.5 2.4-2.8 5.8-2.6 5.8-2.6-1 4.5.8 4.6 2.5 8 1.6 3.1-.1 5.5-.2 6.6-.2 2.1.7 3.5 3 5-.8-1.9-1.1-3.8 1.3-6.2 1.8-1.8 1.9-3.3 1.3-5-1.4-3.9-.2-4.5.5-8.6 2.4 2 3 2.7 6 3.7 2.5.9 4.1 3.9 5.1 4.8 2.2 1.8 3.9 2 6 1.3-2.3-1-3.1-2.1-3.8-3.9-.9-2.3-.3-4.4-2.8-6-3.3-2.1-5.2-4.1-5.8-5.1 0 0 6.4 1 10-.8 3.8-1.9 6.4-.3 7.6-.1 1.8.2 3.2-1 4.5-3.5-1 .6-3.5.8-5.9-1.3-1.9-1.7-3.7-1.6-5.3-1-4 1.6-7.4 1.4-11.2-.3 4.2-2.3 6.4-2.7 6.9-5.2.6-3.1 2.2-4.4 4.5-5.7 2.3-1.2 2.5-2.8 2.2-4-1.6 2.5-4.8 3.3-7 3.2-2.4 0-3.5 1.9-4.9 4-2 3-4.4 2.3-6 3.3 0 0-.4-5.7-2.2-8.2-2.1-2.8.3-5.8.4-6.8.2-2.1-.9-3.2-2.8-4.5.8 1.9.5 3.2-1.9 5.6-1.8 1.8-1.6 3.8-1.1 5.5 1.1 3.4-.1 3.7-.9 7.8-2.4-2.1-3-2.4-5.9-3.5-2.5-.9-3.7-3.6-4.8-4.5-2.2-1.8-4.4-2.3-6.5-1.7 2.8 1.2 3.6 2.6 4.2 4.4.8 2.3.1 4 2.7 5.9 3 2.2 4.3 4 4.9 5 0 0-6-.7-9.9 1.8-2.3 1.5-6.3-.7-6.6-.7-2.1.1-3.6 1.4-4.8 3.5 2-1.1 4.5-.6 6.2 1.1"/><path d="m173.3 31.4c0-6.8.1-7.4-8.3-7.8v-2.6c5.1.3 10.1.4 15.3.4 5.1 0 10.2-.2 15.3-.4 8.5 0 18.1 3.7 18.1 13.5 0 10.9-9.4 18.1-20.3 18.5-2.4.1-4.4-.2-5.7-.5l-1-3.2c1.3.4 3.4.7 5.6.8 7.1.3 12.6-5.1 12.6-12.6 0-9.1-5.5-13.3-14.2-13.3-3 0-5.8.7-8.6 1.2-.5 1.5-.5 3.3-.5 6v40c0 6.8-.1 7.4 8.3 7.9v2.6c-4.2-.3-8.3-.4-12.6-.4s-8.4.2-12.3.4v-2.6c8.4-.4 8.3-1 8.3-7.9z"/><path d="m212.1 62.8c0-13.1 8.2-22.2 22.2-22.2 11.2 0 19.8 8.7 19.8 19.9 0 13.3-9.5 22.8-22.9 22.8-10.9.2-19.1-8.5-19.1-20.5m8.1-3.8c0 9.2 3.3 21.2 14.5 21.2 7.9 0 11.2-7.8 11.2-16 0-11.2-5.1-21.5-13.5-20.8-9.3 0-12.2 7.5-12.2 15.6"/><path d="m263.5 50.7c0-3.6-4-4.6-7.2-4.6v-2.6c4.1-.7 8.8-1.5 13.8-3 .3.3.4 1 .4 1.7v6.1l4.9-4.3c1.8-1.7 4.9-3.6 7.5-3.6 1.4 0 3 .2 4.2.8.4.2.3.8.2 1.1l-.6 9.3h-1.9c-1-2.2-3.1-3.9-5.7-3.9-6.1 0-8.2 5.8-8.2 11.9v8.5c0 8.7.3 10.9 7.2 10.9v2.6c-3.6-.3-7.2-.4-10.9-.4s-7.3.2-10.9.4v-2.6c7.2-.4 7.2-2.2 7.2-10.9z"/><path d="m292.6 48.4v-1.7l6.2-3.1.1-6.1c-.2-2.3-.3-4.5-.6-6.9 3.1-1 5.9-2.4 7.6-3.3l1.1.9c-.3 1-.6 2.1-.7 3.1l-.5 12.3h12.1l-.6 4.3h-11.5v19.6c0 4.6-.5 9.4 5.7 9.4 1.7 0 3.1-.9 4.3-1.6l1.5 1.5c-.8.8-1.6 1.7-2.4 2.5l-1.9 2.1c-.2.3-.7.4-1 .4-1.3.3-2.7.6-4 .6-6.5 0-9.4-3.5-9.4-9.2v-25.4z"/><path d="m347 52.5c-.1-2.8-.3-5.1-2.7-6.9-1.9-1.4-5.1-2.3-7.4-2.3-7.9 0-10 6.8-7.6 10 5.3 6.8 23.7 1.6 23.7 15.1 0 9.6-9.5 14.7-19.2 14.7-3.8 0-7.8-.7-12-2.5.4-3.1.8-7.6.8-11.7h2.6v2.3c.3 4.3-.4 4.5 3.4 6.7 1.9 1.1 4.6 2 7.8 2 5.5 0 10.2-3.2 10.2-7.9 0-2.8-1.6-4.8-4.2-5.8-7.2-2.7-20.2-2.3-20.2-13 0-9.4 8.2-12.7 16.4-12.7 3.3 0 7.7.8 11.3 2.3-.4 1.9-.5 5.7-.5 9.7z"/><path d="m363.4 50.7c0-3.6-4-4.6-7.2-4.6v-2.6c4.1-.7 8.8-1.5 13.8-3 .4.3.4 1 .4 1.7v6.1l5.9-5.5c2-1.8 4.3-2.4 7.2-2.4 6 0 10.5 2.4 12.9 8.1l6.1-5.4c2.4-2.2 4.1-2.7 8.2-2.7 6.9 0 12.6 5 12.6 14.3v13.5c0 8.7 0 10.5 6.5 10.9v2.6c-2.4-.3-4.6-.4-7-.4s-4.7.2-6.9.4v-23.5c0-7.9-3.4-12.3-8.2-12.3-10.7 0-10.7 7.9-10.7 11.9v10.4c0 8.7.3 10.9 7.2 10.9v2.6c-3.6-.3-7.2-.4-10.9-.4s-7.3.2-10.9.4v-2.6c7.2-.4 7.2-2.2 7.2-10.9v-5.9c0-3-.1-6.1-.5-9-.6-4.4-3.8-7.3-8.3-7.3-10.1 0-10.1 7.9-10.1 11.9v10.4c0 8.7.3 10.9 7.2 10.9v2.6c-3.6-.3-7.2-.4-10.9-.4s-7.3.2-10.9.4v-2.6c7.2-.4 7.2-2.2 7.2-10.9z"/><path d="m430 62.8c0-13.1 8.2-22.2 22.2-22.2 11.2 0 19.8 8.7 19.8 19.9 0 13.3-9.5 22.8-22.9 22.8-10.9.2-19.1-8.5-19.1-20.5m8.1-3.8c0 9.2 3.3 21.2 14.5 21.2 7.9 0 11.2-7.8 11.2-16 0-11.2-5.1-21.5-13.5-20.8-9.3 0-12.2 7.5-12.2 15.6"/><path d="m480.2 50.7c0-3.6-4-4.6-7.1-4.6v-2.6c4.8-.7 9.5-1.5 14.4-3 .3.3.4 1 .4 1.7l-.4 13.3v11c0 6.9 1.5 10.9 9.2 10.9 3.9 0 10.1-3.9 11-7.9.2-1.1.3-2 .3-3.1v-15.9c0-3.6-4-4.6-7.1-4.6v-2.6c4.8-.7 9.5-1.5 14.4-3 .3.3.4 1 .4 1.7l-.4 13.3v18.1c0 1.7-.4 3.8 1.4 4.8 1.3.4 2.7.5 4.1.6l1.6.1v2.6c-2.4-.3-5-.4-7.4-.4-2.5 0-5.1.2-7.3.4.3-1.6.4-3.1.3-4.3v-3.3c-1.8 1.4-3.7 3.1-5.4 4.7-1.6 1.5-2.3 2.4-4.5 2.9-1.8.4-3.8.6-5.7.6-12.3 0-12.3-7.9-12.3-14.9v-16.5z"/><path d="m523 48.4v-1.7l6.2-3.1.1-6.1c-.2-2.3-.3-4.5-.6-6.9 3.1-1 5.9-2.4 7.6-3.3l1.1.9c-.3 1-.6 2.1-.7 3.1l-.5 12.3h12.1l-.6 4.3h-11.5v19.6c0 4.6-.5 9.4 5.7 9.4 1.7 0 3.1-.9 4.3-1.6l1.5 1.5c-.8.8-1.6 1.7-2.4 2.5l-1.9 2.1c-.2.3-.7.4-1 .4-1.3.3-2.7.6-4 .6-6.5 0-9.4-3.5-9.4-9.2v-25.4z"/><path d="m558.6 28.6c0-3.6-4-4.6-7.1-4.6v-2.6c4.8-.7 9.5-1.5 14.4-3 .3.3.4 1 .4 1.7l-.4 13.3v15.3l6.6-5.8c2.1-1.8 4.3-2.4 7.1-2.4 6.9 0 12.6 5 12.6 14.3v13.5c0 8.7 0 10.5 6.5 10.9v2.6c-2.4-.3-4.6-.4-7-.4s-4.7.2-6.9.4v-23.5c0-7.9-3.4-12.3-8.2-12.3-10.7 0-10.7 7.9-10.7 11.9v10.4c0 8.7.3 10.9 7.2 10.9v2.6c-3.6-.3-7.2-.4-10.9-.4s-7.3.2-10.9.4v-2.6c7.2-.4 7.2-2.2 7.2-10.9v-39.7z"/><path d="m191.8 129.7-.9 2c-2.8 1.5-5.9 2.3-9.4 2.3-6.9 0-11.6-2.5-14.2-7.5-1.2-2.3-1.8-4.8-1.8-7.5 0-4.3 1.4-7.8 4.3-10.4 2.9-2.7 7-4 12.1-4 3.2 0 6.4.6 9.5 1.8l.3.3c-.4 1.8-.7 4-.8 6.4l-.2.2h-1.2l-.2-.2c0-1.6-.1-2.7-.2-3.3-1.7-1.9-4-2.8-7.2-2.8s-5.7 1-7.6 3.1c-1.8 2-2.7 4.8-2.7 8.3 0 4.7 1.6 8.4 4.9 10.9 1.7 1.3 4.1 2 7 2 2.6 0 5.2-.7 7.8-2z"/><path d="m219.4 133.1-.2.2c-1.3-.1-3.4-.1-6.1-.1-2.8 0-4.8 0-6.1.1l-.2-.2v-1.3l.2-.2c1.4-.1 2.1-.1 2.3-.2.4-.1.6-.4.7-.7.2-1 .3-3 .3-6.2v-10.5c0-3.2-.1-5.2-.3-6.2-.1-.4-.3-.6-.7-.7-.2-.1-1-.1-2.3-.2l-.2-.2v-1.4l.2-.2c1.3.1 3.3.1 6.1.1s4.8 0 6.1-.1l.2.2v1.4l-.2.2c-1.4.1-2.1.1-2.3.2-.4.1-.6.4-.7.7-.2.9-.3 3-.3 6.2v10.5c0 3.2.1 5.2.3 6.2.1.4.3.6.7.7.2.1 1 .1 2.3.2l.2.2z"/><path d="m258.8 105.2c-.2 1-.2 2-.3 3v3.3l-.2.2h-1.3l-.2-.2c-.1-1.7-.1-2.7-.2-3-.2-.5-.6-.8-1.3-.9-.3 0-1.5-.1-3.7-.1h-2.7v5.5 11.3c0 3.2.1 5.2.3 6.2.1.4.3.6.7.7.2.1 1 .1 2.3.2l.2.2v1.3l-.2.2c-1.3-.1-3.3-.1-6.1-.1s-4.9 0-6.1.1l-.2-.2v-1.3l.2-.2c1.4-.1 2.1-.1 2.3-.2.4-.1.6-.4.7-.7.2-1 .3-3 .3-6.2v-11.3c0-3.3 0-5.1-.1-5.5h-2.8c-2.4 0-3.8.1-4.1.2-.2.1-.4.2-.4.3-.1.2-.2.6-.3 1.3s-.2 1.4-.2 2.2l-.4.3h-1.3l-.2-.2v-3.4c0-.9-.1-1.9-.2-3l.2-.2c.8.1 3.6.2 8.5.2h8c4.5 0 7.4-.1 8.5-.2z"/><path d="m298.6 106.1c-2.1 2.8-4.4 6.3-6.9 10.5-1.4 2.3-2.2 3.8-2.3 4.5-.1.3-.1.8-.1 1.5v2c0 3.9.1 6 .4 6.5.1.2.3.3.5.4.3.1 1.1.2 2.4.3l.2.2v1.3l-.2.2c-1.3-.1-3.3-.1-6.1-.1s-4.9 0-6.1.1l-.2-.2v-1.4l.2-.2c1.3-.1 2.1-.2 2.4-.3.2-.1.3-.2.5-.4.2-.4.4-2.6.4-6.5v-2.3c0-.5-1-2.5-3.1-6-2.1-3.6-3.8-6-5.1-7.3-.6-.6-1-1-1.2-1.1s-.7-.1-1.5-.1l-.2-.2v-1.1l.2-.2c3.2-.6 5.3-1.1 6.2-1.3.7.3 1.3.8 1.8 1.3 1.1 1.1 2.6 3.5 4.5 7.3l2.6 5.2c.8-1.3 2.3-3.8 4.5-7.6l2.2-4c.2-.4.6-1 1-1.8h2.9l.2.2z"/><path d="m360.7 129.7-.9 2c-2.8 1.5-5.9 2.3-9.4 2.3-6.9 0-11.6-2.5-14.2-7.5-1.2-2.3-1.8-4.8-1.8-7.5 0-4.3 1.4-7.8 4.3-10.4 3-2.7 7-4 12.1-4 3.2 0 6.4.6 9.5 1.8l.3.3c-.4 1.8-.7 4-.8 6.4l-.2.2h-1.2l-.2-.2c0-1.6-.1-2.7-.2-3.3-1.7-1.9-4-2.8-7.2-2.8s-5.7 1-7.6 3.1c-1.8 2-2.7 4.8-2.7 8.3 0 4.7 1.6 8.4 4.9 10.9 1.7 1.3 4.1 2 7 2 2.6 0 5.2-.7 7.8-2z"/><path d="m405.4 118.5c0 4.9-1.4 8.7-4.3 11.5-2.8 2.7-6.5 4-11.3 4-4.5 0-8.1-1.3-10.7-3.8s-3.9-6.1-3.9-10.6c0-6.4 2.4-10.8 7.3-13.2 2.2-1.1 4.9-1.7 8.2-1.7 4.6 0 8.2 1.2 10.8 3.6 2.6 2.5 3.9 5.9 3.9 10.2m-6.1 1c0-3.8-.8-6.9-2.3-9.1-1.5-2.3-3.8-3.4-6.8-3.4-3.9 0-6.5 1.8-7.8 5.3-.7 1.8-1 3.8-1 6.1 0 4.1.8 7.3 2.3 9.7 1.6 2.4 3.9 3.7 7 3.7 3.8 0 6.3-1.9 7.6-5.6.7-2 1-4.2 1-6.7"/><path d="m450.1 106.6-.2.2c-1.6 0-2.4.4-2.6 1.3-.1.5-.2 1.5-.2 3 0 1.2-.1 2.8-.1 5v6.1c0 3.9-.8 6.7-2.3 8.4-2.1 2.2-5 3.3-8.8 3.3-3.5 0-6.2-.6-8.1-1.7-1.6-1-2.7-2.4-3.2-4.2-.3-1.2-.5-4.2-.5-9v-5.1c0-3.2-.1-5.2-.3-6.2-.1-.4-.3-.6-.7-.7-.2-.1-1-.1-2.3-.2l-.2-.2v-1.3l.2-.2c1.3.1 3.3.1 6.1.1 2.9 0 4.9 0 6.1-.1l.2.2v1.3l-.2.2c-1.4.1-2.1.1-2.3.2-.4.1-.6.4-.7.7-.2.9-.3 3-.3 6.2v4.1c0 5 .2 8.1.7 9.2.9 2.2 3.1 3.3 6.7 3.3 2.3 0 4.1-.6 5.4-1.7.6-.5 1-1.1 1.3-1.6.2-.6.4-1.4.6-2.6.1-1.1.2-2.2.2-3.3v-4.1c0-3.5 0-5.8 0-7.1 0-1.2-.1-2-.2-2.3s-.3-.5-.7-.6c-.3-.1-1.1-.2-2.4-.3l-.2-.2v-1.3l.2-.2c1.2.1 2.3.1 3.6.1.9 0 2.7 0 5.3-.1l.2.2v1.2h-.3z"/><path d="m495.9 106.6-.2.2c-1.4.1-2.1.1-2.3.2-.4.1-.6.4-.7.7-.2.9-.3 3-.3 6.2v8.1c0 5.9.1 9.8.3 11.6l-.3.2c-1.5-.3-2.6-.4-3.4-.5-3.5-4-9.6-11.3-18.2-21.8v13c0 3.2.1 5.2.3 6.2.1.4.3.6.7.7.2.1 1 .1 2.3.2l.2.2v1.4l-.2.2c-1.5-.1-2.9-.1-4.3-.1-1.5 0-3 0-4.6.1l-.2-.2v-1.4l.2-.2c1.3-.1 2.1-.1 2.3-.2.4-.1.6-.4.7-.7.2-.9.3-3 .3-6.2v-10.5c0-3.2-.1-5.2-.3-6.2-.1-.4-.3-.6-.7-.7-.2-.1-1-.1-2.3-.2l-.2-.2v-1.4l.2-.2c1.3.1 2.5.1 3.6.1 1.8 0 3.3 0 4.4-.1 4.8 6.4 10.4 13.2 16.8 20.4v-11.6c0-3.2-.1-5.2-.3-6.2-.1-.4-.3-.6-.7-.7-.2-.1-1-.1-2.3-.2l-.2-.2v-1.4l.2-.2c1.5.1 2.9.1 4.2.1 1.7 0 3.2 0 4.6-.1l.2.2v1.4z"/><path d="m536.7 129.7-.9 2c-2.8 1.5-5.9 2.3-9.4 2.3-6.9 0-11.6-2.5-14.2-7.5-1.2-2.3-1.8-4.8-1.8-7.5 0-4.3 1.4-7.8 4.3-10.4 3-2.7 7-4 12.1-4 3.2 0 6.4.6 9.5 1.8l.3.3c-.4 1.8-.7 4-.8 6.4l-.2.2h-1.2l-.2-.2c0-1.6-.1-2.7-.2-3.3-1.7-1.9-4-2.8-7.2-2.8s-5.7 1-7.6 3.1c-1.8 2-2.7 4.8-2.7 8.3 0 4.7 1.6 8.4 4.9 10.9 1.7 1.3 4.1 2 7 2 2.6 0 5.2-.7 7.8-2z"/><path d="m564.4 133.1-.2.2c-1.3-.1-3.4-.1-6.1-.1-2.8 0-4.8 0-6.1.1l-.2-.2v-1.3l.2-.2c1.4-.1 2.1-.1 2.3-.2.4-.1.6-.4.7-.7.2-1 .3-3 .3-6.2v-10.5c0-3.2-.1-5.2-.3-6.2-.1-.4-.3-.6-.7-.7-.2-.1-1-.1-2.3-.2l-.2-.2v-1.4l.2-.2c1.3.1 3.3.1 6.1.1s4.8 0 6.1-.1l.2.2v1.4l-.2.2c-1.3.1-2.1.1-2.3.2-.4.1-.6.4-.7.7-.2.9-.3 3-.3 6.2v10.5c0 3.2.1 5.2.3 6.2.1.4.3.6.7.7.2.1 1 .1 2.3.2l.2.2z"/><path d="m600.5 126.5c-.3 1.9-.4 4.1-.4 6.6l-.2.2-14.4-.1c-2.4 0-4.1 0-5.1.1l-.2-.2v-.6l.1-.2c1-.6 1.5-1 1.6-1.2s.2-1.1.2-2.6l.1-4.4v-10.1c0-3.1-.1-5.2-.3-6.2-.1-.4-.3-.6-.7-.7-.2-.1-1-.1-2.3-.2l-.2-.2v-1.4l.2-.2c1.4.1 3.4.1 6 .1 2.7 0 4.8 0 6.2-.1l.2.2v1.4l-.2.2c-1.3.1-2.1.1-2.3.2-.4.1-.6.4-.7.7-.2 1-.3 3-.3 6.2v11.8c0 1.7 0 3.4.1 5h2.7c3.9 0 6.2-.2 7.1-.5.1-.1.3-.1.3-.2.1-.2.3-.6.4-1.2l.5-2.5.2-.2h1.2z"/></g></svg>