<svg enable-background="new 0 0 918 324.7" viewBox="0 0 918 324.7" width="918" xmlns="http://www.w3.org/2000/svg"><g fill="#fff"><path d="m90.3 112.5 49.3 49.9-49.3 49.9v-25.8c-46.2-.7-83.5-38.9-83.5-85.8 0-47.4 38-85.8 84.8-85.8 19.5 0 37.4 6.7 51.8 17.8-9.7 10.5-17.2 23-21.7 37-7.7-7.7-18.3-12.4-30-12.4-23.7 0-42.9 19.5-42.9 43.5 0 23.5 18.5 42.7 41.6 43.4v-31.7z"/><path d="m202.9 98.2-49.3 49.9-49.3-49.9h25.5c.7-46.8 38.4-84.5 84.8-84.5 46.8 0 84.8 38.4 84.8 85.8 0 19.7-6.6 37.9-17.6 52.4-10.3-9.8-22.7-17.4-36.5-22 7.6-7.8 12.3-18.6 12.3-30.4 0-24-19.2-43.5-42.9-43.5-23.3 0-42.2 18.8-42.9 42.2z"/><path d="m217 212.2-49.3-49.9 49.3-49.9v25.8c46.2.7 83.5 38.9 83.5 85.8 0 47.4-38 85.8-84.8 85.8-19.5 0-37.4-6.7-51.8-17.8 9.7-10.5 17.2-23 21.7-37 7.7 7.7 18.3 12.4 30.1 12.4 23.7 0 42.9-19.5 42.9-43.5 0-23.5-18.5-42.7-41.6-43.4z"/><path d="m104.4 226.5 49.3-49.9 49.3 49.9h-25.5c-.7 46.8-38.4 84.5-84.8 84.5-46.8 0-84.7-38.4-84.7-85.8 0-19.7 6.6-37.9 17.6-52.4 10.3 9.8 22.8 17.4 36.5 22-7.6 7.8-12.3 18.6-12.3 30.4 0 24 19.2 43.5 42.9 43.5 23.3 0 42.2-18.8 42.9-42.1h-31.2z"/><path d="m382.2 70.5c11.9-.1 19.7 1.5 25.2 7.1 3.4 3.5 5.3 8.6 5.3 15.2 0 9.9-4.6 17-13 21.4l2.4 4.4c6.3 11.5 11.3 19 16.1 25.3.9 1.3.4 2.1-4.1 2.1h-5.8c-3.6 0-5-.1-6.5-1.6-2.6-2.8-6.4-8.9-12.9-21l-3.5-6.4h-6.7v27.4c0 1.3-1.6 1.6-7.1 1.6h-1.2c-5.9 0-6.9-.3-6.9-1.6v-72.3c0-1.4.6-1.6 4.7-1.6zm-3.5 34.7h5.1c4.9 0 8.5-1.3 10.6-3.5 2-2 2.9-4.9 2.9-8.6 0-3.3-.8-5.7-2.5-7.4-2.2-2.2-5.7-3-11.1-3h-5z"/><path d="m437.9 123.4c1.2 7.5 5.9 11.6 13.9 11.6 5.1 0 10.1-1.4 14.8-3.4 1.2-.5 1.7-.1 2.8 3l.9 2.6c1.3 3.6 1.2 4.2-.1 4.9-5.3 2.9-13 5-20.4 5-16.5 0-27-10.3-27-28.1 0-17.2 9.8-29.4 25.8-29.4s24.3 11.9 24.3 28.3c0 4.1-.2 5.5-1 5.5zm20.7-10.3c-.6-6.5-3.9-11.3-9.8-11.3-5.8 0-9.6 4.3-10.9 11.3z"/><path d="m525.2 90.7c4.1 0 4.9.1 5.4 1.3.9 2.7.9 13 .9 22.2v27.5c0 10.2-2.2 17.4-6.4 22.1-4.3 4.7-10.7 6.9-19.2 6.9-6.3 0-13.3-1.9-17.5-4.3-1-.6-1.4-1.4.3-5.4l.7-1.8c1.5-3.5 2.1-4.3 3.3-3.8 3.7 1.7 8.3 3 12.4 3 7.8 0 12.1-4 12.1-15.2v-1.6c-3.6 3-8.3 4.7-13.4 4.7-13.8 0-22.3-10.3-22.3-27.5.1-18.6 9.8-29.2 23-29.2 5.7 0 10.5 2.7 14 6.5.1-1 .6-3.8.8-4.3.3-.7.3-1.2 4.9-1.2h1zm-8.1 17.7c-2.3-4.3-5.9-6.4-9.6-6.4-7 0-11.3 5.5-11.3 16.8 0 10.1 3.9 15.3 11.6 15.3 2.9 0 6.3-1 7.9-2.7 1.2-1.3 1.5-2.9 1.5-5.7v-17.3z"/><path d="m552.7 65.1c5 0 8.8 4 8.8 8.6s-3.8 8.6-8.8 8.6-8.8-4-8.8-8.6c-0-4.7 3.8-8.6 8.8-8.6zm.7 25.6c6.2 0 6.8.4 6.8 1.6v52.3c0 1.2-.6 1.6-6.8 1.6h-.5c-6.8 0-7-.4-7-1.6v-52.3c0-1.2.2-1.6 7-1.6z"/><path d="m573.8 134.3c1.8-3.2 2.7-4.1 3.9-3.3 4.1 2.7 9 4.5 13.4 4.5 5.6 0 8.8-2.1 8.8-4.9 0-8.2-26.9-3.2-26.9-23.2 0-11 9.5-17.8 21.7-17.8 6.9 0 12.9 1.9 17.3 5.3 1.1.7.8 1.6-1.3 5.1l-.9 1.5c-1.9 3.3-2.6 3.8-3.8 3-3.4-2.1-6.6-3.4-10.7-3.4-3 0-5.5.6-6.8 1.8-.9.8-1.5 1.8-1.5 3 0 7.9 26.9 3.8 26.9 22.7 0 4.8-2 9.5-5.4 12.7-3.9 3.8-9.7 5.8-17.3 5.8-8.1 0-15.2-2.6-19.5-6.3-.8-.7-.7-1.7.9-4.7z"/><path d="m635.4 75.6c6.2 0 6.8.4 6.8 1.6v13.5h12.5c.9 0 1.4.2 1.4 5.3v.7c0 5-.4 5.3-1.4 5.3h-12.5v25.9c0 3 .5 4.7 1.8 5.9 1 .9 2.6 1.5 4.6 1.5 1.7 0 3.6-.4 5.5-1 1.1-.3 1.6.3 2.7 4.2l.3 1c1.2 3.9 1 4.5-.2 5.1-3.4 1.7-8 2.6-12.1 2.6-5.9 0-10-1.6-12.7-4.3-2.9-2.9-4.3-7.4-4.3-14.2v-26.8h-7.2c-.9 0-1.4-.2-1.4-5.3v-.7c0-5 .4-5.3 1.4-5.3h7.2v-13.5c0-1.2.2-1.6 7-1.6h.6z"/><path d="m679.2 123.4c1.2 7.5 5.9 11.6 13.9 11.6 5.1 0 10.1-1.4 14.8-3.4 1.2-.5 1.7-.1 2.8 3l.9 2.6c1.3 3.6 1.2 4.2-.1 4.9-5.3 2.9-13 5-20.4 5-16.5 0-27-10.3-27-28.1 0-17.2 9.8-29.4 25.8-29.4s24.3 11.9 24.3 28.3c0 4.1-.2 5.5-1 5.5zm20.7-10.3c-.6-6.5-3.9-11.3-9.8-11.3-5.8 0-9.6 4.3-10.9 11.3z"/><path d="m732.2 90.7c5.1 0 6.1.2 6.4 1.4.3.9 1 6.6 1.3 10.8 3.4-8.6 7.8-13.2 14.5-13.2 1 0 2 .1 2.7.4s.9.5.9 5.3v1.5c0 5.4-.3 5.6-1.5 5.7-5.9.5-9.6 3-12.3 7.1-2.6 4-3.9 10-3.9 19.9v15.1c0 1.2-.6 1.6-6.8 1.6h-.5c-6.8 0-7-.4-7-1.6v-29c0-8.2-.3-17.3-.7-23-.1-1.5.3-1.9 6.3-1.9h.6z"/><path d="m766.5 134.3c1.8-3.2 2.7-4.1 3.9-3.3 4.1 2.7 9 4.5 13.4 4.5 5.6 0 8.8-2.1 8.8-4.9 0-8.2-26.9-3.2-26.9-23.2 0-11 9.5-17.8 21.7-17.8 6.9 0 12.9 1.9 17.3 5.3 1 .7.8 1.6-1.3 5.1l-.9 1.5c-1.9 3.3-2.6 3.8-3.8 3-3.4-2.1-6.6-3.4-10.7-3.4-3 0-5.5.6-6.8 1.8-.9.8-1.5 1.8-1.5 3 0 7.9 26.9 3.8 26.9 22.7 0 4.8-2 9.5-5.4 12.7-3.9 3.8-9.7 5.8-17.3 5.8-8.1 0-15.2-2.6-19.5-6.3-.8-.7-.7-1.7.9-4.7z"/><path d="m415.7 229.8c0 19-9.5 29.8-27 29.8-15.7 0-25.2-9.6-25.2-27.7 0-19 9.5-29.8 27-29.8 15.6-.1 25.2 9.5 25.2 27.7zm-37.4 1.4c0 10.2 3.4 16 10.7 16 8.3 0 11.9-6.3 11.9-16.8 0-10.2-3.4-16-10.7-16-8.4 0-11.9 6.3-11.9 16.8z"/><path d="m429.9 203.1v-2.5c0-7.7 2.1-13.5 5.9-17.4 3.6-3.7 8.7-5.5 15.1-5.5 3.9 0 8.1.7 11.6 2 .9.3 1 1.2.2 4.8l-.4 1.8c-.8 3.7-1.4 4.3-2.2 4.1-2.4-.5-4.5-.8-6.7-.8-3.4 0-5.7.8-7 2.7-1.4 1.9-2 4.8-2 8.7v2.1h12.1c.9 0 1.4.2 1.4 5.3v.7c0 5-.4 5.3-1.4 5.3h-12.1v42.6c0 1.2-.6 1.6-6.8 1.6h-.6c-6.8 0-7-.4-7-1.6v-42.6h-7.4c-.9 0-1.4-.2-1.4-5.3v-.7c0-5 .4-5.3 1.4-5.3z"/><path d="m535.1 195.4c-1.9 3.9-2.5 4.1-3.8 3.3-4.6-2.8-8.2-4.4-13-4.4-6 0-9.9 3.6-9.9 8.5 0 5.4 5.8 8 11.8 11 9 4.6 19 9.8 19 23 0 13.3-8.6 22.8-25.5 22.8-9.1 0-17.5-3-22.6-7.1-1.4-1.2-1.5-2.3.3-5.8l1.3-2.5c1.8-3.4 2.7-4.2 4.1-3.3 5 3.6 10.5 6 16 6 6.8 0 11.3-3.1 11.3-8.9 0-6.5-6-9-12.3-12.2-8.8-4.3-18.5-9.3-18.5-21.7 0-14.1 11.1-22.2 24.3-22.2 7 0 14 2 19 5.6 1.6 1.2 1.4 2.2-.4 5.9z"/><path d="m591.5 215.5c-2 3.8-2.8 3.8-3.8 3.2-3.8-2.6-7.1-4.1-11.7-4.1-7.1 0-13.1 4.7-13.1 16 0 10.6 4.6 16.6 13.8 16.6 4.3 0 7.7-1.2 11.7-3 1.3-.6 1.6-.2 3.4 3.9l.6 1.5c1.6 3.7 1.5 4.3.5 4.9-4.3 2.9-10.8 5.3-18.1 5.3-7.6 0-14-2.2-18.4-6.3-5.4-4.9-8.3-12.6-8.3-22.1 0-9 2.7-16.6 7.7-21.7 4.6-4.7 11.1-7.5 19.7-7.5 6.7 0 13.1 2.3 17.9 6.2 1.2.9.9 1.8-.8 5.3z"/><path d="m652.7 229.8c0 19-9.5 29.8-27 29.8-15.7 0-25.2-9.6-25.2-27.7 0-19 9.5-29.8 27-29.8 15.7-.1 25.2 9.5 25.2 27.7zm-37.4 1.4c0 10.2 3.4 16 10.7 16 8.3 0 11.9-6.3 11.9-16.8 0-10.2-3.4-16-10.7-16-8.3 0-11.9 6.3-11.9 16.8z"/><path d="m674.3 188c6.2 0 6.8.4 6.8 1.6v13.5h12.5c.9 0 1.4.2 1.4 5.3v.7c0 5-.4 5.3-1.4 5.3h-12.5v25.9c0 3 .5 4.7 1.8 5.9 1 .9 2.6 1.5 4.6 1.5 1.7 0 3.6-.4 5.5-1 1-.3 1.6.3 2.7 4.2l.3 1c1.2 3.9 1 4.5-.2 5.1-3.4 1.7-8 2.6-12.1 2.6-5.9 0-10-1.6-12.7-4.3-2.9-2.9-4.3-7.4-4.3-14.2v-26.8h-7.2c-.9 0-1.4-.2-1.4-5.3v-.7c0-5 .4-5.3 1.4-5.3h7.2v-13.5c0-1.2.2-1.6 7-1.6h.6z"/><path d="m712.8 178.7c6 0 6.7.3 6.9 1.4.6 3 .9 16.4.9 30.6v33.4c0 2.4.8 3.6 3.5 3.6h1.3c.9 0 1 .7 1 4.6v.9c0 3.8-.1 4.2-.9 4.6-1.6.7-4.3 1.3-7 1.3-3.8 0-6.8-1.2-8.8-3.2-2.5-2.5-3.4-6.1-3.4-11v-36.5c0-10-.5-24.6-.8-28.4-.1-1.2 0-1.4 6.8-1.4h.5z"/><path d="m771.2 204.5c.1-.9.5-1.4 6.2-1.4h.6c5.4 0 6.1.3 6.1 1.5 0 3.5-.2 14.1-.2 22.7v6.4c0 8.2.3 17.3.7 23 .1 1.5 0 1.9-6 1.9h-.5c-5.1 0-6-.2-6.4-1.4-.3-.6-.5-2.3-.7-3.6-3.1 3.6-9 6-14.4 6-13.8 0-22.3-10.5-22.3-27.7 0-19.1 10.6-29.8 23.2-29.8 5.7 0 10.8 2.7 13.2 6.2zm-1.7 15.1c-2-3-5.5-5-9.1-5-7.7 0-11.2 6.1-11.2 16.9 0 9.3 2.5 16.1 11 16.1 3.4 0 6.4-1.3 7.9-3.2 1.2-1.5 1.5-3.4 1.5-5.9v-18.9z"/><path d="m804.3 203.1c5.1 0 6.1.2 6.5 1.4.3.9.5 2.6.7 4.2 3.4-3.9 8.8-6.6 15.2-6.6s11.5 2.1 14.6 5.7c3.5 3.9 4.9 8.9 4.9 16.9v32.3c0 1.2-.6 1.6-6.8 1.6h-.4c-6.8 0-7-.4-7-1.6v-28.4c0-7.2-.4-9.5-2.1-11.3-1.4-1.6-4-2.4-7-2.4-2.4 0-5.1.5-7 1.7-2.2 1.4-2.7 3-2.9 5.6-.2 2.4-.2 6.3-.2 10.3v24.5c0 1.2-.6 1.6-6.8 1.6h-.5c-6.8 0-7-.4-7-1.6v-29c0-8.2-.3-17.3-.7-23-.1-1.5.3-1.9 6.3-1.9z"/><path d="m900 178.7c6.2 0 6.8.4 6.8 1.6v64.2c0 2.3.9 2.9 3 2.9 1.3 0 1.4.5 1.4 4.3v1.2c0 3.7-.2 4.5-1 4.8-1.9.7-4.7 1.3-7.6 1.3-4.6 0-7.8-2.1-9.1-5.3-3.6 3.8-8.8 5.9-14.6 5.9-13.8 0-22.2-10.7-22.2-27.9 0-18.6 9.3-29.6 23.1-29.6 4.9 0 9 1.7 12.5 4.7v-26.5c0-1.2.2-1.6 7-1.6zm-7.5 40.6c-2.6-3.1-5.8-4.8-9.5-4.8-7.7 0-11.3 6.1-11.3 17.2 0 6.2 1.5 10.2 3.6 12.6 1.9 2.2 4.9 3 7.9 3 2.9 0 6.3-1 7.9-2.7 1.2-1.3 1.5-2.9 1.5-5.7v-19.6z"/></g></svg>