<svg version="1.1" id="Layer_1" xmlns="http://www.w3.org/2000/svg" x="0" y="0" viewBox="0 0 204 38.8" xml:space="preserve"><style>.st0{fill:#0065bd}.st1{fill:#333}</style><g id="Logo" transform="translate(0 .961)"><g id="Group_10868"><g id="Group_10868-2" transform="translate(0 .185)"><path id="Path_10094" class="st0" d="M0 4.2v28.9l23.6-14.3L0 4.2z"/><path id="Path_10095" class="st0" d="M63.5 4.2v28.9L39.9 18.8 63.5 4.2z"/><path id="Path_10096" class="st0" d="M7.8 0h47.4L31.3 13.9 7.8 0z"/><path id="Path_10097" class="st0" d="M7.8 37.6h47.4l-23.9-14-23.5 14z"/></g><path id="Rectangle_1435" class="st1" d="M79.3 0h2v37.8h-2z"/><path class="st1" d="M100.2 20.3V27h-4V7.8h7.5c1.4 0 2.7.3 3.8.8 1.1.5 1.9 1.3 2.5 2.2.6 1 .9 2.1.9 3.3 0 1.9-.6 3.4-1.9 4.4-1.3 1.1-3.1 1.6-5.3 1.6h-3.5zm0-3.2h3.5c1 0 1.8-.2 2.4-.7.5-.5.8-1.2.8-2.1 0-.9-.3-1.7-.8-2.3s-1.3-.9-2.3-.9h-3.6v6zm17.1 9.9h-3.8V6.8h3.8V27zm11.3 0c-.2-.3-.3-.8-.4-1.3-.9 1-2.1 1.5-3.6 1.5-1.4 0-2.6-.4-3.5-1.2-.9-.8-1.4-1.8-1.4-3.1 0-1.5.6-2.7 1.7-3.5 1.1-.8 2.7-1.2 4.9-1.2h1.8v-.8c0-.7-.2-1.2-.5-1.6-.3-.4-.9-.6-1.6-.6-.6 0-1.1.2-1.5.5-.4.3-.5.7-.5 1.3h-3.8c0-.8.3-1.6.8-2.3s1.2-1.3 2.2-1.7c.9-.4 2-.6 3.1-.6 1.8 0 3.2.4 4.2 1.3s1.5 2.1 1.5 3.7v6.2c0 1.4.2 2.4.6 3.1v.3h-4zm-3.2-2.6c.6 0 1.1-.1 1.6-.4.5-.3.8-.6 1.1-1v-2.5h-1.4c-1.9 0-2.9.7-3 2v.2c0 .5.2.9.5 1.2s.7.5 1.2.5zm12.8-11.6l.1 1.6c1-1.3 2.4-1.9 4.1-1.9 1.5 0 2.6.4 3.4 1.3.7.9 1.1 2.2 1.1 4V27h-3.8v-9.1c0-.8-.2-1.4-.5-1.8-.4-.4-.9-.5-1.8-.5-1.1 0-1.9.5-2.4 1.4v10h-3.8V12.8h3.6zm15 0l.1 1.6c1-1.3 2.4-1.9 4.1-1.9 1.5 0 2.6.4 3.4 1.3.7.9 1.1 2.2 1.1 4V27h-3.8v-9.1c0-.8-.2-1.4-.5-1.8-.4-.4-.9-.5-1.8-.5-1.1 0-1.9.5-2.4 1.4v10h-3.8V12.8h3.6zm11.5-3.7c0-.6.2-1 .6-1.4.4-.4.9-.6 1.6-.6.7 0 1.2.2 1.6.6.4.4.6.8.6 1.4 0 .6-.2 1.1-.6 1.4-.4.4-.9.6-1.5.6s-1.2-.2-1.5-.6c-.6-.4-.8-.8-.8-1.4zm4 17.9h-3.8V12.8h3.8V27zm6.6-14.2l.1 1.6c1-1.3 2.4-1.9 4.1-1.9 1.5 0 2.6.4 3.4 1.3.7.9 1.1 2.2 1.1 4V27h-3.8v-9.1c0-.8-.2-1.4-.5-1.8-.4-.4-.9-.5-1.8-.5-1.1 0-1.9.5-2.4 1.4v10h-3.8V12.8h3.6zm10.9 7c0-2.2.5-4 1.6-5.3 1-1.3 2.4-2 4.2-2 1.6 0 2.8.5 3.7 1.6l.2-1.3h3.5v13.8c0 1.2-.3 2.3-.9 3.3-.6.9-1.4 1.6-2.4 2.1s-2.2.7-3.6.7c-1 0-2.1-.2-3.1-.6-1-.4-1.7-1-2.3-1.6l1.7-2.3c.9 1.1 2.1 1.6 3.5 1.6 1 0 1.8-.3 2.4-.8.6-.5.8-1.3.8-2.3v-.8c-.9 1-2 1.5-3.5 1.5-1.7 0-3.1-.7-4.2-2s-1.6-3.1-1.6-5.3v-.3zm3.8.3c0 1.3.3 2.3.8 3 .5.7 1.2 1.1 2.1 1.1 1.2 0 2-.4 2.5-1.3v-6c-.5-.9-1.3-1.3-2.5-1.3-.9 0-1.6.4-2.2 1.1-.4.8-.7 1.9-.7 3.4z"/></g></g></svg>