<svg width="600" height="538" viewBox="0 0 600 538" fill="none" xmlns="http://www.w3.org/2000/svg">
<path d="M396.634 81.4305C395.766 93.5582 391.656 124.333 386.093 141.159C374.684 175.376 367.426 193.008 343.373 220.779C367.865 172.687 373.157 161.291 382.255 116.61C389.659 80.269 380.781 48.6573 369.528 31.8836C366.736 27.8236 360.942 20.1954 353.036 14.3565C344.942 9.38617 346.03 8.33975 333.47 4.39484C321.454 0.606873 316.56 1.04639 311.488 0.606903C305.778 0.177856 310.024 0.544098 300.591 -3.05176e-05L287.415 0.721985L277.354 2.15555L264.899 4.31113L250.049 8.1514L232.093 14.6181L215.372 22.9579L200.71 32.0197L184.333 45.3926L169.672 60.063L159.758 73.2162L151.559 86.3799L145.096 99.3134L139.491 111.828L134.754 127.786L131.303 142.885L129.577 157.127L129.368 167.476L129.378 176.998L130.069 187.755L131.323 198.543L133.028 208.023L135.559 218.456L138.539 227.842L142.66 239.07L147.23 248.697L153.64 259.684L160.281 269.311L169.672 280.988L179.512 291.295L189.928 300.776L198.974 307.567L206.87 313.72C212.904 317.602 208.721 315.258 213.343 317.727C215.675 318.973 222.096 322.907 224.062 323.064C223.445 320.908 221.908 319.109 219.753 313.364C218.07 308.864 218.31 307.965 216.857 302.398C210.593 269.541 209.996 249.042 215.759 214.166C217.955 200.835 227.942 168.292 237.05 151.518C244.392 138.009 250.363 123.621 256.564 112.32C234.227 143.21 218.3 159.669 206.545 198.396C199.905 220.245 195.847 233.629 193.317 256.963C192.71 262.572 195.858 278.404 182.127 276.719C175.852 275.955 166.691 269.08 157.771 253.5C152.04 245.714 147.69 232.54 145.63 227.622C143.12 220.789 139.794 209.52 139.104 205.052C138.393 200.374 136.019 193.028 135.789 182.721C135.737 172.959 147.543 156.624 161.766 181.079C171.983 198.648 181.531 188.916 179.408 170.824C175.831 140.311 157.039 128.989 158.032 98.2774C158.785 75.2881 174.869 71.9815 184.292 84.758C186.801 88.1588 196.035 117.751 212.684 103.719C229.814 89.2784 220.004 64.7195 221.406 44.0951C222.106 33.7672 225.997 20.907 236.925 19.9443C242.865 19.4106 244.538 19.8919 247.707 23.8264C252.444 32.8882 247.111 47.5482 252.873 52.7278C264.596 63.265 270.149 48.6364 284.905 26.254C300.131 3.1601 339.285 8.07816 354.689 31.7057C369.957 55.2496 355.41 94.2488 327.405 95.7242C317.031 96.2788 296.324 101.134 300.434 117.406C305.705 138.689 321.925 120.723 334.16 134.598C342.056 143.555 333.648 154.019 323.577 160.58C308.978 170.133 297.715 168.124 280.962 173.011C270.902 175.951 252.988 183.736 258.185 200.364C263.948 218.812 292.737 202.038 296.847 218.309C304.241 247.588 246.41 237.05 235.827 265.136C225.61 292.153 243.053 326.025 272.01 329.635C296.722 332.754 310.191 318.031 325.156 299.761C328.931 295.157 334.254 282.631 339.389 284.243C345.026 285.111 343.99 290.49 344.775 293.943C346.877 303.141 338.427 313.542 350.526 320.186C363.264 327.187 378.553 313.364 381.607 295.178C384.075 280.539 379.881 271.801 383.311 257.078C388.268 235.512 403.62 229.349 409.487 247.389C414.925 264.162 429.743 267.888 439.051 255.383C444.07 248.634 448.243 231.389 442.868 216.593C436.248 198.376 427.338 190.433 421.335 171.965C419.411 166.021 416.441 147.709 426.46 149.917C432.441 151.225 446.81 180.702 458.669 160.214C464.504 150.116 458.627 130.988 452.917 117.971C446.904 104.273 450.042 110.07 443.223 95.3266C442.407 93.5686 437.827 85.9823 434.596 79.1493C432.441 75.1939 419.505 53.0836 409.445 54.5276C398.569 56.0763 397.115 74.2313 396.634 81.4305Z" fill="white"/>
<path d="M54.8113 380.002H57.1774C58.2334 376.526 59.0742 373.677 59.7097 371.464C60.443 369.144 61.2839 366.764 62.2421 364.346C59.1818 361.918 55.4957 360.018 51.1742 358.648C46.97 357.277 42.0129 356.592 36.3323 356.592C31.5903 356.592 27.0635 357.326 22.7517 358.804C18.5377 360.283 14.793 362.447 11.5274 365.286C8.27156 368.135 5.6317 371.67 3.63714 375.89C1.74035 380.109 0.791957 384.956 0.791957 390.439C0.791957 396.451 1.94567 401.405 4.26288 405.311C6.5801 409.101 9.47416 412.322 12.9549 414.956C16.4258 417.589 20.2194 419.861 24.3258 421.76C28.4323 423.552 32.2259 425.451 35.6968 427.459C39.1775 429.358 42.0716 431.571 44.3888 434.097C46.706 436.633 47.8597 439.893 47.8597 443.907C47.8597 448.333 46.3344 452.132 43.2839 455.294C40.3312 458.457 35.6968 460.043 29.3807 460.043C26.2226 460.043 23.3774 459.622 20.8549 458.77C18.3226 457.82 16.1618 456.557 14.3726 454.981C12.5833 453.395 11.107 451.603 9.95325 449.596C8.79954 447.491 8.00758 445.278 7.58716 442.958H4.58553C4.05756 446.541 3.42204 449.86 2.68875 452.925C1.94568 455.98 1.05594 459.358 0 463.049C2.31721 464.841 5.69037 466.319 10.1097 467.474C14.6366 468.737 19.7403 469.374 25.4307 469.374C31.7468 469.374 37.4371 468.581 42.492 466.995C47.6544 465.311 52.0737 462.941 55.7597 459.877C59.4458 456.714 62.2909 452.974 64.2855 448.646C66.2898 444.221 67.2871 439.374 67.2871 434.097C67.2871 428.085 66.0747 423.18 63.6597 419.391C61.3425 415.484 58.3898 412.214 54.8113 409.58C51.2328 406.839 47.3904 404.577 43.2839 402.776C39.1775 400.876 35.335 398.928 31.7468 396.93C28.1683 394.923 25.1667 392.71 22.7517 390.282C20.4247 387.756 19.271 384.535 19.271 380.638C19.271 376.839 20.7962 373.52 23.8467 370.671C26.907 367.822 30.857 366.402 35.6968 366.402C45.0732 366.402 51.4382 370.935 54.8113 380.002Z" fill="white"/>
<path d="M142.877 469.364C158.149 469.364 169.725 465.408 177.625 457.497C185.525 449.488 189.475 436.309 189.475 417.961C189.475 411.097 189.524 404.616 189.631 398.496C189.847 392.279 190.052 386.64 190.257 381.578C190.472 376.408 190.687 371.875 190.893 367.968C191.108 364.071 191.313 360.958 191.528 358.637C190.159 358.853 188.84 359.058 187.578 359.274C186.317 359.381 184.997 359.43 183.628 359.43C182.465 359.43 181.203 359.381 179.835 359.274C178.466 359.058 177.048 358.853 175.572 358.637C175.992 365.922 176.305 373.197 176.52 380.471C176.735 387.638 176.833 394.864 176.833 402.139C176.833 409.521 176.628 416.639 176.207 423.493C175.787 430.239 174.623 436.25 172.727 441.528C170.937 446.795 168.258 451.015 164.67 454.178C161.092 457.34 156.144 458.926 149.828 458.926C144.666 458.926 140.139 458.398 136.238 457.34C132.347 456.293 129.032 454.178 126.285 451.015C123.655 447.745 121.66 443.163 120.291 437.259C118.922 431.355 118.238 423.601 118.238 414.005C118.238 404.939 118.336 396.019 118.551 387.266C118.766 378.415 119.392 368.869 120.448 358.637C118.336 358.853 116.185 359.058 113.975 359.274C111.756 359.381 109.595 359.43 107.493 359.43C105.391 359.43 103.23 359.381 101.02 359.274C98.8007 359.058 96.6497 358.853 94.5378 358.637C94.7529 361.281 94.9094 365.236 95.0169 370.504C95.1245 375.781 95.1734 382.684 95.1734 391.222C95.1734 394.071 95.1245 396.812 95.0169 399.446V407.671C95.0169 410.52 94.9583 413.633 94.8605 417.011V428.241C94.8605 435.722 96.0631 442.105 98.4879 447.383C101.02 452.543 104.442 456.811 108.754 460.189C113.076 463.46 118.13 465.78 123.919 467.151C129.814 468.629 136.13 469.364 142.877 469.364Z" fill="white"/>
<path fill-rule="evenodd" clip-rule="evenodd" d="M249.972 417.481L278.248 467.307C280.673 467.092 283.039 466.994 285.356 466.994H292.62H299.728C302.046 466.994 304.412 467.092 306.836 467.307C301.048 458.554 295.25 449.752 289.462 440.891C283.674 431.923 278.248 422.964 273.193 413.995C281.093 411.998 287.145 408.571 291.359 403.715C295.573 398.868 297.675 392.592 297.675 384.896C297.675 380.148 296.727 376.085 294.83 372.716C293.041 369.231 290.567 366.333 287.409 364.012C286.04 363.063 284.564 362.279 282.99 361.643C281.513 360.909 279.724 360.321 277.612 359.9C275.618 359.479 273.193 359.166 270.348 358.95C267.503 358.745 264.081 358.637 260.082 358.637C254.714 358.637 250.187 358.794 246.501 359.117C242.923 359.322 239.706 359.43 236.861 359.43C234.231 359.43 231.864 359.371 229.753 359.273C227.65 359.058 225.705 358.852 223.906 358.637C224.336 365.491 224.649 372.344 224.854 379.198C225.069 385.954 225.177 393.699 225.177 402.452V423.962C225.177 432.716 225.069 440.519 224.854 447.373C224.649 454.128 224.336 460.767 223.906 467.307C225.705 467.092 227.65 466.994 229.753 466.994H236.861H243.969C246.081 466.994 248.026 467.092 249.816 467.307C249.395 460.767 249.082 454.128 248.867 447.373C248.652 440.519 248.554 432.716 248.554 423.962V417.481H249.972ZM273.506 388.372C273.506 395.97 271.668 401.659 267.982 405.458C264.296 409.149 258.977 410.999 252.025 410.999H250.285C249.767 410.892 249.18 410.784 248.554 410.676C248.554 396.342 248.711 381.998 249.024 367.655C253.345 367.655 257.031 367.86 260.082 368.291C263.24 368.712 265.772 369.662 267.659 371.13C269.663 372.501 271.14 374.557 272.088 377.299C273.036 380.05 273.506 383.731 273.506 388.372Z" fill="white"/>
<path fill-rule="evenodd" clip-rule="evenodd" d="M354.462 417.481L382.738 467.307C385.163 467.092 387.529 466.994 389.846 466.994H397.11H404.218C406.536 466.994 408.902 467.092 411.326 467.307C405.538 458.554 399.74 449.752 393.952 440.891C388.164 431.923 382.738 422.964 377.683 413.995C385.583 411.998 391.635 408.571 395.849 403.715C400.053 398.868 402.165 392.592 402.165 384.896C402.165 380.148 401.217 376.085 399.32 372.716C397.531 369.231 395.057 366.333 391.899 364.012C390.53 363.063 389.054 362.279 387.48 361.643C386.003 360.909 384.214 360.321 382.102 359.9C380.108 359.479 377.683 359.166 374.838 358.95C371.993 358.745 368.571 358.637 364.572 358.637C359.204 358.637 354.677 358.794 350.991 359.117C347.403 359.322 344.196 359.43 341.351 359.43C338.721 359.43 336.354 359.371 334.243 359.273C332.14 359.058 330.195 358.852 328.396 358.637C328.826 365.491 329.139 372.344 329.344 379.198C329.559 385.954 329.667 393.699 329.667 402.452V423.962C329.667 432.716 329.559 440.519 329.344 447.373C329.139 454.128 328.826 460.767 328.396 467.307C330.195 467.092 332.14 466.994 334.243 466.994H341.351H348.459C350.571 466.994 352.516 467.092 354.305 467.307C353.885 460.767 353.562 454.128 353.357 447.373C353.142 440.519 353.044 432.716 353.044 423.962V417.481H354.462ZM377.996 388.372C377.996 395.97 376.158 401.659 372.472 405.458C368.786 409.149 363.467 410.999 356.515 410.999H354.775C354.247 410.892 353.67 410.784 353.044 410.676C353.044 396.342 353.201 381.998 353.514 367.655C357.835 367.655 361.521 367.86 364.572 368.291C367.73 368.712 370.262 369.662 372.149 371.13C374.153 372.501 375.63 374.557 376.578 377.299C377.526 380.05 377.996 383.731 377.996 388.372Z" fill="white"/>
<path d="M432.488 402.452V423.962C432.488 432.716 432.38 440.519 432.175 447.373C431.96 454.128 431.647 460.767 431.226 467.307C432.067 467.199 433.064 467.092 434.228 466.984H439.596H449.07H464.713H481.775C485.979 467.092 489.509 467.199 492.354 467.307C492.139 466.671 491.982 465.878 491.875 464.938C491.777 463.978 491.718 462.666 491.718 460.982C491.718 459.288 491.777 457.976 491.875 457.027C491.982 456.077 492.139 455.019 492.354 453.854C486.243 454.598 480.191 455.127 474.188 455.44C468.184 455.754 462.181 455.92 456.178 455.92C455.865 449.585 455.709 442.996 455.709 436.142V426.019C455.816 422.65 455.865 419.273 455.865 415.895C467.764 415.895 479.722 416.374 491.718 417.314C491.513 415.63 491.298 414.367 491.093 413.525C490.985 412.576 490.936 411.675 490.936 410.833C490.936 409.775 490.985 408.777 491.093 407.827C491.2 406.877 491.405 405.506 491.718 403.715C485.715 404.028 479.927 404.292 474.344 404.508C468.869 404.723 462.709 404.88 455.865 404.978V387.736C455.973 382.047 456.237 376.3 456.657 370.504C457.811 370.504 459.756 370.553 462.504 370.66C465.241 370.758 468.292 370.925 471.665 371.13C475.136 371.346 478.666 371.551 482.244 371.767C485.93 371.972 489.294 372.188 492.354 372.393C492.139 371.238 491.982 370.181 491.875 369.231C491.777 368.281 491.718 366.969 491.718 365.275C491.718 362.534 491.933 360.321 492.354 358.637C490.252 358.843 486.135 359.058 480.034 359.264C474.031 359.371 467.138 359.43 459.346 359.43C454.604 359.43 449.911 359.322 445.286 359.107C440.652 358.901 435.959 358.745 431.226 358.637C431.647 365.491 431.96 372.344 432.175 379.198C432.38 385.944 432.488 393.699 432.488 402.452Z" fill="white"/>
<path d="M561.302 406.094H560.989C559.825 404.302 558.3 401.561 556.403 397.87C554.506 394.179 552.453 390.066 550.243 385.533C548.034 381 545.765 376.359 543.448 371.61C541.239 366.862 539.244 362.544 537.445 358.637C535.03 358.853 532.654 359.068 530.337 359.274C528.127 359.381 525.81 359.43 523.395 359.43C520.97 359.43 518.594 359.381 516.287 359.274C513.97 359.068 511.594 358.853 509.179 358.637C510.44 360.86 512.386 364.443 515.016 369.398C517.754 374.352 520.706 379.894 523.864 386.003C527.13 392.122 530.444 398.447 533.818 404.988C537.289 411.42 540.349 417.275 542.979 422.543C543.086 424.971 543.135 427.448 543.135 429.984C543.243 432.403 543.292 434.831 543.292 437.259C543.292 442.321 543.028 447.383 542.51 452.445C541.972 457.507 541.61 462.461 541.395 467.307C543.614 467.102 545.824 466.994 548.034 466.994H554.829H561.458C563.775 466.994 566.043 467.102 568.253 467.307C567.51 461.511 567.041 455.979 566.826 450.702C566.728 445.434 566.669 440.098 566.669 434.723C566.669 432.089 566.728 429.504 566.826 426.978C566.933 424.345 566.992 421.75 566.992 419.224C569.514 414.27 572.301 408.894 575.361 403.088C578.519 397.184 581.628 391.437 584.679 385.846C587.729 380.256 590.575 375.096 593.205 370.347C595.942 365.491 598.211 361.594 600 358.637C598.631 358.853 597.311 359.068 596.05 359.274C594.896 359.381 593.684 359.43 592.423 359.43C591.152 359.43 589.89 359.381 588.629 359.274C587.465 359.068 586.312 358.853 585.158 358.637C583.359 362.544 581.521 366.656 579.624 370.974C577.727 375.194 575.782 379.414 573.777 383.634C571.783 387.854 569.73 391.917 567.618 395.814C565.516 399.613 563.413 403.039 561.302 406.094Z" fill="white"/>
<path d="M37.9229 534.111L38.4627 530.538L38.2228 530.297C37.6631 530.748 36.9533 531.268 36.1137 531.869C35.304 532.44 34.3844 532.98 33.3348 533.501C32.3252 533.991 31.1957 534.412 29.9462 534.772C28.7467 535.142 27.4173 535.322 25.9678 535.322C23.5888 535.322 21.3797 534.942 19.3206 534.171C17.3114 533.411 15.5321 532.239 14.0028 530.668C12.5134 529.046 11.3438 527.034 10.5042 524.612C9.65454 522.159 9.23471 519.257 9.23471 515.903C9.23471 512.56 9.65454 509.677 10.5042 507.255C11.3438 504.802 12.5134 502.78 14.0028 501.209C15.5321 499.597 17.3114 498.406 19.3206 497.645C21.3797 496.874 23.5888 496.494 25.9678 496.494C27.4173 496.494 28.7467 496.694 29.9462 497.095C31.1557 497.465 32.2453 497.925 33.2149 498.486C34.1745 499.057 35.0241 499.637 35.7538 500.248C36.4735 500.848 37.0333 501.389 37.4431 501.879L37.803 501.759C37.9229 501.109 38.0829 500.298 38.2828 499.337C38.4827 498.366 38.7526 497.605 39.0725 497.035C37.3832 496.274 35.424 495.623 33.2149 495.103C31.0358 494.542 28.6268 494.252 25.9678 494.252C22.6192 494.252 19.5605 494.742 16.7816 495.703C14.0028 496.674 11.6137 498.086 9.59456 499.937C7.62537 501.799 6.07601 504.072 4.94647 506.774C3.85692 509.437 3.31714 512.48 3.31714 515.903C3.31714 519.337 3.85692 522.4 4.94647 525.102C6.07601 527.755 7.60538 530.017 9.53459 531.869C11.5138 533.731 13.8428 535.122 16.5417 536.043C19.2406 536.934 22.1794 537.375 25.3581 537.375C26.8475 537.375 28.2769 537.254 29.6463 537.014C31.0158 536.774 32.2453 536.504 33.3348 536.223C34.4644 535.903 35.404 535.563 36.1737 535.202C36.9733 534.792 37.5631 534.432 37.9229 534.111Z" fill="white"/>
<path fill-rule="evenodd" clip-rule="evenodd" d="M87.1576 515.903C87.1576 519.247 86.7378 522.149 85.8881 524.612C85.0485 527.034 83.859 529.046 82.3296 530.658C80.8402 532.229 79.0609 533.401 77.0118 534.171C75.0026 534.932 72.8035 535.312 70.4245 535.312C68.0954 535.312 65.8963 534.932 63.8472 534.171C61.838 533.401 60.0587 532.229 58.5294 530.658C57.04 529.046 55.8705 527.034 55.0308 524.612C54.1812 522.149 53.7613 519.247 53.7613 515.903C53.7613 512.56 54.1812 509.677 55.0308 507.255C55.8705 504.792 57.04 502.78 58.5294 501.209C60.0587 499.597 61.838 498.406 63.8472 497.635C65.8963 496.874 68.0954 496.494 70.4245 496.494C72.8035 496.494 75.0026 496.874 77.0118 497.635C79.0609 498.406 80.8402 499.597 82.3296 501.209C83.859 502.78 85.0485 504.792 85.8881 507.255C86.7378 509.677 87.1576 512.56 87.1576 515.903ZM47.8438 515.903C47.8438 519.327 48.3835 522.39 49.4731 525.092C50.6026 527.755 52.152 530.017 54.1212 531.869C56.1304 533.721 58.5294 535.112 61.3082 536.043C64.0871 536.934 67.1258 537.375 70.4245 537.375C73.7731 537.375 76.8319 536.934 79.6107 536.043C82.3896 535.112 84.7586 533.721 86.7378 531.869C88.747 530.017 90.2963 527.755 91.3859 525.092C92.5154 522.39 93.0752 519.327 93.0752 515.903C93.0752 512.48 92.5154 509.437 91.3859 506.774C90.2963 504.072 88.747 501.789 86.7378 499.937C84.7586 498.086 82.3896 496.674 79.6107 495.703C76.8319 494.732 73.7731 494.252 70.4245 494.252C67.1258 494.252 64.0871 494.732 61.3082 495.703C58.5294 496.674 56.1304 498.086 54.1212 499.937C52.152 501.789 50.6026 504.072 49.4731 506.774C48.3835 509.437 47.8438 512.48 47.8438 515.903Z" fill="white"/>
<path d="M137.225 514.692C137.225 515.943 137.205 517.315 137.165 518.806C137.125 520.298 136.985 521.789 136.745 523.281C136.505 524.772 136.096 526.203 135.536 527.575C135.006 528.946 134.266 530.157 133.297 531.198C132.337 532.249 131.088 533.1 129.558 533.741C128.069 534.382 126.21 534.712 124 534.712C121.741 534.712 119.852 534.452 118.323 533.921C116.793 533.361 115.524 532.61 114.514 531.689C113.515 530.718 112.725 529.607 112.165 528.356C111.636 527.074 111.256 525.743 111.016 524.372C110.776 522.96 110.636 521.529 110.596 520.067C110.556 518.586 110.526 517.154 110.526 515.783C110.526 513.521 110.556 511.349 110.596 509.247C110.636 507.155 110.696 505.193 110.776 503.381C110.856 501.569 110.936 499.957 111.016 498.546C111.096 497.095 111.176 495.923 111.256 495.033C110.816 495.113 110.366 495.193 109.926 495.273C109.526 495.313 109.107 495.333 108.657 495.333C108.177 495.333 107.647 495.313 107.087 495.273C106.528 495.193 105.998 495.113 105.518 495.033C105.598 496.844 105.678 499.067 105.758 501.689C105.838 504.312 105.878 507.315 105.878 510.698C105.878 512.23 105.818 513.741 105.698 515.233C105.618 516.684 105.578 518.356 105.578 520.258C105.578 526.183 106.947 530.518 109.686 533.26C112.425 536.003 116.813 537.375 122.851 537.375C125.59 537.375 128.009 536.984 130.098 536.223C132.237 535.453 134.026 534.321 135.476 532.83C136.925 531.349 138.035 529.527 138.794 527.395C139.604 525.252 140.024 522.83 140.064 520.137C140.104 517.915 140.164 515.633 140.244 513.301C140.324 510.918 140.404 508.626 140.484 506.404C140.564 504.142 140.664 502.049 140.794 500.118C140.914 498.136 141.033 496.444 141.153 495.033C140.464 495.243 139.864 495.333 139.334 495.333C138.934 495.333 138.535 495.313 138.135 495.273C137.725 495.193 137.305 495.113 136.865 495.033C137.025 496.204 137.125 498.336 137.165 501.449C137.205 504.552 137.225 508.966 137.225 514.692Z" fill="white"/>
<path d="M190.984 537.375H191.824V535.383C191.824 534.412 191.804 533.28 191.764 531.989C191.764 530.658 191.744 529.246 191.704 527.755C191.704 526.223 191.684 524.712 191.644 523.22V518.926V515.303C191.644 514.131 191.684 512.58 191.764 510.648C191.854 508.706 191.934 506.734 192.014 504.712C192.134 502.7 192.234 500.808 192.314 499.027C192.434 497.255 192.534 495.923 192.614 495.043C191.804 495.243 191.164 495.343 190.685 495.343C190.115 495.343 189.435 495.243 188.625 495.043C188.825 498.586 188.955 502.38 188.995 506.414C189.075 510.398 189.115 514.512 189.115 518.746V526.974C187.256 525.112 185.087 522.88 182.588 520.258C180.129 517.595 177.52 514.792 174.741 511.849C172.002 508.866 169.223 505.863 166.404 502.84C163.626 499.777 161.007 496.914 158.548 494.252H157.588C157.668 495.623 157.708 497.695 157.708 500.478C157.748 503.261 157.768 506.594 157.768 510.458C157.768 511.789 157.748 513.301 157.708 514.992C157.668 516.694 157.608 518.426 157.528 520.197C157.488 521.969 157.408 523.741 157.288 525.523C157.198 527.295 157.118 528.946 157.038 530.478C156.958 531.969 156.858 533.26 156.738 534.352C156.658 535.443 156.579 536.183 156.499 536.584C157.178 536.504 157.928 536.464 158.738 536.464C159.497 536.464 160.207 536.504 160.847 536.584C160.807 536.263 160.767 535.663 160.727 534.772C160.687 533.851 160.647 532.78 160.607 531.569C160.567 530.358 160.527 529.046 160.487 527.635C160.447 526.223 160.407 524.832 160.367 523.461C160.367 522.099 160.347 520.788 160.307 519.527V516.384C160.307 513.12 160.327 510.538 160.367 508.646C160.407 506.754 160.447 505.243 160.487 504.112C165.715 509.677 170.953 515.283 176.19 520.928C181.418 526.534 186.356 532.009 190.984 537.375Z" fill="white"/>
<path d="M216.581 510.681V521.082C216.581 523.744 216.521 526.367 216.401 528.949C216.321 531.522 216.221 534.064 216.101 536.567C217.021 536.487 218.01 536.447 219.06 536.447C220.1 536.447 221.089 536.487 222.019 536.567C221.899 534.064 221.779 531.522 221.659 528.949C221.569 526.367 221.529 523.744 221.529 521.082V510.681C221.529 506.487 221.589 502.313 221.719 498.159C222.758 498.159 223.848 498.179 224.978 498.219C226.147 498.219 227.287 498.259 228.416 498.339C229.586 498.379 230.695 498.449 231.745 498.519C232.824 498.609 233.794 498.709 234.644 498.829C234.434 498.099 234.334 497.478 234.334 496.948C234.334 496.467 234.434 495.826 234.644 495.016C231.985 495.096 229.386 495.176 226.847 495.256C224.308 495.296 221.719 495.316 219.06 495.316C216.401 495.316 213.802 495.296 211.263 495.256C208.734 495.176 206.135 495.096 203.476 495.016C203.676 495.826 203.776 496.447 203.776 496.888C203.776 497.458 203.676 498.099 203.476 498.829C204.316 498.709 205.266 498.609 206.315 498.519C207.405 498.449 208.504 498.379 209.634 498.339C210.803 498.259 211.953 498.219 213.082 498.219C214.242 498.179 215.351 498.159 216.401 498.159C216.521 502.313 216.581 506.487 216.581 510.681Z" fill="white"/>
<path d="M256.078 519.612C256.078 522.875 256.058 525.998 256.018 528.981C255.978 531.974 255.838 534.507 255.598 536.609C256.518 536.519 257.507 536.489 258.557 536.489C259.596 536.489 260.586 536.519 261.516 536.609C261.436 535.758 261.356 534.647 261.276 533.275C261.236 531.864 261.186 530.352 261.146 528.741C261.106 527.089 261.066 525.418 261.026 523.726V518.941C261.675 517.7 262.435 516.309 263.325 514.777C264.214 513.195 265.234 511.444 266.404 509.512C267.573 507.58 268.923 505.418 270.452 503.035C271.981 500.663 273.711 498 275.64 495.057C274.64 495.258 273.851 495.358 273.291 495.358C272.721 495.358 271.941 495.258 270.932 495.057C270.132 496.789 269.262 498.581 268.333 500.443C267.413 502.255 266.444 504.066 265.444 505.878C264.434 507.7 263.425 509.472 262.415 511.203C261.416 512.935 260.446 514.527 259.516 515.978C257.427 512.315 255.428 508.781 253.539 505.398C251.69 502.014 249.86 498.561 248.041 495.057C247.481 495.138 246.922 495.218 246.352 495.298C245.832 495.338 245.282 495.358 244.722 495.358C244.163 495.358 243.593 495.338 243.033 495.298C242.513 495.218 241.964 495.138 241.404 495.057C241.804 495.698 242.383 496.669 243.153 497.96C243.913 499.212 244.762 500.643 245.692 502.255C246.652 503.826 247.661 505.498 248.711 507.27C249.76 509.011 250.74 510.683 251.67 512.295C252.629 513.866 253.499 515.318 254.269 516.649C255.068 517.94 255.678 518.931 256.078 519.612Z" fill="white"/>
<path d="M338.283 534.111L338.823 530.538L338.583 530.297C338.023 530.748 337.314 531.268 336.474 531.869C335.664 532.44 334.745 532.98 333.695 533.501C332.686 533.991 331.556 534.412 330.307 534.772C329.107 535.142 327.778 535.322 326.328 535.322C323.949 535.322 321.73 534.942 319.681 534.171C317.672 533.411 315.892 532.239 314.363 530.668C312.874 529.046 311.714 527.034 310.865 524.612C310.015 522.159 309.595 519.257 309.595 515.903C309.595 512.56 310.015 509.677 310.865 507.255C311.714 504.802 312.874 502.78 314.363 501.209C315.892 499.597 317.672 498.406 319.681 497.645C321.73 496.874 323.949 496.494 326.328 496.494C327.778 496.494 329.107 496.694 330.307 497.095C331.516 497.465 332.606 497.925 333.575 498.486C334.545 499.057 335.384 499.637 336.104 500.248C336.834 500.848 337.394 501.389 337.803 501.879L338.163 501.759C338.283 501.109 338.443 500.298 338.643 499.337C338.843 498.366 339.113 497.605 339.433 497.035C337.743 496.274 335.784 495.623 333.575 495.103C331.396 494.542 328.987 494.252 326.328 494.252C322.98 494.252 319.921 494.742 317.142 495.703C314.363 496.674 311.974 498.086 309.955 499.937C307.986 501.799 306.436 504.072 305.307 506.774C304.217 509.437 303.677 512.48 303.677 515.903C303.677 519.337 304.217 522.4 305.307 525.102C306.436 527.755 307.966 530.017 309.895 531.869C311.874 533.731 314.203 535.122 316.902 536.043C319.601 536.934 322.54 537.375 325.718 537.375C327.208 537.375 328.637 537.254 330.007 537.014C331.376 536.774 332.606 536.504 333.695 536.223C334.825 535.903 335.764 535.563 336.534 535.202C337.334 534.792 337.923 534.432 338.283 534.111Z" fill="white"/>
<path fill-rule="evenodd" clip-rule="evenodd" d="M387.506 515.903C387.506 519.247 387.086 522.149 386.237 524.612C385.397 527.034 384.208 529.046 382.678 530.658C381.189 532.229 379.41 533.401 377.36 534.171C375.351 534.932 373.152 535.312 370.773 535.312C368.444 535.312 366.245 534.932 364.196 534.171C362.177 533.401 360.407 532.229 358.878 530.658C357.389 529.046 356.219 527.034 355.379 524.612C354.53 522.149 354.11 519.247 354.11 515.903C354.11 512.56 354.53 509.677 355.379 507.255C356.219 504.792 357.389 502.78 358.878 501.209C360.407 499.597 362.177 498.406 364.196 497.635C366.245 496.874 368.444 496.494 370.773 496.494C373.152 496.494 375.351 496.874 377.36 497.635C379.41 498.406 381.189 499.597 382.678 501.209C384.208 502.78 385.397 504.792 386.237 507.255C387.086 509.677 387.506 512.56 387.506 515.903ZM348.192 515.903C348.192 519.327 348.732 522.39 349.822 525.092C350.951 527.755 352.501 530.017 354.47 531.869C356.479 533.721 358.878 535.112 361.657 536.043C364.436 536.934 367.474 537.375 370.773 537.375C374.122 537.375 377.18 536.934 379.959 536.043C382.738 535.112 385.107 533.721 387.086 531.869C389.096 530.017 390.645 527.755 391.734 525.092C392.864 522.39 393.424 519.327 393.424 515.903C393.424 512.48 392.864 509.437 391.734 506.774C390.645 504.072 389.096 501.789 387.086 499.937C385.107 498.086 382.738 496.674 379.959 495.703C377.18 494.732 374.122 494.252 370.773 494.252C367.474 494.252 364.436 494.732 361.657 495.703C358.878 496.674 356.479 498.086 354.47 499.937C352.501 501.789 350.951 504.072 349.822 506.774C348.732 509.437 348.192 512.48 348.192 515.903Z" fill="white"/>
<path d="M437.57 514.692C437.57 515.943 437.55 517.315 437.51 518.806C437.47 520.298 437.33 521.789 437.09 523.281C436.841 524.772 436.441 526.203 435.881 527.575C435.361 528.946 434.611 530.157 433.642 531.198C432.682 532.249 431.433 533.1 429.903 533.741C428.414 534.382 426.555 534.712 424.346 534.712C422.087 534.712 420.197 534.452 418.668 533.921C417.139 533.361 415.869 532.61 414.86 531.689C413.86 530.718 413.07 529.607 412.511 528.356C411.981 527.074 411.601 525.743 411.361 524.372C411.121 522.96 410.981 521.529 410.941 520.067C410.891 518.586 410.871 517.154 410.871 515.783C410.871 513.521 410.891 511.349 410.941 509.247C410.981 507.155 411.041 505.193 411.121 503.381C411.201 501.569 411.281 499.957 411.361 498.546C411.441 497.095 411.521 495.923 411.601 495.033C411.161 495.113 410.711 495.193 410.271 495.273C409.872 495.313 409.442 495.333 409.002 495.333C408.522 495.333 407.992 495.313 407.433 495.273C406.873 495.193 406.343 495.113 405.863 495.033C405.943 496.844 406.023 499.067 406.103 501.689C406.183 504.312 406.223 507.315 406.223 510.698C406.223 512.23 406.163 513.741 406.043 515.233C405.963 516.684 405.923 518.356 405.923 520.258C405.923 526.183 407.293 530.518 410.032 533.26C412.77 536.003 417.159 537.375 423.196 537.375C425.935 537.375 428.354 536.984 430.443 536.223C432.572 535.453 434.372 534.321 435.821 532.83C437.27 531.349 438.38 529.527 439.14 527.395C439.949 525.252 440.369 522.83 440.409 520.137C440.449 517.915 440.509 515.633 440.589 513.301C440.669 510.918 440.749 508.626 440.829 506.404C440.909 504.142 441.009 502.049 441.129 500.118C441.259 498.136 441.379 496.444 441.499 495.033C440.809 495.243 440.209 495.333 439.679 495.333C439.28 495.333 438.88 495.313 438.48 495.273C438.07 495.193 437.65 495.113 437.21 495.033C437.37 496.204 437.47 498.336 437.51 501.449C437.55 504.552 437.57 508.966 437.57 514.692Z" fill="white"/>
<path d="M491.324 537.375H492.164V535.383C492.164 534.412 492.154 533.28 492.104 531.989C492.104 530.658 492.084 529.246 492.044 527.755C492.044 526.223 492.024 524.712 491.984 523.22V518.926V515.303C491.984 514.131 492.024 512.58 492.104 510.648C492.194 508.706 492.274 506.734 492.354 504.712C492.474 502.7 492.573 500.808 492.653 499.027C492.773 497.255 492.873 495.923 492.953 495.043C492.154 495.243 491.504 495.343 491.024 495.343C490.454 495.343 489.775 495.243 488.965 495.043C489.165 498.586 489.295 502.38 489.335 506.414C489.415 510.398 489.455 514.512 489.455 518.746V526.974C487.596 525.112 485.426 522.88 482.927 520.258C480.468 517.595 477.86 514.792 475.081 511.849C472.342 508.866 469.563 505.863 466.744 502.84C463.965 499.777 461.346 496.914 458.887 494.252H457.928C458.008 495.623 458.048 497.695 458.048 500.478C458.088 503.261 458.108 506.594 458.108 510.458C458.108 511.789 458.088 513.301 458.048 514.992C458.008 516.694 457.948 518.426 457.868 520.197C457.828 521.969 457.748 523.741 457.628 525.523C457.538 527.295 457.458 528.946 457.378 530.478C457.298 531.969 457.198 533.26 457.078 534.352C456.998 535.443 456.918 536.183 456.838 536.584C457.518 536.504 458.268 536.464 459.077 536.464C459.837 536.464 460.537 536.504 461.186 536.584C461.146 536.263 461.106 535.663 461.066 534.772C461.026 533.851 460.986 532.78 460.946 531.569C460.906 530.358 460.866 529.046 460.827 527.635C460.787 526.223 460.747 524.832 460.707 523.461C460.707 522.099 460.687 520.788 460.647 519.527V516.384C460.647 513.12 460.667 510.538 460.707 508.646C460.747 506.754 460.787 505.243 460.827 504.112C466.054 509.677 471.292 515.283 476.53 520.928C481.758 526.534 486.696 532.009 491.324 537.375Z" fill="white"/>
<path d="M539.75 534.111L540.3 530.538L540.05 530.297C539.49 530.748 538.781 531.268 537.941 531.869C537.131 532.44 536.212 532.98 535.162 533.501C534.153 533.991 533.023 534.412 531.784 534.772C530.574 535.142 529.245 535.322 527.795 535.322C525.416 535.322 523.207 534.942 521.148 534.171C519.139 533.411 517.36 532.239 515.83 530.668C514.341 529.046 513.181 527.034 512.332 524.612C511.482 522.159 511.062 519.257 511.062 515.903C511.062 512.56 511.482 509.677 512.332 507.255C513.181 504.802 514.341 502.78 515.83 501.209C517.36 499.597 519.139 498.406 521.148 497.645C523.207 496.874 525.416 496.494 527.795 496.494C529.245 496.494 530.574 496.694 531.784 497.095C532.983 497.465 534.073 497.925 535.042 498.486C536.012 499.057 536.852 499.637 537.581 500.248C538.301 500.848 538.861 501.389 539.271 501.879L539.63 501.759C539.75 501.109 539.91 500.298 540.11 499.337C540.31 498.366 540.58 497.605 540.9 497.035C539.211 496.274 537.251 495.623 535.042 495.103C532.863 494.542 530.454 494.252 527.795 494.252C524.457 494.252 521.388 494.742 518.609 495.703C515.83 496.674 513.441 498.086 511.422 499.937C509.453 501.799 507.903 504.072 506.774 506.774C505.684 509.437 505.145 512.48 505.145 515.903C505.145 519.337 505.684 522.4 506.774 525.102C507.903 527.755 509.433 530.017 511.362 531.869C513.341 533.731 515.67 535.122 518.369 536.043C521.068 536.934 524.007 537.375 527.185 537.375C528.675 537.375 530.104 537.254 531.474 537.014C532.843 536.774 534.073 536.504 535.162 536.223C536.292 535.903 537.231 535.563 538.001 535.202C538.801 534.792 539.39 534.432 539.75 534.111Z" fill="white"/>
<path d="M553.032 510.681V521.082C553.032 523.744 552.972 526.367 552.852 528.949C552.772 531.522 552.672 534.064 552.552 536.567C553.471 536.487 554.461 536.447 555.511 536.447C556.56 536.447 557.54 536.487 558.469 536.567C558.349 534.064 558.229 531.522 558.109 528.949C558.029 526.367 557.989 523.744 557.989 521.082V510.681C557.989 508.019 558.029 505.416 558.109 502.883C558.229 500.301 558.349 497.678 558.469 495.016C557.95 495.096 557.44 495.176 556.96 495.256C556.47 495.296 555.99 495.316 555.511 495.316C555.031 495.316 554.541 495.296 554.061 495.256C553.571 495.176 553.072 495.096 552.552 495.016C552.672 497.678 552.772 500.301 552.852 502.883C552.972 505.416 553.032 508.019 553.032 510.681Z" fill="white"/>
<path d="M574.053 510.681V521.082C574.053 523.744 573.993 526.367 573.873 528.949C573.793 531.522 573.693 534.064 573.573 536.567C575.502 536.487 577.351 536.447 579.13 536.447H584.738H590.296C592.145 536.447 594.004 536.487 595.854 536.567C595.654 535.926 595.554 535.376 595.554 534.935C595.554 534.445 595.654 533.844 595.854 533.123C592.835 533.524 590.016 533.764 587.397 533.844C584.778 533.884 582.049 533.904 579.19 533.904C579.14 530.961 579.11 527.638 579.061 523.924C579.031 520.171 579.001 515.766 579.001 510.681C579.001 508.019 579.051 505.416 579.13 502.883C579.25 500.301 579.37 497.678 579.49 495.016C578.961 495.096 578.461 495.176 577.981 495.256C577.491 495.296 577.011 495.316 576.532 495.316C576.052 495.316 575.562 495.296 575.082 495.256C574.592 495.176 574.093 495.096 573.573 495.016C573.693 497.678 573.793 500.301 573.873 502.883C573.993 505.416 574.053 508.019 574.053 510.681Z" fill="white"/>
</svg>
