<svg height="100" preserveAspectRatio="xMinYMid" viewBox="343.5 -29.8 402.5 99.8" width="410" xmlns="http://www.w3.org/2000/svg"><path d="m482.6-4.6 5.2 22.4 6.3-22.4h4.1l6.3 22.4 5.2-22.4h4.1l-7.5 27.6h-4l-6.3-22.9-6.4 22.9h-4l-7.1-27.6zm45.7 8c1.3.7 2.3 1.5 3.1 2.6.7 1 1.1 2.2 1.3 3.5.2.9.3 2.4.3 4.4h-14.6c.1 2.1.5 3.7 1.4 4.9s2.3 1.9 4.2 1.9c1.8 0 3.2-.5 4.2-1.8.5-.7 1-1.4 1.2-2.3h3.3c-.1.8-.3 1.5-.9 2.4-.5.9-1.1 1.6-1.6 2.2-1 1-2.3 1.6-3.7 2-.8.2-1.8.3-2.7.3-2.5 0-4.6-.9-6.4-2.7-1.8-1.9-2.6-4.4-2.6-7.7 0-3.2.9-5.8 2.6-7.9 1.8-2 4.1-3.1 6.8-3.1 1.5.3 2.8.6 4.1 1.3zm1.2 7.9c-.1-1.4-.4-2.6-1-3.5-.9-1.6-2.4-2.4-4.6-2.4-1.5 0-2.9.5-3.8 1.6-1 1.1-1.6 2.5-1.6 4.3-.1 0 11 0 11 0zm7.9-15.9h3.4v27.6h-3.4zm21.7 8.6c1.4 1.1 2.3 3 2.5 5.7h-3.3c-.2-1.2-.7-2.3-1.3-3.1-.8-.8-1.9-1.2-3.4-1.2-2.2 0-3.7 1.1-4.6 3.2-.5 1.3-.9 3.1-.9 5.1s.4 3.7 1.3 5.1 2.2 2.1 4.1 2.1c1.4 0 2.5-.4 3.3-1.3s1.4-2 1.6-3.5h3.3c-.3 2.6-1.3 4.6-2.9 5.8s-3.4 1.9-5.7 1.9c-2.6 0-4.7-1-6.3-2.9-1.5-1.9-2.3-4.3-2.3-7.3 0-3.5.9-6.3 2.5-8.2 1.8-2 3.8-3 6.6-3 2.3-.1 4.2.5 5.5 1.6zm20.5.8c1.8 1.8 2.6 4.3 2.6 7.6 0 3.2-.8 5.9-2.3 8s-4 3.2-7.3 3.2c-2.7 0-4.9-1-6.6-2.9-1.6-1.9-2.4-4.4-2.4-7.6 0-3.4.9-6 2.5-8 1.8-2 4-3 6.8-3 2.8.2 5 1.1 6.7 2.7zm-2.1 13.4c.8-1.6 1.2-3.6 1.2-5.6 0-1.9-.3-3.4-.9-4.6-1-1.9-2.5-2.7-4.8-2.7-2.1 0-3.5.8-4.5 2.4-.9 1.5-1.4 3.5-1.4 5.7 0 2.1.4 4 1.4 5.4.9 1.4 2.4 2.1 4.4 2.1 2.3-.1 3.9-1 4.6-2.7zm8.9-15.3h3.3v2.9c.8-1 1.5-1.8 2.2-2.2 1.1-.8 2.4-1.1 3.8-1.1 1.6 0 2.9.4 3.8 1.2.5.4 1.1 1.1 1.5 2 .8-1.1 1.6-1.9 2.6-2.4s2.2-.8 3.4-.8c2.7 0 4.5 1 5.5 3 .5 1.1.8 2.4.8 4.3v13.2h-3.3v-14c0-1.3-.3-2.3-1-2.7-.7-.5-1.5-.8-2.4-.8-1.3 0-2.4.4-3.4 1.3s-1.4 2.4-1.4 4.5v11.7h-3.4v-13.1c0-1.3-.1-2.3-.4-3-.5-1-1.4-1.4-2.9-1.4-1.3 0-2.4.5-3.5 1.5s-1.5 2.7-1.5 5.4v10.6h-3.4v-20.1zm44.5.5c1.3.7 2.3 1.5 3.1 2.6.7 1 1.1 2.2 1.3 3.5.2.9.3 2.4.3 4.4h-14.6c.1 2.1.5 3.7 1.4 4.9s2.3 1.9 4.2 1.9c1.8 0 3.2-.5 4.2-1.8.5-.7 1-1.4 1.2-2.3h3.3c-.1.8-.3 1.5-.9 2.4-.5.9-1.1 1.6-1.6 2.2-1 1-2.3 1.6-3.7 2-.8.2-1.8.3-2.7.3-2.5 0-4.6-.9-6.4-2.7-1.8-1.9-2.6-4.4-2.6-7.7 0-3.2.9-5.8 2.6-7.9 1.8-2 4.1-3.1 6.8-3.1 1.4.3 2.8.6 4.1 1.3zm1.3 7.9c-.1-1.4-.4-2.6-1-3.5-.9-1.6-2.4-2.4-4.6-2.4-1.5 0-2.9.5-3.8 1.6-1 1.1-1.6 2.5-1.6 4.3-.1 0 11 0 11 0zm19.1-14h3.4v5.6h3.2v2.7h-3.2v13.1c0 .7.2 1.2.8 1.4.2.1.7.2 1.3.2h.5s.4 0 .7-.1v2.8c-.4.1-.8.2-1.2.2s-.9.1-1.3.1c-1.5 0-2.6-.4-3.2-1.2-.5-.8-.9-1.9-.9-3.2v-13.3h-2.7v-2.7h2.7zm24.6 7.5c1.8 1.8 2.6 4.3 2.6 7.6 0 3.2-.8 5.9-2.3 8s-4 3.2-7.3 3.2c-2.7 0-4.9-1-6.6-2.9-1.6-1.9-2.4-4.4-2.4-7.6 0-3.4.9-6 2.5-8 1.8-2 4-3 6.8-3 2.7.2 4.8 1.1 6.7 2.7zm-2.2 13.4c.8-1.6 1.2-3.6 1.2-5.6 0-1.9-.3-3.4-.9-4.6-1-1.9-2.5-2.7-4.8-2.7-2.1 0-3.5.8-4.5 2.4-.9 1.5-1.4 3.5-1.4 5.7 0 2.1.4 4 1.4 5.4.9 1.4 2.4 2.1 4.4 2.1 2.3-.1 3.8-1 4.6-2.7zm-191.3 33.2c.2 1.3.5 2.2 1.1 2.9 1 1.1 2.6 1.8 4.9 1.8 1.4 0 2.5-.1 3.4-.4 1.6-.5 2.5-1.6 2.5-3.2 0-.9-.4-1.6-1.2-2.1-.8-.4-2.1-.9-3.8-1.3l-3-.7c-3-.7-4.9-1.3-6-2.1-1.9-1.3-2.7-3.3-2.7-6 0-2.5.9-4.5 2.7-6.2 1.9-1.6 4.5-2.4 8-2.4 3 0 5.5.8 7.6 2.3s3.2 3.7 3.3 6.7h-5.6c-.1-1.6-.9-2.9-2.2-3.5-.9-.4-2.1-.7-3.4-.7-1.5 0-2.7.3-3.6.9s-1.3 1.4-1.3 2.5c0 1 .4 1.8 1.3 2.2.5.3 1.8.7 3.6 1.1l4.8 1.1c2.1.5 3.7 1.2 4.8 2 1.6 1.3 2.5 3.2 2.5 5.6 0 2.5-1 4.6-3 6.3-2 1.6-4.7 2.5-8.2 2.5-3.6 0-6.5-.9-8.6-2.4-2.1-1.6-3.2-4-3.2-6.8zm26.3-11.8v12.3c0 1.2.1 2.1.4 2.6.4 1 1.4 1.5 2.9 1.5 1.9 0 3.1-.8 3.7-2.2.3-.8.5-1.9.5-3.2v-11h5.4v20.4h-5.2v-2.9c0 .1-.2.2-.3.5-.2.3-.4.5-.7.9-.9.8-1.6 1.3-2.4 1.5s-1.6.4-2.7.4c-3 0-5.1-1.1-6.2-3.3-.5-1.2-.9-3-.9-5.3v-12.2zm16.1 3.9v-3.8h2.9v-5.7h5.3v5.7h3.3v3.8h-3.3v10.8c0 .9.1 1.3.3 1.5s.9.3 2 .3h.5s.3 0 .5 0v4l-2.5.1c-2.5.1-4.3-.3-5.2-1.3-.5-.7-.9-1.5-.9-2.9v-12.5zm12.7 0v-3.8h2.9v-5.7h5.3v5.7h3.3v3.8h-3.3v10.8c0 .9.1 1.3.3 1.5s.9.3 2 .3h.5s.3 0 .5 0v4l-2.5.1c-2.5.1-4.3-.3-5.2-1.3-.5-.7-.9-1.5-.9-2.9v-12.5zm32 14c-1.8 2.1-4.4 3.2-7.9 3.2s-6.2-1.1-7.9-3.2-2.6-4.7-2.6-7.7.9-5.5 2.6-7.7c1.8-2.2 4.4-3.3 7.9-3.3s6.2 1.1 7.9 3.3c1.8 2.2 2.6 4.7 2.6 7.7.1 2.9-.8 5.6-2.6 7.7zm-4.3-3c.9-1.1 1.2-2.7 1.2-4.7 0-2.1-.4-3.6-1.2-4.7-.9-1.1-2.1-1.6-3.6-1.6s-2.7.5-3.6 1.6-1.3 2.6-1.3 4.7.4 3.6 1.3 4.7 2.1 1.6 3.6 1.6c1.7.1 2.9-.5 3.6-1.6zm27.3-13.8c1.3 1.1 2 3 2 5.5v13.7h-5.5v-12.3c0-1.1-.1-1.9-.4-2.5-.5-1.1-1.5-1.5-3-1.5-1.8 0-3.1.8-3.7 2.3-.3.8-.5 1.9-.5 3.1v11h-5.4v-20.4h5.2v3c.7-1.1 1.3-1.8 2-2.3 1.1-.9 2.5-1.2 4.2-1.2 2-.1 3.8.5 5.1 1.6zm20.8-5.5c2.2-2.3 5.1-3.4 8.5-3.4 4.6 0 8 1.5 10.1 4.6 1.2 1.8 1.8 3.4 1.9 5.2h-5.8c-.3-1.3-.9-2.3-1.4-3-1-1.2-2.5-1.8-4.6-1.8s-3.7.9-4.8 2.5c-1.2 1.6-1.8 4.1-1.8 7.3 0 3.1.7 5.4 1.9 6.9s2.9 2.3 4.8 2.3c2 0 3.5-.7 4.5-2 .5-.8 1.1-1.8 1.4-3.2h5.7c-.5 3-1.8 5.5-3.8 7.4-2.1 1.9-4.6 2.9-7.8 2.9-4 0-7-1.3-9.3-3.8s-3.4-6-3.4-10.5c0-5.1 1.3-8.8 3.9-11.4zm41.7 22.3c-1.8 2.1-4.4 3.2-7.9 3.2s-6.2-1.1-7.9-3.2c-1.8-2.1-2.6-4.7-2.6-7.7s.9-5.5 2.6-7.7c1.8-2.2 4.4-3.3 7.9-3.3s6.2 1.1 7.9 3.3c1.8 2.2 2.6 4.7 2.6 7.7 0 2.9-.8 5.6-2.6 7.7zm-4.3-3c.9-1.1 1.2-2.7 1.2-4.7 0-2.1-.4-3.6-1.2-4.7-.9-1.1-2.1-1.6-3.6-1.6s-2.7.5-3.6 1.6-1.3 2.6-1.3 4.7.4 3.6 1.3 4.7 2.1 1.6 3.6 1.6c1.5.1 2.7-.5 3.6-1.6zm16.1-14.9v12.3c0 1.2.1 2.1.4 2.6.4 1 1.4 1.5 2.9 1.5 1.9 0 3.1-.8 3.7-2.2.3-.8.5-1.9.5-3.2v-11h5.4v20.4h-5.2v-2.9c0 .1-.2.2-.3.5-.2.3-.4.5-.7.9-.9.8-1.6 1.3-2.4 1.5s-1.6.4-2.7.4c-3 0-5.1-1.1-6.2-3.3-.5-1.2-.9-3-.9-5.3v-12.2zm34.6 1.1c1.3 1.1 2 3 2 5.5v13.7h-5.5v-12.3c0-1.1-.1-1.9-.4-2.5-.5-1.1-1.5-1.5-3-1.5-1.8 0-3.1.8-3.7 2.3-.3.8-.5 1.9-.5 3.1v11h-5.4v-20.4h5.2v3c.7-1.1 1.3-1.8 2-2.3 1.1-.9 2.5-1.2 4.2-1.2 2.1-.1 3.8.5 5.1 1.6zm19.2 6.1c-.1-.8-.3-1.4-.8-2.1-.5-.9-1.5-1.2-2.9-1.2-1.8 0-3.1.9-3.7 2.6-.3 1-.5 2.2-.5 3.7s.2 2.7.5 3.6c.7 1.6 1.9 2.5 3.6 2.5 1.2 0 2.2-.3 2.6-1s.9-1.5 1-2.6h5.5c-.1 1.6-.8 3.2-1.8 4.6-1.6 2.3-4.2 3.5-7.5 3.5s-5.7-1-7.3-3c-1.5-2-2.3-4.5-2.3-7.6 0-3.5.9-6.3 2.5-8.2 1.6-2 4.1-3 7.1-3 2.5 0 4.7.5 6.3 1.8 1.6 1.1 2.6 3.2 2.9 6.2h-5.4v.2zm14.7-9.8h-5.3v-4.9h5.4v4.9zm-5.5 2.6h5.4v20.4h-5.4zm16.2 20.4h-5.4v-27.7h5.4zm-320.1-37.6c-1.1-.5-3.3-.4-4.7-.4-1.8.8-5.2 1.2-5.2 1.2s4.2-1.9 5.1-3.2c.9-1.4 2-4.5 2-4.5s0 4.6-1 5.9c1.4-.4 3.2-.8 4.1-.3 1.5.8 3.4 4.6 3.4 4.6s-2-2.5-3.7-3.3m-7.2-14.7c.9 0 1.5.7 1.5 1.5s-.7 1.5-1.5 1.5c-.9 0-1.5-.7-1.5-1.5s.8-1.5 1.5-1.5m7.8 4.9c.9 0 1.5.7 1.5 1.5s-.7 1.5-1.5 1.5c-.9 0-1.5-.7-1.5-1.5s.7-1.5 1.5-1.5m7.9-10c-.9-1.4-3.3-.9-5.3-.3l-1.6.3c-.8.1-1.4-.1-1.9-.5-.2-.2-.4-.5-.5-1-2 .8-6.2 2.5-8.2 4.2-2.2 1.6-3.1 6-3.3 8.6.7 1.4 1.1 3 .7 4.1-1 3.1-4.5 5.2-6.6 6.3.1.8-.8 2.6-.8 2.6h.1s3.4-2.6 5.8-2.4c1.3.1 1.8 1.2 2.3 2.5.2.5.4 1.1.8 1.5 1.6 2.5 4.6 3.5 8.8 3.1 4.6-.4 12-6.9 13.5-8.7l.3-.4s3.1-3.5 3.6-4.9c1.4-3.1.4-5.8.4-5.9v-.1s-1.3 1.5-3.7 1.6h-.1c-.5-.4-1.3-.8-2-1-1.1-.4-2.3-1-3.1-2.1-.8-1.2-.1-2.6.4-4.1.4-1.3.8-2.5.4-3.4m-53.7 41.5s2.3.5 5.2.8c2.9.2 11 1 14 1.2s10.4.5 12.5-.2c2.2-.8 4.7-2 3.4-3.6s-2.1-1.2-4.2-.5c-2.1.5-4.3.8-6.7.8h-13c-3.3-.2-11.2 1.5-11.2 1.5m20.6-31.5c-.9 0-1.5-.7-1.5-1.5s.7-1.5 1.5-1.5c.9 0 1.5.7 1.5 1.5 0 .9-.6 1.5-1.5 1.5m3.9-8.8c.9 0 1.5.7 1.5 1.5s-.7 1.5-1.5 1.5-1.4-.7-1.4-1.5.7-1.5 1.4-1.5m3.1 12c.9 0 1.5.7 1.5 1.5 0 .9-.7 1.5-1.5 1.5-.9 0-1.5-.7-1.5-1.5 0-.7.7-1.5 1.5-1.5m-15.9-9.4c-.9 0-1.5-.7-1.5-1.5s.7-1.5 1.5-1.5c.9 0 1.5.7 1.5 1.5-.1.8-.8 1.5-1.5 1.5m-10.4 8.1c-.9 0-1.5-.7-1.5-1.5s.7-1.5 1.5-1.5 1.5.7 1.5 1.5-.7 1.5-1.5 1.5m.5-22.9c.1 0 .1 0 0 0 0 0 .1.1.1.2s0 0-.1-.2m-1 7.2c-.1-.1-.1-.2-.2-.3.1.1.1.2.2.3zm-3.4 2.6c0-.1 0-.1 0 0m33.7-5.1c.9 0 1.5.7 1.5 1.5 0 .9-.7 1.5-1.5 1.5-.9 0-1.5-.7-1.5-1.5.1-.9.8-1.5 1.5-1.5m-24.4 26.7c-.9 0-1.5-.7-1.5-1.5s.7-1.5 1.5-1.5c.9 0 1.5.7 1.5 1.5s-.6 1.5-1.5 1.5m-11.8-1.2c-.4 1-2.6 1.2-4.6 1.5-2.3.3-4.4.7-4.6 1.8-.1.4 0 .9.4 1.3 1.8 1.6 8 2.1 12.9.9 1.9-.4 3.7.7 5.7 1.9 2.3 1.4 4.9 3 8.2 2.4 2.5-.4 8.2-4.3 11.3-6.4 1.1-.8 1.9-1.3 2-1.3 2-1.8 5.5-4.9 5.5-6.8 0-2.9-3.7-10-3.7-10s2.6 2.9 4.2 5.8c-.1-2.7.1-6.9 2.6-8.8 2.2-1.6 7-2.7 9.3-3.1-.2-.7-.2-1.5 0-2.3l.5-1.6c.7-2 1.5-4.4.4-6.6-1-2-3.8-1.4-6.5-.9-1.2.2-2.4.4-3.2.4-1.2-.1-1.4-1.3-1.8-2.6l-.2-.8v-.1-.1c0-.8 1.4-1.6 1.4-1.6-.2-.2-1.3-.8-2.6-.9-1.5-.1-4.2.8-4.2.8v.1c-.1 0-.3.1-.4.1-1.5.3-2.9 1-3.4 1.6-1.2 1.3-5.6 1.3-7.1 1.3-1.3 0-2.9.9-3 3-.2 2.9-1.1 4.8-2.6 6.3 1.8-.4 3.7-.9 4.6-.4 1 .5 1.8 1.9 2.2 3.1.5-2.1 4.9-5.1 4.9-5.1s-2.3 3.8-3.1 5.7-.1 6.4-.1 6.4-1.2-3.1-1.6-5.3c-.8-1.1-2.1-2.6-3.6-3.3-1.1-.4-3-.4-4.4-.3-.1 0-.1.1-.2.1s-.3 0-.4-.1c-.7.1-1 .1-1 .1s.2-.1.5-.2c-1.3-.2-3.3-.7-4.2-1.3-1.2-.9-3.2-4.7-3.2-4.7s-.1.1-.1.3c-.5 1.2-2.1 5.1-.9 6.8-.1 0-.2.1-.3.1-2 .9-3.1 2.4-3.1 2.4h.1c.4 0 2.1.1 3 1.6l1 2.2c.7 1.4 1.3 2.6 1 3.3-.5 1-1.5.5-3 .1-.9-.3-1.8-.7-2.9-.8-2.6-.3-6 2.4-6.7 5.3-.4 1.9 1.3 3.5 2.7 4.9 1.2 1.2 2.3 2.2 2.2 3.3 3.7-2.1 11.8-6.3 15.1-6.3-1.3-.7-2.7-1.5-3.3-2-1.1-1.1.8-5.6.8-5.6s.3 3.8.7 4.8c.2.5 2 2.1 3.3 3.1 3.6 1.4 9.5 7.1 9.5 7.1s-6.5-4.2-9.9-5.3c-2.8-.6-12.2 3-16.1 4.7m2.5-20.4c0-.1 0-.1 0 0 0-.1 0 0 0 0m3.4-2.6c-.1-.1-.1-.2-.2-.3.1.1.1.2.2.3m1-7.2s.1.1.1.2c0 0 0-.2-.1-.2.1 0 .1 0 0 0m15.8 42c-1.6 2.2-2.1 7.3-2.1 7.3s.8-.7 2.3-.8 4.8.2 4.8.2-.5-3.4-.1-4.8c.7-2.3 3.1-5.1 4.3-6.5s5.7-3.2 5.7-3.2-1.3-.9-3.2.3c-.8.5-4.9 2.9-4.8 2.2s.7-2.9.7-2.9-5.8 6-7.6 8.2m5.7-63.4c-25.5 0-46.2 20.8-46.2 46.3 0 13.2 5.5 25.1 14.4 33.5h5.6c-9.9-7.8-16.3-19.9-16.3-33.5 0-23.5 19-42.6 42.4-42.6s42.4 19.1 42.4 42.6c0 16.7-9.7 31.2-23.6 38.1v4.1c16-7.3 27.4-23.4 27.4-42.3.1-25.4-20.6-46.2-46.1-46.2m-54.9 89c-2.1-1-2.7-1.8-2.7-3 0-1.1 1.1-2.1 2.3-2.1s2.1.4 3 1.4v1.9h1.6v-5.2h-1.6v1.2c-1-.7-2-.9-3.3-.9-3 0-4.9 1.8-4.9 4.4 0 .9.2 1.8.8 2.5.8 1.2 2 2.1 4.5 3.5 1.8 1 2.3 1.6 2.3 3 0 1.2-1.1 2.3-2.3 2.3s-2.5-.9-3.4-2.1v-2h-1.6v5.9h1.6v-1.3c1 .8 2.3 1.1 3.5 1.1 3.1 0 5.2-1.9 5.2-4.7-.2-2.6-1.5-4.1-5-5.9m18.9-1.5h-5.3v1.2h2.1v8c-.2.2-.3.2-.8.4-.9.4-1.3.5-1.8.5-1.1 0-1.8-.7-1.8-2.1v-8.2h-5.3v1.2h2.1v7.6c0 2 1.2 3.2 3.5 3.2 1.1 0 2.2-.3 3.7-1.3l.2-.2v1.3h5.3v-1.3h-1.9zm27.6 10.9c-2.1 0-3.2-1.6-3.2-4.9v-.2c0-2.9 1.2-4.7 3.1-4.7 2 0 3.1 1.8 3.1 4.9-.1 3.1-1.1 4.9-3 4.9m-.1-11.2c-4 0-6.6 2.5-6.6 6.2 0 3.5 2.7 6.2 6.5 6.2 2.4 0 4-.7 5.3-2.1 1-1.1 1.5-2.7 1.5-4.2 0-3.6-2.8-6.1-6.7-6.1m20.4 3.6c0-2.3-1.2-3.6-3.4-3.6-1.1 0-2.2.4-3.8 1.5l-.2.1v-1.4h-5.3v1.2h2.1v9.3h-2.1v1.3h6.9v-1.3h-1.6v-8c1-.7 1.8-1 2.5-1 1.2 0 1.6.5 1.6 2.3v.4 6.3h-1.6v1.3h7v-1.3h-2.1zm-28.1 6.4c-.1 0-.1 0-.2 0 0 0-.1.1-.2.1s-.2.1-.3.2c-.5.3-.9.5-1.2.5-1 0-1.5-1.1-1.5-2.7v-6.4h3.2v-1.4h-3.2v-3.3l-3.5 3.3h-5.5v-3.3l-5.1 4.7h1.8v6.8c0 2.4 1.2 3.7 3.6 3.7 1.4 0 2.4-.4 3.2-1.4.2-.2.2-.3.2-.5s-.1-.3-.3-.3c-.1 0-.1 0-.2 0s-.1.1-.2.1-.2.1-.3.2c-.5.3-.9.5-1.2.5-1 0-1.5-1.1-1.5-2.7v-6.4h3.2.7 1.8v6.8c0 2.4 1.2 3.7 3.6 3.7 1.4 0 2.4-.4 3.2-1.4.2-.2.2-.3.2-.5s-.2-.3-.3-.3" fill="#fff"/></svg>